<svg xmlns="http://www.w3.org/2000/svg" xmlns:xlink="http://www.w3.org/1999/xlink" width="492" height="324" viewBox="0 0 492 324">
  <defs>
    <linearGradient id="linear-gradient" y1="0.5" x2="1" y2="0.5" gradientUnits="objectBoundingBox">
      <stop offset="0" stop-color="#37f8bc"/>
      <stop offset="1" stop-color="#07d3ca"/>
    </linearGradient>
    <clipPath id="clip-Artboard_2">
      <rect width="492" height="324"/>
    </clipPath>
  </defs>
  <g id="Artboard_2" data-name="Artboard – 2" clip-path="url(#clip-Artboard_2)">
    <rect width="492" height="324" fill="rgba(255,255,255,0)"/>
    <g id="Group_362" data-name="Group 362" transform="translate(-0.452)">
      <g id="uiButton" transform="translate(89 103)">
        <rect id="Button" width="316.06" height="79" rx="27" transform="translate(-0.548 0.362)" fill="url(#linear-gradient)"/>
        <g id="Group_110" data-name="Group 110" transform="translate(-103.092 23.362)">
          <text id="Text" transform="translate(271.933 24)" fill="#fff" font-size="24" font-family="AvenirNext-DemiBold, Avenir Next" font-weight="300" letter-spacing="-0.006em"><tspan x="-55.8" y="0">download</tspan></text>
          <path id="Path_455" data-name="Path 455" d="M8995.332,927.1a1.19,1.19,0,1,1,1.683-1.683l4.992,4.992V913.852a1.189,1.189,0,1,1,2.378,0v16.515l4.955-4.954a1.19,1.19,0,0,1,1.683,1.683l-5.837,5.838a2.846,2.846,0,0,1-4.019,0Zm17.019,9.22h-18.312a1.19,1.19,0,1,0,0,2.38h18.312a1.19,1.19,0,1,0,0-2.38Z" transform="translate(-8799.608 -909.436)" fill="#fff"/>
        </g>
      </g>
    </g>
  </g>
</svg>
