<?xml version="1.0" encoding="UTF-8" standalone="no"?>
<svg
   xmlns:dc="http://purl.org/dc/elements/1.1/"
   xmlns:cc="http://creativecommons.org/ns#"
   xmlns:rdf="http://www.w3.org/1999/02/22-rdf-syntax-ns#"
   xmlns:svg="http://www.w3.org/2000/svg"
   xmlns="http://www.w3.org/2000/svg"
   id="svg128"
   version="1.1"
   viewBox="-282.225 -54.525 347.652 34.31"
   class="Path_362_cb">
  <metadata
     id="metadata134">
    <rdf:RDF>
      <cc:Work
         rdf:about="">
        <dc:format>image/svg+xml</dc:format>
        <dc:type
           rdf:resource="http://purl.org/dc/dcmitype/StillImage" />
        <dc:title></dc:title>
      </cc:Work>
    </rdf:RDF>
  </metadata>
  <defs
     id="defs132" />
  <path
     d="M -251.8244323730469 -37.46205520629883 C -251.8244323730469 -34.61056518554688 -252.3533325195312 -32.15000534057617 -253.4111633300781 -30.08037757873535 C -254.4689331054688 -28.01074600219727 -255.8640441894531 -26.30905151367188 -257.5963745117188 -24.97529029846191 C -259.3287353515625 -23.64152908325195 -261.2833862304688 -22.66036987304688 -263.4603271484375 -22.03181648254395 C -265.6372985839844 -21.40326309204102 -267.8448791503906 -21.08898544311523 -270.0831604003906 -21.08898544311523 L -282.2249755859375 -21.08898544311523 L -282.2249755859375 -53.65115356445312 L -270.4510803222656 -53.65115356445312 C -268.1515197753906 -53.65115356445312 -265.882568359375 -53.38287353515625 -263.6443176269531 -52.84630584716797 C -261.4060363769531 -52.30973052978516 -259.4130554199219 -51.42055511474609 -257.6653747558594 -50.17877960205078 C -255.9176940917969 -48.93700408935547 -254.5072631835938 -47.27363586425781 -253.4341125488281 -45.18867492675781 C -252.3609924316406 -43.10371398925781 -251.8244323730469 -40.52817535400391 -251.8244323730469 -37.46205520629883 Z M -260.0109558105469 -37.46205520629883 C -260.0109558105469 -39.30172729492188 -260.3099060058594 -40.82712173461914 -260.9078063964844 -42.03823852539062 C -261.5056762695312 -43.24935150146484 -262.3028869628906 -44.21517944335938 -263.2993774414062 -44.93571472167969 C -264.2958679199219 -45.65625762939453 -265.4303283691406 -46.16983032226562 -266.7027587890625 -46.4764404296875 C -267.9751892089844 -46.78305053710938 -269.2859802246094 -46.93635559082031 -270.6350402832031 -46.93635559082031 L -274.5443420410156 -46.93635559082031 L -274.5443420410156 -27.89576721191406 L -270.8190307617188 -27.89576721191406 C -269.4085998535156 -27.89576721191406 -268.0518493652344 -28.05673980712891 -266.7487487792969 -28.37868118286133 C -265.4456481933594 -28.70062255859375 -264.2958679199219 -29.22952842712402 -263.2993774414062 -29.96539688110352 C -262.3028869628906 -30.70126533508301 -261.5056762695312 -31.68242263793945 -260.9078063964844 -32.90887069702148 C -260.3099060058594 -34.13531494140625 -260.0109558105469 -35.65304565429688 -260.0109558105469 -37.46205520629883 Z M -203.4870910644531 -37.50804901123047 C -203.4870910644531 -34.93251037597656 -203.931640625 -32.57926177978516 -204.8208312988281 -30.44831085205078 C -205.7099914550781 -28.31735992431641 -206.9441223144531 -26.49301910400391 -208.5231628417969 -24.97529029846191 C -210.1022338867188 -23.45756149291992 -211.9801940917969 -22.28477096557617 -214.1571655273438 -21.4569206237793 C -216.3341064453125 -20.62906837463379 -218.6950073242188 -20.21514129638672 -221.2398986816406 -20.21514129638672 C -223.7847595214844 -20.21514129638672 -226.1380310058594 -20.62906837463379 -228.2996215820312 -21.4569206237793 C -230.4612426757812 -22.28477096557617 -232.3316040039062 -23.45756149291992 -233.9106140136719 -24.97529029846191 C -235.4896850585938 -26.49301910400391 -236.7237854003906 -28.31735992431641 -237.6129760742188 -30.44831085205078 C -238.5021362304688 -32.57926177978516 -238.9467468261719 -34.93251037597656 -238.9467468261719 -37.50804901123047 C -238.9467468261719 -40.11425018310547 -238.5021362304688 -42.46749877929688 -237.6129760742188 -44.56778335571289 C -236.7237854003906 -46.66807556152344 -235.4896850585938 -48.45408630371094 -233.9106140136719 -49.92581939697266 C -232.3316040039062 -51.39756011962891 -230.4612426757812 -52.53202056884766 -228.2996215820312 -53.32921600341797 C -226.1380310058594 -54.12640380859375 -223.7847595214844 -54.52500152587891 -221.2398986816406 -54.52500152587891 C -218.6950073242188 -54.52500152587891 -216.3341064453125 -54.12640380859375 -214.1571655273438 -53.32921600341797 C -211.9801940917969 -52.53202056884766 -210.1022338867188 -51.39756011962891 -208.5231628417969 -49.92581939697266 C -206.9441223144531 -48.45408630371094 -205.7099914550781 -46.66807556152344 -204.8208312988281 -44.56778335571289 C -203.931640625 -42.46749877929688 -203.4870910644531 -40.11425018310547 -203.4870910644531 -37.50804901123047 Z M -211.903564453125 -37.50804901123047 C -211.903564453125 -38.91846084594727 -212.1335144042969 -40.23689270019531 -212.5934448242188 -41.46333694458008 C -213.0533752441406 -42.68978881835938 -213.6895751953125 -43.73992919921875 -214.5021057128906 -44.61376953125 C -215.3146362304688 -45.48761749267578 -216.2957763671875 -46.17749786376953 -217.4455871582031 -46.68340301513672 C -218.5953674316406 -47.18931579589844 -219.8601379394531 -47.44226837158203 -221.2398986816406 -47.44226837158203 C -222.6196594238281 -47.44226837158203 -223.8767395019531 -47.18931579589844 -225.0111999511719 -46.68340301513672 C -226.1456909179688 -46.17749786376953 -227.1268310546875 -45.48761749267578 -227.9546813964844 -44.61376953125 C -228.7825622558594 -43.73992919921875 -229.4187622070312 -42.68978881835938 -229.8633422851562 -41.46333694458008 C -230.3079528808594 -40.23689270019531 -230.5302429199219 -38.91846084594727 -230.5302429199219 -37.50804901123047 C -230.5302429199219 -36.03630828857422 -230.3002624511719 -34.67955017089844 -229.84033203125 -33.43777465820312 C -229.3804321289062 -32.19599914550781 -228.7442321777344 -31.13052177429199 -227.9317016601562 -30.24134826660156 C -227.1191711425781 -29.3521728515625 -226.1456909179688 -28.65463066101074 -225.0111999511719 -28.14872360229492 C -223.8767395019531 -27.64281272888184 -222.6196594238281 -27.38985824584961 -221.2398986816406 -27.38985824584961 C -219.8601379394531 -27.38985824584961 -218.60302734375 -27.64281272888184 -217.4685668945312 -28.14872360229492 C -216.3341064453125 -28.65463066101074 -215.3529663085938 -29.3521728515625 -214.5250854492188 -30.24134826660156 C -213.697265625 -31.13052177429199 -213.0533752441406 -32.19599914550781 -212.5934448242188 -33.43777465820312 C -212.1335144042969 -34.67955017089844 -211.903564453125 -36.03630828857422 -211.903564453125 -37.50804901123047 Z M -154.5978088378906 -21.08898544311523 L -162.3704223632812 -21.08898544311523 L -168.8092803955078 -43.11904144287109 L -168.947265625 -43.11904144287109 L -175.3861083984375 -21.08898544311523 L -183.2047119140625 -21.08898544311523 L -192.4490661621094 -53.65115356445312 L -183.986572265625 -53.65115356445312 L -178.8354797363281 -31.98903274536133 L -178.697509765625 -31.98903274536133 L -172.9025573730469 -53.65115356445312 L -164.7160186767578 -53.65115356445312 L -158.8750610351562 -31.98903274536133 L -158.7370910644531 -31.98903274536133 L -153.4940185546875 -53.65115356445312 L -145.3074951171875 -53.65115356445312 L -154.5978088378906 -21.08898544311523 Z M -112.0554428100586 -21.08898544311523 L -125.1631011962891 -42.38317489624023 L -125.3010711669922 -42.38317489624023 L -125.1171035766602 -21.08898544311523 L -132.7517395019531 -21.08898544311523 L -132.7517395019531 -53.65115356445312 L -123.7833404541016 -53.65115356445312 L -110.7216796875 -32.40296173095703 L -110.5837097167969 -32.40296173095703 L -110.7676696777344 -53.65115356445312 L -103.1330413818359 -53.65115356445312 L -103.1330413818359 -21.08898544311523 L -112.0554428100586 -21.08898544311523 Z M -87.21988677978516 -21.08898544311523 L -87.21988677978516 -53.65115356445312 L -79.30930328369141 -53.65115356445312 L -79.30930328369141 -27.94175910949707 L -66.70755767822266 -27.94175910949707 L -66.70755767822266 -21.08898544311523 L -87.21988677978516 -21.08898544311523 Z M -21.2676887512207 -37.50804901123047 C -21.2676887512207 -34.93251037597656 -21.7122802734375 -32.57926177978516 -22.6014518737793 -30.44831085205078 C -23.49061965942383 -28.31735992431641 -24.7247314453125 -26.49301910400391 -26.30377960205078 -24.97529029846191 C -27.88283538818359 -23.45756149291992 -29.76082992553711 -22.28477096557617 -31.93777084350586 -21.4569206237793 C -34.11471557617188 -20.62906837463379 -36.47563171386719 -20.21514129638672 -39.0205078125 -20.21514129638672 C -41.56538391113281 -20.21514129638672 -43.91862487792969 -20.62906837463379 -46.08024215698242 -21.4569206237793 C -48.24185943603516 -22.28477096557617 -50.11219024658203 -23.45756149291992 -51.69123840332031 -24.97529029846191 C -53.27029418945312 -26.49301910400391 -54.5044059753418 -28.31735992431641 -55.39357757568359 -30.44831085205078 C -56.28275299072266 -32.57926177978516 -56.72733688354492 -34.93251037597656 -56.72733688354492 -37.50804901123047 C -56.72733688354492 -40.11425018310547 -56.28275299072266 -42.46749877929688 -55.39357757568359 -44.56778335571289 C -54.5044059753418 -46.66807556152344 -53.27029418945312 -48.45408630371094 -51.69123840332031 -49.92581939697266 C -50.11219024658203 -51.39756011962891 -48.24185943603516 -52.53202056884766 -46.08024215698242 -53.32921600341797 C -43.91862487792969 -54.12640380859375 -41.56538391113281 -54.52500152587891 -39.0205078125 -54.52500152587891 C -36.47563171386719 -54.52500152587891 -34.11471557617188 -54.12640380859375 -31.93777084350586 -53.32921600341797 C -29.76082992553711 -52.53202056884766 -27.88283538818359 -51.39756011962891 -26.30377960205078 -49.92581939697266 C -24.7247314453125 -48.45408630371094 -23.49061965942383 -46.66807556152344 -22.6014518737793 -44.56778335571289 C -21.7122802734375 -42.46749877929688 -21.2676887512207 -40.11425018310547 -21.2676887512207 -37.50804901123047 Z M -29.68417358398438 -37.50804901123047 C -29.68417358398438 -38.91846084594727 -29.91413497924805 -40.23689270019531 -30.37405395507812 -41.46333694458008 C -30.83397674560547 -42.68978881835938 -31.47019195556641 -43.73992919921875 -32.28271484375 -44.61376953125 C -33.09523391723633 -45.48761749267578 -34.07639312744141 -46.17749786376953 -35.22618865966797 -46.68340301513672 C -36.37598037719727 -47.18931579589844 -37.6407585144043 -47.44226837158203 -39.0205078125 -47.44226837158203 C -40.40026092529297 -47.44226837158203 -41.65737152099609 -47.18931579589844 -42.79183197021484 -46.68340301513672 C -43.92629241943359 -46.17749786376953 -44.90745544433594 -45.48761749267578 -45.73530578613281 -44.61376953125 C -46.56315612792969 -43.73992919921875 -47.19937896728516 -42.68978881835938 -47.64396286010742 -41.46333694458008 C -48.08854675292969 -40.23689270019531 -48.31084442138672 -38.91846084594727 -48.31084442138672 -37.50804901123047 C -48.31084442138672 -36.03630828857422 -48.08088684082031 -34.67955017089844 -47.6209716796875 -33.43777465820312 C -47.16104888916016 -32.19599914550781 -46.52483367919922 -31.13052177429199 -45.71230697631836 -30.24134826660156 C -44.8997917175293 -29.3521728515625 -43.92629241943359 -28.65463066101074 -42.79183197021484 -28.14872360229492 C -41.65737152099609 -27.64281272888184 -40.40026092529297 -27.38985824584961 -39.0205078125 -27.38985824584961 C -37.6407585144043 -27.38985824584961 -36.38364410400391 -27.64281272888184 -35.24918365478516 -28.14872360229492 C -34.11471939086914 -28.65463066101074 -33.13356399536133 -29.3521728515625 -32.30571365356445 -30.24134826660156 C -31.47785949707031 -31.13052177429199 -30.83397674560547 -32.19599914550781 -30.37405395507812 -33.43777465820312 C -29.91413497924805 -34.67955017089844 -29.68417358398438 -36.03630828857422 -29.68417358398438 -37.50804901123047 Z M 14.37591552734375 -21.08898544311523 L 11.84637451171875 -27.48184204101562 L -0.7553634643554688 -27.48184204101562 L -3.146949768066406 -21.08898544311523 L -11.70141983032227 -21.08898544311523 L 1.958145141601562 -53.65115356445312 L 9.592781066894531 -53.65115356445312 L 23.11435699462891 -21.08898544311523 L 14.37591552734375 -21.08898544311523 Z M 5.637489318847656 -44.95871353149414 L 1.498222351074219 -33.78271484375 L 9.68475341796875 -33.78271484375 L 5.637489318847656 -44.95871353149414 Z M 65.42678070068359 -37.46205520629883 C 65.42678070068359 -34.61056518554688 64.89788055419922 -32.15000534057617 63.84003448486328 -30.08037757873535 C 62.78223419189453 -28.01074600219727 61.38715362548828 -26.30905151367188 59.65480804443359 -24.97529029846191 C 57.92244720458984 -23.64152908325195 55.96779632568359 -22.66036987304688 53.79086303710938 -22.03181648254395 C 51.61389923095703 -21.40326309204102 49.40629577636719 -21.08898544311523 47.16802215576172 -21.08898544311523 L 35.02621459960938 -21.08898544311523 L 35.02621459960938 -53.65115356445312 L 46.80011749267578 -53.65115356445312 C 49.09967803955078 -53.65115356445312 51.36861419677734 -53.38287353515625 53.60688018798828 -52.84630584716797 C 55.84515380859375 -52.30973052978516 57.83811187744141 -51.42055511474609 59.58580780029297 -50.17877960205078 C 61.33350372314453 -48.93700408935547 62.74391937255859 -47.27363586425781 63.81703948974609 -45.18867492675781 C 64.89020538330078 -43.10371398925781 65.42678070068359 -40.52817535400391 65.42678070068359 -37.46205520629883 Z M 57.24025726318359 -37.46205520629883 C 57.24025726318359 -39.30172729492188 56.94127655029297 -40.82712173461914 56.34339141845703 -42.03823852539062 C 55.7454833984375 -43.24935150146484 54.94831848144531 -44.21517944335938 53.95181274414062 -44.93571472167969 C 52.95532989501953 -45.65625762939453 51.82087707519531 -46.16983032226562 50.54843902587891 -46.4764404296875 C 49.27598571777344 -46.78305053710938 47.96521759033203 -46.93635559082031 46.61614227294922 -46.93635559082031 L 42.70684051513672 -46.93635559082031 L 42.70684051513672 -27.89576721191406 L 46.43216705322266 -27.89576721191406 C 47.84257507324219 -27.89576721191406 49.1993408203125 -28.05673980712891 50.50244140625 -28.37868118286133 C 51.8055419921875 -28.70062255859375 52.95532989501953 -29.22952842712402 53.95181274414062 -29.96539688110352 C 54.94831848144531 -30.70126533508301 55.7454833984375 -31.68242263793945 56.34339141845703 -32.90887069702148 C 56.94127655029297 -34.13531494140625 57.24025726318359 -35.65304565429688 57.24025726318359 -37.46205520629883 Z"
     id="Path_362_cb" />
</svg>
