<?xml version="1.0" encoding="utf-8"?>
<!-- Generator: Adobe Illustrator 25.2.0, SVG Export Plug-In . SVG Version: 6.00 Build 0)  -->
<svg version="1.1" id="Layer_1" xmlns="http://www.w3.org/2000/svg" xmlns:xlink="http://www.w3.org/1999/xlink" x="0px" y="0px"
	 viewBox="0 0 331.4 79" style="enable-background:new 0 0 331.4 79;" xml:space="preserve">
<style type="text/css">
	.st0{fill:#00B448;}
	.st1{enable-background:new    ;}
	.st2{fill:#FFFFFF;}
</style>
<polygon class="st0" points="331.4,79 0,79 0,0 331.4,0 "/>
<g id="Group_362_1_" transform="translate(-16 -4)">
	<g class="st1">
		<path class="st2" d="M156.7,49.8h-2.3v-1.4l0,0c-0.3,0.6-0.8,1-1.4,1.3s-1.2,0.4-1.9,0.4s-1.4-0.1-2-0.4c-0.6-0.3-1.1-0.6-1.5-1.1
			s-0.7-1-0.9-1.6s-0.3-1.3-0.3-2s0.1-1.4,0.3-2s0.6-1.2,1-1.6c0.4-0.5,0.9-0.8,1.5-1.1s1.2-0.4,1.9-0.4c0.4,0,0.8,0.1,1.2,0.2
			c0.3,0.1,0.7,0.2,0.9,0.4c0.3,0.1,0.5,0.3,0.7,0.5s0.3,0.3,0.5,0.5h0.1v-6.8h2.4v15.1C156.9,49.8,156.7,49.8,156.7,49.8z
			 M148.8,44.9c0,0.4,0.1,0.8,0.2,1.1c0.1,0.4,0.3,0.7,0.5,1s0.5,0.5,0.9,0.7c0.3,0.2,0.8,0.3,1.2,0.3s0.8-0.1,1.2-0.3
			c0.3-0.2,0.6-0.4,0.9-0.7c0.2-0.3,0.4-0.6,0.6-1c0.1-0.4,0.2-0.7,0.2-1.1c0-0.4-0.1-0.8-0.2-1.1c-0.1-0.4-0.3-0.7-0.6-1
			c-0.2-0.3-0.5-0.5-0.9-0.7c-0.3-0.2-0.7-0.3-1.2-0.3s-0.9,0.1-1.2,0.3s-0.6,0.4-0.9,0.7c-0.2,0.3-0.4,0.6-0.5,1
			C148.8,44.2,148.8,44.6,148.8,44.9z"/>
		<path class="st2" d="M159,44.9c0-0.8,0.1-1.5,0.4-2.1c0.3-0.6,0.6-1.2,1.1-1.6c0.5-0.4,1-0.8,1.7-1c0.6-0.2,1.3-0.4,2.1-0.4
			s1.4,0.1,2.1,0.4c0.6,0.2,1.2,0.6,1.7,1s0.8,1,1.1,1.6s0.4,1.3,0.4,2.1s-0.1,1.5-0.4,2.1c-0.3,0.6-0.6,1.2-1.1,1.6s-1,0.8-1.7,1.1
			s-1.3,0.4-2.1,0.4s-1.4-0.1-2.1-0.4s-1.2-0.6-1.7-1.1c-0.5-0.4-0.8-1-1.1-1.6S159,45.7,159,44.9z M161.5,44.9
			c0,0.4,0.1,0.8,0.2,1.1c0.1,0.4,0.3,0.7,0.5,1s0.5,0.5,0.9,0.7c0.3,0.2,0.8,0.3,1.2,0.3c0.5,0,0.9-0.1,1.2-0.3s0.6-0.4,0.9-0.7
			c0.2-0.3,0.4-0.6,0.5-1s0.2-0.8,0.2-1.1c0-0.4-0.1-0.7-0.2-1.1c-0.1-0.4-0.3-0.7-0.5-1s-0.5-0.5-0.9-0.7c-0.3-0.2-0.8-0.3-1.2-0.3
			c-0.5,0-0.9,0.1-1.2,0.3s-0.6,0.4-0.9,0.7c-0.2,0.3-0.4,0.6-0.5,1C161.5,44.2,161.5,44.6,161.5,44.9z"/>
		<path class="st2" d="M170.3,40.1h2.6l2,6.9l0,0l2.1-6.9h2.6l2.1,6.9l0,0l2.1-6.9h2.5l-3.3,9.7h-2.5l-2.2-6.8l0,0l-2.2,6.8h-2.4
			L170.3,40.1z"/>
		<path class="st2" d="M187.8,40.1h2.3v1.5l0,0c0.2-0.5,0.6-0.9,1.1-1.3c0.5-0.4,1.2-0.6,1.9-0.6c0.6,0,1.2,0.1,1.6,0.3
			s0.8,0.5,1.1,0.9s0.5,0.8,0.6,1.2c0.1,0.5,0.2,1,0.2,1.4v6h-2.4v-5.4c0-0.3,0-0.6-0.1-0.9c0-0.3-0.1-0.6-0.3-0.8
			c-0.1-0.2-0.3-0.5-0.6-0.6c-0.2-0.2-0.5-0.2-0.9-0.2s-0.7,0.1-1,0.2c-0.3,0.2-0.5,0.4-0.7,0.6s-0.3,0.5-0.4,0.8s-0.1,0.6-0.1,1
			v5.3h-2.4L187.8,40.1L187.8,40.1z"/>
		<path class="st2" d="M199.4,34.6h2.4v15.2h-2.4V34.6z"/>
		<path class="st2" d="M204.1,44.9c0-0.8,0.1-1.5,0.4-2.1s0.6-1.2,1.1-1.6s1-0.8,1.7-1c0.6-0.2,1.3-0.4,2.1-0.4s1.4,0.1,2.1,0.4
			c0.6,0.2,1.2,0.6,1.7,1s0.8,1,1.1,1.6s0.4,1.3,0.4,2.1s-0.1,1.5-0.4,2.1s-0.6,1.2-1.1,1.6s-1,0.8-1.7,1.1
			c-0.6,0.3-1.3,0.4-2.1,0.4s-1.4-0.1-2.1-0.4c-0.6-0.3-1.2-0.6-1.7-1.1s-0.8-1-1.1-1.6S204.1,45.7,204.1,44.9z M206.5,44.9
			c0,0.4,0.1,0.8,0.2,1.1c0.1,0.4,0.3,0.7,0.5,1s0.5,0.5,0.9,0.7s0.8,0.3,1.2,0.3c0.5,0,0.9-0.1,1.2-0.3s0.6-0.4,0.9-0.7
			c0.2-0.3,0.4-0.6,0.5-1s0.2-0.8,0.2-1.1c0-0.4-0.1-0.7-0.2-1.1c-0.1-0.4-0.3-0.7-0.5-1s-0.5-0.5-0.9-0.7s-0.8-0.3-1.2-0.3
			c-0.5,0-0.9,0.1-1.2,0.3s-0.6,0.4-0.9,0.7c-0.2,0.3-0.4,0.6-0.5,1C206.6,44.2,206.5,44.6,206.5,44.9z"/>
		<path class="st2" d="M222.8,48.6L222.8,48.6c-0.3,0.4-0.7,0.8-1.2,1.1s-1.1,0.4-1.8,0.4c-0.4,0-0.8-0.1-1.2-0.2
			c-0.4-0.1-0.8-0.3-1.2-0.5s-0.7-0.5-0.9-0.9s-0.4-0.9-0.4-1.4c0-0.7,0.2-1.3,0.6-1.7s0.9-0.8,1.6-1c0.6-0.2,1.4-0.4,2.1-0.5
			c0.8-0.1,1.6-0.1,2.3-0.1v-0.2c0-0.6-0.2-1-0.7-1.3c-0.4-0.3-1-0.4-1.6-0.4c-0.5,0-1,0.1-1.5,0.3s-0.9,0.5-1.2,0.8l-1.2-1.5
			c0.5-0.5,1.2-0.9,1.9-1.1s1.4-0.4,2.2-0.4c0.9,0,1.6,0.1,2.1,0.4c0.6,0.2,1,0.6,1.3,0.9c0.3,0.4,0.5,0.8,0.7,1.3
			c0.1,0.5,0.2,1,0.2,1.4v5.9h-2.3v-1.3H222.8z M222.8,45.4h-0.5c-0.4,0-0.8,0-1.2,0.1s-0.8,0.1-1.2,0.2c-0.4,0.1-0.7,0.3-0.9,0.5
			s-0.4,0.5-0.4,0.9c0,0.2,0.1,0.4,0.2,0.6s0.2,0.3,0.4,0.4s0.3,0.2,0.5,0.2s0.4,0.1,0.6,0.1c0.8,0,1.5-0.2,1.9-0.7s0.6-1,0.6-1.8
			L222.8,45.4L222.8,45.4z"/>
		<path class="st2" d="M237.6,49.8h-2.3v-1.4l0,0c-0.3,0.6-0.8,1-1.4,1.3s-1.2,0.4-1.9,0.4s-1.4-0.1-2-0.4s-1.1-0.6-1.5-1.1
			s-0.7-1-0.9-1.6s-0.3-1.3-0.3-2s0.1-1.4,0.3-2s0.5-1.2,1-1.6c0.4-0.5,0.9-0.8,1.5-1.1s1.2-0.4,1.9-0.4c0.4,0,0.8,0.1,1.2,0.2
			c0.3,0.1,0.7,0.2,0.9,0.4s0.5,0.3,0.7,0.5s0.3,0.3,0.5,0.5h0.1v-6.8h2.4v15.1C237.8,49.8,237.6,49.8,237.6,49.8z M229.6,44.9
			c0,0.4,0.1,0.8,0.2,1.1c0.1,0.4,0.3,0.7,0.5,1s0.5,0.5,0.9,0.7c0.3,0.2,0.8,0.3,1.2,0.3s0.8-0.1,1.2-0.3s0.6-0.4,0.9-0.7
			c0.2-0.3,0.4-0.6,0.6-1c0.1-0.4,0.2-0.7,0.2-1.1c0-0.4-0.1-0.8-0.2-1.1c-0.1-0.4-0.3-0.7-0.6-1c-0.2-0.3-0.5-0.5-0.9-0.7
			s-0.7-0.3-1.2-0.3s-0.9,0.1-1.2,0.3s-0.6,0.4-0.9,0.7c-0.2,0.3-0.4,0.6-0.5,1C229.7,44.2,229.6,44.6,229.6,44.9z"/>
	</g>
	<path id="Path_454" class="st2" d="M140,45.8c-0.5-0.5-1.2-0.5-1.7,0l0,0l-5,5V34.1c0-0.7-0.6-1.2-1.3-1.1c-0.6,0-1.1,0.5-1.1,1.1
		v16.7l-5-5c-0.5-0.5-1.2-0.5-1.7,0s-0.5,1.2,0,1.7l5.9,5.9c1.1,1.1,2.9,1.1,4.1,0l5.9-5.9C140.5,47,140.5,46.2,140,45.8z"/>
</g>
</svg>
