<?xml version="1.0" encoding="utf-8"?>
<!-- Generator: Adobe Illustrator 25.0.1, SVG Export Plug-In . SVG Version: 6.00 Build 0)  -->
<svg version="1.1" id="Layer_1" xmlns="http://www.w3.org/2000/svg" xmlns:xlink="http://www.w3.org/1999/xlink" x="0px" y="0px"
	 viewBox="0 0 492 324" style="enable-background:new 0 0 492 324;" xml:space="preserve">
<style type="text/css">
	.st0{fill:url(#Button_2_);}
	.st1{enable-background:new    ;}
	.st2{fill:#FFFFFF;}
</style>
<g>
	
		<linearGradient id="Button_2_" gradientUnits="userSpaceOnUse" x1="-232.5508" y1="520.6556" x2="-231.9015" y2="520.6556" gradientTransform="matrix(-510.435 0 0 -121.74 -118290.3516 63527.0195)">
		<stop  offset="0" style="stop-color:#1DB7B4"/>
		<stop  offset="1" style="stop-color:#00D890"/>
	</linearGradient>
	<path id="Button_1_" class="st0" d="M382.2,102.9H109.8c-16.3,0-29.5,13.2-29.5,29.5v20c0,16.3,13.2,29.5,29.5,29.5h272.4
		c16.3,0,29.5-13.2,29.5-29.5v-20C411.7,116.1,398.5,102.9,382.2,102.9z"/>
	<g id="Group_362_1_" transform="translate(-16 -4)">
		<g class="st1">
			<path class="st2" d="M237,152.7h-2.3v-1.4h0c-0.3,0.6-0.8,1-1.4,1.3s-1.2,0.4-1.9,0.4c-0.7,0-1.4-0.1-2-0.4
				c-0.6-0.3-1.1-0.6-1.5-1.1c-0.4-0.5-0.7-1-0.9-1.6c-0.2-0.6-0.3-1.3-0.3-2c0-0.7,0.1-1.4,0.3-2s0.6-1.2,1-1.6
				c0.4-0.5,0.9-0.8,1.5-1.1c0.6-0.3,1.2-0.4,1.9-0.4c0.4,0,0.8,0.1,1.2,0.2c0.3,0.1,0.7,0.2,0.9,0.4c0.3,0.1,0.5,0.3,0.7,0.5
				s0.3,0.3,0.5,0.5h0.1v-6.8h2.4V152.7z M229.1,147.8c0,0.4,0.1,0.8,0.2,1.1c0.1,0.4,0.3,0.7,0.5,1c0.2,0.3,0.5,0.5,0.9,0.7
				c0.3,0.2,0.8,0.3,1.2,0.3c0.4,0,0.8-0.1,1.2-0.3c0.3-0.2,0.6-0.4,0.9-0.7c0.2-0.3,0.4-0.6,0.6-1c0.1-0.4,0.2-0.7,0.2-1.1
				c0-0.4-0.1-0.8-0.2-1.1c-0.1-0.4-0.3-0.7-0.6-1c-0.2-0.3-0.5-0.5-0.9-0.7c-0.3-0.2-0.7-0.3-1.2-0.3c-0.5,0-0.9,0.1-1.2,0.3
				c-0.3,0.2-0.6,0.4-0.9,0.7c-0.2,0.3-0.4,0.6-0.5,1C229.1,147.1,229.1,147.5,229.1,147.8z"/>
			<path class="st2" d="M239.3,147.8c0-0.8,0.1-1.5,0.4-2.1c0.3-0.6,0.6-1.2,1.1-1.6c0.5-0.4,1-0.8,1.7-1c0.6-0.2,1.3-0.4,2.1-0.4
				s1.4,0.1,2.1,0.4c0.6,0.2,1.2,0.6,1.7,1s0.8,1,1.1,1.6c0.3,0.6,0.4,1.3,0.4,2.1c0,0.8-0.1,1.5-0.4,2.1c-0.3,0.6-0.6,1.2-1.1,1.6
				s-1,0.8-1.7,1.1s-1.3,0.4-2.1,0.4s-1.4-0.1-2.1-0.4s-1.2-0.6-1.7-1.1c-0.5-0.4-0.8-1-1.1-1.6
				C239.4,149.3,239.3,148.6,239.3,147.8z M241.8,147.8c0,0.4,0.1,0.8,0.2,1.1c0.1,0.4,0.3,0.7,0.5,1c0.2,0.3,0.5,0.5,0.9,0.7
				c0.3,0.2,0.8,0.3,1.2,0.3c0.5,0,0.9-0.1,1.2-0.3c0.3-0.2,0.6-0.4,0.9-0.7c0.2-0.3,0.4-0.6,0.5-1c0.1-0.4,0.2-0.8,0.2-1.1
				c0-0.4-0.1-0.7-0.2-1.1c-0.1-0.4-0.3-0.7-0.5-1c-0.2-0.3-0.5-0.5-0.9-0.7c-0.3-0.2-0.8-0.3-1.2-0.3c-0.5,0-0.9,0.1-1.2,0.3
				c-0.3,0.2-0.6,0.4-0.9,0.7c-0.2,0.3-0.4,0.6-0.5,1C241.8,147.1,241.8,147.5,241.8,147.8z"/>
			<path class="st2" d="M250.6,143h2.6l2,6.9h0l2.1-6.9h2.6l2.1,6.9h0l2.1-6.9h2.5l-3.3,9.7h-2.5l-2.2-6.8h0l-2.2,6.8H254L250.6,143
				z"/>
			<path class="st2" d="M268.1,143h2.3v1.5h0c0.2-0.5,0.6-0.9,1.1-1.3c0.5-0.4,1.2-0.6,1.9-0.6c0.6,0,1.2,0.1,1.6,0.3
				c0.4,0.2,0.8,0.5,1.1,0.9c0.3,0.4,0.5,0.8,0.6,1.2c0.1,0.5,0.2,1,0.2,1.4v6h-2.4v-5.4c0-0.3,0-0.6-0.1-0.9c0-0.3-0.1-0.6-0.3-0.8
				c-0.1-0.2-0.3-0.5-0.6-0.6c-0.2-0.2-0.5-0.2-0.9-0.2c-0.4,0-0.7,0.1-1,0.2c-0.3,0.2-0.5,0.4-0.7,0.6s-0.3,0.5-0.4,0.8
				s-0.1,0.6-0.1,1v5.3h-2.4V143z"/>
			<path class="st2" d="M279.7,137.5h2.4v15.2h-2.4V137.5z"/>
			<path class="st2" d="M284.4,147.8c0-0.8,0.1-1.5,0.4-2.1c0.3-0.6,0.6-1.2,1.1-1.6s1-0.8,1.7-1c0.6-0.2,1.3-0.4,2.1-0.4
				s1.4,0.1,2.1,0.4c0.6,0.2,1.2,0.6,1.7,1s0.8,1,1.1,1.6c0.3,0.6,0.4,1.3,0.4,2.1c0,0.8-0.1,1.5-0.4,2.1c-0.3,0.6-0.6,1.2-1.1,1.6
				s-1,0.8-1.7,1.1c-0.6,0.3-1.3,0.4-2.1,0.4s-1.4-0.1-2.1-0.4c-0.6-0.3-1.2-0.6-1.7-1.1s-0.8-1-1.1-1.6
				C284.5,149.3,284.4,148.6,284.4,147.8z M286.8,147.8c0,0.4,0.1,0.8,0.2,1.1c0.1,0.4,0.3,0.7,0.5,1c0.2,0.3,0.5,0.5,0.9,0.7
				s0.8,0.3,1.2,0.3c0.5,0,0.9-0.1,1.2-0.3s0.6-0.4,0.9-0.7c0.2-0.3,0.4-0.6,0.5-1c0.1-0.4,0.2-0.8,0.2-1.1c0-0.4-0.1-0.7-0.2-1.1
				c-0.1-0.4-0.3-0.7-0.5-1c-0.2-0.3-0.5-0.5-0.9-0.7s-0.8-0.3-1.2-0.3c-0.5,0-0.9,0.1-1.2,0.3s-0.6,0.4-0.9,0.7
				c-0.2,0.3-0.4,0.6-0.5,1C286.9,147.1,286.8,147.5,286.8,147.8z"/>
			<path class="st2" d="M303.1,151.5L303.1,151.5c-0.3,0.4-0.7,0.8-1.2,1.1c-0.5,0.3-1.1,0.4-1.8,0.4c-0.4,0-0.8-0.1-1.2-0.2
				c-0.4-0.1-0.8-0.3-1.2-0.5s-0.7-0.5-0.9-0.9c-0.2-0.4-0.4-0.9-0.4-1.4c0-0.7,0.2-1.3,0.6-1.7c0.4-0.4,0.9-0.8,1.6-1
				c0.6-0.2,1.4-0.4,2.1-0.5c0.8-0.1,1.6-0.1,2.3-0.1v-0.2c0-0.6-0.2-1-0.7-1.3c-0.4-0.3-1-0.4-1.6-0.4c-0.5,0-1,0.1-1.5,0.3
				c-0.5,0.2-0.9,0.5-1.2,0.8l-1.2-1.5c0.5-0.5,1.2-0.9,1.9-1.1s1.4-0.4,2.2-0.4c0.9,0,1.6,0.1,2.1,0.4c0.6,0.2,1,0.6,1.3,0.9
				c0.3,0.4,0.5,0.8,0.7,1.3c0.1,0.5,0.2,1,0.2,1.4v5.9h-2.3V151.5z M303.1,148.3h-0.5c-0.4,0-0.8,0-1.2,0.1s-0.8,0.1-1.2,0.2
				c-0.4,0.1-0.7,0.3-0.9,0.5c-0.2,0.2-0.4,0.5-0.4,0.9c0,0.2,0.1,0.4,0.2,0.6s0.2,0.3,0.4,0.4s0.3,0.2,0.5,0.2
				c0.2,0,0.4,0.1,0.6,0.1c0.8,0,1.5-0.2,1.9-0.7s0.6-1,0.6-1.8V148.3z"/>
			<path class="st2" d="M317.9,152.7h-2.3v-1.4h0c-0.3,0.6-0.8,1-1.4,1.3c-0.6,0.3-1.2,0.4-1.9,0.4c-0.7,0-1.4-0.1-2-0.4
				s-1.1-0.6-1.5-1.1s-0.7-1-0.9-1.6c-0.2-0.6-0.3-1.3-0.3-2c0-0.7,0.1-1.4,0.3-2c0.2-0.6,0.5-1.2,1-1.6c0.4-0.5,0.9-0.8,1.5-1.1
				s1.2-0.4,1.9-0.4c0.4,0,0.8,0.1,1.2,0.2c0.3,0.1,0.7,0.2,0.9,0.4s0.5,0.3,0.7,0.5c0.2,0.2,0.3,0.3,0.5,0.5h0.1v-6.8h2.4V152.7z
				 M309.9,147.8c0,0.4,0.1,0.8,0.2,1.1c0.1,0.4,0.3,0.7,0.5,1c0.2,0.3,0.5,0.5,0.9,0.7c0.3,0.2,0.8,0.3,1.2,0.3
				c0.4,0,0.8-0.1,1.2-0.3s0.6-0.4,0.9-0.7c0.2-0.3,0.4-0.6,0.6-1c0.1-0.4,0.2-0.7,0.2-1.1c0-0.4-0.1-0.8-0.2-1.1
				c-0.1-0.4-0.3-0.7-0.6-1c-0.2-0.3-0.5-0.5-0.9-0.7s-0.7-0.3-1.2-0.3c-0.5,0-0.9,0.1-1.2,0.3c-0.3,0.2-0.6,0.4-0.9,0.7
				c-0.2,0.3-0.4,0.6-0.5,1C310,147.1,309.9,147.5,309.9,147.8z"/>
		</g>
		<path id="Path_454" class="st2" d="M220.3,148.7c-0.5-0.5-1.2-0.5-1.7,0l0,0l-5,5V137c0-0.7-0.6-1.2-1.3-1.1
			c-0.6,0-1.1,0.5-1.1,1.1v16.7l-5-5c-0.5-0.5-1.2-0.5-1.7,0c-0.5,0.5-0.5,1.2,0,1.7l5.9,5.9c1.1,1.1,2.9,1.1,4.1,0l5.9-5.9
			C220.8,149.9,220.8,149.1,220.3,148.7z"/>
	</g>
</g>
</svg>
