<?xml version="1.0" encoding="utf-8"?>
<!-- Generator: Adobe Illustrator 25.0.1, SVG Export Plug-In . SVG Version: 6.00 Build 0)  -->
<svg version="1.1"
	 id="svg38" xmlns:cc="http://creativecommons.org/ns#" xmlns:dc="http://purl.org/dc/elements/1.1/" xmlns:rdf="http://www.w3.org/1999/02/22-rdf-syntax-ns#" xmlns:svg="http://www.w3.org/2000/svg"
	 xmlns="http://www.w3.org/2000/svg" xmlns:xlink="http://www.w3.org/1999/xlink" x="0px" y="0px" viewBox="0 0 890 160"
	 style="enable-background:new 0 0 890 160;" xml:space="preserve">
<g>
	<path d="M22,95.9V80.1c0-0.8-0.1-1.6-0.2-2.3c-0.1-0.7-0.4-1.4-0.7-1.9c-0.3-0.6-0.7-1-1.3-1.3c-0.6-0.3-1.3-0.5-2.1-0.5
		c-0.9,0-1.6,0.2-2.2,0.5c-0.6,0.3-1.2,0.8-1.6,1.4c-0.4,0.6-0.7,1.2-1,2c-0.2,0.8-0.3,1.5-0.3,2.3v15.7H3V67h9.2v4h0.1
		c0.3-0.6,0.8-1.2,1.4-1.8c0.6-0.6,1.2-1.1,2-1.5c0.8-0.4,1.6-0.8,2.5-1c0.9-0.3,1.8-0.4,2.8-0.4c1.9,0,3.6,0.3,4.9,1
		c1.4,0.7,2.4,1.6,3.3,2.7c0.8,1.1,1.4,2.4,1.8,3.8c0.4,1.4,0.6,2.9,0.6,4.3v17.9H22z"/>
	<path d="M69.4,81.4c0,2.4-0.4,4.5-1.3,6.4s-2,3.5-3.5,4.9c-1.5,1.3-3.2,2.4-5.1,3.1s-4,1.1-6.2,1.1c-2.2,0-4.2-0.4-6.2-1.1
		c-2-0.7-3.7-1.8-5.1-3.1s-2.6-3-3.5-4.9c-0.9-1.9-1.3-4-1.3-6.4c0-2.4,0.4-4.5,1.3-6.4c0.8-1.9,2-3.5,3.5-4.8s3.2-2.3,5.1-3
		c2-0.7,4-1,6.2-1c2.2,0,4.3,0.3,6.2,1c1.9,0.7,3.6,1.7,5.1,3c1.5,1.3,2.6,2.9,3.5,4.8C68.9,76.9,69.4,79,69.4,81.4z M60.2,81.4
		c0-0.9-0.2-1.8-0.5-2.7c-0.3-0.9-0.8-1.7-1.3-2.3c-0.6-0.7-1.3-1.2-2.1-1.7c-0.9-0.4-1.8-0.6-3-0.6s-2.1,0.2-3,0.6
		c-0.9,0.4-1.6,1-2.1,1.7c-0.6,0.7-1,1.5-1.3,2.3c-0.3,0.9-0.4,1.8-0.4,2.7c0,0.9,0.1,1.8,0.4,2.7c0.3,0.9,0.7,1.7,1.3,2.4
		c0.6,0.7,1.3,1.3,2.1,1.7c0.8,0.4,1.8,0.6,3,0.6c1.1,0,2.1-0.2,3-0.6c0.8-0.4,1.6-1,2.1-1.7c0.6-0.7,1-1.5,1.3-2.4
		C60,83.2,60.2,82.3,60.2,81.4z"/>
	<path d="M85.7,74.1v11.1c0,1.4,0.3,2.4,0.8,3.1c0.5,0.7,1.5,1,2.8,1c0.5,0,1,0,1.5-0.1c0.5-0.1,1-0.2,1.3-0.3l0.1,7
		c-0.7,0.2-1.5,0.4-2.5,0.6c-1,0.2-2,0.3-3,0.3c-1.9,0-3.6-0.2-4.9-0.7c-1.3-0.5-2.4-1.2-3.2-2.1c-0.8-0.9-1.4-2-1.7-3.3
		c-0.3-1.3-0.5-2.7-0.5-4.2V74.1h-4.6V67h4.6v-7.6h9.3V67h6.8v7.1H85.7z"/>
	<path d="M111.1,71c1.7-1.6,3.7-2.8,5.9-3.7c2.3-0.8,4.6-1.2,6.9-1.2c2.4,0,4.5,0.3,6.2,0.9c1.7,0.6,3,1.5,4.1,2.8
		c1,1.3,1.8,2.8,2.3,4.8c0.5,1.9,0.7,4.2,0.7,6.8v14.6h-8.7v-3.1h-0.2c-0.7,1.2-1.8,2.1-3.3,2.8c-1.5,0.7-3.1,1-4.8,1
		c-1.2,0-2.4-0.2-3.6-0.5c-1.2-0.3-2.4-0.8-3.4-1.5c-1-0.7-1.9-1.6-2.5-2.8c-0.7-1.2-1-2.6-1-4.3c0-2.1,0.6-3.8,1.7-5
		c1.1-1.3,2.6-2.3,4.4-3c1.8-0.7,3.8-1.2,6-1.4s4.3-0.3,6.4-0.3v-0.5c0-1.4-0.5-2.5-1.5-3.2c-1-0.7-2.2-1-3.7-1
		c-1.4,0-2.7,0.3-3.9,0.9c-1.3,0.6-2.3,1.3-3.2,2.1L111.1,71z M128.5,83.3h-1.2c-1,0-2.1,0-3.2,0.1c-1.1,0.1-2,0.3-2.8,0.6
		c-0.8,0.3-1.5,0.7-2.1,1.2c-0.5,0.5-0.8,1.2-0.8,2.1c0,0.5,0.1,1,0.4,1.4c0.3,0.4,0.6,0.7,1,0.9c0.4,0.2,0.8,0.4,1.3,0.5
		c0.5,0.1,1,0.1,1.5,0.1c1.9,0,3.4-0.5,4.4-1.6c1-1.1,1.5-2.5,1.5-4.3V83.3z"/>
	<path d="M176.7,59.1c-0.3-0.1-0.8-0.2-1.2-0.3c-0.5-0.1-0.9-0.1-1.4-0.1c-0.9,0-1.6,0.2-2.1,0.5c-0.5,0.3-1,0.7-1.3,1.2
		c-0.3,0.5-0.5,1.1-0.6,1.8c-0.1,0.7-0.2,1.3-0.2,2V67h6.4v7.1h-6.4v21.8h-9.5V74.1h-5.3V67h5.3v-2.8c0-1.8,0.2-3.5,0.6-5.1
		c0.4-1.6,1.1-3,2-4.2c0.9-1.2,2.2-2.2,3.8-2.9c1.6-0.7,3.6-1.1,6-1.1c0.8,0,1.6,0,2.4,0.1c0.8,0.1,1.5,0.2,2.2,0.4L176.7,59.1z
		 M180.2,95.9V52.1h9.7v43.8H180.2z"/>
	<path d="M197,71c1.7-1.6,3.7-2.8,5.9-3.7c2.3-0.8,4.6-1.2,6.9-1.2c2.4,0,4.5,0.3,6.2,0.9c1.7,0.6,3,1.5,4.1,2.8
		c1,1.3,1.8,2.8,2.3,4.8c0.5,1.9,0.7,4.2,0.7,6.8v14.6h-8.7v-3.1h-0.2c-0.7,1.2-1.8,2.1-3.3,2.8c-1.5,0.7-3.1,1-4.8,1
		c-1.2,0-2.4-0.2-3.6-0.5c-1.2-0.3-2.4-0.8-3.4-1.5c-1-0.7-1.9-1.6-2.5-2.8c-0.7-1.2-1-2.6-1-4.3c0-2.1,0.6-3.8,1.7-5
		c1.1-1.3,2.6-2.3,4.4-3c1.8-0.7,3.8-1.2,6-1.4s4.3-0.3,6.4-0.3v-0.5c0-1.4-0.5-2.5-1.5-3.2c-1-0.7-2.2-1-3.7-1
		c-1.4,0-2.7,0.3-3.9,0.9c-1.3,0.6-2.3,1.3-3.2,2.1L197,71z M214.5,83.3h-1.2c-1,0-2.1,0-3.2,0.1c-1.1,0.1-2,0.3-2.8,0.6
		c-0.8,0.3-1.5,0.7-2.1,1.2c-0.5,0.5-0.8,1.2-0.8,2.1c0,0.5,0.1,1,0.4,1.4c0.3,0.4,0.6,0.7,1,0.9c0.4,0.2,0.8,0.4,1.3,0.5
		c0.5,0.1,1,0.1,1.5,0.1c1.9,0,3.4-0.5,4.4-1.6c1-1.1,1.5-2.5,1.5-4.3V83.3z"/>
	<path d="M267.1,95.9V80.1c0-0.8-0.1-1.6-0.2-2.3s-0.3-1.4-0.6-1.9c-0.3-0.5-0.7-1-1.2-1.3c-0.5-0.3-1.2-0.5-2.1-0.5
		c-0.8,0-1.5,0.2-2.1,0.5c-0.6,0.3-1.1,0.8-1.5,1.4c-0.4,0.6-0.7,1.2-0.9,2c-0.2,0.8-0.3,1.5-0.3,2.3v15.6h-9.5V79.4
		c0-1.7-0.3-3-1-3.9c-0.7-1-1.7-1.5-3.1-1.5c-1.5,0-2.7,0.6-3.5,1.8c-0.8,1.2-1.2,2.7-1.2,4.4v15.7h-9.6V67h9.2v4h0.1
		c0.3-0.6,0.8-1.2,1.3-1.8c0.5-0.6,1.1-1.1,1.9-1.5c0.7-0.4,1.6-0.8,2.5-1.1c0.9-0.3,1.9-0.4,3-0.4c2.1,0,3.9,0.4,5.3,1.3
		s2.6,2.1,3.4,3.7c1-1.5,2.2-2.7,3.7-3.6c1.5-0.9,3.3-1.3,5.5-1.3c2,0,3.6,0.4,5,1.1c1.3,0.7,2.4,1.6,3.2,2.8s1.4,2.4,1.8,3.8
		c0.4,1.4,0.6,2.8,0.6,4.1v17.9H267.1z"/>
	<path d="M312.5,81.8c0,0.4,0,0.8,0,1.2s0,0.8-0.1,1.1h-20.9c0.1,0.8,0.3,1.5,0.7,2.2c0.4,0.7,0.9,1.2,1.6,1.7
		c0.6,0.5,1.4,0.9,2.1,1.1c0.8,0.3,1.6,0.4,2.5,0.4c1.5,0,2.8-0.3,3.8-0.8s1.9-1.3,2.6-2.2l6.6,4.2c-1.4,2-3.1,3.5-5.4,4.6
		c-2.2,1.1-4.8,1.6-7.7,1.6c-2.2,0-4.2-0.3-6.1-1s-3.6-1.7-5.1-3c-1.4-1.3-2.6-2.9-3.4-4.8c-0.8-1.9-1.2-4.1-1.2-6.5
		c0-2.4,0.4-4.5,1.2-6.4c0.8-1.9,1.9-3.5,3.3-4.9c1.4-1.3,3-2.4,4.9-3.1c1.9-0.7,3.9-1.1,6.1-1.1c2.1,0,4.1,0.4,5.9,1.1
		c1.8,0.7,3.3,1.8,4.6,3.1c1.3,1.4,2.3,3,3,4.9C312.1,77.1,312.5,79.4,312.5,81.8z M303.7,78.2c0-1.5-0.5-2.8-1.4-3.9
		c-0.9-1.1-2.4-1.6-4.3-1.6c-0.9,0-1.8,0.1-2.6,0.4c-0.8,0.3-1.5,0.7-2,1.2c-0.6,0.5-1,1.1-1.4,1.8c-0.3,0.7-0.5,1.4-0.6,2.1H303.7z
		"/>
	<path d="M328.7,74.1v11.1c0,1.4,0.3,2.4,0.8,3.1c0.5,0.7,1.5,1,2.8,1c0.5,0,1,0,1.5-0.1c0.5-0.1,1-0.2,1.3-0.3l0.1,7
		c-0.7,0.2-1.5,0.4-2.5,0.6c-1,0.2-2,0.3-3,0.3c-1.9,0-3.6-0.2-4.9-0.7c-1.3-0.5-2.4-1.2-3.2-2.1c-0.8-0.9-1.4-2-1.7-3.3
		c-0.3-1.3-0.5-2.7-0.5-4.2V74.1h-4.6V67h4.6v-7.6h9.3V67h6.8v7.1H328.7z"/>
	<path d="M359,95.9V80.3c0-0.8-0.1-1.6-0.2-2.3c-0.1-0.7-0.3-1.4-0.7-1.9s-0.8-1-1.3-1.3c-0.5-0.3-1.2-0.5-2.1-0.5
		c-1.7,0-2.9,0.6-3.8,1.8c-0.9,1.2-1.3,2.6-1.3,4.4v15.6h-9.5V52.1h9.5v18.6h0.1c0.7-1.2,1.7-2.2,3.1-3.1c1.4-0.9,3.2-1.4,5.2-1.4
		c2,0,3.6,0.3,5,1c1.3,0.7,2.4,1.6,3.2,2.7c0.8,1.1,1.4,2.4,1.8,3.8c0.4,1.4,0.6,2.9,0.6,4.3v17.9H359z"/>
	<path d="M394.5,74.9c-0.4-0.1-0.8-0.2-1.2-0.2c-0.4,0-0.8-0.1-1.2-0.1c-1.3,0-2.3,0.2-3.2,0.7s-1.6,1-2.1,1.7
		c-0.5,0.7-0.9,1.4-1.1,2.1c-0.2,0.8-0.3,1.4-0.3,2v14.8h-9.5V67.1h9.2v4.2h0.1c0.7-1.5,1.8-2.7,3.1-3.6c1.4-0.9,2.9-1.4,4.7-1.4
		c0.4,0,0.8,0,1.1,0.1c0.4,0,0.7,0.1,0.9,0.2L394.5,74.9z"/>
	<path d="M428.3,81.4c0,2.4-0.4,4.5-1.3,6.4s-2,3.5-3.5,4.9c-1.5,1.3-3.2,2.4-5.1,3.1s-4,1.1-6.2,1.1c-2.2,0-4.2-0.4-6.2-1.1
		c-2-0.7-3.7-1.8-5.1-3.1s-2.6-3-3.5-4.9c-0.9-1.9-1.3-4-1.3-6.4c0-2.4,0.4-4.5,1.3-6.4c0.8-1.9,2-3.5,3.5-4.8s3.2-2.3,5.1-3
		c2-0.7,4-1,6.2-1c2.2,0,4.3,0.3,6.2,1c1.9,0.7,3.6,1.7,5.1,3c1.5,1.3,2.6,2.9,3.5,4.8C427.9,76.9,428.3,79,428.3,81.4z M419.1,81.4
		c0-0.9-0.2-1.8-0.5-2.7c-0.3-0.9-0.8-1.7-1.3-2.3c-0.6-0.7-1.3-1.2-2.1-1.7c-0.9-0.4-1.8-0.6-3-0.6s-2.1,0.2-3,0.6
		c-0.9,0.4-1.6,1-2.1,1.7c-0.6,0.7-1,1.5-1.3,2.3c-0.3,0.9-0.4,1.8-0.4,2.7c0,0.9,0.1,1.8,0.4,2.7c0.3,0.9,0.7,1.7,1.3,2.4
		c0.6,0.7,1.3,1.3,2.1,1.7c0.8,0.4,1.8,0.6,3,0.6c1.1,0,2.1-0.2,3-0.6c0.8-0.4,1.6-1,2.1-1.7c0.6-0.7,1-1.5,1.3-2.4
		C419,83.2,419.1,82.3,419.1,81.4z"/>
	<path d="M471.1,95.9h-9.6l-5.7-18h-0.1l-5.6,18h-9.6l-10-28.9h10.3l5,18.3h0.2l5.2-18.3h9.6l5.3,18.3h0.1l5-18.3h9.9L471.1,95.9z"
		/>
	<path d="M513.5,81.8c0,0.4,0,0.8,0,1.2s0,0.8-0.1,1.1h-20.9c0.1,0.8,0.3,1.5,0.7,2.2c0.4,0.7,0.9,1.2,1.6,1.7
		c0.6,0.5,1.4,0.9,2.1,1.1c0.8,0.3,1.6,0.4,2.5,0.4c1.5,0,2.8-0.3,3.8-0.8s1.9-1.3,2.6-2.2l6.6,4.2c-1.4,2-3.1,3.5-5.4,4.6
		c-2.2,1.1-4.8,1.6-7.7,1.6c-2.2,0-4.2-0.3-6.1-1s-3.6-1.7-5.1-3c-1.4-1.3-2.6-2.9-3.4-4.8c-0.8-1.9-1.2-4.1-1.2-6.5
		c0-2.4,0.4-4.5,1.2-6.4c0.8-1.9,1.9-3.5,3.3-4.9c1.4-1.3,3-2.4,4.9-3.1c1.9-0.7,3.9-1.1,6.1-1.1c2.1,0,4.1,0.4,5.9,1.1
		c1.8,0.7,3.3,1.8,4.6,3.1c1.3,1.4,2.3,3,3,4.9C513.2,77.1,513.5,79.4,513.5,81.8z M504.8,78.2c0-1.5-0.5-2.8-1.4-3.9
		c-0.9-1.1-2.4-1.6-4.3-1.6c-0.9,0-1.8,0.1-2.6,0.4c-0.8,0.3-1.5,0.7-2,1.2c-0.6,0.5-1,1.1-1.4,1.8c-0.3,0.7-0.5,1.4-0.6,2.1H504.8z
		"/>
	<path d="M538.2,74.9c-0.4-0.1-0.8-0.2-1.2-0.2c-0.4,0-0.8-0.1-1.2-0.1c-1.3,0-2.3,0.2-3.2,0.7s-1.6,1-2.1,1.7
		c-0.5,0.7-0.9,1.4-1.1,2.1c-0.2,0.8-0.3,1.4-0.3,2v14.8h-9.5V67.1h9.2v4.2h0.1c0.7-1.5,1.8-2.7,3.1-3.6c1.4-0.9,2.9-1.4,4.7-1.4
		c0.4,0,0.8,0,1.1,0.1c0.4,0,0.7,0.1,0.9,0.2L538.2,74.9z"/>
	<path d="M569.6,95.9V65.8l-7.7,5.9l-5-6.9l13.5-9.9h8.9v41.1H569.6z"/>
	<path d="M625.4,82.1c0,2.3-0.4,4.4-1.3,6.3c-0.8,1.9-2,3.4-3.5,4.7c-1.5,1.3-3.2,2.3-5.2,2.9c-2,0.7-4.1,1-6.3,1
		c-2.2,0-4.3-0.3-6.3-1s-3.7-1.7-5.1-2.9c-1.5-1.3-2.6-2.8-3.5-4.6c-0.8-1.8-1.3-3.8-1.3-6.1c0-2.4,0.4-4.6,1.3-6.6
		c0.8-2,2-4,3.3-6.1l9.9-14.8h11.8l-10.1,14l-0.2,0.3c0.4-0.2,0.8-0.3,1.4-0.3c0.5-0.1,1-0.1,1.5-0.1c1.8,0,3.5,0.3,5.1,1
		c1.6,0.6,3.1,1.5,4.3,2.7s2.2,2.6,2.9,4.2C625.1,78.3,625.4,80.1,625.4,82.1z M615.8,82.3c0-1.9-0.6-3.4-1.7-4.6
		c-1.2-1.2-2.7-1.8-4.7-1.8s-3.5,0.6-4.7,1.8c-1.2,1.2-1.8,2.8-1.8,4.7c0,1.8,0.6,3.3,1.7,4.6c1.2,1.3,2.7,1.9,4.7,1.9
		c1.9,0,3.5-0.6,4.7-1.8C615.2,85.9,615.8,84.3,615.8,82.3z"/>
	<path d="M651.5,95.9l-6.2-8.9l-6.4,8.9h-11l11.5-15.1L629,67h11.1l5.4,7.7L651,67h10.7l-10.4,13.7l11.4,15.1H651.5z"/>
</g>
</svg>
