<?xml version="1.0" encoding="utf-8"?>
<!-- Generator: Adobe Illustrator 24.2.1, SVG Export Plug-In . SVG Version: 6.00 Build 0)  -->
<svg version="1.1"
	 id="svg20" xmlns:cc="http://creativecommons.org/ns#" xmlns:dc="http://purl.org/dc/elements/1.1/" xmlns:rdf="http://www.w3.org/1999/02/22-rdf-syntax-ns#" xmlns:svg="http://www.w3.org/2000/svg"
	 xmlns="http://www.w3.org/2000/svg" xmlns:xlink="http://www.w3.org/1999/xlink" x="0px" y="0px" viewBox="0 0 888.5 155.4"
	 style="enable-background:new 0 0 888.5 155.4;" xml:space="preserve">
<path id="Path_366" d="M28.6,42.3L12,15.4h-0.2L12,42.3H2.4V1.1h11.4L30.3,28h0.2L30.2,1.1h9.7v41.2H28.6z M103,21.5
	c0,3.3-0.6,6.2-1.7,8.9s-2.7,5-4.7,6.9c-2,1.9-4.4,3.4-7.1,4.5c-2.8,1-5.7,1.6-9,1.6c-3.2,0-6.2-0.5-8.9-1.6c-2.7-1-5.1-2.5-7.1-4.5
	c-2-1.9-3.6-4.2-4.7-6.9c-1.1-2.7-1.7-5.7-1.7-8.9c0-3.3,0.6-6.3,1.7-8.9c1.1-2.7,2.7-4.9,4.7-6.8c2-1.9,4.4-3.3,7.1-4.3
	c2.7-1,5.7-1.5,8.9-1.5c3.2,0,6.2,0.5,9,1.5s5.1,2.4,7.1,4.3c2,1.9,3.6,4.1,4.7,6.8C102.4,15.3,103,18.2,103,21.5z M92.3,21.5
	c0-1.8-0.3-3.5-0.9-5c-0.6-1.6-1.4-2.9-2.4-4c-1-1.1-2.3-2-3.7-2.6c-1.5-0.6-3.1-1-4.8-1c-1.7,0-3.3,0.3-4.8,1
	c-1.4,0.6-2.7,1.5-3.7,2.6c-1,1.1-1.9,2.4-2.4,4s-0.8,3.2-0.8,5c0,1.9,0.3,3.6,0.9,5.2s1.4,2.9,2.4,4c1,1.1,2.3,2,3.7,2.6
	c1.4,0.6,3,1,4.8,1c1.7,0,3.3-0.3,4.8-1s2.7-1.5,3.7-2.6c1-1.1,1.9-2.5,2.4-4C92,25.1,92.3,23.4,92.3,21.5z M137.1,9.6v32.7h-10V9.6
	h-11.6V1.1h33.2v8.5H137.1z M216.6,42.3l-3.2-8.1h-15.9l-3,8.1h-10.8l17.3-41.2h9.7l17.1,41.2H216.6z M205.5,12.1l-5.2,14.1h10.4
	L205.5,12.1z M277.7,9.6v8.5h15.9v8.2h-15.9v16h-9.8V1.1H295v8.5H277.7z M313,42.3V1.1h10v32.5H339v8.7H313z M383.2,42.3l-3.2-8.1
	h-15.9l-3,8.1h-10.8l17.3-41.2h9.7l17.1,41.2H383.2z M372.2,12.1l-5.2,14.1h10.4L372.2,12.1z M446.7,42.3l0.2-29.2h-0.2l-10.7,29.2
	h-7l-10.4-29.2h-0.2l0.2,29.2h-9.4V1.1h14.1l9.4,26.4h0.2l9-26.4h14.4v41.2H446.7z M476.6,42.3V1.1h27.7v8.4h-18.1v7.7h17.1v8h-17.1
	v8.6h19.2v8.5H476.6z M541.2,9.6v32.7h-10V9.6h-11.6V1.1h33.2v8.5H541.2z M595.1,42.3V25.1H579v17.2h-10V1.1h10v15.6h16.1V1.1h10
	v41.2H595.1z M647.2,42.3L638.3,26h-3.4v16.4h-9.8V1.1h15.7c2,0,3.9,0.2,5.8,0.6c1.9,0.4,3.6,1.1,5.1,2.1s2.7,2.3,3.6,3.8
	c0.9,1.6,1.3,3.6,1.3,5.9c0,2.8-0.8,5.1-2.3,7c-1.5,1.9-3.6,3.3-6.3,4.1l10.8,17.6H647.2z M646.8,13.7c0-1-0.2-1.8-0.6-2.4
	c-0.4-0.6-0.9-1.1-1.6-1.4c-0.6-0.3-1.4-0.6-2.2-0.7c-0.8-0.1-1.6-0.2-2.3-0.2h-5.3v9.6h4.7c0.8,0,1.6-0.1,2.5-0.2
	c0.9-0.1,1.6-0.4,2.3-0.7c0.7-0.3,1.3-0.9,1.7-1.5C646.6,15.6,646.8,14.8,646.8,13.7z M718.3,21.5c0,3.3-0.6,6.2-1.7,8.9
	s-2.7,5-4.7,6.9c-2,1.9-4.4,3.4-7.1,4.5c-2.8,1-5.7,1.6-9,1.6c-3.2,0-6.2-0.5-8.9-1.6c-2.7-1-5.1-2.5-7.1-4.5
	c-2-1.9-3.6-4.2-4.7-6.9s-1.7-5.7-1.7-8.9c0-3.3,0.6-6.3,1.7-8.9c1.1-2.7,2.7-4.9,4.7-6.8c2-1.9,4.4-3.3,7.1-4.3
	c2.7-1,5.7-1.5,8.9-1.5c3.2,0,6.2,0.5,9,1.5c2.8,1,5.1,2.4,7.1,4.3c2,1.9,3.6,4.1,4.7,6.8C717.8,15.3,718.3,18.2,718.3,21.5z
	 M707.7,21.5c0-1.8-0.3-3.5-0.9-5c-0.6-1.6-1.4-2.9-2.4-4c-1-1.1-2.3-2-3.7-2.6c-1.5-0.6-3.1-1-4.8-1s-3.3,0.3-4.8,1
	c-1.4,0.6-2.7,1.5-3.7,2.6c-1,1.1-1.9,2.4-2.4,4c-0.6,1.6-0.8,3.2-0.8,5c0,1.9,0.3,3.6,0.9,5.2c0.6,1.6,1.4,2.9,2.4,4
	c1,1.1,2.3,2,3.7,2.6c1.4,0.6,3,1,4.8,1s3.3-0.3,4.8-1c1.4-0.6,2.7-1.5,3.7-2.6c1-1.1,1.9-2.5,2.4-4
	C707.4,25.1,707.7,23.4,707.7,21.5z M780.2,42.3h-9.8l-8.1-27.9H762l-8.1,27.9H744L732.3,1.1H743l6.5,27.4h0.2L757,1.1h10.4
	l7.4,27.4h0.2l6.6-27.4H792L780.2,42.3z M807.9,42.3V1.1h27.7v8.4h-18.1v7.7h17.1v8h-17.1v8.6h19.2v8.5H807.9z M876.9,42.3L868,26
	h-3.4v16.4h-9.8V1.1h15.7c2,0,3.9,0.2,5.8,0.6s3.6,1.1,5.1,2.1s2.7,2.3,3.6,3.8s1.3,3.6,1.3,5.9c0,2.8-0.8,5.1-2.3,7
	c-1.5,1.9-3.6,3.3-6.3,4.1l10.8,17.6H876.9z M876.5,13.7c0-1-0.2-1.8-0.6-2.4c-0.4-0.6-0.9-1.1-1.6-1.4c-0.6-0.3-1.4-0.6-2.2-0.7
	c-0.8-0.1-1.6-0.2-2.3-0.2h-5.3v9.6h4.7c0.8,0,1.6-0.1,2.5-0.2c0.9-0.1,1.6-0.4,2.3-0.7c0.7-0.3,1.3-0.9,1.7-1.5
	C876.3,15.6,876.5,14.8,876.5,13.7z M32.1,142.3c0,2.3-0.5,4.2-1.4,5.8c-0.9,1.6-2.1,3-3.6,4.1s-3.1,1.9-5,2.4
	c-1.8,0.5-3.7,0.8-5.6,0.8c-1.9,0-3.7-0.2-5.4-0.6c-1.8-0.4-3.4-1.1-4.8-1.9s-2.7-2-3.8-3.4c-1.1-1.4-1.9-3-2.4-5l9.1-2.4
	c0.4,1.4,1.2,2.6,2.4,3.6s2.7,1.5,4.6,1.5c0.7,0,1.4-0.1,2.1-0.3c0.7-0.2,1.4-0.5,1.9-0.9s1-0.9,1.4-1.6c0.4-0.7,0.6-1.5,0.6-2.4
	c0-1-0.2-1.9-0.7-2.6c-0.5-0.7-1.1-1.3-1.9-1.7c-0.8-0.4-1.7-0.7-2.7-0.9s-2-0.3-3-0.3h-2.6v-7.2h2.9c0.9,0,1.8-0.1,2.7-0.2
	c0.9-0.1,1.6-0.4,2.3-0.8c0.7-0.4,1.2-0.9,1.6-1.5s0.6-1.4,0.6-2.4c0-1.5-0.5-2.6-1.6-3.4c-1-0.8-2.3-1.2-3.6-1.2
	c-1.4,0-2.6,0.4-3.6,1.3c-1,0.8-1.7,1.9-2,3.3l-9.1-2.1c0.5-1.7,1.3-3.3,2.3-4.6c1-1.3,2.2-2.4,3.6-3.3c1.4-0.9,2.9-1.5,4.5-2
	s3.3-0.7,5-0.7c1.8,0,3.6,0.2,5.3,0.7c1.7,0.5,3.3,1.2,4.6,2.2c1.4,1,2.5,2.2,3.3,3.6c0.8,1.5,1.3,3.2,1.3,5.2
	c0,2.3-0.6,4.2-1.9,5.8c-1.3,1.6-3,2.6-5,3.2v0.2c1.2,0.3,2.2,0.7,3.2,1.3c1,0.6,1.8,1.3,2.5,2.2c0.7,0.8,1.2,1.8,1.6,2.8
	S32.1,141.1,32.1,142.3z M51.3,154.3v-8.1l16.1-14.6c1-1,1.8-2,2.4-3c0.6-1,0.9-2.1,0.9-3.4c0-1.5-0.5-2.7-1.4-3.6
	c-0.9-0.9-2.2-1.4-3.7-1.4c-1.6,0-3,0.6-4,1.7s-1.6,2.6-1.8,4.5l-9.4-1.3c0.2-2.1,0.8-4,1.7-5.6s2.1-3,3.5-4.2s3-2,4.8-2.6
	c1.8-0.6,3.7-0.9,5.7-0.9c1.9,0,3.7,0.3,5.5,0.8c1.8,0.5,3.4,1.3,4.8,2.3c1.4,1,2.5,2.4,3.3,4c0.8,1.6,1.3,3.5,1.3,5.6
	c0,1.5-0.2,2.8-0.6,4c-0.4,1.2-0.9,2.3-1.6,3.3c-0.7,1-1.5,1.9-2.3,2.8c-0.9,0.9-1.8,1.7-2.7,2.6l-9.5,8.5h16.8v8.5H51.3z
	 M125.7,154.3l-9-14.6l-8.7,14.6H96.2l14.4-21.8L97.3,113h12l7.7,12.8l7.6-12.8h11.6l-13,19.4l14.9,21.8H125.7z"/>
</svg>
