<?xml version="1.0" encoding="utf-8"?>
<!-- Generator: Adobe Illustrator 24.2.1, SVG Export Plug-In . SVG Version: 6.00 Build 0)  -->
<svg version="1.1"
	 id="svg38" xmlns:cc="http://creativecommons.org/ns#" xmlns:dc="http://purl.org/dc/elements/1.1/" xmlns:rdf="http://www.w3.org/1999/02/22-rdf-syntax-ns#" xmlns:svg="http://www.w3.org/2000/svg"
	 xmlns="http://www.w3.org/2000/svg" xmlns:xlink="http://www.w3.org/1999/xlink" x="0px" y="0px" viewBox="0 0 888.5 155.4"
	 style="enable-background:new 0 0 888.5 155.4;" xml:space="preserve">
<path id="Path_367" d="M26.7,42.3L10.1,15.4H10l0.2,26.9H0.5V1.1h11.4L28.4,28h0.2L28.3,1.1H38v41.2H26.7z M101.1,21.5
	c0,3.3-0.6,6.2-1.7,8.9s-2.7,5-4.7,6.9c-2,1.9-4.4,3.4-7.1,4.5c-2.8,1-5.7,1.6-9,1.6s-6.2-0.5-8.9-1.6c-2.7-1-5.1-2.5-7.1-4.5
	c-2-1.9-3.6-4.2-4.7-6.9c-1.1-2.7-1.7-5.7-1.7-8.9c0-3.3,0.6-6.3,1.7-8.9c1.1-2.7,2.7-4.9,4.7-6.8c2-1.9,4.4-3.3,7.1-4.3
	c2.7-1,5.7-1.5,8.9-1.5s6.2,0.5,9,1.5s5.1,2.4,7.1,4.3c2,1.9,3.6,4.1,4.7,6.8S101.1,18.2,101.1,21.5z M90.5,21.5
	c0-1.8-0.3-3.5-0.9-5s-1.4-2.9-2.4-4c-1-1.1-2.3-2-3.7-2.6c-1.5-0.6-3.1-1-4.8-1c-1.7,0-3.3,0.3-4.8,1c-1.4,0.6-2.7,1.5-3.7,2.6
	c-1,1.1-1.9,2.4-2.4,4s-0.8,3.2-0.8,5c0,1.9,0.3,3.6,0.9,5.2c0.6,1.6,1.4,2.9,2.4,4c1,1.1,2.3,2,3.7,2.6c1.4,0.6,3,1,4.8,1
	c1.7,0,3.3-0.3,4.8-1s2.7-1.5,3.7-2.6c1-1.1,1.9-2.5,2.4-4S90.5,23.4,90.5,21.5z M135.2,9.6v32.7h-10V9.6h-11.6V1.1h33.2v8.5H135.2z
	 M214.7,42.3l-3.2-8.1h-15.9l-3,8.1h-10.8L199,1.1h9.7l17.1,41.2H214.7z M203.7,12.1l-5.2,14.1h10.4L203.7,12.1z M275.8,9.6v8.5
	h15.9v8.2h-15.9v16H266V1.1h27.1v8.5H275.8z M311.2,42.3V1.1h10v32.5h15.9v8.7H311.2z M381.4,42.3l-3.2-8.1h-15.9l-3,8.1h-10.8
	l17.3-41.2h9.7l17.1,41.2H381.4z M370.3,12.1l-5.2,14.1h10.4L370.3,12.1z M444.9,42.3l0.2-29.2h-0.2l-10.7,29.2h-7l-10.4-29.2h-0.2
	l0.2,29.2h-9.4V1.1h14.1l9.4,26.4h0.2l9-26.4h14.4v41.2H444.9z M474.7,42.3V1.1h27.7v8.4h-18.1v7.7h17.1v8h-17.1v8.6h19.2v8.5H474.7
	z M539.3,9.6v32.7h-10V9.6h-11.6V1.1H551v8.5H539.3z M593.2,42.3V25.1h-16.1v17.2h-10V1.1h10v15.6h16.1V1.1h10v41.2H593.2z
	 M645.3,42.3L636.4,26h-3.4v16.4h-9.8V1.1H639c2,0,3.9,0.2,5.8,0.6s3.6,1.1,5.1,2.1s2.7,2.3,3.6,3.8s1.3,3.6,1.3,5.9
	c0,2.8-0.8,5.1-2.3,7s-3.6,3.3-6.3,4.1L657,42.3H645.3z M644.9,13.7c0-1-0.2-1.8-0.6-2.4c-0.4-0.6-0.9-1.1-1.6-1.4
	c-0.6-0.3-1.4-0.6-2.2-0.7c-0.8-0.1-1.6-0.2-2.3-0.2H633v9.6h4.7c0.8,0,1.6-0.1,2.5-0.2c0.9-0.1,1.6-0.4,2.3-0.7
	c0.7-0.3,1.3-0.9,1.7-1.5C644.7,15.6,644.9,14.8,644.9,13.7z M716.5,21.5c0,3.3-0.6,6.2-1.7,8.9s-2.7,5-4.7,6.9
	c-2,1.9-4.4,3.4-7.1,4.5c-2.8,1-5.7,1.6-9,1.6c-3.2,0-6.2-0.5-8.9-1.6c-2.7-1-5.1-2.5-7.1-4.5c-2-1.9-3.6-4.2-4.7-6.9
	s-1.7-5.7-1.7-8.9c0-3.3,0.6-6.3,1.7-8.9s2.7-4.9,4.7-6.8c2-1.9,4.4-3.3,7.1-4.3c2.7-1,5.7-1.5,8.9-1.5c3.2,0,6.2,0.5,9,1.5
	c2.8,1,5.1,2.4,7.1,4.3c2,1.9,3.6,4.1,4.7,6.8S716.5,18.2,716.5,21.5z M705.8,21.5c0-1.8-0.3-3.5-0.9-5c-0.6-1.6-1.4-2.9-2.4-4
	c-1-1.1-2.3-2-3.7-2.6s-3.1-1-4.8-1s-3.3,0.3-4.8,1c-1.4,0.6-2.7,1.5-3.7,2.6c-1,1.1-1.9,2.4-2.4,4c-0.6,1.6-0.8,3.2-0.8,5
	c0,1.9,0.3,3.6,0.9,5.2c0.6,1.6,1.4,2.9,2.4,4c1,1.1,2.3,2,3.7,2.6c1.4,0.6,3,1,4.8,1s3.3-0.3,4.8-1c1.4-0.6,2.7-1.5,3.7-2.6
	c1-1.1,1.9-2.5,2.4-4C705.5,25.1,705.8,23.4,705.8,21.5z M778.3,42.3h-9.8l-8.1-27.9h-0.2L752,42.3h-9.9L730.4,1.1h10.7l6.5,27.4
	h0.2l7.3-27.4h10.4l7.4,27.4h0.2l6.6-27.4h10.4L778.3,42.3z M806,42.3V1.1h27.7v8.4h-18.1v7.7h17.1v8h-17.1v8.6h19.2v8.5H806z
	 M875,42.3L866.1,26h-3.4v16.4H853V1.1h15.7c2,0,3.9,0.2,5.8,0.6s3.6,1.1,5.1,2.1s2.7,2.3,3.6,3.8c0.9,1.6,1.3,3.6,1.3,5.9
	c0,2.8-0.8,5.1-2.3,7c-1.5,1.9-3.6,3.3-6.3,4.1l10.8,17.6H875z M874.6,13.7c0-1-0.2-1.8-0.6-2.4c-0.4-0.6-0.9-1.1-1.6-1.4
	c-0.6-0.3-1.4-0.6-2.2-0.7c-0.8-0.1-1.6-0.2-2.3-0.2h-5.3v9.6h4.7c0.8,0,1.6-0.1,2.5-0.2s1.6-0.4,2.3-0.7c0.7-0.3,1.3-0.9,1.7-1.5
	C874.4,15.6,874.6,14.8,874.6,13.7z M12.7,154.3V124l-7.7,5.9L0,123l13.6-10h9v41.2H12.7z M80.5,140.4c0,2.3-0.4,4.4-1.3,6.3
	c-0.9,1.9-2,3.4-3.5,4.7c-1.5,1.3-3.2,2.3-5.2,2.9c-2,0.7-4.1,1-6.3,1c-2.3,0-4.4-0.3-6.3-1c-2-0.7-3.7-1.7-5.2-2.9
	c-1.5-1.3-2.6-2.8-3.5-4.7c-0.9-1.8-1.3-3.9-1.3-6.1c0-2.4,0.4-4.7,1.3-6.7c0.9-2,2-4,3.3-6.1l10-14.8h11.8l-10.1,14.1l-0.2,0.3
	c0.4-0.2,0.9-0.3,1.4-0.3c0.5-0.1,1-0.1,1.5-0.1c1.8,0,3.5,0.3,5.2,1c1.6,0.6,3.1,1.6,4.3,2.7c1.2,1.2,2.2,2.6,2.9,4.2
	C80.1,136.5,80.5,138.4,80.5,140.4z M70.7,140.6c0-1.9-0.6-3.4-1.7-4.6s-2.7-1.8-4.7-1.8c-1.9,0-3.5,0.6-4.7,1.8
	c-1.2,1.2-1.8,2.8-1.8,4.7c0,1.8,0.6,3.3,1.7,4.6c1.2,1.3,2.7,1.9,4.7,1.9c1.9,0,3.5-0.6,4.7-1.8C70.1,144.2,70.7,142.6,70.7,140.6z
	 M123.9,154.3l-9-14.6l-8.7,14.6H94.3l14.4-21.8L95.5,113h12l7.7,12.8l7.6-12.8h11.6l-13,19.4l14.9,21.8H123.9z"/>
</svg>
