<?xml version="1.0" encoding="UTF-8" standalone="no"?>
<svg
   xmlns:dc="http://purl.org/dc/elements/1.1/"
   xmlns:cc="http://creativecommons.org/ns#"
   xmlns:rdf="http://www.w3.org/1999/02/22-rdf-syntax-ns#"
   xmlns:svg="http://www.w3.org/2000/svg"
   xmlns="http://www.w3.org/2000/svg"
   id="svg20"
   version="1.1"
   viewBox="1.664 -37.804 793.78 138.792"
   class="Path_366">
  <metadata
     id="metadata26">
    <rdf:RDF>
      <cc:Work
         rdf:about="">
        <dc:format>image/svg+xml</dc:format>
        <dc:type
           rdf:resource="http://purl.org/dc/dcmitype/StillImage" />
        <dc:title></dc:title>
      </cc:Work>
    </rdf:RDF>
  </metadata>
  <defs
     id="defs24" />
  <path
     d="M 27.19599914550781 0 L 12.37600040435791 -24.07600021362305 L 12.22000026702881 -24.07600021362305 L 12.42799949645996 0 L 3.796000003814697 0 L 3.796000003814697 -36.81600189208984 L 13.93600082397461 -36.81600189208984 L 28.70399856567383 -12.79200077056885 L 28.86000061035156 -12.79200077056885 L 28.65200042724609 -36.81600189208984 L 37.28400039672852 -36.81600189208984 L 37.28400039672852 0 L 27.19599914550781 0 Z M 93.65200042724609 -18.56399917602539 C 93.65200042724609 -15.65199947357178 93.14933013916016 -12.9913330078125 92.14399719238281 -10.58199977874756 C 91.13866424560547 -8.172666549682617 89.74333190917969 -6.110000610351562 87.95800018310547 -4.394000053405762 C 86.17266845703125 -2.677999973297119 84.04933166503906 -1.351999998092651 81.58799743652344 -0.4160000085830688 C 79.12666320800781 0.5200000405311584 76.45732879638672 0.9879999756813049 73.58000183105469 0.9879999756813049 C 70.70266723632812 0.9879999756813049 68.04199981689453 0.5200000405311584 65.59799957275391 -0.4160000085830688 C 63.15399932861328 -1.351999998092651 61.03933334350586 -2.677999973297119 59.25399780273438 -4.394000053405762 C 57.46866607666016 -6.110000610351562 56.07333374023438 -8.172666549682617 55.06800079345703 -10.58199977874756 C 54.06266403198242 -12.9913330078125 53.55999755859375 -15.65199947357178 53.55999755859375 -18.56399917602539 C 53.55999755859375 -21.51066589355469 54.06266403198242 -24.17133331298828 55.06800079345703 -26.54600143432617 C 56.07333374023438 -28.92066764831543 57.46866607666016 -30.94000053405762 59.25399780273438 -32.60400009155273 C 61.03933334350586 -34.26800155639648 63.15399932861328 -35.55066680908203 65.59799957275391 -36.45199966430664 C 68.04199981689453 -37.35333251953125 70.70266723632812 -37.80400085449219 73.58000183105469 -37.80400085449219 C 76.45732879638672 -37.80400085449219 79.12666320800781 -37.35333251953125 81.58799743652344 -36.45199966430664 C 84.04933166503906 -35.55066680908203 86.17266845703125 -34.26800155639648 87.95800018310547 -32.60400009155273 C 89.74333190917969 -30.94000053405762 91.13866424560547 -28.92066764831543 92.14399719238281 -26.54600143432617 C 93.14933013916016 -24.17133331298828 93.65200042724609 -21.51066589355469 93.65200042724609 -18.56399917602539 Z M 84.13600158691406 -18.56399917602539 C 84.13600158691406 -20.15866661071777 83.87599945068359 -21.64933204650879 83.35600280761719 -23.0359992980957 C 82.83599853515625 -24.42266654968262 82.11666107177734 -25.61000061035156 81.197998046875 -26.59799957275391 C 80.27933502197266 -27.58600044250488 79.16999816894531 -28.36600112915039 77.8699951171875 -28.93800163269043 C 76.56999969482422 -29.51000213623047 75.13999938964844 -29.79600143432617 73.58000183105469 -29.79600143432617 C 72.01999664306641 -29.79600143432617 70.59866333007812 -29.51000213623047 69.31600189208984 -28.93800163269043 C 68.03333282470703 -28.36600112915039 66.92399597167969 -27.58600044250488 65.98799896240234 -26.59799957275391 C 65.052001953125 -25.61000061035156 64.33266448974609 -24.42266654968262 63.82999801635742 -23.0359992980957 C 63.32733154296875 -21.64933204650879 63.07600021362305 -20.15866661071777 63.07600021362305 -18.56399917602539 C 63.07600021362305 -16.89999961853027 63.33599853515625 -15.36599922180176 63.85599899291992 -13.96199989318848 C 64.37599945068359 -12.55799961090088 65.0953369140625 -11.35333347320557 66.01399993896484 -10.34799957275391 C 66.93266296386719 -9.342666625976562 68.03333282470703 -8.553999900817871 69.31600189208984 -7.982000350952148 C 70.59866333007812 -7.409999847412109 72.01999664306641 -7.12399959564209 73.58000183105469 -7.12399959564209 C 75.13999938964844 -7.12399959564209 76.56133270263672 -7.409999847412109 77.84400177001953 -7.982000350952148 C 79.12667083740234 -8.553999900817871 80.23600006103516 -9.342666625976562 81.1719970703125 -10.34799957275391 C 82.10799407958984 -11.35333347320557 82.83599853515625 -12.55799961090088 83.35600280761719 -13.96199989318848 C 83.87599945068359 -15.36599922180176 84.13600158691406 -16.89999961853027 84.13600158691406 -18.56399917602539 Z M 124.1240005493164 -29.2239990234375 L 124.1240005493164 0 L 115.2319946289062 0 L 115.2319946289062 -29.2239990234375 L 104.8320007324219 -29.2239990234375 L 104.8320007324219 -36.81600189208984 L 134.5240020751953 -36.81600189208984 L 134.5240020751953 -29.2239990234375 L 124.1240005493164 -29.2239990234375 Z M 195.1559906005859 0 L 192.2959899902344 -7.227999687194824 L 178.0479888916016 -7.227999687194824 L 175.343994140625 0 L 165.6719970703125 0 L 181.1159973144531 -36.81600189208984 L 189.7479858398438 -36.81600189208984 L 205.0359954833984 0 L 195.1559906005859 0 Z M 185.2760009765625 -26.98799896240234 L 180.5959930419922 -14.35199928283691 L 189.8519897460938 -14.35199928283691 L 185.2760009765625 -26.98799896240234 Z M 249.7559967041016 -29.2239990234375 L 249.7559967041016 -21.63199996948242 L 264.0039978027344 -21.63199996948242 L 264.0039978027344 -14.30000019073486 L 249.7559967041016 -14.30000019073486 L 249.7559967041016 0 L 240.9680023193359 0 L 240.9680023193359 -36.81600189208984 L 265.1999816894531 -36.81600189208984 L 265.1999816894531 -29.2239990234375 L 249.7559967041016 -29.2239990234375 Z M 281.3199768066406 0 L 281.3199768066406 -36.81600189208984 L 290.2639770507812 -36.81600189208984 L 290.2639770507812 -7.748000144958496 L 304.5119934082031 -7.748000144958496 L 304.5119934082031 0 L 281.3199768066406 0 Z M 344.0320129394531 0 L 341.1719970703125 -7.227999687194824 L 326.9240112304688 -7.227999687194824 L 324.2200012207031 0 L 314.5480041503906 0 L 329.9920043945312 -36.81600189208984 L 338.6239929199219 -36.81600189208984 L 353.9119873046875 0 L 344.0320129394531 0 Z M 334.1520080566406 -26.98799896240234 L 329.4720153808594 -14.35199928283691 L 338.7279968261719 -14.35199928283691 L 334.1520080566406 -26.98799896240234 Z M 400.7639770507812 0 L 400.9719848632812 -26.05200004577637 L 400.8159790039062 -26.05200004577637 L 391.2479858398438 0 L 385.0079956054688 0 L 375.6999816894531 -26.05200004577637 L 375.5439758300781 -26.05200004577637 L 375.7519836425781 0 L 367.3799743652344 0 L 367.3799743652344 -36.81600189208984 L 380.0159912109375 -36.81600189208984 L 388.3880004882812 -13.20800018310547 L 388.5959777832031 -13.20800018310547 L 396.6039733886719 -36.81600189208984 L 409.447998046875 -36.81600189208984 L 409.447998046875 0 L 400.7639770507812 0 Z M 427.4399719238281 0 L 427.4399719238281 -36.81600189208984 L 452.1919860839844 -36.81600189208984 L 452.1919860839844 -29.2760009765625 L 436.0199890136719 -29.2760009765625 L 436.0199890136719 -22.36000061035156 L 451.3079833984375 -22.36000061035156 L 451.3079833984375 -15.23600101470947 L 436.0199890136719 -15.23600101470947 L 436.0199890136719 -7.592000007629395 L 453.1279907226562 -7.592000007629395 L 453.1279907226562 0 L 427.4399719238281 0 Z M 485.1600036621094 -29.2239990234375 L 485.1600036621094 0 L 476.2680053710938 0 L 476.2680053710938 -29.2239990234375 L 465.8680114746094 -29.2239990234375 L 465.8680114746094 -36.81600189208984 L 495.5599975585938 -36.81600189208984 L 495.5599975585938 -29.2239990234375 L 485.1600036621094 -29.2239990234375 Z M 533.260009765625 0 L 533.260009765625 -15.39200019836426 L 518.9080200195312 -15.39200019836426 L 518.9080200195312 0 L 510.0159912109375 0 L 510.0159912109375 -36.81600189208984 L 518.9080200195312 -36.81600189208984 L 518.9080200195312 -22.8799991607666 L 533.260009765625 -22.8799991607666 L 533.260009765625 -36.81600189208984 L 542.1519775390625 -36.81600189208984 L 542.1519775390625 0 L 533.260009765625 0 Z M 579.85205078125 0 L 571.89599609375 -14.61199951171875 L 568.8800048828125 -14.61199951171875 L 568.8800048828125 0 L 560.14404296875 0 L 560.14404296875 -36.81600189208984 L 574.1840209960938 -36.81600189208984 C 575.9520263671875 -36.81600189208984 577.6766967773438 -36.63400268554688 579.3580322265625 -36.27000045776367 C 581.0393676757812 -35.90599822998047 582.54736328125 -35.29066467285156 583.8820190429688 -34.42399978637695 C 585.2166748046875 -33.55733489990234 586.28271484375 -32.41333389282227 587.0800170898438 -30.99200057983398 C 587.8773193359375 -29.5706672668457 588.2760009765625 -27.80266761779785 588.2760009765625 -25.6879997253418 C 588.2760009765625 -23.1919994354248 587.6000366210938 -21.09466743469238 586.248046875 -19.39599990844727 C 584.8960571289062 -17.69733238220215 583.0240478515625 -16.48399925231934 580.6320190429688 -15.75600051879883 L 590.2520141601562 0 L 579.85205078125 0 Z M 579.488037109375 -25.5319995880127 C 579.488037109375 -26.39866638183594 579.3060302734375 -27.10066604614258 578.9420166015625 -27.63799858093262 C 578.5780029296875 -28.17533302307129 578.1099853515625 -28.59133338928223 577.5380249023438 -28.8859977722168 C 576.966064453125 -29.18066596984863 576.32470703125 -29.38000106811523 575.614013671875 -29.48399925231934 C 574.9033813476562 -29.58799934387207 574.2186889648438 -29.63999938964844 573.5599975585938 -29.63999938964844 L 568.8280029296875 -29.63999938964844 L 568.8280029296875 -21.05999946594238 L 573.0400390625 -21.05999946594238 C 573.7680053710938 -21.05999946594238 574.5133666992188 -21.12066650390625 575.2760009765625 -21.24199867248535 C 576.0386962890625 -21.36333274841309 576.7320556640625 -21.57999992370605 577.3560180664062 -21.89200019836426 C 577.97998046875 -22.20400047302246 578.4913330078125 -22.65466690063477 578.8900146484375 -23.24399948120117 C 579.2886962890625 -23.83333206176758 579.488037109375 -24.59599876403809 579.488037109375 -25.5319995880127 Z M 643.39599609375 -18.56399917602539 C 643.39599609375 -15.65199947357178 642.893310546875 -12.9913330078125 641.8880004882812 -10.58199977874756 C 640.8826904296875 -8.172666549682617 639.4873657226562 -6.110000610351562 637.7020263671875 -4.394000053405762 C 635.9166870117188 -2.677999973297119 633.7933349609375 -1.351999998092651 631.3319702148438 -0.4160000085830688 C 628.8706665039062 0.5200000405311584 626.2013549804688 0.9879999756813049 623.323974609375 0.9879999756813049 C 620.4466552734375 0.9879999756813049 617.7860107421875 0.5200000405311584 615.3419799804688 -0.4160000085830688 C 612.8980102539062 -1.351999998092651 610.7833251953125 -2.677999973297119 608.9979858398438 -4.394000053405762 C 607.212646484375 -6.110000610351562 605.8173217773438 -8.172666549682617 604.81201171875 -10.58199977874756 C 603.8067016601562 -12.9913330078125 603.3040161132812 -15.65199947357178 603.3040161132812 -18.56399917602539 C 603.3040161132812 -21.51066589355469 603.8067016601562 -24.17133331298828 604.81201171875 -26.54600143432617 C 605.8173217773438 -28.92066764831543 607.212646484375 -30.94000053405762 608.9979858398438 -32.60400009155273 C 610.7833251953125 -34.26800155639648 612.8980102539062 -35.55066680908203 615.3419799804688 -36.45199966430664 C 617.7860107421875 -37.35333251953125 620.4466552734375 -37.80400085449219 623.323974609375 -37.80400085449219 C 626.2013549804688 -37.80400085449219 628.8706665039062 -37.35333251953125 631.3319702148438 -36.45199966430664 C 633.7933349609375 -35.55066680908203 635.9166870117188 -34.26800155639648 637.7020263671875 -32.60400009155273 C 639.4873657226562 -30.94000053405762 640.8826904296875 -28.92066764831543 641.8880004882812 -26.54600143432617 C 642.893310546875 -24.17133331298828 643.39599609375 -21.51066589355469 643.39599609375 -18.56399917602539 Z M 633.8800048828125 -18.56399917602539 C 633.8800048828125 -20.15866661071777 633.6199951171875 -21.64933204650879 633.0999755859375 -23.0359992980957 C 632.5800170898438 -24.42266654968262 631.8606567382812 -25.61000061035156 630.9420166015625 -26.59799957275391 C 630.0233764648438 -27.58600044250488 628.9140014648438 -28.36600112915039 627.614013671875 -28.93800163269043 C 626.3140258789062 -29.51000213623047 624.8839721679688 -29.79600143432617 623.323974609375 -29.79600143432617 C 621.7639770507812 -29.79600143432617 620.3426513671875 -29.51000213623047 619.0599975585938 -28.93800163269043 C 617.77734375 -28.36600112915039 616.66796875 -27.58600044250488 615.7319946289062 -26.59799957275391 C 614.7960205078125 -25.61000061035156 614.07666015625 -24.42266654968262 613.573974609375 -23.0359992980957 C 613.0713500976562 -21.64933204650879 612.8200073242188 -20.15866661071777 612.8200073242188 -18.56399917602539 C 612.8200073242188 -16.89999961853027 613.0800170898438 -15.36599922180176 613.5999755859375 -13.96199989318848 C 614.1199951171875 -12.55799961090088 614.83935546875 -11.35333347320557 615.7579956054688 -10.34799957275391 C 616.6766357421875 -9.342666625976562 617.77734375 -8.553999900817871 619.0599975585938 -7.982000350952148 C 620.3426513671875 -7.409999847412109 621.7639770507812 -7.12399959564209 623.323974609375 -7.12399959564209 C 624.8839721679688 -7.12399959564209 626.3053588867188 -7.409999847412109 627.5880126953125 -7.982000350952148 C 628.8706665039062 -8.553999900817871 629.9800415039062 -9.342666625976562 630.916015625 -10.34799957275391 C 631.8519897460938 -11.35333347320557 632.5800170898438 -12.55799961090088 633.0999755859375 -13.96199989318848 C 633.6199951171875 -15.36599922180176 633.8800048828125 -16.89999961853027 633.8800048828125 -18.56399917602539 Z M 698.6719970703125 0 L 689.8839721679688 0 L 682.60400390625 -24.90800094604492 L 682.447998046875 -24.90800094604492 L 675.16796875 0 L 666.3280029296875 0 L 655.8759765625 -36.81600189208984 L 665.4439697265625 -36.81600189208984 L 671.2680053710938 -12.32400035858154 L 671.4239501953125 -12.32400035858154 L 677.9759521484375 -36.81600189208984 L 687.2319946289062 -36.81600189208984 L 693.8359985351562 -12.32400035858154 L 693.991943359375 -12.32400035858154 L 699.9199829101562 -36.81600189208984 L 709.1759643554688 -36.81600189208984 L 698.6719970703125 0 Z M 723.3720092773438 0 L 723.3720092773438 -36.81600189208984 L 748.1239624023438 -36.81600189208984 L 748.1239624023438 -29.2760009765625 L 731.9519653320312 -29.2760009765625 L 731.9519653320312 -22.36000061035156 L 747.239990234375 -22.36000061035156 L 747.239990234375 -15.23600101470947 L 731.9519653320312 -15.23600101470947 L 731.9519653320312 -7.592000007629395 L 749.0599975585938 -7.592000007629395 L 749.0599975585938 0 L 723.3720092773438 0 Z M 785.0440063476562 0 L 777.0879516601562 -14.61199951171875 L 774.0719604492188 -14.61199951171875 L 774.0719604492188 0 L 765.3359985351562 0 L 765.3359985351562 -36.81600189208984 L 779.3759765625 -36.81600189208984 C 781.1439819335938 -36.81600189208984 782.86865234375 -36.63400268554688 784.5499877929688 -36.27000045776367 C 786.2313232421875 -35.90599822998047 787.7393188476562 -35.29066467285156 789.073974609375 -34.42399978637695 C 790.4086303710938 -33.55733489990234 791.4746704101562 -32.41333389282227 792.27197265625 -30.99200057983398 C 793.0692749023438 -29.5706672668457 793.4679565429688 -27.80266761779785 793.4679565429688 -25.6879997253418 C 793.4679565429688 -23.1919994354248 792.7919921875 -21.09466743469238 791.4400024414062 -19.39599990844727 C 790.0880126953125 -17.69733238220215 788.2160034179688 -16.48399925231934 785.823974609375 -15.75600051879883 L 795.4439697265625 0 L 785.0440063476562 0 Z M 784.6799926757812 -25.5319995880127 C 784.6799926757812 -26.39866638183594 784.4979858398438 -27.10066604614258 784.1339721679688 -27.63799858093262 C 783.7699584960938 -28.17533302307129 783.3019409179688 -28.59133338928223 782.72998046875 -28.8859977722168 C 782.157958984375 -29.18066596984863 781.5166015625 -29.38000106811523 780.8059692382812 -29.48399925231934 C 780.0953369140625 -29.58799934387207 779.41064453125 -29.63999938964844 778.751953125 -29.63999938964844 L 774.0199584960938 -29.63999938964844 L 774.0199584960938 -21.05999946594238 L 778.2319946289062 -21.05999946594238 C 778.9599609375 -21.05999946594238 779.705322265625 -21.12066650390625 780.4679565429688 -21.24199867248535 C 781.2306518554688 -21.36333274841309 781.9240112304688 -21.57999992370605 782.5479736328125 -21.89200019836426 C 783.1719970703125 -22.20400047302246 783.683349609375 -22.65466690063477 784.0819702148438 -23.24399948120117 C 784.4806518554688 -23.83333206176758 784.6799926757812 -24.59599876403809 784.6799926757812 -25.5319995880127 Z M 30.31599998474121 89.28800201416016 C 30.31599998474121 91.29866790771484 29.90866661071777 93.04066467285156 29.09399795532227 94.51399993896484 C 28.27933311462402 95.98733520507812 27.21333503723145 97.20066833496094 25.89599990844727 98.15399932861328 C 24.57866668701172 99.10733032226562 23.09666633605957 99.81800079345703 21.44999885559082 100.286003112793 C 19.8033332824707 100.7539978027344 18.13066673278809 100.9879989624023 16.4320011138916 100.9879989624023 C 14.76800060272217 100.9879989624023 13.14733409881592 100.7973327636719 11.56999969482422 100.4160003662109 C 9.992667198181152 100.03466796875 8.554000854492188 99.45400238037109 7.254000186920166 98.67400360107422 C 5.953999996185303 97.89399719238281 4.818666458129883 96.88866424560547 3.848000049591064 95.65799713134766 C 2.877333164215088 94.42733001708984 2.149333238601685 92.94532775878906 1.664000034332275 91.21199798583984 L 9.776000022888184 89.08000183105469 C 10.12266635894775 90.2933349609375 10.83333301544189 91.35933685302734 11.90799999237061 92.27799987792969 C 12.982666015625 93.19666290283203 14.35200023651123 93.65599822998047 16.01600074768066 93.65599822998047 C 16.63999938964844 93.65599822998047 17.27266693115234 93.56932830810547 17.91399955749512 93.39599609375 C 18.55533218383789 93.22266387939453 19.12733268737793 92.95400238037109 19.6299991607666 92.58999633789062 C 20.13266563415527 92.22599792480469 20.54866600036621 91.74933624267578 20.87799835205078 91.16000366210938 C 21.20733451843262 90.57067108154297 21.37200164794922 89.84266662597656 21.37200164794922 88.97599792480469 C 21.37200164794922 88.04000091552734 21.15533447265625 87.26000213623047 20.72200012207031 86.63600158691406 C 20.28866767883301 86.01200103759766 19.71666717529297 85.51799774169922 19.00600051879883 85.15399932861328 C 18.29533386230469 84.79000091552734 17.48933410644531 84.52999877929688 16.5880012512207 84.37400054931641 C 15.68666744232178 84.21800231933594 14.78533363342285 84.13999938964844 13.88399982452393 84.13999938964844 L 11.54400062561035 84.13999938964844 L 11.54400062561035 77.74400329589844 L 14.09200000762939 77.74400329589844 C 14.92399978637695 77.74400329589844 15.72133255004883 77.68333435058594 16.48399925231934 77.56199645996094 C 17.24666595458984 77.44066619873047 17.93133163452148 77.21533203125 18.53800010681152 76.88600158691406 C 19.14466667175293 76.55666351318359 19.6299991607666 76.11466217041016 19.99399948120117 75.55999755859375 C 20.35799980163574 75.00533294677734 20.54000091552734 74.27732849121094 20.54000091552734 73.37599945068359 C 20.54000091552734 72.05867004394531 20.07200050354004 71.05333709716797 19.13599967956543 70.36000061035156 C 18.20000076293945 69.66666412353516 17.12533378601074 69.31999969482422 15.91199970245361 69.31999969482422 C 14.66400051116943 69.31999969482422 13.58066749572754 69.69266510009766 12.66199970245361 70.43800354003906 C 11.743332862854 71.18333435058594 11.1453332901001 72.18000030517578 10.86800003051758 73.42800140380859 L 2.75600004196167 71.55599975585938 C 3.206666707992554 69.99600219726562 3.88266658782959 68.63533782958984 4.783999919891357 67.4739990234375 C 5.685333251953125 66.31266784667969 6.751333236694336 65.34200286865234 7.982000350952148 64.56199645996094 C 9.212666511535645 63.78199768066406 10.55599975585938 63.19266510009766 12.01200008392334 62.79399871826172 C 13.4680004119873 62.39533233642578 14.95866680145264 62.19599914550781 16.48399925231934 62.19599914550781 C 18.11333274841309 62.19599914550781 19.69933319091797 62.40399932861328 21.24199867248535 62.81999969482422 C 22.78466606140137 63.23600006103516 24.16266632080078 63.87733459472656 25.37599945068359 64.74400329589844 C 26.58933258056641 65.61066436767578 27.56866645812988 66.69400024414062 28.31399917602539 67.99400329589844 C 29.0593318939209 69.29399871826172 29.43199920654297 70.8280029296875 29.43199920654297 72.59600067138672 C 29.43199920654297 74.64133453369141 28.85133361816406 76.36600494384766 27.69000244140625 77.77000427246094 C 26.52866744995117 79.17400360107422 25.04666709899902 80.11866760253906 23.24399948120117 80.60400390625 L 23.24399948120117 80.76000213623047 C 24.28400039672852 81.00267028808594 25.23733329772949 81.39266967773438 26.1039981842041 81.93000030517578 C 26.97066688537598 82.46733093261719 27.71600151062012 83.10866546630859 28.34000015258789 83.85400390625 C 28.9640007019043 84.59933471679688 29.4493350982666 85.43133544921875 29.79600143432617 86.34999847412109 C 30.14266777038574 87.26866149902344 30.31599998474121 88.24800109863281 30.31599998474121 89.28800201416016 Z M 47.52799987792969 100 L 47.52799987792969 92.72000122070312 L 61.88000106811523 79.72000122070312 C 62.78133392333984 78.85333251953125 63.50933456420898 77.96932983398438 64.06400299072266 77.06800079345703 C 64.61866760253906 76.16667175292969 64.89600372314453 75.16133880615234 64.89600372314453 74.052001953125 C 64.89600372314453 72.73467254638672 64.48000335693359 71.66867065429688 63.64800262451172 70.85399627685547 C 62.81600189208984 70.03933715820312 61.70666885375977 69.63200378417969 60.31999969482422 69.63200378417969 C 58.8640022277832 69.63200378417969 57.67666625976562 70.14333343505859 56.75799942016602 71.16600036621094 C 55.83933258056641 72.18866729736328 55.2933349609375 73.53199768066406 55.12000274658203 75.19599914550781 L 46.74800109863281 74.052001953125 C 46.95600128173828 72.18000030517578 47.46733474731445 70.51599884033203 48.28200149536133 69.05999755859375 C 49.0966682434082 67.60399627685547 50.12800216674805 66.36466979980469 51.37599945068359 65.34200286865234 C 52.62400054931641 64.3193359375 54.05400085449219 63.53933334350586 55.66600036621094 63.00199890136719 C 57.27799987792969 62.46466445922852 58.98533248901367 62.19599914550781 60.78800201416016 62.19599914550781 C 62.48666763305664 62.19599914550781 64.13333129882812 62.42133331298828 65.72799682617188 62.87200164794922 C 67.32266235351562 63.32266616821289 68.74399566650391 64.01599884033203 69.99200439453125 64.95199584960938 C 71.23999786376953 65.88800048828125 72.23666381835938 67.06666564941406 72.98200225830078 68.48799896240234 C 73.72733306884766 69.90933227539062 74.09999847412109 71.57333374023438 74.09999847412109 73.47999572753906 C 74.09999847412109 74.79733276367188 73.92666625976562 75.98466491699219 73.58000183105469 77.04199981689453 C 73.23332977294922 78.09933471679688 72.75666809082031 79.07866668701172 72.15000152587891 79.97999572753906 C 71.5433349609375 80.88133239746094 70.84999847412109 81.72200012207031 70.06999969482422 82.50199890136719 C 69.29000091552734 83.28199768066406 68.48400115966797 84.05332946777344 67.65200042724609 84.81600189208984 L 59.12400054931641 92.40799713134766 L 74.15200042724609 92.40799713134766 L 74.15200042724609 100 L 47.52799987792969 100 Z M 113.984001159668 100 L 105.9240036010742 87 L 98.17600250244141 100 L 87.56800079345703 100 L 100.4640045166016 80.552001953125 L 88.60800170898438 63.18399810791016 L 99.31999969482422 63.18399810791016 L 106.1839981079102 74.62400054931641 L 112.9440002441406 63.18399810791016 L 123.2920074462891 63.18399810791016 L 111.6439971923828 80.552001953125 L 124.9560012817383 100 L 113.984001159668 100 Z"
     id="Path_366" />
</svg>
