<?xml version="1.0" encoding="utf-8"?>
<!-- Generator: Adobe Illustrator 25.0.1, SVG Export Plug-In . SVG Version: 6.00 Build 0)  -->
<svg version="1.1"
	 id="svg20" xmlns:cc="http://creativecommons.org/ns#" xmlns:dc="http://purl.org/dc/elements/1.1/" xmlns:rdf="http://www.w3.org/1999/02/22-rdf-syntax-ns#" xmlns:svg="http://www.w3.org/2000/svg"
	 xmlns="http://www.w3.org/2000/svg" xmlns:xlink="http://www.w3.org/1999/xlink" x="0px" y="0px" viewBox="0 0 888.5 155.4"
	 style="enable-background:new 0 0 888.5 155.4;" xml:space="preserve">
<style type="text/css">
	.st0{enable-background:new    ;}
</style>
<g class="st0">
	<path d="M14,58.3c0,0.7-0.1,1.4-0.4,2.1s-0.7,1.2-1.2,1.7c-0.5,0.5-1.1,0.8-1.7,1.1c-0.7,0.3-1.4,0.4-2.1,0.4
		c-1.5,0-2.8-0.5-3.9-1.5c-1-1-1.6-2.3-1.6-3.7c0-0.7,0.1-1.4,0.4-2c0.3-0.6,0.7-1.2,1.2-1.7c0.5-0.5,1.1-0.8,1.7-1.1
		C7.1,53.2,7.8,53,8.6,53c0.7,0,1.4,0.1,2.1,0.4c0.7,0.3,1.3,0.6,1.7,1.1c0.5,0.5,0.9,1,1.2,1.7S14,57.5,14,58.3z M3.8,96.4V67.5
		h9.5v28.9H3.8z"/>
	<path d="M51.9,96.4H40.1l-9.5-13.9h-0.2v13.9h-9.6V52.5h9.6v26.7h0.2l9.2-11.7h11.5l-11.1,13L51.9,96.4z"/>
	<path d="M83,82.3c0,0.4,0,0.8,0,1.2s0,0.8-0.1,1.1H62c0.1,0.8,0.3,1.5,0.7,2.2c0.4,0.7,0.9,1.2,1.6,1.7c0.6,0.5,1.4,0.9,2.1,1.1
		c0.8,0.3,1.6,0.4,2.5,0.4c1.5,0,2.8-0.3,3.8-0.8s1.9-1.3,2.6-2.2l6.6,4.2c-1.4,2-3.1,3.5-5.4,4.6c-2.2,1.1-4.8,1.6-7.7,1.6
		c-2.2,0-4.2-0.3-6.1-1c-1.9-0.7-3.6-1.7-5.1-3c-1.5-1.3-2.6-2.9-3.4-4.8c-0.8-1.9-1.2-4.1-1.2-6.5c0-2.4,0.4-4.5,1.2-6.4
		s1.9-3.5,3.3-4.9s3-2.4,4.9-3.1c1.9-0.7,3.9-1.1,6.1-1.1c2.1,0,4.1,0.4,5.9,1.1c1.8,0.7,3.3,1.8,4.6,3.1c1.3,1.4,2.3,3,3,4.9
		C82.6,77.6,83,79.8,83,82.3z M74.2,78.6c0-1.5-0.5-2.8-1.4-3.9c-0.9-1.1-2.4-1.6-4.3-1.6c-0.9,0-1.8,0.1-2.6,0.4
		c-0.8,0.3-1.5,0.7-2,1.2c-0.6,0.5-1,1.1-1.4,1.8c-0.3,0.7-0.5,1.4-0.6,2.1H74.2z"/>
	<path d="M88.2,71.4c1.7-1.6,3.7-2.8,5.9-3.7c2.3-0.8,4.6-1.2,6.9-1.2c2.4,0,4.5,0.3,6.2,0.9c1.7,0.6,3,1.5,4.1,2.8
		c1,1.3,1.8,2.8,2.3,4.8c0.5,1.9,0.7,4.2,0.7,6.8v14.6h-8.7v-3.1h-0.2c-0.7,1.2-1.8,2.1-3.3,2.8c-1.5,0.7-3.1,1-4.8,1
		c-1.2,0-2.4-0.2-3.6-0.5c-1.2-0.3-2.4-0.8-3.4-1.5c-1-0.7-1.9-1.6-2.5-2.8c-0.7-1.2-1-2.6-1-4.3c0-2.1,0.6-3.8,1.7-5
		c1.1-1.3,2.6-2.3,4.4-3c1.8-0.7,3.8-1.2,6-1.4s4.4-0.3,6.4-0.3v-0.5c0-1.4-0.5-2.5-1.5-3.2c-1-0.7-2.2-1-3.7-1
		c-1.4,0-2.7,0.3-3.9,0.9c-1.3,0.6-2.3,1.3-3.2,2.1L88.2,71.4z M105.6,83.8h-1.2c-1,0-2.1,0-3.2,0.1c-1.1,0.1-2,0.3-2.8,0.6
		c-0.8,0.3-1.5,0.7-2.1,1.2c-0.5,0.5-0.8,1.2-0.8,2.1c0,0.5,0.1,1,0.4,1.4c0.3,0.4,0.6,0.7,1,0.9c0.4,0.2,0.8,0.4,1.3,0.5
		c0.5,0.1,1,0.1,1.5,0.1c1.9,0,3.4-0.5,4.4-1.6c1-1.1,1.5-2.5,1.5-4.3V83.8z"/>
	<path d="M153.8,59.5c-0.3-0.1-0.8-0.2-1.2-0.3c-0.5-0.1-0.9-0.1-1.4-0.1c-0.9,0-1.6,0.2-2.1,0.5c-0.5,0.3-1,0.7-1.3,1.2
		c-0.3,0.5-0.5,1.1-0.6,1.8c-0.1,0.7-0.2,1.3-0.2,2v2.9h6.4v7.1H147v21.8h-9.5V74.6h-5.3v-7.1h5.3v-2.8c0-1.8,0.2-3.5,0.6-5.1
		c0.4-1.6,1.1-3,2-4.2c0.9-1.2,2.2-2.2,3.8-2.9c1.6-0.7,3.6-1.1,6-1.1c0.8,0,1.6,0,2.4,0.1c0.8,0.1,1.5,0.2,2.2,0.4L153.8,59.5z"/>
	<path d="M176,96.4v-4h-0.1c-0.3,0.7-0.8,1.3-1.4,1.9c-0.6,0.6-1.2,1.1-2,1.5c-0.8,0.4-1.6,0.8-2.5,1c-0.9,0.3-1.9,0.4-2.9,0.4
		c-1.9,0-3.6-0.3-4.9-1c-1.3-0.7-2.4-1.6-3.2-2.7c-0.8-1.1-1.4-2.4-1.8-3.8c-0.4-1.4-0.6-2.9-0.6-4.3V67.5h9.6v15.7
		c0,0.8,0.1,1.6,0.2,2.3c0.1,0.7,0.3,1.4,0.7,2c0.3,0.6,0.8,1,1.3,1.4c0.5,0.3,1.3,0.5,2.1,0.5c1.7,0,2.9-0.6,3.8-1.9
		s1.3-2.7,1.3-4.4V67.5h9.5v28.9H176z"/>
	<path d="M211.4,75.3c-0.4-0.1-0.8-0.2-1.2-0.2c-0.4,0-0.8-0.1-1.2-0.1c-1.3,0-2.3,0.2-3.2,0.7s-1.6,1-2.1,1.7
		c-0.5,0.7-0.9,1.4-1.1,2.1c-0.2,0.8-0.3,1.4-0.3,2v14.8h-9.5V67.5h9.2v4.2h0.1c0.7-1.5,1.8-2.7,3.1-3.6c1.4-0.9,2.9-1.4,4.7-1.4
		c0.4,0,0.8,0,1.1,0.1c0.4,0,0.7,0.1,0.9,0.2L211.4,75.3z"/>
	<path d="M234.6,96.4V80.6c0-0.8-0.1-1.6-0.2-2.3c-0.1-0.7-0.4-1.4-0.7-1.9c-0.3-0.6-0.7-1-1.3-1.3c-0.6-0.3-1.3-0.5-2.1-0.5
		c-0.9,0-1.6,0.2-2.2,0.5c-0.6,0.3-1.2,0.8-1.6,1.4c-0.4,0.6-0.7,1.2-1,2c-0.2,0.8-0.3,1.5-0.3,2.3v15.7h-9.6V67.5h9.2v4h0.1
		c0.3-0.6,0.8-1.2,1.4-1.8c0.6-0.6,1.2-1.1,2-1.5c0.8-0.4,1.6-0.8,2.5-1c0.9-0.3,1.8-0.4,2.8-0.4c1.9,0,3.6,0.3,4.9,1
		c1.4,0.7,2.4,1.6,3.3,2.7c0.8,1.1,1.4,2.4,1.8,3.8c0.4,1.4,0.6,2.9,0.6,4.3v17.9H234.6z"/>
	<path d="M261.6,58.3c0,0.7-0.1,1.4-0.4,2.1s-0.7,1.2-1.2,1.7c-0.5,0.5-1.1,0.8-1.7,1.1c-0.7,0.3-1.4,0.4-2.1,0.4
		c-1.5,0-2.8-0.5-3.9-1.5c-1-1-1.6-2.3-1.6-3.7c0-0.7,0.1-1.4,0.4-2c0.3-0.6,0.7-1.2,1.2-1.7c0.5-0.5,1.1-0.8,1.7-1.1
		c0.7-0.3,1.4-0.4,2.1-0.4c0.7,0,1.4,0.1,2.1,0.4c0.7,0.3,1.3,0.6,1.7,1.1c0.5,0.5,0.9,1,1.2,1.7S261.6,57.5,261.6,58.3z
		 M251.4,96.4V67.5h9.5v28.9H251.4z"/>
	<path d="M278.8,74.6v11.1c0,1.4,0.3,2.4,0.8,3.1s1.5,1,2.8,1c0.5,0,1,0,1.5-0.1c0.5-0.1,1-0.2,1.3-0.3l0.1,7
		c-0.7,0.2-1.5,0.4-2.5,0.6c-1,0.2-2,0.3-3,0.3c-1.9,0-3.6-0.2-4.9-0.7c-1.3-0.5-2.4-1.2-3.2-2.1c-0.8-0.9-1.4-2-1.7-3.3
		c-0.3-1.3-0.5-2.7-0.5-4.2V74.6h-4.6v-7.1h4.6v-7.6h9.3v7.6h6.8v7.1H278.8z"/>
	<path d="M309.1,96.4v-4H309c-0.3,0.7-0.8,1.3-1.4,1.9c-0.6,0.6-1.2,1.1-2,1.5c-0.8,0.4-1.6,0.8-2.5,1c-0.9,0.3-1.9,0.4-2.9,0.4
		c-1.9,0-3.6-0.3-4.9-1c-1.3-0.7-2.4-1.6-3.2-2.7c-0.8-1.1-1.4-2.4-1.8-3.8c-0.4-1.4-0.6-2.9-0.6-4.3V67.5h9.6v15.7
		c0,0.8,0.1,1.6,0.2,2.3c0.1,0.7,0.3,1.4,0.7,2c0.3,0.6,0.8,1,1.3,1.4c0.5,0.3,1.3,0.5,2.1,0.5c1.7,0,2.9-0.6,3.8-1.9
		s1.3-2.7,1.3-4.4V67.5h9.5v28.9H309.1z"/>
	<path d="M344.4,75.3c-0.4-0.1-0.8-0.2-1.2-0.2c-0.4,0-0.8-0.1-1.2-0.1c-1.3,0-2.3,0.2-3.2,0.7s-1.6,1-2.1,1.7
		c-0.5,0.7-0.9,1.4-1.1,2.1c-0.2,0.8-0.3,1.4-0.3,2v14.8h-9.5V67.5h9.2v4.2h0.1c0.7-1.5,1.8-2.7,3.1-3.6c1.4-0.9,2.9-1.4,4.7-1.4
		c0.4,0,0.8,0,1.1,0.1c0.4,0,0.7,0.1,0.9,0.2L344.4,75.3z"/>
	<path d="M376.2,82.3c0,0.4,0,0.8,0,1.2s0,0.8-0.1,1.1h-20.9c0.1,0.8,0.3,1.5,0.7,2.2c0.4,0.7,0.9,1.2,1.6,1.7
		c0.6,0.5,1.4,0.9,2.1,1.1c0.8,0.3,1.6,0.4,2.5,0.4c1.5,0,2.8-0.3,3.8-0.8s1.9-1.3,2.6-2.2l6.6,4.2c-1.4,2-3.1,3.5-5.4,4.6
		c-2.2,1.1-4.8,1.6-7.7,1.6c-2.2,0-4.2-0.3-6.1-1c-1.9-0.7-3.6-1.7-5.1-3c-1.5-1.3-2.6-2.9-3.4-4.8c-0.8-1.9-1.2-4.1-1.2-6.5
		c0-2.4,0.4-4.5,1.2-6.4s1.9-3.5,3.3-4.9s3-2.4,4.9-3.1c1.9-0.7,3.9-1.1,6.1-1.1c2.1,0,4.1,0.4,5.9,1.1c1.8,0.7,3.3,1.8,4.6,3.1
		c1.3,1.4,2.3,3,3,4.9C375.9,77.6,376.2,79.8,376.2,82.3z M367.5,78.6c0-1.5-0.5-2.8-1.4-3.9c-0.9-1.1-2.4-1.6-4.3-1.6
		c-0.9,0-1.8,0.1-2.6,0.4c-0.8,0.3-1.5,0.7-2,1.2c-0.6,0.5-1,1.1-1.4,1.8c-0.3,0.7-0.5,1.4-0.6,2.1H367.5z"/>
</g>
</svg>
