<?xml version="1.0" encoding="utf-8"?>
<!-- Generator: Adobe Illustrator 25.0.1, SVG Export Plug-In . SVG Version: 6.00 Build 0)  -->
<svg version="1.1"
	 id="svg20" xmlns:cc="http://creativecommons.org/ns#" xmlns:dc="http://purl.org/dc/elements/1.1/" xmlns:rdf="http://www.w3.org/1999/02/22-rdf-syntax-ns#" xmlns:svg="http://www.w3.org/2000/svg"
	 xmlns="http://www.w3.org/2000/svg" xmlns:xlink="http://www.w3.org/1999/xlink" x="0px" y="0px" viewBox="0 0 890 160"
	 style="enable-background:new 0 0 890 160;" xml:space="preserve">
<style type="text/css">
	.st0{enable-background:new    ;}
</style>
<g class="st0">
	<path d="M13.9,60.6c0,0.7-0.1,1.4-0.4,2.1s-0.7,1.2-1.2,1.7c-0.5,0.5-1.1,0.8-1.7,1.1c-0.7,0.3-1.4,0.4-2.1,0.4
		c-1.5,0-2.8-0.5-3.9-1.5c-1-1-1.6-2.3-1.6-3.7c0-0.7,0.1-1.4,0.4-2c0.3-0.6,0.7-1.2,1.2-1.7c0.5-0.5,1.1-0.8,1.7-1.1
		c0.7-0.3,1.4-0.4,2.1-0.4c0.7,0,1.4,0.1,2.1,0.4c0.7,0.3,1.3,0.6,1.7,1.1c0.5,0.5,0.9,1,1.2,1.7S13.9,59.8,13.9,60.6z M3.7,98.7
		V69.8h9.5v28.9H3.7z"/>
	<path d="M51.8,98.7H40l-9.5-13.9h-0.2v13.9h-9.6V54.8h9.6v26.7h0.2l9.2-11.7h11.5l-11.1,13L51.8,98.7z"/>
	<path d="M82.9,84.6c0,0.4,0,0.8,0,1.2s0,0.8-0.1,1.1H61.9c0.1,0.8,0.3,1.5,0.7,2.2c0.4,0.7,0.9,1.2,1.6,1.7
		c0.6,0.5,1.4,0.9,2.1,1.1c0.8,0.3,1.6,0.4,2.5,0.4c1.5,0,2.8-0.3,3.8-0.8s1.9-1.3,2.6-2.2l6.6,4.2c-1.4,2-3.1,3.5-5.4,4.6
		c-2.2,1.1-4.8,1.6-7.7,1.6c-2.2,0-4.2-0.3-6.1-1c-1.9-0.7-3.6-1.7-5.1-3c-1.5-1.3-2.6-2.9-3.4-4.8c-0.8-1.9-1.2-4.1-1.2-6.5
		c0-2.4,0.4-4.5,1.2-6.4s1.9-3.5,3.3-4.9s3-2.4,4.9-3.1c1.9-0.7,3.9-1.1,6.1-1.1c2.1,0,4.1,0.4,5.9,1.1c1.8,0.7,3.3,1.8,4.6,3.1
		c1.3,1.4,2.3,3,3,4.9C82.5,79.9,82.9,82.1,82.9,84.6z M74.1,80.9c0-1.5-0.5-2.8-1.4-3.9c-0.9-1.1-2.4-1.6-4.3-1.6
		c-0.9,0-1.8,0.1-2.6,0.4c-0.8,0.3-1.5,0.7-2,1.2c-0.6,0.5-1,1.1-1.4,1.8c-0.3,0.7-0.5,1.4-0.6,2.1H74.1z"/>
	<path d="M88,73.7c1.7-1.6,3.7-2.8,5.9-3.7c2.3-0.8,4.6-1.2,6.9-1.2c2.4,0,4.5,0.3,6.2,0.9c1.7,0.6,3,1.5,4.1,2.8
		c1,1.3,1.8,2.8,2.3,4.8c0.5,1.9,0.7,4.2,0.7,6.8v14.6h-8.7v-3.1h-0.2c-0.7,1.2-1.8,2.1-3.3,2.8c-1.5,0.7-3.1,1-4.8,1
		c-1.2,0-2.4-0.2-3.6-0.5c-1.2-0.3-2.4-0.8-3.4-1.5c-1-0.7-1.9-1.6-2.5-2.8c-0.7-1.2-1-2.6-1-4.3c0-2.1,0.6-3.8,1.7-5
		c1.1-1.3,2.6-2.3,4.4-3c1.8-0.7,3.8-1.2,6-1.4s4.4-0.3,6.4-0.3v-0.5c0-1.4-0.5-2.5-1.5-3.2c-1-0.7-2.2-1-3.7-1
		c-1.4,0-2.7,0.3-3.9,0.9c-1.3,0.6-2.3,1.3-3.2,2.1L88,73.7z M105.5,86.1h-1.2c-1,0-2.1,0-3.2,0.1c-1.1,0.1-2,0.3-2.8,0.6
		c-0.8,0.3-1.5,0.7-2.1,1.2c-0.5,0.5-0.8,1.2-0.8,2.1c0,0.5,0.1,1,0.4,1.4c0.3,0.4,0.6,0.7,1,0.9c0.4,0.2,0.8,0.4,1.3,0.5
		c0.5,0.1,1,0.1,1.5,0.1c1.9,0,3.4-0.5,4.4-1.6c1-1.1,1.5-2.5,1.5-4.3V86.1z"/>
	<path d="M153.7,61.8c-0.3-0.1-0.8-0.2-1.2-0.3c-0.5-0.1-0.9-0.1-1.4-0.1c-0.9,0-1.6,0.2-2.1,0.5c-0.5,0.3-1,0.7-1.3,1.2
		c-0.3,0.5-0.5,1.1-0.6,1.8c-0.1,0.7-0.2,1.3-0.2,2v2.9h6.4v7.1h-6.4v21.8h-9.5V76.9H132v-7.1h5.3V67c0-1.8,0.2-3.5,0.6-5.1
		c0.4-1.6,1.1-3,2-4.2c0.9-1.2,2.2-2.2,3.8-2.9c1.6-0.7,3.6-1.1,6-1.1c0.8,0,1.6,0,2.4,0.1c0.8,0.1,1.5,0.2,2.2,0.4L153.7,61.8z"/>
	<path d="M175.9,98.7v-4h-0.1c-0.3,0.7-0.8,1.3-1.4,1.9c-0.6,0.6-1.2,1.1-2,1.5c-0.8,0.4-1.6,0.8-2.5,1c-0.9,0.3-1.9,0.4-2.9,0.4
		c-1.9,0-3.6-0.3-4.9-1c-1.3-0.7-2.4-1.6-3.2-2.7c-0.8-1.1-1.4-2.4-1.8-3.8c-0.4-1.4-0.6-2.9-0.6-4.3V69.8h9.6v15.7
		c0,0.8,0.1,1.6,0.2,2.3c0.1,0.7,0.3,1.4,0.7,2c0.3,0.6,0.8,1,1.3,1.4c0.5,0.3,1.3,0.5,2.1,0.5c1.7,0,2.9-0.6,3.8-1.9
		s1.3-2.7,1.3-4.4V69.8h9.5v28.9H175.9z"/>
	<path d="M211.2,77.6c-0.4-0.1-0.8-0.2-1.2-0.2c-0.4,0-0.8-0.1-1.2-0.1c-1.3,0-2.3,0.2-3.2,0.7s-1.6,1-2.1,1.7
		c-0.5,0.7-0.9,1.4-1.1,2.1c-0.2,0.8-0.3,1.4-0.3,2v14.8h-9.5V69.8h9.2V74h0.1c0.7-1.5,1.8-2.7,3.1-3.6c1.4-0.9,2.9-1.4,4.7-1.4
		c0.4,0,0.8,0,1.1,0.1c0.4,0,0.7,0.1,0.9,0.2L211.2,77.6z"/>
	<path d="M234.4,98.7V82.9c0-0.8-0.1-1.6-0.2-2.3c-0.1-0.7-0.4-1.4-0.7-1.9c-0.3-0.6-0.7-1-1.3-1.3c-0.6-0.3-1.3-0.5-2.1-0.5
		c-0.9,0-1.6,0.2-2.2,0.5c-0.6,0.3-1.2,0.8-1.6,1.4c-0.4,0.6-0.7,1.2-1,2c-0.2,0.8-0.3,1.5-0.3,2.3v15.7h-9.6V69.8h9.2v4h0.1
		c0.3-0.6,0.8-1.2,1.4-1.8c0.6-0.6,1.2-1.1,2-1.5c0.8-0.4,1.6-0.8,2.5-1c0.9-0.3,1.8-0.4,2.8-0.4c1.9,0,3.6,0.3,4.9,1
		c1.4,0.7,2.4,1.6,3.3,2.7c0.8,1.1,1.4,2.4,1.8,3.8c0.4,1.4,0.6,2.9,0.6,4.3v17.9H234.4z"/>
	<path d="M261.5,60.6c0,0.7-0.1,1.4-0.4,2.1s-0.7,1.2-1.2,1.7c-0.5,0.5-1.1,0.8-1.7,1.1c-0.7,0.3-1.4,0.4-2.1,0.4
		c-1.5,0-2.8-0.5-3.9-1.5c-1-1-1.6-2.3-1.6-3.7c0-0.7,0.1-1.4,0.4-2c0.3-0.6,0.7-1.2,1.2-1.7c0.5-0.5,1.1-0.8,1.7-1.1
		c0.7-0.3,1.4-0.4,2.1-0.4c0.7,0,1.4,0.1,2.1,0.4c0.7,0.3,1.3,0.6,1.7,1.1c0.5,0.5,0.9,1,1.2,1.7S261.5,59.8,261.5,60.6z
		 M251.3,98.7V69.8h9.5v28.9H251.3z"/>
	<path d="M278.7,76.9v11.1c0,1.4,0.3,2.4,0.8,3.1s1.5,1,2.8,1c0.5,0,1,0,1.5-0.1c0.5-0.1,1-0.2,1.3-0.3l0.1,7
		c-0.7,0.2-1.5,0.4-2.5,0.6c-1,0.2-2,0.3-3,0.3c-1.9,0-3.6-0.2-4.9-0.7c-1.3-0.5-2.4-1.2-3.2-2.1c-0.8-0.9-1.4-2-1.7-3.3
		c-0.3-1.3-0.5-2.7-0.5-4.2V76.9h-4.6v-7.1h4.6v-7.6h9.3v7.6h6.8v7.1H278.7z"/>
	<path d="M308.9,98.7v-4h-0.1c-0.3,0.7-0.8,1.3-1.4,1.9c-0.6,0.6-1.2,1.1-2,1.5c-0.8,0.4-1.6,0.8-2.5,1c-0.9,0.3-1.9,0.4-2.9,0.4
		c-1.9,0-3.6-0.3-4.9-1c-1.3-0.7-2.4-1.6-3.2-2.7c-0.8-1.1-1.4-2.4-1.8-3.8c-0.4-1.4-0.6-2.9-0.6-4.3V69.8h9.6v15.7
		c0,0.8,0.1,1.6,0.2,2.3c0.1,0.7,0.3,1.4,0.7,2c0.3,0.6,0.8,1,1.3,1.4c0.5,0.3,1.3,0.5,2.1,0.5c1.7,0,2.9-0.6,3.8-1.9
		s1.3-2.7,1.3-4.4V69.8h9.5v28.9H308.9z"/>
	<path d="M344.3,77.6c-0.4-0.1-0.8-0.2-1.2-0.2c-0.4,0-0.8-0.1-1.2-0.1c-1.3,0-2.3,0.2-3.2,0.7s-1.6,1-2.1,1.7
		c-0.5,0.7-0.9,1.4-1.1,2.1c-0.2,0.8-0.3,1.4-0.3,2v14.8h-9.5V69.8h9.2V74h0.1c0.7-1.5,1.8-2.7,3.1-3.6c1.4-0.9,2.9-1.4,4.7-1.4
		c0.4,0,0.8,0,1.1,0.1c0.4,0,0.7,0.1,0.9,0.2L344.3,77.6z"/>
	<path d="M376.1,84.6c0,0.4,0,0.8,0,1.2s0,0.8-0.1,1.1h-20.9c0.1,0.8,0.3,1.5,0.7,2.2c0.4,0.7,0.9,1.2,1.6,1.7
		c0.6,0.5,1.4,0.9,2.1,1.1c0.8,0.3,1.6,0.4,2.5,0.4c1.5,0,2.8-0.3,3.8-0.8s1.9-1.3,2.6-2.2l6.6,4.2c-1.4,2-3.1,3.5-5.4,4.6
		c-2.2,1.1-4.8,1.6-7.7,1.6c-2.2,0-4.2-0.3-6.1-1c-1.9-0.7-3.6-1.7-5.1-3c-1.5-1.3-2.6-2.9-3.4-4.8c-0.8-1.9-1.2-4.1-1.2-6.5
		c0-2.4,0.4-4.5,1.2-6.4s1.9-3.5,3.3-4.9s3-2.4,4.9-3.1c1.9-0.7,3.9-1.1,6.1-1.1c2.1,0,4.1,0.4,5.9,1.1c1.8,0.7,3.3,1.8,4.6,3.1
		c1.3,1.4,2.3,3,3,4.9C375.8,79.9,376.1,82.1,376.1,84.6z M367.4,80.9c0-1.5-0.5-2.8-1.4-3.9c-0.9-1.1-2.4-1.6-4.3-1.6
		c-0.9,0-1.8,0.1-2.6,0.4c-0.8,0.3-1.5,0.7-2,1.2c-0.6,0.5-1,1.1-1.4,1.8c-0.3,0.7-0.5,1.4-0.6,2.1H367.4z"/>
</g>
</svg>
