<?xml version="1.0" encoding="utf-8"?>
<!-- Generator: Adobe Illustrator 24.3.0, SVG Export Plug-In . SVG Version: 6.00 Build 0)  -->
<svg version="1.1"
	 id="svg20" xmlns:cc="http://creativecommons.org/ns#" xmlns:dc="http://purl.org/dc/elements/1.1/" xmlns:rdf="http://www.w3.org/1999/02/22-rdf-syntax-ns#" xmlns:svg="http://www.w3.org/2000/svg"
	 xmlns="http://www.w3.org/2000/svg" xmlns:xlink="http://www.w3.org/1999/xlink" x="0px" y="0px" viewBox="0 0 888.5 155.4"
	 style="enable-background:new 0 0 888.5 155.4;" xml:space="preserve">
<path id="Path_425" d="M132.3,97.7V56.6h10v41.1H132.3z M187.4,97.7l-15.3-18.9h-0.1v18.9h-9.7V56.6h9.7v16.7h0.2l14.7-16.7h12.4
	l-17.7,18.9l18.7,22.2H187.4z M215.1,97.7V56.6h27.6V65h-18v7.7h17.1v7.9h-17.1v8.5h19.1v8.5H215.1z M289.8,97.7l-3.2-8.1h-15.9
	l-3,8.1h-10.8l17.2-41.1h9.6l17.1,41.1H289.8z M278.8,67.6l-5.2,14.1h10.3L278.8,67.6z M350.7,65.1v8.5h15.9v8.2h-15.9v15.9h-9.8
	V56.6h27v8.5L350.7,65.1z M420.7,82.2c0,2.3-0.4,4.6-1.2,6.8c-0.8,2-2,3.8-3.6,5.2c-1.6,1.5-3.5,2.6-5.6,3.4
	c-2.3,0.8-4.8,1.2-7.3,1.2c-2.5,0-5-0.4-7.3-1.2c-2.1-0.7-3.9-1.9-5.5-3.4c-1.5-1.5-2.7-3.3-3.5-5.2c-0.8-2.2-1.2-4.4-1.2-6.8V56.6
	h9.9v24.8c0,1.1,0.1,2.2,0.4,3.2c0.3,1,0.7,1.9,1.3,2.7c0.6,0.8,1.4,1.5,2.4,1.9c1.1,0.5,2.3,0.7,3.6,0.7c1.2,0,2.4-0.2,3.6-0.7
	c0.9-0.4,1.8-1.1,2.4-1.9c0.6-0.8,1.1-1.7,1.3-2.7c0.3-1,0.4-2.1,0.4-3.2V56.6h9.9L420.7,82.2z M462.3,97.7l-8.9-16.3H450v16.3h-9.7
	V56.6H456c1.9,0,3.9,0.2,5.8,0.6c1.8,0.4,3.5,1.1,5,2.1c1.5,1,2.7,2.3,3.6,3.8c0.9,1.8,1.4,3.9,1.3,5.9c0.1,2.5-0.7,5-2.3,7
	c-1.6,2-3.8,3.4-6.3,4.1l10.7,17.6H462.3z M461.9,69.2c0-0.8-0.2-1.6-0.6-2.3c-0.4-0.6-0.9-1.1-1.6-1.4c-0.7-0.3-1.4-0.6-2.1-0.7
	c-0.8-0.1-1.5-0.2-2.3-0.2H450v9.6h4.7c0.8,0,1.7-0.1,2.5-0.2c0.8-0.1,1.6-0.4,2.3-0.7c0.7-0.3,1.3-0.9,1.7-1.5
	C461.7,71,461.9,70.1,461.9,69.2z M516.5,97.7l-16.5-26.9h-0.2l0.2,26.9h-9.6V56.6h11.3l16.5,26.8h0.2l-0.2-26.8h9.6v41.1H516.5z
	 M547.8,97.7V56.6h10v41.1H547.8z M595.4,65.1v32.6h-9.9V65.1h-11.6v-8.5H607v8.5H595.4z M657.9,82.2c0,2.3-0.4,4.6-1.2,6.8
	c-0.8,2-2,3.8-3.6,5.2c-1.6,1.5-3.5,2.6-5.6,3.4c-2.3,0.8-4.8,1.3-7.3,1.2c-2.5,0-5-0.4-7.3-1.2c-2.1-0.7-3.9-1.9-5.5-3.4
	c-1.5-1.5-2.7-3.3-3.5-5.2c-0.8-2.2-1.2-4.4-1.2-6.8V56.6h9.9v24.8c0,1.1,0.1,2.2,0.4,3.2c0.3,1,0.7,1.9,1.3,2.7
	c0.6,0.8,1.4,1.5,2.4,1.9c1.1,0.5,2.3,0.7,3.6,0.7c1.2,0,2.4-0.2,3.6-0.7c0.9-0.4,1.8-1.1,2.4-1.9c0.6-0.8,1.1-1.7,1.3-2.7
	c0.3-1,0.4-2.1,0.4-3.2V56.6h9.9V82.2z M699.5,97.7l-8.9-16.3h-3.4v16.3h-9.7V56.6h15.7c1.9,0,3.9,0.2,5.8,0.6
	c1.8,0.4,3.5,1.1,5,2.1c1.5,1,2.7,2.3,3.6,3.8c0.9,1.8,1.4,3.9,1.3,5.9c0.1,2.5-0.7,5-2.3,7c-1.6,2-3.8,3.4-6.3,4.1l10.7,17.6H699.5
	z M699.1,69.2c0-0.8-0.2-1.6-0.6-2.3c-0.4-0.6-0.9-1.1-1.6-1.4c-0.7-0.3-1.4-0.6-2.1-0.7c-0.8-0.1-1.5-0.2-2.3-0.2h-5.3v9.6h4.7
	c0.8,0,1.7-0.1,2.5-0.2c0.8-0.1,1.6-0.4,2.3-0.7c0.7-0.3,1.3-0.9,1.7-1.5C698.9,71,699.1,70.1,699.1,69.2z M727.6,97.7V56.6h27.6V65
	h-18v7.7h17.1v7.9h-17.1v8.5h19.1v8.5H727.6z"/>
</svg>
