<?xml version="1.0" encoding="utf-8"?>
<!-- Generator: Adobe Illustrator 24.2.1, SVG Export Plug-In . SVG Version: 6.00 Build 0)  -->
<svg version="1.1"
	 id="svg92" xmlns:cc="http://creativecommons.org/ns#" xmlns:dc="http://purl.org/dc/elements/1.1/" xmlns:rdf="http://www.w3.org/1999/02/22-rdf-syntax-ns#" xmlns:svg="http://www.w3.org/2000/svg"
	 xmlns="http://www.w3.org/2000/svg" xmlns:xlink="http://www.w3.org/1999/xlink" x="0px" y="0px" viewBox="0 0 792.1 138.8"
	 style="enable-background:new 0 0 792.1 138.8;" xml:space="preserve">
<path id="Path_379" d="M26.1,91.2L9.6,64.3H9.4l0.2,26.9H0V50.1h11.3l16.5,26.8H28l-0.2-26.8h9.6v41.1H26.1z M57.4,91.2V50.1H85v8.4
	H67v7.7H84v7.9H67v8.5h19.1v8.5H57.4z M121.8,58.6v32.6h-9.9V58.6h-11.6v-8.5h33.1v8.5H121.8z M175.5,91.2V74h-16v17.2h-9.9V50.1
	h9.9v15.5h16V50.1h9.9v41.1H175.5z M205.4,91.2V50.1H233v8.4h-18v7.7h17.1v7.9H215v8.5h19.1v8.5H205.4z M274.2,91.2l-8.9-16.3H262
	v16.3h-9.7V50.1h15.7c2,0,3.9,0.2,5.8,0.6s3.6,1.1,5,2.1s2.7,2.2,3.6,3.8c0.9,1.6,1.3,3.6,1.3,5.9c0,2.8-0.8,5.1-2.3,7
	s-3.6,3.2-6.3,4.1l10.7,17.6H274.2z M273.8,62.7c0-1-0.2-1.7-0.6-2.3c-0.4-0.6-0.9-1.1-1.6-1.4c-0.6-0.3-1.4-0.6-2.1-0.7
	c-0.8-0.1-1.6-0.2-2.3-0.2h-5.3v9.6h4.7c0.8,0,1.6-0.1,2.5-0.2c0.9-0.1,1.6-0.4,2.3-0.7c0.7-0.3,1.3-0.9,1.7-1.5
	S273.8,63.7,273.8,62.7z M350.4,91.2l-8.9-16.3h-3.4v16.3h-9.7V50.1h15.7c2,0,3.9,0.2,5.8,0.6s3.6,1.1,5,2.1s2.7,2.2,3.6,3.8
	c0.9,1.6,1.3,3.6,1.3,5.9c0,2.8-0.8,5.1-2.3,7s-3.6,3.2-6.3,4.1L362,91.2H350.4z M350,62.7c0-1-0.2-1.7-0.6-2.3
	c-0.4-0.6-0.9-1.1-1.6-1.4c-0.6-0.3-1.4-0.6-2.1-0.7c-0.8-0.1-1.6-0.2-2.3-0.2h-5.3v9.6h4.7c0.8,0,1.6-0.1,2.5-0.2
	c0.9-0.1,1.6-0.4,2.3-0.7c0.7-0.3,1.3-0.9,1.7-1.5S350,63.7,350,62.7z M421.3,70.5c0,3.2-0.6,6.2-1.7,8.9c-1.1,2.7-2.7,5-4.7,6.9
	s-4.4,3.4-7.1,4.4s-5.7,1.6-8.9,1.6s-6.2-0.5-8.9-1.6c-2.7-1-5.1-2.5-7.1-4.4s-3.5-4.2-4.7-6.9c-1.1-2.7-1.7-5.7-1.7-8.9
	c0-3.3,0.6-6.3,1.7-8.9c1.1-2.6,2.7-4.9,4.7-6.8c2-1.9,4.4-3.3,7.1-4.3c2.7-1,5.7-1.5,8.9-1.5s6.2,0.5,8.9,1.5
	c2.7,1,5.1,2.4,7.1,4.3c2,1.9,3.5,4.1,4.7,6.8C420.7,64.2,421.3,67.2,421.3,70.5z M410.6,70.5c0-1.8-0.3-3.4-0.9-5
	c-0.6-1.5-1.4-2.9-2.4-4c-1-1.1-2.3-2-3.7-2.6s-3-1-4.8-1c-1.7,0-3.3,0.3-4.8,1c-1.4,0.6-2.7,1.5-3.7,2.6c-1,1.1-1.8,2.4-2.4,4
	c-0.6,1.5-0.8,3.2-0.8,5c0,1.9,0.3,3.6,0.9,5.1c0.6,1.6,1.4,2.9,2.4,4c1,1.1,2.3,2,3.7,2.6c1.4,0.6,3,1,4.8,1c1.7,0,3.3-0.3,4.8-1
	s2.7-1.5,3.7-2.6c1-1.1,1.9-2.5,2.4-4C410.4,74,410.6,72.3,410.6,70.5z M466.2,91.2l-3.2-8.1h-15.9l-3,8.1h-10.8l17.2-41.1h9.6
	l17.1,41.1H466.2z M455.2,61.1L450,75.2h10.3L455.2,61.1z M530.6,70.5c0,3.6-0.7,6.7-2,9.3c-1.3,2.6-3.1,4.8-5.3,6.4
	s-4.6,2.9-7.4,3.7c-2.7,0.8-5.5,1.2-8.4,1.2h-15.3V50.1h14.8c2.9,0,5.8,0.3,8.6,1s5.3,1.8,7.5,3.4c2.2,1.6,4,3.7,5.3,6.3
	S530.6,66.7,530.6,70.5z M520.3,70.5c0-2.3-0.4-4.2-1.1-5.8c-0.8-1.5-1.8-2.7-3-3.7s-2.7-1.6-4.3-1.9c-1.6-0.4-3.3-0.6-5-0.6h-4.9
	v24h4.7c1.8,0,3.5-0.2,5.1-0.6c1.6-0.4,3.1-1.1,4.3-2s2.3-2.2,3-3.7C519.9,74.7,520.3,72.8,520.3,70.5z M570.4,60.8
	c-0.9-1.1-2-1.9-3.3-2.6s-2.7-1-4-1c-0.7,0-1.3,0.1-2,0.2s-1.3,0.3-1.8,0.7c-0.5,0.3-1,0.8-1.4,1.3s-0.6,1.2-0.6,2
	c0,0.7,0.1,1.3,0.4,1.7s0.7,0.9,1.3,1.2s1.2,0.7,2,1c0.8,0.3,1.6,0.6,2.6,0.9c1.4,0.5,2.8,1,4.3,1.5c1.5,0.6,2.9,1.3,4.1,2.2
	c1.2,0.9,2.3,2.1,3.1,3.5s1.2,3.1,1.2,5.1c0,2.4-0.4,4.4-1.3,6.1s-2,3.1-3.5,4.3c-1.5,1.1-3.2,2-5,2.5c-1.9,0.5-3.8,0.8-5.9,0.8
	c-2.9,0-5.8-0.5-8.5-1.5s-5-2.5-6.8-4.4l6.5-6.6c1,1.2,2.3,2.3,4,3.1c1.6,0.8,3.3,1.2,4.9,1.2c0.7,0,1.5-0.1,2.1-0.2
	c0.7-0.2,1.3-0.4,1.8-0.8c0.5-0.3,0.9-0.8,1.2-1.4c0.3-0.6,0.5-1.3,0.5-2.1c0-0.8-0.2-1.4-0.6-2c-0.4-0.5-0.9-1-1.7-1.5
	s-1.6-0.9-2.7-1.2c-1.1-0.4-2.3-0.8-3.6-1.2c-1.3-0.4-2.6-0.9-3.9-1.5s-2.4-1.3-3.4-2.2c-1-0.9-1.8-2-2.4-3.3s-0.9-2.9-0.9-4.7
	c0-2.3,0.5-4.2,1.4-5.9c0.9-1.6,2.1-3,3.7-4c1.5-1,3.2-1.8,5.1-2.3c1.9-0.5,3.8-0.7,5.7-0.7c2.3,0,4.7,0.4,7.1,1.3s4.5,2.1,6.4,3.8
	L570.4,60.8z M611.4,58.6v32.6h-9.9V58.6h-11.6v-8.5H623v8.5H611.4z M639.2,91.2V50.1h27.6v8.4h-18v7.7h17.1v7.9h-17.1v8.5h19.1v8.5
	H639.2z M707.9,91.2l-8.9-16.3h-3.4v16.3H686V50.1h15.7c2,0,3.9,0.2,5.8,0.6c1.9,0.4,3.6,1.1,5,2.1c1.5,1,2.7,2.2,3.6,3.8
	s1.3,3.6,1.3,5.9c0,2.8-0.8,5.1-2.3,7s-3.6,3.2-6.3,4.1l10.7,17.6H707.9z M707.5,62.7c0-1-0.2-1.7-0.6-2.3c-0.4-0.6-0.9-1.1-1.6-1.4
	c-0.6-0.3-1.4-0.6-2.1-0.7c-0.8-0.1-1.6-0.2-2.3-0.2h-5.3v9.6h4.7c0.8,0,1.6-0.1,2.5-0.2c0.9-0.1,1.6-0.4,2.3-0.7
	c0.7-0.3,1.3-0.9,1.7-1.5S707.5,63.7,707.5,62.7z"/>
</svg>
