<?xml version="1.0" encoding="UTF-8" standalone="no"?>
<svg
   xmlns:dc="http://purl.org/dc/elements/1.1/"
   xmlns:cc="http://creativecommons.org/ns#"
   xmlns:rdf="http://www.w3.org/1999/02/22-rdf-syntax-ns#"
   xmlns:svg="http://www.w3.org/2000/svg"
   xmlns="http://www.w3.org/2000/svg"
   id="svg92"
   version="1.1"
   viewBox="4.234 -42.166 719.548 43.268"
   class="Path_379">
  <metadata
     id="metadata98">
    <rdf:RDF>
      <cc:Work
         rdf:about="">
        <dc:format>image/svg+xml</dc:format>
        <dc:type
           rdf:resource="http://purl.org/dc/dcmitype/StillImage" />
        <dc:title></dc:title>
      </cc:Work>
    </rdf:RDF>
  </metadata>
  <defs
     id="defs96" />
  <path
     d="M 30.33399963378906 0 L 13.80399990081787 -26.85400009155273 L 13.63000011444092 -26.85400009155273 L 13.86199951171875 0 L 4.233999729156494 0 L 4.233999729156494 -41.06399917602539 L 15.54400062561035 -41.06399917602539 L 32.01599884033203 -14.26800060272217 L 32.18999862670898 -14.26800060272217 L 31.95800018310547 -41.06399917602539 L 41.58599853515625 -41.06399917602539 L 41.58599853515625 0 L 30.33399963378906 0 Z M 61.65400314331055 0 L 61.65400314331055 -41.06399917602539 L 89.26200103759766 -41.06399917602539 L 89.26200103759766 -32.65400314331055 L 71.2239990234375 -32.65400314331055 L 71.2239990234375 -24.94000053405762 L 88.2760009765625 -24.94000053405762 L 88.2760009765625 -16.9940013885498 L 71.2239990234375 -16.9940013885498 L 71.2239990234375 -8.467999458312988 L 90.30599975585938 -8.467999458312988 L 90.30599975585938 0 L 61.65400314331055 0 Z M 126.0339965820312 -32.59599685668945 L 126.0339965820312 0 L 116.1159973144531 0 L 116.1159973144531 -32.59599685668945 L 104.515998840332 -32.59599685668945 L 104.515998840332 -41.06399917602539 L 137.6340026855469 -41.06399917602539 L 137.6340026855469 -32.59599685668945 L 126.0339965820312 -32.59599685668945 Z M 179.6840057373047 0 L 179.6840057373047 -17.16799926757812 L 163.6759948730469 -17.16799926757812 L 163.6759948730469 0 L 153.7579956054688 0 L 153.7579956054688 -41.06399917602539 L 163.6759948730469 -41.06399917602539 L 163.6759948730469 -25.52000045776367 L 179.6840057373047 -25.52000045776367 L 179.6840057373047 -41.06399917602539 L 189.6020050048828 -41.06399917602539 L 189.6020050048828 0 L 179.6840057373047 0 Z M 209.6699981689453 0 L 209.6699981689453 -41.06399917602539 L 237.2779998779297 -41.06399917602539 L 237.2779998779297 -32.65400314331055 L 219.2400054931641 -32.65400314331055 L 219.2400054931641 -24.94000053405762 L 236.2920074462891 -24.94000053405762 L 236.2920074462891 -16.9940013885498 L 219.2400054931641 -16.9940013885498 L 219.2400054931641 -8.467999458312988 L 238.3220062255859 -8.467999458312988 L 238.3220062255859 0 L 209.6699981689453 0 Z M 278.4580078125 0 L 269.5840148925781 -16.29799842834473 L 266.2200012207031 -16.29799842834473 L 266.2200012207031 0 L 256.4760131835938 0 L 256.4760131835938 -41.06399917602539 L 272.1360168457031 -41.06399917602539 C 274.1080017089844 -41.06399917602539 276.0316772460938 -40.86100006103516 277.9070129394531 -40.45499801635742 C 279.7823486328125 -40.04899597167969 281.4643249511719 -39.36266326904297 282.9530029296875 -38.39599990844727 C 284.4416809082031 -37.42933654785156 285.6306762695312 -36.15333557128906 286.52001953125 -34.56800079345703 C 287.4093322753906 -32.982666015625 287.85400390625 -31.01066589355469 287.85400390625 -28.65199851989746 C 287.85400390625 -25.86800003051758 287.1000061035156 -23.52866554260254 285.5920104980469 -21.63399887084961 C 284.0840148925781 -19.73933219909668 281.9960021972656 -18.38599967956543 279.3280029296875 -17.57399940490723 L 290.0580139160156 0 L 278.4580078125 0 Z M 278.052001953125 -28.47800064086914 C 278.052001953125 -29.44466590881348 277.8489990234375 -30.22766494750977 277.4429931640625 -30.82699966430664 C 277.0370178222656 -31.42633247375488 276.5150146484375 -31.89033317565918 275.8770141601562 -32.21899795532227 C 275.239013671875 -32.54766845703125 274.523681640625 -32.77000045776367 273.7310180664062 -32.8859977722168 C 272.9383239746094 -33.00199890136719 272.1746520996094 -33.06000137329102 271.4400024414062 -33.06000137329102 L 266.1620178222656 -33.06000137329102 L 266.1620178222656 -23.48999977111816 L 270.8600158691406 -23.48999977111816 C 271.6719970703125 -23.48999977111816 272.5033264160156 -23.55766677856445 273.35400390625 -23.6929988861084 C 274.2046813964844 -23.82833290100098 274.9779968261719 -24.06999969482422 275.6740112304688 -24.41799926757812 C 276.3700256347656 -24.76600074768066 276.9403381347656 -25.26866722106934 277.385009765625 -25.92600059509277 C 277.8296813964844 -26.58333206176758 278.052001953125 -27.43400001525879 278.052001953125 -28.47800064086914 Z M 354.6119995117188 0 L 345.7380065917969 -16.29799842834473 L 342.3739929199219 -16.29799842834473 L 342.3739929199219 0 L 332.6300048828125 0 L 332.6300048828125 -41.06399917602539 L 348.2900085449219 -41.06399917602539 C 350.2619934082031 -41.06399917602539 352.1856689453125 -40.86100006103516 354.0610046386719 -40.45499801635742 C 355.9363403320312 -40.04899597167969 357.6183166503906 -39.36266326904297 359.1069946289062 -38.39599990844727 C 360.5956726074219 -37.42933654785156 361.78466796875 -36.15333557128906 362.6740112304688 -34.56800079345703 C 363.5633239746094 -32.982666015625 364.0079956054688 -31.01066589355469 364.0079956054688 -28.65199851989746 C 364.0079956054688 -25.86800003051758 363.2539978027344 -23.52866554260254 361.7460021972656 -21.63399887084961 C 360.2380065917969 -19.73933219909668 358.1499938964844 -18.38599967956543 355.4819946289062 -17.57399940490723 L 366.2120056152344 0 L 354.6119995117188 0 Z M 354.2059936523438 -28.47800064086914 C 354.2059936523438 -29.44466590881348 354.0029907226562 -30.22766494750977 353.5969848632812 -30.82699966430664 C 353.1910095214844 -31.42633247375488 352.6690063476562 -31.89033317565918 352.031005859375 -32.21899795532227 C 351.3930053710938 -32.54766845703125 350.6776733398438 -32.77000045776367 349.885009765625 -32.8859977722168 C 349.0923156738281 -33.00199890136719 348.3286437988281 -33.06000137329102 347.593994140625 -33.06000137329102 L 342.3160095214844 -33.06000137329102 L 342.3160095214844 -23.48999977111816 L 347.0140075683594 -23.48999977111816 C 347.8259887695312 -23.48999977111816 348.6573181152344 -23.55766677856445 349.5079956054688 -23.6929988861084 C 350.3586730957031 -23.82833290100098 351.1319885253906 -24.06999969482422 351.8280029296875 -24.41799926757812 C 352.5240173339844 -24.76600074768066 353.0943298339844 -25.26866722106934 353.5390014648438 -25.92600059509277 C 353.9836730957031 -26.58333206176758 354.2059936523438 -27.43400001525879 354.2059936523438 -28.47800064086914 Z M 425.4880065917969 -20.70599937438965 C 425.4880065917969 -17.45800018310547 424.9273376464844 -14.49033355712891 423.8059997558594 -11.80300045013428 C 422.6846923828125 -9.115667343139648 421.1283569335938 -6.815000534057617 419.1370239257812 -4.901000022888184 C 417.1456909179688 -2.986999988555908 414.77734375 -1.508000016212463 412.0320129394531 -0.464000016450882 C 409.2866821289062 0.5800000429153442 406.309326171875 1.101999998092651 403.1000061035156 1.101999998092651 C 399.8906860351562 1.101999998092651 396.9230041503906 0.5800000429153442 394.197021484375 -0.464000016450882 C 391.4710083007812 -1.508000016212463 389.1123352050781 -2.986999988555908 387.1210021972656 -4.901000022888184 C 385.1296691894531 -6.815000534057617 383.5733337402344 -9.115667343139648 382.4520263671875 -11.80300045013428 C 381.3306884765625 -14.49033355712891 380.77001953125 -17.45800018310547 380.77001953125 -20.70599937438965 C 380.77001953125 -23.99266624450684 381.3306884765625 -26.9603328704834 382.4520263671875 -29.60900115966797 C 383.5733337402344 -32.25766754150391 385.1296691894531 -34.5099983215332 387.1210021972656 -36.36599731445312 C 389.1123352050781 -38.22200012207031 391.4710083007812 -39.65266799926758 394.197021484375 -40.65799713134766 C 396.9230041503906 -41.66333389282227 399.8906860351562 -42.16600036621094 403.1000061035156 -42.16600036621094 C 406.309326171875 -42.16600036621094 409.2866821289062 -41.66333389282227 412.0320129394531 -40.65799713134766 C 414.77734375 -39.65266799926758 417.1456909179688 -38.22200012207031 419.1370239257812 -36.36599731445312 C 421.1283569335938 -34.5099983215332 422.6846923828125 -32.25766754150391 423.8059997558594 -29.60900115966797 C 424.9273376464844 -26.9603328704834 425.4880065917969 -23.99266624450684 425.4880065917969 -20.70599937438965 Z M 414.8740234375 -20.70599937438965 C 414.8740234375 -22.48466682434082 414.5840148925781 -24.1473331451416 414.0039978027344 -25.69400024414062 C 413.4240112304688 -27.24066734313965 412.6216735839844 -28.56500053405762 411.5970153808594 -29.66699981689453 C 410.5723266601562 -30.76900100708008 409.3349914550781 -31.63900184631348 407.885009765625 -32.27700042724609 C 406.4350280761719 -32.91500091552734 404.8400268554688 -33.23400115966797 403.1000061035156 -33.23400115966797 C 401.3600158691406 -33.23400115966797 399.7746887207031 -32.91500091552734 398.3440246582031 -32.27700042724609 C 396.913330078125 -31.63900184631348 395.6759948730469 -30.76900100708008 394.6320190429688 -29.66699981689453 C 393.5880126953125 -28.56500053405762 392.7856750488281 -27.24066734313965 392.2250061035156 -25.69400024414062 C 391.6643371582031 -24.1473331451416 391.3840026855469 -22.48466682434082 391.3840026855469 -20.70599937438965 C 391.3840026855469 -18.84999847412109 391.6740112304688 -17.13899993896484 392.2539978027344 -15.57299995422363 C 392.8340148925781 -14.00699996948242 393.6363525390625 -12.66333293914795 394.6610107421875 -11.54199981689453 C 395.6856689453125 -10.42066669464111 396.913330078125 -9.540999412536621 398.3440246582031 -8.902999877929688 C 399.7746887207031 -8.264999389648438 401.3600158691406 -7.945999622344971 403.1000061035156 -7.945999622344971 C 404.8400268554688 -7.945999622344971 406.4253540039062 -8.264999389648438 407.8560180664062 -8.902999877929688 C 409.2866821289062 -9.540999412536621 410.5240173339844 -10.42066669464111 411.5680236816406 -11.54199981689453 C 412.6119995117188 -12.66333293914795 413.4240112304688 -14.00699996948242 414.0039978027344 -15.57299995422363 C 414.5840148925781 -17.13899993896484 414.8740234375 -18.84999847412109 414.8740234375 -20.70599937438965 Z M 470.4380187988281 0 L 467.2480163574219 -8.062000274658203 L 451.3560180664062 -8.062000274658203 L 448.3400268554688 0 L 437.552001953125 0 L 454.7780151367188 -41.06399917602539 L 464.406005859375 -41.06399917602539 L 481.4580078125 0 L 470.4380187988281 0 Z M 459.4180297851562 -30.10199928283691 L 454.197998046875 -16.00799942016602 L 464.5220031738281 -16.00799942016602 L 459.4180297851562 -30.10199928283691 Z M 534.8179931640625 -20.64800071716309 C 534.8179931640625 -17.05200004577637 534.1510009765625 -13.94900035858154 532.8170166015625 -11.33899974822998 C 531.4829711914062 -8.729000091552734 529.7236328125 -6.583000183105469 527.5390014648438 -4.901000022888184 C 525.3543701171875 -3.218999862670898 522.8893432617188 -1.981666684150696 520.1439819335938 -1.189000010490417 C 517.398681640625 -0.3963333368301392 514.6146850585938 0 511.7919921875 0 L 496.4800109863281 0 L 496.4800109863281 -41.06399917602539 L 511.3280029296875 -41.06399917602539 C 514.2279663085938 -41.06399917602539 517.0892944335938 -40.72566604614258 519.9119873046875 -40.04899978637695 C 522.7346801757812 -39.37233352661133 525.2479858398438 -38.25099945068359 527.4520263671875 -36.68500137329102 C 529.656005859375 -35.11899948120117 531.4346923828125 -33.02133178710938 532.7880249023438 -30.39200019836426 C 534.141357421875 -27.76266670227051 534.8179931640625 -24.51466751098633 534.8179931640625 -20.64800071716309 Z M 524.4940185546875 -20.64800071716309 C 524.4940185546875 -22.9680004119873 524.1170043945312 -24.89166641235352 523.3629760742188 -26.41900062561035 C 522.6090087890625 -27.94633483886719 521.6036376953125 -29.16433334350586 520.3469848632812 -30.072998046875 C 519.09033203125 -30.98166465759277 517.65966796875 -31.62933158874512 516.0549926757812 -32.01599884033203 C 514.4503173828125 -32.40266418457031 512.79736328125 -32.59599685668945 511.0960083007812 -32.59599685668945 L 506.166015625 -32.59599685668945 L 506.166015625 -8.583999633789062 L 510.864013671875 -8.583999633789062 C 512.6426391601562 -8.583999633789062 514.3536376953125 -8.786999702453613 515.9970092773438 -9.192999839782715 C 517.6403198242188 -9.598999977111816 519.09033203125 -10.26599979400635 520.3469848632812 -11.19400024414062 C 521.6036376953125 -12.12199974060059 522.6090087890625 -13.35933303833008 523.3629760742188 -14.9060001373291 C 524.1170043945312 -16.45266723632812 524.4940185546875 -18.36666679382324 524.4940185546875 -20.64800071716309 Z M 574.6640014648438 -30.39200019836426 C 573.8133544921875 -31.47466659545898 572.70166015625 -32.33499908447266 571.3289794921875 -32.97299957275391 C 569.956298828125 -33.61100006103516 568.6319580078125 -33.93000030517578 567.35595703125 -33.93000030517578 C 566.6986694335938 -33.93000030517578 566.0316772460938 -33.87200164794922 565.35498046875 -33.75600051879883 C 564.6782836914062 -33.63999938964844 564.0692749023438 -33.41766738891602 563.5279541015625 -33.0890007019043 C 562.9866333007812 -32.76033020019531 562.5323486328125 -32.33499908447266 562.1649780273438 -31.8129997253418 C 561.797607421875 -31.29100036621094 561.6139526367188 -30.62400054931641 561.6139526367188 -29.8120002746582 C 561.6139526367188 -29.11599922180176 561.7589721679688 -28.5359992980957 562.0489501953125 -28.07200050354004 C 562.3389282226562 -27.60799980163574 562.7642822265625 -27.20199966430664 563.324951171875 -26.85400009155273 C 563.8856201171875 -26.50600051879883 564.5526123046875 -26.1870002746582 565.3259887695312 -25.89699935913086 C 566.0993041992188 -25.60700035095215 566.9692993164062 -25.30733299255371 567.9359741210938 -24.99799919128418 C 569.3280029296875 -24.53400039672852 570.7779541015625 -24.02166748046875 572.2859497070312 -23.46100044250488 C 573.7939453125 -22.90033340454102 575.1666259765625 -22.1560001373291 576.4039916992188 -21.22800064086914 C 577.6412963867188 -20.30000114440918 578.6659545898438 -19.14966583251953 579.4779663085938 -17.77699851989746 C 580.2899780273438 -16.40433311462402 580.6959838867188 -14.69333267211914 580.6959838867188 -12.64400005340576 C 580.6959838867188 -10.28533363342285 580.260986328125 -8.24566650390625 579.3909912109375 -6.524999618530273 C 578.52099609375 -4.804333209991455 577.351318359375 -3.383333683013916 575.8819580078125 -2.26200008392334 C 574.4126586914062 -1.140666604042053 572.7306518554688 -0.309333324432373 570.8359985351562 0.232000008225441 C 568.9412841796875 0.7733333110809326 566.9886474609375 1.043999910354614 564.9779663085938 1.043999910354614 C 562.039306640625 1.043999910354614 559.197265625 0.53166663646698 556.4519653320312 -0.4930000305175781 C 553.7066650390625 -1.517666697502136 551.42529296875 -2.977333068847656 549.6079711914062 -4.871999740600586 L 556.10400390625 -11.48400020599365 C 557.1093139648438 -10.24666595458984 558.4336547851562 -9.212332725524902 560.0769653320312 -8.381000518798828 C 561.7203369140625 -7.549666881561279 563.35400390625 -7.134000301361084 564.9779663085938 -7.134000301361084 C 565.712646484375 -7.134000301361084 566.427978515625 -7.211333751678467 567.1239624023438 -7.366000175476074 C 567.8199462890625 -7.520666599273682 568.428955078125 -7.771999835968018 568.9509887695312 -8.119999885559082 C 569.4729614257812 -8.468000411987305 569.8886108398438 -8.932000160217285 570.197998046875 -9.51200008392334 C 570.50732421875 -10.09200000762939 570.6619873046875 -10.78800010681152 570.6619873046875 -11.60000038146973 C 570.6619873046875 -12.37333393096924 570.4686279296875 -13.03066635131836 570.0819702148438 -13.57199954986572 C 569.6953125 -14.11333274841309 569.144287109375 -14.60633277893066 568.428955078125 -15.05099964141846 C 567.713623046875 -15.49566650390625 566.8242797851562 -15.90166568756104 565.760986328125 -16.26899909973145 C 564.6976318359375 -16.63633346557617 563.4893188476562 -17.03266716003418 562.135986328125 -17.45800018310547 C 560.8213500976562 -17.88333320617676 559.53564453125 -18.38599967956543 558.2789916992188 -18.96599960327148 C 557.0223388671875 -19.54599952697754 555.9010009765625 -20.29033279418945 554.9149780273438 -21.19899940490723 C 553.928955078125 -22.107666015625 553.1362915039062 -23.20966720581055 552.5369873046875 -24.50500106811523 C 551.9376831054688 -25.80033302307129 551.6380004882812 -27.37599945068359 551.6380004882812 -29.23200035095215 C 551.6380004882812 -31.51333618164062 552.1019897460938 -33.46600341796875 553.0299682617188 -35.09000015258789 C 553.9580078125 -36.7140007019043 555.1759643554688 -38.04800033569336 556.6839599609375 -39.09200286865234 C 558.1919555664062 -40.1359977722168 559.893310546875 -40.89966583251953 561.7879638671875 -41.38300323486328 C 563.6826782226562 -41.86633682250977 565.5966796875 -42.10800170898438 567.5299682617188 -42.10800170898438 C 569.8499755859375 -42.10800170898438 572.21826171875 -41.68266677856445 574.6349487304688 -40.83200073242188 C 577.0516357421875 -39.9813346862793 579.1686401367188 -38.72466659545898 580.9859619140625 -37.0620002746582 L 574.6640014648438 -30.39200019836426 Z M 615.6699829101562 -32.59599685668945 L 615.6699829101562 0 L 605.7520141601562 0 L 605.7520141601562 -32.59599685668945 L 594.1519775390625 -32.59599685668945 L 594.1519775390625 -41.06399917602539 L 627.27001953125 -41.06399917602539 L 627.27001953125 -32.59599685668945 L 615.6699829101562 -32.59599685668945 Z M 643.39404296875 0 L 643.39404296875 -41.06399917602539 L 671.0020141601562 -41.06399917602539 L 671.0020141601562 -32.65400314331055 L 652.9640502929688 -32.65400314331055 L 652.9640502929688 -24.94000053405762 L 670.0160522460938 -24.94000053405762 L 670.0160522460938 -16.9940013885498 L 652.9640502929688 -16.9940013885498 L 652.9640502929688 -8.467999458312988 L 672.0460205078125 -8.467999458312988 L 672.0460205078125 0 L 643.39404296875 0 Z M 712.1820068359375 0 L 703.3079833984375 -16.29799842834473 L 699.9440307617188 -16.29799842834473 L 699.9440307617188 0 L 690.2000122070312 0 L 690.2000122070312 -41.06399917602539 L 705.8599853515625 -41.06399917602539 C 707.8319702148438 -41.06399917602539 709.7556762695312 -40.86100006103516 711.6309814453125 -40.45499801635742 C 713.50634765625 -40.04899597167969 715.1883544921875 -39.36266326904297 716.677001953125 -38.39599990844727 C 718.1657104492188 -37.42933654785156 719.3546752929688 -36.15333557128906 720.2440185546875 -34.56800079345703 C 721.1333618164062 -32.982666015625 721.5780029296875 -31.01066589355469 721.5780029296875 -28.65199851989746 C 721.5780029296875 -25.86800003051758 720.823974609375 -23.52866554260254 719.3159790039062 -21.63399887084961 C 717.8079833984375 -19.73933219909668 715.7200317382812 -18.38599967956543 713.052001953125 -17.57399940490723 L 723.781982421875 0 L 712.1820068359375 0 Z M 711.7760009765625 -28.47800064086914 C 711.7760009765625 -29.44466590881348 711.572998046875 -30.22766494750977 711.1669921875 -30.82699966430664 C 710.760986328125 -31.42633247375488 710.239013671875 -31.89033317565918 709.6010131835938 -32.21899795532227 C 708.9630126953125 -32.54766845703125 708.2476806640625 -32.77000045776367 707.4550170898438 -32.8859977722168 C 706.662353515625 -33.00199890136719 705.898681640625 -33.06000137329102 705.1640014648438 -33.06000137329102 L 699.885986328125 -33.06000137329102 L 699.885986328125 -23.48999977111816 L 704.583984375 -23.48999977111816 C 705.39599609375 -23.48999977111816 706.2273559570312 -23.55766677856445 707.0780029296875 -23.6929988861084 C 707.9286499023438 -23.82833290100098 708.7020263671875 -24.06999969482422 709.3980102539062 -24.41799926757812 C 710.093994140625 -24.76600074768066 710.6643676757812 -25.26866722106934 711.1090087890625 -25.92600059509277 C 711.5536499023438 -26.58333206176758 711.7760009765625 -27.43400001525879 711.7760009765625 -28.47800064086914 Z"
     id="Path_379" />
</svg>
