<?xml version="1.0" encoding="utf-8"?>
<!-- Generator: Adobe Illustrator 25.0.1, SVG Export Plug-In . SVG Version: 6.00 Build 0)  -->
<svg version="1.1"
	 id="svg74" xmlns:cc="http://creativecommons.org/ns#" xmlns:dc="http://purl.org/dc/elements/1.1/" xmlns:rdf="http://www.w3.org/1999/02/22-rdf-syntax-ns#" xmlns:svg="http://www.w3.org/2000/svg"
	 xmlns="http://www.w3.org/2000/svg" xmlns:xlink="http://www.w3.org/1999/xlink" x="0px" y="0px" viewBox="0 0 890 160"
	 style="enable-background:new 0 0 890 160;" xml:space="preserve">
<style type="text/css">
	.st0{enable-background:new    ;}
</style>
<g class="st0">
	<path d="M3.9,97.7v-8.1l16-14.5c1-1,1.8-1.9,2.4-3c0.6-1,0.9-2.1,0.9-3.4c0-1.5-0.5-2.7-1.4-3.6c-0.9-0.9-2.2-1.4-3.7-1.4
		c-1.6,0-2.9,0.6-4,1.7c-1,1.1-1.6,2.6-1.8,4.5L3,68.8c0.2-2.1,0.8-3.9,1.7-5.6c0.9-1.6,2.1-3,3.5-4.2c1.4-1.1,3-2,4.8-2.6
		s3.7-0.9,5.7-0.9c1.9,0,3.7,0.3,5.5,0.8c1.8,0.5,3.4,1.3,4.8,2.3s2.5,2.4,3.3,3.9c0.8,1.6,1.2,3.4,1.2,5.6c0,1.5-0.2,2.8-0.6,4
		c-0.4,1.2-0.9,2.3-1.6,3.3c-0.7,1-1.5,1.9-2.3,2.8c-0.9,0.9-1.8,1.7-2.7,2.6l-9.5,8.5h16.8v8.5H3.9z"/>
	<path d="M72.2,77c0,2.9-0.3,5.7-0.9,8.3c-0.6,2.6-1.5,4.9-2.8,6.9c-1.3,2-2.9,3.6-5,4.8s-4.5,1.8-7.4,1.8s-5.4-0.6-7.4-1.8
		c-2.1-1.2-3.7-2.8-5-4.8c-1.3-2-2.2-4.3-2.8-6.9s-0.9-5.4-0.9-8.3c0-2.9,0.3-5.7,0.9-8.3s1.5-4.9,2.8-6.8c1.3-2,3-3.5,5-4.7
		c2-1.2,4.5-1.7,7.4-1.7s5.4,0.6,7.4,1.7s3.7,2.7,5,4.7c1.3,2,2.2,4.2,2.8,6.8C71.9,71.4,72.2,74.1,72.2,77z M62.2,77
		c0-1.3-0.1-2.7-0.2-4.2c-0.2-1.5-0.4-3-0.9-4.3c-0.4-1.3-1-2.5-1.8-3.4c-0.8-0.9-1.8-1.4-3.1-1.4s-2.3,0.5-3.1,1.4
		c-0.8,0.9-1.4,2-1.9,3.4c-0.4,1.3-0.7,2.8-0.9,4.3c-0.2,1.5-0.2,3-0.2,4.2c0,1.3,0.1,2.8,0.2,4.3c0.2,1.6,0.5,3,0.9,4.4
		c0.4,1.3,1.1,2.5,1.9,3.4c0.8,0.9,1.9,1.4,3.1,1.4s2.3-0.5,3.1-1.4c0.8-0.9,1.4-2,1.8-3.4c0.4-1.3,0.7-2.8,0.9-4.4
		C62.1,79.8,62.2,78.3,62.2,77z"/>
	<path d="M78.8,97.7v-8.1l16-14.5c1-1,1.8-1.9,2.4-3c0.6-1,0.9-2.1,0.9-3.4c0-1.5-0.5-2.7-1.4-3.6c-0.9-0.9-2.2-1.4-3.7-1.4
		c-1.6,0-2.9,0.6-4,1.7c-1,1.1-1.6,2.6-1.8,4.5l-9.3-1.3c0.2-2.1,0.8-3.9,1.7-5.6c0.9-1.6,2.1-3,3.5-4.2c1.4-1.1,3-2,4.8-2.6
		s3.7-0.9,5.7-0.9c1.9,0,3.7,0.3,5.5,0.8c1.8,0.5,3.4,1.3,4.8,2.3s2.5,2.4,3.3,3.9c0.8,1.6,1.2,3.4,1.2,5.6c0,1.5-0.2,2.8-0.6,4
		c-0.4,1.2-0.9,2.3-1.6,3.3c-0.7,1-1.5,1.9-2.3,2.8c-0.9,0.9-1.8,1.7-2.7,2.6l-9.5,8.5h16.8v8.5H78.8z"/>
	<path d="M147.1,77c0,2.9-0.3,5.7-0.9,8.3c-0.6,2.6-1.5,4.9-2.8,6.9c-1.3,2-2.9,3.6-5,4.8s-4.5,1.8-7.4,1.8s-5.4-0.6-7.4-1.8
		c-2.1-1.2-3.7-2.8-5-4.8c-1.3-2-2.2-4.3-2.8-6.9S115,79.9,115,77c0-2.9,0.3-5.7,0.9-8.3s1.5-4.9,2.8-6.8c1.3-2,3-3.5,5-4.7
		c2-1.2,4.5-1.7,7.4-1.7s5.4,0.6,7.4,1.7s3.7,2.7,5,4.7c1.3,2,2.2,4.2,2.8,6.8C146.8,71.4,147.1,74.1,147.1,77z M137.2,77
		c0-1.3-0.1-2.7-0.2-4.2c-0.2-1.5-0.4-3-0.9-4.3c-0.4-1.3-1-2.5-1.8-3.4c-0.8-0.9-1.8-1.4-3.1-1.4s-2.3,0.5-3.1,1.4
		c-0.8,0.9-1.4,2-1.9,3.4c-0.4,1.3-0.7,2.8-0.9,4.3c-0.2,1.5-0.2,3-0.2,4.2c0,1.3,0.1,2.8,0.2,4.3c0.2,1.6,0.5,3,0.9,4.4
		c0.4,1.3,1.1,2.5,1.9,3.4c0.8,0.9,1.9,1.4,3.1,1.4s2.3-0.5,3.1-1.4c0.8-0.9,1.4-2,1.8-3.4c0.4-1.3,0.7-2.8,0.9-4.4
		C137.1,79.8,137.2,78.3,137.2,77z"/>
	<path d="M178.3,75.9v11.1c0,1.4,0.3,2.4,0.8,3.1s1.5,1,2.8,1c0.5,0,1,0,1.5-0.1c0.5-0.1,1-0.2,1.3-0.3l0.1,7
		c-0.7,0.2-1.5,0.4-2.5,0.6c-1,0.2-2,0.3-3,0.3c-1.9,0-3.6-0.2-4.9-0.7c-1.3-0.5-2.4-1.2-3.2-2.1c-0.8-0.9-1.4-2-1.7-3.3
		c-0.3-1.3-0.5-2.7-0.5-4.2V75.9h-4.6v-7.1h4.6v-7.6h9.3v7.6h6.8v7.1H178.3z"/>
	<path d="M218.2,83.6c0,0.4,0,0.8,0,1.2s0,0.8-0.1,1.1h-20.9c0.1,0.8,0.3,1.5,0.7,2.2c0.4,0.7,0.9,1.2,1.6,1.7
		c0.6,0.5,1.4,0.9,2.1,1.1c0.8,0.3,1.6,0.4,2.5,0.4c1.5,0,2.8-0.3,3.8-0.8s1.9-1.3,2.6-2.2l6.6,4.2c-1.4,2-3.1,3.5-5.4,4.6
		c-2.2,1.1-4.8,1.6-7.7,1.6c-2.2,0-4.2-0.3-6.1-1c-1.9-0.7-3.6-1.7-5.1-3c-1.5-1.3-2.6-2.9-3.4-4.8c-0.8-1.9-1.2-4.1-1.2-6.5
		c0-2.4,0.4-4.5,1.2-6.4s1.9-3.5,3.3-4.9s3-2.4,4.9-3.1c1.9-0.7,3.9-1.1,6.1-1.1c2.1,0,4.1,0.4,5.9,1.1c1.8,0.7,3.3,1.8,4.6,3.1
		c1.3,1.4,2.3,3,3,4.9C217.9,78.9,218.2,81.1,218.2,83.6z M209.5,79.9c0-1.5-0.5-2.8-1.4-3.9c-0.9-1.1-2.4-1.6-4.3-1.6
		c-0.9,0-1.8,0.1-2.6,0.4c-0.8,0.3-1.5,0.7-2,1.2c-0.6,0.5-1,1.1-1.4,1.8c-0.3,0.7-0.5,1.4-0.6,2.1H209.5z"/>
	<path d="M241.1,77.3c-0.8-0.7-1.7-1.4-2.7-1.9c-1-0.5-2.1-0.8-3.3-0.8c-0.9,0-1.7,0.2-2.5,0.5c-0.8,0.3-1.1,0.9-1.1,1.8
		c0,0.8,0.4,1.4,1.2,1.7c0.8,0.3,2.2,0.7,4,1.2c1.1,0.2,2.2,0.6,3.3,1s2.1,1,3,1.7c0.9,0.7,1.6,1.5,2.1,2.6c0.5,1,0.8,2.2,0.8,3.6
		c0,1.8-0.4,3.4-1.1,4.6c-0.7,1.3-1.7,2.3-2.9,3c-1.2,0.8-2.5,1.3-4,1.7c-1.5,0.3-2.9,0.5-4.4,0.5c-2.4,0-4.7-0.4-6.9-1.1
		s-4.1-1.9-5.7-3.3l5.3-5.6c0.9,0.9,1.9,1.7,3.1,2.3c1.2,0.6,2.6,0.9,3.9,0.9c0.8,0,1.5-0.2,2.3-0.6c0.8-0.4,1.1-1,1.1-1.9
		c0-0.9-0.5-1.5-1.4-2c-0.9-0.4-2.4-0.9-4.4-1.3c-1-0.2-2-0.5-3-0.9c-1-0.4-1.9-0.9-2.7-1.6c-0.8-0.7-1.4-1.5-1.9-2.4
		c-0.5-1-0.8-2.1-0.8-3.5c0-1.7,0.4-3.2,1.1-4.4c0.7-1.2,1.7-2.2,2.8-3c1.2-0.8,2.4-1.3,3.9-1.7c1.4-0.4,2.8-0.6,4.2-0.6
		c2.2,0,4.3,0.3,6.4,1c2.1,0.7,3.8,1.7,5.2,3L241.1,77.3z"/>
	<path d="M251.6,97.7V53.8h9.7v43.8H251.6z"/>
	<path d="M268.4,72.7c1.7-1.6,3.7-2.8,5.9-3.7c2.3-0.8,4.6-1.2,6.9-1.2c2.4,0,4.5,0.3,6.2,0.9c1.7,0.6,3,1.5,4.1,2.8
		c1,1.3,1.8,2.8,2.3,4.8c0.5,1.9,0.7,4.2,0.7,6.8v14.6h-8.7v-3.1h-0.2c-0.7,1.2-1.8,2.1-3.3,2.8c-1.5,0.7-3.1,1-4.8,1
		c-1.2,0-2.4-0.2-3.6-0.5c-1.2-0.3-2.4-0.8-3.4-1.5c-1-0.7-1.9-1.6-2.5-2.8c-0.7-1.2-1-2.6-1-4.3c0-2.1,0.6-3.8,1.7-5
		c1.1-1.3,2.6-2.3,4.4-3c1.8-0.7,3.8-1.2,6-1.4s4.4-0.3,6.4-0.3v-0.5c0-1.4-0.5-2.5-1.5-3.2c-1-0.7-2.2-1-3.7-1
		c-1.4,0-2.7,0.3-3.9,0.9c-1.3,0.6-2.3,1.3-3.2,2.1L268.4,72.7z M285.9,85.1h-1.2c-1,0-2.1,0-3.2,0.1c-1.1,0.1-2,0.3-2.8,0.6
		c-0.8,0.3-1.5,0.7-2.1,1.2c-0.5,0.5-0.8,1.2-0.8,2.1c0,0.5,0.1,1,0.4,1.4c0.3,0.4,0.6,0.7,1,0.9c0.4,0.2,0.8,0.4,1.3,0.5
		c0.5,0.1,1,0.1,1.5,0.1c1.9,0,3.4-0.5,4.4-1.6c1-1.1,1.5-2.5,1.5-4.3V85.1z"/>
	<path d="M334.9,76.6c-0.4-0.1-0.8-0.2-1.2-0.2c-0.4,0-0.8-0.1-1.2-0.1c-1.3,0-2.3,0.2-3.2,0.7s-1.6,1-2.1,1.7
		c-0.5,0.7-0.9,1.4-1.1,2.1c-0.2,0.8-0.3,1.4-0.3,2v14.8h-9.5V68.8h9.2V73h0.1c0.7-1.5,1.8-2.7,3.1-3.6c1.4-0.9,2.9-1.4,4.7-1.4
		c0.4,0,0.8,0,1.1,0.1c0.4,0,0.7,0.1,0.9,0.2L334.9,76.6z"/>
	<path d="M368.7,83.1c0,2.4-0.4,4.5-1.3,6.4s-2,3.5-3.5,4.9c-1.5,1.3-3.2,2.4-5.1,3.1s-4,1.1-6.2,1.1c-2.2,0-4.2-0.4-6.2-1.1
		c-2-0.7-3.7-1.8-5.1-3.1s-2.6-3-3.5-4.9c-0.9-1.9-1.3-4-1.3-6.4s0.4-4.5,1.3-6.4c0.9-1.9,2-3.5,3.5-4.8s3.2-2.3,5.1-3
		c2-0.7,4-1,6.2-1c2.2,0,4.3,0.3,6.2,1c1.9,0.7,3.6,1.7,5.1,3c1.5,1.3,2.6,2.9,3.5,4.8C368.3,78.6,368.7,80.8,368.7,83.1z
		 M359.5,83.1c0-0.9-0.2-1.8-0.5-2.7c-0.3-0.9-0.8-1.7-1.3-2.3c-0.6-0.7-1.3-1.2-2.1-1.7c-0.9-0.4-1.8-0.6-3-0.6
		c-1.1,0-2.1,0.2-3,0.6c-0.9,0.4-1.6,1-2.1,1.7c-0.6,0.7-1,1.5-1.3,2.3c-0.3,0.9-0.4,1.8-0.4,2.7c0,0.9,0.1,1.8,0.4,2.7
		c0.3,0.9,0.7,1.7,1.3,2.4c0.6,0.7,1.3,1.3,2.1,1.7c0.8,0.4,1.8,0.6,3,0.6c1.1,0,2.1-0.2,3-0.6c0.8-0.4,1.6-1,2.1-1.7
		c0.6-0.7,1-1.5,1.3-2.4C359.4,85,359.5,84,359.5,83.1z"/>
	<path d="M374.3,72.7c1.7-1.6,3.7-2.8,5.9-3.7c2.3-0.8,4.6-1.2,6.9-1.2c2.4,0,4.5,0.3,6.2,0.9c1.7,0.6,3,1.5,4.1,2.8
		c1,1.3,1.8,2.8,2.3,4.8c0.5,1.9,0.7,4.2,0.7,6.8v14.6h-8.7v-3.1h-0.2c-0.7,1.2-1.8,2.1-3.3,2.8c-1.5,0.7-3.1,1-4.8,1
		c-1.2,0-2.4-0.2-3.6-0.5c-1.2-0.3-2.4-0.8-3.4-1.5c-1-0.7-1.9-1.6-2.5-2.8c-0.7-1.2-1-2.6-1-4.3c0-2.1,0.6-3.8,1.7-5
		c1.1-1.3,2.6-2.3,4.4-3c1.8-0.7,3.8-1.2,6-1.4s4.4-0.3,6.4-0.3v-0.5c0-1.4-0.5-2.5-1.5-3.2c-1-0.7-2.2-1-3.7-1
		c-1.4,0-2.7,0.3-3.9,0.9s-2.3,1.3-3.2,2.1L374.3,72.7z M391.8,85.1h-1.2c-1,0-2.1,0-3.2,0.1c-1.1,0.1-2,0.3-2.8,0.6
		c-0.8,0.3-1.5,0.7-2.1,1.2c-0.5,0.5-0.8,1.2-0.8,2.1c0,0.5,0.1,1,0.4,1.4c0.3,0.4,0.6,0.7,1,0.9c0.4,0.2,0.8,0.4,1.3,0.5
		c0.5,0.1,1,0.1,1.5,0.1c1.9,0,3.4-0.5,4.4-1.6c1-1.1,1.5-2.5,1.5-4.3V85.1z"/>
	<path d="M429.4,97.7v-3.8h-0.1c-0.9,1.5-2.3,2.6-4,3.4s-3.5,1.2-5.5,1.2c-2.2,0-4.1-0.4-5.8-1.3c-1.7-0.9-3.1-2-4.3-3.4
		c-1.2-1.4-2.1-3-2.7-4.9c-0.6-1.9-0.9-3.8-0.9-5.8s0.3-3.9,1-5.8c0.6-1.8,1.5-3.5,2.7-4.8c1.2-1.4,2.6-2.5,4.3-3.3
		c1.7-0.8,3.6-1.2,5.7-1.2c2.1,0,3.9,0.4,5.4,1.2c1.5,0.8,2.6,1.7,3.4,2.7h0.1v-18h9.5v43.8H429.4z M429.1,83.2
		c0-0.9-0.2-1.8-0.5-2.7s-0.8-1.7-1.4-2.4c-0.6-0.7-1.3-1.3-2.2-1.7c-0.9-0.4-1.8-0.6-2.9-0.6c-1.1,0-2.1,0.2-3,0.6
		c-0.9,0.4-1.6,1-2.1,1.7c-0.6,0.7-1,1.5-1.3,2.3c-0.3,0.9-0.4,1.8-0.4,2.7c0,0.9,0.1,1.8,0.4,2.8c0.3,0.9,0.7,1.7,1.3,2.4
		c0.6,0.7,1.3,1.3,2.1,1.7c0.9,0.4,1.8,0.6,3,0.6c1.1,0,2-0.2,2.9-0.6c0.8-0.4,1.6-1,2.2-1.7c0.6-0.7,1.1-1.5,1.4-2.4
		C428.9,85,429.1,84.1,429.1,83.2z"/>
	<path d="M462.7,77.3c-0.8-0.7-1.7-1.4-2.7-1.9c-1-0.5-2.1-0.8-3.3-0.8c-0.9,0-1.7,0.2-2.5,0.5c-0.8,0.3-1.1,0.9-1.1,1.8
		c0,0.8,0.4,1.4,1.2,1.7c0.8,0.3,2.2,0.7,4,1.2c1.1,0.2,2.2,0.6,3.3,1s2.1,1,3,1.7c0.9,0.7,1.6,1.5,2.1,2.6c0.5,1,0.8,2.2,0.8,3.6
		c0,1.8-0.4,3.4-1.1,4.6c-0.7,1.3-1.7,2.3-2.9,3c-1.2,0.8-2.5,1.3-4,1.7c-1.5,0.3-2.9,0.5-4.4,0.5c-2.4,0-4.7-0.4-6.9-1.1
		s-4.1-1.9-5.7-3.3l5.3-5.6c0.9,0.9,1.9,1.7,3.1,2.3c1.2,0.6,2.6,0.9,3.9,0.9c0.8,0,1.5-0.2,2.3-0.6c0.8-0.4,1.1-1,1.1-1.9
		c0-0.9-0.5-1.5-1.4-2c-0.9-0.4-2.4-0.9-4.4-1.3c-1-0.2-2-0.5-3-0.9s-1.9-0.9-2.7-1.6c-0.8-0.7-1.4-1.5-1.9-2.4
		c-0.5-1-0.8-2.1-0.8-3.5c0-1.7,0.4-3.2,1.1-4.4c0.7-1.2,1.7-2.2,2.8-3c1.2-0.8,2.4-1.3,3.9-1.7c1.4-0.4,2.8-0.6,4.2-0.6
		c2.2,0,4.3,0.3,6.4,1c2.1,0.7,3.8,1.7,5.2,3L462.7,77.3z"/>
	<path d="M483.4,75.9v11.1c0,1.4,0.3,2.4,0.8,3.1c0.5,0.7,1.5,1,2.8,1c0.5,0,1,0,1.5-0.1c0.5-0.1,1-0.2,1.3-0.3l0.1,7
		c-0.7,0.2-1.5,0.4-2.5,0.6c-1,0.2-2,0.3-3,0.3c-1.9,0-3.6-0.2-4.9-0.7c-1.3-0.5-2.4-1.2-3.2-2.1c-0.8-0.9-1.4-2-1.7-3.3
		c-0.3-1.3-0.5-2.7-0.5-4.2V75.9h-4.6v-7.1h4.6v-7.6h9.3v7.6h6.8v7.1H483.4z"/>
	<path d="M523.3,83.6c0,0.4,0,0.8,0,1.2s0,0.8-0.1,1.1h-20.9c0.1,0.8,0.3,1.5,0.7,2.2c0.4,0.7,0.9,1.2,1.6,1.7
		c0.6,0.5,1.4,0.9,2.1,1.1c0.8,0.3,1.6,0.4,2.5,0.4c1.5,0,2.8-0.3,3.8-0.8s1.9-1.3,2.6-2.2l6.6,4.2c-1.4,2-3.1,3.5-5.4,4.6
		c-2.2,1.1-4.8,1.6-7.7,1.6c-2.2,0-4.2-0.3-6.1-1s-3.6-1.7-5.1-3c-1.4-1.3-2.6-2.9-3.4-4.8c-0.8-1.9-1.2-4.1-1.2-6.5
		c0-2.4,0.4-4.5,1.2-6.4c0.8-1.9,1.9-3.5,3.3-4.9c1.4-1.3,3-2.4,4.9-3.1c1.9-0.7,3.9-1.1,6.1-1.1c2.1,0,4.1,0.4,5.9,1.1
		c1.8,0.7,3.3,1.8,4.6,3.1c1.3,1.4,2.3,3,3,4.9C523,78.9,523.3,81.1,523.3,83.6z M514.6,79.9c0-1.5-0.5-2.8-1.4-3.9
		c-0.9-1.1-2.4-1.6-4.3-1.6c-0.9,0-1.8,0.1-2.6,0.4c-0.8,0.3-1.5,0.7-2,1.2c-0.6,0.5-1,1.1-1.4,1.8c-0.3,0.7-0.5,1.4-0.6,2.1H514.6z
		"/>
	<path d="M548,76.6c-0.4-0.1-0.8-0.2-1.2-0.2c-0.4,0-0.8-0.1-1.2-0.1c-1.3,0-2.3,0.2-3.2,0.7s-1.6,1-2.1,1.7
		c-0.5,0.7-0.9,1.4-1.1,2.1c-0.2,0.8-0.3,1.4-0.3,2v14.8h-9.5V68.8h9.2V73h0.1c0.7-1.5,1.8-2.7,3.1-3.6c1.4-0.9,2.9-1.4,4.7-1.4
		c0.4,0,0.8,0,1.1,0.1c0.4,0,0.7,0.1,0.9,0.2L548,76.6z"/>
</g>
</svg>
