<?xml version="1.0" encoding="utf-8"?>
<!-- Generator: Adobe Illustrator 24.2.1, SVG Export Plug-In . SVG Version: 6.00 Build 0)  -->
<svg version="1.1"
	 id="svg74" xmlns:cc="http://creativecommons.org/ns#" xmlns:dc="http://purl.org/dc/elements/1.1/" xmlns:rdf="http://www.w3.org/1999/02/22-rdf-syntax-ns#" xmlns:svg="http://www.w3.org/2000/svg"
	 xmlns="http://www.w3.org/2000/svg" xmlns:xlink="http://www.w3.org/1999/xlink" x="0px" y="0px" viewBox="0 0 682.7 154"
	 style="enable-background:new 0 0 682.7 154;" xml:space="preserve">
<path id="Path_370" d="M21.5,9.6v32.6h-9.9V9.6H0V1.1h33.1v8.5H21.5z M49.2,42.2V1.1h27.6v8.4h-18v7.7h17.1v7.9H58.8v8.5h19.1v8.5
	H49.2z M117.7,11.8c-0.9-1.1-2-1.9-3.3-2.6c-1.4-0.6-2.7-1-4-1c-0.7,0-1.3,0.1-2,0.2c-0.7,0.1-1.3,0.3-1.8,0.7
	c-0.5,0.3-1,0.8-1.4,1.3s-0.6,1.2-0.6,2c0,0.7,0.1,1.3,0.4,1.7c0.3,0.5,0.7,0.9,1.3,1.2c0.6,0.3,1.2,0.7,2,1
	c0.8,0.3,1.6,0.6,2.6,0.9c1.4,0.5,2.8,1,4.3,1.5c1.5,0.6,2.9,1.3,4.1,2.2s2.3,2.1,3.1,3.5c0.8,1.4,1.2,3.1,1.2,5.1
	c0,2.4-0.4,4.4-1.3,6.1c-0.9,1.7-2,3.1-3.5,4.3c-1.5,1.1-3.2,2-5,2.5c-1.9,0.5-3.8,0.8-5.9,0.8c-2.9,0-5.8-0.5-8.5-1.5
	c-2.7-1-5-2.5-6.8-4.4l6.5-6.6c1,1.2,2.3,2.3,4,3.1s3.3,1.2,4.9,1.2c0.7,0,1.4-0.1,2.1-0.2c0.7-0.2,1.3-0.4,1.8-0.8
	c0.5-0.3,0.9-0.8,1.2-1.4c0.3-0.6,0.5-1.3,0.5-2.1c0-0.8-0.2-1.4-0.6-2c-0.4-0.5-0.9-1-1.7-1.5c-0.7-0.4-1.6-0.9-2.7-1.2
	c-1.1-0.4-2.3-0.8-3.6-1.2c-1.3-0.4-2.6-0.9-3.9-1.5S99,21.9,98,21s-1.8-2-2.4-3.3c-0.6-1.3-0.9-2.9-0.9-4.7c0-2.3,0.5-4.2,1.4-5.9
	c0.9-1.6,2.1-3,3.7-4c1.5-1,3.2-1.8,5.1-2.3c1.9-0.5,3.8-0.7,5.7-0.7c2.3,0,4.7,0.4,7.1,1.3s4.5,2.1,6.4,3.8L117.7,11.8z
	 M141.9,42.2V1.1h10v32.4h15.9v8.6H141.9z M211.9,42.2l-3.2-8.1h-15.9l-3,8.1H179l17.2-41.1h9.6l17.1,41.1H211.9z M200.9,12.1
	l-5.2,14.1H206L200.9,12.1z M285,42.2l-8.9-16.3h-3.4v16.3H263V1.1h15.7c2,0,3.9,0.2,5.8,0.6s3.6,1.1,5,2.1s2.7,2.2,3.6,3.8
	c0.9,1.6,1.3,3.6,1.3,5.9c0,2.8-0.8,5.1-2.3,7s-3.6,3.2-6.3,4.1l10.7,17.6H285z M284.5,13.7c0-1-0.2-1.7-0.6-2.3
	c-0.4-0.6-0.9-1.1-1.6-1.4c-0.6-0.3-1.4-0.6-2.1-0.7c-0.8-0.1-1.6-0.2-2.3-0.2h-5.3v9.6h4.7c0.8,0,1.6-0.1,2.5-0.2
	c0.9-0.1,1.6-0.4,2.3-0.7c0.7-0.3,1.3-0.9,1.7-1.5C284.3,15.6,284.5,14.7,284.5,13.7z M355.8,21.5c0,3.2-0.6,6.2-1.7,8.9
	c-1.1,2.7-2.7,5-4.7,6.9c-2,1.9-4.4,3.4-7.1,4.4c-2.7,1-5.7,1.6-8.9,1.6s-6.2-0.5-8.9-1.6c-2.7-1-5.1-2.5-7.1-4.4s-3.5-4.2-4.7-6.9
	c-1.1-2.7-1.7-5.7-1.7-8.9c0-3.3,0.6-6.3,1.7-8.9c1.1-2.6,2.7-4.9,4.7-6.8c2-1.9,4.4-3.3,7.1-4.3c2.7-1,5.7-1.5,8.9-1.5
	s6.2,0.5,8.9,1.5c2.7,1,5.1,2.4,7.1,4.3c2,1.9,3.5,4.1,4.7,6.8C355.3,15.2,355.8,18.2,355.8,21.5z M345.2,21.5c0-1.8-0.3-3.4-0.9-5
	c-0.6-1.5-1.4-2.9-2.4-4c-1-1.1-2.3-2-3.7-2.6c-1.4-0.6-3-1-4.8-1c-1.7,0-3.3,0.3-4.8,1c-1.4,0.6-2.7,1.5-3.7,2.6
	c-1,1.1-1.8,2.4-2.4,4s-0.8,3.2-0.8,5c0,1.9,0.3,3.6,0.9,5.1c0.6,1.6,1.4,2.9,2.4,4c1,1.1,2.3,2,3.7,2.6c1.4,0.6,3,1,4.8,1
	c1.7,0,3.3-0.3,4.8-1s2.7-1.5,3.7-2.6c1-1.1,1.9-2.5,2.4-4C344.9,25,345.2,23.3,345.2,21.5z M400.8,42.2l-3.2-8.1h-15.9l-3,8.1
	h-10.8l17.2-41.1h9.6l17.1,41.1H400.8z M389.8,12.1l-5.2,14.1h10.3L389.8,12.1z M465.2,21.5c0,3.6-0.7,6.7-2,9.3
	c-1.3,2.6-3.1,4.8-5.3,6.4s-4.6,2.9-7.4,3.7s-5.5,1.2-8.4,1.2h-15.3V1.1h14.8c2.9,0,5.8,0.3,8.6,1s5.3,1.8,7.5,3.4
	c2.2,1.6,4,3.7,5.3,6.3S465.2,17.7,465.2,21.5z M454.8,21.5c0-2.3-0.4-4.2-1.1-5.8s-1.8-2.7-3-3.7c-1.3-0.9-2.7-1.6-4.3-1.9
	c-1.6-0.4-3.3-0.6-5-0.6h-4.9v24h4.7c1.8,0,3.5-0.2,5.1-0.6c1.6-0.4,3.1-1.1,4.4-2c1.3-0.9,2.3-2.2,3-3.7S454.8,23.8,454.8,21.5z
	 M505,11.8c-0.9-1.1-2-1.9-3.3-2.6s-2.7-1-4-1c-0.7,0-1.3,0.1-2,0.2s-1.3,0.3-1.8,0.7c-0.5,0.3-1,0.8-1.4,1.3s-0.6,1.2-0.6,2
	c0,0.7,0.1,1.3,0.4,1.7c0.3,0.5,0.7,0.9,1.3,1.2s1.2,0.7,2,1c0.8,0.3,1.6,0.6,2.6,0.9c1.4,0.5,2.8,1,4.4,1.5s2.9,1.3,4.1,2.2
	s2.3,2.1,3.1,3.5c0.8,1.4,1.2,3.1,1.2,5.1c0,2.4-0.4,4.4-1.3,6.1c-0.9,1.7-2,3.1-3.5,4.3s-3.2,2-5,2.5c-1.9,0.5-3.8,0.8-5.9,0.8
	c-2.9,0-5.8-0.5-8.5-1.5s-5-2.5-6.8-4.4l6.5-6.6c1,1.2,2.3,2.3,4,3.1s3.3,1.2,4.9,1.2c0.7,0,1.5-0.1,2.1-0.2
	c0.7-0.2,1.3-0.4,1.8-0.8c0.5-0.3,0.9-0.8,1.2-1.4c0.3-0.6,0.5-1.3,0.5-2.1c0-0.8-0.2-1.4-0.6-2c-0.4-0.5-0.9-1-1.7-1.5
	c-0.7-0.4-1.6-0.9-2.7-1.2c-1.1-0.4-2.3-0.8-3.6-1.2c-1.3-0.4-2.6-0.9-3.9-1.5c-1.3-0.6-2.4-1.3-3.4-2.2s-1.8-2-2.4-3.3
	c-0.6-1.3-0.9-2.9-0.9-4.7c0-2.3,0.5-4.2,1.4-5.9c0.9-1.6,2.1-3,3.7-4c1.5-1,3.2-1.8,5.1-2.3c1.9-0.5,3.8-0.7,5.7-0.7
	c2.3,0,4.7,0.4,7.1,1.3s4.5,2.1,6.4,3.8L505,11.8z M546,9.6v32.6h-9.9V9.6h-11.6V1.1h33.1v8.5H546z M573.7,42.2V1.1h27.6v8.4h-18
	v7.7h17.1v7.9h-17.1v8.5h19.1v8.5H573.7z M642.5,42.2l-8.9-16.3h-3.4v16.3h-9.7V1.1h15.7c2,0,3.9,0.2,5.8,0.6c1.9,0.4,3.6,1.1,5,2.1
	s2.7,2.2,3.6,3.8s1.3,3.6,1.3,5.9c0,2.8-0.8,5.1-2.3,7s-3.6,3.2-6.3,4.1l10.7,17.6H642.5z M642.1,13.7c0-1-0.2-1.7-0.6-2.3
	c-0.4-0.6-0.9-1.1-1.6-1.4c-0.6-0.3-1.4-0.6-2.1-0.7c-0.8-0.1-1.6-0.2-2.3-0.2h-5.3v9.6h4.7c0.8,0,1.6-0.1,2.5-0.2
	c0.9-0.1,1.6-0.4,2.3-0.7c0.7-0.3,1.3-0.9,1.7-1.5C641.9,15.6,642.1,14.7,642.1,13.7z M3.7,142.2V134l16-14.5c1-1,1.8-2,2.4-3
	c0.6-1,0.9-2.1,0.9-3.4c0-1.5-0.5-2.7-1.4-3.6c-0.9-0.9-2.2-1.4-3.7-1.4c-1.6,0-2.9,0.6-4,1.7c-1,1.1-1.6,2.6-1.8,4.5l-9.3-1.3
	c0.2-2.1,0.8-3.9,1.7-5.6c0.9-1.6,2.1-3,3.5-4.1c1.4-1.1,3-2,4.8-2.6s3.7-0.9,5.7-0.9c1.9,0,3.7,0.3,5.5,0.8
	c1.8,0.5,3.4,1.3,4.8,2.3s2.5,2.4,3.3,3.9c0.8,1.6,1.2,3.4,1.2,5.6c0,1.5-0.2,2.8-0.6,4c-0.4,1.2-0.9,2.3-1.6,3.3
	c-0.7,1-1.4,1.9-2.3,2.8c-0.9,0.9-1.8,1.7-2.7,2.6l-9.5,8.5h16.8v8.5H3.7z M83.6,121.5c0,2.9-0.3,5.7-0.9,8.3
	c-0.6,2.6-1.5,4.9-2.8,6.9c-1.3,2-2.9,3.6-5,4.8c-2,1.2-4.5,1.8-7.4,1.8s-5.4-0.6-7.4-1.8c-2-1.2-3.7-2.8-5-4.8
	c-1.3-2-2.2-4.3-2.8-6.9c-0.6-2.6-0.9-5.4-0.9-8.3c0-2.9,0.3-5.7,0.9-8.3c0.6-2.6,1.5-4.9,2.8-6.8c1.3-2,3-3.5,5-4.7
	c2-1.2,4.5-1.7,7.4-1.7s5.4,0.6,7.4,1.7c2,1.2,3.7,2.7,5,4.7c1.3,2,2.2,4.2,2.8,6.8C83.3,115.9,83.6,118.6,83.6,121.5z M73.6,121.5
	c0-1.3-0.1-2.7-0.2-4.2c-0.2-1.5-0.4-3-0.9-4.3c-0.4-1.3-1-2.5-1.8-3.4c-0.8-0.9-1.8-1.4-3.1-1.4s-2.3,0.5-3.1,1.4
	c-0.8,0.9-1.4,2-1.9,3.4c-0.4,1.3-0.7,2.8-0.9,4.3c-0.2,1.5-0.2,3-0.2,4.2c0,1.3,0.1,2.8,0.2,4.3c0.2,1.6,0.5,3,0.9,4.4
	s1.1,2.5,1.9,3.4c0.8,0.9,1.9,1.4,3.1,1.4s2.3-0.5,3.1-1.4c0.8-0.9,1.4-2,1.8-3.4s0.7-2.8,0.9-4.4C73.5,124.3,73.6,122.8,73.6,121.5
	z M101.8,142.2V134l16-14.5c1-1,1.8-2,2.4-3c0.6-1,0.9-2.1,0.9-3.4c0-1.5-0.5-2.7-1.4-3.6c-0.9-0.9-2.2-1.4-3.7-1.4
	c-1.6,0-2.9,0.6-4,1.7c-1,1.1-1.6,2.6-1.8,4.5l-9.3-1.3c0.2-2.1,0.8-3.9,1.7-5.6c0.9-1.6,2.1-3,3.5-4.1c1.4-1.1,3-2,4.8-2.6
	c1.8-0.6,3.7-0.9,5.7-0.9c1.9,0,3.7,0.3,5.5,0.8s3.4,1.3,4.8,2.3c1.4,1,2.5,2.4,3.3,3.9c0.8,1.6,1.2,3.4,1.2,5.6
	c0,1.5-0.2,2.8-0.6,4s-0.9,2.3-1.6,3.3c-0.7,1-1.5,1.9-2.3,2.8c-0.9,0.9-1.8,1.7-2.7,2.6l-9.5,8.5h16.8v8.5H101.8z M181.7,121.5
	c0,2.9-0.3,5.7-0.9,8.3c-0.6,2.6-1.5,4.9-2.8,6.9c-1.3,2-2.9,3.6-5,4.8c-2,1.2-4.5,1.8-7.4,1.8c-2.9,0-5.4-0.6-7.4-1.8
	c-2-1.2-3.7-2.8-5-4.8c-1.3-2-2.2-4.3-2.8-6.9c-0.6-2.6-0.9-5.4-0.9-8.3c0-2.9,0.3-5.7,0.9-8.3s1.5-4.9,2.8-6.8c1.3-2,3-3.5,5-4.7
	c2-1.2,4.5-1.7,7.4-1.7c2.9,0,5.4,0.6,7.4,1.7c2,1.2,3.7,2.7,5,4.7c1.3,2,2.2,4.2,2.8,6.8S181.7,118.6,181.7,121.5z M171.7,121.5
	c0-1.3-0.1-2.7-0.2-4.2c-0.2-1.5-0.4-3-0.9-4.3c-0.4-1.3-1-2.5-1.8-3.4c-0.8-0.9-1.8-1.4-3.1-1.4c-1.3,0-2.3,0.5-3.1,1.4
	c-0.8,0.9-1.4,2-1.9,3.4c-0.4,1.3-0.7,2.8-0.9,4.3c-0.2,1.5-0.2,3-0.2,4.2c0,1.3,0.1,2.8,0.2,4.3c0.2,1.6,0.5,3,0.9,4.4
	c0.4,1.3,1.1,2.5,1.9,3.4c0.8,0.9,1.9,1.4,3.1,1.4c1.3,0,2.3-0.5,3.1-1.4c0.8-0.9,1.4-2,1.8-3.4s0.7-2.8,0.9-4.4
	C171.7,124.3,171.7,122.8,171.7,121.5z"/>
</svg>
