<?xml version="1.0" encoding="UTF-8" standalone="no"?>
<svg
   xmlns:dc="http://purl.org/dc/elements/1.1/"
   xmlns:cc="http://creativecommons.org/ns#"
   xmlns:rdf="http://www.w3.org/1999/02/22-rdf-syntax-ns#"
   xmlns:svg="http://www.w3.org/2000/svg"
   xmlns="http://www.w3.org/2000/svg"
   id="svg74"
   version="1.1"
   viewBox="0.29 -42.166 654.124 143.268"
   class="Path_370">
  <metadata
     id="metadata80">
    <rdf:RDF>
      <cc:Work
         rdf:about="">
        <dc:format>image/svg+xml</dc:format>
        <dc:type
           rdf:resource="http://purl.org/dc/dcmitype/StillImage" />
        <dc:title></dc:title>
      </cc:Work>
    </rdf:RDF>
  </metadata>
  <defs
     id="defs78" />
  <path
     d="M 21.80799865722656 -32.59599685668945 L 21.80799865722656 0 L 11.89000034332275 0 L 11.89000034332275 -32.59599685668945 L 0.2899999916553497 -32.59599685668945 L 0.2899999916553497 -41.06399917602539 L 33.40799713134766 -41.06399917602539 L 33.40799713134766 -32.59599685668945 L 21.80799865722656 -32.59599685668945 Z M 49.53200149536133 0 L 49.53200149536133 -41.06399917602539 L 77.13999938964844 -41.06399917602539 L 77.13999938964844 -32.65400314331055 L 59.10200119018555 -32.65400314331055 L 59.10200119018555 -24.94000053405762 L 76.15399932861328 -24.94000053405762 L 76.15399932861328 -16.9940013885498 L 59.10200119018555 -16.9940013885498 L 59.10200119018555 -8.467999458312988 L 78.18399810791016 -8.467999458312988 L 78.18399810791016 0 L 49.53200149536133 0 Z M 118.0300064086914 -30.39200019836426 C 117.1793365478516 -31.47466659545898 116.0676727294922 -32.33499908447266 114.6950073242188 -32.97299957275391 C 113.3223342895508 -33.61100006103516 111.9980010986328 -33.93000030517578 110.7220001220703 -33.93000030517578 C 110.0646743774414 -33.93000030517578 109.3976745605469 -33.87200164794922 108.7210083007812 -33.75600051879883 C 108.0443344116211 -33.63999938964844 107.4353332519531 -33.41766738891602 106.8940048217773 -33.0890007019043 C 106.352668762207 -32.76033020019531 105.8983383178711 -32.33499908447266 105.531005859375 -31.8129997253418 C 105.1636734008789 -31.29100036621094 104.9800033569336 -30.62400054931641 104.9800033569336 -29.8120002746582 C 104.9800033569336 -29.11599922180176 105.125 -28.5359992980957 105.4150009155273 -28.07200050354004 C 105.7050018310547 -27.60799980163574 106.1303405761719 -27.20199966430664 106.6910018920898 -26.85400009155273 C 107.2516708374023 -26.50600051879883 107.9186706542969 -26.1870002746582 108.6920013427734 -25.89699935913086 C 109.4653396606445 -25.60700035095215 110.335334777832 -25.30733299255371 111.302001953125 -24.99799919128418 C 112.6940078735352 -24.53400039672852 114.1440048217773 -24.02166748046875 115.6520004272461 -23.46100044250488 C 117.1600036621094 -22.90033340454102 118.5326690673828 -22.1560001373291 119.7700042724609 -21.22800064086914 C 121.0073394775391 -20.30000114440918 122.0320053100586 -19.14966583251953 122.8440017700195 -17.77699851989746 C 123.656005859375 -16.40433311462402 124.0620040893555 -14.69333267211914 124.0620040893555 -12.64400005340576 C 124.0620040893555 -10.28533363342285 123.6270065307617 -8.24566650390625 122.7570037841797 -6.524999618530273 C 121.8870010375977 -4.804333209991455 120.7173385620117 -3.383333683013916 119.2480010986328 -2.26200008392334 C 117.7786712646484 -1.140666604042053 116.0966720581055 -0.309333324432373 114.2020034790039 0.232000008225441 C 112.3073348999023 0.7733333110809326 110.3546676635742 1.043999910354614 108.3440017700195 1.043999910354614 C 105.4053344726562 1.043999910354614 102.5633392333984 0.53166663646698 99.81800079345703 -0.4930000305175781 C 97.07266998291016 -1.517666697502136 94.79133605957031 -2.977333068847656 92.97400665283203 -4.871999740600586 L 99.47000122070312 -11.48400020599365 C 100.4753341674805 -10.24666595458984 101.7996673583984 -9.212332725524902 103.443000793457 -8.381000518798828 C 105.0863342285156 -7.549666881561279 106.7200012207031 -7.134000301361084 108.3440017700195 -7.134000301361084 C 109.0786666870117 -7.134000301361084 109.7939987182617 -7.211333751678467 110.4900054931641 -7.366000175476074 C 111.1860046386719 -7.520666599273682 111.7950057983398 -7.771999835968018 112.3170013427734 -8.119999885559082 C 112.8390045166016 -8.468000411987305 113.2546691894531 -8.932000160217285 113.5640029907227 -9.51200008392334 C 113.8733367919922 -10.09200000762939 114.0279998779297 -10.78800010681152 114.0279998779297 -11.60000038146973 C 114.0279998779297 -12.37333393096924 113.8346710205078 -13.03066635131836 113.4480056762695 -13.57199954986572 C 113.0613403320312 -14.11333274841309 112.5103378295898 -14.60633277893066 111.7950057983398 -15.05099964141846 C 111.0796661376953 -15.49566650390625 110.1903381347656 -15.90166568756104 109.1270065307617 -16.26899909973145 C 108.0636749267578 -16.63633346557617 106.855339050293 -17.03266716003418 105.5020065307617 -17.45800018310547 C 104.1873397827148 -17.88333320617676 102.9016723632812 -18.38599967956543 101.6450042724609 -18.96599960327148 C 100.3883361816406 -19.54599952697754 99.26700592041016 -20.29033279418945 98.281005859375 -21.19899940490723 C 97.29500579833984 -22.107666015625 96.50233459472656 -23.20966720581055 95.90300750732422 -24.50500106811523 C 95.30367279052734 -25.80033302307129 95.00400543212891 -27.37599945068359 95.00400543212891 -29.23200035095215 C 95.00400543212891 -31.51333618164062 95.46800231933594 -33.46600341796875 96.39600372314453 -35.09000015258789 C 97.32400512695312 -36.7140007019043 98.54199981689453 -38.04800033569336 100.0500030517578 -39.09200286865234 C 101.5580062866211 -40.1359977722168 103.2593383789062 -40.89966583251953 105.1540069580078 -41.38300323486328 C 107.0486679077148 -41.86633682250977 108.9626693725586 -42.10800170898438 110.8960037231445 -42.10800170898438 C 113.2160034179688 -42.10800170898438 115.584342956543 -41.68266677856445 118.0010070800781 -40.83200073242188 C 120.4176712036133 -39.9813346862793 122.5346755981445 -38.72466659545898 124.3520050048828 -37.0620002746582 L 118.0300064086914 -30.39200019836426 Z M 142.2159881591797 0 L 142.2159881591797 -41.06399917602539 L 152.1920013427734 -41.06399917602539 L 152.1920013427734 -8.642000198364258 L 168.0839996337891 -8.642000198364258 L 168.0839996337891 0 L 142.2159881591797 0 Z M 212.1640014648438 0 L 208.9739990234375 -8.062000274658203 L 193.0820007324219 -8.062000274658203 L 190.0659942626953 0 L 179.2779998779297 0 L 196.5039978027344 -41.06399917602539 L 206.1319885253906 -41.06399917602539 L 223.1839904785156 0 L 212.1640014648438 0 Z M 201.1439971923828 -30.10199928283691 L 195.9239959716797 -16.00799942016602 L 206.2480010986328 -16.00799942016602 L 201.1439971923828 -30.10199928283691 Z M 285.2440185546875 0 L 276.3700256347656 -16.29799842834473 L 273.0060119628906 -16.29799842834473 L 273.0060119628906 0 L 263.2620239257812 0 L 263.2620239257812 -41.06399917602539 L 278.9220275878906 -41.06399917602539 C 280.8940124511719 -41.06399917602539 282.8176879882812 -40.86100006103516 284.6930236816406 -40.45499801635742 C 286.568359375 -40.04899597167969 288.2503356933594 -39.36266326904297 289.739013671875 -38.39599990844727 C 291.2276916503906 -37.42933654785156 292.4166870117188 -36.15333557128906 293.3060302734375 -34.56800079345703 C 294.1953430175781 -32.982666015625 294.6400146484375 -31.01066589355469 294.6400146484375 -28.65199851989746 C 294.6400146484375 -25.86800003051758 293.8860168457031 -23.52866554260254 292.3780212402344 -21.63399887084961 C 290.8700256347656 -19.73933219909668 288.7820129394531 -18.38599967956543 286.114013671875 -17.57399940490723 L 296.8440246582031 0 L 285.2440185546875 0 Z M 284.8380126953125 -28.47800064086914 C 284.8380126953125 -29.44466590881348 284.635009765625 -30.22766494750977 284.22900390625 -30.82699966430664 C 283.8230285644531 -31.42633247375488 283.301025390625 -31.89033317565918 282.6630249023438 -32.21899795532227 C 282.0250244140625 -32.54766845703125 281.3096923828125 -32.77000045776367 280.5170288085938 -32.8859977722168 C 279.7243347167969 -33.00199890136719 278.9606628417969 -33.06000137329102 278.2260131835938 -33.06000137329102 L 272.9480285644531 -33.06000137329102 L 272.9480285644531 -23.48999977111816 L 277.6460266113281 -23.48999977111816 C 278.4580078125 -23.48999977111816 279.2893371582031 -23.55766677856445 280.1400146484375 -23.6929988861084 C 280.9906921386719 -23.82833290100098 281.7640075683594 -24.06999969482422 282.4600219726562 -24.41799926757812 C 283.1560363769531 -24.76600074768066 283.7263488769531 -25.26866722106934 284.1710205078125 -25.92600059509277 C 284.6156921386719 -26.58333206176758 284.8380126953125 -27.43400001525879 284.8380126953125 -28.47800064086914 Z M 356.1199951171875 -20.70599937438965 C 356.1199951171875 -17.45800018310547 355.559326171875 -14.49033355712891 354.43798828125 -11.80300045013428 C 353.3166809082031 -9.115667343139648 351.7603454589844 -6.815000534057617 349.7690124511719 -4.901000022888184 C 347.7776489257812 -2.986999988555908 345.4093322753906 -1.508000016212463 342.6640014648438 -0.464000016450882 C 339.9186706542969 0.5800000429153442 336.9413146972656 1.101999998092651 333.7319946289062 1.101999998092651 C 330.5226745605469 1.101999998092651 327.5549926757812 0.5800000429153442 324.8290100097656 -0.464000016450882 C 322.1029968261719 -1.508000016212463 319.7443237304688 -2.986999988555908 317.7529907226562 -4.901000022888184 C 315.7616577148438 -6.815000534057617 314.205322265625 -9.115667343139648 313.0840148925781 -11.80300045013428 C 311.9626770019531 -14.49033355712891 311.4020080566406 -17.45800018310547 311.4020080566406 -20.70599937438965 C 311.4020080566406 -23.99266624450684 311.9626770019531 -26.9603328704834 313.0840148925781 -29.60900115966797 C 314.205322265625 -32.25766754150391 315.7616577148438 -34.5099983215332 317.7529907226562 -36.36599731445312 C 319.7443237304688 -38.22200012207031 322.1029968261719 -39.65266799926758 324.8290100097656 -40.65799713134766 C 327.5549926757812 -41.66333389282227 330.5226745605469 -42.16600036621094 333.7319946289062 -42.16600036621094 C 336.9413146972656 -42.16600036621094 339.9186706542969 -41.66333389282227 342.6640014648438 -40.65799713134766 C 345.4093322753906 -39.65266799926758 347.7776489257812 -38.22200012207031 349.7690124511719 -36.36599731445312 C 351.7603454589844 -34.5099983215332 353.3166809082031 -32.25766754150391 354.43798828125 -29.60900115966797 C 355.559326171875 -26.9603328704834 356.1199951171875 -23.99266624450684 356.1199951171875 -20.70599937438965 Z M 345.5060119628906 -20.70599937438965 C 345.5060119628906 -22.48466682434082 345.2160034179688 -24.1473331451416 344.635986328125 -25.69400024414062 C 344.0559997558594 -27.24066734313965 343.253662109375 -28.56500053405762 342.22900390625 -29.66699981689453 C 341.204345703125 -30.76900100708008 339.9670104980469 -31.63900184631348 338.5169982910156 -32.27700042724609 C 337.0670166015625 -32.91500091552734 335.4720153808594 -33.23400115966797 333.7319946289062 -33.23400115966797 C 331.9920043945312 -33.23400115966797 330.4066772460938 -32.91500091552734 328.9760131835938 -32.27700042724609 C 327.5453186035156 -31.63900184631348 326.3079833984375 -30.76900100708008 325.2640075683594 -29.66699981689453 C 324.2200012207031 -28.56500053405762 323.4176635742188 -27.24066734313965 322.8569946289062 -25.69400024414062 C 322.2963256835938 -24.1473331451416 322.0159912109375 -22.48466682434082 322.0159912109375 -20.70599937438965 C 322.0159912109375 -18.84999847412109 322.3059997558594 -17.13899993896484 322.885986328125 -15.57299995422363 C 323.4660034179688 -14.00699996948242 324.2683410644531 -12.66333293914795 325.2929992675781 -11.54199981689453 C 326.3176574707031 -10.42066669464111 327.5453186035156 -9.540999412536621 328.9760131835938 -8.902999877929688 C 330.4066772460938 -8.264999389648438 331.9920043945312 -7.945999622344971 333.7319946289062 -7.945999622344971 C 335.4720153808594 -7.945999622344971 337.0573425292969 -8.264999389648438 338.4880065917969 -8.902999877929688 C 339.9186706542969 -9.540999412536621 341.156005859375 -10.42066669464111 342.2000122070312 -11.54199981689453 C 343.2439880371094 -12.66333293914795 344.0559997558594 -14.00699996948242 344.635986328125 -15.57299995422363 C 345.2160034179688 -17.13899993896484 345.5060119628906 -18.84999847412109 345.5060119628906 -20.70599937438965 Z M 401.0700073242188 0 L 397.8800048828125 -8.062000274658203 L 381.9880065917969 -8.062000274658203 L 378.9720153808594 0 L 368.1839904785156 0 L 385.4100036621094 -41.06399917602539 L 395.0379943847656 -41.06399917602539 L 412.0899963378906 0 L 401.0700073242188 0 Z M 390.0499877929688 -30.10199928283691 L 384.8300170898438 -16.00799942016602 L 395.1539916992188 -16.00799942016602 L 390.0499877929688 -30.10199928283691 Z M 465.4499816894531 -20.64800071716309 C 465.4499816894531 -17.05200004577637 464.7829895019531 -13.94900035858154 463.4490051269531 -11.33899974822998 C 462.114990234375 -8.729000091552734 460.3556518554688 -6.583000183105469 458.1709899902344 -4.901000022888184 C 455.986328125 -3.218999862670898 453.5213317871094 -1.981666684150696 450.7760009765625 -1.189000010490417 C 448.0306701660156 -0.3963333368301392 445.2466430664062 0 442.4239807128906 0 L 427.1119995117188 0 L 427.1119995117188 -41.06399917602539 L 441.9599914550781 -41.06399917602539 C 444.8599853515625 -41.06399917602539 447.7213439941406 -40.72566604614258 450.5440063476562 -40.04899978637695 C 453.3666687011719 -39.37233352661133 455.8799743652344 -38.25099945068359 458.083984375 -36.68500137329102 C 460.2879943847656 -35.11899948120117 462.066650390625 -33.02133178710938 463.4199829101562 -30.39200019836426 C 464.7733154296875 -27.76266670227051 465.4499816894531 -24.51466751098633 465.4499816894531 -20.64800071716309 Z M 455.1259765625 -20.64800071716309 C 455.1259765625 -22.9680004119873 454.7489929199219 -24.89166641235352 453.9949951171875 -26.41900062561035 C 453.2409973144531 -27.94633483886719 452.2356567382812 -29.16433334350586 450.97900390625 -30.072998046875 C 449.7223205566406 -30.98166465759277 448.2916564941406 -31.62933158874512 446.6869812011719 -32.01599884033203 C 445.0823364257812 -32.40266418457031 443.4293212890625 -32.59599685668945 441.7279968261719 -32.59599685668945 L 436.7980041503906 -32.59599685668945 L 436.7980041503906 -8.583999633789062 L 441.4960021972656 -8.583999633789062 C 443.274658203125 -8.583999633789062 444.9856567382812 -8.786999702453613 446.6289978027344 -9.192999839782715 C 448.2723388671875 -9.598999977111816 449.7223205566406 -10.26599979400635 450.97900390625 -11.19400024414062 C 452.2356567382812 -12.12199974060059 453.2409973144531 -13.35933303833008 453.9949951171875 -14.9060001373291 C 454.7489929199219 -16.45266723632812 455.1259765625 -18.36666679382324 455.1259765625 -20.64800071716309 Z M 505.2959899902344 -30.39200019836426 C 504.4453125 -31.47466659545898 503.3336486816406 -32.33499908447266 501.9609985351562 -32.97299957275391 C 500.5883483886719 -33.61100006103516 499.2640075683594 -33.93000030517578 497.9880065917969 -33.93000030517578 C 497.3306579589844 -33.93000030517578 496.6636657714844 -33.87200164794922 495.9869995117188 -33.75600051879883 C 495.3103332519531 -33.63999938964844 494.7013244628906 -33.41766738891602 494.1600036621094 -33.0890007019043 C 493.61865234375 -32.76033020019531 493.1643371582031 -32.33499908447266 492.7969970703125 -31.8129997253418 C 492.4296569824219 -31.29100036621094 492.2460021972656 -30.62400054931641 492.2460021972656 -29.8120002746582 C 492.2460021972656 -29.11599922180176 492.3909912109375 -28.5359992980957 492.6809997558594 -28.07200050354004 C 492.9710083007812 -27.60799980163574 493.3963317871094 -27.20199966430664 493.9570007324219 -26.85400009155273 C 494.5176696777344 -26.50600051879883 495.1846618652344 -26.1870002746582 495.9580078125 -25.89699935913086 C 496.7313232421875 -25.60700035095215 497.601318359375 -25.30733299255371 498.5679931640625 -24.99799919128418 C 499.9599914550781 -24.53400039672852 501.4100036621094 -24.02166748046875 502.9179992675781 -23.46100044250488 C 504.4259948730469 -22.90033340454102 505.7986755371094 -22.1560001373291 507.0360107421875 -21.22800064086914 C 508.2733459472656 -20.30000114440918 509.2980041503906 -19.14966583251953 510.1099853515625 -17.77699851989746 C 510.9219970703125 -16.40433311462402 511.3280029296875 -14.69333267211914 511.3280029296875 -12.64400005340576 C 511.3280029296875 -10.28533363342285 510.8930053710938 -8.24566650390625 510.0230102539062 -6.524999618530273 C 509.1529846191406 -4.804333209991455 507.9833374023438 -3.383333683013916 506.5140075683594 -2.26200008392334 C 505.044677734375 -1.140666604042053 503.3626708984375 -0.309333324432373 501.4679870605469 0.232000008225441 C 499.5733337402344 0.7733333110809326 497.6206665039062 1.043999910354614 495.6099853515625 1.043999910354614 C 492.6713256835938 1.043999910354614 489.8293151855469 0.53166663646698 487.083984375 -0.4930000305175781 C 484.3386535644531 -1.517666697502136 482.0573425292969 -2.977333068847656 480.239990234375 -4.871999740600586 L 486.7359924316406 -11.48400020599365 C 487.7413330078125 -10.24666595458984 489.0656433105469 -9.212332725524902 490.708984375 -8.381000518798828 C 492.3523254394531 -7.549666881561279 493.9859924316406 -7.134000301361084 495.6099853515625 -7.134000301361084 C 496.3446655273438 -7.134000301361084 497.0599975585938 -7.211333751678467 497.7559814453125 -7.366000175476074 C 498.4519958496094 -7.520666599273682 499.0610046386719 -7.771999835968018 499.5830078125 -8.119999885559082 C 500.1050109863281 -8.468000411987305 500.5206604003906 -8.932000160217285 500.8299865722656 -9.51200008392334 C 501.1393432617188 -10.09200000762939 501.2940063476562 -10.78800010681152 501.2940063476562 -11.60000038146973 C 501.2940063476562 -12.37333393096924 501.1006774902344 -13.03066635131836 500.7139892578125 -13.57199954986572 C 500.3273315429688 -14.11333274841309 499.7763366699219 -14.60633277893066 499.0610046386719 -15.05099964141846 C 498.3456726074219 -15.49566650390625 497.4563293457031 -15.90166568756104 496.3930053710938 -16.26899909973145 C 495.3296813964844 -16.63633346557617 494.121337890625 -17.03266716003418 492.7680053710938 -17.45800018310547 C 491.4533386230469 -17.88333320617676 490.1676635742188 -18.38599967956543 488.9110107421875 -18.96599960327148 C 487.6543273925781 -19.54599952697754 486.5329895019531 -20.29033279418945 485.5469970703125 -21.19899940490723 C 484.5610046386719 -22.107666015625 483.7683410644531 -23.20966720581055 483.1690063476562 -24.50500106811523 C 482.5696716308594 -25.80033302307129 482.2699890136719 -27.37599945068359 482.2699890136719 -29.23200035095215 C 482.2699890136719 -31.51333618164062 482.7339782714844 -33.46600341796875 483.6619873046875 -35.09000015258789 C 484.5899963378906 -36.7140007019043 485.8079833984375 -38.04800033569336 487.3160095214844 -39.09200286865234 C 488.8240051269531 -40.1359977722168 490.5253295898438 -40.89966583251953 492.4199829101562 -41.38300323486328 C 494.3146667480469 -41.86633682250977 496.2286682128906 -42.10800170898438 498.1619873046875 -42.10800170898438 C 500.4819946289062 -42.10800170898438 502.850341796875 -41.68266677856445 505.2669982910156 -40.83200073242188 C 507.6836547851562 -39.9813346862793 509.8006591796875 -38.72466659545898 511.6179809570312 -37.0620002746582 L 505.2959899902344 -30.39200019836426 Z M 546.302001953125 -32.59599685668945 L 546.302001953125 0 L 536.384033203125 0 L 536.384033203125 -32.59599685668945 L 524.7839965820312 -32.59599685668945 L 524.7839965820312 -41.06399917602539 L 557.9020385742188 -41.06399917602539 L 557.9020385742188 -32.59599685668945 L 546.302001953125 -32.59599685668945 Z M 574.0260009765625 0 L 574.0260009765625 -41.06399917602539 L 601.6339721679688 -41.06399917602539 L 601.6339721679688 -32.65400314331055 L 583.5960083007812 -32.65400314331055 L 583.5960083007812 -24.94000053405762 L 600.6480102539062 -24.94000053405762 L 600.6480102539062 -16.9940013885498 L 583.5960083007812 -16.9940013885498 L 583.5960083007812 -8.467999458312988 L 602.677978515625 -8.467999458312988 L 602.677978515625 0 L 574.0260009765625 0 Z M 642.8140258789062 0 L 633.9400024414062 -16.29799842834473 L 630.5760498046875 -16.29799842834473 L 630.5760498046875 0 L 620.83203125 0 L 620.83203125 -41.06399917602539 L 636.4920043945312 -41.06399917602539 C 638.4639892578125 -41.06399917602539 640.3876953125 -40.86100006103516 642.2630004882812 -40.45499801635742 C 644.1383666992188 -40.04899597167969 645.8203735351562 -39.36266326904297 647.3090209960938 -38.39599990844727 C 648.7976684570312 -37.42933654785156 649.9866943359375 -36.15333557128906 650.8760375976562 -34.56800079345703 C 651.765380859375 -32.982666015625 652.2100219726562 -31.01066589355469 652.2100219726562 -28.65199851989746 C 652.2100219726562 -25.86800003051758 651.4559936523438 -23.52866554260254 649.947998046875 -21.63399887084961 C 648.4400024414062 -19.73933219909668 646.35205078125 -18.38599967956543 643.6840209960938 -17.57399940490723 L 654.4140014648438 0 L 642.8140258789062 0 Z M 642.4080200195312 -28.47800064086914 C 642.4080200195312 -29.44466590881348 642.2050170898438 -30.22766494750977 641.7990112304688 -30.82699966430664 C 641.3930053710938 -31.42633247375488 640.8710327148438 -31.89033317565918 640.2330322265625 -32.21899795532227 C 639.5950317382812 -32.54766845703125 638.8796997070312 -32.77000045776367 638.0870361328125 -32.8859977722168 C 637.2943725585938 -33.00199890136719 636.5307006835938 -33.06000137329102 635.7960205078125 -33.06000137329102 L 630.5180053710938 -33.06000137329102 L 630.5180053710938 -23.48999977111816 L 635.2160034179688 -23.48999977111816 C 636.0280151367188 -23.48999977111816 636.859375 -23.55766677856445 637.7100219726562 -23.6929988861084 C 638.5606689453125 -23.82833290100098 639.3340454101562 -24.06999969482422 640.030029296875 -24.41799926757812 C 640.7260131835938 -24.76600074768066 641.29638671875 -25.26866722106934 641.7410278320312 -25.92600059509277 C 642.1856689453125 -26.58333206176758 642.4080200195312 -27.43400001525879 642.4080200195312 -28.47800064086914 Z M 3.944000244140625 100 L 3.944000244140625 91.87999725341797 L 19.95200157165527 77.3800048828125 C 20.95733451843262 76.41333770751953 21.76933479309082 75.42733001708984 22.38800048828125 74.4219970703125 C 23.00666618347168 73.41666412353516 23.31599998474121 72.29533386230469 23.31599998474121 71.05799865722656 C 23.31599998474121 69.58866882324219 22.85199928283691 68.39966583251953 21.92399978637695 67.49099731445312 C 20.99600028991699 66.58233642578125 19.7586669921875 66.12800598144531 18.21199989318848 66.12800598144531 C 16.5880012512207 66.12800598144531 15.26366710662842 66.69834136962891 14.23900032043457 67.83900451660156 C 13.21433353424072 68.97966766357422 12.60533332824707 70.47800445556641 12.41199970245361 72.33399963378906 L 3.073999881744385 71.05799865722656 C 3.305999994277954 68.97000122070312 3.876333236694336 67.11399841308594 4.785000324249268 65.48999786376953 C 5.693666458129883 63.86599731445312 6.843999862670898 62.48366546630859 8.236000061035156 61.34300231933594 C 9.628000259399414 60.20233535766602 11.22300052642822 59.33233261108398 13.02099990844727 58.73300170898438 C 14.81899929046631 58.1336669921875 16.72333335876465 57.83399963378906 18.73400115966797 57.83399963378906 C 20.6286678314209 57.83399963378906 22.46533393859863 58.08533477783203 24.2440013885498 58.5880012512207 C 26.02266693115234 59.09066772460938 27.60799980163574 59.8640022277832 29 60.90799713134766 C 30.39200019836426 61.95199966430664 31.5036678314209 63.26666641235352 32.33499908447266 64.85200500488281 C 33.16633224487305 66.43733215332031 33.58200073242188 68.29332733154297 33.58200073242188 70.41999816894531 C 33.58200073242188 71.88933563232422 33.38866806030273 73.21366882324219 33.00199890136719 74.39299774169922 C 32.61533355712891 75.57233428955078 32.08366775512695 76.66466522216797 31.40699768066406 77.66999816894531 C 30.73033332824707 78.67533111572266 29.95700073242188 79.61299896240234 29.08699989318848 80.48300170898438 C 28.21699905395508 81.35300445556641 27.31800079345703 82.21333312988281 26.39000129699707 83.06400299072266 L 16.87800025939941 91.53199768066406 L 33.63999938964844 91.53199768066406 L 33.63999938964844 100 L 3.944000244140625 100 Z M 83.86800384521484 79.35199737548828 C 83.86800384521484 82.25199890136719 83.5780029296875 85.01667022705078 82.99800109863281 87.64599609375 C 82.41800689697266 90.27532958984375 81.49000549316406 92.58566284179688 80.21400451660156 94.57699584960938 C 78.93800354003906 96.56833648681641 77.28500366210938 98.15367126464844 75.2550048828125 99.33300018310547 C 73.22499847412109 100.5123291015625 70.76000213623047 101.1019973754883 67.86000061035156 101.1019973754883 C 64.95999908447266 101.1019973754883 62.48533630371094 100.5123291015625 60.43600082397461 99.33300018310547 C 58.38666534423828 98.15367126464844 56.71433258056641 96.56833648681641 55.41899871826172 94.57699584960938 C 54.1236686706543 92.58566284179688 53.18600082397461 90.27532958984375 52.60600280761719 87.64599609375 C 52.0260009765625 85.01667022705078 51.73600006103516 82.25199890136719 51.73600006103516 79.35199737548828 C 51.73600006103516 76.45199584960938 52.0260009765625 73.69699859619141 52.60600280761719 71.08699798583984 C 53.18600082397461 68.47699737548828 54.1236686706543 66.19566345214844 55.41899871826172 64.24299621582031 C 56.71433258056641 62.29033279418945 58.38666534423828 60.7339973449707 60.43600082397461 59.57399749755859 C 62.48533630371094 58.41399765014648 64.95999908447266 57.83399963378906 67.86000061035156 57.83399963378906 C 70.76000213623047 57.83399963378906 73.22499847412109 58.41399765014648 75.2550048828125 59.57399749755859 C 77.28500366210938 60.7339973449707 78.93800354003906 62.29033279418945 80.21400451660156 64.24299621582031 C 81.49000549316406 66.19566345214844 82.41800689697266 68.47699737548828 82.99800109863281 71.08699798583984 C 83.5780029296875 73.69699859619141 83.86800384521484 76.45199584960938 83.86800384521484 79.35199737548828 Z M 73.89199829101562 79.35199737548828 C 73.89199829101562 78.07600402832031 73.81466674804688 76.66466522216797 73.66000366210938 75.11799621582031 C 73.50533294677734 73.57132720947266 73.21533203125 72.13099670410156 72.79000091552734 70.7969970703125 C 72.36466979980469 69.46300506591797 71.75566864013672 68.34166717529297 70.96299743652344 67.43299865722656 C 70.17033386230469 66.52433013916016 69.13600158691406 66.06999969482422 67.86000061035156 66.06999969482422 C 66.58399963378906 66.06999969482422 65.54000091552734 66.52433013916016 64.72800445556641 67.43299865722656 C 63.9160041809082 68.34166717529297 63.28767013549805 69.46300506591797 62.84300231933594 70.7969970703125 C 62.39833450317383 72.13099670410156 62.09866714477539 73.57132720947266 61.94400024414062 75.11799621582031 C 61.78933334350586 76.66466522216797 61.71200180053711 78.07600402832031 61.71200180053711 79.35199737548828 C 61.71200180053711 80.66666412353516 61.78933334350586 82.10699462890625 61.94400024414062 83.67299652099609 C 62.09866714477539 85.23899841308594 62.39833450317383 86.68900299072266 62.84300231933594 88.02300262451172 C 63.28767013549805 89.35700225830078 63.9160041809082 90.47833251953125 64.72800445556641 91.38700103759766 C 65.54000091552734 92.29566955566406 66.58399963378906 92.75 67.86000061035156 92.75 C 69.13600158691406 92.75 70.17033386230469 92.29566955566406 70.96299743652344 91.38700103759766 C 71.75566864013672 90.47833251953125 72.36466979980469 89.35700225830078 72.79000091552734 88.02300262451172 C 73.21533203125 86.68900299072266 73.50533294677734 85.23899841308594 73.66000366210938 83.67299652099609 C 73.81466674804688 82.10699462890625 73.89199829101562 80.66666412353516 73.89199829101562 79.35199737548828 Z M 102.0800018310547 100 L 102.0800018310547 91.87999725341797 L 118.088005065918 77.3800048828125 C 119.0933380126953 76.41333770751953 119.9053344726562 75.42733001708984 120.5240020751953 74.4219970703125 C 121.1426696777344 73.41666412353516 121.4520034790039 72.29533386230469 121.4520034790039 71.05799865722656 C 121.4520034790039 69.58866882324219 120.9879989624023 68.39966583251953 120.0599975585938 67.49099731445312 C 119.1319961547852 66.58233642578125 117.8946685791016 66.12800598144531 116.3479995727539 66.12800598144531 C 114.7239990234375 66.12800598144531 113.3996658325195 66.69834136962891 112.375 67.83900451660156 C 111.3503341674805 68.97966766357422 110.7413330078125 70.47800445556641 110.5480041503906 72.33399963378906 L 101.2099990844727 71.05799865722656 C 101.4420013427734 68.97000122070312 102.012336730957 67.11399841308594 102.9210052490234 65.48999786376953 C 103.8296737670898 63.86599731445312 104.9800033569336 62.48366546630859 106.3720016479492 61.34300231933594 C 107.7639999389648 60.20233535766602 109.359001159668 59.33233261108398 111.1569976806641 58.73300170898438 C 112.9550018310547 58.1336669921875 114.8593368530273 57.83399963378906 116.870002746582 57.83399963378906 C 118.7646713256836 57.83399963378906 120.6013412475586 58.08533477783203 122.3800048828125 58.5880012512207 C 124.1586685180664 59.09066772460938 125.7440032958984 59.8640022277832 127.1360015869141 60.90799713134766 C 128.5279998779297 61.95199966430664 129.6396636962891 63.26666641235352 130.4710083007812 64.85200500488281 C 131.3023376464844 66.43733215332031 131.7180023193359 68.29332733154297 131.7180023193359 70.41999816894531 C 131.7180023193359 71.88933563232422 131.5246734619141 73.21366882324219 131.1380004882812 74.39299774169922 C 130.7513275146484 75.57233428955078 130.2196655273438 76.66466522216797 129.5429992675781 77.66999816894531 C 128.8663330078125 78.67533111572266 128.0930023193359 79.61299896240234 127.2229995727539 80.48300170898438 C 126.3529968261719 81.35300445556641 125.4540023803711 82.21333312988281 124.5260009765625 83.06400299072266 L 115.0139999389648 91.53199768066406 L 131.7760009765625 91.53199768066406 L 131.7760009765625 100 L 102.0800018310547 100 Z M 182.0039978027344 79.35199737548828 C 182.0039978027344 82.25199890136719 181.7140045166016 85.01667022705078 181.1340026855469 87.64599609375 C 180.5540008544922 90.27532958984375 179.6259918212891 92.58566284179688 178.3499908447266 94.57699584960938 C 177.0739898681641 96.56833648681641 175.4209899902344 98.15367126464844 173.3909912109375 99.33300018310547 C 171.3609924316406 100.5123291015625 168.89599609375 101.1019973754883 165.9960021972656 101.1019973754883 C 163.0959930419922 101.1019973754883 160.6213226318359 100.5123291015625 158.5719909667969 99.33300018310547 C 156.5226593017578 98.15367126464844 154.8503265380859 96.56833648681641 153.5549926757812 94.57699584960938 C 152.2596588134766 92.58566284179688 151.3219909667969 90.27532958984375 150.7419891357422 87.64599609375 C 150.1619873046875 85.01667022705078 149.8719940185547 82.25199890136719 149.8719940185547 79.35199737548828 C 149.8719940185547 76.45199584960938 150.1619873046875 73.69699859619141 150.7419891357422 71.08699798583984 C 151.3219909667969 68.47699737548828 152.2596588134766 66.19566345214844 153.5549926757812 64.24299621582031 C 154.8503265380859 62.29033279418945 156.5226593017578 60.7339973449707 158.5719909667969 59.57399749755859 C 160.6213226318359 58.41399765014648 163.0959930419922 57.83399963378906 165.9960021972656 57.83399963378906 C 168.89599609375 57.83399963378906 171.3609924316406 58.41399765014648 173.3909912109375 59.57399749755859 C 175.4209899902344 60.7339973449707 177.0739898681641 62.29033279418945 178.3499908447266 64.24299621582031 C 179.6259918212891 66.19566345214844 180.5540008544922 68.47699737548828 181.1340026855469 71.08699798583984 C 181.7140045166016 73.69699859619141 182.0039978027344 76.45199584960938 182.0039978027344 79.35199737548828 Z M 172.0279998779297 79.35199737548828 C 172.0279998779297 78.07600402832031 171.9506683349609 76.66466522216797 171.7959899902344 75.11799621582031 C 171.6413269042969 73.57132720947266 171.3513336181641 72.13099670410156 170.9259948730469 70.7969970703125 C 170.5006561279297 69.46300506591797 169.8916625976562 68.34166717529297 169.0989990234375 67.43299865722656 C 168.3063201904297 66.52433013916016 167.2719879150391 66.06999969482422 165.9960021972656 66.06999969482422 C 164.7200012207031 66.06999969482422 163.6759948730469 66.52433013916016 162.8639984130859 67.43299865722656 C 162.052001953125 68.34166717529297 161.4236602783203 69.46300506591797 160.9789886474609 70.7969970703125 C 160.5343322753906 72.13099670410156 160.2346649169922 73.57132720947266 160.0800018310547 75.11799621582031 C 159.9253234863281 76.66466522216797 159.8479919433594 78.07600402832031 159.8479919433594 79.35199737548828 C 159.8479919433594 80.66666412353516 159.9253234863281 82.10699462890625 160.0800018310547 83.67299652099609 C 160.2346649169922 85.23899841308594 160.5343322753906 86.68900299072266 160.9789886474609 88.02300262451172 C 161.4236602783203 89.35700225830078 162.052001953125 90.47833251953125 162.8639984130859 91.38700103759766 C 163.6759948730469 92.29566955566406 164.7200012207031 92.75 165.9960021972656 92.75 C 167.2719879150391 92.75 168.3063201904297 92.29566955566406 169.0989990234375 91.38700103759766 C 169.8916625976562 90.47833251953125 170.5006561279297 89.35700225830078 170.9259948730469 88.02300262451172 C 171.3513336181641 86.68900299072266 171.6413269042969 85.23899841308594 171.7959899902344 83.67299652099609 C 171.9506683349609 82.10699462890625 172.0279998779297 80.66666412353516 172.0279998779297 79.35199737548828 Z"
     id="Path_370" />
</svg>
