<?xml version="1.0" encoding="utf-8"?>
<!-- Generator: Adobe Illustrator 24.2.1, SVG Export Plug-In . SVG Version: 6.00 Build 0)  -->
<svg version="1.1"
	 id="svg56" xmlns:cc="http://creativecommons.org/ns#" xmlns:dc="http://purl.org/dc/elements/1.1/" xmlns:rdf="http://www.w3.org/1999/02/22-rdf-syntax-ns#" xmlns:svg="http://www.w3.org/2000/svg"
	 xmlns="http://www.w3.org/2000/svg" xmlns:xlink="http://www.w3.org/1999/xlink" x="0px" y="0px" viewBox="0 0 792.1 138.8"
	 style="enable-background:new 0 0 792.1 138.8;" xml:space="preserve">
<path id="Path_369" d="M21.6,58.6v32.7h-9.9V58.6H0v-8.5h33.2v8.5H21.6z M49.3,91.3V50.1H77v8.4H58.9v7.7H76v8H58.9v8.5h19.1v8.5
	H49.3z M118,60.8c-0.9-1.1-2-1.9-3.3-2.6c-1.4-0.6-2.7-1-4-1c-0.7,0-1.3,0.1-2,0.2c-0.7,0.1-1.3,0.3-1.8,0.7c-0.5,0.3-1,0.8-1.4,1.3
	s-0.6,1.2-0.6,2c0,0.7,0.1,1.3,0.4,1.7c0.3,0.5,0.7,0.9,1.3,1.2c0.6,0.3,1.2,0.7,2,1c0.8,0.3,1.6,0.6,2.6,0.9c1.4,0.5,2.8,1,4.4,1.5
	s2.9,1.3,4.1,2.2s2.3,2.1,3.1,3.5c0.8,1.4,1.2,3.1,1.2,5.1c0,2.4-0.4,4.4-1.3,6.1c-0.9,1.7-2,3.1-3.5,4.3c-1.5,1.1-3.2,2-5.1,2.5
	c-1.9,0.5-3.9,0.8-5.9,0.8c-2.9,0-5.8-0.5-8.5-1.5s-5-2.5-6.9-4.4l6.5-6.6c1,1.2,2.3,2.3,4,3.1c1.6,0.8,3.3,1.2,4.9,1.2
	c0.7,0,1.5-0.1,2.2-0.2s1.3-0.4,1.8-0.8c0.5-0.3,0.9-0.8,1.2-1.4c0.3-0.6,0.5-1.3,0.5-2.1c0-0.8-0.2-1.4-0.6-2
	c-0.4-0.5-0.9-1-1.7-1.5c-0.7-0.4-1.6-0.9-2.7-1.2c-1.1-0.4-2.3-0.8-3.6-1.2c-1.3-0.4-2.6-0.9-3.9-1.5c-1.3-0.6-2.4-1.3-3.4-2.2
	c-1-0.9-1.8-2-2.4-3.3c-0.6-1.3-0.9-2.9-0.9-4.7c0-2.3,0.5-4.2,1.4-5.9c0.9-1.6,2.2-3,3.7-4s3.2-1.8,5.1-2.3s3.8-0.7,5.8-0.7
	c2.3,0,4.7,0.4,7.1,1.3c2.4,0.9,4.5,2.1,6.4,3.8L118,60.8z M142.2,91.3V50.1h10v32.5h15.9v8.7H142.2z M212.3,91.3l-3.2-8.1h-15.9
	l-3,8.1h-10.8l17.3-41.2h9.6l17.1,41.2H212.3z M201.3,61.1L196,75.2h10.3L201.3,61.1z M285.3,60.8c-0.9-1.1-2-1.9-3.3-2.6
	c-1.4-0.6-2.7-1-4-1c-0.7,0-1.3,0.1-2,0.2c-0.7,0.1-1.3,0.3-1.8,0.7c-0.5,0.3-1,0.8-1.4,1.3c-0.4,0.5-0.6,1.2-0.6,2
	c0,0.7,0.1,1.3,0.4,1.7c0.3,0.5,0.7,0.9,1.3,1.2c0.6,0.3,1.2,0.7,2,1c0.8,0.3,1.6,0.6,2.6,0.9c1.4,0.5,2.8,1,4.4,1.5
	c1.5,0.6,2.9,1.3,4.1,2.2s2.3,2.1,3.1,3.5c0.8,1.4,1.2,3.1,1.2,5.1c0,2.4-0.4,4.4-1.3,6.1c-0.9,1.7-2,3.1-3.5,4.3s-3.2,2-5.1,2.5
	c-1.9,0.5-3.9,0.8-5.9,0.8c-2.9,0-5.8-0.5-8.5-1.5c-2.8-1-5-2.5-6.9-4.4l6.5-6.6c1,1.2,2.3,2.3,4,3.1c1.6,0.8,3.3,1.2,4.9,1.2
	c0.7,0,1.5-0.1,2.2-0.2c0.7-0.2,1.3-0.4,1.8-0.8c0.5-0.3,0.9-0.8,1.2-1.4c0.3-0.6,0.5-1.3,0.5-2.1c0-0.8-0.2-1.4-0.6-2
	s-0.9-1-1.7-1.5c-0.7-0.4-1.6-0.9-2.7-1.2s-2.3-0.8-3.6-1.2c-1.3-0.4-2.6-0.9-3.9-1.5c-1.3-0.6-2.4-1.3-3.4-2.2
	c-1-0.9-1.8-2-2.4-3.3c-0.6-1.3-0.9-2.9-0.9-4.7c0-2.3,0.5-4.2,1.4-5.9s2.2-3,3.7-4c1.5-1,3.2-1.8,5.1-2.3c1.9-0.5,3.8-0.7,5.8-0.7
	c2.3,0,4.7,0.4,7.1,1.3c2.4,0.9,4.5,2.1,6.4,3.8L285.3,60.8z M309.5,91.3V50.1h27.7v8.4h-18.1v7.7h17.1v8h-17.1v8.5h19.1v8.5H309.5z
	 M393.7,91.3l0.2-29.1h-0.2l-10.7,29.1h-7l-10.4-29.1h-0.2l0.2,29.1h-9.4V50.1h14.1l9.4,26.4h0.2l9-26.4h14.4v41.2H393.7z
	 M423.5,91.3V50.1h10v41.2H423.5z"/>
</svg>
