<?xml version="1.0" encoding="UTF-8" standalone="no"?>
<svg
   xmlns:dc="http://purl.org/dc/elements/1.1/"
   xmlns:cc="http://creativecommons.org/ns#"
   xmlns:rdf="http://www.w3.org/1999/02/22-rdf-syntax-ns#"
   xmlns:svg="http://www.w3.org/2000/svg"
   xmlns="http://www.w3.org/2000/svg"
   id="svg56"
   version="1.1"
   viewBox="-206.993 -39.93 410.245 40.92"
   class="Path_369">
  <metadata
     id="metadata62">
    <rdf:RDF>
      <cc:Work
         rdf:about="">
        <dc:format>image/svg+xml</dc:format>
        <dc:type
           rdf:resource="http://purl.org/dc/dcmitype/StillImage" />
        <dc:title></dc:title>
      </cc:Work>
    </rdf:RDF>
  </metadata>
  <defs
     id="defs60" />
  <path
     d="M -186.5875091552734 -30.90999794006348 L -186.5875091552734 0 L -195.9925079345703 0 L -195.9925079345703 -30.90999794006348 L -206.9925079345703 -30.90999794006348 L -206.9925079345703 -38.93999862670898 L -175.5875091552734 -38.93999862670898 L -175.5875091552734 -30.90999794006348 L -186.5875091552734 -30.90999794006348 Z M -160.2975006103516 0 L -160.2975006103516 -38.93999862670898 L -134.1174926757812 -38.93999862670898 L -134.1174926757812 -30.96500205993652 L -151.2225036621094 -30.96500205993652 L -151.2225036621094 -23.64999961853027 L -135.0525054931641 -23.64999961853027 L -135.0525054931641 -16.11499977111816 L -151.2225036621094 -16.11499977111816 L -151.2225036621094 -8.029999732971191 L -133.1275024414062 -8.029999732971191 L -133.1275024414062 0 L -160.2975006103516 0 Z M -95.34250640869141 -28.81999969482422 C -96.149169921875 -29.84666633605957 -97.20333862304688 -30.66249847412109 -98.5050048828125 -31.26749992370605 C -99.80667114257812 -31.87249946594238 -101.0625076293945 -32.17499923706055 -102.2725067138672 -32.17499923706055 C -102.8958358764648 -32.17499923706055 -103.5283355712891 -32.11999893188477 -104.1700057983398 -32.01000213623047 C -104.8116760253906 -31.89999961853027 -105.3891754150391 -31.68916702270508 -105.9025039672852 -31.37750053405762 C -106.4158401489258 -31.06583213806152 -106.8466720581055 -30.66249847412109 -107.1950073242188 -30.16749954223633 C -107.543342590332 -29.67250061035156 -107.7175064086914 -29.04000091552734 -107.7175064086914 -28.27000045776367 C -107.7175064086914 -27.60999870300293 -107.5800094604492 -27.05999946594238 -107.3050079345703 -26.61999893188477 C -107.0300064086914 -26.18000030517578 -106.6266708374023 -25.79500007629395 -106.0950012207031 -25.46500015258789 C -105.5633392333984 -25.13500022888184 -104.9308395385742 -24.83250045776367 -104.1975021362305 -24.5575008392334 C -103.4641723632812 -24.28250122070312 -102.6391677856445 -23.99833297729492 -101.7225036621094 -23.70499992370605 C -100.4025039672852 -23.26499938964844 -99.02750396728516 -22.77916717529297 -97.59750366210938 -22.24750137329102 C -96.16750335693359 -21.71583366394043 -94.86583709716797 -21.0099983215332 -93.6925048828125 -20.1299991607666 C -92.51917266845703 -19.25 -91.54750823974609 -18.1591682434082 -90.77751159667969 -16.85750007629395 C -90.00750732421875 -15.555832862854 -89.62250518798828 -13.93333339691162 -89.62250518798828 -11.98999977111816 C -89.62250518798828 -9.75333309173584 -90.03500366210938 -7.819167137145996 -90.86000061035156 -6.1875 C -91.68500518798828 -4.555833339691162 -92.79417419433594 -3.208333492279053 -94.18750762939453 -2.144999980926514 C -95.58084106445312 -1.081666588783264 -97.17583465576172 -0.2933333516120911 -98.97250366210938 0.2200000137090683 C -100.769172668457 0.7333333492279053 -102.6208343505859 0.9899999499320984 -104.5275039672852 0.9899999499320984 C -107.3141708374023 0.9899999499320984 -110.0091705322266 0.5041666626930237 -112.6125030517578 -0.4675000309944153 C -115.2158355712891 -1.439166784286499 -117.3791732788086 -2.823333263397217 -119.1025085449219 -4.619999885559082 L -112.9425048828125 -10.89000034332275 C -111.9891738891602 -9.716667175292969 -110.7333374023438 -8.735833168029785 -109.1750030517578 -7.947500228881836 C -107.6166763305664 -7.159166812896729 -106.0675048828125 -6.765000343322754 -104.5275039672852 -6.765000343322754 C -103.8308410644531 -6.765000343322754 -103.1525039672852 -6.838333606719971 -102.4925079345703 -6.985000133514404 C -101.8325042724609 -7.131666660308838 -101.2550048828125 -7.369999885559082 -100.7600021362305 -7.699999809265137 C -100.2649993896484 -8.030000686645508 -99.87083435058594 -8.470000267028809 -99.57750701904297 -9.020000457763672 C -99.28417205810547 -9.570000648498535 -99.13750457763672 -10.23000049591064 -99.13750457763672 -11 C -99.13750457763672 -11.73333358764648 -99.32083892822266 -12.35666656494141 -99.68750762939453 -12.86999988555908 C -100.0541687011719 -13.38333320617676 -100.5766677856445 -13.85083293914795 -101.2550048828125 -14.27250003814697 C -101.9333419799805 -14.69416618347168 -102.7766723632812 -15.07916641235352 -103.7850036621094 -15.42749977111816 C -104.793342590332 -15.77583312988281 -105.9391708374023 -16.15166664123535 -107.2225036621094 -16.55500030517578 C -108.4691696166992 -16.95833396911621 -109.6883392333984 -17.43499946594238 -110.8800048828125 -17.98499870300293 C -112.0716705322266 -18.53499984741211 -113.1350021362305 -19.24083518981934 -114.0700073242188 -20.10250091552734 C -115.0050048828125 -20.96416664123535 -115.7566680908203 -22.0091667175293 -116.3250045776367 -23.23750114440918 C -116.8933410644531 -24.46583366394043 -117.1775054931641 -25.96000099182129 -117.1775054931641 -27.72000122070312 C -117.1775054931641 -29.88333511352539 -116.7375030517578 -31.7350025177002 -115.8575057983398 -33.27500152587891 C -114.9775085449219 -34.81499862670898 -113.8225021362305 -36.07999801635742 -112.3925018310547 -37.06999969482422 C -110.9625015258789 -38.06000137329102 -109.3491744995117 -38.7841682434082 -107.5525054931641 -39.24250030517578 C -105.7558364868164 -39.70083236694336 -103.9408416748047 -39.93000030517578 -102.1075057983398 -39.93000030517578 C -99.90750122070312 -39.93000030517578 -97.66166687011719 -39.52666854858398 -95.37000274658203 -38.72000122070312 C -93.07833862304688 -37.91333389282227 -91.07083892822266 -36.72166442871094 -89.34750366210938 -35.14500045776367 L -95.34250640869141 -28.81999969482422 Z M -72.40750122070312 0 L -72.40750122070312 -38.93999862670898 L -62.94750213623047 -38.93999862670898 L -62.94750213623047 -8.195000648498535 L -47.87750244140625 -8.195000648498535 L -47.87750244140625 0 L -72.40750122070312 0 Z M -6.077508926391602 0 L -9.102508544921875 -7.644999980926514 L -24.17250823974609 -7.644999980926514 L -27.03250885009766 0 L -37.26250839233398 0 L -20.92750930786133 -38.93999862670898 L -11.79750823974609 -38.93999862670898 L 4.372489929199219 0 L -6.077508926391602 0 Z M -16.52750778198242 -28.54500007629395 L -21.47750854492188 -15.17999935150146 L -11.68750762939453 -15.17999935150146 L -16.52750778198242 -28.54500007629395 Z M 62.94750213623047 -28.81999969482422 C 62.14083480834961 -29.84666633605957 61.086669921875 -30.66249847412109 59.78500366210938 -31.26749992370605 C 58.48333740234375 -31.87249946594238 57.22750473022461 -32.17499923706055 56.01750183105469 -32.17499923706055 C 55.39416885375977 -32.17499923706055 54.76166915893555 -32.11999893188477 54.12000274658203 -32.01000213623047 C 53.47833633422852 -31.89999961853027 52.90083694458008 -31.68916702270508 52.38750457763672 -31.37750053405762 C 51.87417221069336 -31.06583213806152 51.44333648681641 -30.66249847412109 51.09500122070312 -30.16749954223633 C 50.74666976928711 -29.67250061035156 50.57250213623047 -29.04000091552734 50.57250213623047 -28.27000045776367 C 50.57250213623047 -27.60999870300293 50.71000289916992 -27.05999946594238 50.98500061035156 -26.61999893188477 C 51.26000213623047 -26.18000030517578 51.66333770751953 -25.79500007629395 52.19500350952148 -25.46500015258789 C 52.72666931152344 -25.13500022888184 53.35916900634766 -24.83250045776367 54.09250259399414 -24.5575008392334 C 54.82583618164062 -24.28250122070312 55.65083694458008 -23.99833297729492 56.5675048828125 -23.70499992370605 C 57.88750457763672 -23.26499938964844 59.26250457763672 -22.77916717529297 60.6925048828125 -22.24750137329102 C 62.12250137329102 -21.71583366394043 63.42416763305664 -21.0099983215332 64.59750366210938 -20.1299991607666 C 65.77083587646484 -19.25 66.74250030517578 -18.1591682434082 67.51249694824219 -16.85750007629395 C 68.28250122070312 -15.555832862854 68.66750335693359 -13.93333339691162 68.66750335693359 -11.98999977111816 C 68.66750335693359 -9.75333309173584 68.2550048828125 -7.819167137145996 67.43000793457031 -6.1875 C 66.60500335693359 -4.555833339691162 65.49583435058594 -3.208333492279053 64.10250091552734 -2.144999980926514 C 62.70917129516602 -1.081666588783264 61.11417007446289 -0.2933333516120911 59.3175048828125 0.2200000137090683 C 57.52083969116211 0.7333333492279053 55.66917037963867 0.9899999499320984 53.76250457763672 0.9899999499320984 C 50.97583770751953 0.9899999499320984 48.28083801269531 0.5041666626930237 45.6775016784668 -0.4675000309944153 C 43.07416915893555 -1.439166784286499 40.91083526611328 -2.823333263397217 39.18750381469727 -4.619999885559082 L 45.34750366210938 -10.89000034332275 C 46.30083847045898 -9.716667175292969 47.55667114257812 -8.735833168029785 49.11500549316406 -7.947500228881836 C 50.67333602905273 -7.159166812896729 52.22250366210938 -6.765000343322754 53.76250457763672 -6.765000343322754 C 54.45917129516602 -6.765000343322754 55.13750076293945 -6.838333606719971 55.79750061035156 -6.985000133514404 C 56.45750427246094 -7.131666660308838 57.03500747680664 -7.369999885559082 57.53000640869141 -7.699999809265137 C 58.02500534057617 -8.030000686645508 58.41917037963867 -8.470000267028809 58.71250152587891 -9.020000457763672 C 59.00583648681641 -9.570000648498535 59.15250396728516 -10.23000049591064 59.15250396728516 -11 C 59.15250396728516 -11.73333358764648 58.96916961669922 -12.35666656494141 58.60250091552734 -12.86999988555908 C 58.23583602905273 -13.38333320617676 57.71333694458008 -13.85083293914795 57.03500366210938 -14.27250003814697 C 56.35667037963867 -14.69416618347168 55.51333618164062 -15.07916641235352 54.5050048828125 -15.42749977111816 C 53.49666976928711 -15.77583312988281 52.35083770751953 -16.15166664123535 51.0675048828125 -16.55500030517578 C 49.82083511352539 -16.95833396911621 48.60166931152344 -17.43499946594238 47.41000366210938 -17.98499870300293 C 46.21833419799805 -18.53499984741211 45.15500259399414 -19.24083518981934 44.22000122070312 -20.10250091552734 C 43.28500366210938 -20.96416664123535 42.5333366394043 -22.0091667175293 41.96500396728516 -23.23750114440918 C 41.39667129516602 -24.46583366394043 41.11250305175781 -25.96000099182129 41.11250305175781 -27.72000122070312 C 41.11250305175781 -29.88333511352539 41.5525016784668 -31.7350025177002 42.43250274658203 -33.27500152587891 C 43.31250381469727 -34.81499862670898 44.46750259399414 -36.07999801635742 45.89750289916992 -37.06999969482422 C 47.3275032043457 -38.06000137329102 48.94083786010742 -38.7841682434082 50.73750305175781 -39.24250030517578 C 52.5341682434082 -39.70083236694336 54.34917068481445 -39.93000030517578 56.18250274658203 -39.93000030517578 C 58.38250350952148 -39.93000030517578 60.62833786010742 -39.52666854858398 62.92000579833984 -38.72000122070312 C 65.211669921875 -37.91333389282227 67.21916961669922 -36.72166442871094 68.9425048828125 -35.14500045776367 L 62.94750213623047 -28.81999969482422 Z M 85.88250732421875 0 L 85.88250732421875 -38.93999862670898 L 112.0625076293945 -38.93999862670898 L 112.0625076293945 -30.96500205993652 L 94.95750427246094 -30.96500205993652 L 94.95750427246094 -23.64999961853027 L 111.1275100708008 -23.64999961853027 L 111.1275100708008 -16.11499977111816 L 94.95750427246094 -16.11499977111816 L 94.95750427246094 -8.029999732971191 L 113.0525054931641 -8.029999732971191 L 113.0525054931641 0 L 85.88250732421875 0 Z M 165.5774841308594 0 L 165.7974853515625 -27.55499839782715 L 165.6324920654297 -27.55499839782715 L 155.5124816894531 0 L 148.9124908447266 0 L 139.0674896240234 -27.55499839782715 L 138.9024810791016 -27.55499839782715 L 139.1224822998047 0 L 130.2674865722656 0 L 130.2674865722656 -38.93999862670898 L 143.6324920654297 -38.93999862670898 L 152.4874877929688 -13.97000026702881 L 152.7074890136719 -13.97000026702881 L 161.177490234375 -38.93999862670898 L 174.7624816894531 -38.93999862670898 L 174.7624816894531 0 L 165.5774841308594 0 Z M 193.7925109863281 0 L 193.7925109863281 -38.93999862670898 L 203.2525177001953 -38.93999862670898 L 203.2525177001953 0 L 193.7925109863281 0 Z"
     id="Path_369" />
</svg>
