<?xml version="1.0" encoding="utf-8"?>
<!-- Generator: Adobe Illustrator 24.2.3, SVG Export Plug-In . SVG Version: 6.00 Build 0)  -->
<svg version="1.1"
	 id="svg74" xmlns:cc="http://creativecommons.org/ns#" xmlns:dc="http://purl.org/dc/elements/1.1/" xmlns:rdf="http://www.w3.org/1999/02/22-rdf-syntax-ns#" xmlns:svg="http://www.w3.org/2000/svg"
	 xmlns="http://www.w3.org/2000/svg" xmlns:xlink="http://www.w3.org/1999/xlink" x="0px" y="0px" viewBox="0 0 682.7 154"
	 style="enable-background:new 0 0 682.7 154;" xml:space="preserve">
<path id="Path_384" d="M25.1,67.1c-0.9-1.1-2-2-3.3-2.6c-1.2-0.6-2.6-0.9-4-1c-0.7,0-1.3,0.1-2,0.2c-0.6,0.1-1.3,0.3-1.8,0.7
	c-0.5,0.3-1,0.8-1.4,1.3c-0.4,0.6-0.6,1.3-0.6,2c0,0.6,0.1,1.2,0.4,1.7c0.3,0.5,0.8,0.9,1.3,1.2c0.6,0.4,1.3,0.7,2,1
	c0.8,0.3,1.6,0.6,2.6,0.9c1.4,0.5,2.8,1,4.4,1.5c1.5,0.5,2.9,1.3,4.1,2.2c1.2,0.9,2.3,2.1,3.1,3.5c0.9,1.6,1.3,3.3,1.2,5.1
	c0.1,2.1-0.4,4.2-1.3,6.1c-0.8,1.7-2,3.1-3.5,4.3c-1.5,1.1-3.2,2-5,2.5c-1.9,0.5-3.9,0.8-5.9,0.8c-2.9,0-5.8-0.5-8.5-1.5
	c-2.6-0.9-4.9-2.4-6.8-4.4L6.5,86c1.1,1.3,2.4,2.4,4,3.1c1.5,0.8,3.2,1.2,4.9,1.2c0.7,0,1.4-0.1,2.1-0.2c0.7-0.1,1.3-0.4,1.8-0.8
	c0.5-0.4,1-0.8,1.2-1.4c0.3-0.6,0.5-1.4,0.5-2.1c0-0.7-0.2-1.4-0.6-2c-0.4-0.6-1-1.1-1.7-1.5c-0.8-0.5-1.7-0.9-2.7-1.2
	c-1.1-0.4-2.3-0.8-3.6-1.2c-1.3-0.4-2.6-0.9-3.9-1.5c-1.2-0.6-2.4-1.3-3.4-2.2c-1-0.9-1.8-2.1-2.4-3.3C2.3,71.5,2,69.9,2,68.3
	c-0.1-2,0.4-4.1,1.4-5.9c0.9-1.6,2.1-3,3.7-4c1.5-1.1,3.3-1.8,5.1-2.3c1.9-0.5,3.8-0.7,5.7-0.7c2.4,0,4.8,0.5,7.1,1.3
	c2.4,0.8,4.5,2.1,6.4,3.8L25.1,67.1z M75.2,97.5V80.4h-16v17.2h-9.9V56.5h9.9V72h16V56.5h9.9v41.1H75.2z M148,76.8
	c0,3-0.5,6.1-1.7,8.9c-1.1,2.6-2.7,4.9-4.7,6.9c-2,1.9-4.5,3.5-7.1,4.4c-2.9,1.1-5.9,1.6-8.9,1.6c-3,0-6.1-0.5-8.9-1.6
	c-2.6-1-5-2.5-7.1-4.4c-2-2-3.6-4.3-4.7-6.9c-1.1-2.8-1.7-5.9-1.7-8.9c0-3,0.5-6.1,1.7-8.9c1.1-2.6,2.7-4.9,4.7-6.8
	c2-1.9,4.5-3.3,7.1-4.3c2.9-1,5.9-1.5,8.9-1.5c3,0,6.1,0.5,8.9,1.5c2.6,0.9,5,2.4,7.1,4.3c2,1.9,3.6,4.2,4.7,6.8
	C147.4,70.8,148,73.8,148,76.8z M137.3,76.8c0-1.7-0.3-3.4-0.9-5c-0.5-1.5-1.4-2.8-2.4-4c-1-1.1-2.3-2-3.7-2.6c-1.5-0.7-3.1-1-4.8-1
	c-1.6,0-3.3,0.3-4.8,1c-1.4,0.6-2.7,1.5-3.7,2.6c-1.1,1.1-1.9,2.5-2.4,4c-0.6,1.6-0.9,3.3-0.8,5c0,1.7,0.3,3.5,0.9,5.1
	c0.5,1.5,1.3,2.9,2.4,4c1,1.1,2.3,2,3.7,2.6c1.5,0.7,3.1,1,4.8,1c1.6,0,3.3-0.3,4.8-1c1.4-0.6,2.7-1.5,3.7-2.6
	c1.1-1.2,1.9-2.5,2.4-4C137.1,80.3,137.4,78.6,137.3,76.8z M197.3,69.1c0.1,2.1-0.4,4.2-1.3,6.1c-0.9,1.6-2.1,3-3.6,4
	c-1.6,1-3.4,1.8-5.2,2.2c-2,0.5-4.1,0.7-6.1,0.7H176v15.5h-9.9V56.5h15.1c2.1,0,4.2,0.2,6.3,0.7c1.8,0.4,3.5,1.1,5.1,2.1
	c1.5,1,2.6,2.3,3.4,3.9C196.9,65,197.3,67.1,197.3,69.1z M187.3,69.2c0-0.8-0.2-1.7-0.6-2.4c-0.4-0.6-0.9-1.1-1.6-1.5
	c-0.7-0.4-1.5-0.6-2.2-0.7c-0.9-0.1-1.7-0.2-2.6-0.2H176v9.7h4.2c0.9,0,1.8-0.1,2.7-0.2c0.8-0.1,1.6-0.4,2.3-0.8
	c0.7-0.4,1.2-0.9,1.6-1.5C187.2,70.8,187.4,70,187.3,69.2z M246,69.1c0.1,2.1-0.4,4.2-1.3,6.1c-0.9,1.6-2.1,3-3.6,4
	c-1.6,1-3.4,1.8-5.2,2.2c-2,0.5-4.1,0.7-6.1,0.7h-4.9v15.5h-9.9V56.5h15.1c2.1,0,4.2,0.2,6.3,0.7c1.8,0.4,3.5,1.1,5.1,2.1
	c1.5,1,2.6,2.3,3.4,3.9C245.6,65,246,67.1,246,69.1z M236.1,69.2c0-0.8-0.2-1.7-0.6-2.4c-0.4-0.6-0.9-1.1-1.6-1.5
	c-0.7-0.4-1.5-0.6-2.2-0.7c-0.9-0.1-1.7-0.2-2.6-0.2h-4.4v9.7h4.2c0.9,0,1.8-0.1,2.7-0.2c0.8-0.1,1.6-0.4,2.3-0.8
	c0.7-0.4,1.2-0.9,1.6-1.5C235.9,70.8,236.1,70,236.1,69.2L236.1,69.2z M263.6,97.5V56.5h10v41.1H263.6z M319.7,97.5l-16.5-26.9H303
	l0.2,26.9h-9.6V56.5h11.3l16.5,26.8h0.2l-0.2-26.8h9.6v41.1H319.7z M387.5,95c-2.2,1.1-4.6,2-7,2.6c-2.9,0.7-5.8,1-8.8,1
	c-3.1,0-6.2-0.5-9.1-1.6c-2.7-1-5.1-2.5-7.1-4.4c-2-1.9-3.6-4.2-4.7-6.8c-1.2-2.8-1.7-5.8-1.7-8.8c0-3.1,0.5-6.1,1.7-8.9
	c1.1-2.6,2.7-4.9,4.7-6.8c2-1.9,4.5-3.4,7.1-4.3c2.8-1,5.8-1.5,8.8-1.5c3.1,0,6.1,0.5,9,1.5c2.5,0.8,4.8,2.2,6.8,4l-6.3,7.1
	c-1.1-1.2-2.4-2.1-3.8-2.8c-1.7-0.7-3.5-1.1-5.4-1.1c-1.7,0-3.3,0.3-4.8,1c-1.4,0.6-2.7,1.5-3.8,2.7c-1.1,1.2-2,2.6-2.5,4.1
	c-0.6,1.6-0.9,3.4-0.9,5.1c0,1.8,0.3,3.5,0.8,5.2c0.5,1.5,1.3,2.9,2.4,4.1c1.1,1.2,2.4,2.1,3.9,2.7c1.7,0.7,3.5,1,5.4,1
	c1.1,0,2.2-0.1,3.3-0.3c1-0.2,2-0.4,2.9-0.8v-7.5h-7.8v-8h16.9L387.5,95z M469.5,91.8c-1.9,2.1-4.2,3.8-6.7,5
	c-2.9,1.3-6.1,1.9-9.2,1.8c-3,0-6-0.5-8.8-1.6c-2.6-1-5-2.5-7-4.4c-2-2-3.6-4.3-4.6-6.9c-1.1-2.8-1.7-5.8-1.7-8.8
	c0-3.1,0.5-6.1,1.7-8.9c1.1-2.6,2.7-4.9,4.7-6.8c2-1.9,4.5-3.4,7.1-4.3c2.8-1,5.8-1.5,8.8-1.5c2.9,0,5.8,0.5,8.6,1.5
	c2.6,0.9,5,2.4,6.8,4.5l-6.7,6.7c-0.9-1.3-2.2-2.3-3.7-2.8c-1.5-0.6-3-0.9-4.6-0.9c-1.6,0-3.3,0.3-4.8,1c-1.4,0.6-2.7,1.5-3.7,2.6
	c-1.1,1.2-1.9,2.5-2.4,4c-0.6,1.6-0.9,3.3-0.9,5c0,1.7,0.3,3.5,0.9,5.1c0.5,1.5,1.4,2.8,2.4,4c1,1.1,2.3,2,3.7,2.6
	c1.5,0.6,3.1,0.9,4.7,0.9c1.8,0,3.6-0.4,5.2-1.2c1.4-0.7,2.6-1.7,3.5-3L469.5,91.8z M512.4,97.5l-3.2-8.1h-15.9l-3,8.1h-10.8
	l17.2-41.1h9.6l17.1,41.1H512.4z M501.4,67.4l-5.2,14.1h10.3L501.4,67.4z M560.5,97.5l-8.9-16.3h-3.4v16.3h-9.7V56.5h15.7
	c1.9,0,3.9,0.2,5.8,0.6c1.8,0.4,3.5,1.1,5,2.1c1.5,1,2.7,2.3,3.6,3.8c0.9,1.8,1.4,3.9,1.3,5.9c0.1,2.5-0.7,5-2.3,7
	c-1.6,2-3.8,3.4-6.3,4.1l10.7,17.6H560.5z M560,69.1c0-0.8-0.2-1.6-0.6-2.3c-0.4-0.6-0.9-1.1-1.6-1.4c-0.7-0.3-1.4-0.6-2.1-0.7
	c-0.8-0.1-1.5-0.2-2.3-0.2h-5.3V74h4.7c0.8,0,1.7-0.1,2.5-0.2c0.8-0.1,1.6-0.4,2.3-0.7c0.7-0.3,1.3-0.9,1.7-1.5
	C559.9,70.8,560.1,70,560,69.1L560,69.1z M605.4,64.9v32.6h-9.9V64.9h-11.6v-8.5H617v8.5H605.4z"/>
</svg>
