<?xml version="1.0" encoding="utf-8"?>
<!-- Generator: Adobe Illustrator 25.0.1, SVG Export Plug-In . SVG Version: 6.00 Build 0)  -->
<svg version="1.1"
	 id="svg74" xmlns:cc="http://creativecommons.org/ns#" xmlns:dc="http://purl.org/dc/elements/1.1/" xmlns:rdf="http://www.w3.org/1999/02/22-rdf-syntax-ns#" xmlns:svg="http://www.w3.org/2000/svg"
	 xmlns="http://www.w3.org/2000/svg" xmlns:xlink="http://www.w3.org/1999/xlink" x="0px" y="0px" viewBox="0 0 682.7 154"
	 style="enable-background:new 0 0 682.7 154;" xml:space="preserve">
<style type="text/css">
	.st0{enable-background:new    ;}
</style>
<g class="st0">
	<path d="M20.7,71.3C19.9,70.6,19,70,18,69.5c-1-0.5-2.1-0.8-3.3-0.8c-0.9,0-1.7,0.2-2.5,0.5c-0.8,0.3-1.1,0.9-1.1,1.8
		c0,0.8,0.4,1.4,1.2,1.7c0.8,0.3,2.2,0.7,4,1.2c1.1,0.2,2.2,0.6,3.3,1s2.1,1,3,1.7c0.9,0.7,1.6,1.5,2.1,2.6c0.5,1,0.8,2.2,0.8,3.6
		c0,1.8-0.4,3.4-1.1,4.6c-0.7,1.3-1.7,2.3-2.9,3c-1.2,0.8-2.5,1.3-4,1.7c-1.5,0.3-2.9,0.5-4.4,0.5c-2.4,0-4.7-0.4-6.9-1.1
		s-4.1-1.9-5.7-3.3L6,82.5c0.9,0.9,1.9,1.7,3.1,2.3c1.2,0.6,2.6,0.9,3.9,0.9c0.8,0,1.5-0.2,2.3-0.6c0.8-0.4,1.1-1,1.1-1.9
		c0-0.9-0.5-1.5-1.4-2c-0.9-0.4-2.4-0.9-4.4-1.3c-1-0.2-2-0.5-3-0.9c-1-0.4-1.9-0.9-2.7-1.6C4.2,76.8,3.6,76,3.1,75
		c-0.5-1-0.8-2.1-0.8-3.5c0-1.7,0.4-3.2,1.1-4.4c0.7-1.2,1.7-2.2,2.8-3c1.2-0.8,2.4-1.3,3.9-1.7c1.4-0.4,2.8-0.6,4.2-0.6
		c2.2,0,4.3,0.3,6.4,1c2.1,0.7,3.8,1.7,5.2,3L20.7,71.3z"/>
	<path d="M50.1,91.7V76c0-0.8-0.1-1.6-0.2-2.3c-0.1-0.7-0.3-1.4-0.7-1.9c-0.3-0.6-0.8-1-1.3-1.3c-0.5-0.3-1.2-0.5-2.1-0.5
		c-1.7,0-2.9,0.6-3.8,1.8c-0.9,1.2-1.3,2.6-1.3,4.4v15.6h-9.5V47.8h9.5v18.6h0.1c0.7-1.2,1.7-2.2,3.1-3.1c1.4-0.9,3.2-1.4,5.2-1.4
		c2,0,3.6,0.3,5,1c1.3,0.7,2.4,1.6,3.2,2.7c0.8,1.1,1.4,2.4,1.8,3.8c0.4,1.4,0.6,2.9,0.6,4.3v17.9H50.1z"/>
	<path d="M97.5,77.1c0,2.4-0.4,4.5-1.3,6.4c-0.9,1.9-2,3.5-3.5,4.9c-1.5,1.3-3.2,2.4-5.1,3.1c-1.9,0.7-4,1.1-6.2,1.1
		c-2.2,0-4.2-0.4-6.2-1.1c-2-0.7-3.7-1.8-5.1-3.1c-1.4-1.3-2.6-3-3.5-4.9c-0.9-1.9-1.3-4-1.3-6.4s0.4-4.5,1.3-6.4
		c0.9-1.9,2-3.5,3.5-4.8c1.5-1.3,3.2-2.3,5.1-3c2-0.7,4-1,6.2-1c2.2,0,4.3,0.3,6.2,1c1.9,0.7,3.6,1.7,5.1,3c1.5,1.3,2.6,2.9,3.5,4.8
		C97.1,72.6,97.5,74.8,97.5,77.1z M88.3,77.1c0-0.9-0.2-1.8-0.5-2.7c-0.3-0.9-0.8-1.7-1.3-2.3c-0.6-0.7-1.3-1.2-2.1-1.7
		c-0.9-0.4-1.8-0.6-3-0.6c-1.1,0-2.1,0.2-3,0.6c-0.9,0.4-1.6,1-2.1,1.7c-0.6,0.7-1,1.5-1.3,2.3c-0.3,0.9-0.4,1.8-0.4,2.7
		c0,0.9,0.1,1.8,0.4,2.7c0.3,0.9,0.7,1.7,1.3,2.4c0.6,0.7,1.3,1.3,2.1,1.7c0.9,0.4,1.8,0.6,3,0.6c1.1,0,2.1-0.2,3-0.6
		c0.9-0.4,1.6-1,2.1-1.7c0.6-0.7,1-1.5,1.3-2.4C88.2,79,88.3,78,88.3,77.1z"/>
	<path d="M135.7,77.1c0,2-0.3,3.9-0.9,5.8c-0.6,1.9-1.5,3.5-2.7,4.9c-1.2,1.4-2.6,2.5-4.3,3.4c-1.7,0.8-3.6,1.3-5.8,1.3
		c-1.8,0-3.5-0.4-5-1.1c-1.6-0.7-2.8-1.7-3.7-2.9H113v17.1h-9.5V62.8h9v3.5h0.2c0.9-1.2,2.1-2.2,3.7-3c1.6-0.9,3.4-1.3,5.5-1.3
		c2.1,0,4,0.4,5.7,1.2c1.7,0.8,3.1,1.9,4.3,3.3c1.2,1.4,2.1,3,2.7,4.8C135.3,73.2,135.7,75.1,135.7,77.1z M126.4,77.1
		c0-0.9-0.1-1.8-0.4-2.7c-0.3-0.9-0.7-1.7-1.3-2.3c-0.6-0.7-1.3-1.2-2.1-1.7c-0.9-0.4-1.8-0.6-3-0.6c-1.1,0-2,0.2-2.9,0.6
		c-0.9,0.4-1.6,1-2.2,1.7c-0.6,0.7-1.1,1.5-1.4,2.4c-0.3,0.9-0.5,1.8-0.5,2.7s0.2,1.8,0.5,2.7c0.3,0.9,0.8,1.7,1.4,2.4
		c0.6,0.7,1.3,1.3,2.2,1.7c0.9,0.4,1.8,0.6,2.9,0.6c1.1,0,2.1-0.2,3-0.6c0.9-0.4,1.6-1,2.1-1.7c0.6-0.7,1-1.5,1.3-2.4
		C126.3,79,126.4,78,126.4,77.1z"/>
	<path d="M173.8,77.1c0,2-0.3,3.9-0.9,5.8c-0.6,1.9-1.5,3.5-2.7,4.9c-1.2,1.4-2.6,2.5-4.3,3.4c-1.7,0.8-3.6,1.3-5.8,1.3
		c-1.8,0-3.5-0.4-5-1.1c-1.6-0.7-2.8-1.7-3.7-2.9h-0.1v17.1h-9.5V62.8h9v3.5h0.2c0.9-1.2,2.1-2.2,3.7-3c1.6-0.9,3.4-1.3,5.5-1.3
		c2.1,0,4,0.4,5.7,1.2c1.7,0.8,3.1,1.9,4.3,3.3c1.2,1.4,2.1,3,2.7,4.8C173.4,73.2,173.8,75.1,173.8,77.1z M164.5,77.1
		c0-0.9-0.1-1.8-0.4-2.7c-0.3-0.9-0.7-1.7-1.3-2.3c-0.6-0.7-1.3-1.2-2.1-1.7c-0.9-0.4-1.8-0.6-3-0.6c-1.1,0-2,0.2-2.9,0.6
		c-0.9,0.4-1.6,1-2.2,1.7c-0.6,0.7-1.1,1.5-1.4,2.4c-0.3,0.9-0.5,1.8-0.5,2.7s0.2,1.8,0.5,2.7c0.3,0.9,0.8,1.7,1.4,2.4
		c0.6,0.7,1.3,1.3,2.2,1.7c0.9,0.4,1.8,0.6,2.9,0.6c1.1,0,2.1-0.2,3-0.6c0.9-0.4,1.6-1,2.1-1.7c0.6-0.7,1-1.5,1.3-2.4
		C164.4,79,164.5,78,164.5,77.1z"/>
	<path d="M190.1,53.6c0,0.7-0.1,1.4-0.4,2.1s-0.7,1.2-1.2,1.7c-0.5,0.5-1.1,0.8-1.7,1.1c-0.7,0.3-1.4,0.4-2.1,0.4
		c-1.5,0-2.8-0.5-3.9-1.5c-1-1-1.6-2.3-1.6-3.7c0-0.7,0.1-1.4,0.4-2c0.3-0.6,0.7-1.2,1.2-1.7c0.5-0.5,1.1-0.8,1.7-1.1
		c0.7-0.3,1.4-0.4,2.1-0.4c0.7,0,1.4,0.1,2.1,0.4c0.7,0.3,1.3,0.6,1.7,1.1c0.5,0.5,0.9,1,1.2,1.7S190.1,52.8,190.1,53.6z
		 M179.9,91.7V62.8h9.5v28.9H179.9z"/>
	<path d="M215.9,91.7V75.9c0-0.8-0.1-1.6-0.2-2.3c-0.1-0.7-0.4-1.4-0.7-1.9c-0.3-0.6-0.7-1-1.3-1.3c-0.6-0.3-1.3-0.5-2.1-0.5
		c-0.9,0-1.6,0.2-2.2,0.5c-0.6,0.3-1.2,0.8-1.6,1.4c-0.4,0.6-0.7,1.2-1,2c-0.2,0.8-0.3,1.5-0.3,2.3v15.7h-9.6V62.8h9.2v4h0.1
		c0.3-0.6,0.8-1.2,1.4-1.8c0.6-0.6,1.2-1.1,2-1.5c0.8-0.4,1.6-0.8,2.5-1c0.9-0.3,1.8-0.4,2.8-0.4c1.9,0,3.6,0.3,4.9,1
		c1.4,0.7,2.4,1.6,3.3,2.7c0.8,1.1,1.4,2.4,1.8,3.8c0.4,1.4,0.6,2.9,0.6,4.3v17.9H215.9z"/>
	<path d="M263.3,88.9c0,2.8-0.4,5.3-1.2,7.4s-2,3.8-3.4,5.2c-1.5,1.4-3.3,2.4-5.4,3.1c-2.1,0.7-4.4,1-7,1c-2.6,0-5.2-0.4-7.9-1.2
		c-2.7-0.8-5-1.9-7-3.4l4.8-6.8c1.4,1.2,2.9,2.2,4.6,2.8c1.7,0.6,3.3,0.9,5,0.9c2.8,0,4.8-0.7,6.2-2.2s2-3.4,2-5.9v-1.7h-0.2
		c-0.9,1.2-2.1,2.1-3.6,2.8s-3.2,1-5.2,1c-2.2,0-4.2-0.4-5.9-1.2c-1.7-0.8-3.1-1.9-4.3-3.2c-1.2-1.4-2.1-2.9-2.7-4.7
		c-0.6-1.8-0.9-3.7-0.9-5.7s0.3-3.9,0.9-5.7c0.6-1.8,1.5-3.4,2.7-4.8c1.2-1.4,2.6-2.5,4.3-3.3c1.7-0.8,3.6-1.2,5.8-1.2
		c1.8,0,3.6,0.4,5.2,1.1c1.7,0.7,3,1.9,4,3.4h0.1v-3.7h9V88.9z M254.2,77.1c0-1-0.2-1.9-0.5-2.8c-0.3-0.9-0.8-1.7-1.4-2.3
		c-0.6-0.7-1.4-1.2-2.2-1.6c-0.9-0.4-1.8-0.6-2.9-0.6c-1.1,0-2,0.2-2.9,0.6c-0.8,0.4-1.5,0.9-2.1,1.6c-0.6,0.7-1,1.4-1.3,2.3
		c-0.3,0.9-0.5,1.8-0.5,2.8c0,1,0.2,1.9,0.5,2.8c0.3,0.9,0.8,1.7,1.3,2.3c0.6,0.7,1.3,1.2,2.1,1.6c0.8,0.4,1.8,0.6,2.9,0.6
		c1.1,0,2.1-0.2,2.9-0.6c0.9-0.4,1.6-0.9,2.2-1.6c0.6-0.7,1.1-1.4,1.4-2.3C254,79,254.2,78.1,254.2,77.1z"/>
	<path d="M305.3,72.1c-0.5-0.7-1.3-1.3-2.2-1.7c-0.9-0.4-1.9-0.6-2.8-0.6c-1,0-1.9,0.2-2.7,0.6s-1.5,0.9-2.1,1.6
		c-0.6,0.7-1,1.5-1.4,2.3c-0.3,0.9-0.5,1.8-0.5,2.8c0,1,0.2,2,0.5,2.8c0.3,0.9,0.8,1.7,1.4,2.3c0.6,0.7,1.3,1.2,2.1,1.6
		c0.8,0.4,1.8,0.6,2.8,0.6c1,0,1.9-0.2,2.9-0.6c0.9-0.4,1.7-0.9,2.3-1.6l5.3,6.4c-1.2,1.2-2.7,2.1-4.6,2.7c-1.9,0.7-3.9,1-6,1
		c-2.3,0-4.4-0.3-6.4-1c-2-0.7-3.7-1.7-5.2-3c-1.5-1.3-2.6-2.9-3.4-4.8s-1.3-4-1.3-6.4c0-2.4,0.4-4.5,1.3-6.4c0.8-1.9,2-3.5,3.4-4.8
		c1.5-1.3,3.2-2.4,5.2-3.1c2-0.7,4.1-1.1,6.3-1.1c1,0,2.1,0.1,3.1,0.3c1,0.2,2,0.5,3,0.8c0.9,0.3,1.8,0.7,2.6,1.2
		c0.8,0.5,1.5,1,2.1,1.6L305.3,72.1z"/>
	<path d="M314.1,66.7c1.7-1.6,3.7-2.8,5.9-3.7c2.3-0.8,4.6-1.2,6.9-1.2c2.4,0,4.5,0.3,6.2,0.9c1.7,0.6,3,1.5,4.1,2.8
		c1,1.3,1.8,2.8,2.3,4.8c0.5,1.9,0.7,4.2,0.7,6.8v14.6h-8.7v-3.1h-0.2c-0.7,1.2-1.8,2.1-3.3,2.8c-1.5,0.7-3.1,1-4.8,1
		c-1.2,0-2.4-0.2-3.6-0.5c-1.2-0.3-2.4-0.8-3.4-1.5c-1-0.7-1.9-1.6-2.5-2.8c-0.7-1.2-1-2.6-1-4.3c0-2.1,0.6-3.8,1.7-5
		c1.1-1.3,2.6-2.3,4.4-3c1.8-0.7,3.8-1.2,6-1.4s4.4-0.3,6.4-0.3v-0.5c0-1.4-0.5-2.5-1.5-3.2c-1-0.7-2.2-1-3.7-1
		c-1.4,0-2.7,0.3-3.9,0.9c-1.3,0.6-2.3,1.3-3.2,2.1L314.1,66.7z M331.5,79.1h-1.2c-1,0-2.1,0-3.2,0.1c-1.1,0.1-2,0.3-2.8,0.6
		c-0.8,0.3-1.5,0.7-2.1,1.2c-0.5,0.5-0.8,1.2-0.8,2.1c0,0.5,0.1,1,0.4,1.4c0.3,0.4,0.6,0.7,1,0.9c0.4,0.2,0.8,0.4,1.3,0.5
		c0.5,0.1,1,0.1,1.5,0.1c1.9,0,3.4-0.5,4.4-1.6c1-1.1,1.5-2.5,1.5-4.3V79.1z"/>
	<path d="M366,70.6c-0.4-0.1-0.8-0.2-1.2-0.2c-0.4,0-0.8-0.1-1.2-0.1c-1.3,0-2.3,0.2-3.2,0.7c-0.9,0.5-1.6,1-2.1,1.7
		c-0.5,0.7-0.9,1.4-1.1,2.1c-0.2,0.8-0.3,1.4-0.3,2v14.8h-9.5V62.8h9.2V67h0.1c0.7-1.5,1.8-2.7,3.1-3.6s2.9-1.4,4.7-1.4
		c0.4,0,0.8,0,1.1,0.1c0.4,0,0.7,0.1,0.9,0.2L366,70.6z"/>
	<path d="M379.9,69.9v11.1c0,1.4,0.3,2.4,0.8,3.1c0.5,0.7,1.5,1,2.8,1c0.5,0,1,0,1.5-0.1c0.5-0.1,1-0.2,1.3-0.3l0.1,7
		c-0.7,0.2-1.5,0.4-2.5,0.6c-1,0.2-2,0.3-3,0.3c-1.9,0-3.6-0.2-4.9-0.7c-1.3-0.5-2.4-1.2-3.2-2.1s-1.4-2-1.7-3.3
		c-0.3-1.3-0.5-2.7-0.5-4.2V69.9H366v-7.1h4.6v-7.6h9.3v7.6h6.8v7.1H379.9z"/>
</g>
</svg>
