<?xml version="1.0" encoding="utf-8"?>
<!-- Generator: Adobe Illustrator 25.0.1, SVG Export Plug-In . SVG Version: 6.00 Build 0)  -->
<svg version="1.1"
	 id="svg74" xmlns:cc="http://creativecommons.org/ns#" xmlns:dc="http://purl.org/dc/elements/1.1/" xmlns:rdf="http://www.w3.org/1999/02/22-rdf-syntax-ns#" xmlns:svg="http://www.w3.org/2000/svg"
	 xmlns="http://www.w3.org/2000/svg" xmlns:xlink="http://www.w3.org/1999/xlink" x="0px" y="0px" viewBox="0 0 890 160"
	 style="enable-background:new 0 0 890 160;" xml:space="preserve">
<style type="text/css">
	.st0{enable-background:new    ;}
</style>
<g class="st0">
	<path d="M20.1,74.3c-0.8-0.7-1.7-1.4-2.7-1.9c-1-0.5-2.1-0.8-3.3-0.8c-0.9,0-1.7,0.2-2.5,0.5c-0.8,0.3-1.1,0.9-1.1,1.8
		c0,0.8,0.4,1.4,1.2,1.7c0.8,0.3,2.2,0.7,4,1.2c1.1,0.2,2.2,0.6,3.3,1s2.1,1,3,1.7c0.9,0.7,1.6,1.5,2.1,2.6c0.5,1,0.8,2.2,0.8,3.6
		c0,1.8-0.4,3.4-1.1,4.6c-0.7,1.3-1.7,2.3-2.9,3c-1.2,0.8-2.5,1.3-4,1.7c-1.5,0.3-2.9,0.5-4.4,0.5c-2.4,0-4.7-0.4-6.9-1.1
		S1.5,92.6,0,91.1l5.3-5.6c0.9,0.9,1.9,1.7,3.1,2.3c1.2,0.6,2.6,0.9,3.9,0.9c0.8,0,1.5-0.2,2.3-0.6c0.8-0.4,1.1-1,1.1-1.9
		c0-0.9-0.5-1.5-1.4-2c-0.9-0.4-2.4-0.9-4.4-1.3c-1-0.2-2-0.5-3-0.9c-1-0.4-1.9-0.9-2.7-1.6C3.6,79.8,2.9,79,2.4,78
		c-0.5-1-0.8-2.1-0.8-3.5c0-1.7,0.4-3.2,1.1-4.4c0.7-1.2,1.7-2.2,2.8-3c1.2-0.8,2.4-1.3,3.9-1.7c1.4-0.4,2.8-0.6,4.2-0.6
		c2.2,0,4.3,0.3,6.4,1c2.1,0.7,3.8,1.7,5.2,3L20.1,74.3z"/>
	<path d="M49.5,94.7V79c0-0.8-0.1-1.6-0.2-2.3c-0.1-0.7-0.3-1.4-0.7-1.9c-0.3-0.6-0.8-1-1.3-1.3c-0.5-0.3-1.2-0.5-2.1-0.5
		c-1.7,0-2.9,0.6-3.8,1.8c-0.9,1.2-1.3,2.6-1.3,4.4v15.6h-9.5V50.8h9.5v18.6h0.1c0.7-1.2,1.7-2.2,3.1-3.1c1.4-0.9,3.2-1.4,5.2-1.4
		c2,0,3.6,0.3,5,1c1.3,0.7,2.4,1.6,3.2,2.7c0.8,1.1,1.4,2.4,1.8,3.8c0.4,1.4,0.6,2.9,0.6,4.3v17.9H49.5z"/>
	<path d="M96.9,80.1c0,2.4-0.4,4.5-1.3,6.4c-0.9,1.9-2,3.5-3.5,4.9c-1.5,1.3-3.2,2.4-5.1,3.1c-1.9,0.7-4,1.1-6.2,1.1
		c-2.2,0-4.2-0.4-6.2-1.1c-2-0.7-3.7-1.8-5.1-3.1c-1.4-1.3-2.6-3-3.5-4.9c-0.9-1.9-1.3-4-1.3-6.4s0.4-4.5,1.3-6.4
		c0.9-1.9,2-3.5,3.5-4.8c1.5-1.3,3.2-2.3,5.1-3c2-0.7,4-1,6.2-1c2.2,0,4.3,0.3,6.2,1c1.9,0.7,3.6,1.7,5.1,3c1.5,1.3,2.6,2.9,3.5,4.8
		C96.4,75.6,96.9,77.8,96.9,80.1z M87.7,80.1c0-0.9-0.2-1.8-0.5-2.7c-0.3-0.9-0.8-1.7-1.3-2.3c-0.6-0.7-1.3-1.2-2.1-1.7
		c-0.9-0.4-1.8-0.6-3-0.6c-1.1,0-2.1,0.2-3,0.6c-0.9,0.4-1.6,1-2.1,1.7c-0.6,0.7-1,1.5-1.3,2.3c-0.3,0.9-0.4,1.8-0.4,2.7
		c0,0.9,0.1,1.8,0.4,2.7c0.3,0.9,0.7,1.7,1.3,2.4c0.6,0.7,1.3,1.3,2.1,1.7c0.9,0.4,1.8,0.6,3,0.6c1.1,0,2.1-0.2,3-0.6
		c0.9-0.4,1.6-1,2.1-1.7c0.6-0.7,1-1.5,1.3-2.4C87.5,82,87.7,81,87.7,80.1z"/>
	<path d="M135,80.1c0,2-0.3,3.9-0.9,5.8c-0.6,1.9-1.5,3.5-2.7,4.9c-1.2,1.4-2.6,2.5-4.3,3.4c-1.7,0.8-3.6,1.3-5.8,1.3
		c-1.8,0-3.5-0.4-5-1.1c-1.6-0.7-2.8-1.7-3.7-2.9h-0.1v17.1h-9.5V65.8h9v3.5h0.2c0.9-1.2,2.1-2.2,3.7-3c1.6-0.9,3.4-1.3,5.5-1.3
		c2.1,0,4,0.4,5.7,1.2c1.7,0.8,3.1,1.9,4.3,3.3c1.2,1.4,2.1,3,2.7,4.8C134.7,76.2,135,78.1,135,80.1z M125.8,80.1
		c0-0.9-0.1-1.8-0.4-2.7c-0.3-0.9-0.7-1.7-1.3-2.3c-0.6-0.7-1.3-1.2-2.1-1.7c-0.9-0.4-1.8-0.6-3-0.6c-1.1,0-2,0.2-2.9,0.6
		c-0.9,0.4-1.6,1-2.2,1.7c-0.6,0.7-1.1,1.5-1.4,2.4c-0.3,0.9-0.5,1.8-0.5,2.7s0.2,1.8,0.5,2.7c0.3,0.9,0.8,1.7,1.4,2.4
		c0.6,0.7,1.3,1.3,2.2,1.7c0.9,0.4,1.8,0.6,2.9,0.6c1.1,0,2.1-0.2,3-0.6c0.9-0.4,1.6-1,2.1-1.7c0.6-0.7,1-1.5,1.3-2.4
		C125.7,82,125.8,81,125.8,80.1z"/>
	<path d="M173.1,80.1c0,2-0.3,3.9-0.9,5.8c-0.6,1.9-1.5,3.5-2.7,4.9c-1.2,1.4-2.6,2.5-4.3,3.4c-1.7,0.8-3.6,1.3-5.8,1.3
		c-1.8,0-3.5-0.4-5-1.1c-1.6-0.7-2.8-1.7-3.7-2.9h-0.1v17.1H141V65.8h9v3.5h0.2c0.9-1.2,2.1-2.2,3.7-3c1.6-0.9,3.4-1.3,5.5-1.3
		c2.1,0,4,0.4,5.7,1.2c1.7,0.8,3.1,1.9,4.3,3.3c1.2,1.4,2.1,3,2.7,4.8C172.8,76.2,173.1,78.1,173.1,80.1z M163.9,80.1
		c0-0.9-0.1-1.8-0.4-2.7c-0.3-0.9-0.7-1.7-1.3-2.3c-0.6-0.7-1.3-1.2-2.1-1.7c-0.9-0.4-1.8-0.6-3-0.6c-1.1,0-2,0.2-2.9,0.6
		c-0.9,0.4-1.6,1-2.2,1.7c-0.6,0.7-1.1,1.5-1.4,2.4c-0.3,0.9-0.5,1.8-0.5,2.7s0.2,1.8,0.5,2.7c0.3,0.9,0.8,1.7,1.4,2.4
		c0.6,0.7,1.3,1.3,2.2,1.7c0.9,0.4,1.8,0.6,2.9,0.6c1.1,0,2.1-0.2,3-0.6c0.9-0.4,1.6-1,2.1-1.7c0.6-0.7,1-1.5,1.3-2.4
		C163.8,82,163.9,81,163.9,80.1z"/>
	<path d="M189.4,56.6c0,0.7-0.1,1.4-0.4,2.1s-0.7,1.2-1.2,1.7c-0.5,0.5-1.1,0.8-1.7,1.1c-0.7,0.3-1.4,0.4-2.1,0.4
		c-1.5,0-2.8-0.5-3.9-1.5c-1-1-1.6-2.3-1.6-3.7c0-0.7,0.1-1.4,0.4-2c0.3-0.6,0.7-1.2,1.2-1.7c0.5-0.5,1.1-0.8,1.7-1.1
		c0.7-0.3,1.4-0.4,2.1-0.4c0.7,0,1.4,0.1,2.1,0.4c0.7,0.3,1.3,0.6,1.7,1.1c0.5,0.5,0.9,1,1.2,1.7S189.4,55.8,189.4,56.6z
		 M179.2,94.7V65.8h9.5v28.9H179.2z"/>
	<path d="M215.2,94.7V78.9c0-0.8-0.1-1.6-0.2-2.3c-0.1-0.7-0.4-1.4-0.7-1.9c-0.3-0.6-0.7-1-1.3-1.3c-0.6-0.3-1.3-0.5-2.1-0.5
		c-0.9,0-1.6,0.2-2.2,0.5c-0.6,0.3-1.2,0.8-1.6,1.4c-0.4,0.6-0.7,1.2-1,2c-0.2,0.8-0.3,1.5-0.3,2.3v15.7h-9.6V65.8h9.2v4h0.1
		c0.3-0.6,0.8-1.2,1.4-1.8c0.6-0.6,1.2-1.1,2-1.5c0.8-0.4,1.6-0.8,2.5-1c0.9-0.3,1.8-0.4,2.8-0.4c1.9,0,3.6,0.3,4.9,1
		c1.4,0.7,2.4,1.6,3.3,2.7c0.8,1.1,1.4,2.4,1.8,3.8c0.4,1.4,0.6,2.9,0.6,4.3v17.9H215.2z"/>
	<path d="M262.6,91.9c0,2.8-0.4,5.3-1.2,7.4s-2,3.8-3.4,5.2c-1.5,1.4-3.3,2.4-5.4,3.1c-2.1,0.7-4.4,1-7,1c-2.6,0-5.2-0.4-7.9-1.2
		c-2.7-0.8-5-1.9-7-3.4l4.8-6.8c1.4,1.2,2.9,2.2,4.6,2.8c1.7,0.6,3.3,0.9,5,0.9c2.8,0,4.8-0.7,6.2-2.2s2-3.4,2-5.9v-1.7h-0.2
		c-0.9,1.2-2.1,2.1-3.6,2.8s-3.2,1-5.2,1c-2.2,0-4.2-0.4-5.9-1.2c-1.7-0.8-3.1-1.9-4.3-3.2c-1.2-1.4-2.1-2.9-2.7-4.7
		c-0.6-1.8-0.9-3.7-0.9-5.7s0.3-3.9,0.9-5.7c0.6-1.8,1.5-3.4,2.7-4.8c1.2-1.4,2.6-2.5,4.3-3.3c1.7-0.8,3.6-1.2,5.8-1.2
		c1.8,0,3.6,0.4,5.2,1.1c1.7,0.7,3,1.9,4,3.4h0.1v-3.7h9V91.9z M253.6,80.1c0-1-0.2-1.9-0.5-2.8c-0.3-0.9-0.8-1.7-1.4-2.3
		c-0.6-0.7-1.4-1.2-2.2-1.6c-0.9-0.4-1.8-0.6-2.9-0.6c-1.1,0-2,0.2-2.9,0.6c-0.8,0.4-1.5,0.9-2.1,1.6c-0.6,0.7-1,1.4-1.3,2.3
		c-0.3,0.9-0.5,1.8-0.5,2.8c0,1,0.2,1.9,0.5,2.8c0.3,0.9,0.8,1.7,1.3,2.3c0.6,0.7,1.3,1.2,2.1,1.6c0.8,0.4,1.8,0.6,2.9,0.6
		c1.1,0,2.1-0.2,2.9-0.6c0.9-0.4,1.6-0.9,2.2-1.6c0.6-0.7,1.1-1.4,1.4-2.3C253.4,82,253.6,81.1,253.6,80.1z"/>
	<path d="M304.6,75.1c-0.5-0.7-1.3-1.3-2.2-1.7c-0.9-0.4-1.9-0.6-2.8-0.6c-1,0-1.9,0.2-2.7,0.6s-1.5,0.9-2.1,1.6
		c-0.6,0.7-1,1.5-1.4,2.3c-0.3,0.9-0.5,1.8-0.5,2.8c0,1,0.2,2,0.5,2.8c0.3,0.9,0.8,1.7,1.4,2.3c0.6,0.7,1.3,1.2,2.1,1.6
		c0.8,0.4,1.8,0.6,2.8,0.6c1,0,1.9-0.2,2.9-0.6c0.9-0.4,1.7-0.9,2.3-1.6l5.3,6.4c-1.2,1.2-2.7,2.1-4.6,2.7c-1.9,0.7-3.9,1-6,1
		c-2.3,0-4.4-0.3-6.4-1c-2-0.7-3.7-1.7-5.2-3c-1.5-1.3-2.6-2.9-3.4-4.8s-1.3-4-1.3-6.4c0-2.4,0.4-4.5,1.3-6.4c0.8-1.9,2-3.5,3.4-4.8
		c1.5-1.3,3.2-2.4,5.2-3.1c2-0.7,4.1-1.1,6.3-1.1c1,0,2.1,0.1,3.1,0.3c1,0.2,2,0.5,3,0.8c0.9,0.3,1.8,0.7,2.6,1.2
		c0.8,0.5,1.5,1,2.1,1.6L304.6,75.1z"/>
	<path d="M313.4,69.7c1.7-1.6,3.7-2.8,5.9-3.7c2.3-0.8,4.6-1.2,6.9-1.2c2.4,0,4.5,0.3,6.2,0.9c1.7,0.6,3,1.5,4.1,2.8
		c1,1.3,1.8,2.8,2.3,4.8c0.5,1.9,0.7,4.2,0.7,6.8v14.6h-8.7v-3.1h-0.2c-0.7,1.2-1.8,2.1-3.3,2.8c-1.5,0.7-3.1,1-4.8,1
		c-1.2,0-2.4-0.2-3.6-0.5c-1.2-0.3-2.4-0.8-3.4-1.5c-1-0.7-1.9-1.6-2.5-2.8c-0.7-1.2-1-2.6-1-4.3c0-2.1,0.6-3.8,1.7-5
		c1.1-1.3,2.6-2.3,4.4-3c1.8-0.7,3.8-1.2,6-1.4s4.4-0.3,6.4-0.3v-0.5c0-1.4-0.5-2.5-1.5-3.2c-1-0.7-2.2-1-3.7-1
		c-1.4,0-2.7,0.3-3.9,0.9c-1.3,0.6-2.3,1.3-3.2,2.1L313.4,69.7z M330.9,82.1h-1.2c-1,0-2.1,0-3.2,0.1c-1.1,0.1-2,0.3-2.8,0.6
		c-0.8,0.3-1.5,0.7-2.1,1.2c-0.5,0.5-0.8,1.2-0.8,2.1c0,0.5,0.1,1,0.4,1.4c0.3,0.4,0.6,0.7,1,0.9c0.4,0.2,0.8,0.4,1.3,0.5
		c0.5,0.1,1,0.1,1.5,0.1c1.9,0,3.4-0.5,4.4-1.6c1-1.1,1.5-2.5,1.5-4.3V82.1z"/>
	<path d="M365.4,73.6c-0.4-0.1-0.8-0.2-1.2-0.2c-0.4,0-0.8-0.1-1.2-0.1c-1.3,0-2.3,0.2-3.2,0.7c-0.9,0.5-1.6,1-2.1,1.7
		c-0.5,0.7-0.9,1.4-1.1,2.1c-0.2,0.8-0.3,1.4-0.3,2v14.8h-9.5V65.8h9.2V70h0.1c0.7-1.5,1.8-2.7,3.1-3.6s2.9-1.4,4.7-1.4
		c0.4,0,0.8,0,1.1,0.1c0.4,0,0.7,0.1,0.9,0.2L365.4,73.6z"/>
	<path d="M379.3,72.9v11.1c0,1.4,0.3,2.4,0.8,3.1c0.5,0.7,1.5,1,2.8,1c0.5,0,1,0,1.5-0.1c0.5-0.1,1-0.2,1.3-0.3l0.1,7
		c-0.7,0.2-1.5,0.4-2.5,0.6c-1,0.2-2,0.3-3,0.3c-1.9,0-3.6-0.2-4.9-0.7c-1.3-0.5-2.4-1.2-3.2-2.1s-1.4-2-1.7-3.3
		c-0.3-1.3-0.5-2.7-0.5-4.2V72.9h-4.6v-7.1h4.6v-7.6h9.3v7.6h6.8v7.1H379.3z"/>
</g>
</svg>
