<?xml version="1.0" encoding="UTF-8" standalone="no"?>
<svg
   xmlns:dc="http://purl.org/dc/elements/1.1/"
   xmlns:cc="http://creativecommons.org/ns#"
   xmlns:rdf="http://www.w3.org/1999/02/22-rdf-syntax-ns#"
   xmlns:svg="http://www.w3.org/2000/svg"
   xmlns="http://www.w3.org/2000/svg"
   id="svg20"
   version="1.1"
   viewBox="0.78 -37.804 615.42 138.792"
   class="Path_368">
  <metadata
     id="metadata26">
    <rdf:RDF>
      <cc:Work
         rdf:about="">
        <dc:format>image/svg+xml</dc:format>
        <dc:type
           rdf:resource="http://purl.org/dc/dcmitype/StillImage" />
        <dc:title></dc:title>
      </cc:Work>
    </rdf:RDF>
  </metadata>
  <defs
     id="defs24" />
  <path
     d="M 23.24399948120117 -27.24799919128418 C 22.48133277893066 -28.21866607666016 21.48466682434082 -28.98999786376953 20.25399971008301 -29.56199836730957 C 19.02333450317383 -30.13399887084961 17.83600044250488 -30.41999816894531 16.69200134277344 -30.41999816894531 C 16.1026668548584 -30.41999816894531 15.50466632843018 -30.36799812316895 14.89800071716309 -30.26399993896484 C 14.29133319854736 -30.15999984741211 13.74533367156982 -29.96066665649414 13.26000022888184 -29.66600036621094 C 12.77466678619385 -29.3713321685791 12.36733341217041 -28.98999977111816 12.03800010681152 -28.52199935913086 C 11.70866680145264 -28.05400085449219 11.54400062561035 -27.45600128173828 11.54400062561035 -26.72800064086914 C 11.54400062561035 -26.10400009155273 11.67400074005127 -25.58399963378906 11.93400001525879 -25.16799926757812 C 12.19400024414062 -24.75200080871582 12.57533359527588 -24.38800048828125 13.07800102233887 -24.07600021362305 C 13.58066654205322 -23.76399993896484 14.17866706848145 -23.47800064086914 14.8720006942749 -23.2180004119873 C 15.56533336639404 -22.95800018310547 16.34533309936523 -22.68933296203613 17.21199989318848 -22.4119987487793 C 18.46000099182129 -21.99600028991699 19.76000022888184 -21.53666687011719 21.11199951171875 -21.03400039672852 C 22.46399879455566 -20.53133201599121 23.69466590881348 -19.86399841308594 24.80400085449219 -19.0319995880127 C 25.91333389282227 -18.20000076293945 26.83199882507324 -17.16866683959961 27.55999755859375 -15.9379997253418 C 28.28800010681152 -14.7073335647583 28.65200042724609 -13.17333316802979 28.65200042724609 -11.33599948883057 C 28.65200042724609 -9.221333503723145 28.26200103759766 -7.392666816711426 27.48200035095215 -5.849999904632568 C 26.70199966430664 -4.307333469390869 25.6533317565918 -3.033333539962769 24.33600044250488 -2.028000116348267 C 23.01866722106934 -1.022666692733765 21.51066780090332 -0.2773333191871643 19.8120002746582 0.2080000042915344 C 18.11333274841309 0.6933333277702332 16.36266708374023 0.9359999895095825 14.5600004196167 0.9359999895095825 C 11.92533302307129 0.9359999895095825 9.37733268737793 0.4766666889190674 6.915999889373779 -0.4420000314712524 C 4.454666614532471 -1.360666751861572 2.409333229064941 -2.669333457946777 0.7799999713897705 -4.368000030517578 L 6.604000091552734 -10.29599952697754 C 7.505333423614502 -9.186666488647461 8.692667007446289 -8.259333610534668 10.16600036621094 -7.513999938964844 C 11.63933372497559 -6.768666744232178 13.10400009155273 -6.396000385284424 14.5600004196167 -6.396000385284424 C 15.21866607666016 -6.396000385284424 15.85999965667725 -6.465333461761475 16.48399925231934 -6.604000091552734 C 17.10799980163574 -6.742666721343994 17.65400123596191 -6.967999935150146 18.12200164794922 -7.28000020980835 C 18.59000015258789 -7.592000007629395 18.96266555786133 -8.008000373840332 19.23999977111816 -8.527999877929688 C 19.517333984375 -9.048000335693359 19.6560001373291 -9.672000885009766 19.6560001373291 -10.40000057220459 C 19.6560001373291 -11.09333324432373 19.482666015625 -11.68266677856445 19.13599967956543 -12.16800022125244 C 18.78933334350586 -12.65333366394043 18.29533386230469 -13.09533309936523 17.65400123596191 -13.49399948120117 C 17.01266860961914 -13.89266681671143 16.21533393859863 -14.25666618347168 15.26200008392334 -14.58599948883057 C 14.30866622924805 -14.91533279418945 13.22533321380615 -15.27066707611084 12.01200008392334 -15.65200042724609 C 10.83333301544189 -16.03333473205566 9.680665969848633 -16.48400115966797 8.553999900817871 -17.00399971008301 C 7.427332878112793 -17.52400016784668 6.421999931335449 -18.19133377075195 5.538000106811523 -19.00600051879883 C 4.653999805450439 -19.8206672668457 3.943333148956299 -20.80866813659668 3.405999898910522 -21.97000122070312 C 2.868666648864746 -23.13133430480957 2.600000143051147 -24.54400062561035 2.600000143051147 -26.20800018310547 C 2.600000143051147 -28.25333404541016 3.016000032424927 -30.00400161743164 3.848000049591064 -31.46000099182129 C 4.679999828338623 -32.91600036621094 5.771999359130859 -34.11199951171875 7.12399959564209 -35.04800033569336 C 8.47599983215332 -35.98400115966797 10.00133323669434 -36.66866683959961 11.69999980926514 -37.10200119018555 C 13.39866638183594 -37.53533172607422 15.11466598510742 -37.75199890136719 16.84799957275391 -37.75199890136719 C 18.92799949645996 -37.75199890136719 21.05133438110352 -37.37066650390625 23.2180004119873 -36.60800170898438 C 25.38466644287109 -35.84533309936523 27.28266716003418 -34.71866607666016 28.9119987487793 -33.22800064086914 L 23.24399948120117 -27.24799919128418 Z M 72.85200500488281 -25.47999954223633 C 72.85200500488281 -23.33066749572754 72.45333862304688 -21.51933479309082 71.65599822998047 -20.04600143432617 C 70.85866546630859 -18.57266807556152 69.78399658203125 -17.38533401489258 68.43199920654297 -16.48399925231934 C 67.08000183105469 -15.58266639709473 65.51999664306641 -14.92399978637695 63.75199890136719 -14.50800037384033 C 61.9839973449707 -14.09200000762939 60.14666366577148 -13.88399982452393 58.23999786376953 -13.88399982452393 L 53.81999969482422 -13.88399982452393 L 53.81999969482422 0 L 44.92800140380859 0 L 44.92800140380859 -36.81600189208984 L 58.447998046875 -36.81600189208984 C 60.45866775512695 -36.81600189208984 62.33933258056641 -36.61666870117188 64.08999633789062 -36.21799850463867 C 65.84066772460938 -35.81933212280273 67.36600494384766 -35.17799758911133 68.66600036621094 -34.29399871826172 C 69.96599578857422 -33.40999984741211 70.98866271972656 -32.24866485595703 71.73400115966797 -30.80999755859375 C 72.47933959960938 -29.3713321685791 72.85200500488281 -27.59466743469238 72.85200500488281 -25.47999954223633 Z M 63.95999908447266 -25.42799949645996 C 63.95999908447266 -26.2946662902832 63.78666687011719 -27.00533294677734 63.43999862670898 -27.55999755859375 C 63.09333038330078 -28.11466598510742 62.62533187866211 -28.54800033569336 62.03600311279297 -28.86000061035156 C 61.4466667175293 -29.17200088500977 60.77933502197266 -29.38000106811523 60.03400039672852 -29.48399925231934 C 59.28866577148438 -29.58799934387207 58.517333984375 -29.63999938964844 57.72000122070312 -29.63999938964844 L 53.81999969482422 -29.63999938964844 L 53.81999969482422 -20.95599937438965 L 57.56400299072266 -20.95599937438965 C 58.39599990844727 -20.95599937438965 59.19333267211914 -21.02533340454102 59.95600128173828 -21.16399955749512 C 60.71866607666016 -21.30266761779785 61.4033317565918 -21.54533386230469 62.0099983215332 -21.89200019836426 C 62.61666488647461 -22.23866653442383 63.09333038330078 -22.69799995422363 63.43999862670898 -23.27000045776367 C 63.78666687011719 -23.84199905395508 63.95999908447266 -24.56133270263672 63.95999908447266 -25.42799949645996 Z M 110.447998046875 0 L 107.5879974365234 -7.227999687194824 L 93.34000396728516 -7.227999687194824 L 90.63600158691406 0 L 80.96400451660156 0 L 96.40800476074219 -36.81600189208984 L 105.0400009155273 -36.81600189208984 L 120.3280029296875 0 L 110.447998046875 0 Z M 100.568000793457 -26.98799896240234 L 95.88800048828125 -14.35199928283691 L 105.1439971923828 -14.35199928283691 L 100.568000793457 -26.98799896240234 Z M 165.2559967041016 -5.095999717712402 C 163.6266632080078 -3.223999977111816 161.6159973144531 -1.742000102996826 159.2239990234375 -0.6500000357627869 C 156.8319854736328 0.4419999718666077 154.0759887695312 0.9879999756813049 150.9559936523438 0.9879999756813049 C 148.1133270263672 0.9879999756813049 145.4873199462891 0.5200000405311584 143.0779876708984 -0.4160000085830688 C 140.6686553955078 -1.351999998092651 138.5799865722656 -2.677999973297119 136.8119964599609 -4.394000053405762 C 135.0439910888672 -6.110000610351562 133.6573181152344 -8.163999557495117 132.6519927978516 -10.55599975585938 C 131.6466674804688 -12.94800090789795 131.1439971923828 -15.58266639709473 131.1439971923828 -18.45999908447266 C 131.1439971923828 -21.40666580200195 131.6553344726562 -24.07600021362305 132.6779937744141 -26.4680004119873 C 133.7006530761719 -28.86000061035156 135.1133270263672 -30.89666557312012 136.9160003662109 -32.57799911499023 C 138.7186584472656 -34.25933456420898 140.8333282470703 -35.55066680908203 143.2599945068359 -36.45199966430664 C 145.6866607666016 -37.35333251953125 148.3040008544922 -37.80400085449219 151.1119995117188 -37.80400085449219 C 153.7119903564453 -37.80400085449219 156.2686614990234 -37.34466934204102 158.7819976806641 -36.42600250244141 C 161.2953338623047 -35.5073356628418 163.3320007324219 -34.16400146484375 164.8919982910156 -32.39599990844727 L 158.8600006103516 -26.3640022277832 C 158.0279998779297 -27.50800132751465 156.9360046386719 -28.35733413696289 155.5839996337891 -28.9119987487793 C 154.2319946289062 -29.46666717529297 152.8453369140625 -29.7440013885498 151.4239959716797 -29.7440013885498 C 149.8639984130859 -29.7440013885498 148.4340057373047 -29.45800018310547 147.1340026855469 -28.8859977722168 C 145.8339996337891 -28.31399726867676 144.7159881591797 -27.52533149719238 143.7799987792969 -26.52000045776367 C 142.843994140625 -25.51466751098633 142.1159973144531 -24.32733345031738 141.5959930419922 -22.95800018310547 C 141.0759887695312 -21.58866691589355 140.8159942626953 -20.08933448791504 140.8159942626953 -18.45999908447266 C 140.8159942626953 -16.79599952697754 141.0759887695312 -15.27066707611084 141.5959930419922 -13.88399982452393 C 142.1159973144531 -12.49733352661133 142.8353271484375 -11.3100004196167 143.7539978027344 -10.32200050354004 C 144.6726531982422 -9.334000587463379 145.7733306884766 -8.562666893005371 147.0559997558594 -8.008000373840332 C 148.3386688232422 -7.453333377838135 149.7426605224609 -7.175999641418457 151.2679901123047 -7.175999641418457 C 153.0359954833984 -7.175999641418457 154.5786590576172 -7.522666454315186 155.89599609375 -8.216000556945801 C 157.2133331298828 -8.909334182739258 158.2706604003906 -9.810667037963867 159.0679931640625 -10.92000007629395 L 165.2559967041016 -5.095999717712402 Z M 179.4520111083984 0 L 179.4520111083984 -36.81600189208984 L 204.2040100097656 -36.81600189208984 L 204.2040100097656 -29.2760009765625 L 188.0320129394531 -29.2760009765625 L 188.0320129394531 -22.36000061035156 L 203.3200073242188 -22.36000061035156 L 203.3200073242188 -15.23600101470947 L 188.0320129394531 -15.23600101470947 L 188.0320129394531 -7.592000007629395 L 205.1399993896484 -7.592000007629395 L 205.1399993896484 0 L 179.4520111083984 0 Z M 243.6199951171875 0 L 235.5599975585938 -13 L 227.8119964599609 0 L 217.2039947509766 0 L 230.0999908447266 -19.44799995422363 L 218.2439880371094 -36.81600189208984 L 228.9559936523438 -36.81600189208984 L 235.8199920654297 -25.37599945068359 L 242.5799865722656 -36.81600189208984 L 252.9279937744141 -36.81600189208984 L 241.2799987792969 -19.44799995422363 L 254.5919952392578 0 L 243.6199951171875 0 Z M 299.9359741210938 -29.2239990234375 L 299.9359741210938 -21.63199996948242 L 314.1839904785156 -21.63199996948242 L 314.1839904785156 -14.30000019073486 L 299.9359741210938 -14.30000019073486 L 299.9359741210938 0 L 291.1479797363281 0 L 291.1479797363281 -36.81600189208984 L 315.3799743652344 -36.81600189208984 L 315.3799743652344 -29.2239990234375 L 299.9359741210938 -29.2239990234375 Z M 353.6520080566406 0 L 350.7919921875 -7.227999687194824 L 336.5440063476562 -7.227999687194824 L 333.8399963378906 0 L 324.1679992675781 0 L 339.6119995117188 -36.81600189208984 L 348.2439880371094 -36.81600189208984 L 363.531982421875 0 L 353.6520080566406 0 Z M 343.7720031738281 -26.98799896240234 L 339.0920104980469 -14.35199928283691 L 348.3479919433594 -14.35199928283691 L 343.7720031738281 -26.98799896240234 Z M 377 0 L 377 -36.81600189208984 L 385.9440002441406 -36.81600189208984 L 385.9440002441406 -7.748000144958496 L 400.1920166015625 -7.748000144958496 L 400.1920166015625 0 L 377 0 Z M 445.5879821777344 -5.095999717712402 C 443.9586486816406 -3.223999977111816 441.947998046875 -1.742000102996826 439.5559997558594 -0.6500000357627869 C 437.1640014648438 0.4419999718666077 434.4079895019531 0.9879999756813049 431.2879943847656 0.9879999756813049 C 428.4453125 0.9879999756813049 425.8193359375 0.5200000405311584 423.4100036621094 -0.4160000085830688 C 421.0006713867188 -1.351999998092651 418.9119873046875 -2.677999973297119 417.1439819335938 -4.394000053405762 C 415.3760070800781 -6.110000610351562 413.9893493652344 -8.163999557495117 412.9840087890625 -10.55599975585938 C 411.9786682128906 -12.94800090789795 411.4759826660156 -15.58266639709473 411.4759826660156 -18.45999908447266 C 411.4759826660156 -21.40666580200195 411.9873352050781 -24.07600021362305 413.010009765625 -26.4680004119873 C 414.0326843261719 -28.86000061035156 415.4453430175781 -30.89666557312012 417.2479858398438 -32.57799911499023 C 419.0506591796875 -34.25933456420898 421.1653442382812 -35.55066680908203 423.5920104980469 -36.45199966430664 C 426.0186767578125 -37.35333251953125 428.635986328125 -37.80400085449219 431.4440002441406 -37.80400085449219 C 434.0440063476562 -37.80400085449219 436.6006469726562 -37.34466934204102 439.1139831542969 -36.42600250244141 C 441.6273193359375 -35.5073356628418 443.6640014648438 -34.16400146484375 445.2239990234375 -32.39599990844727 L 439.1919860839844 -26.3640022277832 C 438.3599853515625 -27.50800132751465 437.2680053710938 -28.35733413696289 435.9159851074219 -28.9119987487793 C 434.5639953613281 -29.46666717529297 433.1773376464844 -29.7440013885498 431.7559814453125 -29.7440013885498 C 430.1959838867188 -29.7440013885498 428.7659912109375 -29.45800018310547 427.4660034179688 -28.8859977722168 C 426.1659851074219 -28.31399726867676 425.0480041503906 -27.52533149719238 424.1119995117188 -26.52000045776367 C 423.1759948730469 -25.51466751098633 422.447998046875 -24.32733345031738 421.9280090332031 -22.95800018310547 C 421.4080200195312 -21.58866691589355 421.1480102539062 -20.08933448791504 421.1480102539062 -18.45999908447266 C 421.1480102539062 -16.79599952697754 421.4080200195312 -15.27066707611084 421.9280090332031 -13.88399982452393 C 422.447998046875 -12.49733352661133 423.1673278808594 -11.3100004196167 424.0859985351562 -10.32200050354004 C 425.0046691894531 -9.334000587463379 426.1053161621094 -8.562666893005371 427.3880004882812 -8.008000373840332 C 428.670654296875 -7.453333377838135 430.0746459960938 -7.175999641418457 431.6000061035156 -7.175999641418457 C 433.3679809570312 -7.175999641418457 434.91064453125 -7.522666454315186 436.2279968261719 -8.216000556945801 C 437.5453491210938 -8.909334182739258 438.6026611328125 -9.810667037963867 439.3999938964844 -10.92000007629395 L 445.5879821777344 -5.095999717712402 Z M 497.5359802246094 -18.56399917602539 C 497.5359802246094 -15.65199947357178 497.0333251953125 -12.9913330078125 496.0279846191406 -10.58199977874756 C 495.0226440429688 -8.172666549682617 493.6273193359375 -6.110000610351562 491.8419799804688 -4.394000053405762 C 490.056640625 -2.677999973297119 487.9333190917969 -1.351999998092651 485.4719848632812 -0.4160000085830688 C 483.0106506347656 0.5200000405311584 480.34130859375 0.9879999756813049 477.4639892578125 0.9879999756813049 C 474.5866394042969 0.9879999756813049 471.9259948730469 0.5200000405311584 469.4819946289062 -0.4160000085830688 C 467.0379943847656 -1.351999998092651 464.9233093261719 -2.677999973297119 463.1379699707031 -4.394000053405762 C 461.3526611328125 -6.110000610351562 459.9573364257812 -8.172666549682617 458.9519958496094 -10.58199977874756 C 457.9466552734375 -12.9913330078125 457.4439697265625 -15.65199947357178 457.4439697265625 -18.56399917602539 C 457.4439697265625 -21.51066589355469 457.9466552734375 -24.17133331298828 458.9519958496094 -26.54600143432617 C 459.9573364257812 -28.92066764831543 461.3526611328125 -30.94000053405762 463.1379699707031 -32.60400009155273 C 464.9233093261719 -34.26800155639648 467.0379943847656 -35.55066680908203 469.4819946289062 -36.45199966430664 C 471.9259948730469 -37.35333251953125 474.5866394042969 -37.80400085449219 477.4639892578125 -37.80400085449219 C 480.34130859375 -37.80400085449219 483.0106506347656 -37.35333251953125 485.4719848632812 -36.45199966430664 C 487.9333190917969 -35.55066680908203 490.056640625 -34.26800155639648 491.8419799804688 -32.60400009155273 C 493.6273193359375 -30.94000053405762 495.0226440429688 -28.92066764831543 496.0279846191406 -26.54600143432617 C 497.0333251953125 -24.17133331298828 497.5359802246094 -21.51066589355469 497.5359802246094 -18.56399917602539 Z M 488.0199890136719 -18.56399917602539 C 488.0199890136719 -20.15866661071777 487.7599792480469 -21.64933204650879 487.239990234375 -23.0359992980957 C 486.7200012207031 -24.42266654968262 486.0006408691406 -25.61000061035156 485.0819702148438 -26.59799957275391 C 484.1632995605469 -27.58600044250488 483.0539855957031 -28.36600112915039 481.7539672851562 -28.93800163269043 C 480.4539794921875 -29.51000213623047 479.0239868164062 -29.79600143432617 477.4639892578125 -29.79600143432617 C 475.9039916992188 -29.79600143432617 474.482666015625 -29.51000213623047 473.1999816894531 -28.93800163269043 C 471.9172973632812 -28.36600112915039 470.8079833984375 -27.58600044250488 469.8719787597656 -26.59799957275391 C 468.9359741210938 -25.61000061035156 468.2166442871094 -24.42266654968262 467.7139892578125 -23.0359992980957 C 467.2113342285156 -21.64933204650879 466.9599914550781 -20.15866661071777 466.9599914550781 -18.56399917602539 C 466.9599914550781 -16.89999961853027 467.2200012207031 -15.36599922180176 467.739990234375 -13.96199989318848 C 468.2599792480469 -12.55799961090088 468.9793090820312 -11.35333347320557 469.8979797363281 -10.34799957275391 C 470.816650390625 -9.342666625976562 471.9172973632812 -8.553999900817871 473.1999816894531 -7.982000350952148 C 474.482666015625 -7.409999847412109 475.9039916992188 -7.12399959564209 477.4639892578125 -7.12399959564209 C 479.0239868164062 -7.12399959564209 480.4453125 -7.409999847412109 481.7279968261719 -7.982000350952148 C 483.0106506347656 -8.553999900817871 484.1199645996094 -9.342666625976562 485.0559692382812 -10.34799957275391 C 485.9919738769531 -11.35333347320557 486.7200012207031 -12.55799961090088 487.239990234375 -13.96199989318848 C 487.7599792480469 -15.36599922180176 488.0199890136719 -16.89999961853027 488.0199890136719 -18.56399917602539 Z M 537.2119750976562 0 L 522.3919677734375 -24.07600021362305 L 522.2359619140625 -24.07600021362305 L 522.4439697265625 0 L 513.81201171875 0 L 513.81201171875 -36.81600189208984 L 523.9519653320312 -36.81600189208984 L 538.719970703125 -12.79200077056885 L 538.8759765625 -12.79200077056885 L 538.66796875 -36.81600189208984 L 547.2999877929688 -36.81600189208984 L 547.2999877929688 0 L 537.2119750976562 0 Z M 616.2000122070312 -24.64800071716309 C 616.2000122070312 -22.4640007019043 615.8186645507812 -20.47933387756348 615.0559692382812 -18.69400024414062 C 614.2933349609375 -16.90866661071777 613.3052978515625 -15.09733390808105 612.0919799804688 -13.26000022888184 L 603.2000122070312 0 L 592.6439819335938 0 L 601.7960205078125 -12.6879997253418 L 601.9000244140625 -12.8439998626709 C 601.5186767578125 -12.70533275604248 601.093994140625 -12.60133266448975 600.6259765625 -12.5319995880127 C 600.1580200195312 -12.46266651153564 599.7160034179688 -12.42799949645996 599.2999877929688 -12.42799949645996 C 597.670654296875 -12.42799949645996 596.1279907226562 -12.71399974822998 594.6719970703125 -13.2859992980957 C 593.2160034179688 -13.85800075531006 591.9332885742188 -14.67266750335693 590.823974609375 -15.73000049591064 C 589.7146606445312 -16.78733444213867 588.8306274414062 -18.05266571044922 588.1719970703125 -19.52599906921387 C 587.5133666992188 -20.99933242797852 587.1840209960938 -22.63733291625977 587.1840209960938 -24.44000053405762 C 587.1840209960938 -26.51999855041504 587.5653686523438 -28.39199829101562 588.3280029296875 -30.05599975585938 C 589.0906372070312 -31.71999931335449 590.1306762695312 -33.12399673461914 591.447998046875 -34.26799774169922 C 592.7653198242188 -35.4119987487793 594.3079833984375 -36.28733062744141 596.0759887695312 -36.89400100708008 C 597.843994140625 -37.50066757202148 599.7160034179688 -37.80400085449219 601.6920166015625 -37.80400085449219 C 603.7026977539062 -37.80400085449219 605.5919799804688 -37.50066757202148 607.3599853515625 -36.89400100708008 C 609.1279907226562 -36.28733062744141 610.6619873046875 -35.4119987487793 611.9619750976562 -34.26799774169922 C 613.261962890625 -33.12399673461914 614.2933349609375 -31.73733139038086 615.0559692382812 -30.10799980163574 C 615.8186645507812 -28.47866630554199 616.2000122070312 -26.65866661071777 616.2000122070312 -24.64800071716309 Z M 607.4639892578125 -24.75200080871582 C 607.4639892578125 -26.3466682434082 606.95263671875 -27.72466659545898 605.9299926757812 -28.8859977722168 C 604.9073486328125 -30.04733085632324 603.5120239257812 -30.62799835205078 601.7440185546875 -30.62799835205078 C 599.9760131835938 -30.62799835205078 598.5632934570312 -30.08199882507324 597.5059814453125 -28.98999977111816 C 596.4486694335938 -27.89800071716309 595.9199829101562 -26.4680004119873 595.9199829101562 -24.69999885559082 C 595.9199829101562 -23.0359992980957 596.4400024414062 -21.65799903869629 597.47998046875 -20.56599998474121 C 598.5199584960938 -19.4739990234375 599.9066772460938 -18.92799949645996 601.6400146484375 -18.92799949645996 C 603.3733520507812 -18.92799949645996 604.77734375 -19.46533393859863 605.8519897460938 -20.54000091552734 C 606.9266357421875 -21.61466789245605 607.4639892578125 -23.01866722106934 607.4639892578125 -24.75200080871582 Z M 23.50399971008301 100 L 15.54799938201904 85.38800048828125 L 12.5319995880127 85.38800048828125 L 12.5319995880127 100 L 3.796000003814697 100 L 3.796000003814697 63.18399810791016 L 17.83600044250488 63.18399810791016 C 19.60400009155273 63.18399810791016 21.32866668701172 63.36599731445312 23.01000022888184 63.72999954223633 C 24.69133377075195 64.09400177001953 26.19933319091797 64.70933532714844 27.53400039672852 65.57600402832031 C 28.86866760253906 66.44266510009766 29.93466758728027 67.58666229248047 30.73200035095215 69.00799560546875 C 31.52933502197266 70.42932891845703 31.92800140380859 72.19733428955078 31.92800140380859 74.31199645996094 C 31.92800140380859 76.80799865722656 31.25200080871582 78.90533447265625 29.89999961853027 80.60400390625 C 28.54800033569336 82.30266571044922 26.67600059509277 83.51599884033203 24.28400039672852 84.24400329589844 L 33.90399932861328 100 L 23.50399971008301 100 Z M 23.13999938964844 74.46800231933594 C 23.13999938964844 73.60133361816406 22.95800018310547 72.89933013916016 22.5939998626709 72.36199951171875 C 22.22999954223633 71.82466888427734 21.76200103759766 71.40866851806641 21.19000053405762 71.11399841308594 C 20.61800003051758 70.81932830810547 19.9766674041748 70.6199951171875 19.26600074768066 70.51599884033203 C 18.55533218383789 70.41200256347656 17.87066650390625 70.36000061035156 17.21199989318848 70.36000061035156 L 12.47999954223633 70.36000061035156 L 12.47999954223633 78.94000244140625 L 16.69200134277344 78.94000244140625 C 17.42000007629395 78.94000244140625 18.16533279418945 78.87933349609375 18.92799949645996 78.75800323486328 C 19.69066619873047 78.63667297363281 20.38400077819824 78.42000579833984 21.00800132751465 78.10800170898438 C 21.63199996948242 77.79599761962891 22.14333343505859 77.34532928466797 22.54199981689453 76.75599670410156 C 22.94066619873047 76.16666412353516 23.13999938964844 75.40399932861328 23.13999938964844 74.46800231933594 Z M 87.04800415039062 81.43600463867188 C 87.04800415039062 84.34799957275391 86.54533386230469 87.0086669921875 85.54000091552734 89.41799926757812 C 84.53466796875 91.82733154296875 83.13933563232422 93.88999938964844 81.35400390625 95.60600280761719 C 79.56866455078125 97.32199859619141 77.44532775878906 98.64800262451172 74.98400115966797 99.58399963378906 C 72.52266693115234 100.5199966430664 69.85333251953125 100.9879989624023 66.97599792480469 100.9879989624023 C 64.09866333007812 100.9879989624023 61.4379997253418 100.5199966430664 58.99399948120117 99.58399963378906 C 56.54999923706055 98.64800262451172 54.43533325195312 97.32199859619141 52.64999771118164 95.60600280761719 C 50.86466598510742 93.88999938964844 49.46933364868164 91.82733154296875 48.4640007019043 89.41799926757812 C 47.45866775512695 87.0086669921875 46.95600128173828 84.34799957275391 46.95600128173828 81.43600463867188 C 46.95600128173828 78.48933410644531 47.45866775512695 75.82866668701172 48.4640007019043 73.45399475097656 C 49.46933364868164 71.07933044433594 50.86466598510742 69.05999755859375 52.64999771118164 67.39599609375 C 54.43533325195312 65.73199462890625 56.54999923706055 64.44932556152344 58.99399948120117 63.54800033569336 C 61.4379997253418 62.64666748046875 64.09866333007812 62.19599914550781 66.97599792480469 62.19599914550781 C 69.85333251953125 62.19599914550781 72.52266693115234 62.64666748046875 74.98400115966797 63.54800033569336 C 77.44532775878906 64.44932556152344 79.56866455078125 65.73199462890625 81.35400390625 67.39599609375 C 83.13933563232422 69.05999755859375 84.53466796875 71.07933044433594 85.54000091552734 73.45399475097656 C 86.54533386230469 75.82866668701172 87.04800415039062 78.48933410644531 87.04800415039062 81.43600463867188 Z M 77.53199768066406 81.43600463867188 C 77.53199768066406 79.84133148193359 77.27199554443359 78.35066986083984 76.75199890136719 76.96400451660156 C 76.23200225830078 75.57733917236328 75.51266479492188 74.38999938964844 74.59400177001953 73.40200042724609 C 73.67533874511719 72.41400146484375 72.56600189208984 71.63399505615234 71.26599884033203 71.06199645996094 C 69.96600341796875 70.48999786376953 68.53600311279297 70.20399475097656 66.97599792480469 70.20399475097656 C 65.41600036621094 70.20399475097656 63.99466705322266 70.48999786376953 62.71199798583984 71.06199645996094 C 61.4293327331543 71.63399505615234 60.31999969482422 72.41400146484375 59.38399887084961 73.40200042724609 C 58.447998046875 74.38999938964844 57.72866439819336 75.57733917236328 57.22599792480469 76.96400451660156 C 56.72333145141602 78.35066986083984 56.47200012207031 79.84133148193359 56.47200012207031 81.43600463867188 C 56.47200012207031 83.09999847412109 56.73199844360352 84.63400268554688 57.25199890136719 86.03800201416016 C 57.77199935913086 87.44200134277344 58.4913330078125 88.64666748046875 59.40999984741211 89.65200042724609 C 60.32866668701172 90.65733337402344 61.4293327331543 91.44599914550781 62.71199798583984 92.01799774169922 C 63.99466705322266 92.58999633789062 65.41600036621094 92.87599945068359 66.97599792480469 92.87599945068359 C 68.53600311279297 92.87599945068359 69.95733642578125 92.58999633789062 71.24000549316406 92.01799774169922 C 72.52266693115234 91.44599914550781 73.63200378417969 90.65733337402344 74.56800079345703 89.65200042724609 C 75.50399780273438 88.64666748046875 76.23200225830078 87.44200134277344 76.75199890136719 86.03800201416016 C 77.27199554443359 84.63400268554688 77.53199768066406 83.09999847412109 77.53199768066406 81.43600463867188 Z M 135.7200012207031 94.90399932861328 C 134.0906677246094 96.7760009765625 132.0800018310547 98.25799560546875 129.6880035400391 99.34999847412109 C 127.2959976196289 100.4420013427734 124.5400009155273 100.9879989624023 121.4199981689453 100.9879989624023 C 118.5773315429688 100.9879989624023 115.9513320922852 100.5199966430664 113.5419998168945 99.58399963378906 C 111.1326675415039 98.64800262451172 109.0439987182617 97.32199859619141 107.2760009765625 95.60600280761719 C 105.5080032348633 93.88999938964844 104.1213302612305 91.83599853515625 103.1159973144531 89.44400024414062 C 102.1106643676758 87.052001953125 101.6080017089844 84.41733551025391 101.6080017089844 81.54000091552734 C 101.6080017089844 78.59333801269531 102.1193313598633 75.92400360107422 103.1419982910156 73.53199768066406 C 104.164665222168 71.13999938964844 105.5773315429688 69.10333251953125 107.379997253418 67.4219970703125 C 109.1826629638672 65.74066162109375 111.2973327636719 64.44932556152344 113.7239990234375 63.54800033569336 C 116.1506652832031 62.64666748046875 118.7679977416992 62.19599914550781 121.5760040283203 62.19599914550781 C 124.1760025024414 62.19599914550781 126.732666015625 62.65533065795898 129.2460021972656 63.57399749755859 C 131.7593231201172 64.49266052246094 133.7959899902344 65.83599853515625 135.3560028076172 67.60400390625 L 129.3240051269531 73.63600158691406 C 128.4920043945312 72.49199676513672 127.4000015258789 71.64266204833984 126.0480041503906 71.08799743652344 C 124.6959991455078 70.53333282470703 123.3093338012695 70.25599670410156 121.8880004882812 70.25599670410156 C 120.3280029296875 70.25599670410156 118.8980026245117 70.54199981689453 117.5979995727539 71.11399841308594 C 116.2980041503906 71.68599700927734 115.1800003051758 72.47466278076172 114.2440032958984 73.47999572753906 C 113.3079986572266 74.48532867431641 112.5799942016602 75.67266845703125 112.0599975585938 77.04199981689453 C 111.5400009155273 78.41133117675781 111.2799987792969 79.91066741943359 111.2799987792969 81.54000091552734 C 111.2799987792969 83.20399475097656 111.5400009155273 84.72933197021484 112.0599975585938 86.11599731445312 C 112.5799942016602 87.50266265869141 113.2993316650391 88.69000244140625 114.2180023193359 89.67800140380859 C 115.1366653442383 90.66600036621094 116.2373352050781 91.43733215332031 117.5199966430664 91.99199676513672 C 118.8026657104492 92.54666137695312 120.2066650390625 92.82399749755859 121.7319946289062 92.82399749755859 C 123.5 92.82399749755859 125.0426712036133 92.47733306884766 126.3600006103516 91.78399658203125 C 127.6773300170898 91.09066772460938 128.7346649169922 90.18933868408203 129.5319976806641 89.08000183105469 L 135.7200012207031 94.90399932861328 Z M 172.4319915771484 100 L 158.7559967041016 83.04800415039062 L 158.6519927978516 83.04800415039062 L 158.6519927978516 100 L 149.9160003662109 100 L 149.9160003662109 63.18399810791016 L 158.6519927978516 63.18399810791016 L 158.6519927978516 78.16000366210938 L 158.8079986572266 78.16000366210938 L 171.9639892578125 63.18399810791016 L 183.0919952392578 63.18399810791016 L 167.2319946289062 80.13600158691406 L 184.0279846191406 100 L 172.4319915771484 100 Z M 197.2880096435547 100 L 197.2880096435547 63.18399810791016 L 222.0400085449219 63.18399810791016 L 222.0400085449219 70.7239990234375 L 205.8680114746094 70.7239990234375 L 205.8680114746094 77.63999938964844 L 221.156005859375 77.63999938964844 L 221.156005859375 84.76399993896484 L 205.8680114746094 84.76399993896484 L 205.8680114746094 92.40799713134766 L 222.9759979248047 92.40799713134766 L 222.9759979248047 100 L 197.2880096435547 100 Z M 255.0079956054688 70.7760009765625 L 255.0079956054688 100 L 246.1159973144531 100 L 246.1159973144531 70.7760009765625 L 235.7159881591797 70.7760009765625 L 235.7159881591797 63.18399810791016 L 265.4079895019531 63.18399810791016 L 265.4079895019531 70.7760009765625 L 255.0079956054688 70.7760009765625 Z M 299.3119812011719 72.75199890136719 C 298.54931640625 71.78133392333984 297.5526733398438 71.01000213623047 296.3219909667969 70.43800354003906 C 295.09130859375 69.86600494384766 293.9039916992188 69.58000183105469 292.760009765625 69.58000183105469 C 292.1706848144531 69.58000183105469 291.5726623535156 69.63200378417969 290.9660034179688 69.73600006103516 C 290.3593444824219 69.83999633789062 289.8133239746094 70.03932952880859 289.3280029296875 70.33399963378906 C 288.8426818847656 70.62866973876953 288.4353332519531 71.01000213623047 288.1059875488281 71.47799682617188 C 287.7766723632812 71.94599914550781 287.6119995117188 72.54399871826172 287.6119995117188 73.27200317382812 C 287.6119995117188 73.89600372314453 287.7420043945312 74.41600036621094 288.0019836425781 74.83200073242188 C 288.2619934082031 75.24800109863281 288.6433410644531 75.61199951171875 289.14599609375 75.92399597167969 C 289.6486511230469 76.23600006103516 290.2466735839844 76.52199554443359 290.9400024414062 76.78199768066406 C 291.6333312988281 77.04199981689453 292.413330078125 77.31066131591797 293.2799987792969 77.58799743652344 C 294.5280151367188 78.00399780273438 295.8280029296875 78.46333312988281 297.1799926757812 78.96600341796875 C 298.5320129394531 79.46866607666016 299.7626647949219 80.13600158691406 300.8720092773438 80.96800231933594 C 301.9813232421875 81.80000305175781 302.8999938964844 82.83133697509766 303.6279907226562 84.06199645996094 C 304.3559875488281 85.29266357421875 304.7200012207031 86.82666778564453 304.7200012207031 88.66400146484375 C 304.7200012207031 90.77866363525391 304.3299865722656 92.60733032226562 303.5499877929688 94.15000152587891 C 302.7699890136719 95.69266510009766 301.7213439941406 96.96666717529297 300.4039916992188 97.97200012207031 C 299.0866394042969 98.97733306884766 297.5786437988281 99.72267150878906 295.8800048828125 100.2080001831055 C 294.1813354492188 100.6933288574219 292.4306640625 100.9359970092773 290.6279907226562 100.9359970092773 C 287.9933166503906 100.9359970092773 285.4453125 100.4766616821289 282.9839782714844 99.55799865722656 C 280.5226440429688 98.63933563232422 278.4773254394531 97.33066558837891 276.8479919433594 95.63200378417969 L 282.6719970703125 89.70400238037109 C 283.5733337402344 90.81333160400391 284.7606506347656 91.74066162109375 286.2340087890625 92.48600006103516 C 287.7073364257812 93.23133087158203 289.1719970703125 93.60399627685547 290.6279907226562 93.60399627685547 C 291.2866516113281 93.60399627685547 291.9280090332031 93.53466033935547 292.552001953125 93.39599609375 C 293.1759948730469 93.25733184814453 293.7220153808594 93.03200531005859 294.1900024414062 92.72000122070312 C 294.6579895019531 92.40799713134766 295.0306701660156 91.99199676513672 295.3079833984375 91.47200012207031 C 295.5853271484375 90.95200347900391 295.7239990234375 90.3280029296875 295.7239990234375 89.59999847412109 C 295.7239990234375 88.90666198730469 295.5506591796875 88.31732940673828 295.2039794921875 87.83200073242188 C 294.8573303222656 87.34667205810547 294.3633117675781 86.90467071533203 293.7219848632812 86.50599670410156 C 293.0806579589844 86.10733032226562 292.2833251953125 85.74333190917969 291.3299865722656 85.41400146484375 C 290.3766479492188 85.08466339111328 289.2933349609375 84.72933197021484 288.0799865722656 84.34799957275391 C 286.9013061523438 83.96666717529297 285.7486572265625 83.51599884033203 284.6219787597656 82.99600219726562 C 283.4953308105469 82.47600555419922 282.489990234375 81.80867004394531 281.6059875488281 80.99400329589844 C 280.7219848632812 80.17933654785156 280.0113220214844 79.19133758544922 279.4739990234375 78.02999877929688 C 278.9366760253906 76.86866760253906 278.6679992675781 75.45600128173828 278.6679992675781 73.79199981689453 C 278.6679992675781 71.74666595458984 279.083984375 69.99600219726562 279.9159851074219 68.54000091552734 C 280.7479858398438 67.08399963378906 281.8399963378906 65.88800048828125 283.1919860839844 64.95199584960938 C 284.5440063476562 64.01599884033203 286.0693359375 63.33133316040039 287.7680053710938 62.89799880981445 C 289.4666442871094 62.46466827392578 291.1826477050781 62.24800109863281 292.9159851074219 62.24800109863281 C 294.9959716796875 62.24800109863281 297.1193237304688 62.62933349609375 299.2859802246094 63.39199829101562 C 301.45263671875 64.1546630859375 303.3506469726562 65.28133392333984 304.97998046875 66.77200317382812 L 299.3119812011719 72.75199890136719 Z"
     id="Path_368" />
</svg>
