<?xml version="1.0" encoding="utf-8"?>
<!-- Generator: Adobe Illustrator 25.0.1, SVG Export Plug-In . SVG Version: 6.00 Build 0)  -->
<svg version="1.1"
	 id="svg20" xmlns:cc="http://creativecommons.org/ns#" xmlns:dc="http://purl.org/dc/elements/1.1/" xmlns:rdf="http://www.w3.org/1999/02/22-rdf-syntax-ns#" xmlns:svg="http://www.w3.org/2000/svg"
	 xmlns="http://www.w3.org/2000/svg" xmlns:xlink="http://www.w3.org/1999/xlink" x="0px" y="0px" viewBox="0 0 682.7 154"
	 style="enable-background:new 0 0 682.7 154;" xml:space="preserve">
<style type="text/css">
	.st0{enable-background:new    ;}
</style>
<g class="st0">
	<path d="M20.7,72.3C19.9,71.6,19,71,18,70.5c-1-0.5-2.1-0.8-3.3-0.8c-0.9,0-1.7,0.2-2.5,0.5c-0.8,0.3-1.1,0.9-1.1,1.8
		c0,0.8,0.4,1.4,1.2,1.7c0.8,0.3,2.2,0.7,4,1.2c1.1,0.2,2.2,0.6,3.3,1s2.1,1,3,1.7c0.9,0.7,1.6,1.5,2.1,2.6c0.5,1,0.8,2.2,0.8,3.6
		c0,1.8-0.4,3.4-1.1,4.6c-0.7,1.3-1.7,2.3-2.9,3c-1.2,0.8-2.5,1.3-4,1.7c-1.5,0.3-2.9,0.5-4.4,0.5c-2.4,0-4.7-0.4-6.9-1.1
		s-4.1-1.9-5.7-3.3L6,83.5c0.9,0.9,1.9,1.7,3.1,2.3c1.2,0.6,2.6,0.9,3.9,0.9c0.8,0,1.5-0.2,2.3-0.6c0.8-0.4,1.1-1,1.1-1.9
		c0-0.9-0.5-1.5-1.4-2c-0.9-0.4-2.4-0.9-4.4-1.3c-1-0.2-2-0.5-3-0.9c-1-0.4-1.9-0.9-2.7-1.6C4.2,77.8,3.6,77,3.1,76
		c-0.5-1-0.8-2.1-0.8-3.5c0-1.7,0.4-3.2,1.1-4.4c0.7-1.2,1.7-2.2,2.8-3c1.2-0.8,2.4-1.3,3.9-1.7c1.4-0.4,2.8-0.6,4.2-0.6
		c2.2,0,4.3,0.3,6.4,1c2.1,0.7,3.8,1.7,5.2,3L20.7,72.3z"/>
	<path d="M63.2,78.1c0,2-0.3,3.9-0.9,5.8c-0.6,1.9-1.5,3.5-2.7,4.9c-1.2,1.4-2.6,2.5-4.3,3.4c-1.7,0.8-3.6,1.3-5.8,1.3
		c-1.8,0-3.5-0.4-5-1.1c-1.6-0.7-2.8-1.7-3.7-2.9h-0.1v17.1h-9.5V63.8h9v3.5h0.2c0.9-1.2,2.1-2.2,3.7-3c1.6-0.9,3.4-1.3,5.5-1.3
		c2.1,0,4,0.4,5.7,1.2c1.7,0.8,3.1,1.9,4.3,3.3c1.2,1.4,2.1,3,2.7,4.8C62.9,74.2,63.2,76.1,63.2,78.1z M54,78.1
		c0-0.9-0.1-1.8-0.4-2.7c-0.3-0.9-0.7-1.7-1.3-2.3c-0.6-0.7-1.3-1.2-2.1-1.7c-0.9-0.4-1.8-0.6-3-0.6c-1.1,0-2,0.2-2.9,0.6
		c-0.9,0.4-1.6,1-2.2,1.7c-0.6,0.7-1.1,1.5-1.4,2.4c-0.3,0.9-0.5,1.8-0.5,2.7s0.2,1.8,0.5,2.7c0.3,0.9,0.8,1.7,1.4,2.4
		c0.6,0.7,1.3,1.3,2.2,1.7c0.9,0.4,1.8,0.6,2.9,0.6c1.1,0,2.1-0.2,3-0.6c0.9-0.4,1.6-1,2.1-1.7c0.6-0.7,1-1.5,1.3-2.4
		C53.9,80,54,79,54,78.1z"/>
	<path d="M68.8,67.7c1.7-1.6,3.7-2.8,5.9-3.7c2.3-0.8,4.6-1.2,6.9-1.2c2.4,0,4.5,0.3,6.2,0.9c1.7,0.6,3,1.5,4.1,2.8
		c1,1.3,1.8,2.8,2.3,4.8c0.5,1.9,0.7,4.2,0.7,6.8v14.6h-8.7v-3.1h-0.2c-0.7,1.2-1.8,2.1-3.3,2.8c-1.5,0.7-3.1,1-4.8,1
		c-1.2,0-2.4-0.2-3.6-0.5c-1.2-0.3-2.4-0.8-3.4-1.5c-1-0.7-1.9-1.6-2.5-2.8c-0.7-1.2-1-2.6-1-4.3c0-2.1,0.6-3.8,1.7-5
		c1.1-1.3,2.6-2.3,4.4-3c1.8-0.7,3.8-1.2,6-1.4s4.4-0.3,6.4-0.3v-0.5c0-1.4-0.5-2.5-1.5-3.2c-1-0.7-2.2-1-3.7-1
		c-1.4,0-2.7,0.3-3.9,0.9c-1.3,0.6-2.3,1.3-3.2,2.1L68.8,67.7z M86.2,80.1H85c-1,0-2.1,0-3.2,0.1c-1.1,0.1-2,0.3-2.8,0.6
		c-0.8,0.3-1.5,0.7-2.1,1.2c-0.5,0.5-0.8,1.2-0.8,2.1c0,0.5,0.1,1,0.4,1.4c0.3,0.4,0.6,0.7,1,0.9c0.4,0.2,0.8,0.4,1.3,0.5
		c0.5,0.1,1,0.1,1.5,0.1c1.9,0,3.4-0.5,4.4-1.6c1-1.1,1.5-2.5,1.5-4.3V80.1z"/>
	<path d="M122,73.1c-0.5-0.7-1.3-1.3-2.2-1.7c-0.9-0.4-1.9-0.6-2.8-0.6c-1,0-1.9,0.2-2.7,0.6s-1.5,0.9-2.1,1.6
		c-0.6,0.7-1,1.5-1.4,2.3c-0.3,0.9-0.5,1.8-0.5,2.8c0,1,0.2,2,0.5,2.8c0.3,0.9,0.8,1.7,1.4,2.3c0.6,0.7,1.3,1.2,2.1,1.6
		c0.8,0.4,1.8,0.6,2.8,0.6c1,0,1.9-0.2,2.9-0.6c0.9-0.4,1.7-0.9,2.3-1.6l5.3,6.4c-1.2,1.2-2.7,2.1-4.6,2.7c-1.9,0.7-3.9,1-6,1
		c-2.3,0-4.4-0.3-6.4-1c-2-0.7-3.7-1.7-5.2-3c-1.5-1.3-2.6-2.9-3.4-4.8s-1.3-4-1.3-6.4c0-2.4,0.4-4.5,1.3-6.4c0.8-1.9,2-3.5,3.4-4.8
		c1.5-1.3,3.2-2.4,5.2-3.1c2-0.7,4.1-1.1,6.3-1.1c1,0,2.1,0.1,3.1,0.3c1,0.2,2,0.5,3,0.8c0.9,0.3,1.8,0.7,2.6,1.2
		c0.8,0.5,1.5,1,2.1,1.6L122,73.1z"/>
	<path d="M159.8,78.6c0,0.4,0,0.8,0,1.2s0,0.8-0.1,1.1h-20.9c0.1,0.8,0.3,1.5,0.7,2.2c0.4,0.7,0.9,1.2,1.6,1.7
		c0.6,0.5,1.4,0.9,2.1,1.1c0.8,0.3,1.6,0.4,2.5,0.4c1.5,0,2.8-0.3,3.8-0.8s1.9-1.3,2.6-2.2l6.6,4.2c-1.4,2-3.1,3.5-5.4,4.6
		c-2.2,1.1-4.8,1.6-7.7,1.6c-2.2,0-4.2-0.3-6.1-1c-1.9-0.7-3.6-1.7-5.1-3c-1.5-1.3-2.6-2.9-3.4-4.8c-0.8-1.9-1.2-4.1-1.2-6.5
		c0-2.4,0.4-4.5,1.2-6.4s1.9-3.5,3.3-4.9s3-2.4,4.9-3.1c1.9-0.7,3.9-1.1,6.1-1.1c2.1,0,4.1,0.4,5.9,1.1c1.8,0.7,3.3,1.8,4.6,3.1
		c1.3,1.4,2.3,3,3,4.9C159.5,73.9,159.8,76.1,159.8,78.6z M151.1,74.9c0-1.5-0.5-2.8-1.4-3.9c-0.9-1.1-2.4-1.6-4.3-1.6
		c-0.9,0-1.8,0.1-2.6,0.4c-0.8,0.3-1.5,0.7-2,1.2c-0.6,0.5-1,1.1-1.4,1.8c-0.3,0.7-0.5,1.4-0.6,2.1H151.1z"/>
	<path d="M184.2,92.7l-6.2-8.9l-6.4,8.9h-11l11.5-15.1l-10.4-13.7h11.1l5.4,7.7l5.5-7.7h10.7L184,77.5l11.4,15.1H184.2z"/>
	<path d="M231.4,55.8c-0.3-0.1-0.8-0.2-1.2-0.3c-0.5-0.1-0.9-0.1-1.4-0.1c-0.9,0-1.6,0.2-2.1,0.5c-0.5,0.3-1,0.7-1.3,1.2
		c-0.3,0.5-0.5,1.1-0.6,1.8c-0.1,0.7-0.2,1.3-0.2,2v2.9h6.4v7.1h-6.4v21.8H215V70.9h-5.3v-7.1h5.3V61c0-1.8,0.2-3.5,0.6-5.1
		c0.4-1.6,1.1-3,2-4.2c0.9-1.2,2.2-2.2,3.8-2.9c1.6-0.7,3.6-1.1,6-1.1c0.8,0,1.6,0,2.4,0.1c0.8,0.1,1.5,0.2,2.2,0.4L231.4,55.8z"/>
	<path d="M234.1,67.7c1.7-1.6,3.7-2.8,5.9-3.7c2.3-0.8,4.6-1.2,6.9-1.2c2.4,0,4.5,0.3,6.2,0.9c1.7,0.6,3,1.5,4.1,2.8
		c1,1.3,1.8,2.8,2.3,4.8c0.5,1.9,0.7,4.2,0.7,6.8v14.6h-8.7v-3.1h-0.2c-0.7,1.2-1.8,2.1-3.3,2.8c-1.5,0.7-3.1,1-4.8,1
		c-1.2,0-2.4-0.2-3.6-0.5c-1.2-0.3-2.4-0.8-3.4-1.5c-1-0.7-1.9-1.6-2.5-2.8c-0.7-1.2-1-2.6-1-4.3c0-2.1,0.6-3.8,1.7-5
		c1.1-1.3,2.6-2.3,4.4-3c1.8-0.7,3.8-1.2,6-1.4s4.4-0.3,6.4-0.3v-0.5c0-1.4-0.5-2.5-1.5-3.2c-1-0.7-2.2-1-3.7-1
		c-1.4,0-2.7,0.3-3.9,0.9c-1.3,0.6-2.3,1.3-3.2,2.1L234.1,67.7z M251.6,80.1h-1.2c-1,0-2.1,0-3.2,0.1c-1.1,0.1-2,0.3-2.8,0.6
		c-0.8,0.3-1.5,0.7-2.1,1.2c-0.5,0.5-0.8,1.2-0.8,2.1c0,0.5,0.1,1,0.4,1.4c0.3,0.4,0.6,0.7,1,0.9c0.4,0.2,0.8,0.4,1.3,0.5
		c0.5,0.1,1,0.1,1.5,0.1c1.9,0,3.4-0.5,4.4-1.6c1-1.1,1.5-2.5,1.5-4.3V80.1z"/>
	<path d="M267.5,92.7V48.8h9.7v43.8H267.5z"/>
	<path d="M304.6,73.1c-0.5-0.7-1.3-1.3-2.2-1.7c-0.9-0.4-1.9-0.6-2.8-0.6c-1,0-1.9,0.2-2.7,0.6s-1.5,0.9-2.1,1.6
		c-0.6,0.7-1,1.5-1.4,2.3c-0.3,0.9-0.5,1.8-0.5,2.8c0,1,0.2,2,0.5,2.8c0.3,0.9,0.8,1.7,1.4,2.3c0.6,0.7,1.3,1.2,2.1,1.6
		c0.8,0.4,1.8,0.6,2.8,0.6c1,0,1.9-0.2,2.9-0.6c0.9-0.4,1.7-0.9,2.3-1.6l5.3,6.4c-1.2,1.2-2.7,2.1-4.6,2.7c-1.9,0.7-3.9,1-6,1
		c-2.3,0-4.4-0.3-6.4-1c-2-0.7-3.7-1.7-5.2-3c-1.5-1.3-2.6-2.9-3.4-4.8s-1.3-4-1.3-6.4c0-2.4,0.4-4.5,1.3-6.4c0.8-1.9,2-3.5,3.4-4.8
		c1.5-1.3,3.2-2.4,5.2-3.1c2-0.7,4.1-1.1,6.3-1.1c1,0,2.1,0.1,3.1,0.3c1,0.2,2,0.5,3,0.8c0.9,0.3,1.8,0.7,2.6,1.2
		c0.8,0.5,1.5,1,2.1,1.6L304.6,73.1z"/>
	<path d="M344.5,78.1c0,2.4-0.4,4.5-1.3,6.4s-2,3.5-3.5,4.9c-1.5,1.3-3.2,2.4-5.1,3.1c-1.9,0.7-4,1.1-6.2,1.1
		c-2.2,0-4.2-0.4-6.2-1.1c-2-0.7-3.7-1.8-5.1-3.1c-1.4-1.3-2.6-3-3.5-4.9c-0.9-1.9-1.3-4-1.3-6.4s0.4-4.5,1.3-6.4
		c0.9-1.9,2-3.5,3.5-4.8c1.5-1.3,3.2-2.3,5.1-3c2-0.7,4-1,6.2-1c2.2,0,4.3,0.3,6.2,1c1.9,0.7,3.6,1.7,5.1,3c1.5,1.3,2.6,2.9,3.5,4.8
		C344,73.6,344.5,75.8,344.5,78.1z M335.3,78.1c0-0.9-0.2-1.8-0.5-2.7c-0.3-0.9-0.8-1.7-1.3-2.3c-0.6-0.7-1.3-1.2-2.1-1.7
		c-0.9-0.4-1.8-0.6-3-0.6c-1.1,0-2.1,0.2-3,0.6c-0.9,0.4-1.6,1-2.1,1.7c-0.6,0.7-1,1.5-1.3,2.3c-0.3,0.9-0.4,1.8-0.4,2.7
		c0,0.9,0.1,1.8,0.4,2.7c0.3,0.9,0.7,1.7,1.3,2.4c0.6,0.7,1.3,1.3,2.1,1.7c0.9,0.4,1.8,0.6,3,0.6c1.1,0,2.1-0.2,3-0.6
		c0.9-0.4,1.6-1,2.1-1.7c0.6-0.7,1-1.5,1.3-2.4C335.1,80,335.3,79,335.3,78.1z"/>
	<path d="M369.5,92.7V76.9c0-0.8-0.1-1.6-0.2-2.3c-0.1-0.7-0.4-1.4-0.7-1.9c-0.3-0.6-0.7-1-1.3-1.3c-0.6-0.3-1.3-0.5-2.1-0.5
		c-0.9,0-1.6,0.2-2.2,0.5c-0.6,0.3-1.2,0.8-1.6,1.4c-0.4,0.6-0.7,1.2-1,2c-0.2,0.8-0.3,1.5-0.3,2.3v15.7h-9.6V63.8h9.2v4h0.1
		c0.3-0.6,0.8-1.2,1.4-1.8c0.6-0.6,1.2-1.1,2-1.5c0.8-0.4,1.6-0.8,2.5-1c0.9-0.3,1.8-0.4,2.8-0.4c1.9,0,3.6,0.3,4.9,1
		c1.4,0.7,2.4,1.6,3.3,2.7c0.8,1.1,1.4,2.4,1.8,3.8c0.4,1.4,0.6,2.9,0.6,4.3v17.9H369.5z"/>
	<path d="M431.9,65.2c0,2.4-0.4,4.7-1.3,6.6s-2,4-3.3,6.1l-9.9,14.8h-11.8l10.2-14.2l0.1-0.2c-0.4,0.2-0.9,0.3-1.4,0.3
		s-1,0.1-1.5,0.1c-1.8,0-3.5-0.3-5.2-1c-1.6-0.6-3-1.5-4.3-2.7c-1.2-1.2-2.2-2.6-3-4.2c-0.7-1.6-1.1-3.5-1.1-5.5
		c0-2.3,0.4-4.4,1.3-6.3c0.8-1.9,2-3.4,3.5-4.7c1.5-1.3,3.2-2.3,5.2-2.9c2-0.7,4.1-1,6.3-1c2.2,0,4.3,0.3,6.3,1
		c2,0.7,3.7,1.7,5.1,2.9c1.4,1.3,2.6,2.8,3.4,4.6C431.4,60.9,431.9,62.9,431.9,65.2z M422.2,65.1c0-1.8-0.6-3.3-1.7-4.6
		c-1.1-1.3-2.7-1.9-4.7-1.9c-2,0-3.6,0.6-4.7,1.8c-1.2,1.2-1.8,2.8-1.8,4.8c0,1.9,0.6,3.4,1.7,4.6c1.2,1.2,2.7,1.8,4.7,1.8
		c1.9,0,3.5-0.6,4.7-1.8C421.6,68.6,422.2,67,422.2,65.1z"/>
	<path d="M471.4,71.6c-0.4-0.1-0.8-0.2-1.2-0.2c-0.4,0-0.8-0.1-1.2-0.1c-1.3,0-2.3,0.2-3.2,0.7s-1.6,1-2.1,1.7
		c-0.5,0.7-0.9,1.4-1.1,2.1c-0.2,0.8-0.3,1.4-0.3,2v14.8h-9.5V63.8h9.2V68h0.1c0.7-1.5,1.8-2.7,3.1-3.6s2.9-1.4,4.7-1.4
		c0.4,0,0.8,0,1.1,0.1c0.4,0,0.7,0.1,0.9,0.2L471.4,71.6z"/>
	<path d="M505.2,78.1c0,2.4-0.4,4.5-1.3,6.4c-0.8,1.9-2,3.5-3.5,4.9c-1.5,1.3-3.2,2.4-5.1,3.1s-4,1.1-6.2,1.1
		c-2.2,0-4.2-0.4-6.2-1.1s-3.7-1.8-5.1-3.1c-1.4-1.3-2.6-3-3.5-4.9s-1.3-4-1.3-6.4s0.4-4.5,1.3-6.4c0.9-1.9,2-3.5,3.5-4.8
		c1.5-1.3,3.2-2.3,5.1-3c2-0.7,4-1,6.2-1c2.2,0,4.3,0.3,6.2,1c1.9,0.7,3.6,1.7,5.1,3c1.5,1.3,2.6,2.9,3.5,4.8
		C504.8,73.6,505.2,75.8,505.2,78.1z M496.1,78.1c0-0.9-0.2-1.8-0.5-2.7c-0.3-0.9-0.8-1.7-1.3-2.3c-0.6-0.7-1.3-1.2-2.1-1.7
		c-0.8-0.4-1.8-0.6-3-0.6s-2.1,0.2-3,0.6c-0.8,0.4-1.6,1-2.1,1.7c-0.6,0.7-1,1.5-1.3,2.3c-0.3,0.9-0.4,1.8-0.4,2.7
		c0,0.9,0.1,1.8,0.4,2.7c0.3,0.9,0.7,1.7,1.3,2.4c0.6,0.7,1.3,1.3,2.1,1.7c0.8,0.4,1.8,0.6,3,0.6c1.1,0,2.1-0.2,3-0.6
		c0.8-0.4,1.6-1,2.1-1.7c0.6-0.7,1-1.5,1.3-2.4C495.9,80,496.1,79,496.1,78.1z"/>
	<path d="M531.2,73.1c-0.5-0.7-1.3-1.3-2.2-1.7s-1.9-0.6-2.8-0.6c-1,0-1.9,0.2-2.7,0.6c-0.8,0.4-1.5,0.9-2.1,1.6
		c-0.6,0.7-1,1.5-1.4,2.3c-0.3,0.9-0.5,1.8-0.5,2.8c0,1,0.2,2,0.5,2.8c0.3,0.9,0.8,1.7,1.4,2.3c0.6,0.7,1.3,1.2,2.1,1.6
		c0.8,0.4,1.8,0.6,2.8,0.6c1,0,1.9-0.2,2.9-0.6c0.9-0.4,1.7-0.9,2.3-1.6l5.3,6.4c-1.2,1.2-2.7,2.1-4.6,2.7c-1.9,0.7-3.9,1-6,1
		c-2.3,0-4.4-0.3-6.4-1c-2-0.7-3.7-1.7-5.2-3c-1.5-1.3-2.6-2.9-3.4-4.8c-0.8-1.9-1.3-4-1.3-6.4c0-2.4,0.4-4.5,1.3-6.4
		c0.8-1.9,2-3.5,3.4-4.8c1.5-1.3,3.2-2.4,5.2-3.1c2-0.7,4.1-1.1,6.3-1.1c1,0,2.1,0.1,3.1,0.3c1,0.2,2,0.5,3,0.8
		c0.9,0.3,1.8,0.7,2.6,1.2c0.8,0.5,1.5,1,2.1,1.6L531.2,73.1z"/>
	<path d="M571.5,92.7h-11.8l-9.5-13.9h-0.2v13.9h-9.6V48.8h9.6v26.7h0.2l9.2-11.7H571l-11.1,13L571.5,92.7z"/>
	<path d="M602.6,78.6c0,0.4,0,0.8,0,1.2s0,0.8-0.1,1.1h-20.9c0.1,0.8,0.3,1.5,0.7,2.2c0.4,0.7,0.9,1.2,1.6,1.7
		c0.6,0.5,1.4,0.9,2.1,1.1c0.8,0.3,1.6,0.4,2.5,0.4c1.5,0,2.8-0.3,3.8-0.8s1.9-1.3,2.6-2.2l6.6,4.2c-1.4,2-3.1,3.5-5.4,4.6
		c-2.2,1.1-4.8,1.6-7.7,1.6c-2.2,0-4.2-0.3-6.1-1s-3.6-1.7-5.1-3c-1.4-1.3-2.6-2.9-3.4-4.8c-0.8-1.9-1.2-4.1-1.2-6.5
		c0-2.4,0.4-4.5,1.2-6.4c0.8-1.9,1.9-3.5,3.3-4.9c1.4-1.3,3-2.4,4.9-3.1c1.9-0.7,3.9-1.1,6.1-1.1c2.1,0,4.1,0.4,5.9,1.1
		c1.8,0.7,3.3,1.8,4.6,3.1c1.3,1.4,2.3,3,3,4.9C602.2,73.9,602.6,76.1,602.6,78.6z M593.8,74.9c0-1.5-0.5-2.8-1.4-3.9
		c-0.9-1.1-2.4-1.6-4.3-1.6c-0.9,0-1.8,0.1-2.6,0.4c-0.8,0.3-1.5,0.7-2,1.2c-0.6,0.5-1,1.1-1.4,1.8c-0.3,0.7-0.5,1.4-0.6,2.1H593.8z
		"/>
	<path d="M618.8,70.9v11.1c0,1.4,0.3,2.4,0.8,3.1c0.5,0.7,1.5,1,2.8,1c0.5,0,1,0,1.5-0.1c0.5-0.1,1-0.2,1.3-0.3l0.1,7
		c-0.7,0.2-1.5,0.4-2.5,0.6c-1,0.2-2,0.3-3,0.3c-1.9,0-3.6-0.2-4.9-0.7c-1.3-0.5-2.4-1.2-3.2-2.1c-0.8-0.9-1.4-2-1.7-3.3
		c-0.3-1.3-0.5-2.7-0.5-4.2V70.9h-4.6v-7.1h4.6v-7.6h9.3v7.6h6.8v7.1H618.8z"/>
	<path d="M647,72.3c-0.8-0.7-1.7-1.4-2.7-1.9c-1-0.5-2.1-0.8-3.3-0.8c-0.9,0-1.7,0.2-2.5,0.5c-0.8,0.3-1.1,0.9-1.1,1.8
		c0,0.8,0.4,1.4,1.2,1.7c0.8,0.3,2.2,0.7,4,1.2c1.1,0.2,2.2,0.6,3.3,1c1.1,0.4,2.1,1,3,1.7c0.9,0.7,1.6,1.5,2.1,2.6
		c0.5,1,0.8,2.2,0.8,3.6c0,1.8-0.4,3.4-1.1,4.6c-0.7,1.3-1.7,2.3-2.9,3c-1.2,0.8-2.5,1.3-4,1.7c-1.5,0.3-2.9,0.5-4.4,0.5
		c-2.4,0-4.7-0.4-6.9-1.1s-4.1-1.9-5.7-3.3l5.3-5.6c0.9,0.9,1.9,1.7,3.1,2.3c1.2,0.6,2.6,0.9,3.9,0.9c0.8,0,1.5-0.2,2.3-0.6
		c0.8-0.4,1.1-1,1.1-1.9c0-0.9-0.5-1.5-1.4-2c-0.9-0.4-2.4-0.9-4.3-1.3c-1-0.2-2-0.5-3-0.9c-1-0.4-1.9-0.9-2.7-1.6
		c-0.8-0.7-1.4-1.5-1.9-2.4c-0.5-1-0.8-2.1-0.8-3.5c0-1.7,0.4-3.2,1.1-4.4c0.7-1.2,1.7-2.2,2.8-3s2.4-1.3,3.9-1.7
		c1.4-0.4,2.8-0.6,4.2-0.6c2.2,0,4.3,0.3,6.4,1c2.1,0.7,3.8,1.7,5.2,3L647,72.3z"/>
</g>
</svg>
