<?xml version="1.0" encoding="utf-8"?>
<!-- Generator: Adobe Illustrator 24.2.1, SVG Export Plug-In . SVG Version: 6.00 Build 0)  -->
<svg version="1.1"
	 id="svg20" xmlns:cc="http://creativecommons.org/ns#" xmlns:dc="http://purl.org/dc/elements/1.1/" xmlns:rdf="http://www.w3.org/1999/02/22-rdf-syntax-ns#" xmlns:svg="http://www.w3.org/2000/svg"
	 xmlns="http://www.w3.org/2000/svg" xmlns:xlink="http://www.w3.org/1999/xlink" x="0px" y="0px" viewBox="0 0 682.7 154"
	 style="enable-background:new 0 0 682.7 154;" xml:space="preserve">
<path id="Path_368" d="M24.9,11.7c-0.8-1.1-2-1.9-3.3-2.6c-1.4-0.6-2.7-1-4-1c-0.7,0-1.3,0.1-2,0.2C15,8.5,14.4,8.7,13.8,9
	c-0.5,0.3-1,0.7-1.4,1.3c-0.4,0.5-0.5,1.2-0.5,2c0,0.7,0.1,1.3,0.4,1.7c0.3,0.5,0.7,0.9,1.3,1.2c0.6,0.3,1.2,0.7,2,1
	c0.8,0.3,1.6,0.6,2.6,0.9c1.4,0.5,2.8,1,4.3,1.5c1.5,0.6,2.9,1.3,4.1,2.2c1.2,0.9,2.2,2.1,3.1,3.4c0.8,1.4,1.2,3.1,1.2,5.1
	c0,2.3-0.4,4.4-1.3,6.1c-0.9,1.7-2,3.1-3.5,4.2c-1.5,1.1-3.1,1.9-5,2.5S17.3,43,15.3,43c-2.9,0-5.7-0.5-8.5-1.5S1.8,39,0,37.1
	l6.5-6.6c1,1.2,2.3,2.3,4,3.1c1.6,0.8,3.3,1.2,4.9,1.2c0.7,0,1.4-0.1,2.1-0.2c0.7-0.2,1.3-0.4,1.8-0.7c0.5-0.3,0.9-0.8,1.2-1.4
	c0.3-0.6,0.5-1.3,0.5-2.1c0-0.8-0.2-1.4-0.6-2c-0.4-0.5-0.9-1-1.6-1.5c-0.7-0.4-1.6-0.8-2.7-1.2c-1.1-0.4-2.3-0.8-3.6-1.2
	c-1.3-0.4-2.6-0.9-3.8-1.5c-1.2-0.6-2.4-1.3-3.3-2.2c-1-0.9-1.8-2-2.4-3.3S2,14.7,2,12.9C2,10.6,2.5,8.7,3.4,7s2.1-2.9,3.6-4
	s3.2-1.8,5.1-2.3c1.9-0.5,3.8-0.7,5.7-0.7c2.3,0,4.7,0.4,7.1,1.3c2.4,0.8,4.5,2.1,6.3,3.7L24.9,11.7z M80,13.7c0,2.4-0.4,4.4-1.3,6
	c-0.9,1.6-2.1,3-3.6,4c-1.5,1-3.2,1.7-5.2,2.2c-2,0.5-4,0.7-6.1,0.7h-4.9v15.4H49V1.1h15c2.2,0,4.3,0.2,6.3,0.7
	c1.9,0.4,3.6,1.2,5.1,2.1c1.4,1,2.6,2.3,3.4,3.9C79.5,9.4,80,11.3,80,13.7z M70.1,13.7c0-1-0.2-1.7-0.6-2.4
	c-0.4-0.6-0.9-1.1-1.6-1.4c-0.7-0.3-1.4-0.6-2.2-0.7c-0.8-0.1-1.7-0.2-2.6-0.2h-4.3v9.6H63c0.9,0,1.8-0.1,2.7-0.2
	c0.8-0.2,1.6-0.4,2.3-0.8c0.7-0.4,1.2-0.9,1.6-1.5C69.9,15.5,70.1,14.7,70.1,13.7z M121.7,41.9l-3.2-8h-15.8l-3,8H89l17.1-40.8h9.6
	l17,40.8H121.7z M110.7,12l-5.2,14h10.3L110.7,12z M182.5,36.3c-1.8,2.1-4,3.7-6.7,4.9c-2.7,1.2-5.7,1.8-9.2,1.8
	c-3.2,0-6.1-0.5-8.7-1.6c-2.7-1-5-2.5-7-4.4c-2-1.9-3.5-4.2-4.6-6.8c-1.1-2.7-1.7-5.6-1.7-8.8c0-3.3,0.6-6.2,1.7-8.9
	s2.7-4.9,4.7-6.8c2-1.9,4.3-3.3,7-4.3c2.7-1,5.6-1.5,8.7-1.5c2.9,0,5.7,0.5,8.5,1.5c2.8,1,5,2.5,6.8,4.5l-6.7,6.7
	c-0.9-1.3-2.1-2.2-3.6-2.8c-1.5-0.6-3-0.9-4.6-0.9c-1.7,0-3.3,0.3-4.8,1c-1.4,0.6-2.7,1.5-3.7,2.6c-1,1.1-1.8,2.4-2.4,4
	c-0.6,1.5-0.9,3.2-0.9,5c0,1.8,0.3,3.5,0.9,5.1c0.6,1.5,1.4,2.9,2.4,4c1,1.1,2.2,2,3.7,2.6c1.4,0.6,3,0.9,4.7,0.9
	c2,0,3.7-0.4,5.1-1.2c1.5-0.8,2.6-1.8,3.5-3L182.5,36.3z M198.2,41.9V1.1h27.5v8.4h-17.9v7.7h17V25h-17v8.5h19v8.4H198.2z
	 M269.4,41.9l-8.9-14.4l-8.6,14.4h-11.8l14.3-21.6L241.2,1.1h11.9l7.6,12.7l7.5-12.7h11.5l-12.9,19.3l14.8,21.6H269.4z M331.9,9.5
	v8.4h15.8v8.1h-15.8v15.9h-9.7V1.1H349v8.4H331.9z M391.5,41.9l-3.2-8h-15.8l-3,8h-10.7l17.1-40.8h9.6l17,40.8H391.5z M380.5,12
	l-5.2,14h10.3L380.5,12z M417.4,41.9V1.1h9.9v32.2h15.8v8.6H417.4z M493.4,36.3c-1.8,2.1-4,3.7-6.7,4.9c-2.7,1.2-5.7,1.8-9.2,1.8
	c-3.2,0-6.1-0.5-8.7-1.6c-2.7-1-5-2.5-7-4.4c-2-1.9-3.5-4.2-4.6-6.8c-1.1-2.7-1.7-5.6-1.7-8.8c0-3.3,0.6-6.2,1.7-8.9
	c1.1-2.7,2.7-4.9,4.7-6.8c2-1.9,4.3-3.3,7-4.3c2.7-1,5.6-1.5,8.7-1.5c2.9,0,5.7,0.5,8.5,1.5s5,2.5,6.8,4.5l-6.7,6.7
	c-0.9-1.3-2.1-2.2-3.6-2.8c-1.5-0.6-3-0.9-4.6-0.9c-1.7,0-3.3,0.3-4.8,1c-1.4,0.6-2.7,1.5-3.7,2.6c-1,1.1-1.8,2.4-2.4,4
	c-0.6,1.5-0.9,3.2-0.9,5c0,1.8,0.3,3.5,0.9,5.1c0.6,1.5,1.4,2.9,2.4,4c1,1.1,2.2,2,3.7,2.6c1.4,0.6,3,0.9,4.7,0.9
	c2,0,3.7-0.4,5.1-1.2c1.5-0.8,2.6-1.8,3.5-3L493.4,36.3z M551.1,21.3c0,3.2-0.6,6.2-1.7,8.9c-1.1,2.7-2.7,5-4.6,6.9
	s-4.3,3.4-7.1,4.4c-2.7,1-5.7,1.6-8.9,1.6c-3.2,0-6.1-0.5-8.9-1.6c-2.7-1-5.1-2.5-7-4.4c-2-1.9-3.5-4.2-4.6-6.9
	c-1.1-2.7-1.7-5.6-1.7-8.9c0-3.3,0.6-6.2,1.7-8.9c1.1-2.6,2.7-4.9,4.6-6.7c2-1.8,4.3-3.3,7-4.3c2.7-1,5.7-1.5,8.9-1.5
	c3.2,0,6.2,0.5,8.9,1.5c2.7,1,5.1,2.4,7.1,4.3c2,1.8,3.5,4.1,4.6,6.7C550.5,15.1,551.1,18.1,551.1,21.3z M540.5,21.3
	c0-1.8-0.3-3.4-0.9-5s-1.4-2.9-2.4-4c-1-1.1-2.2-2-3.7-2.6c-1.4-0.6-3-1-4.8-1s-3.3,0.3-4.7,1c-1.4,0.6-2.7,1.5-3.7,2.6
	c-1,1.1-1.8,2.4-2.4,4s-0.8,3.2-0.8,5c0,1.8,0.3,3.5,0.9,5.1c0.6,1.6,1.4,2.9,2.4,4c1,1.1,2.2,2,3.7,2.6c1.4,0.6,3,1,4.7,1
	s3.3-0.3,4.7-1c1.4-0.6,2.7-1.5,3.7-2.6c1-1.1,1.8-2.5,2.4-4S540.5,23.2,540.5,21.3z M595.1,41.9l-16.4-26.7h-0.2l0.2,26.7h-9.6V1.1
	h11.2l16.4,26.7h0.2l-0.2-26.7h9.6v40.8H595.1z M682.7,14.6c0,2.4-0.4,4.6-1.3,6.6c-0.8,2-1.9,4-3.3,6l-9.9,14.7h-11.7l10.2-14.1
	l0.1-0.2c-0.4,0.2-0.9,0.3-1.4,0.3c-0.5,0.1-1,0.1-1.5,0.1c-1.8,0-3.5-0.3-5.1-1c-1.6-0.6-3-1.5-4.3-2.7c-1.2-1.2-2.2-2.6-2.9-4.2
	s-1.1-3.5-1.1-5.5c0-2.3,0.4-4.4,1.3-6.2c0.8-1.8,2-3.4,3.5-4.7c1.5-1.3,3.2-2.2,5.1-2.9c2-0.7,4-1,6.2-1c2.2,0,4.3,0.3,6.3,1
	c2,0.7,3.7,1.6,5.1,2.9s2.6,2.8,3.4,4.6C682.3,10.3,682.7,12.4,682.7,14.6z M673,14.5c0-1.8-0.6-3.3-1.7-4.6
	c-1.1-1.3-2.7-1.9-4.6-1.9c-2,0-3.5,0.6-4.7,1.8c-1.2,1.2-1.8,2.8-1.8,4.8c0,1.8,0.6,3.4,1.7,4.6c1.2,1.2,2.7,1.8,4.6,1.8
	c1.9,0,3.5-0.6,4.7-1.8C672.4,18,673,16.4,673,14.5z M25.2,152.9l-8.8-16.2H13v16.2H3.3V112h15.6c2,0,3.9,0.2,5.7,0.6s3.5,1.1,5,2
	c1.5,1,2.7,2.2,3.5,3.8s1.3,3.5,1.3,5.9c0,2.8-0.7,5.1-2.2,7c-1.5,1.9-3.6,3.2-6.2,4l10.7,17.5H25.2z M24.8,124.5
	c0-1-0.2-1.7-0.6-2.3c-0.4-0.6-0.9-1.1-1.6-1.4c-0.6-0.3-1.3-0.5-2.1-0.7c-0.8-0.1-1.5-0.2-2.3-0.2H13v9.5h4.7
	c0.8,0,1.6-0.1,2.5-0.2c0.8-0.1,1.6-0.4,2.3-0.7c0.7-0.3,1.3-0.8,1.7-1.5S24.8,125.6,24.8,124.5z M95.7,132.3c0,3.2-0.6,6.2-1.7,8.9
	s-2.7,5-4.6,6.9c-2,1.9-4.3,3.4-7.1,4.4c-2.7,1-5.7,1.6-8.9,1.6c-3.2,0-6.1-0.5-8.9-1.6c-2.7-1-5.1-2.5-7-4.4s-3.5-4.2-4.6-6.9
	c-1.1-2.7-1.7-5.6-1.7-8.9c0-3.3,0.6-6.2,1.7-8.9c1.1-2.6,2.7-4.9,4.6-6.7c2-1.8,4.3-3.3,7-4.3c2.7-1,5.7-1.5,8.9-1.5
	c3.2,0,6.2,0.5,8.9,1.5c2.7,1,5.1,2.4,7.1,4.3c2,1.8,3.5,4.1,4.6,6.7C95.1,126.1,95.7,129,95.7,132.3z M85.1,132.3
	c0-1.8-0.3-3.4-0.9-5c-0.6-1.5-1.4-2.9-2.4-4c-1-1.1-2.2-2-3.7-2.6c-1.4-0.6-3-1-4.8-1c-1.7,0-3.3,0.3-4.7,1
	c-1.4,0.6-2.7,1.5-3.7,2.6c-1,1.1-1.8,2.4-2.4,4s-0.8,3.2-0.8,5c0,1.8,0.3,3.5,0.9,5.1c0.6,1.6,1.4,2.9,2.4,4c1,1.1,2.2,2,3.7,2.6
	c1.4,0.6,3,1,4.7,1c1.7,0,3.3-0.3,4.7-1c1.4-0.6,2.7-1.5,3.7-2.6c1-1.1,1.8-2.5,2.4-4C84.9,135.8,85.1,134.1,85.1,132.3z
	 M149.7,147.2c-1.8,2.1-4,3.7-6.7,4.9c-2.7,1.2-5.7,1.8-9.2,1.8c-3.2,0-6.1-0.5-8.7-1.6c-2.7-1-5-2.5-7-4.4c-2-1.9-3.5-4.2-4.6-6.8
	c-1.1-2.7-1.7-5.6-1.7-8.8c0-3.3,0.6-6.2,1.7-8.9c1.1-2.7,2.7-4.9,4.7-6.8s4.3-3.3,7-4.3c2.7-1,5.6-1.5,8.7-1.5
	c2.9,0,5.7,0.5,8.5,1.5c2.8,1,5,2.5,6.8,4.5l-6.7,6.7c-0.9-1.3-2.1-2.2-3.6-2.8s-3-0.9-4.6-0.9c-1.7,0-3.3,0.3-4.8,1
	c-1.4,0.6-2.7,1.5-3.7,2.6c-1,1.1-1.8,2.4-2.4,4s-0.9,3.2-0.9,5c0,1.8,0.3,3.5,0.9,5.1c0.6,1.5,1.4,2.9,2.4,4s2.2,2,3.7,2.6
	c1.4,0.6,3,0.9,4.7,0.9c2,0,3.7-0.4,5.1-1.2c1.5-0.8,2.6-1.8,3.5-3L149.7,147.2z M190.4,152.9l-15.2-18.8h-0.1v18.8h-9.7V112h9.7
	v16.6h0.2l14.6-16.6h12.3l-17.6,18.8l18.6,22H190.4z M218,152.9V112h27.5v8.4h-17.9v7.7h17v7.9h-17v8.5h19v8.4H218z M282,120.5v32.4
	h-9.9v-32.4h-11.5V112h32.9v8.4H282z M331.2,122.6c-0.8-1.1-2-1.9-3.3-2.6c-1.4-0.6-2.7-1-4-1c-0.7,0-1.3,0.1-2,0.2
	c-0.7,0.1-1.3,0.3-1.8,0.7s-1,0.7-1.4,1.3c-0.4,0.5-0.5,1.2-0.5,2c0,0.7,0.1,1.3,0.4,1.7c0.3,0.5,0.7,0.9,1.3,1.2
	c0.6,0.3,1.2,0.7,2,1s1.6,0.6,2.6,0.9c1.4,0.5,2.8,1,4.3,1.5c1.5,0.6,2.9,1.3,4.1,2.2c1.2,0.9,2.2,2.1,3.1,3.4
	c0.8,1.4,1.2,3.1,1.2,5.1c0,2.3-0.4,4.4-1.3,6.1s-2,3.1-3.5,4.2c-1.5,1.1-3.1,1.9-5,2.5c-1.9,0.5-3.8,0.8-5.8,0.8
	c-2.9,0-5.7-0.5-8.5-1.5c-2.7-1-5-2.5-6.8-4.4l6.5-6.6c1,1.2,2.3,2.3,4,3.1c1.6,0.8,3.3,1.2,4.9,1.2c0.7,0,1.4-0.1,2.1-0.2
	s1.3-0.4,1.8-0.7c0.5-0.3,0.9-0.8,1.2-1.4c0.3-0.6,0.5-1.3,0.5-2.1c0-0.8-0.2-1.4-0.6-2c-0.4-0.5-0.9-1-1.6-1.5
	c-0.7-0.4-1.6-0.8-2.7-1.2c-1.1-0.4-2.3-0.8-3.6-1.2c-1.3-0.4-2.6-0.9-3.8-1.5c-1.2-0.6-2.4-1.3-3.3-2.2s-1.8-2-2.4-3.3
	c-0.6-1.3-0.9-2.9-0.9-4.7c0-2.3,0.5-4.2,1.4-5.8c0.9-1.6,2.1-2.9,3.6-4c1.5-1,3.2-1.8,5.1-2.3c1.9-0.5,3.8-0.7,5.7-0.7
	c2.3,0,4.7,0.4,7.1,1.3c2.4,0.8,4.5,2.1,6.3,3.7L331.2,122.6z"/>
</svg>
