<?xml version="1.0" encoding="utf-8"?>
<!-- Generator: Adobe Illustrator 24.2.1, SVG Export Plug-In . SVG Version: 6.00 Build 0)  -->
<svg version="1.1"
	 id="svg38" xmlns:cc="http://creativecommons.org/ns#" xmlns:dc="http://purl.org/dc/elements/1.1/" xmlns:rdf="http://www.w3.org/1999/02/22-rdf-syntax-ns#" xmlns:svg="http://www.w3.org/2000/svg"
	 xmlns="http://www.w3.org/2000/svg" xmlns:xlink="http://www.w3.org/1999/xlink" x="0px" y="0px" viewBox="0 0 792.1 138.8"
	 style="enable-background:new 0 0 792.1 138.8;" xml:space="preserve">
<path id="Path_383" d="M20.6,58.6v32.6h-9.9V58.6H-0.9v-8.5h33.1v8.5H20.6z M48.3,91.2V50.1h27.6v8.4h-18v7.7h17.1v7.9H57.9v8.5H77
	v8.5H48.3z M116.8,60.8c-0.9-1.1-2-2-3.3-2.6c-1.2-0.6-2.6-0.9-4-1c-0.7,0-1.3,0.1-2,0.2c-0.6,0.1-1.3,0.3-1.8,0.7
	c-0.5,0.3-1,0.8-1.4,1.3c-0.4,0.6-0.6,1.3-0.6,2c0,0.6,0.1,1.2,0.4,1.7c0.3,0.5,0.8,0.9,1.3,1.2c0.6,0.4,1.3,0.7,2,1
	c0.8,0.3,1.6,0.6,2.6,0.9c1.4,0.5,2.8,1,4.3,1.5c1.5,0.5,2.9,1.3,4.1,2.2c1.2,0.9,2.3,2.1,3.1,3.5c0.9,1.6,1.3,3.3,1.2,5.1
	c0.1,2.1-0.4,4.2-1.3,6.1c-0.8,1.7-2,3.1-3.5,4.3c-1.5,1.1-3.2,2-5,2.5c-1.9,0.5-3.9,0.8-5.9,0.8c-2.9,0-5.8-0.5-8.5-1.5
	c-2.6-0.9-4.9-2.4-6.8-4.4l6.5-6.6c1.1,1.3,2.4,2.4,4,3.1c1.5,0.8,3.2,1.2,4.9,1.2c0.7,0,1.4-0.1,2.1-0.2c0.7-0.1,1.3-0.4,1.8-0.8
	c0.5-0.4,1-0.8,1.2-1.4c0.3-0.6,0.5-1.4,0.5-2.1c0-0.7-0.2-1.4-0.6-2c-0.4-0.6-1-1.1-1.7-1.5c-0.8-0.5-1.7-0.9-2.7-1.2
	c-1.1-0.4-2.3-0.8-3.6-1.2c-1.3-0.4-2.6-0.9-3.9-1.5c-1.2-0.6-2.4-1.3-3.4-2.2c-1-0.9-1.8-2.1-2.4-3.3c-0.6-1.5-0.9-3.1-0.9-4.7
	c-0.1-2,0.4-4.1,1.4-5.9c0.9-1.6,2.1-3,3.7-4c1.5-1.1,3.3-1.8,5.1-2.3c1.9-0.5,3.8-0.7,5.7-0.7c2.4,0,4.8,0.4,7.1,1.3
	c2.4,0.8,4.5,2.1,6.4,3.8L116.8,60.8z M141,91.2V50.1h10v32.4h15.9v8.6H141z M210.9,91.2l-3.2-8.1h-15.9l-3,8.1h-10.8l17.2-41.1h9.6
	L222,91.2H210.9z M199.9,61.1l-5.2,14.1H205L199.9,61.1z M299.3,91.2l0.2-29.1h-0.2l-10.7,29.1h-7l-10.4-29.1h-0.2l0.2,29.1H262
	V50.1h14.1l9.3,26.3h0.2l8.9-26.3H309v41.1H299.3z M371.8,70.5c0,3-0.5,6.1-1.7,8.9c-1.1,2.6-2.7,4.9-4.7,6.9
	c-2,1.9-4.5,3.5-7.1,4.4c-2.9,1.1-5.9,1.6-8.9,1.6c-3,0-6.1-0.5-8.9-1.6c-2.6-1-5-2.5-7.1-4.4c-2-2-3.6-4.3-4.7-6.9
	c-1.1-2.8-1.7-5.9-1.7-8.9c0-3,0.5-6.1,1.7-8.9c1.1-2.6,2.7-4.9,4.7-6.8c2-1.9,4.5-3.3,7.1-4.3c2.9-1,5.9-1.5,8.9-1.5
	c3,0,6.1,0.5,8.9,1.5c2.6,0.9,5,2.4,7.1,4.3c2,1.9,3.6,4.2,4.7,6.8C371.3,64.4,371.9,67.4,371.8,70.5L371.8,70.5z M361.2,70.5
	c0-1.7-0.3-3.4-0.9-5c-0.5-1.5-1.4-2.8-2.4-4c-1-1.1-2.3-2-3.7-2.6c-1.5-0.7-3.1-1-4.8-1c-1.6,0-3.3,0.3-4.8,1
	c-1.4,0.6-2.7,1.5-3.7,2.6c-1.1,1.1-1.9,2.5-2.4,4c-0.6,1.6-0.9,3.3-0.8,5c0,1.7,0.3,3.5,0.9,5.1c0.5,1.5,1.4,2.9,2.4,4
	c1,1.1,2.3,2,3.7,2.6c1.5,0.7,3.1,1,4.8,1c1.6,0,3.3-0.3,4.8-1c1.4-0.6,2.7-1.5,3.7-2.6c1.1-1.2,1.9-2.5,2.4-4
	C360.9,73.9,361.2,72.2,361.2,70.5L361.2,70.5z M428.3,70.5c0.1,3.2-0.6,6.4-2,9.3c-1.3,2.5-3.1,4.7-5.3,6.4c-2.2,1.7-4.7,3-7.4,3.7
	c-2.7,0.8-5.5,1.2-8.4,1.2H390V50.1h14.8c2.9,0,5.8,0.3,8.6,1c2.7,0.6,5.3,1.8,7.5,3.4c2.3,1.6,4.1,3.8,5.3,6.3
	C427.7,63.8,428.4,67.1,428.3,70.5L428.3,70.5z M418,70.5c0.1-2-0.3-4-1.1-5.8c-0.7-1.4-1.7-2.7-3-3.7c-1.3-0.9-2.7-1.6-4.3-1.9
	c-1.6-0.4-3.3-0.6-5-0.6h-4.9v24h4.7c1.7,0,3.5-0.2,5.1-0.6c1.6-0.4,3-1.1,4.4-2c1.3-1,2.3-2.2,3-3.7
	C417.7,74.4,418.1,72.5,418,70.5L418,70.5z M446.5,91.2V50.1h27.6v8.4h-18v7.7h17.1v7.9h-17.1v8.5h19.1v8.5H446.5z M493.3,91.2V50.1
	h10v32.4h15.9v8.6H493.3z M584.2,91.2l-9-14.5l-8.6,14.5h-11.8l14.4-21.7l-13.2-19.4h11.9l7.7,12.8l7.5-12.8h11.5l-13,19.4
	l14.8,21.7H584.2z"/>
</svg>
