<?xml version="1.0" encoding="utf-8"?>
<!-- Generator: Adobe Illustrator 24.2.3, SVG Export Plug-In . SVG Version: 6.00 Build 0)  -->
<svg version="1.1"
	 id="svg20" xmlns:cc="http://creativecommons.org/ns#" xmlns:dc="http://purl.org/dc/elements/1.1/" xmlns:rdf="http://www.w3.org/1999/02/22-rdf-syntax-ns#" xmlns:svg="http://www.w3.org/2000/svg"
	 xmlns="http://www.w3.org/2000/svg" xmlns:xlink="http://www.w3.org/1999/xlink" x="0px" y="0px" viewBox="0 0 888.5 155.4"
	 style="enable-background:new 0 0 888.5 155.4;" xml:space="preserve">
<path id="Path_413" d="M21.5,65.6v32.6h-9.9V65.6H0v-8.5h33.1v8.5H21.5z M49.2,98.2V57.2h27.6v8.4h-18v7.7h17.1v7.9H58.8v8.5h19.1
	v8.5H49.2z M117.7,67.8c-0.9-1.1-2-2-3.3-2.6c-1.2-0.6-2.6-0.9-4-1c-0.7,0-1.3,0.1-2,0.2c-0.6,0.1-1.3,0.3-1.8,0.7
	c-0.5,0.3-1,0.8-1.4,1.3c-0.4,0.6-0.6,1.3-0.6,2c0,0.6,0.1,1.2,0.4,1.7c0.3,0.5,0.8,0.9,1.3,1.2c0.6,0.4,1.3,0.7,2,1
	c0.8,0.3,1.6,0.6,2.6,0.9c1.4,0.5,2.8,1,4.3,1.5c1.5,0.5,2.9,1.3,4.1,2.2c1.2,0.9,2.3,2.1,3.1,3.5c0.9,1.6,1.3,3.3,1.2,5.1
	c0.1,2.1-0.4,4.2-1.3,6.1c-0.8,1.7-2,3.1-3.5,4.3c-1.5,1.1-3.2,2-5,2.5c-1.9,0.5-3.9,0.8-5.9,0.8c-2.9,0-5.8-0.5-8.5-1.5
	c-2.6-0.9-4.9-2.4-6.8-4.4l6.5-6.6c1.1,1.3,2.4,2.4,4,3.1c1.5,0.8,3.2,1.2,4.9,1.2c0.7,0,1.4-0.1,2.1-0.2c0.7-0.1,1.3-0.4,1.8-0.8
	c0.5-0.4,1-0.8,1.2-1.4c0.3-0.6,0.5-1.4,0.5-2.1c0-0.7-0.2-1.4-0.6-2c-0.4-0.6-1-1.1-1.7-1.5c-0.8-0.5-1.7-0.9-2.7-1.2
	c-1.1-0.4-2.3-0.8-3.6-1.2c-1.3-0.4-2.6-0.9-3.9-1.5c-1.2-0.6-2.4-1.3-3.4-2.2c-1-0.9-1.8-2.1-2.4-3.3c-0.6-1.5-0.9-3.1-0.9-4.7
	c-0.1-2,0.4-4.1,1.4-5.9c0.9-1.6,2.1-3,3.7-4c1.5-1.1,3.3-1.8,5.1-2.3c1.9-0.5,3.8-0.7,5.7-0.7c2.4,0,4.8,0.4,7.1,1.3
	c2.4,0.8,4.5,2.1,6.4,3.8L117.7,67.8z M141.9,98.2V57.2h10v32.4h15.9v8.6H141.9z M211.9,98.2l-3.2-8.1h-15.9l-3,8.1H179l17.2-41.1
	h9.6l17.1,41.1H211.9z M200.9,68.1l-5.2,14.1H206L200.9,68.1z M300.2,98.2l0.2-29.1h-0.2l-10.7,29.1h-7l-10.4-29.1h-0.2l0.2,29.1
	H263V57.2h14.1l9.3,26.3h0.2l8.9-26.3h14.3v41.1H300.2z M372.8,77.5c0,3-0.5,6.1-1.7,8.9c-1.1,2.6-2.7,4.9-4.7,6.9
	c-2,1.9-4.5,3.5-7.1,4.4c-2.9,1.1-5.9,1.6-8.9,1.6c-3,0-6.1-0.5-8.9-1.6c-2.6-1-5-2.5-7.1-4.4c-2-2-3.6-4.3-4.7-6.9
	c-1.1-2.8-1.7-5.9-1.7-8.9c0-3,0.5-6.1,1.7-8.9c1.1-2.6,2.7-4.9,4.7-6.8c2-1.9,4.5-3.3,7.1-4.3c2.9-1,5.9-1.5,8.9-1.5
	c3,0,6.1,0.5,8.9,1.5c2.6,0.9,5,2.4,7.1,4.3c2,1.9,3.6,4.2,4.7,6.8C372.2,71.4,372.8,74.5,372.8,77.5L372.8,77.5z M362.2,77.5
	c0-1.7-0.3-3.4-0.9-5c-0.5-1.5-1.4-2.8-2.4-4c-1-1.1-2.3-2-3.7-2.6c-1.5-0.7-3.1-1-4.8-1c-1.6,0-3.3,0.3-4.8,1
	c-1.4,0.6-2.7,1.5-3.7,2.6c-1.1,1.1-1.9,2.5-2.4,4c-0.6,1.6-0.9,3.3-0.8,5c0,1.7,0.3,3.5,0.9,5.1c0.5,1.5,1.4,2.9,2.4,4
	c1,1.1,2.3,2,3.7,2.6c1.5,0.7,3.1,1,4.8,1c1.6,0,3.3-0.3,4.8-1c1.4-0.6,2.7-1.5,3.7-2.6c1.1-1.2,1.9-2.5,2.4-4
	C361.9,81,362.2,79.3,362.2,77.5L362.2,77.5z M429.3,77.6c0.1,3.2-0.6,6.4-2,9.3c-1.3,2.5-3.1,4.7-5.3,6.4c-2.2,1.7-4.7,3-7.4,3.7
	c-2.7,0.8-5.5,1.2-8.4,1.2h-15.3V57.2h14.8c2.9,0,5.8,0.3,8.6,1c2.7,0.6,5.3,1.8,7.5,3.4c2.3,1.6,4.1,3.8,5.3,6.3
	C428.7,70.9,429.4,74.2,429.3,77.6L429.3,77.6z M418.9,77.6c0.1-2-0.3-4-1.1-5.8c-0.7-1.4-1.7-2.7-3-3.7c-1.3-0.9-2.7-1.6-4.3-1.9
	c-1.6-0.4-3.3-0.6-5-0.6h-4.9v24h4.7c1.7,0,3.5-0.2,5.1-0.6c1.6-0.4,3-1.1,4.4-2c1.3-1,2.3-2.2,3-3.7
	C418.6,81.5,419,79.6,418.9,77.6L418.9,77.6z M447.4,98.2V57.2H475v8.4h-18v7.7H474v7.9H457v8.5h19.1v8.5H447.4z M494.2,98.2V57.2
	h10v32.4h15.9v8.6H494.2z M579.6,80.8v17.4h-9.9V80.8l-15.4-23.7h12l8.8,15.2l8.8-15.2h11.6L579.6,80.8z"/>
</svg>
