<?xml version="1.0" encoding="utf-8"?>
<!-- Generator: Adobe Illustrator 24.2.1, SVG Export Plug-In . SVG Version: 6.00 Build 0)  -->
<svg version="1.1"
	 id="svg110" xmlns:cc="http://creativecommons.org/ns#" xmlns:dc="http://purl.org/dc/elements/1.1/" xmlns:rdf="http://www.w3.org/1999/02/22-rdf-syntax-ns#" xmlns:svg="http://www.w3.org/2000/svg"
	 xmlns="http://www.w3.org/2000/svg" xmlns:xlink="http://www.w3.org/1999/xlink" x="0px" y="0px" viewBox="0 0 792.1 138.8"
	 style="enable-background:new 0 0 792.1 138.8;" xml:space="preserve">
<path id="Path_381" d="M21.5,58.6v32.6h-9.9V58.6H0v-8.5h33.1v8.5H21.5z M49.2,91.2V50.1h27.6v8.4h-18v7.7h17.1v7.9H58.8v8.5h19.1
	v8.5H49.2z M117.7,60.8c-0.9-1.1-2-1.9-3.3-2.6c-1.4-0.6-2.7-1-4-1c-0.7,0-1.3,0.1-2,0.2c-0.7,0.1-1.3,0.3-1.8,0.7
	c-0.5,0.3-1,0.8-1.4,1.3s-0.6,1.2-0.6,2c0,0.7,0.1,1.3,0.4,1.7c0.3,0.5,0.7,0.9,1.3,1.2c0.6,0.3,1.2,0.7,2,1
	c0.8,0.3,1.6,0.6,2.6,0.9c1.4,0.5,2.8,1,4.3,1.5c1.5,0.6,2.9,1.3,4.1,2.2c1.2,0.9,2.3,2.1,3.1,3.5c0.8,1.4,1.2,3.1,1.2,5.1
	c0,2.4-0.4,4.4-1.3,6.1s-2,3.1-3.5,4.3c-1.5,1.1-3.2,2-5,2.5c-1.9,0.5-3.8,0.8-5.9,0.8c-2.9,0-5.8-0.5-8.5-1.5c-2.7-1-5-2.5-6.8-4.4
	l6.5-6.6c1,1.2,2.3,2.3,4,3.1c1.6,0.8,3.3,1.2,4.9,1.2c0.7,0,1.4-0.1,2.1-0.2c0.7-0.2,1.3-0.4,1.8-0.8c0.5-0.3,0.9-0.8,1.2-1.4
	s0.5-1.3,0.5-2.1c0-0.8-0.2-1.4-0.6-2c-0.4-0.5-0.9-1-1.7-1.5c-0.7-0.4-1.6-0.9-2.7-1.2c-1.1-0.4-2.3-0.8-3.6-1.2
	c-1.3-0.4-2.6-0.9-3.9-1.5c-1.3-0.6-2.4-1.3-3.4-2.2c-1-0.9-1.8-2-2.4-3.3c-0.6-1.3-0.9-2.9-0.9-4.7c0-2.3,0.5-4.2,1.4-5.9
	c0.9-1.6,2.1-3,3.7-4c1.5-1,3.2-1.8,5.1-2.3c1.9-0.5,3.8-0.7,5.7-0.7c2.3,0,4.7,0.4,7.1,1.3s4.5,2.1,6.4,3.8L117.7,60.8z
	 M141.9,91.2V50.1h10v32.4h15.9v8.6H141.9z M211.9,91.2l-3.2-8.1h-15.9l-3,8.1H179l17.2-41.1h9.6l17.1,41.1H211.9z M200.9,61.1
	l-5.2,14.1H206L200.9,61.1z M300.2,91.2l0.2-29.1h-0.2l-10.7,29.1h-7l-10.4-29.1h-0.2l0.2,29.1H263V50.1h14.1l9.3,26.3h0.2l8.9-26.3
	h14.3v41.1H300.2z M372.8,70.5c0,3.2-0.6,6.2-1.7,8.9c-1.1,2.7-2.7,5-4.7,6.9s-4.4,3.4-7.1,4.4c-2.7,1-5.7,1.6-8.9,1.6
	s-6.2-0.5-8.9-1.6c-2.7-1-5.1-2.5-7.1-4.4s-3.5-4.2-4.7-6.9c-1.1-2.7-1.7-5.7-1.7-8.9c0-3.3,0.6-6.3,1.7-8.9
	c1.1-2.6,2.7-4.9,4.7-6.8c2-1.9,4.4-3.3,7.1-4.3c2.7-1,5.7-1.5,8.9-1.5s6.2,0.5,8.9,1.5c2.7,1,5.1,2.4,7.1,4.3
	c2,1.9,3.5,4.1,4.7,6.8C372.2,64.2,372.8,67.2,372.8,70.5z M362.2,70.5c0-1.8-0.3-3.4-0.9-5c-0.6-1.5-1.4-2.9-2.4-4
	c-1-1.1-2.3-2-3.7-2.6c-1.4-0.6-3-1-4.8-1c-1.7,0-3.3,0.3-4.8,1c-1.4,0.6-2.7,1.5-3.7,2.6c-1,1.1-1.8,2.4-2.4,4s-0.8,3.2-0.8,5
	c0,1.9,0.3,3.6,0.9,5.1c0.6,1.6,1.4,2.9,2.4,4c1,1.1,2.3,2,3.7,2.6c1.4,0.6,3,1,4.8,1c1.7,0,3.3-0.3,4.8-1s2.7-1.5,3.7-2.6
	c1-1.1,1.9-2.5,2.4-4C361.9,74,362.2,72.3,362.2,70.5z M429.3,70.5c0,3.6-0.7,6.7-2,9.3c-1.3,2.6-3.1,4.8-5.3,6.4s-4.6,2.9-7.4,3.7
	c-2.7,0.8-5.5,1.2-8.4,1.2h-15.3V50.1h14.8c2.9,0,5.8,0.3,8.6,1s5.3,1.8,7.5,3.4c2.2,1.6,4,3.7,5.3,6.3
	C428.6,63.4,429.3,66.7,429.3,70.5z M418.9,70.5c0-2.3-0.4-4.2-1.1-5.8c-0.8-1.5-1.8-2.7-3-3.7c-1.3-0.9-2.7-1.6-4.3-1.9
	c-1.6-0.4-3.3-0.6-5-0.6h-4.9v24h4.7c1.8,0,3.5-0.2,5.1-0.6s3.1-1.1,4.4-2c1.3-0.9,2.3-2.2,3-3.7C418.6,74.7,418.9,72.8,418.9,70.5z
	 M447.4,91.2V50.1H475v8.4h-18v7.7H474v7.9H457v8.5h19.1v8.5H447.4z M494.2,91.2V50.1h10v32.4h15.9v8.6H494.2z M582.7,60.8
	c-0.9-1.1-2-1.9-3.3-2.6s-2.7-1-4-1c-0.7,0-1.3,0.1-2,0.2s-1.3,0.3-1.8,0.7c-0.5,0.3-1,0.8-1.4,1.3s-0.6,1.2-0.6,2
	c0,0.7,0.1,1.3,0.4,1.7c0.3,0.5,0.7,0.9,1.3,1.2c0.6,0.3,1.2,0.7,2,1c0.8,0.3,1.6,0.6,2.6,0.9c1.4,0.5,2.8,1,4.3,1.5
	c1.5,0.6,2.9,1.3,4.1,2.2c1.2,0.9,2.3,2.1,3.1,3.5s1.2,3.1,1.2,5.1c0,2.4-0.4,4.4-1.3,6.1s-2,3.1-3.5,4.3c-1.5,1.1-3.2,2-5,2.5
	c-1.9,0.5-3.8,0.8-5.9,0.8c-2.9,0-5.8-0.5-8.5-1.5s-5-2.5-6.8-4.4l6.5-6.6c1,1.2,2.3,2.3,4,3.1c1.6,0.8,3.3,1.2,4.9,1.2
	c0.7,0,1.5-0.1,2.1-0.2c0.7-0.2,1.3-0.4,1.8-0.8c0.5-0.3,0.9-0.8,1.2-1.4c0.3-0.6,0.5-1.3,0.5-2.1c0-0.8-0.2-1.4-0.6-2
	c-0.4-0.5-0.9-1-1.7-1.5c-0.7-0.4-1.6-0.9-2.7-1.2c-1.1-0.4-2.3-0.8-3.6-1.2c-1.3-0.4-2.6-0.9-3.9-1.5c-1.3-0.6-2.4-1.3-3.4-2.2
	c-1-0.9-1.8-2-2.4-3.3c-0.6-1.3-0.9-2.9-0.9-4.7c0-2.3,0.5-4.2,1.4-5.9c0.9-1.6,2.1-3,3.7-4c1.5-1,3.2-1.8,5.1-2.3
	c1.9-0.5,3.8-0.7,5.7-0.7c2.3,0,4.7,0.4,7.1,1.3s4.5,2.1,6.4,3.8L582.7,60.8z"/>
</svg>
