<?xml version="1.0" encoding="UTF-8" standalone="no"?>
<svg
   xmlns:dc="http://purl.org/dc/elements/1.1/"
   xmlns:cc="http://creativecommons.org/ns#"
   xmlns:rdf="http://www.w3.org/1999/02/22-rdf-syntax-ns#"
   xmlns:svg="http://www.w3.org/2000/svg"
   xmlns="http://www.w3.org/2000/svg"
   id="svg20"
   version="1.1"
   viewBox="0.29 -42.166 590.614 43.268"
   class="Path_382">
  <metadata
     id="metadata26">
    <rdf:RDF>
      <cc:Work
         rdf:about="">
        <dc:format>image/svg+xml</dc:format>
        <dc:type
           rdf:resource="http://purl.org/dc/dcmitype/StillImage" />
        <dc:title></dc:title>
      </cc:Work>
    </rdf:RDF>
  </metadata>
  <defs
     id="defs24" />
  <path
     d="M 21.80799865722656 -32.59599685668945 L 21.80799865722656 0 L 11.89000034332275 0 L 11.89000034332275 -32.59599685668945 L 0.2899999916553497 -32.59599685668945 L 0.2899999916553497 -41.06399917602539 L 33.40799713134766 -41.06399917602539 L 33.40799713134766 -32.59599685668945 L 21.80799865722656 -32.59599685668945 Z M 49.53200149536133 0 L 49.53200149536133 -41.06399917602539 L 77.13999938964844 -41.06399917602539 L 77.13999938964844 -32.65400314331055 L 59.10200119018555 -32.65400314331055 L 59.10200119018555 -24.94000053405762 L 76.15399932861328 -24.94000053405762 L 76.15399932861328 -16.9940013885498 L 59.10200119018555 -16.9940013885498 L 59.10200119018555 -8.467999458312988 L 78.18399810791016 -8.467999458312988 L 78.18399810791016 0 L 49.53200149536133 0 Z M 118.0300064086914 -30.39200019836426 C 117.1793365478516 -31.47466659545898 116.0676727294922 -32.33499908447266 114.6950073242188 -32.97299957275391 C 113.3223342895508 -33.61100006103516 111.9980010986328 -33.93000030517578 110.7220001220703 -33.93000030517578 C 110.0646743774414 -33.93000030517578 109.3976745605469 -33.87200164794922 108.7210083007812 -33.75600051879883 C 108.0443344116211 -33.63999938964844 107.4353332519531 -33.41766738891602 106.8940048217773 -33.0890007019043 C 106.352668762207 -32.76033020019531 105.8983383178711 -32.33499908447266 105.531005859375 -31.8129997253418 C 105.1636734008789 -31.29100036621094 104.9800033569336 -30.62400054931641 104.9800033569336 -29.8120002746582 C 104.9800033569336 -29.11599922180176 105.125 -28.5359992980957 105.4150009155273 -28.07200050354004 C 105.7050018310547 -27.60799980163574 106.1303405761719 -27.20199966430664 106.6910018920898 -26.85400009155273 C 107.2516708374023 -26.50600051879883 107.9186706542969 -26.1870002746582 108.6920013427734 -25.89699935913086 C 109.4653396606445 -25.60700035095215 110.335334777832 -25.30733299255371 111.302001953125 -24.99799919128418 C 112.6940078735352 -24.53400039672852 114.1440048217773 -24.02166748046875 115.6520004272461 -23.46100044250488 C 117.1600036621094 -22.90033340454102 118.5326690673828 -22.1560001373291 119.7700042724609 -21.22800064086914 C 121.0073394775391 -20.30000114440918 122.0320053100586 -19.14966583251953 122.8440017700195 -17.77699851989746 C 123.656005859375 -16.40433311462402 124.0620040893555 -14.69333267211914 124.0620040893555 -12.64400005340576 C 124.0620040893555 -10.28533363342285 123.6270065307617 -8.24566650390625 122.7570037841797 -6.524999618530273 C 121.8870010375977 -4.804333209991455 120.7173385620117 -3.383333683013916 119.2480010986328 -2.26200008392334 C 117.7786712646484 -1.140666604042053 116.0966720581055 -0.309333324432373 114.2020034790039 0.232000008225441 C 112.3073348999023 0.7733333110809326 110.3546676635742 1.043999910354614 108.3440017700195 1.043999910354614 C 105.4053344726562 1.043999910354614 102.5633392333984 0.53166663646698 99.81800079345703 -0.4930000305175781 C 97.07266998291016 -1.517666697502136 94.79133605957031 -2.977333068847656 92.97400665283203 -4.871999740600586 L 99.47000122070312 -11.48400020599365 C 100.4753341674805 -10.24666595458984 101.7996673583984 -9.212332725524902 103.443000793457 -8.381000518798828 C 105.0863342285156 -7.549666881561279 106.7200012207031 -7.134000301361084 108.3440017700195 -7.134000301361084 C 109.0786666870117 -7.134000301361084 109.7939987182617 -7.211333751678467 110.4900054931641 -7.366000175476074 C 111.1860046386719 -7.520666599273682 111.7950057983398 -7.771999835968018 112.3170013427734 -8.119999885559082 C 112.8390045166016 -8.468000411987305 113.2546691894531 -8.932000160217285 113.5640029907227 -9.51200008392334 C 113.8733367919922 -10.09200000762939 114.0279998779297 -10.78800010681152 114.0279998779297 -11.60000038146973 C 114.0279998779297 -12.37333393096924 113.8346710205078 -13.03066635131836 113.4480056762695 -13.57199954986572 C 113.0613403320312 -14.11333274841309 112.5103378295898 -14.60633277893066 111.7950057983398 -15.05099964141846 C 111.0796661376953 -15.49566650390625 110.1903381347656 -15.90166568756104 109.1270065307617 -16.26899909973145 C 108.0636749267578 -16.63633346557617 106.855339050293 -17.03266716003418 105.5020065307617 -17.45800018310547 C 104.1873397827148 -17.88333320617676 102.9016723632812 -18.38599967956543 101.6450042724609 -18.96599960327148 C 100.3883361816406 -19.54599952697754 99.26700592041016 -20.29033279418945 98.281005859375 -21.19899940490723 C 97.29500579833984 -22.107666015625 96.50233459472656 -23.20966720581055 95.90300750732422 -24.50500106811523 C 95.30367279052734 -25.80033302307129 95.00400543212891 -27.37599945068359 95.00400543212891 -29.23200035095215 C 95.00400543212891 -31.51333618164062 95.46800231933594 -33.46600341796875 96.39600372314453 -35.09000015258789 C 97.32400512695312 -36.7140007019043 98.54199981689453 -38.04800033569336 100.0500030517578 -39.09200286865234 C 101.5580062866211 -40.1359977722168 103.2593383789062 -40.89966583251953 105.1540069580078 -41.38300323486328 C 107.0486679077148 -41.86633682250977 108.9626693725586 -42.10800170898438 110.8960037231445 -42.10800170898438 C 113.2160034179688 -42.10800170898438 115.584342956543 -41.68266677856445 118.0010070800781 -40.83200073242188 C 120.4176712036133 -39.9813346862793 122.5346755981445 -38.72466659545898 124.3520050048828 -37.0620002746582 L 118.0300064086914 -30.39200019836426 Z M 142.2159881591797 0 L 142.2159881591797 -41.06399917602539 L 152.1920013427734 -41.06399917602539 L 152.1920013427734 -8.642000198364258 L 168.0839996337891 -8.642000198364258 L 168.0839996337891 0 L 142.2159881591797 0 Z M 212.1640014648438 0 L 208.9739990234375 -8.062000274658203 L 193.0820007324219 -8.062000274658203 L 190.0659942626953 0 L 179.2779998779297 0 L 196.5039978027344 -41.06399917602539 L 206.1319885253906 -41.06399917602539 L 223.1839904785156 0 L 212.1640014648438 0 Z M 201.1439971923828 -30.10199928283691 L 195.9239959716797 -16.00799942016602 L 206.2480010986328 -16.00799942016602 L 201.1439971923828 -30.10199928283691 Z M 300.4980163574219 0 L 300.7300109863281 -29.05799865722656 L 300.5560302734375 -29.05799865722656 L 289.8840026855469 0 L 282.9240112304688 0 L 272.5420227050781 -29.05799865722656 L 272.3680114746094 -29.05799865722656 L 272.6000061035156 0 L 263.2620239257812 0 L 263.2620239257812 -41.06399917602539 L 277.3560180664062 -41.06399917602539 L 286.6940307617188 -14.73200035095215 L 286.926025390625 -14.73200035095215 L 295.8580017089844 -41.06399917602539 L 310.1840209960938 -41.06399917602539 L 310.1840209960938 0 L 300.4980163574219 0 Z M 373.0559997558594 -20.70599937438965 C 373.0559997558594 -17.45800018310547 372.4953308105469 -14.49033355712891 371.3739929199219 -11.80300045013428 C 370.252685546875 -9.115667343139648 368.6963500976562 -6.815000534057617 366.7050170898438 -4.901000022888184 C 364.7136840820312 -2.986999988555908 362.3453369140625 -1.508000016212463 359.6000061035156 -0.464000016450882 C 356.8546752929688 0.5800000429153442 353.8773193359375 1.101999998092651 350.6679992675781 1.101999998092651 C 347.4586791992188 1.101999998092651 344.4909973144531 0.5800000429153442 341.7650146484375 -0.464000016450882 C 339.0390014648438 -1.508000016212463 336.6803283691406 -2.986999988555908 334.6889953613281 -4.901000022888184 C 332.6976623535156 -6.815000534057617 331.1413269042969 -9.115667343139648 330.02001953125 -11.80300045013428 C 328.898681640625 -14.49033355712891 328.3380126953125 -17.45800018310547 328.3380126953125 -20.70599937438965 C 328.3380126953125 -23.99266624450684 328.898681640625 -26.9603328704834 330.02001953125 -29.60900115966797 C 331.1413269042969 -32.25766754150391 332.6976623535156 -34.5099983215332 334.6889953613281 -36.36599731445312 C 336.6803283691406 -38.22200012207031 339.0390014648438 -39.65266799926758 341.7650146484375 -40.65799713134766 C 344.4909973144531 -41.66333389282227 347.4586791992188 -42.16600036621094 350.6679992675781 -42.16600036621094 C 353.8773193359375 -42.16600036621094 356.8546752929688 -41.66333389282227 359.6000061035156 -40.65799713134766 C 362.3453369140625 -39.65266799926758 364.7136840820312 -38.22200012207031 366.7050170898438 -36.36599731445312 C 368.6963500976562 -34.5099983215332 370.252685546875 -32.25766754150391 371.3739929199219 -29.60900115966797 C 372.4953308105469 -26.9603328704834 373.0559997558594 -23.99266624450684 373.0559997558594 -20.70599937438965 Z M 362.4420166015625 -20.70599937438965 C 362.4420166015625 -22.48466682434082 362.1520080566406 -24.1473331451416 361.5719909667969 -25.69400024414062 C 360.9920043945312 -27.24066734313965 360.1896667480469 -28.56500053405762 359.1650085449219 -29.66699981689453 C 358.1403198242188 -30.76900100708008 356.9029846191406 -31.63900184631348 355.4530029296875 -32.27700042724609 C 354.0030212402344 -32.91500091552734 352.4080200195312 -33.23400115966797 350.6679992675781 -33.23400115966797 C 348.9280090332031 -33.23400115966797 347.3426818847656 -32.91500091552734 345.9120178222656 -32.27700042724609 C 344.4813232421875 -31.63900184631348 343.2439880371094 -30.76900100708008 342.2000122070312 -29.66699981689453 C 341.156005859375 -28.56500053405762 340.3536682128906 -27.24066734313965 339.7929992675781 -25.69400024414062 C 339.2323303222656 -24.1473331451416 338.9519958496094 -22.48466682434082 338.9519958496094 -20.70599937438965 C 338.9519958496094 -18.84999847412109 339.2420043945312 -17.13899993896484 339.8219909667969 -15.57299995422363 C 340.4020080566406 -14.00699996948242 341.204345703125 -12.66333293914795 342.22900390625 -11.54199981689453 C 343.253662109375 -10.42066669464111 344.4813232421875 -9.540999412536621 345.9120178222656 -8.902999877929688 C 347.3426818847656 -8.264999389648438 348.9280090332031 -7.945999622344971 350.6679992675781 -7.945999622344971 C 352.4080200195312 -7.945999622344971 353.9933471679688 -8.264999389648438 355.4240112304688 -8.902999877929688 C 356.8546752929688 -9.540999412536621 358.0920104980469 -10.42066669464111 359.1360168457031 -11.54199981689453 C 360.1799926757812 -12.66333293914795 360.9920043945312 -14.00699996948242 361.5719909667969 -15.57299995422363 C 362.1520080566406 -17.13899993896484 362.4420166015625 -18.84999847412109 362.4420166015625 -20.70599937438965 Z M 429.5480041503906 -20.64800071716309 C 429.5480041503906 -17.05200004577637 428.8810119628906 -13.94900035858154 427.5470275878906 -11.33899974822998 C 426.2130126953125 -8.729000091552734 424.4536743164062 -6.583000183105469 422.2690124511719 -4.901000022888184 C 420.0843505859375 -3.218999862670898 417.6193542480469 -1.981666684150696 414.8740234375 -1.189000010490417 C 412.1286926269531 -0.3963333368301392 409.3446655273438 0 406.5220031738281 0 L 391.2100219726562 0 L 391.2100219726562 -41.06399917602539 L 406.0580139160156 -41.06399917602539 C 408.9580078125 -41.06399917602539 411.8193664550781 -40.72566604614258 414.6420288085938 -40.04899978637695 C 417.4646911621094 -39.37233352661133 419.9779968261719 -38.25099945068359 422.1820068359375 -36.68500137329102 C 424.3860168457031 -35.11899948120117 426.1646728515625 -33.02133178710938 427.5180053710938 -30.39200019836426 C 428.871337890625 -27.76266670227051 429.5480041503906 -24.51466751098633 429.5480041503906 -20.64800071716309 Z M 419.2239990234375 -20.64800071716309 C 419.2239990234375 -22.9680004119873 418.8470153808594 -24.89166641235352 418.093017578125 -26.41900062561035 C 417.3390197753906 -27.94633483886719 416.3336791992188 -29.16433334350586 415.0770263671875 -30.072998046875 C 413.8203430175781 -30.98166465759277 412.3896789550781 -31.62933158874512 410.7850036621094 -32.01599884033203 C 409.1803588867188 -32.40266418457031 407.52734375 -32.59599685668945 405.8260192871094 -32.59599685668945 L 400.8960266113281 -32.59599685668945 L 400.8960266113281 -8.583999633789062 L 405.5940246582031 -8.583999633789062 C 407.3726806640625 -8.583999633789062 409.0836791992188 -8.786999702453613 410.7270202636719 -9.192999839782715 C 412.370361328125 -9.598999977111816 413.8203430175781 -10.26599979400635 415.0770263671875 -11.19400024414062 C 416.3336791992188 -12.12199974060059 417.3390197753906 -13.35933303833008 418.093017578125 -14.9060001373291 C 418.8470153808594 -16.45266723632812 419.2239990234375 -18.36666679382324 419.2239990234375 -20.64800071716309 Z M 447.7020263671875 0 L 447.7020263671875 -41.06399917602539 L 475.3100280761719 -41.06399917602539 L 475.3100280761719 -32.65400314331055 L 457.2720031738281 -32.65400314331055 L 457.2720031738281 -24.94000053405762 L 474.3240051269531 -24.94000053405762 L 474.3240051269531 -16.9940013885498 L 457.2720031738281 -16.9940013885498 L 457.2720031738281 -8.467999458312988 L 476.35400390625 -8.467999458312988 L 476.35400390625 0 L 447.7020263671875 0 Z M 494.5080261230469 0 L 494.5080261230469 -41.06399917602539 L 504.4840087890625 -41.06399917602539 L 504.4840087890625 -8.642000198364258 L 520.3760375976562 -8.642000198364258 L 520.3760375976562 0 L 494.5080261230469 0 Z M 590.904052734375 -11.94799995422363 C 590.904052734375 -9.70533275604248 590.44970703125 -7.762332916259766 589.541015625 -6.11899995803833 C 588.6323852539062 -4.475666522979736 587.443359375 -3.122333526611328 585.9739990234375 -2.059000015258789 C 584.5046997070312 -0.9956666231155396 582.8516845703125 -0.203000009059906 581.0150146484375 0.3190000057220459 C 579.1783447265625 0.8410000205039978 577.3126831054688 1.101999998092651 575.4180297851562 1.101999998092651 C 573.56201171875 1.101999998092651 571.75439453125 0.8893333673477173 569.9950561523438 0.464000016450882 C 568.2357177734375 0.03866666555404663 566.6310424804688 -0.6089999675750732 565.1810302734375 -1.478999972343445 C 563.7310180664062 -2.348999977111816 562.4647216796875 -3.470333099365234 561.3820190429688 -4.842999935150146 C 560.2993774414062 -6.215666770935059 559.4873657226562 -7.868666648864746 558.946044921875 -9.802000045776367 L 567.9940185546875 -12.17999935150146 C 568.3806762695312 -10.8266658782959 569.17333984375 -9.637666702270508 570.3720092773438 -8.61299991607666 C 571.5706787109375 -7.588333129882812 573.0980224609375 -7.076000213623047 574.9540405273438 -7.076000213623047 C 575.6500244140625 -7.076000213623047 576.355712890625 -7.172667026519775 577.071044921875 -7.366000175476074 C 577.786376953125 -7.559333324432373 578.4243774414062 -7.859000205993652 578.9850463867188 -8.265000343322754 C 579.5457153320312 -8.670999526977539 580.0097045898438 -9.202666282653809 580.3770141601562 -9.859999656677246 C 580.744384765625 -10.517333984375 580.9280395507812 -11.32933330535889 580.9280395507812 -12.29599952697754 C 580.9280395507812 -13.33999919891357 580.6863403320312 -14.21000003814697 580.2030029296875 -14.9060001373291 C 579.7196655273438 -15.60200023651123 579.0816650390625 -16.15299987792969 578.2890014648438 -16.55900001525879 C 577.496337890625 -16.96500015258789 576.5973510742188 -17.2549991607666 575.592041015625 -17.42900085449219 C 574.5867309570312 -17.60300064086914 573.5813598632812 -17.69000053405762 572.5760498046875 -17.69000053405762 L 569.9660034179688 -17.69000053405762 L 569.9660034179688 -24.82399940490723 L 572.8080444335938 -24.82399940490723 C 573.7360229492188 -24.82399940490723 574.6253662109375 -24.89166641235352 575.4760131835938 -25.02699851989746 C 576.32666015625 -25.16233253479004 577.09033203125 -25.41366577148438 577.7670288085938 -25.7810001373291 C 578.4437255859375 -26.14833450317383 578.9850463867188 -26.64133453369141 579.3910522460938 -27.26000022888184 C 579.7969970703125 -27.87866592407227 580 -28.69066619873047 580 -29.69600105285645 C 580 -31.16533470153809 579.47802734375 -32.28666687011719 578.4340209960938 -33.06000137329102 C 577.3900146484375 -33.83333206176758 576.1913452148438 -34.21999740600586 574.8380126953125 -34.21999740600586 C 573.4459838867188 -34.21999740600586 572.2376708984375 -33.8043327331543 571.2130126953125 -32.97299957275391 C 570.1883544921875 -32.14166641235352 569.5213623046875 -31.02999877929688 569.2120361328125 -29.63799858093262 L 560.1640014648438 -31.72599983215332 C 560.6666870117188 -33.46599960327148 561.4207153320312 -34.98366546630859 562.426025390625 -36.27900314331055 C 563.4313354492188 -37.57433319091797 564.620361328125 -38.65700149536133 565.9930419921875 -39.52700042724609 C 567.3656616210938 -40.39699935913086 568.864013671875 -41.0543327331543 570.488037109375 -41.49900054931641 C 572.1119995117188 -41.94366836547852 573.774658203125 -42.16600036621094 575.4760131835938 -42.16600036621094 C 577.2933349609375 -42.16600036621094 579.0623779296875 -41.93399810791016 580.7830200195312 -41.46999740600586 C 582.503662109375 -41.00600051879883 584.0407104492188 -40.29066848754883 585.39404296875 -39.32399749755859 C 586.7473754882812 -38.35733413696289 587.8396606445312 -37.14899826049805 588.6710205078125 -35.69899749755859 C 589.5023803710938 -34.24900054931641 589.9180297851562 -32.53800201416016 589.9180297851562 -30.56599998474121 C 589.9180297851562 -28.28466606140137 589.2703857421875 -26.36100006103516 587.9750366210938 -24.79500007629395 C 586.6796875 -23.22900009155273 585.0267333984375 -22.17533302307129 583.0160522460938 -21.63399887084961 L 583.0160522460938 -21.46000099182129 C 584.176025390625 -21.18933486938477 585.2393798828125 -20.75433349609375 586.2060546875 -20.15500068664551 C 587.1726684570312 -19.55566596984863 588.0040283203125 -18.84033203125 588.7000122070312 -18.00899887084961 C 589.39599609375 -17.17766761779785 589.9373779296875 -16.24966812133789 590.3240356445312 -15.22499942779541 C 590.710693359375 -14.20033264160156 590.904052734375 -13.10799980163574 590.904052734375 -11.94799995422363 Z"
     id="Path_382" />
</svg>
