<?xml version="1.0" encoding="utf-8"?>
<!-- Generator: Adobe Illustrator 25.0.1, SVG Export Plug-In . SVG Version: 6.00 Build 0)  -->
<svg version="1.1"
	 id="svg110" xmlns:cc="http://creativecommons.org/ns#" xmlns:dc="http://purl.org/dc/elements/1.1/" xmlns:rdf="http://www.w3.org/1999/02/22-rdf-syntax-ns#" xmlns:svg="http://www.w3.org/2000/svg"
	 xmlns="http://www.w3.org/2000/svg" xmlns:xlink="http://www.w3.org/1999/xlink" x="0px" y="0px" viewBox="0 0 792.1 138.8"
	 style="enable-background:new 0 0 792.1 138.8;" xml:space="preserve">
<style type="text/css">
	.st0{enable-background:new    ;}
</style>
<g class="st0">
	<path d="M14,64.3v11.1c0,1.4,0.3,2.4,0.8,3.1s1.5,1,2.8,1c0.5,0,1,0,1.5-0.1c0.5-0.1,1-0.2,1.3-0.3l0.1,7c-0.7,0.2-1.5,0.4-2.5,0.6
		c-1,0.2-2,0.3-3,0.3c-1.9,0-3.6-0.2-4.9-0.7c-1.3-0.5-2.4-1.2-3.2-2.1c-0.8-0.9-1.4-2-1.7-3.3c-0.3-1.3-0.5-2.7-0.5-4.2V64.3H0.1
		v-7.1h4.6v-7.6H14v7.6h6.8v7.1H14z"/>
	<path d="M53.9,72c0,0.4,0,0.8,0,1.2s0,0.8-0.1,1.1H32.9c0.1,0.8,0.3,1.5,0.7,2.2c0.4,0.7,0.9,1.2,1.6,1.7c0.6,0.5,1.4,0.9,2.1,1.1
		c0.8,0.3,1.6,0.4,2.5,0.4c1.5,0,2.8-0.3,3.8-0.8s1.9-1.3,2.6-2.2l6.6,4.2c-1.4,2-3.1,3.5-5.4,4.6c-2.2,1.1-4.8,1.6-7.7,1.6
		c-2.2,0-4.2-0.3-6.1-1c-1.9-0.7-3.6-1.7-5.1-3c-1.5-1.3-2.6-2.9-3.4-4.8c-0.8-1.9-1.2-4.1-1.2-6.5c0-2.4,0.4-4.5,1.2-6.4
		s1.9-3.5,3.3-4.9s3-2.4,4.9-3.1c1.9-0.7,3.9-1.1,6.1-1.1c2.1,0,4.1,0.4,5.9,1.1c1.8,0.7,3.3,1.8,4.6,3.1c1.3,1.4,2.3,3,3,4.9
		C53.6,67.3,53.9,69.5,53.9,72z M45.2,68.3c0-1.5-0.5-2.8-1.4-3.9c-0.9-1.1-2.4-1.6-4.3-1.6c-0.9,0-1.8,0.1-2.6,0.4
		c-0.8,0.3-1.5,0.7-2,1.2c-0.6,0.5-1,1.1-1.4,1.8c-0.3,0.7-0.5,1.4-0.6,2.1H45.2z"/>
	<path d="M76.8,65.7c-0.8-0.7-1.7-1.4-2.7-1.9c-1-0.5-2.1-0.8-3.3-0.8c-0.9,0-1.7,0.2-2.5,0.5c-0.8,0.3-1.1,0.9-1.1,1.8
		c0,0.8,0.4,1.4,1.2,1.7c0.8,0.3,2.2,0.7,4,1.2c1.1,0.2,2.2,0.6,3.3,1s2.1,1,3,1.7c0.9,0.7,1.6,1.5,2.1,2.6c0.5,1,0.8,2.2,0.8,3.6
		c0,1.8-0.4,3.4-1.1,4.6c-0.7,1.3-1.7,2.3-2.9,3c-1.2,0.8-2.5,1.3-4,1.7c-1.5,0.3-2.9,0.5-4.4,0.5c-2.4,0-4.7-0.4-6.9-1.1
		s-4.1-1.9-5.7-3.3l5.3-5.6c0.9,0.9,1.9,1.7,3.1,2.3c1.2,0.6,2.6,0.9,3.9,0.9c0.8,0,1.5-0.2,2.3-0.6c0.8-0.4,1.1-1,1.1-1.9
		c0-0.9-0.5-1.5-1.4-2c-0.9-0.4-2.4-0.9-4.4-1.3c-1-0.2-2-0.5-3-0.9c-1-0.4-1.9-0.9-2.7-1.6c-0.8-0.7-1.4-1.5-1.9-2.4
		c-0.5-1-0.8-2.1-0.8-3.5c0-1.7,0.4-3.2,1.1-4.4c0.7-1.2,1.7-2.2,2.8-3c1.2-0.8,2.4-1.3,3.9-1.7c1.4-0.4,2.8-0.6,4.2-0.6
		c2.2,0,4.3,0.3,6.4,1c2.1,0.7,3.8,1.7,5.2,3L76.8,65.7z"/>
	<path d="M87.3,86.1V42.2H97v43.8H87.3z"/>
	<path d="M104.1,61.1c1.7-1.6,3.7-2.8,5.9-3.7c2.3-0.8,4.6-1.2,6.9-1.2c2.4,0,4.5,0.3,6.2,0.9c1.7,0.6,3,1.5,4.1,2.8
		c1,1.3,1.8,2.8,2.3,4.8c0.5,1.9,0.7,4.2,0.7,6.8v14.6h-8.7V83h-0.2c-0.7,1.2-1.8,2.1-3.3,2.8c-1.5,0.7-3.1,1-4.8,1
		c-1.2,0-2.4-0.2-3.6-0.5c-1.2-0.3-2.4-0.8-3.4-1.5c-1-0.7-1.9-1.6-2.5-2.8c-0.7-1.2-1-2.6-1-4.3c0-2.1,0.6-3.8,1.7-5
		c1.1-1.3,2.6-2.3,4.4-3c1.8-0.7,3.8-1.2,6-1.4s4.4-0.3,6.4-0.3v-0.5c0-1.4-0.5-2.5-1.5-3.2c-1-0.7-2.2-1-3.7-1
		c-1.4,0-2.7,0.3-3.9,0.9c-1.3,0.6-2.3,1.3-3.2,2.1L104.1,61.1z M121.6,73.5h-1.2c-1,0-2.1,0-3.2,0.1c-1.1,0.1-2,0.3-2.8,0.6
		c-0.8,0.3-1.5,0.7-2.1,1.2c-0.5,0.5-0.8,1.2-0.8,2.1c0,0.5,0.1,1,0.4,1.4c0.3,0.4,0.6,0.7,1,0.9c0.4,0.2,0.8,0.4,1.3,0.5
		c0.5,0.1,1,0.1,1.5,0.1c1.9,0,3.4-0.5,4.4-1.6c1-1.1,1.5-2.5,1.5-4.3V73.5z"/>
	<path d="M188.7,86.1V70.3c0-0.8-0.1-1.6-0.2-2.3c-0.1-0.8-0.3-1.4-0.6-1.9c-0.3-0.5-0.7-1-1.2-1.3c-0.5-0.3-1.2-0.5-2.1-0.5
		c-0.8,0-1.5,0.2-2.1,0.5c-0.6,0.3-1.1,0.8-1.5,1.4c-0.4,0.6-0.7,1.2-0.9,2c-0.2,0.8-0.3,1.5-0.3,2.3v15.6h-9.5V69.6
		c0-1.7-0.3-3-1-3.9c-0.7-1-1.7-1.5-3.1-1.5c-1.5,0-2.7,0.6-3.5,1.8c-0.8,1.2-1.2,2.7-1.2,4.4v15.7h-9.6V57.2h9.2v4h0.1
		c0.3-0.6,0.8-1.2,1.3-1.8s1.1-1.1,1.9-1.5c0.7-0.4,1.6-0.8,2.5-1.1c0.9-0.3,1.9-0.4,3-0.4c2.1,0,3.9,0.4,5.3,1.3s2.6,2.1,3.4,3.7
		c1-1.5,2.2-2.7,3.7-3.6c1.5-0.9,3.3-1.3,5.5-1.3c2,0,3.6,0.4,5,1.1c1.3,0.7,2.4,1.6,3.2,2.8s1.4,2.4,1.8,3.8
		c0.4,1.4,0.6,2.8,0.6,4.1v17.9H188.7z"/>
	<path d="M236.1,71.5c0,2.4-0.4,4.5-1.3,6.4c-0.9,1.9-2,3.5-3.5,4.9c-1.5,1.3-3.2,2.4-5.1,3.1c-1.9,0.7-4,1.1-6.2,1.1
		c-2.2,0-4.2-0.4-6.2-1.1c-2-0.7-3.7-1.8-5.1-3.1c-1.4-1.3-2.6-3-3.5-4.9c-0.9-1.9-1.3-4-1.3-6.4c0-2.4,0.4-4.5,1.3-6.4
		c0.9-1.9,2-3.5,3.5-4.8c1.5-1.3,3.2-2.3,5.1-3c2-0.7,4-1,6.2-1c2.2,0,4.3,0.3,6.2,1c1.9,0.7,3.6,1.7,5.1,3c1.5,1.3,2.6,2.9,3.5,4.8
		C235.6,67,236.1,69.2,236.1,71.5z M226.9,71.5c0-0.9-0.2-1.8-0.5-2.7c-0.3-0.9-0.8-1.7-1.3-2.3c-0.6-0.7-1.3-1.2-2.1-1.7
		c-0.9-0.4-1.8-0.6-3-0.6c-1.1,0-2.1,0.2-3,0.6c-0.9,0.4-1.6,1-2.1,1.7c-0.6,0.7-1,1.5-1.3,2.3c-0.3,0.9-0.4,1.8-0.4,2.7
		c0,0.9,0.1,1.8,0.4,2.7c0.3,0.9,0.7,1.7,1.3,2.4c0.6,0.7,1.3,1.3,2.1,1.7c0.9,0.4,1.8,0.6,3,0.6c1.1,0,2.1-0.2,3-0.6
		c0.9-0.4,1.6-1,2.1-1.7c0.6-0.7,1-1.5,1.3-2.4C226.7,73.4,226.9,72.4,226.9,71.5z"/>
	<path d="M264,86.1v-3.8h-0.1c-0.9,1.5-2.3,2.6-4,3.4c-1.7,0.8-3.5,1.2-5.5,1.2c-2.2,0-4.1-0.4-5.8-1.3c-1.7-0.9-3.1-2-4.3-3.4
		c-1.2-1.4-2.1-3-2.7-4.9c-0.6-1.9-0.9-3.8-0.9-5.8c0-2,0.3-3.9,1-5.8c0.6-1.8,1.5-3.5,2.7-4.8c1.2-1.4,2.6-2.5,4.3-3.3
		c1.7-0.8,3.6-1.2,5.7-1.2c2.1,0,3.9,0.4,5.4,1.2c1.5,0.8,2.6,1.7,3.4,2.7h0.1v-18h9.5v43.8H264z M263.6,71.6c0-0.9-0.2-1.8-0.5-2.7
		c-0.3-0.9-0.8-1.7-1.4-2.4c-0.6-0.7-1.3-1.3-2.2-1.7c-0.9-0.4-1.8-0.6-2.9-0.6c-1.1,0-2.1,0.2-3,0.6c-0.9,0.4-1.6,1-2.1,1.7
		c-0.6,0.7-1,1.5-1.3,2.3c-0.3,0.9-0.4,1.8-0.4,2.7c0,0.9,0.1,1.8,0.4,2.8c0.3,0.9,0.7,1.7,1.3,2.4c0.6,0.7,1.3,1.3,2.1,1.7
		c0.9,0.4,1.8,0.6,3,0.6c1.1,0,2-0.2,2.9-0.6c0.9-0.4,1.6-1,2.2-1.7c0.6-0.7,1.1-1.5,1.4-2.4C263.4,73.4,263.6,72.5,263.6,71.6z"/>
	<path d="M308.9,72c0,0.4,0,0.8,0,1.2s0,0.8-0.1,1.1h-20.9c0.1,0.8,0.3,1.5,0.7,2.2c0.4,0.7,0.9,1.2,1.6,1.7
		c0.6,0.5,1.4,0.9,2.1,1.1c0.8,0.3,1.6,0.4,2.5,0.4c1.5,0,2.8-0.3,3.8-0.8s1.9-1.3,2.6-2.2l6.6,4.2c-1.4,2-3.1,3.5-5.4,4.6
		c-2.2,1.1-4.8,1.6-7.7,1.6c-2.2,0-4.2-0.3-6.1-1c-1.9-0.7-3.6-1.7-5.1-3c-1.5-1.3-2.6-2.9-3.4-4.8c-0.8-1.9-1.2-4.1-1.2-6.5
		c0-2.4,0.4-4.5,1.2-6.4s1.9-3.5,3.3-4.9s3-2.4,4.9-3.1c1.9-0.7,3.9-1.1,6.1-1.1c2.1,0,4.1,0.4,5.9,1.1c1.8,0.7,3.3,1.8,4.6,3.1
		c1.3,1.4,2.3,3,3,4.9C308.5,67.3,308.9,69.5,308.9,72z M300.1,68.3c0-1.5-0.5-2.8-1.4-3.9c-0.9-1.1-2.4-1.6-4.3-1.6
		c-0.9,0-1.8,0.1-2.6,0.4c-0.8,0.3-1.5,0.7-2,1.2c-0.6,0.5-1,1.1-1.4,1.8c-0.3,0.7-0.5,1.4-0.6,2.1H300.1z"/>
	<path d="M314.9,86.1V42.2h9.7v43.8H314.9z"/>
	<path d="M363.6,65.7c-0.8-0.7-1.7-1.4-2.7-1.9c-1-0.5-2.1-0.8-3.3-0.8c-0.9,0-1.7,0.2-2.5,0.5c-0.8,0.3-1.1,0.9-1.1,1.8
		c0,0.8,0.4,1.4,1.2,1.7c0.8,0.3,2.2,0.7,4,1.2c1.1,0.2,2.2,0.6,3.3,1s2.1,1,3,1.7c0.9,0.7,1.6,1.5,2.1,2.6c0.5,1,0.8,2.2,0.8,3.6
		c0,1.8-0.4,3.4-1.1,4.6c-0.7,1.3-1.7,2.3-2.9,3c-1.2,0.8-2.5,1.3-4,1.7c-1.5,0.3-2.9,0.5-4.4,0.5c-2.4,0-4.7-0.4-6.9-1.1
		s-4.1-1.9-5.7-3.3l5.3-5.6c0.9,0.9,1.9,1.7,3.1,2.3c1.2,0.6,2.6,0.9,3.9,0.9c0.8,0,1.5-0.2,2.3-0.6c0.8-0.4,1.1-1,1.1-1.9
		c0-0.9-0.5-1.5-1.4-2c-0.9-0.4-2.4-0.9-4.4-1.3c-1-0.2-2-0.5-3-0.9c-1-0.4-1.9-0.9-2.7-1.6c-0.8-0.7-1.4-1.5-1.9-2.4
		c-0.5-1-0.8-2.1-0.8-3.5c0-1.7,0.4-3.2,1.1-4.4c0.7-1.2,1.7-2.2,2.8-3c1.2-0.8,2.4-1.3,3.9-1.7c1.4-0.4,2.8-0.6,4.2-0.6
		c2.2,0,4.3,0.3,6.4,1c2.1,0.7,3.8,1.7,5.2,3L363.6,65.7z"/>
</g>
</svg>
