<?xml version="1.0" encoding="utf-8"?>
<!-- Generator: Adobe Illustrator 25.0.1, SVG Export Plug-In . SVG Version: 6.00 Build 0)  -->
<svg version="1.1"
	 id="svg56" xmlns:cc="http://creativecommons.org/ns#" xmlns:dc="http://purl.org/dc/elements/1.1/" xmlns:rdf="http://www.w3.org/1999/02/22-rdf-syntax-ns#" xmlns:svg="http://www.w3.org/2000/svg"
	 xmlns="http://www.w3.org/2000/svg" xmlns:xlink="http://www.w3.org/1999/xlink" x="0px" y="0px" viewBox="0 0 792.1 138.8"
	 style="enable-background:new 0 0 792.1 138.8;" xml:space="preserve">
<style type="text/css">
	.st0{enable-background:new    ;}
</style>
<g class="st0">
	<path d="M21.6,86.4H11.3L-0.1,57.5h10.5l6.1,18.7h0.2l6.1-18.7h10.1L21.6,86.4z"/>
	<path d="M73.4,86.4h-9.6l-5.7-18H58l-5.6,18h-9.6l-10-28.9h10.3l5,18.3h0.2l5.2-18.3H63l5.3,18.3h0.1l5-18.3h9.9L73.4,86.4z"/>
	<path d="M133.8,71.8c0,2-0.3,3.9-0.9,5.8c-0.6,1.9-1.5,3.5-2.7,4.9c-1.2,1.4-2.6,2.5-4.3,3.4c-1.7,0.8-3.6,1.3-5.8,1.3
		c-1.9,0-3.8-0.4-5.5-1.2c-1.7-0.8-3-1.9-4-3.4h-0.1v3.8h-8.8V42.5h9.5v18h0.1c0.8-1,2-1.9,3.4-2.7c1.5-0.8,3.3-1.2,5.4-1.2
		c2.1,0,4,0.4,5.7,1.2c1.7,0.8,3.1,1.9,4.3,3.3c1.2,1.4,2.1,3,2.7,4.8C133.5,67.9,133.8,69.8,133.8,71.8z M124.6,71.8
		c0-0.9-0.1-1.8-0.4-2.7c-0.3-0.9-0.7-1.7-1.3-2.3c-0.6-0.7-1.3-1.2-2.1-1.7c-0.9-0.4-1.8-0.6-3-0.6c-1.1,0-2,0.2-2.9,0.6
		c-0.9,0.4-1.6,1-2.2,1.7c-0.6,0.7-1.1,1.5-1.4,2.4c-0.3,0.9-0.5,1.8-0.5,2.7s0.2,1.8,0.5,2.7c0.3,0.9,0.8,1.7,1.4,2.4
		c0.6,0.7,1.3,1.3,2.2,1.7c0.9,0.4,1.8,0.6,2.9,0.6c1.1,0,2.1-0.2,3-0.6c0.9-0.4,1.6-1,2.1-1.7c0.6-0.7,1-1.5,1.3-2.4
		C124.5,73.7,124.6,72.7,124.6,71.8z"/>
	<path d="M158.9,86.4v-4h-0.1c-0.3,0.7-0.8,1.3-1.4,1.9c-0.6,0.6-1.2,1.1-2,1.5c-0.8,0.4-1.6,0.8-2.5,1c-0.9,0.3-1.9,0.4-2.9,0.4
		c-1.9,0-3.6-0.3-4.9-1c-1.3-0.7-2.4-1.6-3.2-2.7c-0.8-1.1-1.4-2.4-1.8-3.8c-0.4-1.4-0.6-2.9-0.6-4.3V57.5h9.6v15.7
		c0,0.8,0.1,1.6,0.2,2.3c0.1,0.7,0.3,1.4,0.7,2c0.3,0.6,0.8,1,1.3,1.4c0.5,0.3,1.3,0.5,2.1,0.5c1.7,0,2.9-0.6,3.8-1.9
		s1.3-2.7,1.3-4.4V57.5h9.5v28.9H158.9z"/>
	<path d="M206.1,83.6c0,2.8-0.4,5.3-1.2,7.4s-2,3.8-3.4,5.2c-1.5,1.4-3.3,2.4-5.4,3.1c-2.1,0.7-4.4,1-7,1c-2.6,0-5.2-0.4-7.9-1.2
		c-2.7-0.8-5-1.9-7-3.4L179,89c1.4,1.2,2.9,2.2,4.6,2.8c1.7,0.6,3.3,0.9,5,0.9c2.8,0,4.8-0.7,6.2-2.2s2-3.4,2-5.9v-1.7h-0.2
		c-0.9,1.2-2.1,2.1-3.6,2.8s-3.2,1-5.2,1c-2.2,0-4.2-0.4-5.9-1.2c-1.7-0.8-3.1-1.9-4.3-3.2c-1.2-1.4-2.1-2.9-2.7-4.7
		c-0.6-1.8-0.9-3.7-0.9-5.7c0-2,0.3-3.9,0.9-5.7c0.6-1.8,1.5-3.4,2.7-4.8c1.2-1.4,2.6-2.5,4.3-3.3c1.7-0.8,3.6-1.2,5.8-1.2
		c1.8,0,3.6,0.4,5.2,1.1c1.7,0.7,3,1.9,4,3.4h0.1v-3.7h9V83.6z M197,71.8c0-1-0.2-1.9-0.5-2.8c-0.3-0.9-0.8-1.7-1.4-2.3
		c-0.6-0.7-1.4-1.2-2.2-1.6c-0.9-0.4-1.8-0.6-2.9-0.6c-1.1,0-2,0.2-2.9,0.6c-0.8,0.4-1.5,0.9-2.1,1.6c-0.6,0.7-1,1.4-1.3,2.3
		c-0.3,0.9-0.5,1.8-0.5,2.8c0,1,0.2,1.9,0.5,2.8c0.3,0.9,0.8,1.7,1.3,2.3c0.6,0.7,1.3,1.2,2.1,1.6c0.8,0.4,1.8,0.6,2.9,0.6
		c1.1,0,2.1-0.2,2.9-0.6c0.9-0.4,1.6-0.9,2.2-1.6c0.6-0.7,1.1-1.4,1.4-2.3C196.9,73.7,197,72.8,197,71.8z"/>
</g>
</svg>
