<?xml version="1.0" encoding="utf-8"?>
<!-- Generator: Adobe Illustrator 24.3.0, SVG Export Plug-In . SVG Version: 6.00 Build 0)  -->
<svg version="1.1"
	 id="svg56" xmlns:cc="http://creativecommons.org/ns#" xmlns:dc="http://purl.org/dc/elements/1.1/" xmlns:rdf="http://www.w3.org/1999/02/22-rdf-syntax-ns#" xmlns:svg="http://www.w3.org/2000/svg"
	 xmlns="http://www.w3.org/2000/svg" xmlns:xlink="http://www.w3.org/1999/xlink" x="0px" y="0px" viewBox="0 0 792.1 138.8"
	 style="enable-background:new 0 0 792.1 138.8;" xml:space="preserve">
<style type="text/css">
	.st0{enable-background:new    ;}
</style>
<g class="st0">
	<path d="M25.5,91.2h-9.9L0,50.2h11.1l9.5,29.1h0.2l9.5-29.1h11L25.5,91.2z"/>
	<path d="M99.8,91.2H90l-8.1-27.8h-0.2l-8.1,27.8h-9.9L52,50.2h10.7l6.5,27.3h0.2l7.3-27.3H87l7.4,27.3h0.2l6.6-27.3h10.3L99.8,91.2
		z"/>
	<path d="M184.7,79.3c0,2.2-0.4,4.1-1.3,5.7c-0.9,1.5-2.1,2.8-3.5,3.7c-1.5,0.9-3.1,1.6-5,2c-1.9,0.4-3.8,0.6-5.8,0.6h-16.4V50.2
		h16.4c1.6,0,3.2,0.2,4.9,0.5c1.7,0.3,3.2,0.9,4.5,1.7c1.4,0.8,2.5,1.9,3.3,3.2c0.8,1.4,1.3,3.1,1.3,5.2c0,2.3-0.6,4.2-1.9,5.7
		c-1.2,1.5-2.9,2.6-4.9,3.2v0.1c1.2,0.2,2.3,0.6,3.3,1.1c1,0.5,1.9,1.2,2.7,2c0.8,0.8,1.4,1.8,1.8,2.8
		C184.5,76.7,184.7,77.9,184.7,79.3z M173.5,62.1c0-1.4-0.5-2.4-1.6-3c-1.1-0.6-2.6-1-4.7-1h-4.9v8.5h5.3c1.9,0,3.3-0.4,4.3-1.1
		C173,64.6,173.5,63.5,173.5,62.1z M174.8,78.4c0-1.7-0.6-2.9-1.9-3.5c-1.3-0.7-3-1-5.1-1h-5.5v9.4h5.6c0.8,0,1.6-0.1,2.4-0.2
		c0.8-0.1,1.6-0.4,2.3-0.7c0.7-0.3,1.2-0.8,1.7-1.5C174.6,80.2,174.8,79.4,174.8,78.4z"/>
	<path d="M236.4,82.5c-0.8,2-2,3.8-3.6,5.2c-1.5,1.5-3.4,2.6-5.6,3.4c-2.2,0.8-4.6,1.2-7.3,1.2c-2.7,0-5.1-0.4-7.3-1.2
		c-2.2-0.8-4-1.9-5.5-3.4c-1.5-1.5-2.7-3.2-3.5-5.2c-0.8-2-1.2-4.3-1.2-6.8V50.2h9.9v24.8c0,1.1,0.1,2.2,0.4,3.2
		c0.3,1,0.7,1.9,1.3,2.7c0.6,0.8,1.4,1.4,2.4,1.9c1,0.5,2.2,0.7,3.6,0.7c1.4,0,2.6-0.2,3.6-0.7c1-0.5,1.8-1.1,2.4-1.9
		c0.6-0.8,1.1-1.7,1.3-2.7c0.3-1,0.4-2.1,0.4-3.2V50.2h9.9v25.6C237.7,78.2,237.3,80.5,236.4,82.5z"/>
	<path d="M286.7,91.3c-2.7,0.7-5.6,1-8.8,1c-3.3,0-6.3-0.5-9.1-1.6c-2.8-1-5.1-2.5-7.1-4.4c-2-1.9-3.5-4.2-4.7-6.8
		c-1.1-2.6-1.7-5.6-1.7-8.8c0-3.3,0.6-6.3,1.7-8.9c1.1-2.7,2.7-4.9,4.7-6.8c2-1.9,4.4-3.3,7.1-4.3c2.7-1,5.6-1.5,8.8-1.5
		c3.2,0,6.3,0.5,9,1.5c2.8,1,5,2.3,6.8,4l-6.3,7.1c-1-1.1-2.2-2-3.8-2.8c-1.6-0.7-3.4-1.1-5.4-1.1c-1.7,0-3.3,0.3-4.8,1
		c-1.5,0.6-2.7,1.5-3.8,2.7c-1.1,1.1-1.9,2.5-2.5,4.1c-0.6,1.6-0.9,3.3-0.9,5.1c0,1.9,0.3,3.6,0.8,5.2c0.5,1.6,1.3,2.9,2.4,4.1
		c1.1,1.1,2.4,2,3.9,2.7c1.6,0.6,3.4,1,5.4,1c1.2,0,2.3-0.1,3.3-0.3s2-0.5,2.9-0.8V75h-7.8v-8h16.9v21.8
		C291.8,89.8,289.4,90.6,286.7,91.3z"/>
</g>
</svg>
