<?xml version="1.0" encoding="UTF-8" standalone="no"?>
<svg
   xmlns:dc="http://purl.org/dc/elements/1.1/"
   xmlns:cc="http://creativecommons.org/ns#"
   xmlns:rdf="http://www.w3.org/1999/02/22-rdf-syntax-ns#"
   xmlns:svg="http://www.w3.org/2000/svg"
   xmlns="http://www.w3.org/2000/svg"
   id="svg81"
   version="1.1"
   viewBox="438.596 269.636 82.379 95.291"
   class="Path_240">
  <metadata
     id="metadata87">
    <rdf:RDF>
      <cc:Work
         rdf:about="">
        <dc:format>image/svg+xml</dc:format>
        <dc:type
           rdf:resource="http://purl.org/dc/dcmitype/StillImage" />
        <dc:title></dc:title>
      </cc:Work>
    </rdf:RDF>
  </metadata>
  <defs
     id="defs85" />
  <path
     d="M 456.9729919433594 278.4760131835938 C 459.2470092773438 279.5159912109375 461.4219970703125 280.7569885253906 463.4729919433594 282.1849975585938 C 465.3089904785156 283.4289855957031 467.5989990234375 283.8039855957031 469.7349853515625 283.2090148925781 C 478.2409973144531 280.885009765625 487.2139892578125 280.885009765625 495.718994140625 283.2090148925781 C 497.8550109863281 283.8030090332031 500.1430053710938 283.4280090332031 501.9769897460938 282.1839904785156 C 504.0299987792969 280.7579956054688 506.2049865722656 279.5169982910156 508.4769897460938 278.4760131835938 C 508.5490112304688 279.9530029296875 508.3269958496094 281.4289855957031 507.8210144042969 282.8179931640625 C 506.7260131835938 285.5220031738281 507.2850036621094 288.614013671875 509.2560119628906 290.7630004882812 C 512.0330200195312 293.7359924316406 513.531005859375 297.6799926757812 513.4310302734375 301.7460021972656 C 513.4310302734375 309.8810119628906 511.4750061035156 315.4719848632812 507.4559936523438 318.8399963378906 C 504.2909851074219 321.4880065917969 499.6260070800781 323.0759887695312 492.77099609375 323.8399963378906 C 488.6260070800781 324.2980041503906 485.635986328125 328.0299987792969 486.093994140625 332.1759948730469 C 486.3039855957031 334.0740051269531 487.2239990234375 335.8219909667969 488.6709899902344 337.0679931640625 C 488.6849975585938 337.0809936523438 490.1180114746094 338.3619995117188 490.1180114746094 342.4540100097656 C 490.1180114746094 344.5060119628906 490.1010131835938 346.6080017089844 490.0830078125 348.6419982910156 C 490.0679931640625 350.2720031738281 490.0570068359375 351.9570007324219 490.0509948730469 353.6180114746094 L 490.0509948730469 353.6650085449219 C 490.0610046386719 355.3720092773438 488.7959899902344 356.8169860839844 487.1019897460938 357.0329895019531 C 485.5899963378906 357.2359924316406 484.0669860839844 357.3519897460938 482.5409851074219 357.3819885253906 C 481.3410034179688 357.3819885253906 479.9159851074219 357.3739929199219 478.4930114746094 357.3169860839844 C 476.6900024414062 357.2529907226562 475.2489929199219 355.7950134277344 475.2040100097656 353.9909973144531 C 475.1419982910156 350.7799987792969 475.1889953613281 349.9540100097656 475.2040100097656 349.8210144042969 C 475.0480041503906 351.7900085449219 475.0859985351562 343.0369873046875 475.4490051269531 340.468994140625 C 475.8070068359375 337.9330139160156 476.7229919433594 337.1029968261719 476.7619934082031 337.0690002441406 C 479.8989868164062 334.3210144042969 480.2139892578125 329.5509948730469 477.4670104980469 326.4140014648438 C 476.2250061035156 324.9970092773438 474.4989929199219 324.0950012207031 472.6270141601562 323.885009765625 C 465.8030090332031 323.1099853515625 461.1499938964844 321.5079956054688 457.9880065917969 318.8429870605469 C 453.9660034179688 315.4570007324219 452.010009765625 309.864990234375 452.010009765625 301.7430114746094 C 451.9150085449219 297.6749877929688 453.4179992675781 293.7309875488281 456.1969909667969 290.7569885253906 C 458.1659851074219 288.6090087890625 458.7219848632812 285.5199890136719 457.6270141601562 282.8190002441406 C 457.1229858398438 281.4289855957031 456.8999938964844 279.9530029296875 456.9710083007812 278.4760131835938 M 512.8790283203125 269.6430053710938 C 510.7109985351562 269.6430053710938 505.8269958496094 270.4429931640625 497.7369995117188 275.9330139160156 C 487.9089965820312 273.2409973144531 477.5369873046875 273.2409973144531 467.7080078125 275.9330139160156 C 459.614013671875 270.447998046875 454.7279968261719 269.6430053710938 452.5530090332031 269.6430053710938 C 452.10400390625 269.6279907226562 451.6539916992188 269.6749877929688 451.2170104980469 269.7820129394531 C 447.9519958496094 278.0409851074219 450.0119934082031 284.1390075683594 450.6289978027344 285.6570129394531 C 446.5780029296875 290.0260009765625 444.3670043945312 295.7890014648438 444.4559936523438 301.7460021972656 C 444.4559936523438 324.7319946289062 458.4559936523438 329.8760070800781 471.77099609375 331.3890075683594 C 470.0610046386719 332.8890075683594 468.5119934082031 335.531005859375 467.9630126953125 339.4079895019531 C 465.8080139160156 340.3970031738281 463.4719848632812 340.9320068359375 461.1010131835938 340.97900390625 C 457.5299987792969 340.97900390625 453.5010070800781 339.5459899902344 450.5090026855469 334.4249877929688 C 450.5090026855469 334.4249877929688 447.3420104980469 328.6650085449219 441.3259887695312 328.2430114746094 L 441.302001953125 328.2430114746094 C 440.9020080566406 328.2430114746094 435.6730041503906 328.3110046386719 440.9150085449219 331.8900146484375 C 440.9150085449219 331.8900146484375 444.8429870605469 333.7369995117188 447.5710144042969 340.6650085449219 C 447.5710144042969 340.6650085449219 450.2080078125 349.4020080566406 461.7369995117188 349.4020080566406 C 463.7690124511719 349.385009765625 465.7929992675781 349.1499938964844 467.7739868164062 348.7019958496094 C 467.5920104980469 348.7409973144531 467.5889892578125 351.2300109863281 467.6440124511719 354.1260070800781 C 467.7619934082031 359.9289855957031 472.3829956054688 364.6340026855469 478.1820068359375 364.8559875488281 C 479.6820068359375 364.9159851074219 481.1579895019531 364.927001953125 482.5350036621094 364.927001953125 C 484.3590087890625 364.8949890136719 486.1799926757812 364.7619934082031 487.989990234375 364.5270080566406 C 493.4760131835938 363.8569946289062 497.5989990234375 359.1969909667969 497.5969848632812 353.6690063476562 L 497.5969848632812 353.6430053710938 C 497.6080017089844 349.9110107421875 497.6629943847656 346.1809997558594 497.6629943847656 342.4490051269531 C 497.6629943847656 336.8559875488281 495.7430114746094 333.1940002441406 493.5950012207031 331.3420104980469 C 506.9540100097656 329.8599853515625 520.9719848632812 324.7900085449219 520.9719848632812 301.7420043945312 C 521.0679931640625 295.7860107421875 518.8610229492188 290.0230102539062 514.81201171875 285.6530151367188 C 515.427001953125 284.135009765625 517.489013671875 278.0360107421875 514.2119750976562 269.7780151367188 C 513.7760009765625 269.6700134277344 513.3270263671875 269.6239929199219 512.8770141601562 269.6390075683594 L 512.8790283203125 269.6430053710938 Z"
     id="Path_240" />
</svg>
