<?xml version="1.0" encoding="utf-8"?>
<!-- Generator: Adobe Illustrator 25.0.1, SVG Export Plug-In . SVG Version: 6.00 Build 0)  -->
<svg version="1.1"
	 id="svg81" xmlns:cc="http://creativecommons.org/ns#" xmlns:dc="http://purl.org/dc/elements/1.1/" xmlns:rdf="http://www.w3.org/1999/02/22-rdf-syntax-ns#" xmlns:svg="http://www.w3.org/2000/svg"
	 xmlns="http://www.w3.org/2000/svg" xmlns:xlink="http://www.w3.org/1999/xlink" x="0px" y="0px" viewBox="0 0 81.6 92.1"
	 style="enable-background:new 0 0 81.6 92.1;" xml:space="preserve">
<g>
	<path d="M44.7,92.1c-1.9,0-3.8-0.3-5.6-1c-4.5-1.7-8.1-5.2-9.8-9.7c0,0,0-0.1,0-0.1c-2.9,0.2-6.8,0.1-10.1-1.6
		c-4.8-2.5-8-6.1-11.1-12.3C6,63.2,5.4,63,3.1,62.6c-1.7-0.3-2.9-1.7-3.1-3.4c-0.2-1.7,0.8-3.2,2.3-3.9c2.3-0.9,8.2-2.7,13.2,0.5
		c2.6,1.7,4,4,5.2,5.8c1.5,2.5,1.9,3,3.4,3c2.7,0,4.2-1.4,4.9-2.3C16.2,57.6,7.8,47.1,7.8,35.7c0-5.4,1.8-10.5,5.2-15.1
		c-3.2-6.7-2.5-14.4,2.1-19.1l0.6-0.6l0.8-0.3c5-1.5,11.9-0.4,17.2,6.9c7-1.7,14.7-1.7,21.8,0c2.4-3.2,7.7-8.2,16.7-7l1.2,0.2
		l0.8,0.9c4.6,4.7,5.4,12.3,2.2,19c3.4,4.6,5.2,9.8,5.2,15.2c0,11.5-8.5,22-21.4,26.8c0.6,1.8,0.9,4.6,0.9,9.3c0,5.1-0.3,7.9-1,9.7
		c-1.7,4.5-5.2,8.1-9.8,9.7C48.5,91.8,46.6,92.1,44.7,92.1z M35.9,78.9L35.9,78.9c1,2.7,3,4.7,5.6,5.7c2.1,0.8,4.4,0.8,6.4,0
		c2.6-1,4.7-3,5.6-5.6l0.1-0.2c0.1-0.3,0.5-1.7,0.5-7s-0.4-6.8-0.5-7l-0.1-0.2c-0.1-0.4-0.3-0.8-0.5-1.2c-0.7-1.3-0.8-2.7-0.2-4.1
		c0.5-1.3,1.6-2.3,3-2.7C67,53.2,74.6,44.8,74.6,35.7c0-4.4-1.8-8.7-5.1-12.5l-1.8-2l1.5-2.4c0.1-0.1,0.1-0.2,0.2-0.4
		c2.2-3.8,2.3-8.3,0.4-11.2c-6-0.2-8.9,4.2-9.7,5.7c-0.9,1.6-2.8,2.4-4.5,1.8c-7.1-2.1-15.1-2.1-22.2,0c-1.7,0.5-3.5-0.2-4.5-1.7
		c-0.7-1.2-4.5-6.9-9.6-6c-2.1,2.8-2,7.5,0.2,11.4c0.1,0.2,0.2,0.3,0.3,0.5l1.5,2.3l-1.8,2c-3.3,3.7-5,8-5,12.4
		c0,9.1,7.6,17.5,18.9,20.9c1.3,0.4,2.4,1.4,3,2.7c0.5,1.3,0.5,2.8-0.2,4.1c-0.2,0.4-0.4,0.8-0.5,1.2c-0.1,0.2-0.1,0.4-0.3,0.6
		c-1.6,3.1-5.6,6.7-11.5,6.7c-4.3,0-6.6-2.2-8.2-4.4c1.8,3.1,3.8,4.9,6.5,6.3c1.7,0.9,4.7,1.1,7.9,0.6c2.5-0.4,4.8,1.3,5.3,3.8
		C35.8,78.5,35.8,78.8,35.9,78.9z M35.8,78.8L35.8,78.8C35.8,78.8,35.8,78.8,35.8,78.8z"/>
</g>
</svg>
