<?xml version="1.0" encoding="utf-8"?>
<!-- Generator: Adobe Illustrator 25.4.1, SVG Export Plug-In . SVG Version: 6.00 Build 0)  -->
<svg version="1.1"
	 id="svg81" xmlns:cc="http://creativecommons.org/ns#" xmlns:dc="http://purl.org/dc/elements/1.1/" xmlns:rdf="http://www.w3.org/1999/02/22-rdf-syntax-ns#" xmlns:svg="http://www.w3.org/2000/svg"
	 xmlns="http://www.w3.org/2000/svg" xmlns:xlink="http://www.w3.org/1999/xlink" x="0px" y="0px" viewBox="0 0 100 100"
	 style="enable-background:new 0 0 100 100;" xml:space="preserve">
<g>
	<g>
		<path d="M70.5,67.3c0.7,1.9,0.9,4.8,0.9,9.8c0,5.4-0.3,8.4-1.1,10.2c-1.8,4.8-5.5,8.5-10.3,10.3c-1.9,0.7-3.9,1-5.9,1
			c-2,0-4-0.3-5.9-1c-4.8-1.8-8.6-5.5-10.3-10.3c0,0,0-0.1,0-0.1c-3.1,0.3-7.2,0.1-10.7-1.7c-5.1-2.7-8.5-6.4-11.7-13
			c-2.2-4.5-3-4.7-5.4-5.1c-1.8-0.3-3.1-1.8-3.2-3.5c-0.2-1.8,0.8-3.4,2.5-4.1c2.4-1,8.6-2.9,14,0.5c2.8,1.8,4.3,4.2,5.5,6.2
			c1.6,2.6,2.1,3.1,3.6,3.1c2.8,0,4.4-1.5,5.2-2.5C24,62.2,15.1,51.1,15.1,39c0-5.7,1.9-11.1,5.5-16c-3.4-7.1-2.6-15.3,2.3-20.2
			l0.7-0.7l0.9-0.3c5.2-1.6,12.6-0.5,18.2,7.3c7.4-1.8,15.6-1.8,23,0c2.5-3.4,8.2-8.7,17.6-7.4L84.4,2l0.9,0.9
			c4.8,4.9,5.7,13,2.3,20.1c3.6,4.8,5.5,10.3,5.5,16C93.2,51.2,84.2,62.3,70.5,67.3z"/>
	</g>
</g>
</svg>
