<?xml version="1.0" encoding="UTF-8"?><svg id="Layer_1" xmlns="http://www.w3.org/2000/svg" xmlns:xlink="http://www.w3.org/1999/xlink" viewBox="0 0 512 512"><defs><linearGradient id="linear-gradient" x1="256" y1="0" x2="256" y2="497.67" gradientUnits="userSpaceOnUse"><stop offset="0" stop-color="#78509b"/><stop offset="1" stop-color="#524295"/></linearGradient></defs><path d="m512,227.93v56.15c0,63.98,0,102.61-11.64,130.46-14.43,39.73-46.07,71.36-86.53,86.1-27.16,11.37-65.78,11.37-129.76,11.37h-56.15c-63.99,0-102.61,0-130.48-11.64-39.74-14.46-71.38-46.1-86.09-86.55C0,386.69,0,348.05,0,284.07v-56.15c0-63.98,0-102.61,11.63-130.48C26.08,57.73,57.72,26.08,98.17,11.37,125.31,0,163.94,0,227.93,0h56.15c63.98,0,102.6,0,130.47,11.64,39.73,14.45,71.37,46.09,86.09,86.53,11.37,27.15,11.37,65.78,11.37,129.76Z" fill="url(#linear-gradient)"/><path d="m254.97,393.56c-5.12,0-10.17-.89-15.01-2.64-12.15-4.43-21.66-13.88-26.14-25.98-47.84,3.94-58.05-22.31-64.36-38.35-.85-2.16-1.66-4.23-2.52-6.12-5.93-12.89-21.5-15.45-21.66-15.47-4.2-.61-7.43-4.01-7.81-8.24-.37-4.23,2.22-8.15,6.25-9.48,38.2-12.54,49,6.06,56.16,18.37,4.84,8.33,6.67,10.44,11.29,10.49,8.48-.14,13.29-4.24,16.43-8.5-37.51-13.91-61.17-44.31-61.17-79.8,0-17.62,5.85-34.29,17-48.52-3.27-10.62-4.09-27.79,5.07-39.55.87-1.12,1.98-2.01,3.25-2.62,17.24-8.27,38.23,2.18,46.91,7.37,23.11-6.19,49.54-6.19,72.64,0,8.65-5.19,29.67-15.65,46.9-7.37,1.27.62,2.38,1.51,3.25,2.62,9.15,11.76,8.34,28.93,5.08,39.54,11.13,14.23,16.99,30.9,16.99,48.53,0,36.59-25.15,67.77-64.69,81.04.05,3.4.05,7.2.05,11.48v10.93c0,16.06,0,25.75-2.6,33.25-4.51,12.37-14.07,21.93-26.29,26.37-4.84,1.76-9.89,2.65-15.01,2.65Zm-34.06-47.75c2,0,3.94.65,5.55,1.88,1.95,1.49,3.22,3.7,3.52,6.14.26,2.07.57,3.6.95,4.7,2.55,7.03,8.13,12.61,15.27,15.21,5.66,2.05,11.87,2.06,17.54,0,7.13-2.59,12.71-8.17,15.31-15.31,1.54-4.46,1.54-13.49,1.54-27.14v-10.93c0-7.21,0-12.99-.24-17.72-.21-4.3,2.59-8.16,6.74-9.29,35.32-9.59,58.15-35.31,58.15-65.52,0-14.89-5.52-28.96-15.97-40.68-1.67-1.88-2.5-4.36-2.28-6.88.12-1.47.62-2.88,1.39-4.1,1.42-3.46,4.11-15.49-.13-23.3-9.97-2.77-25.36,5.67-30.31,9.07-2.29,1.57-5.21,2.03-7.85,1.23-22.07-6.69-48.16-6.69-70.23,0-2.66.79-5.56.34-7.85-1.23-4.94-3.41-20.35-11.84-30.32-9.07-4.24,7.82-1.54,19.84-.12,23.3.78,1.22,1.27,2.63,1.39,4.1.22,2.52-.61,5-2.28,6.88-10.46,11.73-15.98,25.8-15.98,40.68,0,30.2,22.82,55.91,58.15,65.52,2.36.64,4.36,2.19,5.57,4.33s1.5,4.65.82,7c-2.95,10.33-14.64,29.73-37.79,29.73h-.49c-14.37-.17-21.04-9.7-25.71-17.6.41,1.01.81,2.04,1.23,3.1,6.43,16.37,12.5,31.87,53.16,26,.43-.06.87-.09,1.29-.09Z" fill="#fff"/></svg>