<?xml version="1.0" encoding="UTF-8" standalone="no"?>
<svg
   xmlns:dc="http://purl.org/dc/elements/1.1/"
   xmlns:cc="http://creativecommons.org/ns#"
   xmlns:rdf="http://www.w3.org/1999/02/22-rdf-syntax-ns#"
   xmlns:svg="http://www.w3.org/2000/svg"
   xmlns="http://www.w3.org/2000/svg"
   id="svg147"
   version="1.1"
   viewBox="1279.918 269.638 95.286 95.287"
   class="Path_238">
  <metadata
     id="metadata153">
    <rdf:RDF>
      <cc:Work
         rdf:about="">
        <dc:format>image/svg+xml</dc:format>
        <dc:type
           rdf:resource="http://purl.org/dc/dcmitype/StillImage" />
        <dc:title></dc:title>
      </cc:Work>
    </rdf:RDF>
  </metadata>
  <defs
     id="defs151" />
  <path
     d="M 1327.56103515625 278.2219848632812 C 1340.282958984375 278.2219848632812 1341.7900390625 278.27099609375 1346.81298828125 278.5 C 1349.833984375 278.5360107421875 1352.826049804688 279.0910034179688 1355.659057617188 280.1409912109375 C 1359.81396484375 281.7439880371094 1363.098022460938 285.0280151367188 1364.702026367188 289.1830139160156 C 1365.751953125 292.0169982910156 1366.306030273438 295.0090026855469 1366.343017578125 298.0299987792969 C 1366.572021484375 303.0539855957031 1366.619995117188 304.5610046386719 1366.619995117188 317.2820129394531 C 1366.619995117188 330.0029907226562 1366.571044921875 331.510009765625 1366.343017578125 336.5339965820312 C 1366.306030273438 339.5559997558594 1365.751953125 342.5480041503906 1364.702026367188 345.3810119628906 C 1363.098022460938 349.5360107421875 1359.81396484375 352.8210144042969 1355.659057617188 354.4230041503906 C 1352.826049804688 355.4729919433594 1349.8330078125 356.0280151367188 1346.81298828125 356.06298828125 C 1341.791015625 356.2919921875 1340.282958984375 356.3410034179688 1327.56103515625 356.3410034179688 C 1314.838989257812 356.3410034179688 1313.33203125 356.2919921875 1308.31005859375 356.06298828125 C 1305.287963867188 356.0280151367188 1302.295043945312 355.4729919433594 1299.462036132812 354.4230041503906 C 1295.306030273438 352.8219909667969 1292.02197265625 349.5369873046875 1290.421020507812 345.3810119628906 C 1289.369018554688 342.5490112304688 1288.81298828125 339.5559997558594 1288.779052734375 336.5339965820312 C 1288.550048828125 331.510009765625 1288.501953125 330.0029907226562 1288.501953125 317.2820129394531 C 1288.501953125 304.5610046386719 1288.550048828125 303.0539855957031 1288.779052734375 298.0299987792969 C 1288.81298828125 295.0090026855469 1289.369018554688 292.0159912109375 1290.421020507812 289.1830139160156 C 1292.02197265625 285.0270080566406 1295.306030273438 281.7430114746094 1299.462036132812 280.1409912109375 C 1302.295043945312 279.0910034179688 1305.287963867188 278.5360107421875 1308.31005859375 278.5 C 1313.3330078125 278.27099609375 1314.839965820312 278.2219848632812 1327.56103515625 278.2219848632812 M 1327.56103515625 269.6380004882812 C 1314.620971679688 269.6380004882812 1312.998046875 269.6929931640625 1307.9169921875 269.9240112304688 C 1303.964965820312 270.0039978027344 1300.055053710938 270.7520141601562 1296.35400390625 272.1390075683594 C 1289.953002929688 274.6130065917969 1284.892944335938 279.6730041503906 1282.420043945312 286.072998046875 C 1281.031982421875 289.7749938964844 1280.281982421875 293.6860046386719 1280.203002929688 297.6380004882812 C 1279.972045898438 302.718994140625 1279.91796875 304.3380126953125 1279.91796875 317.281005859375 C 1279.91796875 330.2239990234375 1279.972045898438 331.8420104980469 1280.203002929688 336.9240112304688 C 1280.281982421875 340.8770141601562 1281.031005859375 344.7879943847656 1282.420043945312 348.489013671875 C 1284.892944335938 354.8900146484375 1289.953002929688 359.9500122070312 1296.35400390625 362.4230041503906 C 1300.055053710938 363.8099975585938 1303.964965820312 364.5589904785156 1307.9169921875 364.6380004882812 C 1312.996948242188 364.8699951171875 1314.616943359375 364.9249877929688 1327.56103515625 364.9249877929688 C 1340.505004882812 364.9249877929688 1342.123046875 364.8699951171875 1347.203979492188 364.6380004882812 C 1351.156005859375 364.5589904785156 1355.066040039062 363.8099975585938 1358.767944335938 362.4230041503906 C 1365.16796875 359.9490051269531 1370.22802734375 354.8900146484375 1372.703002929688 348.489013671875 C 1374.089965820312 344.7869873046875 1374.838989257812 340.8770141601562 1374.9169921875 336.9240112304688 C 1375.14794921875 331.8420104980469 1375.203979492188 330.2239990234375 1375.203979492188 317.281005859375 C 1375.203979492188 304.3380126953125 1375.14794921875 302.718994140625 1374.9169921875 297.6380004882812 C 1374.838989257812 293.6860046386719 1374.089965820312 289.7749938964844 1372.703002929688 286.072998046875 C 1370.22802734375 279.6730041503906 1365.16796875 274.614013671875 1358.767944335938 272.1390075683594 C 1355.066040039062 270.7529907226562 1351.156005859375 270.0039978027344 1347.203979492188 269.9240112304688 C 1342.123046875 269.6919860839844 1340.504028320312 269.6380004882812 1327.56103515625 269.6380004882812 Z"
     id="Path_238" />
  <path
     d="M 1327.587036132812 292.8200073242188 C 1314.074951171875 292.8210144042969 1303.121948242188 303.7749938964844 1303.123046875 317.2860107421875 C 1303.123046875 330.7980041503906 1314.077026367188 341.7510070800781 1327.588989257812 341.75 C 1341.099975585938 341.75 1352.052978515625 330.7969970703125 1352.052978515625 317.2850036621094 C 1352.052001953125 303.7739868164062 1341.098022460938 292.8200073242188 1327.587036132812 292.8200073242188 Z M 1327.587036132812 333.1659851074219 C 1318.816040039062 333.1659851074219 1311.7060546875 326.0549926757812 1311.70703125 317.2839965820312 C 1311.70703125 308.5130004882812 1318.817993164062 301.4039916992188 1327.588989257812 301.4039916992188 C 1336.359008789062 301.4049987792969 1343.468994140625 308.5150146484375 1343.468994140625 317.2850036621094 C 1343.468994140625 326.0559997558594 1336.358032226562 333.1659851074219 1327.587036132812 333.1659851074219 L 1327.587036132812 333.1659851074219 Z"
     id="Path_239" />
  <ellipse
     cy="5.7170000076293945"
     cx="5.7170000076293945"
     ry="5.7170000076293945"
     rx="5.7170000076293945"
     id="Ellipse_3" />
</svg>
