<?xml version="1.0" encoding="UTF-8"?><svg id="Layer_1" xmlns="http://www.w3.org/2000/svg" xmlns:xlink="http://www.w3.org/1999/xlink" viewBox="0 0 512 512"><defs><linearGradient id="linear-gradient" x1="256" y1="0" x2="256" y2="497.67" gradientUnits="userSpaceOnUse"><stop offset="0" stop-color="#d1436c"/><stop offset="1" stop-color="#ac3e84"/></linearGradient></defs><path d="m512,227.93v56.15c0,63.98,0,102.61-11.64,130.46-14.43,39.73-46.07,71.36-86.53,86.1-27.16,11.37-65.78,11.37-129.76,11.37h-56.15c-63.99,0-102.61,0-130.48-11.64-39.74-14.46-71.38-46.1-86.09-86.55C0,386.69,0,348.05,0,284.07v-56.15c0-63.98,0-102.61,11.63-130.48C26.08,57.73,57.72,26.08,98.17,11.37,125.31,0,163.94,0,227.93,0h56.15c63.98,0,102.6,0,130.47,11.64,39.73,14.45,71.37,46.09,86.09,86.53,11.37,27.15,11.37,65.78,11.37,129.76Z" fill="url(#linear-gradient)"/><path d="m387.21,173.25c-8.22-22.58-25.88-40.25-48.06-48.31-15.56-6.5-37.12-6.5-72.85-6.5h-20.6c-35.72,0-57.29,0-72.45,6.34-22.58,8.22-40.25,25.88-48.31,48.06-6.5,15.56-6.5,37.12-6.5,72.85v20.6c0,35.72,0,57.29,6.34,72.44,8.21,22.58,25.87,40.25,48.06,48.32,15.56,6.5,37.12,6.5,72.85,6.5h20.6c35.72,0,57.29,0,72.45-6.34,22.59-8.23,40.26-25.89,48.31-48.07,6.5-15.55,6.5-37.12,6.5-72.84v-20.6c0-35.72,0-57.29-6.34-72.45Zm-11.93,93.05c0,33.44,0,53.63-5.24,66.19-6.36,17.49-20.05,31.17-37.95,37.7-12.17,5.09-32.36,5.09-65.8,5.09h-20.6c-33.44,0-53.63,0-66.2-5.24-17.5-6.38-31.18-20.07-37.7-37.95-5.09-12.16-5.09-32.35-5.09-65.79v-20.6c0-33.44,0-53.63,5.24-66.2,6.37-17.5,20.05-31.17,37.95-37.7,12.17-5.09,32.36-5.09,65.8-5.09h20.6c33.44,0,53.63,0,66.2,5.24,17.5,6.37,31.17,20.05,37.7,37.95,5.09,12.17,5.09,32.36,5.09,65.8v20.6Zm-119.29-72.55c-34.32,0-62.25,27.93-62.25,62.25s27.93,62.25,62.25,62.25,62.25-27.93,62.25-62.25-27.93-62.25-62.25-62.25Zm0,106.23c-24.25,0-43.98-19.73-43.98-43.98s19.73-43.98,43.98-43.98,43.98,19.73,43.98,43.98-19.73,43.98-43.98,43.98Zm77.56-112.8c0,7.32-5.93,13.25-13.25,13.25s-13.25-5.93-13.25-13.25,5.93-13.25,13.25-13.25,13.25,5.93,13.25,13.25Z" fill="#fff"/></svg>