<?xml version="1.0" encoding="utf-8"?>
<!-- Generator: Adobe Illustrator 25.0.1, SVG Export Plug-In . SVG Version: 6.00 Build 0)  -->
<svg version="1.1"
	 id="svg147" xmlns:cc="http://creativecommons.org/ns#" xmlns:dc="http://purl.org/dc/elements/1.1/" xmlns:rdf="http://www.w3.org/1999/02/22-rdf-syntax-ns#" xmlns:svg="http://www.w3.org/2000/svg"
	 xmlns="http://www.w3.org/2000/svg" xmlns:xlink="http://www.w3.org/1999/xlink" x="0px" y="0px" viewBox="0 0 86.4 86.4"
	 style="enable-background:new 0 0 86.4 86.4;" xml:space="preserve">
<path d="M84.5,16.2C82,9.5,76.8,4.3,70.2,1.9C65.6,0,59.4,0,49.1,0H37.2C27,0,20.8,0,16.2,1.9C9.5,4.3,4.3,9.5,1.9,16.2
	C0,20.8,0,27,0,37.2v11.9c0,10.3,0,16.5,1.9,21.1C4.3,76.8,9.5,82,16.2,84.5c4.6,1.9,10.8,1.9,21.1,1.9h11.9c10.3,0,16.5,0,21.1-1.9
	C76.8,82,82,76.8,84.5,70.2c1.9-4.6,1.9-10.8,1.9-21.1V37.2C86.4,27,86.4,20.8,84.5,16.2z M79.4,49.1c0,9.1,0,15.1-1.4,18.5
	l-0.1,0.2c-1.7,4.8-5.4,8.5-10.2,10.2L67.6,78c-3.3,1.4-9.3,1.4-18.5,1.4H37.2c-9.1,0-15.1,0-18.5-1.4l-0.2-0.1
	c-4.8-1.7-8.5-5.4-10.2-10.2l-0.1-0.2C7,64.3,7,58.2,7,49.1V37.2c0-9.1,0-15.1,1.4-18.5l0.1-0.2c1.7-4.8,5.4-8.5,10.2-10.2l0.2-0.1
	C22.1,7,28.1,7,37.2,7h11.9c9.1,0,15.1,0,18.5,1.4l0.2,0.1c4.8,1.7,8.5,5.4,10.2,10.2l0.1,0.2c1.4,3.3,1.4,9.3,1.4,18.5V49.1z
	 M42.2,23.4c-10.9,0-19.8,8.9-19.8,19.8S31.3,63,42.2,63S62,54.1,62,43.2S53.1,23.4,42.2,23.4z M42.2,56c-7,0-12.8-5.7-12.8-12.8
	c0-7,5.7-12.8,12.8-12.8S55,36.1,55,43.2C55,50.2,49.2,56,42.2,56z M68.6,21.2c0,2.3-1.9,4.2-4.2,4.2c-2.3,0-4.2-1.9-4.2-4.2
	c0-2.3,1.9-4.2,4.2-4.2C66.8,17,68.6,18.9,68.6,21.2z"/>
</svg>
