<?xml version="1.0" encoding="utf-8"?>
<!-- Generator: Adobe Illustrator 25.4.1, SVG Export Plug-In . SVG Version: 6.00 Build 0)  -->
<svg version="1.1"
	 id="svg147" xmlns:cc="http://creativecommons.org/ns#" xmlns:dc="http://purl.org/dc/elements/1.1/" xmlns:rdf="http://www.w3.org/1999/02/22-rdf-syntax-ns#" xmlns:svg="http://www.w3.org/2000/svg"
	 xmlns="http://www.w3.org/2000/svg" xmlns:xlink="http://www.w3.org/1999/xlink" x="0px" y="0px" viewBox="0 0 100 100"
	 style="enable-background:new 0 0 100 100;" xml:space="preserve">
<path d="M95.2,20.4c-2.7-7.3-8.4-12.9-15.6-15.6c-5-2.1-11.8-2.1-23.1-2.1h-13c-11.2,0-18,0-23.1,2.1c-7.3,2.7-13,8.4-15.6,15.6
	c-2.1,5-2.1,11.8-2.1,23.1v13c0,11.2,0,18,2.1,23.1c2.7,7.3,8.4,13,15.6,15.6c5,2.1,11.8,2.1,23.1,2.1h13c11.2,0,18,0,23.1-2.1
	c7.3-2.7,13-8.4,15.6-15.6c2.1-5,2.1-11.8,2.1-23.1v-13C97.3,32.3,97.3,25.5,95.2,20.4z M48.9,69.2c-10.5,0-19.1-8.7-19.1-19.2
	s8.6-19.1,19.1-19.1S68.1,39.5,68.1,50S59.4,69.2,48.9,69.2z M73.2,30.6c-2.6,0-4.6-2.1-4.6-4.6c0-2.6,2.1-4.6,4.6-4.6
	c2.6,0,4.6,2.1,4.6,4.6C77.9,28.5,75.8,30.6,73.2,30.6z"/>
</svg>
