<?xml version="1.0" encoding="UTF-8"?><svg id="Layer_1" xmlns="http://www.w3.org/2000/svg" xmlns:xlink="http://www.w3.org/1999/xlink" viewBox="0 0 512 512"><defs><linearGradient id="linear-gradient" x1="256" y1="3.98" x2="256" y2="511.11" gradientUnits="userSpaceOnUse"><stop offset="0" stop-color="#5e4e9b"/><stop offset="1" stop-color="#3e4798"/></linearGradient></defs><path d="m512,227.93v56.15c0,63.98,0,102.61-11.64,130.46-14.43,39.73-46.07,71.36-86.53,86.1-27.16,11.37-65.78,11.37-129.76,11.37h-56.15c-63.99,0-102.61,0-130.48-11.64-39.74-14.46-71.38-46.1-86.09-86.55C0,386.69,0,348.05,0,284.07v-56.15c0-63.98,0-102.61,11.63-130.48C26.08,57.73,57.72,26.08,98.17,11.37,125.31,0,163.94,0,227.93,0h56.15c63.98,0,102.6,0,130.47,11.64,39.73,14.45,71.37,46.09,86.09,86.53,11.37,27.15,11.37,65.78,11.37,129.76Z" fill="url(#linear-gradient)"/><path d="m392.47,222.52c-.32-23.26-1.53-39.21-6.7-51.61-8.69-23.7-27.27-42.23-50.61-50.7-16.41-6.83-39.26-6.83-77.1-6.83h-4.18c-37.81,0-60.63,0-76.66,6.68-23.84,8.67-42.48,27.28-50.97,50.68-5.21,12.49-6.41,28.55-6.73,52.25-.02.57-.03,1.14,0,1.71v40.49c0,98.54,32.54,133.47,124.33,133.47h52.86c13.93,0,25.26-11.33,25.26-25.27s-11.33-25.27-25.26-25.27h-41.95c-25.07,0-33.19-6.37-35.39-21.11,37.53,7.95,100.09,6.64,115.4.18,23.8-8.65,42.41-27.27,50.89-50.62,5.28-12.48,6.49-28.56,6.81-52.31.02-.55.02-1.14,0-1.72Zm-18.27,1.69c-.27,20.74-1.26,35.55-5.52,45.66-6.81,18.7-21.44,33.33-40.56,40.3-11.41,4.81-83.42,7.17-115.61-3.89-2.77-.99-5.87-.53-8.28,1.2-2.4,1.72-3.83,4.49-3.83,7.44,0,25.45,6.46,51.46,54.38,51.46h41.95c3.85,0,6.99,3.14,6.99,6.99s-3.13,6.99-6.99,6.99h-52.86c-82.27,0-106.06-25.84-106.06-115.19v-40.85c0-.4.05-.89,0-1.29.27-20.73,1.26-35.55,5.46-45.66,6.8-18.69,21.46-33.32,40.59-40.3,13.05-5.42,34.49-5.42,70.03-5.42h4.18c35.57,0,57.04,0,70.48,5.58,18.7,6.81,33.33,21.44,40.14,40.15.05.14.11.29.17.44,4.1,9.68,5.09,24.48,5.35,45.23,0,.31-.04.87,0,1.18Zm-49.42-12.24v59.64c0,5.05-4.09,9.14-9.14,9.14s-9.14-4.09-9.14-9.14v-59.64c0-11.41-9.28-20.69-20.68-20.69s-20.69,9.28-20.69,20.69v37.85c0,5.05-4.09,9.14-9.14,9.14s-9.14-4.09-9.14-9.14v-37.85c0-11.41-9.28-20.69-20.68-20.69s-20.68,9.28-20.68,20.69v59.64c0,5.05-4.09,9.14-9.14,9.14s-9.14-4.09-9.14-9.14v-59.64c0-21.48,17.48-38.96,38.95-38.96,12.03,0,22.67,5.6,29.82,14.2,7.15-8.6,17.79-14.2,29.83-14.2,21.48,0,38.95,17.48,38.95,38.96Z" fill="#fff"/></svg>