<?xml version="1.0" encoding="UTF-8"?><svg id="Layer_1" xmlns="http://www.w3.org/2000/svg" xmlns:xlink="http://www.w3.org/1999/xlink" viewBox="0 0 512 512"><defs><linearGradient id="linear-gradient" x1="256" y1="0" x2="256" y2="497.67" gradientUnits="userSpaceOnUse"><stop offset="0" stop-color="#57b1d3"/><stop offset="1" stop-color="#4d74b5"/></linearGradient></defs><path d="m512,227.93v56.15c0,63.98,0,102.61-11.64,130.46-14.43,39.73-46.07,71.36-86.53,86.1-27.16,11.37-65.78,11.37-129.76,11.37h-56.15c-63.99,0-102.61,0-130.48-11.64-39.74-14.46-71.38-46.1-86.09-86.55C0,386.69,0,348.05,0,284.07v-56.15c0-63.98,0-102.61,11.63-130.48C26.08,57.73,57.72,26.08,98.17,11.37,125.31,0,163.94,0,227.93,0h56.15c63.98,0,102.6,0,130.47,11.64,39.73,14.45,71.37,46.09,86.09,86.53,11.37,27.15,11.37,65.78,11.37,129.76Z" fill="url(#linear-gradient)"/><path d="m204.8,388.62c-32.72,0-64.51-9.29-91.94-26.87-3.67-2.36-5.17-6.98-3.57-11.04,1.61-4.07,5.9-6.47,10.14-5.64,19.96,3.63,41.51.44,59.62-8.95-18.44-7.13-33.06-22.37-39.1-42.17-.95-3.11-.17-6.49,2.04-8.88.25-.28.52-.53.8-.77-1.1-1.02-2.17-2.08-3.2-3.17-11.73-12.4-18.12-28.64-17.99-45.73.03-3.22,1.74-6.19,4.52-7.82,1.07-.62,2.24-1.02,3.43-1.17-1.33-2.52-2.51-5.14-3.52-7.82-2.94-7.76-4.43-15.95-4.43-24.34,0-2.55.14-5.07.41-7.55.95-8.66,3.49-16.93,7.54-24.59,1.44-2.71,4.13-4.52,7.18-4.82,3.06-.27,6.05.95,7.99,3.33,3.68,4.53,7.69,8.91,11.93,13.04,2.4,2.34,4.89,4.59,7.42,6.77,13.53,11.55,28.81,20.55,45.39,26.75,2.74,1.03,5.45,1.96,8.2,2.82,5.93,1.84,12.01,3.32,18.05,4.41,2.38.43,4.82.8,7.28,1.12l1.18.15h.03c-.04-.97-.06-1.95-.06-2.92,0-15.99,5.82-31.39,16.37-43.36.37-.43.83-.94,1.3-1.43,12.21-13.19,29.76-20.84,47.95-20.84,19.37,0,37.75,8.63,50.17,23.32,4.6-.84,9.89-3.15,15.57-6.83h0c6.95-4.51,15.77-3.79,21.9,1.79,6.14,5.59,7.69,14.26,3.86,21.6-6.1,11.71-14.99,21.6-25.88,28.89v2.12c0,94.06-76.52,170.58-170.58,170.58Zm-47.44-25.81c15.2,4.98,31.19,7.54,47.44,7.54,83.99,0,152.32-68.33,152.32-152.31l-.04-7.13c-.02-3.29,1.73-6.34,4.59-7.98,9.67-5.55,17.57-13.62,22.89-23.41-10.31,6.5-20.07,9.61-28.99,9.56-2.89-.05-5.59-1.47-7.26-3.82-8.89-12.43-23.3-19.85-38.55-19.85-13.12,0-25.78,5.52-34.71,15.16-.03.04-.81.89-.84.92-7.61,8.64-11.8,19.74-11.8,31.28,0,3.72.42,7.39,1.25,10.89.67,2.79-.03,5.74-1.86,7.95-1.84,2.2-4.62,3.44-7.48,3.28-4.18-.21-8.32-.57-12.41-1.08-.29-.02-.89-.1-1.49-.2-2.47-.3-5.21-.73-7.92-1.21-6.8-1.22-13.6-2.89-20.24-4.94-3.12-.96-6.19-2.02-9.23-3.18-18.54-6.92-35.65-17.01-50.82-29.96-2.85-2.44-5.6-4.95-8.29-7.56-1-.96-1.98-1.95-2.95-2.94-.34,1.6-.6,3.22-.78,4.86-.2,1.81-.3,3.68-.3,5.58,0,6.17,1.09,12.19,3.25,17.88,3.26,8.63,8.8,16.16,16.06,21.86,2.13.84,3.99,2.4,5,4.44,1.5,3.06,1.5,6.72-.53,9.46-1.45,1.96-3.79,3.52-6.2,3.88-1.59.22-3.31.15-4.84-.37-3.66-.29-7.24-.89-10.73-1.78,2.11,7.01,5.83,13.49,10.98,18.93,6.37,6.75,14.48,11.45,23.44,13.59,4.1.99,7,4.66,7,8.88s-2.89,7.9-6.99,8.89c-4.1.99-8.33,1.59-12.62,1.77,8.59,12.54,22.87,20.42,38.74,20.58,3.82.04,7.2,2.44,8.5,6.02,1.29,3.59.23,7.6-2.68,10.07-14.64,12.45-32.22,20.82-50.91,24.44Zm223.11-191.51h.09-.09Z" fill="#fff"/></svg>