<?xml version="1.0" encoding="utf-8"?>
<!-- Generator: Adobe Illustrator 25.0.1, SVG Export Plug-In . SVG Version: 6.00 Build 0)  -->
<svg version="1.1"
	 id="svg99" xmlns:cc="http://creativecommons.org/ns#" xmlns:dc="http://purl.org/dc/elements/1.1/" xmlns:rdf="http://www.w3.org/1999/02/22-rdf-syntax-ns#" xmlns:svg="http://www.w3.org/2000/svg"
	 xmlns="http://www.w3.org/2000/svg" xmlns:xlink="http://www.w3.org/1999/xlink" x="0px" y="0px" viewBox="0 0 107.6 90"
	 style="enable-background:new 0 0 107.6 90;" xml:space="preserve">
<g>
	<path d="M35.5,90c-12.1,0-23.9-3.5-34-10.1c-1.4-0.9-1.9-2.6-1.4-4.1c0.6-1.5,2.1-2.5,3.7-2.3c1.4,0.2,2.9,0.3,4.3,0.3
		c5.6,0,11-1.3,15.9-3.7c-6.4-2.7-11.5-8.2-13.6-15.1c-0.4-1.2-0.1-2.4,0.7-3.3c0,0,0.1-0.1,0.1-0.1c-0.3-0.2-0.5-0.4-0.8-0.7
		C5.8,46.2,3,39.8,3,33.1c0-0.2,0-0.4,0-0.6c0.1-1.2,0.8-2.3,1.8-2.9c0.3-0.1,0.5-0.2,0.8-0.3c-0.4-0.8-0.7-1.5-1-2.3
		C3.5,24.2,3,21.2,3,18.3c0-1,0.1-1.9,0.2-2.7c0.4-3.5,1.5-6.9,3.5-10c0.6-1,1.6-1.6,2.8-1.6c1.1-0.1,2.2,0.4,2.9,1.3
		c1.5,1.9,3.2,3.7,4.9,5.4c0.6,0.6,1.3,1.2,2.1,1.9c3.2,2.7,6.6,5.1,10.3,7c1.9,1,3.9,1.9,6,2.7c0.7,0.3,1.5,0.6,2.3,0.8
		c2.5,0.8,5.1,1.5,7.8,2c0.5,0.1,1,0.2,1.5,0.3l0.6,0.1c0.2,0,0.5,0.1,0.7,0.1c0-0.3,0-0.6,0-0.9c0-6.8,2.9-13.3,7.9-17.9
		c1-1,2.2-1.9,3.4-2.7c1.2-0.7,2.4-1.4,3.7-1.9c3-1.3,6.2-1.9,9.5-1.9C79.1,0,85,2.3,89.5,6.5c0.3-0.1,0.5-0.1,0.8-0.2
		c3.3-0.8,6.5-2.2,9.4-4.1c1.2-0.8,2.9-0.8,4.1,0.1c1.2,0.9,1.7,2.5,1.2,3.9c-0.5,1.5-1.1,3-1.9,4.4c1.4-0.5,3,0,3.9,1.2
		c0.9,1.2,0.9,2.9,0,4.2c-2.7,3.7-5.9,7.1-9.4,10.1c0,0.7,0,1.3,0,2C97.5,62.2,69.7,90,35.5,90z M17.1,79.8
		c5.9,2.1,12.1,3.2,18.5,3.2c30.3,0,55-24.7,55-55c0-1.1,0-2.3-0.1-3.4c-0.1-1.2,0.4-2.3,1.3-3c0.7-0.5,1.4-1.1,2-1.7
		c-0.1,0-0.2,0-0.4,0c-0.1,0-0.2,0-0.3,0c-0.2,0-0.4,0.1-0.6,0.1c-0.1,0-0.3,0-0.4,0c-1.6,0.1-3-0.9-3.5-2.3c-0.5-1.5,0-3.1,1.2-4
		c0.1,0,0.1-0.1,0.2-0.2c0,0,0.1-0.1,0.1-0.1c0.1-0.1,0.2-0.1,0.3-0.2c-0.5,0.1-1,0.2-1.5,0.3c-1.2,0.2-2.3-0.2-3.1-1.1
		C82.4,9,77.8,7,72.9,7c-2.3,0-4.6,0.5-6.7,1.3c-0.9,0.4-1.8,0.9-2.6,1.4c-0.9,0.6-1.7,1.2-2.4,1.9c-3.6,3.3-5.6,8-5.6,12.8
		c0,1.4,0.2,2.7,0.5,4c0.3,1.1,0,2.2-0.7,3.1c-0.7,0.8-1.8,1.3-2.9,1.3c-1.9-0.1-3.8-0.3-5.5-0.5l-0.6-0.1C45.6,32,45,32,44.4,31.8
		c-2.9-0.5-5.9-1.3-8.7-2.2c-0.9-0.3-1.7-0.6-2.6-0.9c-2.3-0.9-4.6-1.9-6.8-3.1c-4.1-2.2-8-4.8-11.6-7.9c-0.8-0.7-1.6-1.4-2.3-2.1
		c-0.6-0.6-1.2-1.2-1.8-1.8c-0.2,0.8-0.4,1.7-0.5,2.6C10,17,10,17.6,10,18.3c0,2.1,0.4,4.2,1.1,6.1c1.3,3.3,3.4,6,6.3,8
		c1.3,0.9,1.9,2.5,1.3,4c-0.5,1.5-1.9,2.4-3.5,2.4c-1.6-0.1-3.1-0.3-4.6-0.7c0.9,2.8,2.5,5.4,4.7,7.5c2.4,2.2,5.3,3.7,8.5,4.3
		c1.6,0.3,2.8,1.6,2.9,3.3c0.1,1.6-1,3.1-2.5,3.5c-1.5,0.5-3.1,0.8-4.7,0.9c3,4.4,8,7.2,13.6,7.4c1.5,0,2.7,1,3.2,2.4
		c0.5,1.4,0,2.9-1.1,3.8C30,75.5,23.7,78.4,17.1,79.8z"/>
</g>
</svg>
