<?xml version="1.0" encoding="UTF-8" standalone="no"?>
<svg
   xmlns:dc="http://purl.org/dc/elements/1.1/"
   xmlns:cc="http://creativecommons.org/ns#"
   xmlns:rdf="http://www.w3.org/1999/02/22-rdf-syntax-ns#"
   xmlns:svg="http://www.w3.org/2000/svg"
   xmlns="http://www.w3.org/2000/svg"
   id="svg99"
   version="1.1"
   viewBox="700.276 273.367 106.636 87.83"
   class="Path_363">
  <metadata
     id="metadata105">
    <rdf:RDF>
      <cc:Work
         rdf:about="">
        <dc:format>image/svg+xml</dc:format>
        <dc:type
           rdf:resource="http://purl.org/dc/dcmitype/StillImage" />
        <dc:title></dc:title>
      </cc:Work>
    </rdf:RDF>
  </metadata>
  <defs
     id="defs103" />
  <path
     d="M 734.9669799804688 361.1969909667969 C 723.1580200195312 361.1969909667969 711.6580200195312 357.8259887695312 701.7100219726562 351.4519958496094 C 700.4879760742188 350.6690063476562 699.969970703125 349.1470031738281 700.4580078125 347.7820129394531 C 700.947021484375 346.4169921875 702.3170166015625 345.5719909667969 703.7540283203125 345.7380065917969 C 705.2379760742188 345.9129943847656 706.7689819335938 346.0020141601562 708.302978515625 346.0020141601562 C 714.4710083007812 346.0020141601562 720.3930053710938 344.5759887695312 725.7470092773438 341.8330078125 C 719.1740112304688 339.3030090332031 713.9149780273438 333.9140014648438 711.6799926757812 326.9389953613281 C 711.343994140625 325.8930053710938 711.5850219726562 324.7470092773438 712.3140258789062 323.9249877929688 C 712.43798828125 323.7850036621094 712.572998046875 323.6570129394531 712.718017578125 323.5440063476562 C 707.5360107421875 319.1480102539062 704.3070068359375 312.5929870605469 704.3070068359375 305.4400024414062 C 704.3070068359375 305.2929992675781 704.3079833984375 305.1520080566406 704.3159790039062 305.0119934082031 C 704.3729858398438 303.9400024414062 704.97900390625 302.9719848632812 705.9180297851562 302.4519958496094 C 706.3839721679688 302.1950073242188 706.8989868164062 302.0650024414062 707.416015625 302.0639953613281 C 705.5120239257812 298.6099853515625 704.4749755859375 294.6839904785156 704.4749755859375 290.6069946289062 C 704.4749755859375 286.4209899902344 705.5859985351562 282.2990112304688 707.68798828125 278.68798828125 C 708.2009887695312 277.8039855957031 709.1160278320312 277.2300109863281 710.1339721679688 277.1499938964844 C 711.166015625 277.06298828125 712.14697265625 277.4949951171875 712.791015625 278.2860107421875 C 721.905029296875 289.468994140625 735.0230102539062 296.6489868164062 749.2249755859375 298.3469848632812 C 749.2030029296875 297.9249877929688 749.1920166015625 297.5029907226562 749.1920166015625 297.0790100097656 C 749.1920166015625 284.0039978027344 759.8319702148438 273.3670043945312 772.9089965820312 273.3670043945312 C 778.8330078125 273.3670043945312 784.5750122070312 275.614990234375 788.927001953125 279.5870056152344 C 792.6190185546875 278.6960144042969 796.1480102539062 277.260986328125 799.43798828125 275.3110046386719 C 800.551025390625 274.6499938964844 801.9559936523438 274.7489929199219 802.9660034179688 275.5530090332031 C 803.9769897460938 276.3599853515625 804.385009765625 277.7059936523438 803.9910278320312 278.93798828125 C 803.4730224609375 280.5539855957031 802.7869873046875 282.0989990234375 801.947998046875 283.5499877929688 C 802.1439819335938 283.4670104980469 802.3389892578125 283.3819885253906 802.5339965820312 283.2959899902344 C 803.7999877929688 282.7330017089844 805.2849731445312 283.0750122070312 806.1790161132812 284.135009765625 C 807.072021484375 285.1940002441406 807.156982421875 286.7170104980469 806.3870239257812 287.8699951171875 C 803.718017578125 291.8659973144531 800.4600219726562 295.3770141601562 796.6840209960938 298.3240051269531 C 796.6909790039062 298.7009887695312 796.6939697265625 299.0849914550781 796.6939697265625 299.4710083007812 C 796.6939697265625 314.4450073242188 790.906982421875 329.5979919433594 780.8179931640625 341.0440063476562 C 772.7150268554688 350.2369995117188 758.1810302734375 361.1969909667969 734.9669799804688 361.1969909667969 Z M 715.9080200195312 351.5910034179688 C 721.9810180664062 353.8190002441406 728.4210205078125 354.9700012207031 734.9669799804688 354.9700012207031 C 755.8579711914062 354.9700012207031 768.8920288085938 345.1579895019531 776.1480102539062 336.9259948730469 C 785.2479858398438 326.6019897460938 790.4669799804688 312.9500122070312 790.4669799804688 299.4710083007812 C 790.4669799804688 298.5979919433594 790.447998046875 297.7510070800781 790.4110107421875 296.9519958496094 C 790.3619995117188 295.9030151367188 790.8460083007812 294.8999938964844 791.697021484375 294.2850036621094 C 792.6129760742188 293.6220092773438 793.4970092773438 292.9230041503906 794.3469848632812 292.18798828125 C 793.6799926757812 292.2990112304688 793.010009765625 292.3940124511719 792.3380126953125 292.4750061035156 C 790.8790283203125 292.6510009765625 789.4970092773438 291.7820129394531 789.02197265625 290.3919982910156 C 788.5469970703125 289.0020141601562 789.1079711914062 287.468994140625 790.3670043945312 286.7139892578125 C 791.2139892578125 286.2059936523438 792.0120239257812 285.6319885253906 792.7529907226562 285 C 791.3720092773438 285.4150085449219 789.968994140625 285.7630004882812 788.5479736328125 286.0429992675781 C 787.4920043945312 286.2510070800781 786.4110107421875 285.9020080566406 785.677001953125 285.1199951171875 C 782.3790283203125 281.6080017089844 777.7260131835938 279.593994140625 772.9089965820312 279.593994140625 C 763.2650146484375 279.593994140625 755.4190063476562 287.43701171875 755.4190063476562 297.0790100097656 C 755.4190063476562 298.4440002441406 755.5709838867188 299.7850036621094 755.8709716796875 301.0650024414062 C 756.093994140625 302.0180053710938 755.8560180664062 303.0190124511719 755.22998046875 303.7699890136719 C 754.60400390625 304.5199890136719 753.6669921875 304.9249877929688 752.6829833984375 304.885009765625 C 736.9769897460938 304.0960083007812 722.1640014648438 297.2829895019531 711.3179931640625 286.0050048828125 C 710.9099731445312 287.4979858398438 710.7009887695312 289.0459899902344 710.7009887695312 290.6069946289062 C 710.7009887695312 296.4700012207031 713.6110229492188 301.9119873046875 718.4840087890625 305.1650085449219 C 719.6389770507812 305.9360046386719 720.1439819335938 307.3800048828125 719.719970703125 308.7030029296875 C 719.2969970703125 310.0270080566406 718.0549926757812 310.9039916992188 716.6589965820312 310.8659973144531 C 714.7990112304688 310.8089904785156 712.9459838867188 310.5270080566406 711.1500244140625 310.0339965820312 C 712.8610229492188 316.2879943847656 717.97998046875 321.2650146484375 724.5590209960938 322.5830078125 C 725.9749755859375 322.8670043945312 727.010009765625 324.0870056152344 727.0590209960938 325.5289916992188 C 727.1079711914062 326.9729919433594 726.1589965820312 328.260009765625 724.7659912109375 328.6390075683594 C 723.125 329.0859985351562 721.4390258789062 329.3550109863281 719.7379760742188 329.4429931640625 C 722.8660278320312 334.1050109863281 728.1279907226562 337.0759887695312 733.947021484375 337.1849975585938 C 735.2639770507812 337.2090148925781 736.4229736328125 338.0599975585938 736.8410034179688 339.3089904785156 C 737.2589721679688 340.5580139160156 736.8469848632812 341.9349975585938 735.8090209960938 342.7479858398438 C 729.9180297851562 347.364013671875 723.1430053710938 350.3599853515625 715.9080200195312 351.5910034179688 Z"
     id="Path_363" />
</svg>
