<?xml version="1.0" encoding="utf-8"?>
<!-- Generator: Adobe Illustrator 25.4.1, SVG Export Plug-In . SVG Version: 6.00 Build 0)  -->
<svg version="1.1"
	 id="svg99" xmlns:cc="http://creativecommons.org/ns#" xmlns:dc="http://purl.org/dc/elements/1.1/" xmlns:rdf="http://www.w3.org/1999/02/22-rdf-syntax-ns#" xmlns:svg="http://www.w3.org/2000/svg"
	 xmlns="http://www.w3.org/2000/svg" xmlns:xlink="http://www.w3.org/1999/xlink" x="0px" y="0px" viewBox="0 0 107.6 100"
	 style="enable-background:new 0 0 107.6 100;" xml:space="preserve">
<g>
	<g>
		<path d="M104.5,20.1c-2.6,3.8-5.6,7.3-9,10.4c0,0.7,0,1.4,0,2c0,35.1-26.5,63.7-59.2,63.7c-11.6,0-22.8-3.6-32.4-10.4
			c-1.3-0.9-1.8-2.7-1.3-4.2c0.5-1.6,2-2.5,3.5-2.3c1.3,0.2,2.7,0.3,4.2,0.3c5.4,0,10.5-1.3,15.2-3.8c-6.1-2.8-10.9-8.4-13-15.5
			c-0.3-1.2-0.1-2.5,0.7-3.4c0,0,0.1-0.1,0.1-0.1c-0.2-0.2-0.5-0.5-0.7-0.7C8,51.2,5.3,44.6,5.3,37.7c0-0.2,0-0.5,0-0.7
			c0.1-1.2,0.7-2.4,1.8-2.9c0.2-0.1,0.5-0.2,0.8-0.3c-0.4-0.8-0.7-1.6-1-2.4c-1-2.8-1.5-5.8-1.5-8.9c0-1,0-1.9,0.1-2.8
			c0.4-3.6,1.5-7.1,3.3-10.3c0.6-1,1.5-1.6,2.6-1.7c1.1-0.1,2.1,0.4,2.8,1.3c1.4,1.9,3,3.7,4.7,5.5c0.6,0.6,1.3,1.3,2,1.9
			c3,2.8,6.4,5.2,9.8,7.2c1.8,1,3.8,2,5.7,2.8c0.7,0.3,1.5,0.6,2.2,0.9c2.4,0.9,4.9,1.5,7.4,2c0.5,0.1,1,0.2,1.5,0.3l0.5,0.1
			c0.2,0,0.4,0.1,0.7,0.1c0-0.3,0-0.6,0-1c0-7,2.7-13.7,7.5-18.4c1-1,2.1-1.9,3.3-2.7c1.1-0.8,2.3-1.4,3.5-2c2.9-1.3,5.9-1.9,9-1.9
			c5.9,0,11.5,2.4,15.8,6.6c0.3-0.1,0.5-0.1,0.8-0.2c3.2-0.8,6.2-2.2,9-4.2c1.2-0.9,2.7-0.8,3.9,0.1c1.1,0.9,1.6,2.5,1.1,4
			c-0.5,1.6-1.1,3.1-1.8,4.5c1.3-0.5,2.8,0,3.7,1.2C105.4,17.1,105.4,18.8,104.5,20.1z"/>
	</g>
</g>
</svg>
