<?xml version="1.0" encoding="utf-8"?>
<!-- Generator: Adobe Illustrator 25.0.1, SVG Export Plug-In . SVG Version: 6.00 Build 0)  -->
<svg version="1.1"
	 id="svg125" xmlns:cc="http://creativecommons.org/ns#" xmlns:dc="http://purl.org/dc/elements/1.1/" xmlns:rdf="http://www.w3.org/1999/02/22-rdf-syntax-ns#" xmlns:svg="http://www.w3.org/2000/svg"
	 xmlns="http://www.w3.org/2000/svg" xmlns:xlink="http://www.w3.org/1999/xlink" x="0px" y="0px" viewBox="0 0 109.2 86.7"
	 style="enable-background:new 0 0 109.2 86.7;" xml:space="preserve">
<path d="M107.2,21.7c-1.8-9.5-11-18.3-20.6-19.6c-20.3-2.8-43.7-2.8-64,0C13,3.4,3.7,12.2,2,21.7C-0.7,36-0.7,50.6,2,65
	c1.8,9.5,11,18.3,20.6,19.6c10.2,1.4,21.1,2.1,32,2.1s21.8-0.7,32-2.1c9.6-1.3,18.8-10.1,20.6-19.6C109.8,50.6,109.8,36,107.2,21.7z
	 M100.3,63.7c-1.2,6.5-8,13-14.6,13.9c-19.7,2.7-42.4,2.7-62.1,0c-6.6-0.9-13.4-7.4-14.6-13.9c-2.5-13.5-2.5-27.3,0-40.8
	c1.2-6.5,8-13,14.6-13.9C33.4,7.7,44,7,54.6,7s21.2,0.7,31.1,2c6.6,0.9,13.4,7.4,14.6,13.9C102.8,36.5,102.8,50.2,100.3,63.7z
	 M68.3,37l-14.5-8.4c-2.3-1.3-5-1.3-7.3,0c-2.3,1.3-3.6,3.7-3.6,6.3v16.7c0,2.6,1.4,5,3.6,6.3c1.1,0.7,2.4,1,3.6,1s2.5-0.3,3.6-1
	l14.5-8.4c2.3-1.3,3.6-3.7,3.6-6.3C71.9,40.7,70.5,38.3,68.3,37z M64.8,43.6l-14.5,8.4c0,0-0.1,0.1-0.3,0c-0.1-0.1-0.1-0.2-0.1-0.2
	V35c0-0.1,0-0.2,0.1-0.2c0.1,0,0.1,0,0.1,0c0.1,0,0.1,0,0.1,0l14.5,8.4c0,0,0.1,0.1,0.1,0.2C64.9,43.5,64.8,43.5,64.8,43.6z"/>
</svg>
