<?xml version="1.0" encoding="UTF-8"?><svg id="Layer_1" xmlns="http://www.w3.org/2000/svg" xmlns:xlink="http://www.w3.org/1999/xlink" viewBox="0 0 512 512"><defs><linearGradient id="linear-gradient" x1="256" y1="0" x2="256" y2="497.67" gradientUnits="userSpaceOnUse"><stop offset="0" stop-color="#ac4260"/><stop offset="1" stop-color="#c63539"/></linearGradient></defs><path d="m512,227.93v56.15c0,63.98,0,102.61-11.64,130.46-14.43,39.73-46.07,71.36-86.53,86.1-27.16,11.37-65.78,11.37-129.76,11.37h-56.15c-63.99,0-102.61,0-130.48-11.64-39.74-14.46-71.38-46.1-86.09-86.55C0,386.69,0,348.05,0,284.07v-56.15c0-63.98,0-102.61,11.63-130.48C26.08,57.73,57.72,26.08,98.17,11.37,125.31,0,163.94,0,227.93,0h56.15c63.98,0,102.6,0,130.47,11.64,39.73,14.45,71.37,46.09,86.09,86.53,11.37,27.15,11.37,65.78,11.37,129.76Z" fill="url(#linear-gradient)"/><path d="m405.89,210.2c-5.01-34.57-31.35-61.98-65.52-68.2-55.58-10.12-113.29-10.1-168.73.02-34.14,6.22-60.47,33.6-65.51,68.14-2.21,15.13-3.33,30.54-3.33,45.81s1.12,30.68,3.33,45.82c5.04,34.54,31.36,61.92,65.5,68.14,27.99,5.11,56.18,7.66,84.38,7.66s56.37-2.55,84.36-7.66c34.17-6.22,60.51-33.62,65.52-68.19,2.19-15.1,3.31-30.5,3.31-45.77s-1.12-30.67-3.31-45.76Zm-18.08,88.91c-3.89,26.79-24.28,48.03-50.71,52.85-53.84,9.81-108.4,9.81-162.19,0-26.42-4.82-46.8-26.03-50.7-52.81-2.08-14.26-3.13-28.78-3.13-43.17s1.05-28.91,3.13-43.17c3.91-26.78,24.29-47.99,50.71-52.81,26.66-4.86,53.95-7.33,81.12-7.33s54.37,2.46,81.06,7.32c26.44,4.82,46.81,26.06,50.71,52.85,2.06,14.22,3.11,28.74,3.11,43.14s-1.05,28.92-3.11,43.15Zm-94.86-59.84l-41.93-23.29c-6.39-3.56-13.98-3.48-20.28.25-6.31,3.71-10.07,10.3-10.07,17.61v46.57c0,7.31,3.77,13.89,10.06,17.6,3.23,1.9,6.8,2.86,10.37,2.86s6.8-.87,9.92-2.6l41.93-23.29c6.5-3.6,10.52-10.46,10.52-17.87,0-7.42-4.03-14.26-10.52-17.85Zm-8.87,19.75l-41.93,23.28c-.9.5-1.67.26-2.15-.03s-1.06-.84-1.06-1.86v-46.57c0-1.03.58-1.58,1.06-1.86.29-.17.66-.31,1.1-.31.32,0,.67.08,1.05.29l41.93,23.29c.92.51,1.12,1.31,1.12,1.89s-.2,1.37-1.12,1.89Z" fill="#fff"/></svg>