<?xml version="1.0" encoding="utf-8"?>
<!-- Generator: Adobe Illustrator 25.4.1, SVG Export Plug-In . SVG Version: 6.00 Build 0)  -->
<svg version="1.1"
	 id="svg125" xmlns:cc="http://creativecommons.org/ns#" xmlns:dc="http://purl.org/dc/elements/1.1/" xmlns:rdf="http://www.w3.org/1999/02/22-rdf-syntax-ns#" xmlns:svg="http://www.w3.org/2000/svg"
	 xmlns="http://www.w3.org/2000/svg" xmlns:xlink="http://www.w3.org/1999/xlink" x="0px" y="0px" viewBox="0 0 100 100"
	 style="enable-background:new 0 0 100 100;" xml:space="preserve">
<g>
	<path d="M98.2,30.1c-1.6-8.7-10.1-16.7-18.9-17.9c-18.6-2.5-40-2.5-58.6,0c-8.8,1.2-17.2,9.2-18.9,17.9c-2.4,13.2-2.4,26.5,0,39.7
		c1.6,8.7,10.1,16.7,18.9,17.9C30,89,40,89.7,50,89.7s20-0.6,29.3-1.9c8.8-1.2,17.2-9.2,18.9-17.9C100.6,56.7,100.6,43.3,98.2,30.1z
		 M62.5,55.8l-13.3,7.7c-1,0.6-2.2,0.9-3.3,0.9s-2.3-0.3-3.3-0.9c-2.1-1.2-3.3-3.4-3.3-5.8V42.3c0-2.4,1.2-4.6,3.3-5.8
		c2.1-1.2,4.6-1.2,6.7,0l13.3,7.7c2.1,1.2,3.3,3.4,3.3,5.8S64.6,54.6,62.5,55.8z"/>
</g>
</svg>
