<?xml version="1.0" encoding="UTF-8" standalone="no"?>
<svg
   xmlns:dc="http://purl.org/dc/elements/1.1/"
   xmlns:cc="http://creativecommons.org/ns#"
   xmlns:rdf="http://www.w3.org/1999/02/22-rdf-syntax-ns#"
   xmlns:svg="http://www.w3.org/2000/svg"
   xmlns="http://www.w3.org/2000/svg"
   id="svg125"
   version="1.1"
   viewBox="986.212 276.086 114.405 82.392"
   class="Path_237">
  <metadata
     id="metadata131">
    <rdf:RDF>
      <cc:Work
         rdf:about="">
        <dc:format>image/svg+xml</dc:format>
        <dc:type
           rdf:resource="http://purl.org/dc/dcmitype/StillImage" />
        <dc:title></dc:title>
      </cc:Work>
    </rdf:RDF>
  </metadata>
  <defs
     id="defs129" />
  <path
     d="M 1043.413940429688 358.4779968261719 C 1039.947021484375 358.4779968261719 1009.291015625 358.4119873046875 1000.726989746094 356.1170043945312 C 994.7969970703125 354.5220031738281 990.166015625 349.8900146484375 988.572021484375 343.9599914550781 C 986.2379760742188 335.2520141601562 986.2119750976562 318.010986328125 986.2119750976562 317.2820129394531 C 986.2119750976562 316.5530090332031 986.2379760742188 299.31201171875 988.572998046875 290.6010131835938 C 990.1680297851562 284.6719970703125 994.7999877929688 280.0400085449219 1000.72900390625 278.4460144042969 C 1009.291015625 276.1520080566406 1039.947021484375 276.0859985351562 1043.413940429688 276.0859985351562 C 1046.880981445312 276.0859985351562 1077.537963867188 276.1520080566406 1086.10205078125 278.4469909667969 C 1092.031005859375 280.0419921875 1096.661987304688 284.6740112304688 1098.256958007812 290.6029968261719 C 1100.589965820312 299.3150024414062 1100.616943359375 316.552001953125 1100.616943359375 317.2820129394531 C 1100.616943359375 318.0119934082031 1100.589965820312 335.2520141601562 1098.255981445312 343.9630126953125 C 1096.660034179688 349.8919982910156 1092.027954101562 354.5230102539062 1086.098999023438 356.1180114746094 C 1077.534057617188 358.4119873046875 1046.880981445312 358.4779968261719 1043.413940429688 358.4779968261719 Z M 1043.413940429688 283.7780151367188 C 1034.27294921875 283.7780151367188 1009.140991210938 284.156005859375 1002.713989257812 285.8779907226562 C 999.4390258789062 286.7579956054688 996.8809814453125 289.3150024414062 996 292.5899963378906 C 993.927001953125 300.3259887695312 993.9000244140625 317.114013671875 993.9000244140625 317.2829895019531 C 993.9000244140625 317.4519958496094 993.927001953125 334.239013671875 996 341.9729919433594 C 996.8800048828125 345.2479858398438 999.43798828125 347.8059997558594 1002.713012695312 348.68701171875 C 1009.140991210938 350.4089965820312 1034.27099609375 350.7869873046875 1043.412963867188 350.7869873046875 C 1052.555053710938 350.7869873046875 1077.68603515625 350.4089965820312 1084.113037109375 348.68701171875 C 1087.387939453125 347.8059997558594 1089.946044921875 345.2489929199219 1090.827026367188 341.9739990234375 C 1092.900024414062 334.2380065917969 1092.927001953125 317.4509887695312 1092.927001953125 317.2820129394531 C 1092.927001953125 317.1130065917969 1092.900024414062 300.3259887695312 1090.827026367188 292.5920104980469 L 1090.827026367188 292.5920104980469 C 1089.946044921875 289.3179931640625 1087.389038085938 286.760009765625 1084.114990234375 285.8800048828125 C 1077.68701171875 284.156005859375 1052.556030273438 283.7789916992188 1043.413940429688 283.7789916992188 L 1043.413940429688 283.7780151367188 Z M 1032.743041992188 337.135986328125 C 1030.619018554688 337.135986328125 1028.89697265625 335.4140014648438 1028.89697265625 333.2900085449219 L 1028.89697265625 301.2749938964844 C 1028.89599609375 299.1510009765625 1030.618041992188 297.4280090332031 1032.741943359375 297.4280090332031 C 1033.41796875 297.4280090332031 1034.08203125 297.6059875488281 1034.6669921875 297.9440002441406 L 1062.390991210938 313.9519958496094 C 1064.22998046875 315.0140075683594 1064.860961914062 317.3659973144531 1063.798950195312 319.2049865722656 C 1063.462036132812 319.7900085449219 1062.975952148438 320.2760009765625 1062.390991210938 320.614013671875 L 1034.666015625 336.6199951171875 C 1034.0810546875 336.9580078125 1033.41796875 337.135986328125 1032.743041992188 337.135986328125 Z M 1036.588989257812 307.9360046386719 L 1036.588989257812 326.6260070800781 L 1052.774047851562 317.281005859375 L 1036.588989257812 307.9360046386719 Z"
     id="Path_237" />
</svg>
