<?xml version="1.0" encoding="UTF-8" standalone="no"?>
<svg
   xmlns:dc="http://purl.org/dc/elements/1.1/"
   xmlns:cc="http://creativecommons.org/ns#"
   xmlns:rdf="http://www.w3.org/1999/02/22-rdf-syntax-ns#"
   xmlns:svg="http://www.w3.org/2000/svg"
   xmlns="http://www.w3.org/2000/svg"
   height="97.195"
   width="284"
   id="svg52"
   version="1.1"
   viewBox="761.455 42.193 284 97.195"
   class="Path_241">
  <metadata
     id="metadata58">
    <rdf:RDF>
      <cc:Work
         rdf:about="">
        <dc:format>image/svg+xml</dc:format>
        <dc:type
           rdf:resource="http://purl.org/dc/dcmitype/StillImage" />
        <dc:title></dc:title>
      </cc:Work>
    </rdf:RDF>
  </metadata>
  <defs
     id="defs56" />
  <path
     d="m 776.20843,67.067887 h -8.46906 v -18.042 h -6.19195 v -7.153 h 20.854 v 7.153 h -6.19299 z"
     id="Path_241" />
  <path
     d="m 800.37139,57.494887 h -6.89996 v 9.573 h -8.47003 v -25.195 h 8.43402 v 8.541 h 6.89996 v -8.541 h 8.50501 v 25.195 h -8.469 z"
     id="Path_242" />
  <path
     d="m 813.53942,41.872887 h 17.32996 v 7.046 h -9.35999 v 2.171 h 8.78998 v 6.583 h -8.78998 v 2.349 h 9.96399 v 7.046 h -17.93396 z"
     id="Path_243" />
  <path
     d="m 773.04241,87.545885 0.59998,21.989995 H 761.44238 V 70.613887 h 17.11602 l 7.04499,20.944998 h 0.27502 l 6.10901,-20.944998 h 17.66797 v 38.921993 h -12.75397 l 0.38495,-21.879995 -0.32996,-0.055 -7.25702,21.934995 h -9.23602 L 773.3164,87.545885 Z"
     id="Path_244" />
  <path
     d="m 858.3634,89.855885 c 0.037,2.923 -0.52399,5.822995 -1.64899,8.520995 -1.04401,2.485 -2.59802,4.723 -4.56201,6.569 -1.98999,1.843 -4.32599,3.273 -6.87201,4.206 -5.54596,1.979 -11.60602,1.979 -17.15198,0 -2.54101,-0.929 -4.86798,-2.36 -6.84503,-4.206 -1.95099,-1.852 -3.495,-4.089 -4.53497,-6.569 -1.12598,-2.698 -1.68702,-5.597995 -1.64899,-8.520995 -0.044,-2.897 0.518,-5.771 1.64899,-8.439 1.044,-2.429 2.58899,-4.61 4.53497,-6.4 1.98901,-1.797 4.31604,-3.178998 6.84503,-4.067998 5.55798,-1.905 11.59302,-1.905 17.15198,0 2.53503,0.892 4.86999,2.273998 6.87201,4.067998 1.95898,1.784 3.51501,3.966 4.56299,6.4 1.13,2.668 1.69104,5.542 1.64801,8.439 z"
     id="Path_245" />
  <path
     d="m 863.86041,70.613887 h 16.768 c 1.91101,10e-4 3.81702,0.194 5.69,0.577 1.79999,0.35 3.51599,1.04 5.05799,2.033998 1.49902,0.988 2.73401,2.327 3.59997,3.9 0.97602,1.892 1.44904,4.003 1.37403,6.13 0.13299,4.573 -2.573,8.752 -6.80103,10.499995 l 9.87701,15.778 h -15.02996 l -7.456,-13.909 h -0.38403 v 13.909 h -12.70001 z m 12.58898,16.436998 h 2.56403 c 0.48297,-0.003 0.966,-0.04 1.44501,-0.11 0.51397,-0.069 1.013,-0.227 1.47296,-0.467 0.453,-0.237 0.84503,-0.576 1.146,-0.99 0.33099,-0.494 0.49304,-1.083 0.46398,-1.677 0.0291,-0.574 -0.10296,-1.146 -0.38195,-1.649 -0.237,-0.387 -0.57703,-0.701 -0.98102,-0.907 -0.41101,-0.204 -0.85401,-0.335 -1.31,-0.385 -0.435,-0.052 -0.87201,-0.08 -1.30902,-0.082 h -3.10999 z"
     id="Path_246" />
  <path
     d="m 903.11138,70.613887 h 13.02899 l 11.10505,19.735998 h 0.21899 l -0.54999,-19.735998 h 12.42597 V 109.53588 H 925.97942 L 915.20538,90.953885 h -0.21997 l 0.54998,18.581995 h -12.42401 z"
     id="Path_247" />
  <path
     d="m 946.59643,70.613887 h 13.19299 v 38.921993 h -13.19299 z"
     id="Path_248" />
  <path
     d="m 967.04742,70.613887 h 13.02899 l 11.10498,19.735998 h 0.21899 l -0.55096,-19.735998 h 12.42598 V 109.53588 H 989.91637 L 979.14141,90.953885 h -0.22101 l 0.55103,18.581995 h -12.42401 z"
     id="Path_249" />
  <path
     d="m 1030.3204,110.52688 c -2.911,0.028 -5.804,-0.456 -8.548,-1.429 -2.524,-0.895 -4.841,-2.29 -6.814,-4.1 -1.948,-1.811 -3.493,-4.012 -4.535,-6.459 -2.201,-5.429 -2.201,-11.501995 0,-16.931995 1.043,-2.447 2.576,-4.655 4.505,-6.487 1.938,-1.816 4.218,-3.226998 6.707,-4.150998 2.638,-0.984 5.432,-1.477 8.247,-1.457 2.95,-0.016 5.881,0.487 8.658,1.484 2.499,0.847 4.78,2.235998 6.6801,4.067998 l -7.6391,9.181 c -0.7941,-0.941 -1.767,-1.716 -2.8609,-2.281 -1.2691,-0.605 -2.6631,-0.897 -4.068,-0.852 -1.0671,0.001 -2.1231,0.216 -3.1051,0.632 -1.002,0.419 -1.91,1.036 -2.668,1.814 -0.79,0.821 -1.423,1.781 -1.867,2.831 -0.49,1.165 -0.733,2.419 -0.715,3.683 -0.106,2.39 0.645,4.740005 2.117,6.624995 1.4101,1.705 3.673,2.557 6.789,2.556 0.572,-0.001 1.141,-0.047 1.705,-0.137 0.4779,-0.057 0.943,-0.197 1.373,-0.412 v -2.969 h -6.266 V 85.457885 h 17.8611 v 21.274995 c -1.0081,0.594 -2.0651,1.1 -3.1601,1.512 -1.239,0.474 -2.5071,0.868 -3.795,1.182 -1.387,0.34 -2.791,0.607 -4.205,0.8 -1.457,0.2 -2.925,0.3 -4.396,0.3 z"
     id="Path_250" />
  <path
     d="m 850.84441,126.11689 c -0.027,-1.881 0.336,-3.747 1.068,-5.48 0.67499,-1.584 1.66699,-3.014 2.91699,-4.2 1.258,-1.178 2.74103,-2.091 4.35901,-2.687 1.71301,-0.635 3.52801,-0.955 5.35602,-0.943 1.87896,-0.011 3.74597,0.309 5.51495,0.943 1.60199,0.552 3.07703,1.417 4.341,2.544 l -5.20001,6.264 c -0.46496,-0.61 -1.07696,-1.094 -1.77899,-1.406 -0.75098,-0.328 -1.56397,-0.492 -2.38397,-0.48 -0.68201,-0.005 -1.35901,0.122 -1.99298,0.374 -0.60901,0.244 -1.16101,0.614 -1.61902,1.085 -0.47504,0.495 -0.84503,1.083 -1.08502,1.726 -0.26899,0.722 -0.40101,1.488 -0.391,2.259 -0.013,0.762 0.12598,1.518 0.409,2.225 0.25598,0.628 0.63001,1.20201 1.10004,1.69 0.45794,0.472 1.00995,0.84199 1.61999,1.086 0.62195,0.25 1.28699,0.377 1.95697,0.373 0.875,0.026 1.74103,-0.181 2.50904,-0.59999 0.64398,-0.35501 1.20697,-0.83901 1.65496,-1.42301 l 5.19904,6.228 c -1.20203,1.181 -2.63104,2.106 -4.19904,2.722 -3.54797,1.33301 -7.45501,1.352 -11.01501,0.053 -1.61896,-0.60798 -3.10095,-1.53299 -4.35901,-2.722 -1.24396,-1.18998 -2.23596,-2.61799 -2.91699,-4.19999 -0.729,-1.71601 -1.09198,-3.566 -1.06397,-5.431 z"
     id="Path_251" />
  <path
     d="m 875.18639,125.97489 c -0.028,-1.875 0.33503,-3.735 1.068,-5.462 0.67499,-1.574 1.67499,-2.986 2.93603,-4.146 1.28699,-1.164 2.79297,-2.059 4.43097,-2.634 3.59699,-1.232 7.50202,-1.232 11.10004,0 1.64099,0.578 3.15198,1.473 4.448,2.634 1.26898,1.155 2.276,2.569 2.95398,4.146 0.73101,1.727 1.09399,3.587 1.06701,5.462 0.024,1.892 -0.33905,3.77 -1.06701,5.516 -0.67603,1.609 -1.68299,3.058 -2.95398,4.253 -1.28803,1.193 -2.80005,2.11801 -4.448,2.722 -3.59003,1.27999 -7.51105,1.27999 -11.10004,0 -1.64502,-0.601 -3.15198,-1.527 -4.43097,-2.722 -1.263,-1.19899 -2.263,-2.64699 -2.93603,-4.253 -0.72901,-1.746 -1.09302,-3.624 -1.068,-5.516 z m 9,0 c -0.01,0.776 0.11701,1.547 0.37403,2.278 0.22796,0.653 0.57696,1.257 1.031,1.77901 0.43598,0.49699 0.97699,0.89199 1.58399,1.15699 0.62799,0.275 1.307,0.415 1.99298,0.409 1.35602,0.016 2.65399,-0.55499 3.55902,-1.56599 0.46197,-0.51902 0.81897,-1.12301 1.04999,-1.77901 0.255,-0.732 0.38202,-1.503 0.37298,-2.278 0.008,-0.757 -0.11895,-1.51 -0.37298,-2.224 -0.22602,-0.637 -0.58399,-1.219 -1.04999,-1.708 -0.93402,-0.959 -2.22101,-1.493 -3.55902,-1.477 -0.68396,-0.005 -1.362,0.128 -1.99298,0.392 -0.59802,0.247 -1.138,0.617 -1.58399,1.085 -0.458,0.493 -0.80804,1.074 -1.031,1.708 -0.25501,0.714 -0.38001,1.467 -0.37,2.224 z"
     id="Path_252" />
  <path
     d="m 914.25738,124.47989 0.39404,14.235 h -7.90002 v -25.195 h 11.07898 l 4.56103,13.559 h 0.17902 l 3.95495,-13.559 h 11.435 v 25.19999 h -8.25397 l 0.24799,-14.16399 -0.21399,-0.035 -4.70001,14.2 h -5.97803 l -4.62695,-14.235 z"
     id="Path_253" />
  <path
     d="m 951.05639,130.60189 v 8.114 h -8.43097 v -25.196 h 10.81799 c 1.26801,-0.001 2.53296,0.137 3.77198,0.41 1.17999,0.251 2.30304,0.722 3.30902,1.388 0.98199,0.663 1.789,1.555 2.349,2.6 1.18097,2.556 1.18798,5.5 0.019,8.061 -0.552,1.058 -1.344,1.972 -2.31299,2.669 -0.99701,0.705 -2.12097,1.213 -3.30902,1.495 -1.25195,0.309 -2.53699,0.464 -3.82599,0.462 z m 0,-10.5 v 4.057 h 1.77801 c 0.62,0.006 1.22998,-0.16 1.76203,-0.48 0.54797,-0.347 0.85699,-0.972 0.79999,-1.619 0.014,-0.339 -0.059,-0.677 -0.21399,-0.979 -0.13904,-0.245 -0.34204,-0.448 -0.58704,-0.586 -0.26001,-0.146 -0.54297,-0.247 -0.836,-0.3 -0.30499,-0.059 -0.61596,-0.089 -0.92596,-0.089 z"
     id="Path_254" />
  <path
     d="m 971.83837,113.51989 h 9 l 9.82202,25.19999 h -9.21698 l -1.31604,-3.69999 h -8.00799 l -1.24396,3.69999 h -8.96899 z m 4.37702,8.79 -2.06397,6.228 h 4.09198 z"
     id="Path_255" />
  <path
     d="m 992.4414,113.51989 h 8.436 l 7.188,12.776 h 0.143 l -0.355,-12.776 h 8.043 v 25.19999 h -8.648 l -6.975,-12.02799 h -0.143 l 0.355,12.02799 h -8.04302 z"
     id="Path_256" />
  <path
     d="m 1035.3574,138.71988 h -8.469 v -10.31999 l -9.5,-14.875 h 10.213 l 3.985,7.4 3.809,-7.4 h 9.963 l -10,14.875 z"
     id="Path_257" />
</svg>
