<?xml version="1.0" encoding="utf-8"?>
<!-- Generator: Adobe Illustrator 25.0.1, SVG Export Plug-In . SVG Version: 6.00 Build 0)  -->
<svg version="1.1"
	 id="svg38" xmlns:cc="http://creativecommons.org/ns#" xmlns:dc="http://purl.org/dc/elements/1.1/" xmlns:rdf="http://www.w3.org/1999/02/22-rdf-syntax-ns#" xmlns:svg="http://www.w3.org/2000/svg"
	 xmlns="http://www.w3.org/2000/svg" xmlns:xlink="http://www.w3.org/1999/xlink" x="0px" y="0px" viewBox="0 0 1404.2 427.3"
	 style="enable-background:new 0 0 1404.2 427.3;" xml:space="preserve">
<style type="text/css">
	.st0{enable-background:new    ;}
</style>
<g class="st0">
	<path d="M144.8,97.8c0,2.5-0.4,4.9-1.2,7.2c-0.8,2.3-1.9,4.3-3.4,6.1c-1.5,1.8-3.3,3.2-5.4,4.2c-2.1,1.1-4.5,1.6-7.2,1.6
		c-2.2,0-4.3-0.4-6.3-1.3c-2-0.9-3.5-2.1-4.6-3.6h-0.1v21.3h-11.8V80h11.2v4.4h0.2c1.1-1.4,2.6-2.7,4.6-3.8s4.2-1.6,6.9-1.6
		c2.6,0,4.9,0.5,7.1,1.5c2.1,1,3.9,2.4,5.4,4.1c1.5,1.7,2.6,3.7,3.4,6C144.4,92.9,144.8,95.3,144.8,97.8z M133.3,97.8
		c0-1.2-0.2-2.3-0.5-3.4c-0.4-1.1-0.9-2.1-1.6-2.9c-0.7-0.8-1.6-1.5-2.6-2.1c-1.1-0.5-2.3-0.8-3.7-0.8c-1.3,0-2.5,0.3-3.6,0.8
		c-1.1,0.5-2,1.2-2.7,2.1c-0.7,0.9-1.3,1.9-1.7,3c-0.4,1.1-0.6,2.2-0.6,3.4c0,1.2,0.2,2.3,0.6,3.4c0.4,1.1,1,2.1,1.7,3
		c0.7,0.9,1.6,1.6,2.7,2.1c1.1,0.5,2.3,0.8,3.6,0.8c1.4,0,2.6-0.3,3.7-0.8c1.1-0.5,1.9-1.2,2.6-2.1c0.7-0.9,1.2-1.9,1.6-3
		C133.1,100.1,133.3,99,133.3,97.8z"/>
	<path d="M175.5,89.8c-0.5-0.1-1-0.2-1.5-0.3c-0.5,0-1-0.1-1.5-0.1c-1.6,0-2.9,0.3-4,0.9c-1.1,0.6-1.9,1.3-2.6,2.1
		c-0.6,0.8-1.1,1.7-1.4,2.7c-0.3,1-0.4,1.8-0.4,2.5v18.4h-11.8V80.1h11.4v5.2h0.1c0.9-1.8,2.2-3.3,3.9-4.5c1.7-1.2,3.6-1.7,5.8-1.7
		c0.5,0,0.9,0,1.4,0.1c0.5,0,0.8,0.1,1.1,0.2L175.5,89.8z"/>
	<path d="M215,98.4c0,0.5,0,1,0,1.4c0,0.5,0,0.9-0.1,1.4h-26c0.1,1,0.4,1.9,0.9,2.7c0.5,0.8,1.2,1.5,1.9,2.1
		c0.8,0.6,1.7,1.1,2.7,1.4c1,0.3,2,0.5,3.1,0.5c1.9,0,3.5-0.3,4.8-1c1.3-0.7,2.4-1.6,3.2-2.7l8.2,5.2c-1.7,2.5-3.9,4.3-6.7,5.7
		c-2.8,1.3-6,2-9.6,2c-2.7,0-5.2-0.4-7.6-1.3c-2.4-0.8-4.5-2.1-6.3-3.7c-1.8-1.6-3.2-3.6-4.3-5.9c-1-2.4-1.5-5-1.5-8.1
		c0-2.9,0.5-5.6,1.5-8c1-2.4,2.4-4.4,4.1-6.1c1.7-1.7,3.8-2.9,6.1-3.9c2.4-0.9,4.9-1.4,7.6-1.4c2.6,0,5.1,0.4,7.3,1.3
		c2.2,0.9,4.1,2.2,5.7,3.9c1.6,1.7,2.8,3.7,3.7,6.1C214.6,92.6,215,95.3,215,98.4z M204.2,93.9c0-1.9-0.6-3.5-1.8-4.8
		c-1.2-1.3-2.9-2-5.3-2c-1.2,0-2.2,0.2-3.2,0.5c-1,0.4-1.8,0.9-2.5,1.5c-0.7,0.6-1.3,1.4-1.7,2.2c-0.4,0.8-0.7,1.7-0.7,2.6H204.2z"
		/>
	<path d="M247.2,91.6c-0.7-0.9-1.6-1.6-2.7-2.1c-1.2-0.5-2.3-0.8-3.5-0.8c-1.2,0-2.4,0.3-3.4,0.8c-1,0.5-1.9,1.2-2.6,2
		c-0.7,0.8-1.3,1.8-1.7,2.9c-0.4,1.1-0.6,2.3-0.6,3.5c0,1.2,0.2,2.4,0.6,3.5c0.4,1.1,0.9,2.1,1.7,2.9c0.7,0.8,1.6,1.5,2.7,2
		c1,0.5,2.2,0.7,3.5,0.7c1.2,0,2.4-0.2,3.6-0.7c1.2-0.5,2.1-1.1,2.8-2l6.6,8c-1.5,1.4-3.4,2.6-5.8,3.4c-2.4,0.8-4.9,1.2-7.5,1.2
		c-2.8,0-5.5-0.4-7.9-1.3s-4.6-2.1-6.4-3.8c-1.8-1.7-3.2-3.7-4.3-6c-1-2.4-1.6-5-1.6-8c0-2.9,0.5-5.6,1.6-7.9c1-2.4,2.5-4.4,4.3-6
		c1.8-1.7,3.9-2.9,6.4-3.8c2.5-0.9,5.1-1.3,7.9-1.3c1.3,0,2.6,0.1,3.9,0.4c1.3,0.2,2.5,0.6,3.7,1c1.2,0.4,2.3,0.9,3.2,1.5
		c1,0.6,1.8,1.3,2.6,2L247.2,91.6z"/>
	<path d="M271.5,68.6c0,0.9-0.2,1.8-0.5,2.6c-0.4,0.8-0.8,1.5-1.4,2.1c-0.6,0.6-1.3,1-2.2,1.4c-0.8,0.3-1.7,0.5-2.6,0.5
		c-1.9,0-3.5-0.6-4.8-1.9c-1.3-1.3-1.9-2.8-1.9-4.6c0-0.9,0.2-1.7,0.5-2.5c0.3-0.8,0.8-1.5,1.4-2.1c0.6-0.6,1.3-1,2.2-1.4
		c0.8-0.4,1.7-0.5,2.7-0.5c0.9,0,1.8,0.2,2.6,0.5c0.8,0.3,1.6,0.8,2.2,1.4c0.6,0.6,1.1,1.3,1.4,2.1
		C271.3,66.8,271.5,67.7,271.5,68.6z M258.8,115.9V80h11.8v35.9H258.8z"/>
	<path d="M301.1,90.6c-1-0.9-2.1-1.7-3.4-2.3c-1.3-0.6-2.7-0.9-4.1-0.9c-1.1,0-2.1,0.2-3.1,0.6c-0.9,0.4-1.4,1.2-1.4,2.2
		c0,1,0.5,1.7,1.5,2.2c1,0.4,2.7,0.9,5,1.4c1.3,0.3,2.7,0.7,4.1,1.2c1.4,0.5,2.6,1.2,3.7,2.1c1.1,0.9,2,1.9,2.7,3.2
		c0.7,1.2,1,2.7,1,4.5c0,2.3-0.5,4.2-1.4,5.7c-0.9,1.6-2.1,2.8-3.6,3.8c-1.5,1-3.1,1.7-4.9,2.1c-1.8,0.4-3.7,0.6-5.5,0.6
		c-2.9,0-5.8-0.5-8.6-1.4c-2.8-0.9-5.2-2.3-7-4.1l6.6-7c1.1,1.2,2.4,2.1,3.9,2.9c1.5,0.8,3.2,1.2,4.9,1.2c1,0,1.9-0.2,2.8-0.7
		c0.9-0.5,1.4-1.3,1.4-2.4c0-1.1-0.6-1.9-1.7-2.5c-1.2-0.5-3-1.1-5.4-1.7c-1.2-0.3-2.5-0.7-3.7-1.2c-1.2-0.5-2.4-1.1-3.4-1.9
		c-1-0.8-1.8-1.8-2.4-3c-0.6-1.2-0.9-2.6-0.9-4.3c0-2.2,0.5-4,1.4-5.5c0.9-1.5,2.1-2.8,3.5-3.7c1.4-1,3-1.7,4.8-2.1
		c1.8-0.5,3.5-0.7,5.2-0.7c2.7,0,5.3,0.4,7.9,1.3c2.6,0.8,4.7,2.1,6.5,3.8L301.1,90.6z"/>
	<path d="M326.8,68.6c0,0.9-0.2,1.8-0.5,2.6c-0.4,0.8-0.8,1.5-1.4,2.1c-0.6,0.6-1.3,1-2.2,1.4c-0.8,0.3-1.7,0.5-2.6,0.5
		c-1.9,0-3.5-0.6-4.8-1.9c-1.3-1.3-1.9-2.8-1.9-4.6c0-0.9,0.2-1.7,0.5-2.5c0.3-0.8,0.8-1.5,1.4-2.1c0.6-0.6,1.3-1,2.2-1.4
		c0.8-0.4,1.7-0.5,2.7-0.5c0.9,0,1.8,0.2,2.6,0.5c0.8,0.3,1.6,0.8,2.2,1.4c0.6,0.6,1.1,1.3,1.4,2.1
		C326.6,66.8,326.8,67.7,326.8,68.6z M314.1,115.9V80H326v35.9H314.1z"/>
	<path d="M373.4,97.8c0,2.9-0.5,5.6-1.6,8c-1.1,2.4-2.5,4.4-4.3,6.1c-1.8,1.7-3.9,2.9-6.3,3.9c-2.4,0.9-5,1.4-7.7,1.4
		c-2.7,0-5.2-0.5-7.7-1.4c-2.4-0.9-4.5-2.2-6.3-3.9s-3.2-3.7-4.3-6.1c-1.1-2.4-1.6-5-1.6-8c0-2.9,0.5-5.6,1.6-7.9
		c1.1-2.4,2.5-4.3,4.3-6c1.8-1.6,3.9-2.9,6.3-3.7c2.4-0.9,5-1.3,7.7-1.3c2.7,0,5.3,0.4,7.7,1.3c2.4,0.9,4.5,2.1,6.3,3.7
		c1.8,1.6,3.3,3.6,4.3,6C372.8,92.3,373.4,94.9,373.4,97.8z M362,97.8c0-1.2-0.2-2.3-0.6-3.4c-0.4-1.1-0.9-2.1-1.7-2.9
		c-0.7-0.8-1.6-1.5-2.7-2.1c-1.1-0.5-2.3-0.8-3.7-0.8c-1.4,0-2.6,0.3-3.7,0.8c-1.1,0.5-1.9,1.2-2.6,2.1c-0.7,0.8-1.2,1.8-1.6,2.9
		c-0.4,1.1-0.5,2.2-0.5,3.4c0,1.2,0.2,2.3,0.5,3.4c0.4,1.1,0.9,2.1,1.6,3c0.7,0.9,1.6,1.6,2.7,2.1c1.1,0.5,2.3,0.8,3.7,0.8
		c1.4,0,2.6-0.3,3.7-0.8c1.1-0.5,1.9-1.2,2.7-2.1c0.7-0.9,1.3-1.9,1.6-3C361.8,100.1,362,99,362,97.8z"/>
	<path d="M404.4,115.9V96.3c0-1-0.1-2-0.3-2.9c-0.2-0.9-0.4-1.7-0.8-2.4c-0.4-0.7-0.9-1.2-1.6-1.7c-0.7-0.4-1.6-0.6-2.6-0.6
		c-1.1,0-2,0.2-2.8,0.6c-0.8,0.4-1.5,1-2,1.7c-0.5,0.7-0.9,1.5-1.2,2.5c-0.3,0.9-0.4,1.9-0.4,2.9v19.5h-11.9V80h11.5v5h0.1
		c0.4-0.8,1-1.5,1.7-2.3c0.7-0.7,1.5-1.4,2.5-1.9c0.9-0.5,2-1,3.1-1.3c1.1-0.3,2.3-0.5,3.5-0.5c2.4,0,4.4,0.4,6.1,1.3
		c1.7,0.9,3,2,4.1,3.4c1,1.4,1.8,2.9,2.2,4.7c0.5,1.8,0.7,3.6,0.7,5.3v22.2H404.4z"/>
	<path d="M470.5,115.9v-4.7h-0.1c-1.2,1.8-2.8,3.2-4.9,4.2c-2.1,1-4.4,1.5-6.8,1.5c-2.7,0-5.1-0.5-7.2-1.6c-2.1-1.1-3.9-2.5-5.4-4.2
		c-1.5-1.8-2.6-3.8-3.4-6.1c-0.8-2.3-1.2-4.7-1.2-7.2c0-2.5,0.4-4.9,1.2-7.2c0.8-2.3,1.9-4.3,3.4-6c1.5-1.7,3.2-3.1,5.3-4.1
		c2.1-1,4.4-1.5,7-1.5c2.6,0,4.9,0.5,6.7,1.5c1.8,1,3.2,2.1,4.3,3.3h0.1V61.4h11.8v54.5H470.5z M470,97.9c0-1.2-0.2-2.3-0.6-3.4
		c-0.4-1.1-1-2.1-1.7-3c-0.7-0.9-1.6-1.6-2.7-2.1c-1.1-0.5-2.3-0.8-3.6-0.8c-1.4,0-2.6,0.3-3.7,0.8c-1.1,0.5-1.9,1.2-2.7,2.1
		c-0.7,0.8-1.3,1.8-1.6,2.9c-0.4,1.1-0.5,2.2-0.5,3.4c0,1.2,0.2,2.3,0.5,3.4c0.4,1.1,0.9,2.1,1.6,3c0.7,0.9,1.6,1.6,2.7,2.1
		c1.1,0.5,2.3,0.8,3.7,0.8c1.3,0,2.5-0.3,3.6-0.8c1.1-0.5,2-1.2,2.7-2.1c0.7-0.9,1.3-1.8,1.7-3C469.8,100.2,470,99.1,470,97.9z"/>
	<path d="M526.3,98.4c0,0.5,0,1,0,1.4c0,0.5,0,0.9-0.1,1.4h-26c0.1,1,0.4,1.9,0.9,2.7c0.5,0.8,1.2,1.5,1.9,2.1
		c0.8,0.6,1.7,1.1,2.7,1.4c1,0.3,2,0.5,3.1,0.5c1.9,0,3.5-0.3,4.8-1c1.3-0.7,2.4-1.6,3.2-2.7l8.2,5.2c-1.7,2.5-3.9,4.3-6.7,5.7
		c-2.8,1.3-6,2-9.6,2c-2.7,0-5.2-0.4-7.6-1.3c-2.4-0.8-4.5-2.1-6.3-3.7c-1.8-1.6-3.2-3.6-4.3-5.9c-1-2.4-1.5-5-1.5-8.1
		c0-2.9,0.5-5.6,1.5-8c1-2.4,2.4-4.4,4.1-6.1c1.7-1.7,3.8-2.9,6.1-3.9c2.4-0.9,4.9-1.4,7.6-1.4c2.6,0,5.1,0.4,7.3,1.3
		c2.2,0.9,4.1,2.2,5.7,3.9c1.6,1.7,2.8,3.7,3.7,6.1C525.9,92.6,526.3,95.3,526.3,98.4z M515.4,93.9c0-1.9-0.6-3.5-1.8-4.8
		c-1.2-1.3-2.9-2-5.3-2c-1.2,0-2.2,0.2-3.2,0.5c-1,0.4-1.8,0.9-2.5,1.5c-0.7,0.6-1.3,1.4-1.7,2.2c-0.4,0.8-0.7,1.7-0.7,2.6H515.4z"
		/>
	<path d="M554.8,90.6c-1-0.9-2.1-1.7-3.4-2.3c-1.3-0.6-2.7-0.9-4.1-0.9c-1.1,0-2.1,0.2-3.1,0.6c-0.9,0.4-1.4,1.2-1.4,2.2
		c0,1,0.5,1.7,1.5,2.2c1,0.4,2.7,0.9,5,1.4c1.3,0.3,2.7,0.7,4.1,1.2c1.4,0.5,2.6,1.2,3.7,2.1c1.1,0.9,2,1.9,2.7,3.2
		c0.7,1.2,1,2.7,1,4.5c0,2.3-0.5,4.2-1.4,5.7c-0.9,1.6-2.1,2.8-3.6,3.8c-1.5,1-3.1,1.7-4.9,2.1c-1.8,0.4-3.7,0.6-5.5,0.6
		c-2.9,0-5.8-0.5-8.6-1.4c-2.8-0.9-5.2-2.3-7-4.1l6.6-7c1.1,1.2,2.4,2.1,3.9,2.9c1.5,0.8,3.2,1.2,4.9,1.2c1,0,1.9-0.2,2.8-0.7
		c0.9-0.5,1.4-1.3,1.4-2.4c0-1.1-0.6-1.9-1.7-2.5c-1.2-0.5-3-1.1-5.4-1.7c-1.2-0.3-2.5-0.7-3.7-1.2c-1.2-0.5-2.4-1.1-3.4-1.9
		c-1-0.8-1.8-1.8-2.4-3c-0.6-1.2-0.9-2.6-0.9-4.3c0-2.2,0.5-4,1.4-5.5c0.9-1.5,2.1-2.8,3.5-3.7c1.4-1,3-1.7,4.8-2.1
		c1.8-0.5,3.5-0.7,5.2-0.7c2.7,0,5.3,0.4,7.9,1.3c2.6,0.8,4.7,2.1,6.5,3.8L554.8,90.6z"/>
	<path d="M580.5,68.6c0,0.9-0.2,1.8-0.5,2.6c-0.4,0.8-0.8,1.5-1.4,2.1c-0.6,0.6-1.3,1-2.2,1.4c-0.8,0.3-1.7,0.5-2.6,0.5
		c-1.9,0-3.5-0.6-4.8-1.9c-1.3-1.3-1.9-2.8-1.9-4.6c0-0.9,0.2-1.7,0.5-2.5c0.3-0.8,0.8-1.5,1.4-2.1c0.6-0.6,1.3-1,2.2-1.4
		c0.8-0.4,1.7-0.5,2.7-0.5c0.9,0,1.8,0.2,2.6,0.5c0.8,0.3,1.6,0.8,2.2,1.4c0.6,0.6,1.1,1.3,1.4,2.1
		C580.3,66.8,580.5,67.7,580.5,68.6z M567.8,115.9V80h11.8v35.9H567.8z"/>
	<path d="M627.1,112.5c0,3.5-0.5,6.6-1.5,9.2c-1,2.6-2.4,4.7-4.3,6.4c-1.8,1.7-4,3-6.7,3.8c-2.6,0.8-5.5,1.3-8.7,1.3
		s-6.4-0.5-9.8-1.4c-3.3-1-6.2-2.4-8.7-4.2l5.9-8.4c1.7,1.5,3.6,2.7,5.7,3.4c2.1,0.7,4.1,1.1,6.2,1.1c3.5,0,6-0.9,7.7-2.7
		c1.7-1.8,2.5-4.3,2.5-7.3v-2.2h-0.2c-1.1,1.4-2.6,2.6-4.5,3.5c-1.9,0.9-4,1.3-6.4,1.3c-2.7,0-5.2-0.5-7.3-1.5c-2.1-1-3.9-2.3-5.4-4
		c-1.5-1.7-2.6-3.6-3.4-5.9c-0.8-2.2-1.2-4.6-1.2-7.1c0-2.5,0.4-4.9,1.2-7.1c0.8-2.3,1.9-4.3,3.4-6c1.5-1.7,3.3-3.1,5.4-4.1
		c2.1-1,4.5-1.5,7.2-1.5c2.3,0,4.4,0.5,6.5,1.4c2.1,0.9,3.7,2.3,5,4.3h0.1V80h11.2V112.5z M615.8,97.8c0-1.2-0.2-2.4-0.6-3.5
		c-0.4-1.1-1-2.1-1.8-2.9c-0.8-0.8-1.7-1.5-2.7-2c-1.1-0.5-2.3-0.7-3.6-0.7c-1.3,0-2.5,0.2-3.6,0.7c-1,0.5-1.9,1.1-2.6,1.9
		c-0.7,0.8-1.3,1.8-1.7,2.9c-0.4,1.1-0.6,2.3-0.6,3.5c0,1.2,0.2,2.4,0.6,3.5c0.4,1.1,0.9,2.1,1.7,2.9c0.7,0.8,1.6,1.5,2.6,2
		c1,0.5,2.2,0.8,3.6,0.8c1.3,0,2.6-0.3,3.6-0.8s2-1.2,2.7-2c0.7-0.8,1.3-1.8,1.7-2.9C615.6,100.2,615.8,99,615.8,97.8z"/>
	<path d="M660,115.9V96.3c0-1-0.1-2-0.3-2.9c-0.2-0.9-0.4-1.7-0.8-2.4c-0.4-0.7-0.9-1.2-1.6-1.7c-0.7-0.4-1.6-0.6-2.6-0.6
		c-1.1,0-2,0.2-2.8,0.6c-0.8,0.4-1.5,1-2,1.7c-0.5,0.7-0.9,1.5-1.2,2.5c-0.3,0.9-0.4,1.9-0.4,2.9v19.5h-11.9V80h11.5v5h0.1
		c0.4-0.8,1-1.5,1.7-2.3c0.7-0.7,1.5-1.4,2.5-1.9c0.9-0.5,2-1,3.1-1.3c1.1-0.3,2.3-0.5,3.5-0.5c2.4,0,4.4,0.4,6.1,1.3
		c1.7,0.9,3,2,4.1,3.4c1,1.4,1.8,2.9,2.2,4.7c0.5,1.8,0.7,3.6,0.7,5.3v22.2H660z"/>
	<path d="M716.4,98.4c0,0.5,0,1,0,1.4c0,0.5,0,0.9-0.1,1.4h-26c0.1,1,0.4,1.9,0.9,2.7c0.5,0.8,1.2,1.5,1.9,2.1
		c0.8,0.6,1.7,1.1,2.7,1.4c1,0.3,2,0.5,3.1,0.5c1.9,0,3.5-0.3,4.8-1c1.3-0.7,2.4-1.6,3.2-2.7l8.2,5.2c-1.7,2.5-3.9,4.3-6.7,5.7
		c-2.8,1.3-6,2-9.6,2c-2.7,0-5.2-0.4-7.6-1.3c-2.4-0.8-4.5-2.1-6.3-3.7c-1.8-1.6-3.2-3.6-4.3-5.9c-1-2.4-1.5-5-1.5-8.1
		c0-2.9,0.5-5.6,1.5-8c1-2.4,2.4-4.4,4.1-6.1c1.7-1.7,3.8-2.9,6.1-3.9c2.4-0.9,4.9-1.4,7.6-1.4c2.6,0,5.1,0.4,7.3,1.3
		c2.2,0.9,4.1,2.2,5.7,3.9c1.6,1.7,2.8,3.7,3.7,6.1C716,92.6,716.4,95.3,716.4,98.4z M705.5,93.9c0-1.9-0.6-3.5-1.8-4.8
		c-1.2-1.3-2.9-2-5.3-2c-1.2,0-2.2,0.2-3.2,0.5c-1,0.4-1.8,0.9-2.5,1.5c-0.7,0.6-1.3,1.4-1.7,2.2c-0.4,0.8-0.7,1.7-0.7,2.6H705.5z"
		/>
	<path d="M750.9,115.9v-4.7h-0.1c-1.2,1.8-2.8,3.2-4.9,4.2c-2.1,1-4.4,1.5-6.8,1.5c-2.7,0-5.1-0.5-7.2-1.6s-3.9-2.5-5.4-4.2
		c-1.5-1.8-2.6-3.8-3.4-6.1c-0.8-2.3-1.2-4.7-1.2-7.2c0-2.5,0.4-4.9,1.2-7.2c0.8-2.3,1.9-4.3,3.4-6c1.5-1.7,3.2-3.1,5.3-4.1
		s4.4-1.5,7-1.5c2.6,0,4.9,0.5,6.7,1.5c1.8,1,3.2,2.1,4.3,3.3h0.1V61.4h11.8v54.5H750.9z M750.5,97.9c0-1.2-0.2-2.3-0.6-3.4
		c-0.4-1.1-1-2.1-1.7-3s-1.6-1.6-2.7-2.1c-1.1-0.5-2.3-0.8-3.6-0.8c-1.4,0-2.6,0.3-3.7,0.8c-1.1,0.5-1.9,1.2-2.7,2.1
		c-0.7,0.8-1.3,1.8-1.6,2.9c-0.4,1.1-0.5,2.2-0.5,3.4c0,1.2,0.2,2.3,0.5,3.4c0.4,1.1,0.9,2.1,1.6,3c0.7,0.9,1.6,1.6,2.7,2.1
		c1.1,0.5,2.3,0.8,3.7,0.8c1.3,0,2.5-0.3,3.6-0.8c1.1-0.5,2-1.2,2.7-2.1c0.7-0.9,1.3-1.8,1.7-3C750.3,100.2,750.5,99.1,750.5,97.9z"
		/>
	<path d="M812.5,89.8c-0.5-0.1-1-0.2-1.5-0.3c-0.5,0-1-0.1-1.5-0.1c-1.6,0-2.9,0.3-4,0.9c-1.1,0.6-1.9,1.3-2.6,2.1
		c-0.6,0.8-1.1,1.7-1.4,2.7c-0.3,1-0.4,1.8-0.4,2.5v18.4h-11.8V80.1h11.4v5.2h0.1c0.9-1.8,2.2-3.3,3.9-4.5c1.7-1.2,3.6-1.7,5.8-1.7
		c0.5,0,0.9,0,1.4,0.1c0.5,0,0.8,0.1,1.1,0.2L812.5,89.8z"/>
	<path d="M852,98.4c0,0.5,0,1,0,1.4c0,0.5,0,0.9-0.1,1.4h-26c0.1,1,0.4,1.9,0.9,2.7c0.5,0.8,1.2,1.5,1.9,2.1
		c0.8,0.6,1.7,1.1,2.7,1.4c1,0.3,2,0.5,3.1,0.5c1.9,0,3.5-0.3,4.8-1c1.3-0.7,2.4-1.6,3.2-2.7l8.2,5.2c-1.7,2.5-3.9,4.3-6.7,5.7
		c-2.8,1.3-6,2-9.6,2c-2.7,0-5.2-0.4-7.6-1.3c-2.4-0.8-4.5-2.1-6.3-3.7c-1.8-1.6-3.2-3.6-4.3-5.9c-1-2.4-1.5-5-1.5-8.1
		c0-2.9,0.5-5.6,1.5-8c1-2.4,2.4-4.4,4.1-6.1s3.8-2.9,6.1-3.9c2.4-0.9,4.9-1.4,7.6-1.4c2.6,0,5.1,0.4,7.3,1.3
		c2.2,0.9,4.1,2.2,5.7,3.9c1.6,1.7,2.8,3.7,3.7,6.1C851.6,92.6,852,95.3,852,98.4z M841.2,93.9c0-1.9-0.6-3.5-1.8-4.8
		c-1.2-1.3-2.9-2-5.3-2c-1.2,0-2.2,0.2-3.2,0.5s-1.8,0.9-2.5,1.5c-0.7,0.6-1.3,1.4-1.7,2.2c-0.4,0.8-0.7,1.7-0.7,2.6H841.2z"/>
	<path d="M880.5,90.6c-1-0.9-2.1-1.7-3.4-2.3c-1.3-0.6-2.7-0.9-4.1-0.9c-1.1,0-2.1,0.2-3.1,0.6c-0.9,0.4-1.4,1.2-1.4,2.2
		c0,1,0.5,1.7,1.5,2.2c1,0.4,2.7,0.9,5,1.4c1.3,0.3,2.7,0.7,4.1,1.2c1.4,0.5,2.6,1.2,3.7,2.1c1.1,0.9,2,1.9,2.7,3.2
		c0.7,1.2,1,2.7,1,4.5c0,2.3-0.5,4.2-1.4,5.7c-0.9,1.6-2.1,2.8-3.6,3.8c-1.5,1-3.1,1.7-4.9,2.1c-1.8,0.4-3.7,0.6-5.5,0.6
		c-2.9,0-5.8-0.5-8.6-1.4c-2.8-0.9-5.2-2.3-7-4.1l6.6-7c1.1,1.2,2.4,2.1,3.9,2.9c1.5,0.8,3.2,1.2,4.9,1.2c1,0,1.9-0.2,2.8-0.7
		c0.9-0.5,1.4-1.3,1.4-2.4c0-1.1-0.6-1.9-1.7-2.5c-1.2-0.5-3-1.1-5.4-1.7c-1.2-0.3-2.5-0.7-3.7-1.2c-1.2-0.5-2.4-1.1-3.4-1.9
		c-1-0.8-1.8-1.8-2.4-3c-0.6-1.2-0.9-2.6-0.9-4.3c0-2.2,0.5-4,1.4-5.5c0.9-1.5,2.1-2.8,3.5-3.7c1.4-1,3-1.7,4.8-2.1
		c1.8-0.5,3.5-0.7,5.2-0.7c2.7,0,5.3,0.4,7.9,1.3c2.6,0.8,4.7,2.1,6.5,3.8L880.5,90.6z"/>
	<path d="M931.5,97.8c0,2.9-0.5,5.6-1.6,8c-1.1,2.4-2.5,4.4-4.3,6.1c-1.8,1.7-3.9,2.9-6.3,3.9c-2.4,0.9-5,1.4-7.7,1.4
		c-2.7,0-5.2-0.5-7.7-1.4c-2.4-0.9-4.5-2.2-6.3-3.9s-3.2-3.7-4.3-6.1c-1.1-2.4-1.6-5-1.6-8c0-2.9,0.5-5.6,1.6-7.9
		c1.1-2.4,2.5-4.3,4.3-6c1.8-1.6,3.9-2.9,6.3-3.7c2.4-0.9,5-1.3,7.7-1.3c2.7,0,5.3,0.4,7.7,1.3c2.4,0.9,4.5,2.1,6.3,3.7
		c1.8,1.6,3.3,3.6,4.3,6C930.9,92.3,931.5,94.9,931.5,97.8z M920.1,97.8c0-1.2-0.2-2.3-0.6-3.4c-0.4-1.1-0.9-2.1-1.7-2.9
		c-0.7-0.8-1.6-1.5-2.7-2.1c-1.1-0.5-2.3-0.8-3.7-0.8s-2.6,0.3-3.7,0.8c-1.1,0.5-1.9,1.2-2.6,2.1c-0.7,0.8-1.2,1.8-1.6,2.9
		c-0.4,1.1-0.5,2.2-0.5,3.4c0,1.2,0.2,2.3,0.5,3.4c0.4,1.1,0.9,2.1,1.6,3c0.7,0.9,1.6,1.6,2.7,2.1c1.1,0.5,2.3,0.8,3.7,0.8
		c1.4,0,2.6-0.3,3.7-0.8c1.1-0.5,1.9-1.2,2.7-2.1c0.7-0.9,1.3-1.9,1.6-3C919.9,100.1,920.1,99,920.1,97.8z"/>
	<path d="M962.6,115.9v-5h-0.1c-0.4,0.8-1,1.6-1.7,2.3c-0.7,0.7-1.5,1.3-2.5,1.9c-0.9,0.5-2,1-3.1,1.3c-1.1,0.3-2.3,0.5-3.6,0.5
		c-2.4,0-4.4-0.4-6.1-1.3c-1.7-0.9-3-2-4-3.4c-1-1.4-1.8-2.9-2.2-4.7c-0.5-1.8-0.7-3.5-0.7-5.4V80h11.9v19.5c0,1,0.1,2,0.2,2.9
		c0.1,0.9,0.4,1.7,0.8,2.5c0.4,0.7,0.9,1.3,1.6,1.7c0.7,0.4,1.6,0.6,2.7,0.6c2.1,0,3.6-0.8,4.7-2.3c1.1-1.5,1.6-3.3,1.6-5.4V80H974
		v35.9H962.6z"/>
	<path d="M1006.5,89.8c-0.5-0.1-1-0.2-1.5-0.3c-0.5,0-1-0.1-1.5-0.1c-1.6,0-2.9,0.3-4,0.9c-1.1,0.6-1.9,1.3-2.6,2.1
		c-0.6,0.8-1.1,1.7-1.4,2.7c-0.3,1-0.4,1.8-0.4,2.5v18.4h-11.8V80.1h11.4v5.2h0.1c0.9-1.8,2.2-3.3,3.9-4.5c1.7-1.2,3.6-1.7,5.8-1.7
		c0.5,0,0.9,0,1.4,0.1c0.5,0,0.8,0.1,1.1,0.2L1006.5,89.8z"/>
	<path d="M1035.2,91.6c-0.7-0.9-1.6-1.6-2.7-2.1c-1.2-0.5-2.3-0.8-3.5-0.8c-1.2,0-2.4,0.3-3.4,0.8c-1,0.5-1.9,1.2-2.6,2
		c-0.7,0.8-1.3,1.8-1.7,2.9c-0.4,1.1-0.6,2.3-0.6,3.5c0,1.2,0.2,2.4,0.6,3.5c0.4,1.1,0.9,2.1,1.7,2.9c0.7,0.8,1.6,1.5,2.7,2
		c1,0.5,2.2,0.7,3.5,0.7c1.2,0,2.4-0.2,3.6-0.7c1.2-0.5,2.1-1.1,2.8-2l6.6,8c-1.5,1.4-3.4,2.6-5.8,3.4c-2.4,0.8-4.9,1.2-7.5,1.2
		c-2.8,0-5.5-0.4-7.9-1.3s-4.6-2.1-6.4-3.8c-1.8-1.7-3.2-3.7-4.3-6c-1-2.4-1.6-5-1.6-8c0-2.9,0.5-5.6,1.6-7.9c1-2.4,2.5-4.4,4.3-6
		c1.8-1.7,3.9-2.9,6.4-3.8c2.5-0.9,5.1-1.3,7.9-1.3c1.3,0,2.6,0.1,3.9,0.4c1.3,0.2,2.5,0.6,3.7,1c1.2,0.4,2.3,0.9,3.2,1.5
		c1,0.6,1.8,1.3,2.6,2L1035.2,91.6z"/>
	<path d="M1082.3,98.4c0,0.5,0,1,0,1.4c0,0.5,0,0.9-0.1,1.4h-26c0.1,1,0.4,1.9,0.9,2.7c0.5,0.8,1.2,1.5,1.9,2.1
		c0.8,0.6,1.7,1.1,2.7,1.4c1,0.3,2,0.5,3.1,0.5c1.9,0,3.5-0.3,4.8-1c1.3-0.7,2.4-1.6,3.2-2.7l8.2,5.2c-1.7,2.5-3.9,4.3-6.7,5.7
		c-2.8,1.3-6,2-9.6,2c-2.7,0-5.2-0.4-7.6-1.3c-2.4-0.8-4.5-2.1-6.3-3.7c-1.8-1.6-3.2-3.6-4.3-5.9c-1-2.4-1.5-5-1.5-8.1
		c0-2.9,0.5-5.6,1.5-8c1-2.4,2.4-4.4,4.1-6.1s3.8-2.9,6.1-3.9c2.4-0.9,4.9-1.4,7.6-1.4c2.6,0,5.1,0.4,7.3,1.3
		c2.2,0.9,4.1,2.2,5.7,3.9c1.6,1.7,2.8,3.7,3.7,6.1C1081.9,92.6,1082.3,95.3,1082.3,98.4z M1071.4,93.9c0-1.9-0.6-3.5-1.8-4.8
		c-1.2-1.3-2.9-2-5.3-2c-1.2,0-2.2,0.2-3.2,0.5s-1.8,0.9-2.5,1.5c-0.7,0.6-1.3,1.4-1.7,2.2c-0.4,0.8-0.7,1.7-0.7,2.6H1071.4z"/>
	<path d="M1147.6,97.8c0,2.5-0.4,4.9-1.2,7.2c-0.8,2.3-1.9,4.3-3.4,6.1c-1.5,1.8-3.3,3.2-5.4,4.2c-2.1,1.1-4.5,1.6-7.2,1.6
		c-2.2,0-4.3-0.4-6.3-1.3c-2-0.9-3.5-2.1-4.6-3.6h-0.1v21.3h-11.8V80h11.2v4.4h0.2c1.1-1.4,2.6-2.7,4.6-3.8c1.9-1.1,4.2-1.6,6.9-1.6
		c2.6,0,4.9,0.5,7.1,1.5c2.1,1,3.9,2.4,5.4,4.1c1.5,1.7,2.6,3.7,3.4,6C1147.2,92.9,1147.6,95.3,1147.6,97.8z M1136.1,97.8
		c0-1.2-0.2-2.3-0.5-3.4c-0.4-1.1-0.9-2.1-1.6-2.9c-0.7-0.8-1.6-1.5-2.6-2.1c-1.1-0.5-2.3-0.8-3.7-0.8c-1.3,0-2.5,0.3-3.6,0.8
		c-1.1,0.5-2,1.2-2.7,2.1s-1.3,1.9-1.7,3c-0.4,1.1-0.6,2.2-0.6,3.4c0,1.2,0.2,2.3,0.6,3.4c0.4,1.1,1,2.1,1.7,3
		c0.7,0.9,1.6,1.6,2.7,2.1c1.1,0.5,2.3,0.8,3.6,0.8c1.4,0,2.6-0.3,3.7-0.8c1.1-0.5,1.9-1.2,2.6-2.1c0.7-0.9,1.2-1.9,1.6-3
		C1136,100.1,1136.1,99,1136.1,97.8z"/>
	<path d="M1154.5,84.9c2.1-2,4.6-3.5,7.4-4.5c2.8-1,5.7-1.5,8.6-1.5c3,0,5.6,0.4,7.7,1.1c2.1,0.7,3.8,1.9,5.1,3.5
		c1.3,1.6,2.2,3.5,2.8,5.9c0.6,2.4,0.9,5.2,0.9,8.5v18.1h-10.8v-3.8h-0.2c-0.9,1.5-2.3,2.6-4.1,3.5c-1.9,0.8-3.9,1.2-6,1.2
		c-1.4,0-2.9-0.2-4.5-0.6c-1.5-0.4-2.9-1-4.2-1.9c-1.3-0.9-2.3-2-3.1-3.5c-0.8-1.4-1.2-3.2-1.2-5.3c0-2.6,0.7-4.7,2.1-6.3
		c1.4-1.6,3.2-2.8,5.5-3.7s4.7-1.4,7.5-1.7s5.4-0.4,8-0.4v-0.6c0-1.8-0.6-3.1-1.9-3.9c-1.2-0.8-2.8-1.3-4.6-1.3
		c-1.7,0-3.3,0.4-4.9,1.1s-2.9,1.6-4,2.6L1154.5,84.9z M1176.2,100.3h-1.5c-1.3,0-2.6,0.1-3.9,0.2c-1.3,0.1-2.5,0.3-3.5,0.7
		c-1,0.3-1.9,0.8-2.6,1.5c-0.7,0.6-1,1.5-1,2.6c0,0.7,0.2,1.2,0.5,1.7c0.3,0.5,0.7,0.9,1.2,1.2c0.5,0.3,1,0.5,1.7,0.6
		c0.6,0.1,1.2,0.2,1.8,0.2c2.4,0,4.2-0.7,5.5-2c1.3-1.3,1.9-3.1,1.9-5.4V100.3z"/>
	<path d="M1220.6,91.6c-0.7-0.9-1.6-1.6-2.7-2.1c-1.2-0.5-2.3-0.8-3.5-0.8c-1.2,0-2.4,0.3-3.4,0.8c-1,0.5-1.9,1.2-2.6,2
		c-0.7,0.8-1.3,1.8-1.7,2.9c-0.4,1.1-0.6,2.3-0.6,3.5c0,1.2,0.2,2.4,0.6,3.5c0.4,1.1,0.9,2.1,1.7,2.9c0.7,0.8,1.6,1.5,2.7,2
		c1,0.5,2.2,0.7,3.5,0.7c1.2,0,2.4-0.2,3.6-0.7c1.2-0.5,2.1-1.1,2.8-2l6.6,8c-1.5,1.4-3.4,2.6-5.8,3.4c-2.4,0.8-4.9,1.2-7.5,1.2
		c-2.8,0-5.5-0.4-7.9-1.3s-4.6-2.1-6.4-3.8c-1.8-1.7-3.2-3.7-4.3-6c-1-2.4-1.6-5-1.6-8c0-2.9,0.5-5.6,1.6-7.9c1-2.4,2.5-4.4,4.3-6
		c1.8-1.7,3.9-2.9,6.4-3.8c2.5-0.9,5.1-1.3,7.9-1.3c1.3,0,2.6,0.1,3.9,0.4c1.3,0.2,2.5,0.6,3.7,1c1.2,0.4,2.3,0.9,3.2,1.5
		c1,0.6,1.8,1.3,2.6,2L1220.6,91.6z"/>
	<path d="M1270.6,115.9H1256l-11.7-17.2h-0.2v17.2h-11.9V61.4h11.9v33.2h0.2l11.5-14.6h14.3l-13.8,16.2L1270.6,115.9z"/>
	<path d="M1295.6,90.6c-1-0.9-2.1-1.7-3.4-2.3c-1.3-0.6-2.7-0.9-4.1-0.9c-1.1,0-2.1,0.2-3.1,0.6c-0.9,0.4-1.4,1.2-1.4,2.2
		c0,1,0.5,1.7,1.5,2.2c1,0.4,2.7,0.9,5,1.4c1.3,0.3,2.7,0.7,4.1,1.2c1.4,0.5,2.6,1.2,3.7,2.1c1.1,0.9,2,1.9,2.7,3.2
		c0.7,1.2,1,2.7,1,4.5c0,2.3-0.5,4.2-1.4,5.7c-0.9,1.6-2.1,2.8-3.6,3.8c-1.5,1-3.1,1.7-4.9,2.1c-1.8,0.4-3.7,0.6-5.5,0.6
		c-2.9,0-5.8-0.5-8.6-1.4c-2.8-0.9-5.2-2.3-7-4.1l6.6-7c1.1,1.2,2.4,2.1,3.9,2.9c1.5,0.8,3.2,1.2,4.9,1.2c1,0,1.9-0.2,2.8-0.7
		c0.9-0.5,1.4-1.3,1.4-2.4c0-1.1-0.6-1.9-1.7-2.5c-1.2-0.5-3-1.1-5.4-1.7c-1.2-0.3-2.5-0.7-3.7-1.2c-1.2-0.5-2.4-1.1-3.4-1.9
		c-1-0.8-1.8-1.8-2.4-3c-0.6-1.2-0.9-2.6-0.9-4.3c0-2.2,0.5-4,1.4-5.5c0.9-1.5,2.1-2.8,3.5-3.7c1.4-1,3-1.7,4.8-2.1
		c1.8-0.5,3.5-0.7,5.2-0.7c2.7,0,5.3,0.4,7.9,1.3c2.6,0.8,4.7,2.1,6.5,3.8L1295.6,90.6z"/>
	<path d="M139.6,216c-0.7-0.9-1.6-1.6-2.7-2.1c-1.2-0.5-2.3-0.8-3.5-0.8c-1.2,0-2.4,0.3-3.4,0.8c-1,0.5-1.9,1.2-2.6,2
		s-1.3,1.8-1.7,2.9c-0.4,1.1-0.6,2.3-0.6,3.5c0,1.2,0.2,2.4,0.6,3.5c0.4,1.1,0.9,2.1,1.7,2.9c0.7,0.8,1.6,1.5,2.7,2
		c1,0.5,2.2,0.7,3.5,0.7c1.2,0,2.4-0.2,3.6-0.7c1.2-0.5,2.1-1.1,2.8-2l6.6,8c-1.5,1.4-3.4,2.6-5.8,3.4c-2.4,0.8-4.9,1.2-7.5,1.2
		c-2.8,0-5.5-0.4-7.9-1.3c-2.5-0.9-4.6-2.1-6.4-3.8c-1.8-1.7-3.2-3.7-4.3-6c-1-2.4-1.6-5-1.6-8c0-2.9,0.5-5.6,1.6-7.9
		c1-2.4,2.5-4.4,4.3-6c1.8-1.7,3.9-2.9,6.4-3.8c2.5-0.9,5.1-1.3,7.9-1.3c1.3,0,2.6,0.1,3.9,0.4c1.3,0.2,2.5,0.6,3.7,1
		c1.2,0.4,2.3,0.9,3.2,1.5c1,0.6,1.8,1.3,2.6,2L139.6,216z"/>
	<path d="M174.4,214.1c-0.5-0.1-1-0.2-1.5-0.3c-0.5,0-1-0.1-1.5-0.1c-1.6,0-2.9,0.3-4,0.9c-1.1,0.6-1.9,1.3-2.6,2.1
		c-0.6,0.8-1.1,1.7-1.4,2.7c-0.3,1-0.4,1.8-0.4,2.5v18.4h-11.8v-35.8h11.4v5.2h0.1c0.9-1.8,2.2-3.3,3.9-4.5c1.7-1.2,3.6-1.7,5.8-1.7
		c0.5,0,0.9,0,1.4,0.1c0.5,0,0.8,0.1,1.1,0.2L174.4,214.1z"/>
	<path d="M213.9,222.8c0,0.5,0,1,0,1.4c0,0.5,0,0.9-0.1,1.4h-26c0.1,1,0.4,1.9,0.9,2.7c0.5,0.8,1.2,1.5,1.9,2.1
		c0.8,0.6,1.7,1.1,2.7,1.4c1,0.3,2,0.5,3.1,0.5c1.9,0,3.5-0.3,4.8-1c1.3-0.7,2.4-1.6,3.2-2.7l8.2,5.2c-1.7,2.5-3.9,4.3-6.7,5.7
		c-2.8,1.3-6,2-9.6,2c-2.7,0-5.2-0.4-7.6-1.3c-2.4-0.8-4.5-2.1-6.3-3.7c-1.8-1.6-3.2-3.6-4.3-5.9c-1-2.4-1.5-5-1.5-8.1
		c0-2.9,0.5-5.6,1.5-8c1-2.4,2.4-4.4,4.1-6.1c1.7-1.7,3.8-2.9,6.1-3.9c2.4-0.9,4.9-1.4,7.6-1.4c2.6,0,5.1,0.4,7.3,1.3
		c2.2,0.9,4.1,2.2,5.7,3.9s2.8,3.7,3.7,6.1C213.5,217,213.9,219.7,213.9,222.8z M203,218.2c0-1.9-0.6-3.5-1.8-4.8
		c-1.2-1.3-2.9-2-5.3-2c-1.2,0-2.2,0.2-3.2,0.5c-1,0.4-1.8,0.9-2.5,1.5c-0.7,0.6-1.3,1.4-1.7,2.2c-0.4,0.8-0.7,1.7-0.7,2.6H203z"/>
	<path d="M220.3,209.3c2.1-2,4.6-3.5,7.4-4.5c2.8-1,5.7-1.5,8.6-1.5c3,0,5.6,0.4,7.7,1.1c2.1,0.7,3.8,1.9,5.1,3.5
		c1.3,1.6,2.2,3.5,2.8,5.9c0.6,2.4,0.9,5.2,0.9,8.5v18.1H242v-3.8h-0.2c-0.9,1.5-2.3,2.6-4.1,3.5c-1.9,0.8-3.9,1.2-6,1.2
		c-1.4,0-2.9-0.2-4.5-0.6c-1.5-0.4-2.9-1-4.2-1.9c-1.3-0.9-2.3-2-3.1-3.5c-0.8-1.4-1.2-3.2-1.2-5.3c0-2.6,0.7-4.7,2.1-6.3
		c1.4-1.6,3.2-2.8,5.5-3.7c2.2-0.9,4.7-1.4,7.5-1.7s5.4-0.4,8-0.4v-0.6c0-1.8-0.6-3.1-1.9-3.9c-1.2-0.8-2.8-1.3-4.6-1.3
		c-1.7,0-3.3,0.4-4.9,1.1c-1.6,0.7-2.9,1.6-4,2.6L220.3,209.3z M242,224.7h-1.5c-1.3,0-2.6,0.1-3.9,0.2c-1.3,0.1-2.5,0.3-3.5,0.7
		c-1,0.3-1.9,0.8-2.6,1.5c-0.7,0.6-1,1.5-1,2.6c0,0.7,0.2,1.2,0.5,1.7c0.3,0.5,0.7,0.9,1.2,1.2c0.5,0.3,1,0.5,1.7,0.6
		c0.6,0.1,1.2,0.2,1.8,0.2c2.4,0,4.2-0.7,5.5-2c1.3-1.3,1.9-3.1,1.9-5.4V224.7z"/>
	<path d="M273.7,213.2v13.7c0,1.7,0.3,3,1,3.8c0.6,0.8,1.8,1.3,3.5,1.3c0.6,0,1.2,0,1.8-0.1c0.6-0.1,1.2-0.2,1.6-0.4l0.1,8.6
		c-0.8,0.3-1.9,0.5-3.1,0.8c-1.2,0.2-2.5,0.3-3.7,0.3c-2.4,0-4.4-0.3-6.1-0.9c-1.6-0.6-2.9-1.5-3.9-2.6c-1-1.1-1.7-2.5-2.1-4
		c-0.4-1.6-0.6-3.3-0.6-5.2v-15.2h-5.8v-8.8h5.7V195h11.6v9.4h8.4v8.8H273.7z"/>
	<path d="M323.3,222.8c0,0.5,0,1,0,1.4c0,0.5,0,0.9-0.1,1.4h-26c0.1,1,0.4,1.9,0.9,2.7c0.5,0.8,1.2,1.5,1.9,2.1
		c0.8,0.6,1.7,1.1,2.7,1.4c1,0.3,2,0.5,3.1,0.5c1.9,0,3.5-0.3,4.8-1c1.3-0.7,2.4-1.6,3.2-2.7l8.2,5.2c-1.7,2.5-3.9,4.3-6.7,5.7
		c-2.8,1.3-6,2-9.6,2c-2.7,0-5.2-0.4-7.6-1.3c-2.4-0.8-4.5-2.1-6.3-3.7c-1.8-1.6-3.2-3.6-4.3-5.9c-1-2.4-1.5-5-1.5-8.1
		c0-2.9,0.5-5.6,1.5-8c1-2.4,2.4-4.4,4.1-6.1c1.7-1.7,3.8-2.9,6.1-3.9c2.4-0.9,4.9-1.4,7.6-1.4c2.6,0,5.1,0.4,7.3,1.3
		c2.2,0.9,4.1,2.2,5.7,3.9s2.8,3.7,3.7,6.1C322.9,217,323.3,219.7,323.3,222.8z M312.4,218.2c0-1.9-0.6-3.5-1.8-4.8
		c-1.2-1.3-2.9-2-5.3-2c-1.2,0-2.2,0.2-3.2,0.5c-1,0.4-1.8,0.9-2.5,1.5c-0.7,0.6-1.3,1.4-1.7,2.2c-0.4,0.8-0.7,1.7-0.7,2.6H312.4z"
		/>
	<path d="M357.8,240.3v-4.7h-0.1c-1.2,1.8-2.8,3.2-4.9,4.2c-2.1,1-4.4,1.5-6.8,1.5c-2.7,0-5.1-0.5-7.2-1.6c-2.1-1.1-3.9-2.5-5.4-4.2
		c-1.5-1.8-2.6-3.8-3.4-6.1c-0.8-2.3-1.2-4.7-1.2-7.2c0-2.5,0.4-4.9,1.2-7.2c0.8-2.3,1.9-4.3,3.4-6c1.5-1.7,3.2-3.1,5.3-4.1
		c2.1-1,4.4-1.5,7-1.5c2.6,0,4.9,0.5,6.7,1.5c1.8,1,3.2,2.1,4.3,3.3h0.1v-22.4h11.8v54.5H357.8z M357.4,222.3c0-1.2-0.2-2.3-0.6-3.4
		c-0.4-1.1-1-2.1-1.7-3c-0.7-0.9-1.6-1.6-2.7-2.1c-1.1-0.5-2.3-0.8-3.6-0.8c-1.4,0-2.6,0.3-3.7,0.8c-1.1,0.5-1.9,1.2-2.7,2.1
		s-1.3,1.8-1.6,2.9c-0.4,1.1-0.5,2.2-0.5,3.4s0.2,2.3,0.5,3.4c0.4,1.1,0.9,2.1,1.6,3c0.7,0.9,1.6,1.6,2.7,2.1
		c1.1,0.5,2.3,0.8,3.7,0.8c1.3,0,2.5-0.3,3.6-0.8c1.1-0.5,2-1.2,2.7-2.1c0.7-0.9,1.3-1.8,1.7-3C357.2,224.6,357.4,223.4,357.4,222.3
		z"/>
	<path d="M408.9,213.2v13.7c0,1.7,0.3,3,1,3.8c0.6,0.8,1.8,1.3,3.5,1.3c0.6,0,1.2,0,1.8-0.1c0.6-0.1,1.2-0.2,1.6-0.4l0.1,8.6
		c-0.8,0.3-1.9,0.5-3.1,0.8c-1.2,0.2-2.5,0.3-3.7,0.3c-2.4,0-4.4-0.3-6.1-0.9c-1.6-0.6-2.9-1.5-3.9-2.6c-1-1.1-1.7-2.5-2.1-4
		c-0.4-1.6-0.6-3.3-0.6-5.2v-15.2h-5.8v-8.8h5.7V195h11.6v9.4h8.4v8.8H408.9z"/>
	<path d="M461,222.2c0,2.9-0.5,5.6-1.6,8c-1.1,2.4-2.5,4.4-4.3,6.1c-1.8,1.7-3.9,2.9-6.3,3.9c-2.4,0.9-5,1.4-7.7,1.4
		c-2.7,0-5.2-0.5-7.7-1.4c-2.4-0.9-4.5-2.2-6.3-3.9c-1.8-1.7-3.2-3.7-4.3-6.1c-1.1-2.4-1.6-5-1.6-8c0-2.9,0.5-5.6,1.6-7.9
		c1.1-2.4,2.5-4.3,4.3-6c1.8-1.6,3.9-2.9,6.3-3.7c2.4-0.9,5-1.3,7.7-1.3c2.7,0,5.3,0.4,7.7,1.3c2.4,0.9,4.5,2.1,6.3,3.7
		c1.8,1.6,3.3,3.6,4.3,6C460.4,216.6,461,219.3,461,222.2z M449.6,222.2c0-1.2-0.2-2.3-0.6-3.4c-0.4-1.1-0.9-2.1-1.7-2.9
		s-1.6-1.5-2.7-2.1c-1.1-0.5-2.3-0.8-3.7-0.8c-1.4,0-2.6,0.3-3.7,0.8c-1.1,0.5-1.9,1.2-2.6,2.1c-0.7,0.8-1.2,1.8-1.6,2.9
		c-0.4,1.1-0.5,2.2-0.5,3.4s0.2,2.3,0.5,3.4c0.4,1.1,0.9,2.1,1.6,3c0.7,0.9,1.6,1.6,2.7,2.1c1.1,0.5,2.3,0.8,3.7,0.8
		c1.4,0,2.6-0.3,3.7-0.8c1.1-0.5,1.9-1.2,2.7-2.1c0.7-0.9,1.3-1.9,1.6-3C449.4,224.5,449.6,223.4,449.6,222.2z"/>
	<path d="M532.3,240.3v-19.6c0-1-0.1-2-0.2-2.9c-0.1-0.9-0.4-1.7-0.8-2.4c-0.4-0.7-0.9-1.2-1.5-1.6c-0.6-0.4-1.5-0.6-2.6-0.6
		c-1,0-1.9,0.2-2.6,0.6c-0.7,0.4-1.4,1-1.9,1.7c-0.5,0.7-0.9,1.5-1.1,2.5c-0.2,0.9-0.4,1.9-0.4,2.9v19.4h-11.8v-20.5
		c0-2.1-0.4-3.7-1.2-4.9c-0.8-1.2-2.1-1.8-3.9-1.8c-1.9,0-3.3,0.7-4.4,2.2c-1,1.5-1.5,3.3-1.5,5.5v19.5h-11.9v-35.9h11.5v5h0.1
		c0.4-0.8,1-1.5,1.6-2.2c0.6-0.7,1.4-1.4,2.3-1.9c0.9-0.6,1.9-1,3.1-1.3c1.1-0.3,2.4-0.5,3.7-0.5c2.6,0,4.8,0.5,6.6,1.6
		c1.8,1.1,3.2,2.6,4.2,4.5c1.2-1.9,2.7-3.4,4.6-4.5c1.9-1.1,4.2-1.7,6.8-1.7c2.5,0,4.5,0.4,6.2,1.3c1.7,0.9,3,2,4,3.5
		c1,1.4,1.7,3,2.2,4.8c0.5,1.8,0.7,3.5,0.7,5.2v22.2H532.3z"/>
	<path d="M552.6,209.3c2.1-2,4.6-3.5,7.4-4.5c2.8-1,5.7-1.5,8.6-1.5c3,0,5.6,0.4,7.7,1.1c2.1,0.7,3.8,1.9,5.1,3.5
		c1.3,1.6,2.2,3.5,2.8,5.9c0.6,2.4,0.9,5.2,0.9,8.5v18.1h-10.8v-3.8H574c-0.9,1.5-2.3,2.6-4.1,3.5c-1.9,0.8-3.9,1.2-6,1.2
		c-1.4,0-2.9-0.2-4.5-0.6c-1.5-0.4-2.9-1-4.2-1.9c-1.3-0.9-2.3-2-3.1-3.5c-0.8-1.4-1.2-3.2-1.2-5.3c0-2.6,0.7-4.7,2.1-6.3
		c1.4-1.6,3.2-2.8,5.5-3.7c2.2-0.9,4.7-1.4,7.5-1.7s5.4-0.4,8-0.4v-0.6c0-1.8-0.6-3.1-1.9-3.9c-1.2-0.8-2.8-1.3-4.6-1.3
		c-1.7,0-3.3,0.4-4.9,1.1c-1.6,0.7-2.9,1.6-4,2.6L552.6,209.3z M574.3,224.7h-1.5c-1.3,0-2.6,0.1-3.9,0.2c-1.3,0.1-2.5,0.3-3.5,0.7
		c-1,0.3-1.9,0.8-2.6,1.5c-0.7,0.6-1,1.5-1,2.6c0,0.7,0.2,1.2,0.5,1.7c0.3,0.5,0.7,0.9,1.2,1.2c0.5,0.3,1,0.5,1.7,0.6
		c0.6,0.1,1.2,0.2,1.8,0.2c2.4,0,4.2-0.7,5.5-2c1.3-1.3,1.9-3.1,1.9-5.4V224.7z"/>
	<path d="M632.4,240.3h-14.6L606,223.1h-0.2v17.2h-11.9v-54.5h11.9V219h0.2l11.5-14.6h14.3L618,220.6L632.4,240.3z"/>
	<path d="M671.1,222.8c0,0.5,0,1,0,1.4c0,0.5,0,0.9-0.1,1.4h-26c0.1,1,0.4,1.9,0.9,2.7c0.5,0.8,1.2,1.5,1.9,2.1
		c0.8,0.6,1.7,1.1,2.7,1.4c1,0.3,2,0.5,3.1,0.5c1.9,0,3.5-0.3,4.8-1c1.3-0.7,2.4-1.6,3.2-2.7l8.2,5.2c-1.7,2.5-3.9,4.3-6.7,5.7
		c-2.8,1.3-6,2-9.6,2c-2.7,0-5.2-0.4-7.6-1.3c-2.4-0.8-4.5-2.1-6.3-3.7c-1.8-1.6-3.2-3.6-4.3-5.9c-1-2.4-1.5-5-1.5-8.1
		c0-2.9,0.5-5.6,1.5-8c1-2.4,2.4-4.4,4.1-6.1c1.7-1.7,3.8-2.9,6.1-3.9c2.4-0.9,4.9-1.4,7.6-1.4c2.6,0,5.1,0.4,7.3,1.3
		c2.2,0.9,4.1,2.2,5.7,3.9s2.8,3.7,3.7,6.1C670.6,217,671.1,219.7,671.1,222.8z M660.2,218.2c0-1.9-0.6-3.5-1.8-4.8
		c-1.2-1.3-2.9-2-5.3-2c-1.2,0-2.2,0.2-3.2,0.5c-1,0.4-1.8,0.9-2.5,1.5c-0.7,0.6-1.3,1.4-1.7,2.2c-0.4,0.8-0.7,1.7-0.7,2.6H660.2z"
		/>
	<path d="M716.7,245.7c-0.7,1.9-1.5,3.5-2.4,5c-0.9,1.5-1.9,2.7-3.2,3.7s-2.7,1.8-4.3,2.3c-1.7,0.5-3.6,0.8-5.9,0.8
		c-1.1,0-2.2-0.1-3.4-0.2c-1.2-0.1-2.2-0.3-3.1-0.6l1.3-9.9c0.6,0.2,1.2,0.3,1.9,0.5c0.7,0.1,1.3,0.2,1.9,0.2c1.8,0,3.1-0.4,4-1.3
		c0.8-0.8,1.5-2,2.1-3.6l1.2-3l-15-35.3h13.1l8,23.1h0.2l7.1-23.1h12.5L716.7,245.7z"/>
	<path d="M775.3,222.2c0,2.9-0.5,5.6-1.6,8c-1.1,2.4-2.5,4.4-4.3,6.1c-1.8,1.7-3.9,2.9-6.3,3.9c-2.4,0.9-5,1.4-7.7,1.4
		c-2.7,0-5.2-0.5-7.7-1.4c-2.4-0.9-4.5-2.2-6.3-3.9c-1.8-1.7-3.2-3.7-4.3-6.1c-1.1-2.4-1.6-5-1.6-8c0-2.9,0.5-5.6,1.6-7.9
		c1.1-2.4,2.5-4.3,4.3-6c1.8-1.6,3.9-2.9,6.3-3.7c2.4-0.9,5-1.3,7.7-1.3c2.7,0,5.3,0.4,7.7,1.3c2.4,0.9,4.5,2.1,6.3,3.7
		c1.8,1.6,3.3,3.6,4.3,6C774.8,216.6,775.3,219.3,775.3,222.2z M763.9,222.2c0-1.2-0.2-2.3-0.6-3.4c-0.4-1.1-0.9-2.1-1.7-2.9
		s-1.6-1.5-2.7-2.1c-1.1-0.5-2.3-0.8-3.7-0.8s-2.6,0.3-3.7,0.8c-1.1,0.5-1.9,1.2-2.6,2.1c-0.7,0.8-1.2,1.8-1.6,2.9
		c-0.4,1.1-0.5,2.2-0.5,3.4s0.2,2.3,0.5,3.4c0.4,1.1,0.9,2.1,1.6,3c0.7,0.9,1.6,1.6,2.7,2.1c1.1,0.5,2.3,0.8,3.7,0.8
		c1.4,0,2.6-0.3,3.7-0.8c1.1-0.5,1.9-1.2,2.7-2.1c0.7-0.9,1.3-1.9,1.6-3C763.8,224.5,763.9,223.4,763.9,222.2z"/>
	<path d="M806.5,240.3v-5h-0.1c-0.4,0.8-1,1.6-1.7,2.3c-0.7,0.7-1.5,1.3-2.5,1.9c-0.9,0.5-2,1-3.1,1.3c-1.1,0.3-2.3,0.5-3.6,0.5
		c-2.4,0-4.4-0.4-6.1-1.3c-1.7-0.9-3-2-4-3.4c-1-1.4-1.8-2.9-2.2-4.7c-0.5-1.8-0.7-3.5-0.7-5.4v-22.2h11.9v19.5c0,1,0.1,2,0.2,2.9
		c0.1,0.9,0.4,1.7,0.8,2.5c0.4,0.7,0.9,1.3,1.6,1.7c0.7,0.4,1.6,0.6,2.7,0.6c2.1,0,3.6-0.8,4.7-2.3c1.1-1.5,1.6-3.3,1.6-5.4v-19.4
		h11.8v35.9H806.5z"/>
	<path d="M850.4,214.1c-0.5-0.1-1-0.2-1.5-0.3c-0.5,0-1-0.1-1.5-0.1c-1.6,0-2.9,0.3-4,0.9c-1.1,0.6-1.9,1.3-2.6,2.1
		c-0.6,0.8-1.1,1.7-1.4,2.7c-0.3,1-0.4,1.8-0.4,2.5v18.4h-11.8v-35.8h11.4v5.2h0.1c0.9-1.8,2.2-3.3,3.9-4.5c1.7-1.2,3.6-1.7,5.8-1.7
		c0.5,0,0.9,0,1.4,0.1c0.5,0,0.8,0.1,1.1,0.2L850.4,214.1z"/>
	<path d="M909.2,222.8c0,0.5,0,1,0,1.4c0,0.5,0,0.9-0.1,1.4h-26c0.1,1,0.4,1.9,0.9,2.7c0.5,0.8,1.2,1.5,1.9,2.1
		c0.8,0.6,1.7,1.1,2.7,1.4c1,0.3,2,0.5,3.1,0.5c1.9,0,3.5-0.3,4.8-1c1.3-0.7,2.4-1.6,3.2-2.7l8.2,5.2c-1.7,2.5-3.9,4.3-6.7,5.7
		c-2.8,1.3-6,2-9.6,2c-2.7,0-5.2-0.4-7.6-1.3c-2.4-0.8-4.5-2.1-6.3-3.7c-1.8-1.6-3.2-3.6-4.3-5.9c-1-2.4-1.5-5-1.5-8.1
		c0-2.9,0.5-5.6,1.5-8c1-2.4,2.4-4.4,4.1-6.1c1.7-1.7,3.8-2.9,6.1-3.9c2.4-0.9,4.9-1.4,7.6-1.4c2.6,0,5.1,0.4,7.3,1.3
		c2.2,0.9,4.1,2.2,5.7,3.9c1.6,1.7,2.8,3.7,3.7,6.1C908.8,217,909.2,219.7,909.2,222.8z M898.4,218.2c0-1.9-0.6-3.5-1.8-4.8
		c-1.2-1.3-2.9-2-5.3-2c-1.2,0-2.2,0.2-3.2,0.5s-1.8,0.9-2.5,1.5c-0.7,0.6-1.3,1.4-1.7,2.2c-0.4,0.8-0.7,1.7-0.7,2.6H898.4z"/>
	<path d="M939.5,240.3l-7.7-11l-7.9,11h-13.7l14.3-18.8l-13-17.1h13.8l6.7,9.6l6.8-9.6h13.3l-12.9,17.1l14.2,18.8H939.5z"/>
	<path d="M997.7,222.2c0,2.5-0.4,4.9-1.2,7.2c-0.8,2.3-1.9,4.3-3.4,6.1c-1.5,1.8-3.3,3.2-5.4,4.2c-2.1,1.1-4.5,1.6-7.2,1.6
		c-2.2,0-4.3-0.4-6.3-1.3s-3.5-2.1-4.6-3.6h-0.1v21.3h-11.8v-53.2H969v4.4h0.2c1.1-1.4,2.6-2.7,4.6-3.8c1.9-1.1,4.2-1.6,6.9-1.6
		c2.6,0,4.9,0.5,7.1,1.5c2.1,1,3.9,2.4,5.4,4.1c1.5,1.7,2.6,3.7,3.4,6C997.3,217.3,997.7,219.7,997.7,222.2z M986.3,222.2
		c0-1.2-0.2-2.3-0.5-3.4c-0.4-1.1-0.9-2.1-1.6-2.9c-0.7-0.8-1.6-1.5-2.6-2.1c-1.1-0.5-2.3-0.8-3.7-0.8c-1.3,0-2.5,0.3-3.6,0.8
		c-1.1,0.5-2,1.2-2.7,2.1c-0.7,0.9-1.3,1.9-1.7,3c-0.4,1.1-0.6,2.2-0.6,3.4c0,1.2,0.2,2.3,0.6,3.4c0.4,1.1,1,2.1,1.7,3
		c0.7,0.9,1.6,1.6,2.7,2.1c1.1,0.5,2.3,0.8,3.6,0.8c1.4,0,2.6-0.3,3.7-0.8c1.1-0.5,1.9-1.2,2.6-2.1c0.7-0.9,1.2-1.9,1.6-3
		C986.1,224.5,986.3,223.4,986.3,222.2z"/>
	<path d="M1040.8,222.8c0,0.5,0,1,0,1.4c0,0.5,0,0.9-0.1,1.4h-26c0.1,1,0.4,1.9,0.9,2.7c0.5,0.8,1.2,1.5,1.9,2.1
		c0.8,0.6,1.7,1.1,2.7,1.4c1,0.3,2,0.5,3.1,0.5c1.9,0,3.5-0.3,4.8-1c1.3-0.7,2.4-1.6,3.2-2.7l8.2,5.2c-1.7,2.5-3.9,4.3-6.7,5.7
		c-2.8,1.3-6,2-9.6,2c-2.7,0-5.2-0.4-7.6-1.3c-2.4-0.8-4.5-2.1-6.3-3.7c-1.8-1.6-3.2-3.6-4.3-5.9c-1-2.4-1.5-5-1.5-8.1
		c0-2.9,0.5-5.6,1.5-8c1-2.4,2.4-4.4,4.1-6.1c1.7-1.7,3.8-2.9,6.1-3.9c2.4-0.9,4.9-1.4,7.6-1.4c2.6,0,5.1,0.4,7.3,1.3
		c2.2,0.9,4.1,2.2,5.7,3.9c1.6,1.7,2.8,3.7,3.7,6.1C1040.3,217,1040.8,219.7,1040.8,222.8z M1029.9,218.2c0-1.9-0.6-3.5-1.8-4.8
		c-1.2-1.3-2.9-2-5.3-2c-1.2,0-2.2,0.2-3.2,0.5s-1.8,0.9-2.5,1.5c-0.7,0.6-1.3,1.4-1.7,2.2c-0.4,0.8-0.7,1.7-0.7,2.6H1029.9z"/>
	<path d="M1071.4,214.1c-0.5-0.1-1-0.2-1.5-0.3c-0.5,0-1-0.1-1.5-0.1c-1.6,0-2.9,0.3-4,0.9c-1.1,0.6-1.9,1.3-2.6,2.1
		c-0.6,0.8-1.1,1.7-1.4,2.7c-0.3,1-0.4,1.8-0.4,2.5v18.4h-11.8v-35.8h11.4v5.2h0.1c0.9-1.8,2.2-3.3,3.9-4.5c1.7-1.2,3.6-1.7,5.8-1.7
		c0.5,0,0.9,0,1.4,0.1c0.5,0,0.8,0.1,1.1,0.2L1071.4,214.1z"/>
	<path d="M1089.5,192.9c0,0.9-0.2,1.8-0.5,2.6c-0.4,0.8-0.8,1.5-1.4,2.1c-0.6,0.6-1.3,1-2.2,1.4c-0.8,0.3-1.7,0.5-2.6,0.5
		c-1.9,0-3.5-0.6-4.8-1.9c-1.3-1.3-1.9-2.8-1.9-4.6c0-0.9,0.2-1.7,0.5-2.5c0.3-0.8,0.8-1.5,1.4-2.1c0.6-0.6,1.3-1,2.2-1.4
		c0.8-0.4,1.7-0.5,2.7-0.5c0.9,0,1.8,0.2,2.6,0.5c0.8,0.3,1.6,0.8,2.2,1.4c0.6,0.6,1.1,1.3,1.4,2.1
		C1089.3,191.2,1089.5,192,1089.5,192.9z M1076.8,240.3v-35.9h11.8v35.9H1076.8z"/>
	<path d="M1133.6,222.8c0,0.5,0,1,0,1.4c0,0.5,0,0.9-0.1,1.4h-26c0.1,1,0.4,1.9,0.9,2.7c0.5,0.8,1.2,1.5,1.9,2.1
		c0.8,0.6,1.7,1.1,2.7,1.4c1,0.3,2,0.5,3.1,0.5c1.9,0,3.5-0.3,4.8-1c1.3-0.7,2.4-1.6,3.2-2.7l8.2,5.2c-1.7,2.5-3.9,4.3-6.7,5.7
		c-2.8,1.3-6,2-9.6,2c-2.7,0-5.2-0.4-7.6-1.3c-2.4-0.8-4.5-2.1-6.3-3.7c-1.8-1.6-3.2-3.6-4.3-5.9c-1-2.4-1.5-5-1.5-8.1
		c0-2.9,0.5-5.6,1.5-8c1-2.4,2.4-4.4,4.1-6.1c1.7-1.7,3.8-2.9,6.1-3.9c2.4-0.9,4.9-1.4,7.6-1.4c2.6,0,5.1,0.4,7.3,1.3
		c2.2,0.9,4.1,2.2,5.7,3.9c1.6,1.7,2.8,3.7,3.7,6.1C1133.1,217,1133.6,219.7,1133.6,222.8z M1122.7,218.2c0-1.9-0.6-3.5-1.8-4.8
		c-1.2-1.3-2.9-2-5.3-2c-1.2,0-2.2,0.2-3.2,0.5s-1.8,0.9-2.5,1.5c-0.7,0.6-1.3,1.4-1.7,2.2c-0.4,0.8-0.7,1.7-0.7,2.6H1122.7z"/>
	<path d="M1164.5,240.3v-19.6c0-1-0.1-2-0.3-2.9c-0.2-0.9-0.4-1.7-0.8-2.4c-0.4-0.7-0.9-1.2-1.6-1.7s-1.6-0.6-2.6-0.6
		c-1.1,0-2,0.2-2.8,0.6c-0.8,0.4-1.5,1-2,1.7c-0.5,0.7-0.9,1.5-1.2,2.5c-0.3,0.9-0.4,1.9-0.4,2.9v19.5h-11.9v-35.9h11.5v5h0.1
		c0.4-0.8,1-1.5,1.7-2.3c0.7-0.7,1.5-1.4,2.5-1.9c0.9-0.5,2-1,3.1-1.3c1.1-0.3,2.3-0.5,3.5-0.5c2.4,0,4.4,0.4,6.1,1.3
		c1.7,0.9,3,2,4.1,3.4c1,1.4,1.8,2.9,2.2,4.7c0.5,1.8,0.7,3.6,0.7,5.3v22.2H1164.5z"/>
	<path d="M1210.1,216c-0.7-0.9-1.6-1.6-2.7-2.1c-1.2-0.5-2.3-0.8-3.5-0.8c-1.2,0-2.4,0.3-3.4,0.8c-1,0.5-1.9,1.2-2.6,2
		s-1.3,1.8-1.7,2.9c-0.4,1.1-0.6,2.3-0.6,3.5c0,1.2,0.2,2.4,0.6,3.5c0.4,1.1,0.9,2.1,1.7,2.9c0.7,0.8,1.6,1.5,2.7,2
		c1,0.5,2.2,0.7,3.5,0.7c1.2,0,2.4-0.2,3.6-0.7c1.2-0.5,2.1-1.1,2.8-2l6.6,8c-1.5,1.4-3.4,2.6-5.8,3.4c-2.4,0.8-4.9,1.2-7.5,1.2
		c-2.8,0-5.5-0.4-7.9-1.3c-2.5-0.9-4.6-2.1-6.4-3.8c-1.8-1.7-3.2-3.7-4.3-6c-1-2.4-1.6-5-1.6-8c0-2.9,0.5-5.6,1.6-7.9
		c1-2.4,2.5-4.4,4.3-6c1.8-1.7,3.9-2.9,6.4-3.8c2.5-0.9,5.1-1.3,7.9-1.3c1.3,0,2.6,0.1,3.9,0.4c1.3,0.2,2.5,0.6,3.7,1
		c1.2,0.4,2.3,0.9,3.2,1.5c1,0.6,1.8,1.3,2.6,2L1210.1,216z"/>
	<path d="M1257.2,222.8c0,0.5,0,1,0,1.4c0,0.5,0,0.9-0.1,1.4h-26c0.1,1,0.4,1.9,0.9,2.7c0.5,0.8,1.2,1.5,1.9,2.1
		c0.8,0.6,1.7,1.1,2.7,1.4c1,0.3,2,0.5,3.1,0.5c1.9,0,3.5-0.3,4.8-1c1.3-0.7,2.4-1.6,3.2-2.7l8.2,5.2c-1.7,2.5-3.9,4.3-6.7,5.7
		c-2.8,1.3-6,2-9.6,2c-2.7,0-5.2-0.4-7.6-1.3c-2.4-0.8-4.5-2.1-6.3-3.7c-1.8-1.6-3.2-3.6-4.3-5.9c-1-2.4-1.5-5-1.5-8.1
		c0-2.9,0.5-5.6,1.5-8c1-2.4,2.4-4.4,4.1-6.1c1.7-1.7,3.8-2.9,6.1-3.9c2.4-0.9,4.9-1.4,7.6-1.4c2.6,0,5.1,0.4,7.3,1.3
		c2.2,0.9,4.1,2.2,5.7,3.9c1.6,1.7,2.8,3.7,3.7,6.1C1256.7,217,1257.2,219.7,1257.2,222.8z M1246.3,218.2c0-1.9-0.6-3.5-1.8-4.8
		c-1.2-1.3-2.9-2-5.3-2c-1.2,0-2.2,0.2-3.2,0.5s-1.8,0.9-2.5,1.5c-0.7,0.6-1.3,1.4-1.7,2.2c-0.4,0.8-0.7,1.7-0.7,2.6H1246.3z"/>
	<path d="M1285.6,215c-1-0.9-2.1-1.7-3.4-2.3c-1.3-0.6-2.7-0.9-4.1-0.9c-1.1,0-2.1,0.2-3.1,0.6c-0.9,0.4-1.4,1.2-1.4,2.2
		c0,1,0.5,1.7,1.5,2.2c1,0.4,2.7,0.9,5,1.4c1.3,0.3,2.7,0.7,4.1,1.2c1.4,0.5,2.6,1.2,3.7,2.1c1.1,0.9,2,1.9,2.7,3.2
		c0.7,1.2,1,2.7,1,4.5c0,2.3-0.5,4.2-1.4,5.7c-0.9,1.6-2.1,2.8-3.6,3.8c-1.5,1-3.1,1.7-4.9,2.1c-1.8,0.4-3.7,0.6-5.5,0.6
		c-2.9,0-5.8-0.5-8.6-1.4c-2.8-0.9-5.2-2.3-7-4.1l6.6-7c1.1,1.2,2.4,2.1,3.9,2.9c1.5,0.8,3.2,1.2,4.9,1.2c1,0,1.9-0.2,2.8-0.7
		c0.9-0.5,1.4-1.3,1.4-2.4c0-1.1-0.6-1.9-1.7-2.5c-1.2-0.5-3-1.1-5.4-1.7c-1.2-0.3-2.5-0.7-3.7-1.2c-1.2-0.5-2.4-1.1-3.4-1.9
		c-1-0.8-1.8-1.8-2.4-3c-0.6-1.2-0.9-2.6-0.9-4.3c0-2.2,0.5-4,1.4-5.5c0.9-1.5,2.1-2.8,3.5-3.7c1.4-1,3-1.7,4.8-2.1
		c1.8-0.5,3.5-0.7,5.2-0.7c2.7,0,5.3,0.4,7.9,1.3c2.6,0.8,4.7,2.1,6.5,3.8L1285.6,215z"/>
	<path d="M210.6,317.3c0,0.9-0.2,1.8-0.5,2.6s-0.8,1.5-1.4,2.1c-0.6,0.6-1.3,1-2.2,1.4c-0.8,0.3-1.7,0.5-2.6,0.5
		c-1.9,0-3.5-0.6-4.8-1.9c-1.3-1.3-1.9-2.8-1.9-4.6c0-0.9,0.2-1.7,0.5-2.5c0.3-0.8,0.8-1.5,1.4-2.1c0.6-0.6,1.3-1,2.2-1.4
		c0.8-0.4,1.7-0.5,2.7-0.5c0.9,0,1.8,0.2,2.6,0.5c0.8,0.3,1.6,0.8,2.2,1.4c0.6,0.6,1.1,1.3,1.4,2.1
		C210.5,315.6,210.6,316.4,210.6,317.3z M198,364.7v-35.9h11.8v35.9H198z"/>
	<path d="M242.7,364.7v-19.6c0-1-0.1-2-0.3-2.9c-0.2-0.9-0.4-1.7-0.8-2.4c-0.4-0.7-0.9-1.2-1.6-1.7c-0.7-0.4-1.6-0.6-2.6-0.6
		c-1.1,0-2,0.2-2.8,0.6c-0.8,0.4-1.5,1-2,1.7c-0.5,0.7-0.9,1.5-1.2,2.5c-0.3,0.9-0.4,1.9-0.4,2.9v19.5h-11.9v-35.9h11.5v5h0.1
		c0.4-0.8,1-1.5,1.7-2.3c0.7-0.7,1.5-1.4,2.5-1.9c0.9-0.5,2-1,3.1-1.3c1.1-0.3,2.3-0.5,3.5-0.5c2.4,0,4.4,0.4,6.1,1.3
		c1.7,0.9,3,2,4.1,3.4c1,1.4,1.8,2.9,2.2,4.7c0.5,1.8,0.7,3.6,0.7,5.3v22.2H242.7z"/>
	<path d="M327.4,364.7v-19.6c0-1-0.1-2-0.2-2.9c-0.1-0.9-0.4-1.7-0.8-2.4c-0.4-0.7-0.9-1.2-1.5-1.6c-0.6-0.4-1.5-0.6-2.6-0.6
		c-1,0-1.9,0.2-2.6,0.6c-0.7,0.4-1.4,1-1.9,1.7c-0.5,0.7-0.9,1.5-1.1,2.5c-0.2,0.9-0.4,1.9-0.4,2.9v19.4h-11.8v-20.5
		c0-2.1-0.4-3.7-1.2-4.9c-0.8-1.2-2.1-1.8-3.9-1.8c-1.9,0-3.3,0.7-4.4,2.2c-1,1.5-1.5,3.3-1.5,5.5v19.5h-11.9v-35.9H293v5h0.1
		c0.4-0.8,1-1.5,1.6-2.2c0.6-0.7,1.4-1.4,2.3-1.9c0.9-0.6,1.9-1,3.1-1.3c1.1-0.3,2.4-0.5,3.7-0.5c2.6,0,4.8,0.5,6.6,1.6
		c1.8,1.1,3.2,2.6,4.2,4.5c1.2-1.9,2.7-3.4,4.6-4.5c1.9-1.1,4.2-1.7,6.8-1.7c2.5,0,4.5,0.4,6.2,1.3c1.7,0.9,3,2,4,3.5
		c1,1.4,1.7,3,2.2,4.8c0.5,1.8,0.7,3.5,0.7,5.2v22.2H327.4z"/>
	<path d="M361,317.3c0,0.9-0.2,1.8-0.5,2.6s-0.8,1.5-1.4,2.1c-0.6,0.6-1.3,1-2.2,1.4c-0.8,0.3-1.7,0.5-2.6,0.5
		c-1.9,0-3.5-0.6-4.8-1.9c-1.3-1.3-1.9-2.8-1.9-4.6c0-0.9,0.2-1.7,0.5-2.5c0.3-0.8,0.8-1.5,1.4-2.1c0.6-0.6,1.3-1,2.2-1.4
		c0.8-0.4,1.7-0.5,2.7-0.5c0.9,0,1.8,0.2,2.6,0.5c0.8,0.3,1.6,0.8,2.2,1.4c0.6,0.6,1.1,1.3,1.4,2.1C360.8,315.6,361,316.4,361,317.3
		z M348.3,364.7v-35.9h11.8v35.9H348.3z"/>
	<path d="M393.1,364.7v-19.6c0-1-0.1-2-0.3-2.9c-0.2-0.9-0.4-1.7-0.8-2.4c-0.4-0.7-0.9-1.2-1.6-1.7c-0.7-0.4-1.6-0.6-2.6-0.6
		c-1.1,0-2,0.2-2.8,0.6c-0.8,0.4-1.5,1-2,1.7c-0.5,0.7-0.9,1.5-1.2,2.5c-0.3,0.9-0.4,1.9-0.4,2.9v19.5h-11.9v-35.9h11.5v5h0.1
		c0.4-0.8,1-1.5,1.7-2.3c0.7-0.7,1.5-1.4,2.5-1.9c0.9-0.5,2-1,3.1-1.3c1.1-0.3,2.3-0.5,3.5-0.5c2.4,0,4.4,0.4,6.1,1.3
		c1.7,0.9,3,2,4.1,3.4c1,1.4,1.8,2.9,2.2,4.7c0.5,1.8,0.7,3.6,0.7,5.3v22.2H393.1z"/>
	<path d="M449.5,347.2c0,0.5,0,1,0,1.4c0,0.5,0,0.9-0.1,1.4h-26c0.1,1,0.4,1.9,0.9,2.7c0.5,0.8,1.2,1.5,1.9,2.1
		c0.8,0.6,1.7,1.1,2.7,1.4c1,0.3,2,0.5,3.1,0.5c1.9,0,3.5-0.3,4.8-1c1.3-0.7,2.4-1.6,3.2-2.7l8.2,5.2c-1.7,2.5-3.9,4.3-6.7,5.7
		c-2.8,1.3-6,2-9.6,2c-2.7,0-5.2-0.4-7.6-1.3c-2.4-0.8-4.5-2.1-6.3-3.7c-1.8-1.6-3.2-3.6-4.3-5.9c-1-2.4-1.5-5-1.5-8.1
		c0-2.9,0.5-5.6,1.5-8c1-2.4,2.4-4.4,4.1-6.1c1.7-1.7,3.8-2.9,6.1-3.9c2.4-0.9,4.9-1.4,7.6-1.4c2.6,0,5.1,0.4,7.3,1.3
		c2.2,0.9,4.1,2.2,5.7,3.9s2.8,3.7,3.7,6.1C449,341.3,449.5,344.1,449.5,347.2z M438.6,342.6c0-1.9-0.6-3.5-1.8-4.8
		c-1.2-1.3-2.9-2-5.3-2c-1.2,0-2.2,0.2-3.2,0.5c-1,0.4-1.8,0.9-2.5,1.5c-0.7,0.6-1.3,1.4-1.7,2.2c-0.4,0.8-0.7,1.7-0.7,2.6H438.6z"
		/>
	<path d="M481.6,340.4c-0.7-0.9-1.6-1.6-2.7-2.1c-1.2-0.5-2.3-0.8-3.5-0.8c-1.2,0-2.4,0.3-3.4,0.8c-1,0.5-1.9,1.2-2.6,2
		s-1.3,1.8-1.7,2.9c-0.4,1.1-0.6,2.3-0.6,3.5c0,1.2,0.2,2.4,0.6,3.5c0.4,1.1,0.9,2.1,1.7,2.9c0.7,0.8,1.6,1.5,2.7,2
		c1,0.5,2.2,0.7,3.5,0.7c1.2,0,2.4-0.2,3.6-0.7c1.2-0.5,2.1-1.1,2.8-2l6.6,8c-1.5,1.4-3.4,2.6-5.8,3.4c-2.4,0.8-4.9,1.2-7.5,1.2
		c-2.8,0-5.5-0.4-7.9-1.3c-2.5-0.9-4.6-2.1-6.4-3.8c-1.8-1.7-3.2-3.7-4.3-6c-1-2.4-1.6-5-1.6-8c0-2.9,0.5-5.6,1.6-7.9
		c1-2.4,2.5-4.4,4.3-6c1.8-1.7,3.9-2.9,6.4-3.8c2.5-0.9,5.1-1.3,7.9-1.3c1.3,0,2.6,0.1,3.9,0.4c1.3,0.2,2.5,0.6,3.7,1
		c1.2,0.4,2.3,0.9,3.2,1.5c1,0.6,1.8,1.3,2.6,2L481.6,340.4z"/>
	<path d="M516.4,338.5c-0.5-0.1-1-0.2-1.5-0.3c-0.5,0-1-0.1-1.5-0.1c-1.6,0-2.9,0.3-4,0.9c-1.1,0.6-1.9,1.3-2.6,2.1
		c-0.6,0.8-1.1,1.7-1.4,2.7c-0.3,1-0.4,1.8-0.4,2.5v18.4h-11.8v-35.8h11.4v5.2h0.1c0.9-1.8,2.2-3.3,3.9-4.5c1.7-1.2,3.6-1.7,5.8-1.7
		c0.5,0,0.9,0,1.4,0.1c0.5,0,0.8,0.1,1.1,0.2L516.4,338.5z"/>
	<path d="M520,333.7c2.1-2,4.6-3.5,7.4-4.5c2.8-1,5.7-1.5,8.6-1.5c3,0,5.6,0.4,7.7,1.1c2.1,0.7,3.8,1.9,5.1,3.5
		c1.3,1.6,2.2,3.5,2.8,5.9c0.6,2.4,0.9,5.2,0.9,8.5v18.1h-10.8v-3.8h-0.2c-0.9,1.5-2.3,2.6-4.1,3.5c-1.9,0.8-3.9,1.2-6,1.2
		c-1.4,0-2.9-0.2-4.5-0.6c-1.5-0.4-2.9-1-4.2-1.9c-1.3-0.9-2.3-2-3.1-3.5c-0.8-1.4-1.2-3.2-1.2-5.3c0-2.6,0.7-4.7,2.1-6.3
		c1.4-1.6,3.2-2.8,5.5-3.7c2.2-0.9,4.7-1.4,7.5-1.7s5.4-0.4,8-0.4v-0.6c0-1.8-0.6-3.1-1.9-3.9c-1.2-0.8-2.8-1.3-4.6-1.3
		c-1.7,0-3.3,0.4-4.9,1.1c-1.6,0.7-2.9,1.6-4,2.6L520,333.7z M541.7,349h-1.5c-1.3,0-2.6,0.1-3.9,0.2c-1.3,0.1-2.5,0.3-3.5,0.7
		c-1,0.3-1.9,0.8-2.6,1.5c-0.7,0.6-1,1.5-1,2.6c0,0.7,0.2,1.2,0.5,1.7c0.3,0.5,0.7,0.9,1.2,1.2c0.5,0.3,1,0.5,1.7,0.6
		c0.6,0.1,1.2,0.2,1.8,0.2c2.4,0,4.2-0.7,5.5-2c1.3-1.3,1.9-3.1,1.9-5.4V349z"/>
	<path d="M583.5,318.9c-0.4-0.1-0.9-0.3-1.5-0.4c-0.6-0.1-1.2-0.1-1.7-0.1c-1.1,0-2,0.2-2.7,0.6c-0.7,0.4-1.2,0.9-1.6,1.5
		c-0.4,0.6-0.6,1.4-0.8,2.2c-0.1,0.8-0.2,1.6-0.2,2.5v3.6h8v8.8h-8v27.1h-11.8v-27.1h-6.6v-8.8h6.6v-3.5c0-2.2,0.2-4.3,0.7-6.3
		c0.5-2,1.3-3.7,2.5-5.3c1.2-1.5,2.8-2.7,4.8-3.6c2-0.9,4.5-1.3,7.5-1.3c1,0,2,0.1,3,0.2c1,0.1,1.9,0.3,2.7,0.5L583.5,318.9z"/>
	<path d="M598.6,337.6v13.7c0,1.7,0.3,3,1,3.8c0.6,0.8,1.8,1.3,3.5,1.3c0.6,0,1.2,0,1.8-0.1c0.6-0.1,1.2-0.2,1.6-0.4l0.1,8.6
		c-0.8,0.3-1.9,0.5-3.1,0.8c-1.2,0.2-2.5,0.3-3.7,0.3c-2.4,0-4.4-0.3-6.1-0.9c-1.6-0.6-2.9-1.5-3.9-2.6c-1-1.1-1.7-2.5-2.1-4
		c-0.4-1.6-0.6-3.3-0.6-5.2v-15.2h-5.8v-8.8h5.7v-9.4h11.6v9.4h8.4v8.8H598.6z"/>
	<path d="M676.4,364.7v-19.6c0-1-0.1-2-0.2-2.9c-0.1-0.9-0.4-1.7-0.8-2.4c-0.4-0.7-0.9-1.2-1.5-1.6c-0.6-0.4-1.5-0.6-2.6-0.6
		c-1,0-1.9,0.2-2.6,0.6c-0.7,0.4-1.4,1-1.9,1.7c-0.5,0.7-0.9,1.5-1.1,2.5c-0.2,0.9-0.4,1.9-0.4,2.9v19.4h-11.8v-20.5
		c0-2.1-0.4-3.7-1.2-4.9c-0.8-1.2-2.1-1.8-3.9-1.8c-1.9,0-3.3,0.7-4.4,2.2c-1,1.5-1.5,3.3-1.5,5.5v19.5h-11.9v-35.9H642v5h0.1
		c0.4-0.8,1-1.5,1.6-2.2c0.6-0.7,1.4-1.4,2.3-1.9c0.9-0.6,1.9-1,3.1-1.3c1.1-0.3,2.4-0.5,3.7-0.5c2.6,0,4.8,0.5,6.6,1.6
		c1.8,1.1,3.2,2.6,4.2,4.5c1.2-1.9,2.7-3.4,4.6-4.5c1.9-1.1,4.2-1.7,6.8-1.7c2.5,0,4.5,0.4,6.2,1.3c1.7,0.9,3,2,4,3.5
		c1,1.4,1.7,3,2.2,4.8c0.5,1.8,0.7,3.5,0.7,5.2v22.2H676.4z"/>
	<path d="M735.2,346.6c0,2.9-0.5,5.6-1.6,8c-1.1,2.4-2.5,4.4-4.3,6.1c-1.8,1.7-3.9,2.9-6.3,3.9s-5,1.4-7.7,1.4
		c-2.7,0-5.2-0.5-7.7-1.4s-4.5-2.2-6.3-3.9c-1.8-1.7-3.2-3.7-4.3-6.1c-1.1-2.4-1.6-5-1.6-8c0-2.9,0.5-5.6,1.6-7.9
		c1.1-2.4,2.5-4.3,4.3-6c1.8-1.6,3.9-2.9,6.3-3.7c2.4-0.9,5-1.3,7.7-1.3c2.7,0,5.3,0.4,7.7,1.3c2.4,0.9,4.5,2.1,6.3,3.7
		c1.8,1.6,3.3,3.6,4.3,6C734.7,341,735.2,343.7,735.2,346.6z M723.8,346.6c0-1.2-0.2-2.3-0.6-3.4c-0.4-1.1-0.9-2.1-1.7-2.9
		s-1.6-1.5-2.7-2.1c-1.1-0.5-2.3-0.8-3.7-0.8c-1.4,0-2.6,0.3-3.7,0.8c-1.1,0.5-1.9,1.2-2.6,2.1s-1.2,1.8-1.6,2.9
		c-0.4,1.1-0.5,2.2-0.5,3.4s0.2,2.3,0.5,3.4c0.4,1.1,0.9,2.1,1.6,3c0.7,0.9,1.6,1.6,2.7,2.1c1.1,0.5,2.3,0.8,3.7,0.8
		c1.4,0,2.6-0.3,3.7-0.8c1.1-0.5,1.9-1.2,2.7-2.1c0.7-0.9,1.3-1.9,1.6-3C723.7,348.9,723.8,347.7,723.8,346.6z"/>
	<path d="M766,338.5c-0.5-0.1-1-0.2-1.5-0.3c-0.5,0-1-0.1-1.5-0.1c-1.6,0-2.9,0.3-4,0.9c-1.1,0.6-1.9,1.3-2.6,2.1
		c-0.6,0.8-1.1,1.7-1.4,2.7c-0.3,1-0.4,1.8-0.4,2.5v18.4h-11.8v-35.8h11.4v5.2h0.1c0.9-1.8,2.2-3.3,3.9-4.5c1.7-1.2,3.6-1.7,5.8-1.7
		c0.5,0,0.9,0,1.4,0.1c0.5,0,0.8,0.1,1.1,0.2L766,338.5z"/>
	<path d="M805.6,347.2c0,0.5,0,1,0,1.4c0,0.5,0,0.9-0.1,1.4h-26c0.1,1,0.4,1.9,0.9,2.7c0.5,0.8,1.2,1.5,1.9,2.1
		c0.8,0.6,1.7,1.1,2.7,1.4c1,0.3,2,0.5,3.1,0.5c1.9,0,3.5-0.3,4.8-1c1.3-0.7,2.4-1.6,3.2-2.7l8.2,5.2c-1.7,2.5-3.9,4.3-6.7,5.7
		c-2.8,1.3-6,2-9.6,2c-2.7,0-5.2-0.4-7.6-1.3c-2.4-0.8-4.5-2.1-6.3-3.7c-1.8-1.6-3.2-3.6-4.3-5.9c-1-2.4-1.5-5-1.5-8.1
		c0-2.9,0.5-5.6,1.5-8c1-2.4,2.4-4.4,4.1-6.1c1.7-1.7,3.8-2.9,6.1-3.9c2.4-0.9,4.9-1.4,7.6-1.4c2.6,0,5.1,0.4,7.3,1.3
		c2.2,0.9,4.1,2.2,5.7,3.9c1.6,1.7,2.8,3.7,3.7,6.1C805.1,341.3,805.6,344.1,805.6,347.2z M794.7,342.6c0-1.9-0.6-3.5-1.8-4.8
		c-1.2-1.3-2.9-2-5.3-2c-1.2,0-2.2,0.2-3.2,0.5s-1.8,0.9-2.5,1.5c-0.7,0.6-1.3,1.4-1.7,2.2c-0.4,0.8-0.7,1.7-0.7,2.6H794.7z"/>
	<path d="M843.8,317.3c0,0.9-0.2,1.8-0.5,2.6c-0.4,0.8-0.8,1.5-1.4,2.1c-0.6,0.6-1.3,1-2.2,1.4c-0.8,0.3-1.7,0.5-2.6,0.5
		c-1.9,0-3.5-0.6-4.8-1.9c-1.3-1.3-1.9-2.8-1.9-4.6c0-0.9,0.2-1.7,0.5-2.5c0.3-0.8,0.8-1.5,1.4-2.1c0.6-0.6,1.3-1,2.2-1.4
		c0.8-0.4,1.7-0.5,2.7-0.5c0.9,0,1.8,0.2,2.6,0.5c0.8,0.3,1.6,0.8,2.2,1.4c0.6,0.6,1.1,1.3,1.4,2.1
		C843.6,315.6,843.8,316.4,843.8,317.3z M831.1,364.7v-35.9h11.8v35.9H831.1z"/>
	<path d="M898.1,364.7v-19.6c0-1-0.1-2-0.2-2.9c-0.1-0.9-0.4-1.7-0.8-2.4c-0.4-0.7-0.9-1.2-1.5-1.6c-0.6-0.4-1.5-0.6-2.6-0.6
		c-1,0-1.9,0.2-2.6,0.6c-0.7,0.4-1.4,1-1.9,1.7c-0.5,0.7-0.9,1.5-1.1,2.5c-0.2,0.9-0.4,1.9-0.4,2.9v19.4h-11.8v-20.5
		c0-2.1-0.4-3.7-1.2-4.9c-0.8-1.2-2.1-1.8-3.9-1.8c-1.9,0-3.3,0.7-4.4,2.2c-1,1.5-1.5,3.3-1.5,5.5v19.5h-11.9v-35.9h11.5v5h0.1
		c0.4-0.8,1-1.5,1.6-2.2s1.4-1.4,2.3-1.9c0.9-0.6,1.9-1,3.1-1.3c1.1-0.3,2.4-0.5,3.7-0.5c2.6,0,4.8,0.5,6.6,1.6
		c1.8,1.1,3.2,2.6,4.2,4.5c1.2-1.9,2.7-3.4,4.6-4.5c1.9-1.1,4.2-1.7,6.8-1.7c2.5,0,4.5,0.4,6.2,1.3c1.7,0.9,3,2,4,3.5
		c1,1.4,1.7,3,2.2,4.8c0.5,1.8,0.7,3.5,0.7,5.2v22.2H898.1z"/>
	<path d="M964.7,364.7v-19.6c0-1-0.1-2-0.2-2.9c-0.1-0.9-0.4-1.7-0.8-2.4c-0.4-0.7-0.9-1.2-1.5-1.6c-0.6-0.4-1.5-0.6-2.6-0.6
		c-1,0-1.9,0.2-2.6,0.6c-0.7,0.4-1.4,1-1.9,1.7c-0.5,0.7-0.9,1.5-1.1,2.5c-0.2,0.9-0.4,1.9-0.4,2.9v19.4h-11.8v-20.5
		c0-2.1-0.4-3.7-1.2-4.9c-0.8-1.2-2.1-1.8-3.9-1.8c-1.9,0-3.3,0.7-4.4,2.2c-1,1.5-1.5,3.3-1.5,5.5v19.5h-11.9v-35.9h11.5v5h0.1
		c0.4-0.8,1-1.5,1.6-2.2s1.4-1.4,2.3-1.9c0.9-0.6,1.9-1,3.1-1.3c1.1-0.3,2.4-0.5,3.7-0.5c2.6,0,4.8,0.5,6.6,1.6
		c1.8,1.1,3.2,2.6,4.2,4.5c1.2-1.9,2.7-3.4,4.6-4.5c1.9-1.1,4.2-1.7,6.8-1.7c2.5,0,4.5,0.4,6.2,1.3c1.7,0.9,3,2,4,3.5
		c1,1.4,1.7,3,2.2,4.8c0.5,1.8,0.7,3.5,0.7,5.2v22.2H964.7z"/>
	<path d="M1021,347.2c0,0.5,0,1,0,1.4c0,0.5,0,0.9-0.1,1.4h-26c0.1,1,0.4,1.9,0.9,2.7c0.5,0.8,1.2,1.5,1.9,2.1
		c0.8,0.6,1.7,1.1,2.7,1.4c1,0.3,2,0.5,3.1,0.5c1.9,0,3.5-0.3,4.8-1c1.3-0.7,2.4-1.6,3.2-2.7l8.2,5.2c-1.7,2.5-3.9,4.3-6.7,5.7
		c-2.8,1.3-6,2-9.6,2c-2.7,0-5.2-0.4-7.6-1.3c-2.4-0.8-4.5-2.1-6.3-3.7c-1.8-1.6-3.2-3.6-4.3-5.9c-1-2.4-1.5-5-1.5-8.1
		c0-2.9,0.5-5.6,1.5-8c1-2.4,2.4-4.4,4.1-6.1c1.7-1.7,3.8-2.9,6.1-3.9c2.4-0.9,4.9-1.4,7.6-1.4c2.6,0,5.1,0.4,7.3,1.3
		c2.2,0.9,4.1,2.2,5.7,3.9c1.6,1.7,2.8,3.7,3.7,6.1C1020.6,341.3,1021,344.1,1021,347.2z M1010.2,342.6c0-1.9-0.6-3.5-1.8-4.8
		c-1.2-1.3-2.9-2-5.3-2c-1.2,0-2.2,0.2-3.2,0.5s-1.8,0.9-2.5,1.5c-0.7,0.6-1.3,1.4-1.7,2.2c-0.4,0.8-0.7,1.7-0.7,2.6H1010.2z"/>
	<path d="M1051.7,338.5c-0.5-0.1-1-0.2-1.5-0.3c-0.5,0-1-0.1-1.5-0.1c-1.6,0-2.9,0.3-4,0.9c-1.1,0.6-1.9,1.3-2.6,2.1
		c-0.6,0.8-1.1,1.7-1.4,2.7c-0.3,1-0.4,1.8-0.4,2.5v18.4h-11.8v-35.8h11.4v5.2h0.1c0.9-1.8,2.2-3.3,3.9-4.5c1.7-1.2,3.6-1.7,5.8-1.7
		c0.5,0,0.9,0,1.4,0.1c0.5,0,0.8,0.1,1.1,0.2L1051.7,338.5z"/>
	<path d="M1078.1,339.4c-1-0.9-2.1-1.7-3.4-2.3c-1.3-0.6-2.7-0.9-4.1-0.9c-1.1,0-2.1,0.2-3.1,0.6c-0.9,0.4-1.4,1.2-1.4,2.2
		c0,1,0.5,1.7,1.5,2.2c1,0.4,2.7,0.9,5,1.4c1.3,0.3,2.7,0.7,4.1,1.2c1.4,0.5,2.6,1.2,3.7,2.1c1.1,0.9,2,1.9,2.7,3.2
		c0.7,1.2,1,2.7,1,4.5c0,2.3-0.5,4.2-1.4,5.7c-0.9,1.6-2.1,2.8-3.6,3.8c-1.5,1-3.1,1.7-4.9,2.1c-1.8,0.4-3.7,0.6-5.5,0.6
		c-2.9,0-5.8-0.5-8.6-1.4c-2.8-0.9-5.2-2.3-7-4.1l6.6-7c1.1,1.2,2.4,2.1,3.9,2.9c1.5,0.8,3.2,1.2,4.9,1.2c1,0,1.9-0.2,2.8-0.7
		c0.9-0.5,1.4-1.3,1.4-2.4c0-1.1-0.6-1.9-1.7-2.5c-1.2-0.5-3-1.1-5.4-1.7c-1.2-0.3-2.5-0.7-3.7-1.2c-1.2-0.5-2.4-1.1-3.4-1.9
		c-1-0.8-1.8-1.8-2.4-3c-0.6-1.2-0.9-2.6-0.9-4.3c0-2.2,0.5-4,1.4-5.5c0.9-1.5,2.1-2.8,3.5-3.7c1.4-1,3-1.7,4.8-2.1
		c1.8-0.5,3.5-0.7,5.2-0.7c2.7,0,5.3,0.4,7.9,1.3c2.6,0.8,4.7,2.1,6.5,3.8L1078.1,339.4z"/>
	<path d="M1103.8,317.3c0,0.9-0.2,1.8-0.5,2.6c-0.4,0.8-0.8,1.5-1.4,2.1c-0.6,0.6-1.3,1-2.2,1.4c-0.8,0.3-1.7,0.5-2.6,0.5
		c-1.9,0-3.5-0.6-4.8-1.9c-1.3-1.3-1.9-2.8-1.9-4.6c0-0.9,0.2-1.7,0.5-2.5c0.3-0.8,0.8-1.5,1.4-2.1c0.6-0.6,1.3-1,2.2-1.4
		c0.8-0.4,1.7-0.5,2.7-0.5c0.9,0,1.8,0.2,2.6,0.5c0.8,0.3,1.6,0.8,2.2,1.4c0.6,0.6,1.1,1.3,1.4,2.1
		C1103.6,315.6,1103.8,316.4,1103.8,317.3z M1091.1,364.7v-35.9h11.8v35.9H1091.1z"/>
	<path d="M1134.5,364.7h-12.8l-14.1-35.9h13l7.6,23.3h0.2l7.6-23.3h12.6L1134.5,364.7z"/>
	<path d="M1188.7,347.2c0,0.5,0,1,0,1.4c0,0.5,0,0.9-0.1,1.4h-26c0.1,1,0.4,1.9,0.9,2.7c0.5,0.8,1.2,1.5,1.9,2.1
		c0.8,0.6,1.7,1.1,2.7,1.4c1,0.3,2,0.5,3.1,0.5c1.9,0,3.5-0.3,4.8-1c1.3-0.7,2.4-1.6,3.2-2.7l8.2,5.2c-1.7,2.5-3.9,4.3-6.7,5.7
		c-2.8,1.3-6,2-9.6,2c-2.7,0-5.2-0.4-7.6-1.3c-2.4-0.8-4.5-2.1-6.3-3.7c-1.8-1.6-3.2-3.6-4.3-5.9c-1-2.4-1.5-5-1.5-8.1
		c0-2.9,0.5-5.6,1.5-8c1-2.4,2.4-4.4,4.1-6.1c1.7-1.7,3.8-2.9,6.1-3.9c2.4-0.9,4.9-1.4,7.6-1.4c2.6,0,5.1,0.4,7.3,1.3
		c2.2,0.9,4.1,2.2,5.7,3.9c1.6,1.7,2.8,3.7,3.7,6.1C1188.3,341.3,1188.7,344.1,1188.7,347.2z M1177.9,342.6c0-1.9-0.6-3.5-1.8-4.8
		c-1.2-1.3-2.9-2-5.3-2c-1.2,0-2.2,0.2-3.2,0.5s-1.8,0.9-2.5,1.5c-0.7,0.6-1.3,1.4-1.7,2.2c-0.4,0.8-0.7,1.7-0.7,2.6H1177.9z"/>
	<path d="M1209.6,358.3c0,2-0.7,3.7-2.1,5c-1.4,1.3-3.1,2-5.1,2c-1,0-2-0.2-2.8-0.5c-0.9-0.4-1.7-0.9-2.3-1.5
		c-0.7-0.6-1.2-1.4-1.6-2.2c-0.4-0.8-0.6-1.8-0.6-2.8c0-1,0.2-1.9,0.6-2.7c0.4-0.9,0.9-1.6,1.6-2.3c0.7-0.6,1.5-1.2,2.3-1.5
		c0.9-0.4,1.8-0.6,2.8-0.6c2,0,3.7,0.7,5.1,2C1208.9,354.6,1209.6,356.3,1209.6,358.3z"/>
</g>
</svg>
