<?xml version="1.0" encoding="utf-8"?>
<!-- Generator: Adobe Illustrator 25.0.1, SVG Export Plug-In . SVG Version: 6.00 Build 0)  -->
<svg version="1.1"
	 id="svg38" xmlns:cc="http://creativecommons.org/ns#" xmlns:dc="http://purl.org/dc/elements/1.1/" xmlns:rdf="http://www.w3.org/1999/02/22-rdf-syntax-ns#" xmlns:svg="http://www.w3.org/2000/svg"
	 xmlns="http://www.w3.org/2000/svg" xmlns:xlink="http://www.w3.org/1999/xlink" x="0px" y="0px" viewBox="0 0 1404.2 361.9"
	 style="enable-background:new 0 0 1404.2 361.9;" xml:space="preserve">
<style type="text/css">
	.st0{enable-background:new    ;}
</style>
<g class="st0">
	<path d="M144.8,64.4c0,2.5-0.4,4.9-1.2,7.2c-0.8,2.3-1.9,4.3-3.4,6.1c-1.5,1.8-3.3,3.2-5.4,4.2c-2.1,1.1-4.5,1.6-7.2,1.6
		c-2.2,0-4.3-0.4-6.3-1.3c-2-0.9-3.5-2.1-4.6-3.6h-0.1v21.3h-11.8V46.6h11.2V51h0.2c1.1-1.4,2.6-2.7,4.6-3.8s4.2-1.6,6.9-1.6
		c2.6,0,4.9,0.5,7.1,1.5c2.1,1,3.9,2.4,5.4,4.1c1.5,1.7,2.6,3.7,3.4,6C144.4,59.6,144.8,61.9,144.8,64.4z M133.3,64.4
		c0-1.2-0.2-2.3-0.5-3.4c-0.4-1.1-0.9-2.1-1.6-2.9c-0.7-0.8-1.6-1.5-2.6-2.1c-1.1-0.5-2.3-0.8-3.7-0.8c-1.3,0-2.5,0.3-3.6,0.8
		c-1.1,0.5-2,1.2-2.7,2.1c-0.7,0.9-1.3,1.9-1.7,3c-0.4,1.1-0.6,2.2-0.6,3.4c0,1.2,0.2,2.3,0.6,3.4c0.4,1.1,1,2.1,1.7,3
		c0.7,0.9,1.6,1.6,2.7,2.1c1.1,0.5,2.3,0.8,3.6,0.8c1.4,0,2.6-0.3,3.7-0.8c1.1-0.5,1.9-1.2,2.6-2.1c0.7-0.9,1.2-1.9,1.6-3
		C133.1,66.7,133.3,65.6,133.3,64.4z"/>
	<path d="M175.5,56.4c-0.5-0.1-1-0.2-1.5-0.3c-0.5,0-1-0.1-1.5-0.1c-1.6,0-2.9,0.3-4,0.9c-1.1,0.6-1.9,1.3-2.6,2.1
		c-0.6,0.8-1.1,1.7-1.4,2.7c-0.3,1-0.4,1.8-0.4,2.5v18.4h-11.8V46.7h11.4v5.2h0.1c0.9-1.8,2.2-3.3,3.9-4.5c1.7-1.2,3.6-1.7,5.8-1.7
		c0.5,0,0.9,0,1.4,0.1c0.5,0,0.8,0.1,1.1,0.2L175.5,56.4z"/>
	<path d="M215,65c0,0.5,0,1,0,1.4c0,0.5,0,0.9-0.1,1.4h-26c0.1,1,0.4,1.9,0.9,2.7c0.5,0.8,1.2,1.5,1.9,2.1c0.8,0.6,1.7,1.1,2.7,1.4
		c1,0.3,2,0.5,3.1,0.5c1.9,0,3.5-0.3,4.8-1c1.3-0.7,2.4-1.6,3.2-2.7l8.2,5.2c-1.7,2.5-3.9,4.3-6.7,5.7c-2.8,1.3-6,2-9.6,2
		c-2.7,0-5.2-0.4-7.6-1.3c-2.4-0.8-4.5-2.1-6.3-3.7c-1.8-1.6-3.2-3.6-4.3-5.9c-1-2.4-1.5-5-1.5-8.1c0-2.9,0.5-5.6,1.5-8
		c1-2.4,2.4-4.4,4.1-6.1c1.7-1.7,3.8-2.9,6.1-3.9c2.4-0.9,4.9-1.4,7.6-1.4c2.6,0,5.1,0.4,7.3,1.3c2.2,0.9,4.1,2.2,5.7,3.9
		c1.6,1.7,2.8,3.7,3.7,6.1C214.6,59.2,215,61.9,215,65z M204.2,60.5c0-1.9-0.6-3.5-1.8-4.8c-1.2-1.3-2.9-2-5.3-2
		c-1.2,0-2.2,0.2-3.2,0.5c-1,0.4-1.8,0.9-2.5,1.5c-0.7,0.6-1.3,1.4-1.7,2.2c-0.4,0.8-0.7,1.7-0.7,2.6H204.2z"/>
	<path d="M247.2,58.2c-0.7-0.9-1.6-1.6-2.7-2.1c-1.2-0.5-2.3-0.8-3.5-0.8c-1.2,0-2.4,0.3-3.4,0.8c-1,0.5-1.9,1.2-2.6,2
		c-0.7,0.8-1.3,1.8-1.7,2.9c-0.4,1.1-0.6,2.3-0.6,3.5c0,1.2,0.2,2.4,0.6,3.5c0.4,1.1,0.9,2.1,1.7,2.9c0.7,0.8,1.6,1.5,2.7,2
		c1,0.5,2.2,0.7,3.5,0.7c1.2,0,2.4-0.2,3.6-0.7c1.2-0.5,2.1-1.1,2.8-2l6.6,8c-1.5,1.4-3.4,2.6-5.8,3.4c-2.4,0.8-4.9,1.2-7.5,1.2
		c-2.8,0-5.5-0.4-7.9-1.3s-4.6-2.1-6.4-3.8c-1.8-1.7-3.2-3.7-4.3-6c-1-2.4-1.6-5-1.6-8c0-2.9,0.5-5.6,1.6-7.9c1-2.4,2.5-4.4,4.3-6
		c1.8-1.7,3.9-2.9,6.4-3.8c2.5-0.9,5.1-1.3,7.9-1.3c1.3,0,2.6,0.1,3.9,0.4c1.3,0.2,2.5,0.6,3.7,1c1.2,0.4,2.3,0.9,3.2,1.5
		c1,0.6,1.8,1.3,2.6,2L247.2,58.2z"/>
	<path d="M271.5,35.2c0,0.9-0.2,1.8-0.5,2.6c-0.4,0.8-0.8,1.5-1.4,2.1c-0.6,0.6-1.3,1-2.2,1.4c-0.8,0.3-1.7,0.5-2.6,0.5
		c-1.9,0-3.5-0.6-4.8-1.9c-1.3-1.3-1.9-2.8-1.9-4.6c0-0.9,0.2-1.7,0.5-2.5c0.3-0.8,0.8-1.5,1.4-2.1c0.6-0.6,1.3-1,2.2-1.4
		c0.8-0.4,1.7-0.5,2.7-0.5c0.9,0,1.8,0.2,2.6,0.5c0.8,0.3,1.6,0.8,2.2,1.4c0.6,0.6,1.1,1.3,1.4,2.1
		C271.3,33.4,271.5,34.3,271.5,35.2z M258.8,82.5V46.6h11.8v35.9H258.8z"/>
	<path d="M301.1,57.2c-1-0.9-2.1-1.7-3.4-2.3c-1.3-0.6-2.7-0.9-4.1-0.9c-1.1,0-2.1,0.2-3.1,0.6c-0.9,0.4-1.4,1.2-1.4,2.2
		c0,1,0.5,1.7,1.5,2.2c1,0.4,2.7,0.9,5,1.4c1.3,0.3,2.7,0.7,4.1,1.2c1.4,0.5,2.6,1.2,3.7,2.1c1.1,0.9,2,1.9,2.7,3.2
		c0.7,1.2,1,2.7,1,4.5c0,2.3-0.5,4.2-1.4,5.7c-0.9,1.6-2.1,2.8-3.6,3.8c-1.5,1-3.1,1.7-4.9,2.1c-1.8,0.4-3.7,0.6-5.5,0.6
		c-2.9,0-5.8-0.5-8.6-1.4c-2.8-0.9-5.2-2.3-7-4.1l6.6-7c1.1,1.2,2.4,2.1,3.9,2.9c1.5,0.8,3.2,1.2,4.9,1.2c1,0,1.9-0.2,2.8-0.7
		c0.9-0.5,1.4-1.3,1.4-2.4c0-1.1-0.6-1.9-1.7-2.5c-1.2-0.5-3-1.1-5.4-1.7c-1.2-0.3-2.5-0.7-3.7-1.2c-1.2-0.5-2.4-1.1-3.4-1.9
		c-1-0.8-1.8-1.8-2.4-3c-0.6-1.2-0.9-2.6-0.9-4.3c0-2.2,0.5-4,1.4-5.5c0.9-1.5,2.1-2.8,3.5-3.7c1.4-1,3-1.7,4.8-2.1
		c1.8-0.5,3.5-0.7,5.2-0.7c2.7,0,5.3,0.4,7.9,1.3c2.6,0.8,4.7,2.1,6.5,3.8L301.1,57.2z"/>
	<path d="M326.8,35.2c0,0.9-0.2,1.8-0.5,2.6c-0.4,0.8-0.8,1.5-1.4,2.1c-0.6,0.6-1.3,1-2.2,1.4c-0.8,0.3-1.7,0.5-2.6,0.5
		c-1.9,0-3.5-0.6-4.8-1.9c-1.3-1.3-1.9-2.8-1.9-4.6c0-0.9,0.2-1.7,0.5-2.5c0.3-0.8,0.8-1.5,1.4-2.1c0.6-0.6,1.3-1,2.2-1.4
		c0.8-0.4,1.7-0.5,2.7-0.5c0.9,0,1.8,0.2,2.6,0.5c0.8,0.3,1.6,0.8,2.2,1.4c0.6,0.6,1.1,1.3,1.4,2.1
		C326.6,33.4,326.8,34.3,326.8,35.2z M314.1,82.5V46.6H326v35.9H314.1z"/>
	<path d="M373.4,64.4c0,2.9-0.5,5.6-1.6,8c-1.1,2.4-2.5,4.4-4.3,6.1c-1.8,1.7-3.9,2.9-6.3,3.9c-2.4,0.9-5,1.4-7.7,1.4
		c-2.7,0-5.2-0.5-7.7-1.4c-2.4-0.9-4.5-2.2-6.3-3.9s-3.2-3.7-4.3-6.1c-1.1-2.4-1.6-5-1.6-8c0-2.9,0.5-5.6,1.6-7.9
		c1.1-2.4,2.5-4.3,4.3-6c1.8-1.6,3.9-2.9,6.3-3.7c2.4-0.9,5-1.3,7.7-1.3c2.7,0,5.3,0.4,7.7,1.3c2.4,0.9,4.5,2.1,6.3,3.7
		c1.8,1.6,3.3,3.6,4.3,6C372.8,58.9,373.4,61.5,373.4,64.4z M362,64.4c0-1.2-0.2-2.3-0.6-3.4c-0.4-1.1-0.9-2.1-1.7-2.9
		c-0.7-0.8-1.6-1.5-2.7-2.1c-1.1-0.5-2.3-0.8-3.7-0.8c-1.4,0-2.6,0.3-3.7,0.8c-1.1,0.5-1.9,1.2-2.6,2.1c-0.7,0.8-1.2,1.8-1.6,2.9
		c-0.4,1.1-0.5,2.2-0.5,3.4c0,1.2,0.2,2.3,0.5,3.4c0.4,1.1,0.9,2.1,1.6,3c0.7,0.9,1.6,1.6,2.7,2.1c1.1,0.5,2.3,0.8,3.7,0.8
		c1.4,0,2.6-0.3,3.7-0.8c1.1-0.5,1.9-1.2,2.7-2.1c0.7-0.9,1.3-1.9,1.6-3C361.8,66.7,362,65.6,362,64.4z"/>
	<path d="M404.4,82.5V62.9c0-1-0.1-2-0.3-2.9c-0.2-0.9-0.4-1.7-0.8-2.4c-0.4-0.7-0.9-1.2-1.6-1.7c-0.7-0.4-1.6-0.6-2.6-0.6
		c-1.1,0-2,0.2-2.8,0.6c-0.8,0.4-1.5,1-2,1.7c-0.5,0.7-0.9,1.5-1.2,2.5c-0.3,0.9-0.4,1.9-0.4,2.9v19.5h-11.9V46.6h11.5v5h0.1
		c0.4-0.8,1-1.5,1.7-2.3c0.7-0.7,1.5-1.4,2.5-1.9c0.9-0.5,2-1,3.1-1.3c1.1-0.3,2.3-0.5,3.5-0.5c2.4,0,4.4,0.4,6.1,1.3
		c1.7,0.9,3,2,4.1,3.4c1,1.4,1.8,2.9,2.2,4.7c0.5,1.8,0.7,3.6,0.7,5.3v22.2H404.4z"/>
	<path d="M470.5,82.5v-4.7h-0.1c-1.2,1.8-2.8,3.2-4.9,4.2c-2.1,1-4.4,1.5-6.8,1.5c-2.7,0-5.1-0.5-7.2-1.6c-2.1-1.1-3.9-2.5-5.4-4.2
		c-1.5-1.8-2.6-3.8-3.4-6.1c-0.8-2.3-1.2-4.7-1.2-7.2c0-2.5,0.4-4.9,1.2-7.2c0.8-2.3,1.9-4.3,3.4-6c1.5-1.7,3.2-3.1,5.3-4.1
		c2.1-1,4.4-1.5,7-1.5c2.6,0,4.9,0.5,6.7,1.5c1.8,1,3.2,2.1,4.3,3.3h0.1V28h11.8v54.5H470.5z M470,64.5c0-1.2-0.2-2.3-0.6-3.4
		c-0.4-1.1-1-2.1-1.7-3c-0.7-0.9-1.6-1.6-2.7-2.1c-1.1-0.5-2.3-0.8-3.6-0.8c-1.4,0-2.6,0.3-3.7,0.8c-1.1,0.5-1.9,1.2-2.7,2.1
		c-0.7,0.8-1.3,1.8-1.6,2.9c-0.4,1.1-0.5,2.2-0.5,3.4c0,1.2,0.2,2.3,0.5,3.4c0.4,1.1,0.9,2.1,1.6,3c0.7,0.9,1.6,1.6,2.7,2.1
		c1.1,0.5,2.3,0.8,3.7,0.8c1.3,0,2.5-0.3,3.6-0.8c1.1-0.5,2-1.2,2.7-2.1c0.7-0.9,1.3-1.8,1.7-3C469.8,66.8,470,65.7,470,64.5z"/>
	<path d="M526.3,65c0,0.5,0,1,0,1.4c0,0.5,0,0.9-0.1,1.4h-26c0.1,1,0.4,1.9,0.9,2.7c0.5,0.8,1.2,1.5,1.9,2.1
		c0.8,0.6,1.7,1.1,2.7,1.4c1,0.3,2,0.5,3.1,0.5c1.9,0,3.5-0.3,4.8-1c1.3-0.7,2.4-1.6,3.2-2.7l8.2,5.2c-1.7,2.5-3.9,4.3-6.7,5.7
		c-2.8,1.3-6,2-9.6,2c-2.7,0-5.2-0.4-7.6-1.3c-2.4-0.8-4.5-2.1-6.3-3.7c-1.8-1.6-3.2-3.6-4.3-5.9c-1-2.4-1.5-5-1.5-8.1
		c0-2.9,0.5-5.6,1.5-8c1-2.4,2.4-4.4,4.1-6.1c1.7-1.7,3.8-2.9,6.1-3.9c2.4-0.9,4.9-1.4,7.6-1.4c2.6,0,5.1,0.4,7.3,1.3
		c2.2,0.9,4.1,2.2,5.7,3.9c1.6,1.7,2.8,3.7,3.7,6.1C525.9,59.2,526.3,61.9,526.3,65z M515.4,60.5c0-1.9-0.6-3.5-1.8-4.8
		c-1.2-1.3-2.9-2-5.3-2c-1.2,0-2.2,0.2-3.2,0.5c-1,0.4-1.8,0.9-2.5,1.5c-0.7,0.6-1.3,1.4-1.7,2.2c-0.4,0.8-0.7,1.7-0.7,2.6H515.4z"
		/>
	<path d="M554.8,57.2c-1-0.9-2.1-1.7-3.4-2.3c-1.3-0.6-2.7-0.9-4.1-0.9c-1.1,0-2.1,0.2-3.1,0.6c-0.9,0.4-1.4,1.2-1.4,2.2
		c0,1,0.5,1.7,1.5,2.2c1,0.4,2.7,0.9,5,1.4c1.3,0.3,2.7,0.7,4.1,1.2c1.4,0.5,2.6,1.2,3.7,2.1c1.1,0.9,2,1.9,2.7,3.2
		c0.7,1.2,1,2.7,1,4.5c0,2.3-0.5,4.2-1.4,5.7c-0.9,1.6-2.1,2.8-3.6,3.8c-1.5,1-3.1,1.7-4.9,2.1c-1.8,0.4-3.7,0.6-5.5,0.6
		c-2.9,0-5.8-0.5-8.6-1.4c-2.8-0.9-5.2-2.3-7-4.1l6.6-7c1.1,1.2,2.4,2.1,3.9,2.9c1.5,0.8,3.2,1.2,4.9,1.2c1,0,1.9-0.2,2.8-0.7
		c0.9-0.5,1.4-1.3,1.4-2.4c0-1.1-0.6-1.9-1.7-2.5c-1.2-0.5-3-1.1-5.4-1.7c-1.2-0.3-2.5-0.7-3.7-1.2c-1.2-0.5-2.4-1.1-3.4-1.9
		c-1-0.8-1.8-1.8-2.4-3c-0.6-1.2-0.9-2.6-0.9-4.3c0-2.2,0.5-4,1.4-5.5c0.9-1.5,2.1-2.8,3.5-3.7c1.4-1,3-1.7,4.8-2.1
		c1.8-0.5,3.5-0.7,5.2-0.7c2.7,0,5.3,0.4,7.9,1.3c2.6,0.8,4.7,2.1,6.5,3.8L554.8,57.2z"/>
	<path d="M580.5,35.2c0,0.9-0.2,1.8-0.5,2.6c-0.4,0.8-0.8,1.5-1.4,2.1c-0.6,0.6-1.3,1-2.2,1.4c-0.8,0.3-1.7,0.5-2.6,0.5
		c-1.9,0-3.5-0.6-4.8-1.9c-1.3-1.3-1.9-2.8-1.9-4.6c0-0.9,0.2-1.7,0.5-2.5c0.3-0.8,0.8-1.5,1.4-2.1c0.6-0.6,1.3-1,2.2-1.4
		c0.8-0.4,1.7-0.5,2.7-0.5c0.9,0,1.8,0.2,2.6,0.5c0.8,0.3,1.6,0.8,2.2,1.4c0.6,0.6,1.1,1.3,1.4,2.1
		C580.3,33.4,580.5,34.3,580.5,35.2z M567.8,82.5V46.6h11.8v35.9H567.8z"/>
	<path d="M627.1,79.1c0,3.5-0.5,6.6-1.5,9.2c-1,2.6-2.4,4.7-4.3,6.4c-1.8,1.7-4,3-6.7,3.8c-2.6,0.8-5.5,1.3-8.7,1.3
		s-6.4-0.5-9.8-1.4c-3.3-1-6.2-2.4-8.7-4.2l5.9-8.4c1.7,1.5,3.6,2.7,5.7,3.4c2.1,0.7,4.1,1.1,6.2,1.1c3.5,0,6-0.9,7.7-2.7
		c1.7-1.8,2.5-4.3,2.5-7.3v-2.2h-0.2c-1.1,1.4-2.6,2.6-4.5,3.5c-1.9,0.9-4,1.3-6.4,1.3c-2.7,0-5.2-0.5-7.3-1.5c-2.1-1-3.9-2.3-5.4-4
		c-1.5-1.7-2.6-3.6-3.4-5.9c-0.8-2.2-1.2-4.6-1.2-7.1c0-2.5,0.4-4.9,1.2-7.1c0.8-2.3,1.9-4.3,3.4-6c1.5-1.7,3.3-3.1,5.4-4.1
		c2.1-1,4.5-1.5,7.2-1.5c2.3,0,4.4,0.5,6.5,1.4c2.1,0.9,3.7,2.3,5,4.3h0.1v-4.6h11.2V79.1z M615.8,64.4c0-1.2-0.2-2.4-0.6-3.5
		c-0.4-1.1-1-2.1-1.8-2.9c-0.8-0.8-1.7-1.5-2.7-2c-1.1-0.5-2.3-0.7-3.6-0.7c-1.3,0-2.5,0.2-3.6,0.7c-1,0.5-1.9,1.1-2.6,1.9
		c-0.7,0.8-1.3,1.8-1.7,2.9c-0.4,1.1-0.6,2.3-0.6,3.5c0,1.2,0.2,2.4,0.6,3.5c0.4,1.1,0.9,2.1,1.7,2.9c0.7,0.8,1.6,1.5,2.6,2
		c1,0.5,2.2,0.8,3.6,0.8c1.3,0,2.6-0.3,3.6-0.8s2-1.2,2.7-2c0.7-0.8,1.3-1.8,1.7-2.9C615.6,66.8,615.8,65.6,615.8,64.4z"/>
	<path d="M660,82.5V62.9c0-1-0.1-2-0.3-2.9c-0.2-0.9-0.4-1.7-0.8-2.4c-0.4-0.7-0.9-1.2-1.6-1.7c-0.7-0.4-1.6-0.6-2.6-0.6
		c-1.1,0-2,0.2-2.8,0.6c-0.8,0.4-1.5,1-2,1.7c-0.5,0.7-0.9,1.5-1.2,2.5c-0.3,0.9-0.4,1.9-0.4,2.9v19.5h-11.9V46.6h11.5v5h0.1
		c0.4-0.8,1-1.5,1.7-2.3c0.7-0.7,1.5-1.4,2.5-1.9c0.9-0.5,2-1,3.1-1.3c1.1-0.3,2.3-0.5,3.5-0.5c2.4,0,4.4,0.4,6.1,1.3
		c1.7,0.9,3,2,4.1,3.4c1,1.4,1.8,2.9,2.2,4.7c0.5,1.8,0.7,3.6,0.7,5.3v22.2H660z"/>
	<path d="M716.4,65c0,0.5,0,1,0,1.4c0,0.5,0,0.9-0.1,1.4h-26c0.1,1,0.4,1.9,0.9,2.7c0.5,0.8,1.2,1.5,1.9,2.1
		c0.8,0.6,1.7,1.1,2.7,1.4c1,0.3,2,0.5,3.1,0.5c1.9,0,3.5-0.3,4.8-1c1.3-0.7,2.4-1.6,3.2-2.7L715,76c-1.7,2.5-3.9,4.3-6.7,5.7
		c-2.8,1.3-6,2-9.6,2c-2.7,0-5.2-0.4-7.6-1.3c-2.4-0.8-4.5-2.1-6.3-3.7c-1.8-1.6-3.2-3.6-4.3-5.9c-1-2.4-1.5-5-1.5-8.1
		c0-2.9,0.5-5.6,1.5-8c1-2.4,2.4-4.4,4.1-6.1c1.7-1.7,3.8-2.9,6.1-3.9c2.4-0.9,4.9-1.4,7.6-1.4c2.6,0,5.1,0.4,7.3,1.3
		c2.2,0.9,4.1,2.2,5.7,3.9c1.6,1.7,2.8,3.7,3.7,6.1C716,59.2,716.4,61.9,716.4,65z M705.5,60.5c0-1.9-0.6-3.5-1.8-4.8
		c-1.2-1.3-2.9-2-5.3-2c-1.2,0-2.2,0.2-3.2,0.5c-1,0.4-1.8,0.9-2.5,1.5c-0.7,0.6-1.3,1.4-1.7,2.2c-0.4,0.8-0.7,1.7-0.7,2.6H705.5z"
		/>
	<path d="M750.9,82.5v-4.7h-0.1c-1.2,1.8-2.8,3.2-4.9,4.2c-2.1,1-4.4,1.5-6.8,1.5c-2.7,0-5.1-0.5-7.2-1.6s-3.9-2.5-5.4-4.2
		c-1.5-1.8-2.6-3.8-3.4-6.1c-0.8-2.3-1.2-4.7-1.2-7.2c0-2.5,0.4-4.9,1.2-7.2c0.8-2.3,1.9-4.3,3.4-6c1.5-1.7,3.2-3.1,5.3-4.1
		s4.4-1.5,7-1.5c2.6,0,4.9,0.5,6.7,1.5c1.8,1,3.2,2.1,4.3,3.3h0.1V28h11.8v54.5H750.9z M750.5,64.5c0-1.2-0.2-2.3-0.6-3.4
		c-0.4-1.1-1-2.1-1.7-3s-1.6-1.6-2.7-2.1c-1.1-0.5-2.3-0.8-3.6-0.8c-1.4,0-2.6,0.3-3.7,0.8c-1.1,0.5-1.9,1.2-2.7,2.1
		c-0.7,0.8-1.3,1.8-1.6,2.9c-0.4,1.1-0.5,2.2-0.5,3.4c0,1.2,0.2,2.3,0.5,3.4c0.4,1.1,0.9,2.1,1.6,3c0.7,0.9,1.6,1.6,2.7,2.1
		c1.1,0.5,2.3,0.8,3.7,0.8c1.3,0,2.5-0.3,3.6-0.8c1.1-0.5,2-1.2,2.7-2.1c0.7-0.9,1.3-1.8,1.7-3C750.3,66.8,750.5,65.7,750.5,64.5z"
		/>
	<path d="M812.5,56.4c-0.5-0.1-1-0.2-1.5-0.3c-0.5,0-1-0.1-1.5-0.1c-1.6,0-2.9,0.3-4,0.9c-1.1,0.6-1.9,1.3-2.6,2.1
		c-0.6,0.8-1.1,1.7-1.4,2.7c-0.3,1-0.4,1.8-0.4,2.5v18.4h-11.8V46.7h11.4v5.2h0.1c0.9-1.8,2.2-3.3,3.9-4.5c1.7-1.2,3.6-1.7,5.8-1.7
		c0.5,0,0.9,0,1.4,0.1c0.5,0,0.8,0.1,1.1,0.2L812.5,56.4z"/>
	<path d="M852,65c0,0.5,0,1,0,1.4c0,0.5,0,0.9-0.1,1.4h-26c0.1,1,0.4,1.9,0.9,2.7c0.5,0.8,1.2,1.5,1.9,2.1c0.8,0.6,1.7,1.1,2.7,1.4
		c1,0.3,2,0.5,3.1,0.5c1.9,0,3.5-0.3,4.8-1c1.3-0.7,2.4-1.6,3.2-2.7l8.2,5.2c-1.7,2.5-3.9,4.3-6.7,5.7c-2.8,1.3-6,2-9.6,2
		c-2.7,0-5.2-0.4-7.6-1.3c-2.4-0.8-4.5-2.1-6.3-3.7c-1.8-1.6-3.2-3.6-4.3-5.9c-1-2.4-1.5-5-1.5-8.1c0-2.9,0.5-5.6,1.5-8
		c1-2.4,2.4-4.4,4.1-6.1s3.8-2.9,6.1-3.9c2.4-0.9,4.9-1.4,7.6-1.4c2.6,0,5.1,0.4,7.3,1.3c2.2,0.9,4.1,2.2,5.7,3.9
		c1.6,1.7,2.8,3.7,3.7,6.1C851.6,59.2,852,61.9,852,65z M841.2,60.5c0-1.9-0.6-3.5-1.8-4.8c-1.2-1.3-2.9-2-5.3-2
		c-1.2,0-2.2,0.2-3.2,0.5s-1.8,0.9-2.5,1.5c-0.7,0.6-1.3,1.4-1.7,2.2c-0.4,0.8-0.7,1.7-0.7,2.6H841.2z"/>
	<path d="M880.5,57.2c-1-0.9-2.1-1.7-3.4-2.3c-1.3-0.6-2.7-0.9-4.1-0.9c-1.1,0-2.1,0.2-3.1,0.6c-0.9,0.4-1.4,1.2-1.4,2.2
		c0,1,0.5,1.7,1.5,2.2c1,0.4,2.7,0.9,5,1.4c1.3,0.3,2.7,0.7,4.1,1.2c1.4,0.5,2.6,1.2,3.7,2.1c1.1,0.9,2,1.9,2.7,3.2
		c0.7,1.2,1,2.7,1,4.5c0,2.3-0.5,4.2-1.4,5.7c-0.9,1.6-2.1,2.8-3.6,3.8c-1.5,1-3.1,1.7-4.9,2.1c-1.8,0.4-3.7,0.6-5.5,0.6
		c-2.9,0-5.8-0.5-8.6-1.4c-2.8-0.9-5.2-2.3-7-4.1l6.6-7c1.1,1.2,2.4,2.1,3.9,2.9c1.5,0.8,3.2,1.2,4.9,1.2c1,0,1.9-0.2,2.8-0.7
		c0.9-0.5,1.4-1.3,1.4-2.4c0-1.1-0.6-1.9-1.7-2.5c-1.2-0.5-3-1.1-5.4-1.7c-1.2-0.3-2.5-0.7-3.7-1.2c-1.2-0.5-2.4-1.1-3.4-1.9
		c-1-0.8-1.8-1.8-2.4-3c-0.6-1.2-0.9-2.6-0.9-4.3c0-2.2,0.5-4,1.4-5.5c0.9-1.5,2.1-2.8,3.5-3.7c1.4-1,3-1.7,4.8-2.1
		c1.8-0.5,3.5-0.7,5.2-0.7c2.7,0,5.3,0.4,7.9,1.3c2.6,0.8,4.7,2.1,6.5,3.8L880.5,57.2z"/>
	<path d="M931.5,64.4c0,2.9-0.5,5.6-1.6,8c-1.1,2.4-2.5,4.4-4.3,6.1c-1.8,1.7-3.9,2.9-6.3,3.9c-2.4,0.9-5,1.4-7.7,1.4
		c-2.7,0-5.2-0.5-7.7-1.4c-2.4-0.9-4.5-2.2-6.3-3.9s-3.2-3.7-4.3-6.1c-1.1-2.4-1.6-5-1.6-8c0-2.9,0.5-5.6,1.6-7.9
		c1.1-2.4,2.5-4.3,4.3-6c1.8-1.6,3.9-2.9,6.3-3.7c2.4-0.9,5-1.3,7.7-1.3c2.7,0,5.3,0.4,7.7,1.3c2.4,0.9,4.5,2.1,6.3,3.7
		c1.8,1.6,3.3,3.6,4.3,6C930.9,58.9,931.5,61.5,931.5,64.4z M920.1,64.4c0-1.2-0.2-2.3-0.6-3.4c-0.4-1.1-0.9-2.1-1.7-2.9
		c-0.7-0.8-1.6-1.5-2.7-2.1c-1.1-0.5-2.3-0.8-3.7-0.8s-2.6,0.3-3.7,0.8c-1.1,0.5-1.9,1.2-2.6,2.1c-0.7,0.8-1.2,1.8-1.6,2.9
		c-0.4,1.1-0.5,2.2-0.5,3.4c0,1.2,0.2,2.3,0.5,3.4c0.4,1.1,0.9,2.1,1.6,3c0.7,0.9,1.6,1.6,2.7,2.1c1.1,0.5,2.3,0.8,3.7,0.8
		c1.4,0,2.6-0.3,3.7-0.8c1.1-0.5,1.9-1.2,2.7-2.1c0.7-0.9,1.3-1.9,1.6-3C919.9,66.7,920.1,65.6,920.1,64.4z"/>
	<path d="M962.6,82.5v-5h-0.1c-0.4,0.8-1,1.6-1.7,2.3c-0.7,0.7-1.5,1.3-2.5,1.9c-0.9,0.5-2,1-3.1,1.3c-1.1,0.3-2.3,0.5-3.6,0.5
		c-2.4,0-4.4-0.4-6.1-1.3c-1.7-0.9-3-2-4-3.4c-1-1.4-1.8-2.9-2.2-4.7c-0.5-1.8-0.7-3.5-0.7-5.4V46.6h11.9v19.5c0,1,0.1,2,0.2,2.9
		c0.1,0.9,0.4,1.7,0.8,2.5c0.4,0.7,0.9,1.3,1.6,1.7c0.7,0.4,1.6,0.6,2.7,0.6c2.1,0,3.6-0.8,4.7-2.3c1.1-1.5,1.6-3.3,1.6-5.4V46.6
		H974v35.9H962.6z"/>
	<path d="M1006.5,56.4c-0.5-0.1-1-0.2-1.5-0.3c-0.5,0-1-0.1-1.5-0.1c-1.6,0-2.9,0.3-4,0.9c-1.1,0.6-1.9,1.3-2.6,2.1
		c-0.6,0.8-1.1,1.7-1.4,2.7c-0.3,1-0.4,1.8-0.4,2.5v18.4h-11.8V46.7h11.4v5.2h0.1c0.9-1.8,2.2-3.3,3.9-4.5c1.7-1.2,3.6-1.7,5.8-1.7
		c0.5,0,0.9,0,1.4,0.1c0.5,0,0.8,0.1,1.1,0.2L1006.5,56.4z"/>
	<path d="M1035.2,58.2c-0.7-0.9-1.6-1.6-2.7-2.1c-1.2-0.5-2.3-0.8-3.5-0.8c-1.2,0-2.4,0.3-3.4,0.8c-1,0.5-1.9,1.2-2.6,2
		c-0.7,0.8-1.3,1.8-1.7,2.9c-0.4,1.1-0.6,2.3-0.6,3.5c0,1.2,0.2,2.4,0.6,3.5c0.4,1.1,0.9,2.1,1.7,2.9c0.7,0.8,1.6,1.5,2.7,2
		c1,0.5,2.2,0.7,3.5,0.7c1.2,0,2.4-0.2,3.6-0.7c1.2-0.5,2.1-1.1,2.8-2l6.6,8c-1.5,1.4-3.4,2.6-5.8,3.4c-2.4,0.8-4.9,1.2-7.5,1.2
		c-2.8,0-5.5-0.4-7.9-1.3s-4.6-2.1-6.4-3.8c-1.8-1.7-3.2-3.7-4.3-6c-1-2.4-1.6-5-1.6-8c0-2.9,0.5-5.6,1.6-7.9c1-2.4,2.5-4.4,4.3-6
		c1.8-1.7,3.9-2.9,6.4-3.8c2.5-0.9,5.1-1.3,7.9-1.3c1.3,0,2.6,0.1,3.9,0.4c1.3,0.2,2.5,0.6,3.7,1c1.2,0.4,2.3,0.9,3.2,1.5
		c1,0.6,1.8,1.3,2.6,2L1035.2,58.2z"/>
	<path d="M1082.3,65c0,0.5,0,1,0,1.4c0,0.5,0,0.9-0.1,1.4h-26c0.1,1,0.4,1.9,0.9,2.7c0.5,0.8,1.2,1.5,1.9,2.1
		c0.8,0.6,1.7,1.1,2.7,1.4c1,0.3,2,0.5,3.1,0.5c1.9,0,3.5-0.3,4.8-1c1.3-0.7,2.4-1.6,3.2-2.7l8.2,5.2c-1.7,2.5-3.9,4.3-6.7,5.7
		c-2.8,1.3-6,2-9.6,2c-2.7,0-5.2-0.4-7.6-1.3c-2.4-0.8-4.5-2.1-6.3-3.7c-1.8-1.6-3.2-3.6-4.3-5.9c-1-2.4-1.5-5-1.5-8.1
		c0-2.9,0.5-5.6,1.5-8c1-2.4,2.4-4.4,4.1-6.1s3.8-2.9,6.1-3.9c2.4-0.9,4.9-1.4,7.6-1.4c2.6,0,5.1,0.4,7.3,1.3
		c2.2,0.9,4.1,2.2,5.7,3.9c1.6,1.7,2.8,3.7,3.7,6.1C1081.9,59.2,1082.3,61.9,1082.3,65z M1071.4,60.5c0-1.9-0.6-3.5-1.8-4.8
		c-1.2-1.3-2.9-2-5.3-2c-1.2,0-2.2,0.2-3.2,0.5s-1.8,0.9-2.5,1.5c-0.7,0.6-1.3,1.4-1.7,2.2c-0.4,0.8-0.7,1.7-0.7,2.6H1071.4z"/>
	<path d="M1147.6,64.4c0,2.5-0.4,4.9-1.2,7.2c-0.8,2.3-1.9,4.3-3.4,6.1c-1.5,1.8-3.3,3.2-5.4,4.2c-2.1,1.1-4.5,1.6-7.2,1.6
		c-2.2,0-4.3-0.4-6.3-1.3c-2-0.9-3.5-2.1-4.6-3.6h-0.1v21.3h-11.8V46.6h11.2V51h0.2c1.1-1.4,2.6-2.7,4.6-3.8
		c1.9-1.1,4.2-1.6,6.9-1.6c2.6,0,4.9,0.5,7.1,1.5c2.1,1,3.9,2.4,5.4,4.1c1.5,1.7,2.6,3.7,3.4,6C1147.2,59.6,1147.6,61.9,1147.6,64.4
		z M1136.1,64.4c0-1.2-0.2-2.3-0.5-3.4c-0.4-1.1-0.9-2.1-1.6-2.9c-0.7-0.8-1.6-1.5-2.6-2.1c-1.1-0.5-2.3-0.8-3.7-0.8
		c-1.3,0-2.5,0.3-3.6,0.8c-1.1,0.5-2,1.2-2.7,2.1s-1.3,1.9-1.7,3c-0.4,1.1-0.6,2.2-0.6,3.4c0,1.2,0.2,2.3,0.6,3.4
		c0.4,1.1,1,2.1,1.7,3c0.7,0.9,1.6,1.6,2.7,2.1c1.1,0.5,2.3,0.8,3.6,0.8c1.4,0,2.6-0.3,3.7-0.8c1.1-0.5,1.9-1.2,2.6-2.1
		c0.7-0.9,1.2-1.9,1.6-3C1136,66.7,1136.1,65.6,1136.1,64.4z"/>
	<path d="M1154.5,51.5c2.1-2,4.6-3.5,7.4-4.5c2.8-1,5.7-1.5,8.6-1.5c3,0,5.6,0.4,7.7,1.1c2.1,0.7,3.8,1.9,5.1,3.5
		c1.3,1.6,2.2,3.5,2.8,5.9c0.6,2.4,0.9,5.2,0.9,8.5v18.1h-10.8v-3.8h-0.2c-0.9,1.5-2.3,2.6-4.1,3.5c-1.9,0.8-3.9,1.2-6,1.2
		c-1.4,0-2.9-0.2-4.5-0.6c-1.5-0.4-2.9-1-4.2-1.9c-1.3-0.9-2.3-2-3.1-3.5c-0.8-1.4-1.2-3.2-1.2-5.3c0-2.6,0.7-4.7,2.1-6.3
		c1.4-1.6,3.2-2.8,5.5-3.7s4.7-1.4,7.5-1.7s5.4-0.4,8-0.4v-0.6c0-1.8-0.6-3.1-1.9-3.9c-1.2-0.8-2.8-1.3-4.6-1.3
		c-1.7,0-3.3,0.4-4.9,1.1s-2.9,1.6-4,2.6L1154.5,51.5z M1176.2,66.9h-1.5c-1.3,0-2.6,0.1-3.9,0.2c-1.3,0.1-2.5,0.3-3.5,0.7
		c-1,0.3-1.9,0.8-2.6,1.5c-0.7,0.6-1,1.5-1,2.6c0,0.7,0.2,1.2,0.5,1.7c0.3,0.5,0.7,0.9,1.2,1.2c0.5,0.3,1,0.5,1.7,0.6
		c0.6,0.1,1.2,0.2,1.8,0.2c2.4,0,4.2-0.7,5.5-2c1.3-1.3,1.9-3.1,1.9-5.4V66.9z"/>
	<path d="M1220.6,58.2c-0.7-0.9-1.6-1.6-2.7-2.1c-1.2-0.5-2.3-0.8-3.5-0.8c-1.2,0-2.4,0.3-3.4,0.8c-1,0.5-1.9,1.2-2.6,2
		c-0.7,0.8-1.3,1.8-1.7,2.9c-0.4,1.1-0.6,2.3-0.6,3.5c0,1.2,0.2,2.4,0.6,3.5c0.4,1.1,0.9,2.1,1.7,2.9c0.7,0.8,1.6,1.5,2.7,2
		c1,0.5,2.2,0.7,3.5,0.7c1.2,0,2.4-0.2,3.6-0.7c1.2-0.5,2.1-1.1,2.8-2l6.6,8c-1.5,1.4-3.4,2.6-5.8,3.4c-2.4,0.8-4.9,1.2-7.5,1.2
		c-2.8,0-5.5-0.4-7.9-1.3s-4.6-2.1-6.4-3.8c-1.8-1.7-3.2-3.7-4.3-6c-1-2.4-1.6-5-1.6-8c0-2.9,0.5-5.6,1.6-7.9c1-2.4,2.5-4.4,4.3-6
		c1.8-1.7,3.9-2.9,6.4-3.8c2.5-0.9,5.1-1.3,7.9-1.3c1.3,0,2.6,0.1,3.9,0.4c1.3,0.2,2.5,0.6,3.7,1c1.2,0.4,2.3,0.9,3.2,1.5
		c1,0.6,1.8,1.3,2.6,2L1220.6,58.2z"/>
	<path d="M1270.6,82.5H1256l-11.7-17.2h-0.2v17.2h-11.9V28h11.9v33.2h0.2l11.5-14.6h14.3l-13.8,16.2L1270.6,82.5z"/>
	<path d="M1295.6,57.2c-1-0.9-2.1-1.7-3.4-2.3c-1.3-0.6-2.7-0.9-4.1-0.9c-1.1,0-2.1,0.2-3.1,0.6c-0.9,0.4-1.4,1.2-1.4,2.2
		c0,1,0.5,1.7,1.5,2.2c1,0.4,2.7,0.9,5,1.4c1.3,0.3,2.7,0.7,4.1,1.2c1.4,0.5,2.6,1.2,3.7,2.1c1.1,0.9,2,1.9,2.7,3.2
		c0.7,1.2,1,2.7,1,4.5c0,2.3-0.5,4.2-1.4,5.7c-0.9,1.6-2.1,2.8-3.6,3.8c-1.5,1-3.1,1.7-4.9,2.1c-1.8,0.4-3.7,0.6-5.5,0.6
		c-2.9,0-5.8-0.5-8.6-1.4c-2.8-0.9-5.2-2.3-7-4.1l6.6-7c1.1,1.2,2.4,2.1,3.9,2.9c1.5,0.8,3.2,1.2,4.9,1.2c1,0,1.9-0.2,2.8-0.7
		c0.9-0.5,1.4-1.3,1.4-2.4c0-1.1-0.6-1.9-1.7-2.5c-1.2-0.5-3-1.1-5.4-1.7c-1.2-0.3-2.5-0.7-3.7-1.2c-1.2-0.5-2.4-1.1-3.4-1.9
		c-1-0.8-1.8-1.8-2.4-3c-0.6-1.2-0.9-2.6-0.9-4.3c0-2.2,0.5-4,1.4-5.5c0.9-1.5,2.1-2.8,3.5-3.7c1.4-1,3-1.7,4.8-2.1
		c1.8-0.5,3.5-0.7,5.2-0.7c2.7,0,5.3,0.4,7.9,1.3c2.6,0.8,4.7,2.1,6.5,3.8L1295.6,57.2z"/>
	<path d="M139.6,182.6c-0.7-0.9-1.6-1.6-2.7-2.1c-1.2-0.5-2.3-0.8-3.5-0.8c-1.2,0-2.4,0.3-3.4,0.8c-1,0.5-1.9,1.2-2.6,2
		s-1.3,1.8-1.7,2.9c-0.4,1.1-0.6,2.3-0.6,3.5c0,1.2,0.2,2.4,0.6,3.5c0.4,1.1,0.9,2.1,1.7,2.9c0.7,0.8,1.6,1.5,2.7,2
		c1,0.5,2.2,0.7,3.5,0.7c1.2,0,2.4-0.2,3.6-0.7c1.2-0.5,2.1-1.1,2.8-2l6.6,8c-1.5,1.4-3.4,2.6-5.8,3.4c-2.4,0.8-4.9,1.2-7.5,1.2
		c-2.8,0-5.5-0.4-7.9-1.3c-2.5-0.9-4.6-2.1-6.4-3.8c-1.8-1.7-3.2-3.7-4.3-6c-1-2.4-1.6-5-1.6-8c0-2.9,0.5-5.6,1.6-7.9
		c1-2.4,2.5-4.4,4.3-6c1.8-1.7,3.9-2.9,6.4-3.8c2.5-0.9,5.1-1.3,7.9-1.3c1.3,0,2.6,0.1,3.9,0.4c1.3,0.2,2.5,0.6,3.7,1
		c1.2,0.4,2.3,0.9,3.2,1.5c1,0.6,1.8,1.3,2.6,2L139.6,182.6z"/>
	<path d="M174.4,180.7c-0.5-0.1-1-0.2-1.5-0.3c-0.5,0-1-0.1-1.5-0.1c-1.6,0-2.9,0.3-4,0.9c-1.1,0.6-1.9,1.3-2.6,2.1
		c-0.6,0.8-1.1,1.7-1.4,2.7c-0.3,1-0.4,1.8-0.4,2.5v18.4h-11.8v-35.8h11.4v5.2h0.1c0.9-1.8,2.2-3.3,3.9-4.5c1.7-1.2,3.6-1.7,5.8-1.7
		c0.5,0,0.9,0,1.4,0.1c0.5,0,0.8,0.1,1.1,0.2L174.4,180.7z"/>
	<path d="M213.9,189.4c0,0.5,0,1,0,1.4c0,0.5,0,0.9-0.1,1.4h-26c0.1,1,0.4,1.9,0.9,2.7c0.5,0.8,1.2,1.5,1.9,2.1
		c0.8,0.6,1.7,1.1,2.7,1.4c1,0.3,2,0.5,3.1,0.5c1.9,0,3.5-0.3,4.8-1c1.3-0.7,2.4-1.6,3.2-2.7l8.2,5.2c-1.7,2.5-3.9,4.3-6.7,5.7
		c-2.8,1.3-6,2-9.6,2c-2.7,0-5.2-0.4-7.6-1.3c-2.4-0.8-4.5-2.1-6.3-3.7c-1.8-1.6-3.2-3.6-4.3-5.9c-1-2.4-1.5-5-1.5-8.1
		c0-2.9,0.5-5.6,1.5-8c1-2.4,2.4-4.4,4.1-6.1c1.7-1.7,3.8-2.9,6.1-3.9c2.4-0.9,4.9-1.4,7.6-1.4c2.6,0,5.1,0.4,7.3,1.3
		c2.2,0.9,4.1,2.2,5.7,3.9s2.8,3.7,3.7,6.1C213.5,183.6,213.9,186.3,213.9,189.4z M203,184.9c0-1.9-0.6-3.5-1.8-4.8
		c-1.2-1.3-2.9-2-5.3-2c-1.2,0-2.2,0.2-3.2,0.5c-1,0.4-1.8,0.9-2.5,1.5c-0.7,0.6-1.3,1.4-1.7,2.2c-0.4,0.8-0.7,1.7-0.7,2.6H203z"/>
	<path d="M220.3,175.9c2.1-2,4.6-3.5,7.4-4.5c2.8-1,5.7-1.5,8.6-1.5c3,0,5.6,0.4,7.7,1.1c2.1,0.7,3.8,1.9,5.1,3.5
		c1.3,1.6,2.2,3.5,2.8,5.9c0.6,2.4,0.9,5.2,0.9,8.5v18.1H242v-3.8h-0.2c-0.9,1.5-2.3,2.6-4.1,3.5c-1.9,0.8-3.9,1.2-6,1.2
		c-1.4,0-2.9-0.2-4.5-0.6c-1.5-0.4-2.9-1-4.2-1.9c-1.3-0.9-2.3-2-3.1-3.5c-0.8-1.4-1.2-3.2-1.2-5.3c0-2.6,0.7-4.7,2.1-6.3
		c1.4-1.6,3.2-2.8,5.5-3.7c2.2-0.9,4.7-1.4,7.5-1.7s5.4-0.4,8-0.4v-0.6c0-1.8-0.6-3.1-1.9-3.9c-1.2-0.8-2.8-1.3-4.6-1.3
		c-1.7,0-3.3,0.4-4.9,1.1c-1.6,0.7-2.9,1.6-4,2.6L220.3,175.9z M242,191.3h-1.5c-1.3,0-2.6,0.1-3.9,0.2c-1.3,0.1-2.5,0.3-3.5,0.7
		c-1,0.3-1.9,0.8-2.6,1.5c-0.7,0.6-1,1.5-1,2.6c0,0.7,0.2,1.2,0.5,1.7c0.3,0.5,0.7,0.9,1.2,1.2c0.5,0.3,1,0.5,1.7,0.6
		c0.6,0.1,1.2,0.2,1.8,0.2c2.4,0,4.2-0.7,5.5-2c1.3-1.3,1.9-3.1,1.9-5.4V191.3z"/>
	<path d="M273.7,179.8v13.7c0,1.7,0.3,3,1,3.8c0.6,0.8,1.8,1.3,3.5,1.3c0.6,0,1.2,0,1.8-0.1c0.6-0.1,1.2-0.2,1.6-0.4l0.1,8.6
		c-0.8,0.3-1.9,0.5-3.1,0.8c-1.2,0.2-2.5,0.3-3.7,0.3c-2.4,0-4.4-0.3-6.1-0.9c-1.6-0.6-2.9-1.5-3.9-2.6c-1-1.1-1.7-2.5-2.1-4
		c-0.4-1.6-0.6-3.3-0.6-5.2v-15.2h-5.8V171h5.7v-9.4h11.6v9.4h8.4v8.8H273.7z"/>
	<path d="M323.3,189.4c0,0.5,0,1,0,1.4c0,0.5,0,0.9-0.1,1.4h-26c0.1,1,0.4,1.9,0.9,2.7c0.5,0.8,1.2,1.5,1.9,2.1
		c0.8,0.6,1.7,1.1,2.7,1.4c1,0.3,2,0.5,3.1,0.5c1.9,0,3.5-0.3,4.8-1c1.3-0.7,2.4-1.6,3.2-2.7l8.2,5.2c-1.7,2.5-3.9,4.3-6.7,5.7
		c-2.8,1.3-6,2-9.6,2c-2.7,0-5.2-0.4-7.6-1.3c-2.4-0.8-4.5-2.1-6.3-3.7c-1.8-1.6-3.2-3.6-4.3-5.9c-1-2.4-1.5-5-1.5-8.1
		c0-2.9,0.5-5.6,1.5-8c1-2.4,2.4-4.4,4.1-6.1c1.7-1.7,3.8-2.9,6.1-3.9c2.4-0.9,4.9-1.4,7.6-1.4c2.6,0,5.1,0.4,7.3,1.3
		c2.2,0.9,4.1,2.2,5.7,3.9s2.8,3.7,3.7,6.1C322.9,183.6,323.3,186.3,323.3,189.4z M312.4,184.9c0-1.9-0.6-3.5-1.8-4.8
		c-1.2-1.3-2.9-2-5.3-2c-1.2,0-2.2,0.2-3.2,0.5c-1,0.4-1.8,0.9-2.5,1.5c-0.7,0.6-1.3,1.4-1.7,2.2c-0.4,0.8-0.7,1.7-0.7,2.6H312.4z"
		/>
	<path d="M357.8,206.9v-4.7h-0.1c-1.2,1.8-2.8,3.2-4.9,4.2c-2.1,1-4.4,1.5-6.8,1.5c-2.7,0-5.1-0.5-7.2-1.6c-2.1-1.1-3.9-2.5-5.4-4.2
		c-1.5-1.8-2.6-3.8-3.4-6.1c-0.8-2.3-1.2-4.7-1.2-7.2c0-2.5,0.4-4.9,1.2-7.2c0.8-2.3,1.9-4.3,3.4-6c1.5-1.7,3.2-3.1,5.3-4.1
		c2.1-1,4.4-1.5,7-1.5c2.6,0,4.9,0.5,6.7,1.5c1.8,1,3.2,2.1,4.3,3.3h0.1v-22.4h11.8v54.5H357.8z M357.4,188.9c0-1.2-0.2-2.3-0.6-3.4
		c-0.4-1.1-1-2.1-1.7-3c-0.7-0.9-1.6-1.6-2.7-2.1c-1.1-0.5-2.3-0.8-3.6-0.8c-1.4,0-2.6,0.3-3.7,0.8c-1.1,0.5-1.9,1.2-2.7,2.1
		s-1.3,1.8-1.6,2.9c-0.4,1.1-0.5,2.2-0.5,3.4s0.2,2.3,0.5,3.4c0.4,1.1,0.9,2.1,1.6,3c0.7,0.9,1.6,1.6,2.7,2.1
		c1.1,0.5,2.3,0.8,3.7,0.8c1.3,0,2.5-0.3,3.6-0.8c1.1-0.5,2-1.2,2.7-2.1c0.7-0.9,1.3-1.8,1.7-3C357.2,191.2,357.4,190,357.4,188.9z"
		/>
	<path d="M408.9,179.8v13.7c0,1.7,0.3,3,1,3.8c0.6,0.8,1.8,1.3,3.5,1.3c0.6,0,1.2,0,1.8-0.1c0.6-0.1,1.2-0.2,1.6-0.4l0.1,8.6
		c-0.8,0.3-1.9,0.5-3.1,0.8c-1.2,0.2-2.5,0.3-3.7,0.3c-2.4,0-4.4-0.3-6.1-0.9c-1.6-0.6-2.9-1.5-3.9-2.6c-1-1.1-1.7-2.5-2.1-4
		c-0.4-1.6-0.6-3.3-0.6-5.2v-15.2h-5.8V171h5.7v-9.4h11.6v9.4h8.4v8.8H408.9z"/>
	<path d="M461,188.8c0,2.9-0.5,5.6-1.6,8c-1.1,2.4-2.5,4.4-4.3,6.1c-1.8,1.7-3.9,2.9-6.3,3.9c-2.4,0.9-5,1.4-7.7,1.4
		c-2.7,0-5.2-0.5-7.7-1.4c-2.4-0.9-4.5-2.2-6.3-3.9c-1.8-1.7-3.2-3.7-4.3-6.1c-1.1-2.4-1.6-5-1.6-8c0-2.9,0.5-5.6,1.6-7.9
		c1.1-2.4,2.5-4.3,4.3-6c1.8-1.6,3.9-2.9,6.3-3.7c2.4-0.9,5-1.3,7.7-1.3c2.7,0,5.3,0.4,7.7,1.3c2.4,0.9,4.5,2.1,6.3,3.7
		c1.8,1.6,3.3,3.6,4.3,6C460.4,183.2,461,185.9,461,188.8z M449.6,188.8c0-1.2-0.2-2.3-0.6-3.4c-0.4-1.1-0.9-2.1-1.7-2.9
		s-1.6-1.5-2.7-2.1c-1.1-0.5-2.3-0.8-3.7-0.8c-1.4,0-2.6,0.3-3.7,0.8c-1.1,0.5-1.9,1.2-2.6,2.1c-0.7,0.8-1.2,1.8-1.6,2.9
		c-0.4,1.1-0.5,2.2-0.5,3.4s0.2,2.3,0.5,3.4c0.4,1.1,0.9,2.1,1.6,3c0.7,0.9,1.6,1.6,2.7,2.1c1.1,0.5,2.3,0.8,3.7,0.8
		c1.4,0,2.6-0.3,3.7-0.8c1.1-0.5,1.9-1.2,2.7-2.1c0.7-0.9,1.3-1.9,1.6-3C449.4,191.1,449.6,190,449.6,188.8z"/>
	<path d="M532.3,206.9v-19.6c0-1-0.1-2-0.2-2.9c-0.1-0.9-0.4-1.7-0.8-2.4c-0.4-0.7-0.9-1.2-1.5-1.6c-0.6-0.4-1.5-0.6-2.6-0.6
		c-1,0-1.9,0.2-2.6,0.6c-0.7,0.4-1.4,1-1.9,1.7c-0.5,0.7-0.9,1.5-1.1,2.5c-0.2,0.9-0.4,1.9-0.4,2.9v19.4h-11.8v-20.5
		c0-2.1-0.4-3.7-1.2-4.9c-0.8-1.2-2.1-1.8-3.9-1.8c-1.9,0-3.3,0.7-4.4,2.2c-1,1.5-1.5,3.3-1.5,5.5v19.5h-11.9V171h11.5v5h0.1
		c0.4-0.8,1-1.5,1.6-2.2c0.6-0.7,1.4-1.4,2.3-1.9c0.9-0.6,1.9-1,3.1-1.3c1.1-0.3,2.4-0.5,3.7-0.5c2.6,0,4.8,0.5,6.6,1.6
		c1.8,1.1,3.2,2.6,4.2,4.5c1.2-1.9,2.7-3.4,4.6-4.5c1.9-1.1,4.2-1.7,6.8-1.7c2.5,0,4.5,0.4,6.2,1.3c1.7,0.9,3,2,4,3.5
		c1,1.4,1.7,3,2.2,4.8c0.5,1.8,0.7,3.5,0.7,5.2v22.2H532.3z"/>
	<path d="M552.6,175.9c2.1-2,4.6-3.5,7.4-4.5c2.8-1,5.7-1.5,8.6-1.5c3,0,5.6,0.4,7.7,1.1c2.1,0.7,3.8,1.9,5.1,3.5
		c1.3,1.6,2.2,3.5,2.8,5.9c0.6,2.4,0.9,5.2,0.9,8.5v18.1h-10.8v-3.8H574c-0.9,1.5-2.3,2.6-4.1,3.5c-1.9,0.8-3.9,1.2-6,1.2
		c-1.4,0-2.9-0.2-4.5-0.6c-1.5-0.4-2.9-1-4.2-1.9c-1.3-0.9-2.3-2-3.1-3.5c-0.8-1.4-1.2-3.2-1.2-5.3c0-2.6,0.7-4.7,2.1-6.3
		c1.4-1.6,3.2-2.8,5.5-3.7c2.2-0.9,4.7-1.4,7.5-1.7s5.4-0.4,8-0.4v-0.6c0-1.8-0.6-3.1-1.9-3.9c-1.2-0.8-2.8-1.3-4.6-1.3
		c-1.7,0-3.3,0.4-4.9,1.1c-1.6,0.7-2.9,1.6-4,2.6L552.6,175.9z M574.3,191.3h-1.5c-1.3,0-2.6,0.1-3.9,0.2c-1.3,0.1-2.5,0.3-3.5,0.7
		c-1,0.3-1.9,0.8-2.6,1.5c-0.7,0.6-1,1.5-1,2.6c0,0.7,0.2,1.2,0.5,1.7c0.3,0.5,0.7,0.9,1.2,1.2c0.5,0.3,1,0.5,1.7,0.6
		c0.6,0.1,1.2,0.2,1.8,0.2c2.4,0,4.2-0.7,5.5-2c1.3-1.3,1.9-3.1,1.9-5.4V191.3z"/>
	<path d="M632.4,206.9h-14.6L606,189.7h-0.2v17.2h-11.9v-54.5h11.9v33.2h0.2l11.5-14.6h14.3L618,187.2L632.4,206.9z"/>
	<path d="M671.1,189.4c0,0.5,0,1,0,1.4c0,0.5,0,0.9-0.1,1.4h-26c0.1,1,0.4,1.9,0.9,2.7c0.5,0.8,1.2,1.5,1.9,2.1
		c0.8,0.6,1.7,1.1,2.7,1.4c1,0.3,2,0.5,3.1,0.5c1.9,0,3.5-0.3,4.8-1c1.3-0.7,2.4-1.6,3.2-2.7l8.2,5.2c-1.7,2.5-3.9,4.3-6.7,5.7
		c-2.8,1.3-6,2-9.6,2c-2.7,0-5.2-0.4-7.6-1.3c-2.4-0.8-4.5-2.1-6.3-3.7c-1.8-1.6-3.2-3.6-4.3-5.9c-1-2.4-1.5-5-1.5-8.1
		c0-2.9,0.5-5.6,1.5-8c1-2.4,2.4-4.4,4.1-6.1c1.7-1.7,3.8-2.9,6.1-3.9c2.4-0.9,4.9-1.4,7.6-1.4c2.6,0,5.1,0.4,7.3,1.3
		c2.2,0.9,4.1,2.2,5.7,3.9s2.8,3.7,3.7,6.1C670.6,183.6,671.1,186.3,671.1,189.4z M660.2,184.9c0-1.9-0.6-3.5-1.8-4.8
		c-1.2-1.3-2.9-2-5.3-2c-1.2,0-2.2,0.2-3.2,0.5c-1,0.4-1.8,0.9-2.5,1.5c-0.7,0.6-1.3,1.4-1.7,2.2c-0.4,0.8-0.7,1.7-0.7,2.6H660.2z"
		/>
	<path d="M716.7,212.3c-0.7,1.9-1.5,3.5-2.4,5c-0.9,1.5-1.9,2.7-3.2,3.7s-2.7,1.8-4.3,2.3c-1.7,0.5-3.6,0.8-5.9,0.8
		c-1.1,0-2.2-0.1-3.4-0.2c-1.2-0.1-2.2-0.3-3.1-0.6l1.3-9.9c0.6,0.2,1.2,0.3,1.9,0.5c0.7,0.1,1.3,0.2,1.9,0.2c1.8,0,3.1-0.4,4-1.3
		c0.8-0.8,1.5-2,2.1-3.6l1.2-3l-15-35.3h13.1l8,23.1h0.2l7.1-23.1h12.5L716.7,212.3z"/>
	<path d="M775.3,188.8c0,2.9-0.5,5.6-1.6,8c-1.1,2.4-2.5,4.4-4.3,6.1c-1.8,1.7-3.9,2.9-6.3,3.9c-2.4,0.9-5,1.4-7.7,1.4
		c-2.7,0-5.2-0.5-7.7-1.4c-2.4-0.9-4.5-2.2-6.3-3.9c-1.8-1.7-3.2-3.7-4.3-6.1c-1.1-2.4-1.6-5-1.6-8c0-2.9,0.5-5.6,1.6-7.9
		c1.1-2.4,2.5-4.3,4.3-6c1.8-1.6,3.9-2.9,6.3-3.7c2.4-0.9,5-1.3,7.7-1.3c2.7,0,5.3,0.4,7.7,1.3c2.4,0.9,4.5,2.1,6.3,3.7
		c1.8,1.6,3.3,3.6,4.3,6C774.8,183.2,775.3,185.9,775.3,188.8z M763.9,188.8c0-1.2-0.2-2.3-0.6-3.4c-0.4-1.1-0.9-2.1-1.7-2.9
		s-1.6-1.5-2.7-2.1c-1.1-0.5-2.3-0.8-3.7-0.8s-2.6,0.3-3.7,0.8c-1.1,0.5-1.9,1.2-2.6,2.1c-0.7,0.8-1.2,1.8-1.6,2.9
		c-0.4,1.1-0.5,2.2-0.5,3.4s0.2,2.3,0.5,3.4c0.4,1.1,0.9,2.1,1.6,3c0.7,0.9,1.6,1.6,2.7,2.1c1.1,0.5,2.3,0.8,3.7,0.8
		c1.4,0,2.6-0.3,3.7-0.8c1.1-0.5,1.9-1.2,2.7-2.1c0.7-0.9,1.3-1.9,1.6-3C763.8,191.1,763.9,190,763.9,188.8z"/>
	<path d="M806.5,206.9v-5h-0.1c-0.4,0.8-1,1.6-1.7,2.3c-0.7,0.7-1.5,1.3-2.5,1.9c-0.9,0.5-2,1-3.1,1.3c-1.1,0.3-2.3,0.5-3.6,0.5
		c-2.4,0-4.4-0.4-6.1-1.3c-1.7-0.9-3-2-4-3.4c-1-1.4-1.8-2.9-2.2-4.7c-0.5-1.8-0.7-3.5-0.7-5.4V171h11.9v19.5c0,1,0.1,2,0.2,2.9
		c0.1,0.9,0.4,1.7,0.8,2.5c0.4,0.7,0.9,1.3,1.6,1.7c0.7,0.4,1.6,0.6,2.7,0.6c2.1,0,3.6-0.8,4.7-2.3c1.1-1.5,1.6-3.3,1.6-5.4V171
		h11.8v35.9H806.5z"/>
	<path d="M850.4,180.7c-0.5-0.1-1-0.2-1.5-0.3c-0.5,0-1-0.1-1.5-0.1c-1.6,0-2.9,0.3-4,0.9c-1.1,0.6-1.9,1.3-2.6,2.1
		c-0.6,0.8-1.1,1.7-1.4,2.7c-0.3,1-0.4,1.8-0.4,2.5v18.4h-11.8v-35.8h11.4v5.2h0.1c0.9-1.8,2.2-3.3,3.9-4.5c1.7-1.2,3.6-1.7,5.8-1.7
		c0.5,0,0.9,0,1.4,0.1c0.5,0,0.8,0.1,1.1,0.2L850.4,180.7z"/>
	<path d="M909.2,189.4c0,0.5,0,1,0,1.4c0,0.5,0,0.9-0.1,1.4h-26c0.1,1,0.4,1.9,0.9,2.7c0.5,0.8,1.2,1.5,1.9,2.1
		c0.8,0.6,1.7,1.1,2.7,1.4c1,0.3,2,0.5,3.1,0.5c1.9,0,3.5-0.3,4.8-1c1.3-0.7,2.4-1.6,3.2-2.7l8.2,5.2c-1.7,2.5-3.9,4.3-6.7,5.7
		c-2.8,1.3-6,2-9.6,2c-2.7,0-5.2-0.4-7.6-1.3c-2.4-0.8-4.5-2.1-6.3-3.7c-1.8-1.6-3.2-3.6-4.3-5.9c-1-2.4-1.5-5-1.5-8.1
		c0-2.9,0.5-5.6,1.5-8c1-2.4,2.4-4.4,4.1-6.1c1.7-1.7,3.8-2.9,6.1-3.9c2.4-0.9,4.9-1.4,7.6-1.4c2.6,0,5.1,0.4,7.3,1.3
		c2.2,0.9,4.1,2.2,5.7,3.9c1.6,1.7,2.8,3.7,3.7,6.1C908.8,183.6,909.2,186.3,909.2,189.4z M898.4,184.9c0-1.9-0.6-3.5-1.8-4.8
		c-1.2-1.3-2.9-2-5.3-2c-1.2,0-2.2,0.2-3.2,0.5s-1.8,0.9-2.5,1.5c-0.7,0.6-1.3,1.4-1.7,2.2c-0.4,0.8-0.7,1.7-0.7,2.6H898.4z"/>
	<path d="M939.5,206.9l-7.7-11l-7.9,11h-13.7l14.3-18.8l-13-17.1h13.8l6.7,9.6l6.8-9.6h13.3l-12.9,17.1l14.2,18.8H939.5z"/>
	<path d="M997.7,188.8c0,2.5-0.4,4.9-1.2,7.2c-0.8,2.3-1.9,4.3-3.4,6.1c-1.5,1.8-3.3,3.2-5.4,4.2c-2.1,1.1-4.5,1.6-7.2,1.6
		c-2.2,0-4.3-0.4-6.3-1.3s-3.5-2.1-4.6-3.6h-0.1v21.3h-11.8V171H969v4.4h0.2c1.1-1.4,2.6-2.7,4.6-3.8c1.9-1.1,4.2-1.6,6.9-1.6
		c2.6,0,4.9,0.5,7.1,1.5c2.1,1,3.9,2.4,5.4,4.1c1.5,1.7,2.6,3.7,3.4,6C997.3,183.9,997.7,186.3,997.7,188.8z M986.3,188.8
		c0-1.2-0.2-2.3-0.5-3.4c-0.4-1.1-0.9-2.1-1.6-2.9c-0.7-0.8-1.6-1.5-2.6-2.1c-1.1-0.5-2.3-0.8-3.7-0.8c-1.3,0-2.5,0.3-3.6,0.8
		c-1.1,0.5-2,1.2-2.7,2.1c-0.7,0.9-1.3,1.9-1.7,3c-0.4,1.1-0.6,2.2-0.6,3.4c0,1.2,0.2,2.3,0.6,3.4c0.4,1.1,1,2.1,1.7,3
		c0.7,0.9,1.6,1.6,2.7,2.1c1.1,0.5,2.3,0.8,3.6,0.8c1.4,0,2.6-0.3,3.7-0.8c1.1-0.5,1.9-1.2,2.6-2.1c0.7-0.9,1.2-1.9,1.6-3
		C986.1,191.1,986.3,190,986.3,188.8z"/>
	<path d="M1040.8,189.4c0,0.5,0,1,0,1.4c0,0.5,0,0.9-0.1,1.4h-26c0.1,1,0.4,1.9,0.9,2.7c0.5,0.8,1.2,1.5,1.9,2.1
		c0.8,0.6,1.7,1.1,2.7,1.4c1,0.3,2,0.5,3.1,0.5c1.9,0,3.5-0.3,4.8-1c1.3-0.7,2.4-1.6,3.2-2.7l8.2,5.2c-1.7,2.5-3.9,4.3-6.7,5.7
		c-2.8,1.3-6,2-9.6,2c-2.7,0-5.2-0.4-7.6-1.3c-2.4-0.8-4.5-2.1-6.3-3.7c-1.8-1.6-3.2-3.6-4.3-5.9c-1-2.4-1.5-5-1.5-8.1
		c0-2.9,0.5-5.6,1.5-8c1-2.4,2.4-4.4,4.1-6.1c1.7-1.7,3.8-2.9,6.1-3.9c2.4-0.9,4.9-1.4,7.6-1.4c2.6,0,5.1,0.4,7.3,1.3
		c2.2,0.9,4.1,2.2,5.7,3.9c1.6,1.7,2.8,3.7,3.7,6.1C1040.3,183.6,1040.8,186.3,1040.8,189.4z M1029.9,184.9c0-1.9-0.6-3.5-1.8-4.8
		c-1.2-1.3-2.9-2-5.3-2c-1.2,0-2.2,0.2-3.2,0.5s-1.8,0.9-2.5,1.5c-0.7,0.6-1.3,1.4-1.7,2.2c-0.4,0.8-0.7,1.7-0.7,2.6H1029.9z"/>
	<path d="M1071.4,180.7c-0.5-0.1-1-0.2-1.5-0.3c-0.5,0-1-0.1-1.5-0.1c-1.6,0-2.9,0.3-4,0.9c-1.1,0.6-1.9,1.3-2.6,2.1
		c-0.6,0.8-1.1,1.7-1.4,2.7c-0.3,1-0.4,1.8-0.4,2.5v18.4h-11.8v-35.8h11.4v5.2h0.1c0.9-1.8,2.2-3.3,3.9-4.5c1.7-1.2,3.6-1.7,5.8-1.7
		c0.5,0,0.9,0,1.4,0.1c0.5,0,0.8,0.1,1.1,0.2L1071.4,180.7z"/>
	<path d="M1089.5,159.6c0,0.9-0.2,1.8-0.5,2.6c-0.4,0.8-0.8,1.5-1.4,2.1c-0.6,0.6-1.3,1-2.2,1.4c-0.8,0.3-1.7,0.5-2.6,0.5
		c-1.9,0-3.5-0.6-4.8-1.9c-1.3-1.3-1.9-2.8-1.9-4.6c0-0.9,0.2-1.7,0.5-2.5c0.3-0.8,0.8-1.5,1.4-2.1c0.6-0.6,1.3-1,2.2-1.4
		c0.8-0.4,1.7-0.5,2.7-0.5c0.9,0,1.8,0.2,2.6,0.5c0.8,0.3,1.6,0.8,2.2,1.4c0.6,0.6,1.1,1.3,1.4,2.1
		C1089.3,157.8,1089.5,158.6,1089.5,159.6z M1076.8,206.9V171h11.8v35.9H1076.8z"/>
	<path d="M1133.6,189.4c0,0.5,0,1,0,1.4c0,0.5,0,0.9-0.1,1.4h-26c0.1,1,0.4,1.9,0.9,2.7c0.5,0.8,1.2,1.5,1.9,2.1
		c0.8,0.6,1.7,1.1,2.7,1.4c1,0.3,2,0.5,3.1,0.5c1.9,0,3.5-0.3,4.8-1c1.3-0.7,2.4-1.6,3.2-2.7l8.2,5.2c-1.7,2.5-3.9,4.3-6.7,5.7
		c-2.8,1.3-6,2-9.6,2c-2.7,0-5.2-0.4-7.6-1.3c-2.4-0.8-4.5-2.1-6.3-3.7c-1.8-1.6-3.2-3.6-4.3-5.9c-1-2.4-1.5-5-1.5-8.1
		c0-2.9,0.5-5.6,1.5-8c1-2.4,2.4-4.4,4.1-6.1c1.7-1.7,3.8-2.9,6.1-3.9c2.4-0.9,4.9-1.4,7.6-1.4c2.6,0,5.1,0.4,7.3,1.3
		c2.2,0.9,4.1,2.2,5.7,3.9c1.6,1.7,2.8,3.7,3.7,6.1C1133.1,183.6,1133.6,186.3,1133.6,189.4z M1122.7,184.9c0-1.9-0.6-3.5-1.8-4.8
		c-1.2-1.3-2.9-2-5.3-2c-1.2,0-2.2,0.2-3.2,0.5s-1.8,0.9-2.5,1.5c-0.7,0.6-1.3,1.4-1.7,2.2c-0.4,0.8-0.7,1.7-0.7,2.6H1122.7z"/>
	<path d="M1164.5,206.9v-19.6c0-1-0.1-2-0.3-2.9c-0.2-0.9-0.4-1.7-0.8-2.4c-0.4-0.7-0.9-1.2-1.6-1.7s-1.6-0.6-2.6-0.6
		c-1.1,0-2,0.2-2.8,0.6c-0.8,0.4-1.5,1-2,1.7c-0.5,0.7-0.9,1.5-1.2,2.5c-0.3,0.9-0.4,1.9-0.4,2.9v19.5h-11.9V171h11.5v5h0.1
		c0.4-0.8,1-1.5,1.7-2.3c0.7-0.7,1.5-1.4,2.5-1.9c0.9-0.5,2-1,3.1-1.3c1.1-0.3,2.3-0.5,3.5-0.5c2.4,0,4.4,0.4,6.1,1.3
		c1.7,0.9,3,2,4.1,3.4c1,1.4,1.8,2.9,2.2,4.7c0.5,1.8,0.7,3.6,0.7,5.3v22.2H1164.5z"/>
	<path d="M1210.1,182.6c-0.7-0.9-1.6-1.6-2.7-2.1c-1.2-0.5-2.3-0.8-3.5-0.8c-1.2,0-2.4,0.3-3.4,0.8c-1,0.5-1.9,1.2-2.6,2
		s-1.3,1.8-1.7,2.9c-0.4,1.1-0.6,2.3-0.6,3.5c0,1.2,0.2,2.4,0.6,3.5c0.4,1.1,0.9,2.1,1.7,2.9c0.7,0.8,1.6,1.5,2.7,2
		c1,0.5,2.2,0.7,3.5,0.7c1.2,0,2.4-0.2,3.6-0.7c1.2-0.5,2.1-1.1,2.8-2l6.6,8c-1.5,1.4-3.4,2.6-5.8,3.4c-2.4,0.8-4.9,1.2-7.5,1.2
		c-2.8,0-5.5-0.4-7.9-1.3c-2.5-0.9-4.6-2.1-6.4-3.8c-1.8-1.7-3.2-3.7-4.3-6c-1-2.4-1.6-5-1.6-8c0-2.9,0.5-5.6,1.6-7.9
		c1-2.4,2.5-4.4,4.3-6c1.8-1.7,3.9-2.9,6.4-3.8c2.5-0.9,5.1-1.3,7.9-1.3c1.3,0,2.6,0.1,3.9,0.4c1.3,0.2,2.5,0.6,3.7,1
		c1.2,0.4,2.3,0.9,3.2,1.5c1,0.6,1.8,1.3,2.6,2L1210.1,182.6z"/>
	<path d="M1257.2,189.4c0,0.5,0,1,0,1.4c0,0.5,0,0.9-0.1,1.4h-26c0.1,1,0.4,1.9,0.9,2.7c0.5,0.8,1.2,1.5,1.9,2.1
		c0.8,0.6,1.7,1.1,2.7,1.4c1,0.3,2,0.5,3.1,0.5c1.9,0,3.5-0.3,4.8-1c1.3-0.7,2.4-1.6,3.2-2.7l8.2,5.2c-1.7,2.5-3.9,4.3-6.7,5.7
		c-2.8,1.3-6,2-9.6,2c-2.7,0-5.2-0.4-7.6-1.3c-2.4-0.8-4.5-2.1-6.3-3.7c-1.8-1.6-3.2-3.6-4.3-5.9c-1-2.4-1.5-5-1.5-8.1
		c0-2.9,0.5-5.6,1.5-8c1-2.4,2.4-4.4,4.1-6.1c1.7-1.7,3.8-2.9,6.1-3.9c2.4-0.9,4.9-1.4,7.6-1.4c2.6,0,5.1,0.4,7.3,1.3
		c2.2,0.9,4.1,2.2,5.7,3.9c1.6,1.7,2.8,3.7,3.7,6.1C1256.7,183.6,1257.2,186.3,1257.2,189.4z M1246.3,184.9c0-1.9-0.6-3.5-1.8-4.8
		c-1.2-1.3-2.9-2-5.3-2c-1.2,0-2.2,0.2-3.2,0.5s-1.8,0.9-2.5,1.5c-0.7,0.6-1.3,1.4-1.7,2.2c-0.4,0.8-0.7,1.7-0.7,2.6H1246.3z"/>
	<path d="M1285.6,181.6c-1-0.9-2.1-1.7-3.4-2.3c-1.3-0.6-2.7-0.9-4.1-0.9c-1.1,0-2.1,0.2-3.1,0.6c-0.9,0.4-1.4,1.2-1.4,2.2
		c0,1,0.5,1.7,1.5,2.2c1,0.4,2.7,0.9,5,1.4c1.3,0.3,2.7,0.7,4.1,1.2c1.4,0.5,2.6,1.2,3.7,2.1c1.1,0.9,2,1.9,2.7,3.2
		c0.7,1.2,1,2.7,1,4.5c0,2.3-0.5,4.2-1.4,5.7c-0.9,1.6-2.1,2.8-3.6,3.8c-1.5,1-3.1,1.7-4.9,2.1c-1.8,0.4-3.7,0.6-5.5,0.6
		c-2.9,0-5.8-0.5-8.6-1.4c-2.8-0.9-5.2-2.3-7-4.1l6.6-7c1.1,1.2,2.4,2.1,3.9,2.9c1.5,0.8,3.2,1.2,4.9,1.2c1,0,1.9-0.2,2.8-0.7
		c0.9-0.5,1.4-1.3,1.4-2.4c0-1.1-0.6-1.9-1.7-2.5c-1.2-0.5-3-1.1-5.4-1.7c-1.2-0.3-2.5-0.7-3.7-1.2c-1.2-0.5-2.4-1.1-3.4-1.9
		c-1-0.8-1.8-1.8-2.4-3c-0.6-1.2-0.9-2.6-0.9-4.3c0-2.2,0.5-4,1.4-5.5c0.9-1.5,2.1-2.8,3.5-3.7c1.4-1,3-1.7,4.8-2.1
		c1.8-0.5,3.5-0.7,5.2-0.7c2.7,0,5.3,0.4,7.9,1.3c2.6,0.8,4.7,2.1,6.5,3.8L1285.6,181.6z"/>
	<path d="M27.8,283.9c0,0.9-0.2,1.8-0.5,2.6s-0.8,1.5-1.4,2.1c-0.6,0.6-1.3,1-2.2,1.4c-0.8,0.3-1.7,0.5-2.6,0.5
		c-1.9,0-3.5-0.6-4.8-1.9c-1.3-1.3-1.9-2.8-1.9-4.6c0-0.9,0.2-1.7,0.5-2.5c0.3-0.8,0.8-1.5,1.4-2.1c0.6-0.6,1.3-1,2.2-1.4
		c0.8-0.4,1.7-0.5,2.7-0.5c0.9,0,1.8,0.2,2.6,0.5c0.8,0.3,1.6,0.8,2.2,1.4c0.6,0.6,1.1,1.3,1.4,2.1C27.6,282.2,27.8,283,27.8,283.9z
		 M15.1,331.3v-35.9h11.8v35.9H15.1z"/>
	<path d="M59.8,331.3v-19.6c0-1-0.1-2-0.3-2.9c-0.2-0.9-0.4-1.7-0.8-2.4c-0.4-0.7-0.9-1.2-1.6-1.7c-0.7-0.4-1.6-0.6-2.6-0.6
		c-1.1,0-2,0.2-2.8,0.6c-0.8,0.4-1.5,1-2,1.7c-0.5,0.7-0.9,1.5-1.2,2.5c-0.3,0.9-0.4,1.9-0.4,2.9v19.5H36.3v-35.9h11.5v5h0.1
		c0.4-0.8,1-1.5,1.7-2.3c0.7-0.7,1.5-1.4,2.5-1.9c0.9-0.5,2-1,3.1-1.3c1.1-0.3,2.3-0.5,3.5-0.5c2.4,0,4.4,0.4,6.1,1.3
		c1.7,0.9,3,2,4.1,3.4c1,1.4,1.8,2.9,2.2,4.7c0.5,1.8,0.7,3.6,0.7,5.3v22.2H59.8z"/>
	<path d="M144.5,331.3v-19.6c0-1-0.1-2-0.2-2.9c-0.1-0.9-0.4-1.7-0.8-2.4c-0.4-0.7-0.9-1.2-1.5-1.6c-0.6-0.4-1.5-0.6-2.6-0.6
		c-1,0-1.9,0.2-2.6,0.6c-0.7,0.4-1.4,1-1.9,1.7c-0.5,0.7-0.9,1.5-1.1,2.5c-0.2,0.9-0.4,1.9-0.4,2.9v19.4h-11.8v-20.5
		c0-2.1-0.4-3.7-1.2-4.9c-0.8-1.2-2.1-1.8-3.9-1.8c-1.9,0-3.3,0.7-4.4,2.2c-1,1.5-1.5,3.3-1.5,5.5v19.5H98.7v-35.9h11.5v5h0.1
		c0.4-0.8,1-1.5,1.6-2.2c0.6-0.7,1.4-1.4,2.3-1.9c0.9-0.6,1.9-1,3.1-1.3c1.1-0.3,2.4-0.5,3.7-0.5c2.6,0,4.8,0.5,6.6,1.6
		c1.8,1.1,3.2,2.6,4.2,4.5c1.2-1.9,2.7-3.4,4.6-4.5c1.9-1.1,4.2-1.7,6.8-1.7c2.5,0,4.5,0.4,6.2,1.3c1.7,0.9,3,2,4,3.5
		c1,1.4,1.7,3,2.2,4.8c0.5,1.8,0.7,3.5,0.7,5.2v22.2H144.5z"/>
	<path d="M178.1,283.9c0,0.9-0.2,1.8-0.5,2.6s-0.8,1.5-1.4,2.1c-0.6,0.6-1.3,1-2.2,1.4c-0.8,0.3-1.7,0.5-2.6,0.5
		c-1.9,0-3.5-0.6-4.8-1.9c-1.3-1.3-1.9-2.8-1.9-4.6c0-0.9,0.2-1.7,0.5-2.5c0.3-0.8,0.8-1.5,1.4-2.1c0.6-0.6,1.3-1,2.2-1.4
		c0.8-0.4,1.7-0.5,2.7-0.5c0.9,0,1.8,0.2,2.6,0.5c0.8,0.3,1.6,0.8,2.2,1.4c0.6,0.6,1.1,1.3,1.4,2.1
		C177.9,282.2,178.1,283,178.1,283.9z M165.4,331.3v-35.9h11.8v35.9H165.4z"/>
	<path d="M210.2,331.3v-19.6c0-1-0.1-2-0.3-2.9c-0.2-0.9-0.4-1.7-0.8-2.4c-0.4-0.7-0.9-1.2-1.6-1.7c-0.7-0.4-1.6-0.6-2.6-0.6
		c-1.1,0-2,0.2-2.8,0.6c-0.8,0.4-1.5,1-2,1.7c-0.5,0.7-0.9,1.5-1.2,2.5c-0.3,0.9-0.4,1.9-0.4,2.9v19.5h-11.9v-35.9h11.5v5h0.1
		c0.4-0.8,1-1.5,1.7-2.3c0.7-0.7,1.5-1.4,2.5-1.9c0.9-0.5,2-1,3.1-1.3c1.1-0.3,2.3-0.5,3.5-0.5c2.4,0,4.4,0.4,6.1,1.3
		c1.7,0.9,3,2,4.1,3.4c1,1.4,1.8,2.9,2.2,4.7c0.5,1.8,0.7,3.6,0.7,5.3v22.2H210.2z"/>
	<path d="M266.6,313.8c0,0.5,0,1,0,1.4c0,0.5,0,0.9-0.1,1.4h-26c0.1,1,0.4,1.9,0.9,2.7c0.5,0.8,1.2,1.5,1.9,2.1
		c0.8,0.6,1.7,1.1,2.7,1.4c1,0.3,2,0.5,3.1,0.5c1.9,0,3.5-0.3,4.8-1c1.3-0.7,2.4-1.6,3.2-2.7l8.2,5.2c-1.7,2.5-3.9,4.3-6.7,5.7
		c-2.8,1.3-6,2-9.6,2c-2.7,0-5.2-0.4-7.6-1.3c-2.4-0.8-4.5-2.1-6.3-3.7c-1.8-1.6-3.2-3.6-4.3-5.9c-1-2.4-1.5-5-1.5-8.1
		c0-2.9,0.5-5.6,1.5-8c1-2.4,2.4-4.4,4.1-6.1c1.7-1.7,3.8-2.9,6.1-3.9c2.4-0.9,4.9-1.4,7.6-1.4c2.6,0,5.1,0.4,7.3,1.3
		c2.2,0.9,4.1,2.2,5.7,3.9s2.8,3.7,3.7,6.1C266.2,308,266.6,310.7,266.6,313.8z M255.7,309.2c0-1.9-0.6-3.5-1.8-4.8
		c-1.2-1.3-2.9-2-5.3-2c-1.2,0-2.2,0.2-3.2,0.5c-1,0.4-1.8,0.9-2.5,1.5c-0.7,0.6-1.3,1.4-1.7,2.2c-0.4,0.8-0.7,1.7-0.7,2.6H255.7z"
		/>
	<path d="M298.8,307c-0.7-0.9-1.6-1.6-2.7-2.1c-1.2-0.5-2.3-0.8-3.5-0.8c-1.2,0-2.4,0.3-3.4,0.8c-1,0.5-1.9,1.2-2.6,2
		s-1.3,1.8-1.7,2.9c-0.4,1.1-0.6,2.3-0.6,3.5c0,1.2,0.2,2.4,0.6,3.5c0.4,1.1,0.9,2.1,1.7,2.9c0.7,0.8,1.6,1.5,2.7,2
		c1,0.5,2.2,0.7,3.5,0.7c1.2,0,2.4-0.2,3.6-0.7c1.2-0.5,2.1-1.1,2.8-2l6.6,8c-1.5,1.4-3.4,2.6-5.8,3.4c-2.4,0.8-4.9,1.2-7.5,1.2
		c-2.8,0-5.5-0.4-7.9-1.3c-2.5-0.9-4.6-2.1-6.4-3.8c-1.8-1.7-3.2-3.7-4.3-6c-1-2.4-1.6-5-1.6-8c0-2.9,0.5-5.6,1.6-7.9
		c1-2.4,2.5-4.4,4.3-6c1.8-1.7,3.9-2.9,6.4-3.8c2.5-0.9,5.1-1.3,7.9-1.3c1.3,0,2.6,0.1,3.9,0.4c1.3,0.2,2.5,0.6,3.7,1
		c1.2,0.4,2.3,0.9,3.2,1.5c1,0.6,1.8,1.3,2.6,2L298.8,307z"/>
	<path d="M333.5,305.1c-0.5-0.1-1-0.2-1.5-0.3c-0.5,0-1-0.1-1.5-0.1c-1.6,0-2.9,0.3-4,0.9c-1.1,0.6-1.9,1.3-2.6,2.1
		c-0.6,0.8-1.1,1.7-1.4,2.7c-0.3,1-0.4,1.8-0.4,2.5v18.4h-11.8v-35.8h11.4v5.2h0.1c0.9-1.8,2.2-3.3,3.9-4.5c1.7-1.2,3.6-1.7,5.8-1.7
		c0.5,0,0.9,0,1.4,0.1c0.5,0,0.8,0.1,1.1,0.2L333.5,305.1z"/>
	<path d="M337.1,300.3c2.1-2,4.6-3.5,7.4-4.5c2.8-1,5.7-1.5,8.6-1.5c3,0,5.6,0.4,7.7,1.1c2.1,0.7,3.8,1.9,5.1,3.5
		c1.3,1.6,2.2,3.5,2.8,5.9c0.6,2.4,0.9,5.2,0.9,8.5v18.1h-10.8v-3.8h-0.2c-0.9,1.5-2.3,2.6-4.1,3.5c-1.9,0.8-3.9,1.2-6,1.2
		c-1.4,0-2.9-0.2-4.5-0.6c-1.5-0.4-2.9-1-4.2-1.9c-1.3-0.9-2.3-2-3.1-3.5c-0.8-1.4-1.2-3.2-1.2-5.3c0-2.6,0.7-4.7,2.1-6.3
		c1.4-1.6,3.2-2.8,5.5-3.7c2.2-0.9,4.7-1.4,7.5-1.7s5.4-0.4,8-0.4v-0.6c0-1.8-0.6-3.1-1.9-3.9c-1.2-0.8-2.8-1.3-4.6-1.3
		c-1.7,0-3.3,0.4-4.9,1.1c-1.6,0.7-2.9,1.6-4,2.6L337.1,300.3z M358.8,315.6h-1.5c-1.3,0-2.6,0.1-3.9,0.2c-1.3,0.1-2.5,0.3-3.5,0.7
		c-1,0.3-1.9,0.8-2.6,1.5c-0.7,0.6-1,1.5-1,2.6c0,0.7,0.2,1.2,0.5,1.7c0.3,0.5,0.7,0.9,1.2,1.2c0.5,0.3,1,0.5,1.7,0.6
		c0.6,0.1,1.2,0.2,1.8,0.2c2.4,0,4.2-0.7,5.5-2c1.3-1.3,1.9-3.1,1.9-5.4V315.6z"/>
	<path d="M400.7,285.5c-0.4-0.1-0.9-0.3-1.5-0.4c-0.6-0.1-1.2-0.1-1.7-0.1c-1.1,0-2,0.2-2.7,0.6c-0.7,0.4-1.2,0.9-1.6,1.5
		c-0.4,0.6-0.6,1.4-0.8,2.2c-0.1,0.8-0.2,1.6-0.2,2.5v3.6h8v8.8h-8v27.1h-11.8v-27.1h-6.6v-8.8h6.6v-3.5c0-2.2,0.2-4.3,0.7-6.3
		c0.5-2,1.3-3.7,2.5-5.3c1.2-1.5,2.8-2.7,4.8-3.6c2-0.9,4.5-1.3,7.5-1.3c1,0,2,0.1,3,0.2c1,0.1,1.9,0.3,2.7,0.5L400.7,285.5z"/>
	<path d="M415.7,304.2v13.7c0,1.7,0.3,3,1,3.8c0.6,0.8,1.8,1.3,3.5,1.3c0.6,0,1.2,0,1.8-0.1c0.6-0.1,1.2-0.2,1.6-0.4l0.1,8.6
		c-0.8,0.3-1.9,0.5-3.1,0.8c-1.2,0.2-2.5,0.3-3.7,0.3c-2.4,0-4.4-0.3-6.1-0.9c-1.6-0.6-2.9-1.5-3.9-2.6c-1-1.1-1.7-2.5-2.1-4
		c-0.4-1.6-0.6-3.3-0.6-5.2v-15.2h-5.8v-8.8h5.7v-9.4h11.6v9.4h8.4v8.8H415.7z"/>
	<path d="M460.5,304.2v13.7c0,1.7,0.3,3,1,3.8c0.6,0.8,1.8,1.3,3.5,1.3c0.6,0,1.2,0,1.8-0.1c0.6-0.1,1.2-0.2,1.6-0.4l0.1,8.6
		c-0.8,0.3-1.9,0.5-3.1,0.8c-1.2,0.2-2.5,0.3-3.7,0.3c-2.4,0-4.4-0.3-6.1-0.9c-1.6-0.6-2.9-1.5-3.9-2.6c-1-1.1-1.7-2.5-2.1-4
		c-0.4-1.6-0.6-3.3-0.6-5.2v-15.2h-5.8v-8.8h5.7v-9.4h11.6v9.4h8.4v8.8H460.5z"/>
	<path d="M498.2,331.3v-19.5c0-1-0.1-2-0.2-2.9c-0.1-0.9-0.4-1.7-0.8-2.4c-0.4-0.7-0.9-1.2-1.6-1.7c-0.7-0.4-1.5-0.6-2.6-0.6
		c-2.1,0-3.7,0.7-4.8,2.2c-1.1,1.5-1.7,3.3-1.7,5.4v19.4h-11.8v-54.5h11.8v23.1h0.1c0.8-1.4,2.1-2.7,3.9-3.9
		c1.8-1.1,3.9-1.7,6.4-1.7c2.5,0,4.5,0.4,6.2,1.3c1.7,0.9,3,2,4,3.4c1,1.4,1.8,2.9,2.2,4.7c0.5,1.8,0.7,3.6,0.7,5.3v22.2H498.2z"/>
	<path d="M518.5,300.3c2.1-2,4.6-3.5,7.4-4.5c2.8-1,5.7-1.5,8.6-1.5c3,0,5.6,0.4,7.7,1.1c2.1,0.7,3.8,1.9,5.1,3.5
		c1.3,1.6,2.2,3.5,2.8,5.9c0.6,2.4,0.9,5.2,0.9,8.5v18.1h-10.8v-3.8H540c-0.9,1.5-2.3,2.6-4.1,3.5c-1.9,0.8-3.9,1.2-6,1.2
		c-1.4,0-2.9-0.2-4.5-0.6c-1.5-0.4-2.9-1-4.2-1.9c-1.3-0.9-2.3-2-3.1-3.5c-0.8-1.4-1.2-3.2-1.2-5.3c0-2.6,0.7-4.7,2.1-6.3
		c1.4-1.6,3.2-2.8,5.5-3.7c2.2-0.9,4.7-1.4,7.5-1.7s5.4-0.4,8-0.4v-0.6c0-1.8-0.6-3.1-1.9-3.9c-1.2-0.8-2.8-1.3-4.6-1.3
		c-1.7,0-3.3,0.4-4.9,1.1c-1.6,0.7-2.9,1.6-4,2.6L518.5,300.3z M540.2,315.6h-1.5c-1.3,0-2.6,0.1-3.9,0.2c-1.3,0.1-2.5,0.3-3.5,0.7
		c-1,0.3-1.9,0.8-2.6,1.5c-0.7,0.6-1,1.5-1,2.6c0,0.7,0.2,1.2,0.5,1.7c0.3,0.5,0.7,0.9,1.2,1.2c0.5,0.3,1,0.5,1.7,0.6
		c0.6,0.1,1.2,0.2,1.8,0.2c2.4,0,4.2-0.7,5.5-2c1.3-1.3,1.9-3.1,1.9-5.4V315.6z"/>
	<path d="M571.9,304.2v13.7c0,1.7,0.3,3,1,3.8c0.6,0.8,1.8,1.3,3.5,1.3c0.6,0,1.2,0,1.8-0.1c0.6-0.1,1.2-0.2,1.6-0.4l0.1,8.6
		c-0.8,0.3-1.9,0.5-3.1,0.8c-1.2,0.2-2.5,0.3-3.7,0.3c-2.4,0-4.4-0.3-6.1-0.9c-1.6-0.6-2.9-1.5-3.9-2.6c-1-1.1-1.7-2.5-2.1-4
		c-0.4-1.6-0.6-3.3-0.6-5.2v-15.2h-5.8v-8.8h5.7v-9.4h11.6v9.4h8.4v8.8H571.9z"/>
	<path d="M649.7,331.3v-19.6c0-1-0.1-2-0.2-2.9c-0.1-0.9-0.4-1.7-0.8-2.4c-0.4-0.7-0.9-1.2-1.5-1.6c-0.6-0.4-1.5-0.6-2.6-0.6
		c-1,0-1.9,0.2-2.6,0.6c-0.7,0.4-1.4,1-1.9,1.7c-0.5,0.7-0.9,1.5-1.1,2.5c-0.2,0.9-0.4,1.9-0.4,2.9v19.4h-11.8v-20.5
		c0-2.1-0.4-3.7-1.2-4.9c-0.8-1.2-2.1-1.8-3.9-1.8c-1.9,0-3.3,0.7-4.4,2.2c-1,1.5-1.5,3.3-1.5,5.5v19.5h-11.9v-35.9h11.5v5h0.1
		c0.4-0.8,1-1.5,1.6-2.2c0.6-0.7,1.4-1.4,2.3-1.9c0.9-0.6,1.9-1,3.1-1.3c1.1-0.3,2.4-0.5,3.7-0.5c2.6,0,4.8,0.5,6.6,1.6
		c1.8,1.1,3.2,2.6,4.2,4.5c1.2-1.9,2.7-3.4,4.6-4.5c1.9-1.1,4.2-1.7,6.8-1.7c2.5,0,4.5,0.4,6.2,1.3c1.7,0.9,3,2,4,3.5
		c1,1.4,1.7,3,2.2,4.8c0.5,1.8,0.7,3.5,0.7,5.2v22.2H649.7z"/>
	<path d="M694.1,331.3v-5H694c-0.4,0.8-1,1.6-1.7,2.3c-0.7,0.7-1.5,1.3-2.5,1.9c-0.9,0.5-2,1-3.1,1.3c-1.1,0.3-2.3,0.5-3.6,0.5
		c-2.4,0-4.4-0.4-6.1-1.3c-1.7-0.9-3-2-4-3.4c-1-1.4-1.8-2.9-2.2-4.7c-0.5-1.8-0.7-3.5-0.7-5.4v-22.2H682v19.5c0,1,0.1,2,0.2,2.9
		c0.1,0.9,0.4,1.7,0.8,2.5c0.4,0.7,0.9,1.3,1.6,1.7c0.7,0.4,1.6,0.6,2.7,0.6c2.1,0,3.6-0.8,4.7-2.3c1.1-1.5,1.6-3.3,1.6-5.4v-19.4
		h11.8v35.9H694.1z"/>
	<path d="M739.5,307c-0.7-0.9-1.6-1.6-2.7-2.1c-1.2-0.5-2.3-0.8-3.5-0.8c-1.2,0-2.4,0.3-3.4,0.8c-1,0.5-1.9,1.2-2.6,2
		s-1.3,1.8-1.7,2.9c-0.4,1.1-0.6,2.3-0.6,3.5c0,1.2,0.2,2.4,0.6,3.5c0.4,1.1,0.9,2.1,1.7,2.9c0.7,0.8,1.6,1.5,2.7,2
		c1,0.5,2.2,0.7,3.5,0.7c1.2,0,2.4-0.2,3.6-0.7c1.2-0.5,2.1-1.1,2.8-2l6.6,8c-1.5,1.4-3.4,2.6-5.8,3.4c-2.4,0.8-4.9,1.2-7.5,1.2
		c-2.8,0-5.5-0.4-7.9-1.3c-2.5-0.9-4.6-2.1-6.4-3.8c-1.8-1.7-3.2-3.7-4.3-6c-1-2.4-1.6-5-1.6-8c0-2.9,0.5-5.6,1.6-7.9
		c1-2.4,2.5-4.4,4.3-6c1.8-1.7,3.9-2.9,6.4-3.8c2.5-0.9,5.1-1.3,7.9-1.3c1.3,0,2.6,0.1,3.9,0.4c1.3,0.2,2.5,0.6,3.7,1
		c1.2,0.4,2.3,0.9,3.2,1.5c1,0.6,1.8,1.3,2.6,2L739.5,307z"/>
	<path d="M774.6,331.3v-19.5c0-1-0.1-2-0.2-2.9c-0.1-0.9-0.4-1.7-0.8-2.4c-0.4-0.7-1-1.2-1.6-1.7c-0.7-0.4-1.5-0.6-2.6-0.6
		c-2.1,0-3.7,0.7-4.8,2.2c-1.1,1.5-1.7,3.3-1.7,5.4v19.4h-11.8v-54.5h11.8v23.1h0.1c0.8-1.4,2.1-2.7,3.9-3.9
		c1.8-1.1,3.9-1.7,6.4-1.7c2.5,0,4.5,0.4,6.2,1.3c1.7,0.9,3,2,4,3.4c1,1.4,1.8,2.9,2.2,4.7c0.5,1.8,0.7,3.6,0.7,5.3v22.2H774.6z"/>
	<path d="M859.3,331.3v-19.6c0-1-0.1-2-0.2-2.9c-0.1-0.9-0.4-1.7-0.8-2.4c-0.4-0.7-0.9-1.2-1.5-1.6c-0.6-0.4-1.5-0.6-2.6-0.6
		c-1,0-1.9,0.2-2.6,0.6c-0.7,0.4-1.4,1-1.9,1.7c-0.5,0.7-0.9,1.5-1.1,2.5c-0.2,0.9-0.4,1.9-0.4,2.9v19.4h-11.8v-20.5
		c0-2.1-0.4-3.7-1.2-4.9c-0.8-1.2-2.1-1.8-3.9-1.8c-1.9,0-3.3,0.7-4.4,2.2c-1,1.5-1.5,3.3-1.5,5.5v19.5h-11.9v-35.9h11.5v5h0.1
		c0.4-0.8,1-1.5,1.6-2.2s1.4-1.4,2.3-1.9c0.9-0.6,1.9-1,3.1-1.3c1.1-0.3,2.4-0.5,3.7-0.5c2.6,0,4.8,0.5,6.6,1.6
		c1.8,1.1,3.2,2.6,4.2,4.5c1.2-1.9,2.7-3.4,4.6-4.5c1.9-1.1,4.2-1.7,6.8-1.7c2.5,0,4.5,0.4,6.2,1.3c1.7,0.9,3,2,4,3.5
		c1,1.4,1.7,3,2.2,4.8c0.5,1.8,0.7,3.5,0.7,5.2v22.2H859.3z"/>
	<path d="M918.1,313.2c0,2.9-0.5,5.6-1.6,8c-1.1,2.4-2.5,4.4-4.3,6.1c-1.8,1.7-3.9,2.9-6.3,3.9c-2.4,0.9-5,1.4-7.7,1.4
		c-2.7,0-5.2-0.5-7.7-1.4c-2.4-0.9-4.5-2.2-6.3-3.9c-1.8-1.7-3.2-3.7-4.3-6.1c-1.1-2.4-1.6-5-1.6-8c0-2.9,0.5-5.6,1.6-7.9
		c1.1-2.4,2.5-4.3,4.3-6c1.8-1.6,3.9-2.9,6.3-3.7c2.4-0.9,5-1.3,7.7-1.3c2.7,0,5.3,0.4,7.7,1.3c2.4,0.9,4.5,2.1,6.3,3.7
		c1.8,1.6,3.3,3.6,4.3,6C917.6,307.6,918.1,310.3,918.1,313.2z M906.7,313.2c0-1.2-0.2-2.3-0.6-3.4c-0.4-1.1-0.9-2.1-1.7-2.9
		s-1.6-1.5-2.7-2.1c-1.1-0.5-2.3-0.8-3.7-0.8s-2.6,0.3-3.7,0.8c-1.1,0.5-1.9,1.2-2.6,2.1c-0.7,0.8-1.2,1.8-1.6,2.9
		c-0.4,1.1-0.5,2.2-0.5,3.4s0.2,2.3,0.5,3.4c0.4,1.1,0.9,2.1,1.6,3c0.7,0.9,1.6,1.6,2.7,2.1c1.1,0.5,2.3,0.8,3.7,0.8
		c1.4,0,2.6-0.3,3.7-0.8c1.1-0.5,1.9-1.2,2.7-2.1c0.7-0.9,1.3-1.9,1.6-3C906.5,315.5,906.7,314.3,906.7,313.2z"/>
	<path d="M948.9,305.1c-0.5-0.1-1-0.2-1.5-0.3c-0.5,0-1-0.1-1.5-0.1c-1.6,0-2.9,0.3-4,0.9c-1.1,0.6-1.9,1.3-2.6,2.1
		c-0.6,0.8-1.1,1.7-1.4,2.7c-0.3,1-0.4,1.8-0.4,2.5v18.4h-11.8v-35.8H937v5.2h0.1c0.9-1.8,2.2-3.3,3.9-4.5c1.7-1.2,3.6-1.7,5.8-1.7
		c0.5,0,0.9,0,1.4,0.1c0.5,0,0.8,0.1,1.1,0.2L948.9,305.1z"/>
	<path d="M988.4,313.8c0,0.5,0,1,0,1.4c0,0.5,0,0.9-0.1,1.4h-26c0.1,1,0.4,1.9,0.9,2.7c0.5,0.8,1.2,1.5,1.9,2.1
		c0.8,0.6,1.7,1.1,2.7,1.4c1,0.3,2,0.5,3.1,0.5c1.9,0,3.5-0.3,4.8-1c1.3-0.7,2.4-1.6,3.2-2.7l8.2,5.2c-1.7,2.5-3.9,4.3-6.7,5.7
		c-2.8,1.3-6,2-9.6,2c-2.7,0-5.2-0.4-7.6-1.3c-2.4-0.8-4.5-2.1-6.3-3.7c-1.8-1.6-3.2-3.6-4.3-5.9c-1-2.4-1.5-5-1.5-8.1
		c0-2.9,0.5-5.6,1.5-8c1-2.4,2.4-4.4,4.1-6.1c1.7-1.7,3.8-2.9,6.1-3.9c2.4-0.9,4.9-1.4,7.6-1.4c2.6,0,5.1,0.4,7.3,1.3
		c2.2,0.9,4.1,2.2,5.7,3.9c1.6,1.7,2.8,3.7,3.7,6.1C988,308,988.4,310.7,988.4,313.8z M977.6,309.2c0-1.9-0.6-3.5-1.8-4.8
		c-1.2-1.3-2.9-2-5.3-2c-1.2,0-2.2,0.2-3.2,0.5s-1.8,0.9-2.5,1.5c-0.7,0.6-1.3,1.4-1.7,2.2c-0.4,0.8-0.7,1.7-0.7,2.6H977.6z"/>
	<path d="M1026.6,283.9c0,0.9-0.2,1.8-0.5,2.6c-0.4,0.8-0.8,1.5-1.4,2.1c-0.6,0.6-1.3,1-2.2,1.4c-0.8,0.3-1.7,0.5-2.6,0.5
		c-1.9,0-3.5-0.6-4.8-1.9c-1.3-1.3-1.9-2.8-1.9-4.6c0-0.9,0.2-1.7,0.5-2.5c0.3-0.8,0.8-1.5,1.4-2.1c0.6-0.6,1.3-1,2.2-1.4
		c0.8-0.4,1.7-0.5,2.7-0.5c0.9,0,1.8,0.2,2.6,0.5c0.8,0.3,1.6,0.8,2.2,1.4c0.6,0.6,1.1,1.3,1.4,2.1
		C1026.5,282.2,1026.6,283,1026.6,283.9z M1013.9,331.3v-35.9h11.8v35.9H1013.9z"/>
	<path d="M1081,331.3v-19.6c0-1-0.1-2-0.2-2.9c-0.1-0.9-0.4-1.7-0.8-2.4c-0.4-0.7-0.9-1.2-1.5-1.6c-0.6-0.4-1.5-0.6-2.6-0.6
		c-1,0-1.9,0.2-2.6,0.6c-0.7,0.4-1.4,1-1.9,1.7c-0.5,0.7-0.9,1.5-1.1,2.5c-0.2,0.9-0.4,1.9-0.4,2.9v19.4h-11.8v-20.5
		c0-2.1-0.4-3.7-1.2-4.9c-0.8-1.2-2.1-1.8-3.9-1.8c-1.9,0-3.3,0.7-4.4,2.2c-1,1.5-1.5,3.3-1.5,5.5v19.5h-11.9v-35.9h11.5v5h0.1
		c0.4-0.8,1-1.5,1.6-2.2s1.4-1.4,2.3-1.9c0.9-0.6,1.9-1,3.1-1.3c1.1-0.3,2.4-0.5,3.7-0.5c2.6,0,4.8,0.5,6.6,1.6
		c1.8,1.1,3.2,2.6,4.2,4.5c1.2-1.9,2.7-3.4,4.6-4.5c1.9-1.1,4.2-1.7,6.8-1.7c2.5,0,4.5,0.4,6.2,1.3c1.7,0.9,3,2,4,3.5
		c1,1.4,1.7,3,2.2,4.8c0.5,1.8,0.7,3.5,0.7,5.2v22.2H1081z"/>
	<path d="M1147.6,331.3v-19.6c0-1-0.1-2-0.2-2.9c-0.1-0.9-0.4-1.7-0.8-2.4c-0.4-0.7-0.9-1.2-1.5-1.6c-0.6-0.4-1.5-0.6-2.6-0.6
		c-1,0-1.9,0.2-2.6,0.6c-0.7,0.4-1.4,1-1.9,1.7c-0.5,0.7-0.9,1.5-1.1,2.5c-0.2,0.9-0.4,1.9-0.4,2.9v19.4h-11.8v-20.5
		c0-2.1-0.4-3.7-1.2-4.9c-0.8-1.2-2.1-1.8-3.9-1.8c-1.9,0-3.3,0.7-4.4,2.2c-1,1.5-1.5,3.3-1.5,5.5v19.5h-11.9v-35.9h11.5v5h0.1
		c0.4-0.8,1-1.5,1.6-2.2s1.4-1.4,2.3-1.9c0.9-0.6,1.9-1,3.1-1.3c1.1-0.3,2.4-0.5,3.7-0.5c2.6,0,4.8,0.5,6.6,1.6
		c1.8,1.1,3.2,2.6,4.2,4.5c1.2-1.9,2.7-3.4,4.6-4.5c1.9-1.1,4.2-1.7,6.8-1.7c2.5,0,4.5,0.4,6.2,1.3c1.7,0.9,3,2,4,3.5
		c1,1.4,1.7,3,2.2,4.8c0.5,1.8,0.7,3.5,0.7,5.2v22.2H1147.6z"/>
	<path d="M1203.9,313.8c0,0.5,0,1,0,1.4c0,0.5,0,0.9-0.1,1.4h-26c0.1,1,0.4,1.9,0.9,2.7c0.5,0.8,1.2,1.5,1.9,2.1
		c0.8,0.6,1.7,1.1,2.7,1.4c1,0.3,2,0.5,3.1,0.5c1.9,0,3.5-0.3,4.8-1c1.3-0.7,2.4-1.6,3.2-2.7l8.2,5.2c-1.7,2.5-3.9,4.3-6.7,5.7
		c-2.8,1.3-6,2-9.6,2c-2.7,0-5.2-0.4-7.6-1.3c-2.4-0.8-4.5-2.1-6.3-3.7c-1.8-1.6-3.2-3.6-4.3-5.9c-1-2.4-1.5-5-1.5-8.1
		c0-2.9,0.5-5.6,1.5-8c1-2.4,2.4-4.4,4.1-6.1c1.7-1.7,3.8-2.9,6.1-3.9c2.4-0.9,4.9-1.4,7.6-1.4c2.6,0,5.1,0.4,7.3,1.3
		c2.2,0.9,4.1,2.2,5.7,3.9c1.6,1.7,2.8,3.7,3.7,6.1C1203.5,308,1203.9,310.7,1203.9,313.8z M1193,309.2c0-1.9-0.6-3.5-1.8-4.8
		c-1.2-1.3-2.9-2-5.3-2c-1.2,0-2.2,0.2-3.2,0.5s-1.8,0.9-2.5,1.5c-0.7,0.6-1.3,1.4-1.7,2.2c-0.4,0.8-0.7,1.7-0.7,2.6H1193z"/>
	<path d="M1234.5,305.1c-0.5-0.1-1-0.2-1.5-0.3c-0.5,0-1-0.1-1.5-0.1c-1.6,0-2.9,0.3-4,0.9c-1.1,0.6-1.9,1.3-2.6,2.1
		c-0.6,0.8-1.1,1.7-1.4,2.7c-0.3,1-0.4,1.8-0.4,2.5v18.4h-11.8v-35.8h11.4v5.2h0.1c0.9-1.8,2.2-3.3,3.9-4.5c1.7-1.2,3.6-1.7,5.8-1.7
		c0.5,0,0.9,0,1.4,0.1c0.5,0,0.8,0.1,1.1,0.2L1234.5,305.1z"/>
	<path d="M1260.9,306c-1-0.9-2.1-1.7-3.4-2.3c-1.3-0.6-2.7-0.9-4.1-0.9c-1.1,0-2.1,0.2-3.1,0.6c-0.9,0.4-1.4,1.2-1.4,2.2
		c0,1,0.5,1.7,1.5,2.2c1,0.4,2.7,0.9,5,1.4c1.3,0.3,2.7,0.7,4.1,1.2c1.4,0.5,2.6,1.2,3.7,2.1c1.1,0.9,2,1.9,2.7,3.2
		c0.7,1.2,1,2.7,1,4.5c0,2.3-0.5,4.2-1.4,5.7c-0.9,1.6-2.1,2.8-3.6,3.8c-1.5,1-3.1,1.7-4.9,2.1c-1.8,0.4-3.7,0.6-5.5,0.6
		c-2.9,0-5.8-0.5-8.6-1.4c-2.8-0.9-5.2-2.3-7-4.1l6.6-7c1.1,1.2,2.4,2.1,3.9,2.9c1.5,0.8,3.2,1.2,4.9,1.2c1,0,1.9-0.2,2.8-0.7
		c0.9-0.5,1.4-1.3,1.4-2.4c0-1.1-0.6-1.9-1.7-2.5c-1.2-0.5-3-1.1-5.4-1.7c-1.2-0.3-2.5-0.7-3.7-1.2c-1.2-0.5-2.4-1.1-3.4-1.9
		c-1-0.8-1.8-1.8-2.4-3c-0.6-1.2-0.9-2.6-0.9-4.3c0-2.2,0.5-4,1.4-5.5c0.9-1.5,2.1-2.8,3.5-3.7c1.4-1,3-1.7,4.8-2.1
		c1.8-0.5,3.5-0.7,5.2-0.7c2.7,0,5.3,0.4,7.9,1.3c2.6,0.8,4.7,2.1,6.5,3.8L1260.9,306z"/>
	<path d="M1286.6,283.9c0,0.9-0.2,1.8-0.5,2.6c-0.4,0.8-0.8,1.5-1.4,2.1c-0.6,0.6-1.3,1-2.2,1.4c-0.8,0.3-1.7,0.5-2.6,0.5
		c-1.9,0-3.5-0.6-4.8-1.9c-1.3-1.3-1.9-2.8-1.9-4.6c0-0.9,0.2-1.7,0.5-2.5c0.3-0.8,0.8-1.5,1.4-2.1c0.6-0.6,1.3-1,2.2-1.4
		c0.8-0.4,1.7-0.5,2.7-0.5c0.9,0,1.8,0.2,2.6,0.5c0.8,0.3,1.6,0.8,2.2,1.4c0.6,0.6,1.1,1.3,1.4,2.1
		C1286.5,282.2,1286.6,283,1286.6,283.9z M1274,331.3v-35.9h11.8v35.9H1274z"/>
	<path d="M1317.3,331.3h-12.8l-14.1-35.9h13l7.6,23.3h0.2l7.6-23.3h12.6L1317.3,331.3z"/>
	<path d="M1371.6,313.8c0,0.5,0,1,0,1.4c0,0.5,0,0.9-0.1,1.4h-26c0.1,1,0.4,1.9,0.9,2.7c0.5,0.8,1.2,1.5,1.9,2.1
		c0.8,0.6,1.7,1.1,2.7,1.4c1,0.3,2,0.5,3.1,0.5c1.9,0,3.5-0.3,4.8-1c1.3-0.7,2.4-1.6,3.2-2.7l8.2,5.2c-1.7,2.5-3.9,4.3-6.7,5.7
		c-2.8,1.3-6,2-9.6,2c-2.7,0-5.2-0.4-7.6-1.3c-2.4-0.8-4.5-2.1-6.3-3.7c-1.8-1.6-3.2-3.6-4.3-5.9c-1-2.4-1.5-5-1.5-8.1
		c0-2.9,0.5-5.6,1.5-8c1-2.4,2.4-4.4,4.1-6.1c1.7-1.7,3.8-2.9,6.1-3.9c2.4-0.9,4.9-1.4,7.6-1.4c2.6,0,5.1,0.4,7.3,1.3
		c2.2,0.9,4.1,2.2,5.7,3.9c1.6,1.7,2.8,3.7,3.7,6.1C1371.2,308,1371.6,310.7,1371.6,313.8z M1360.7,309.2c0-1.9-0.6-3.5-1.8-4.8
		c-1.2-1.3-2.9-2-5.3-2c-1.2,0-2.2,0.2-3.2,0.5s-1.8,0.9-2.5,1.5c-0.7,0.6-1.3,1.4-1.7,2.2c-0.4,0.8-0.7,1.7-0.7,2.6H1360.7z"/>
	<path d="M1392.4,324.9c0,2-0.7,3.7-2.1,5c-1.4,1.3-3.1,2-5.1,2c-1,0-2-0.2-2.8-0.5c-0.9-0.4-1.7-0.9-2.3-1.5
		c-0.7-0.6-1.2-1.4-1.6-2.2c-0.4-0.8-0.6-1.8-0.6-2.8c0-1,0.2-1.9,0.6-2.7c0.4-0.9,0.9-1.6,1.6-2.3c0.7-0.6,1.5-1.2,2.3-1.5
		c0.9-0.4,1.8-0.6,2.8-0.6c2,0,3.7,0.7,5.1,2C1391.7,321.2,1392.4,322.9,1392.4,324.9z"/>
</g>
</svg>
