<?xml version="1.0" encoding="utf-8"?>
<!-- Generator: Adobe Illustrator 25.4.1, SVG Export Plug-In . SVG Version: 6.00 Build 0)  -->
<svg version="1.1"
	 id="svg147" xmlns:cc="http://creativecommons.org/ns#" xmlns:dc="http://purl.org/dc/elements/1.1/" xmlns:rdf="http://www.w3.org/1999/02/22-rdf-syntax-ns#" xmlns:svg="http://www.w3.org/2000/svg"
	 xmlns="http://www.w3.org/2000/svg" xmlns:xlink="http://www.w3.org/1999/xlink" x="0px" y="0px" viewBox="0 0 100 100"
	 style="enable-background:new 0 0 100 100;" xml:space="preserve">
<g>
	<path d="M50,72.1c-1.5,0-3.1-0.3-4.5-1c-2-0.9-3.6-2.5-6.3-5.1L13.8,40.7c-1.6-1.6-1.6-4.1,0-5.7c1.6-1.6,4.1-1.6,5.7,0l25.3,25.3
		c1.6,1.6,3.2,3.2,3.8,3.4c0.1,0,0.1,0,0.2,0.1c0.8,0.4,1.7,0.4,2.4,0c0.1,0,0.1-0.1,0.2-0.1c0.6-0.2,2.2-1.9,3.8-3.4L80.5,35
		c1.6-1.6,4.1-1.6,5.7,0c1.6,1.6,1.6,4.1,0,5.7L60.8,66c-2.7,2.7-4.3,4.3-6.3,5.1C53.1,71.8,51.5,72.1,50,72.1z"/>
</g>
</svg>
