<?xml version="1.0" encoding="UTF-8" standalone="no"?>
<svg
   xmlns:dc="http://purl.org/dc/elements/1.1/"
   xmlns:cc="http://creativecommons.org/ns#"
   xmlns:rdf="http://www.w3.org/1999/02/22-rdf-syntax-ns#"
   xmlns:svg="http://www.w3.org/2000/svg"
   xmlns="http://www.w3.org/2000/svg"
   id="svg20"
   version="1.1"
   viewBox="25 81 1010.305 198.925"
   class="Path_364">
  <metadata
     id="metadata26">
    <rdf:RDF>
      <cc:Work
         rdf:about="">
        <dc:format>image/svg+xml</dc:format>
        <dc:type
           rdf:resource="http://purl.org/dc/dcmitype/StillImage" />
        <dc:title></dc:title>
      </cc:Work>
    </rdf:RDF>
  </metadata>
  <defs
     id="defs24" />
  <path
     d="M 182.7588806152344 81 L 222.7388610839844 81 L 222.7388610839844 200.3996887207031 L 182.7588806152344 200.3996887207031 L 182.7588806152344 81 Z M 311.3431701660156 131.7853851318359 L 297.296142578125 131.7853851318359 L 297.296142578125 108.0135040283203 L 280.0074768066406 108.0135040283203 L 280.0074768066406 81 L 240.0274963378906 81 L 240.0274963378906 200.3996887207031 L 280.0074768066406 200.3996887207031 L 280.0074768066406 155.0169982910156 L 295.6753234863281 155.0169982910156 L 295.6753234863281 176.6278076171875 L 311.3431701660156 176.6278076171875 L 311.3431701660156 200.3996887207031 L 351.3231506347656 200.3996887207031 L 351.3231506347656 81 L 311.3431701660156 81 L 311.3431701660156 131.7853851318359 Z M 391.8434143066406 81 L 369.1520690917969 81 L 369.1520690917969 200.3996887207031 L 391.8434143066406 200.3996887207031 L 409.1320495605469 200.3996887207031 L 463.6993103027344 200.3996887207031 L 463.6993103027344 170.6848449707031 L 409.1320495605469 170.6848449707031 L 409.1320495605469 158.2586212158203 L 463.6993103027344 158.2586212158203 L 463.6993103027344 128.5437622070312 L 409.1320495605469 128.5437622070312 L 409.1320495605469 110.7148513793945 L 463.6993103027344 110.7148513793945 L 463.6993103027344 81 L 409.1320495605469 81 L 391.8434143066406 81 Z M 501.5182189941406 81 L 478.8268737792969 81 L 478.8268737792969 200.3996887207031 L 501.5182189941406 200.3996887207031 L 518.806884765625 200.3996887207031 L 573.3741455078125 200.3996887207031 L 573.3741455078125 170.6848449707031 L 518.806884765625 170.6848449707031 L 518.806884765625 110.7148513793945 L 573.3741455078125 110.7148513793945 L 573.3741455078125 81 L 518.806884765625 81 L 501.5182189941406 81 Z M 592.2835693359375 81 L 690.0724487304688 81 L 690.0724487304688 129.0840454101562 L 674.4046020507812 129.0840454101562 L 674.4046020507812 144.2116088867188 L 690.0724487304688 144.2116088867188 L 690.0724487304688 200.3996887207031 L 650.0924682617188 200.3996887207031 L 650.0924682617188 159.3391723632812 L 632.2635498046875 159.3391723632812 L 632.2635498046875 200.3996887207031 L 592.2835693359375 200.3996887207031 L 592.2835693359375 81 Z M 632.2635498046875 133.4061889648438 L 650.0924682617188 133.4061889648438 L 650.0924682617188 106.9329605102539 L 632.2635498046875 106.9329605102539 L 632.2635498046875 133.4061889648438 Z M 705.2000122070312 81 L 802.9888916015625 81 L 802.9888916015625 200.3996887207031 L 763.0089111328125 200.3996887207031 L 763.0089111328125 159.3391723632812 L 745.1799926757812 159.3391723632812 L 745.1799926757812 200.3996887207031 L 705.2000122070312 200.3996887207031 L 705.2000122070312 81 Z M 727.35107421875 120.4397125244141 L 744.0994873046875 120.4397125244141 L 744.0994873046875 125.3021469116211 L 735.9954223632812 125.3021469116211 L 735.9954223632812 147.9934997558594 L 747.88134765625 147.9934997558594 L 747.88134765625 139.8894348144531 L 760.3075561523438 139.8894348144531 L 760.3075561523438 147.9934997558594 L 772.1935424804688 147.9934997558594 L 772.1935424804688 125.3021469116211 L 764.0894775390625 125.3021469116211 L 764.0894775390625 120.4397125244141 L 780.2975463867188 120.4397125244141 L 780.2975463867188 104.7718811035156 L 760.3075561523438 104.7718811035156 L 760.3075561523438 118.8189010620117 L 747.341064453125 118.8189010620117 L 747.341064453125 104.7718811035156 L 727.35107421875 104.7718811035156 L 727.35107421875 120.4397125244141 Z M 845.6702270507812 81 L 822.9788818359375 81 L 822.9788818359375 200.3996887207031 L 862.9588623046875 200.3996887207031 L 862.9588623046875 158.2586212158203 L 917.5261840820312 158.2586212158203 L 917.5261840820312 128.5437622070312 L 862.9588623046875 128.5437622070312 L 862.9588623046875 110.7148513793945 L 917.5261840820312 110.7148513793945 L 917.5261840820312 81 L 862.9588623046875 81 L 845.6702270507812 81 Z M 999.10693359375 81 L 959.126953125 81 L 931.0328979492188 81 L 931.0328979492188 110.7148513793945 L 959.126953125 110.7148513793945 L 959.126953125 200.3996887207031 L 999.10693359375 200.3996887207031 L 999.10693359375 110.7148513793945 L 1035.305053710938 110.7148513793945 L 1035.305053710938 81 L 999.10693359375 81 Z M 122.7888870239258 108.0135040283203 L 105.500244140625 108.0135040283203 L 105.500244140625 131.7853851318359 L 82.26863098144531 131.7853851318359 L 82.26863098144531 108.0135040283203 L 64.97998809814453 108.0135040283203 L 64.97998809814453 81 L 25 81 L 25 200.3996887207031 L 64.97998809814453 200.3996887207031 L 64.97998809814453 155.0169982910156 L 80.64781951904297 155.0169982910156 L 80.64781951904297 176.6278076171875 L 107.1210556030273 176.6278076171875 L 107.1210556030273 155.0169982910156 L 122.7888870239258 155.0169982910156 L 122.7888870239258 200.3996887207031 L 162.7688598632812 200.3996887207031 L 162.7688598632812 81 L 122.7888870239258 81 L 122.7888870239258 108.0135040283203 Z M 107.4992446899414 279.0867919921875 L 100.2412567138672 267.2138061523438 C 103.7232971191406 265.745361328125 106.0307846069336 262.1790466308594 105.821159362793 258.1934509277344 C 105.5694046020508 253.2002868652344 101.2061767578125 249.3827514648438 96.17140197753906 249.3827514648438 L 83.20762634277344 249.3827514648438 L 83.20762634277344 268.0107116699219 L 83.33349609375 279.0867919921875 L 90.42401123046875 279.0867919921875 L 90.42401123046875 268.0107116699219 L 92.26956939697266 268.0107116699219 C 92.77309417724609 268.0107116699219 93.15074920654297 268.2203369140625 93.31877899169922 268.5979919433594 L 99.19205474853516 279.0867919921875 L 107.4992446899414 279.0867919921875 Z M 90.42401123046875 255.4661865234375 L 95.87803649902344 255.4661865234375 C 97.55611419677734 255.4661865234375 99.06616973876953 256.6412658691406 99.23418426513672 258.3188171386719 C 99.40221405029297 260.2908020019531 97.89162445068359 261.8851318359375 96.04551696777344 261.8851318359375 L 90.42401123046875 261.8851318359375 L 90.42401123046875 255.4661865234375 Z M 149.4517517089844 272.9617614746094 L 136.4042358398438 272.9617614746094 L 136.4042358398438 266.7940063476562 L 148.7386169433594 266.7940063476562 L 148.7386169433594 261.0460815429688 L 136.4042358398438 261.0460815429688 L 136.4042358398438 255.4661865234375 L 149.4517517089844 255.4661865234375 L 149.4517517089844 249.3827514648438 L 129.481201171875 249.3827514648438 L 129.481201171875 279.0867919921875 L 149.4517517089844 279.0867919921875 L 149.4517517089844 272.9617614746094 Z M 191.2367858886719 263.6890869140625 C 190.3134765625 263.01806640625 189.306396484375 262.472412109375 188.2156066894531 262.0952758789062 C 187.1247863769531 261.6333618164062 186.0761413574219 261.2557067871094 185.0274658203125 260.9207458496094 C 184.3980407714844 260.7105712890625 183.7264709472656 260.5009460449219 183.1813659667969 260.2492065429688 C 182.5519409179688 260.0811767578125 182.1321411132812 259.8294067382812 181.712890625 259.6192321777344 C 181.2931213378906 259.326416015625 180.9576110839844 259.0740966796875 180.7479858398438 258.7385864257812 C 180.5383605957031 258.3609619140625 180.4962158203125 257.9417114257812 180.4962158203125 257.3960266113281 C 180.4962158203125 256.8508911132812 180.5799560546875 256.3473510742188 180.8738708496094 255.9696960449219 C 181.1256103515625 255.5925903320312 181.4611206054688 255.2565612792969 181.8387756347656 255.0469360351562 C 182.2580261230469 254.8367614746094 182.6778259277344 254.6687316894531 183.1813659667969 254.5428466796875 C 183.6848754882812 254.5012512207031 184.1462707519531 254.4591064453125 184.6498107910156 254.4591064453125 C 185.5726013183594 254.4591064453125 186.5375061035156 254.6687316894531 187.50244140625 255.0885314941406 C 188.5516357421875 255.5925903320312 189.3906860351562 256.2214660644531 189.9779663085938 257.0183715820312 L 194.55078125 252.9485168457031 C 193.2925109863281 251.2709655761719 191.6981811523438 250.0537414550781 189.9358215332031 249.3827514648438 C 188.1734619140625 248.7954711914062 186.4537658691406 248.4599609375 184.7756958007812 248.4599609375 C 183.349365234375 248.4599609375 181.9646606445312 248.6695861816406 180.5799560546875 249.0050964355469 C 179.2373962402344 249.3406066894531 177.9790954589844 249.8862609863281 176.8461608886719 250.6415710449219 C 175.7553405761719 251.4389953613281 174.8741760253906 252.4033813476562 174.2447509765625 253.5784606933594 C 173.5315856933594 254.795166015625 173.1960754394531 256.2214660644531 173.1960754394531 257.8579711914062 C 173.1960754394531 259.2421264648438 173.4057006835938 260.3750610351562 173.8255004882812 261.2978515625 C 174.2868957519531 262.2211608886719 174.8741760253906 263.0602111816406 175.5873413085938 263.7312316894531 C 176.3004760742188 264.4027709960938 177.1400756835938 264.9479064941406 178.0206909179688 265.3255615234375 C 178.9440307617188 265.745361328125 179.8667907714844 266.1229858398438 180.8317260742188 266.4163513183594 C 181.0413513183594 266.4579772949219 181.2093505859375 266.5838623046875 181.3773803710938 266.6259765625 L 182.4682006835938 266.9614868164062 C 183.1813659667969 267.1716613769531 183.8945007324219 267.4234313964844 184.607666015625 267.6746520996094 C 185.0274658203125 267.8426818847656 185.5304565429688 268.0523071289062 185.9081115722656 268.3883666992188 C 186.1598815917969 268.556396484375 186.2857666015625 268.723876953125 186.4537658691406 268.9340209960938 C 186.8730163574219 269.4791564941406 187.0831909179688 270.1507263183594 187.0831909179688 270.8217468261719 C 187.0831909179688 272.4998168945312 185.698486328125 273.9261169433594 183.9782409667969 273.9261169433594 C 183.8945007324219 273.9261169433594 183.8523559570312 273.9261169433594 183.7686157226562 273.884521484375 C 183.5168762207031 273.9261169433594 183.2234802246094 273.9261169433594 182.887451171875 273.9261169433594 C 181.7550354003906 273.9261169433594 180.5383605957031 273.6743774414062 179.3216552734375 273.0449523925781 C 178.1044311523438 272.4576721191406 177.1816711425781 271.7029113769531 176.4263610839844 270.8217468261719 L 175.9649658203125 271.1994018554688 L 171.853515625 274.9747924804688 C 173.0701904296875 276.695556640625 174.7061462402344 278.0381164550781 176.6781311035156 278.750732421875 C 178.7338562011719 279.5481567382812 180.7479858398438 279.92529296875 182.887451171875 279.92529296875 C 184.3980407714844 279.92529296875 185.8243713378906 279.7161865234375 187.1669311523438 279.3385314941406 C 187.50244140625 279.2126770019531 187.7963562011719 279.0867919921875 188.1318664550781 279.0025024414062 C 189.0967712402344 278.6248474121094 190.0201110839844 278.1218566894531 190.8586120605469 277.492431640625 C 191.9078063964844 276.695556640625 192.7889709472656 275.6463317871094 193.3762512207031 274.3880615234375 C 194.0472717285156 273.1708374023438 194.3827819824219 271.6191711425781 194.3827819824219 269.9405517578125 C 194.3827819824219 268.4299621582031 194.0472717285156 267.1716613769531 193.5021362304688 266.2067260742188 C 192.8727111816406 265.1996765136719 192.117431640625 264.4027709960938 191.2367858886719 263.6890869140625 Z M 232.5177307128906 248.4599609375 C 223.8750305175781 248.4599609375 216.7850952148438 255.5083312988281 216.7850952148438 264.1504821777344 C 216.7850952148438 272.8774719238281 223.8750305175781 279.92529296875 232.5177307128906 279.92529296875 C 241.2025756835938 279.92529296875 248.2930908203125 272.8774719238281 248.2930908203125 264.1504821777344 C 248.2930908203125 255.5083312988281 241.2025756835938 248.4599609375 232.5177307128906 248.4599609375 Z M 232.5177307128906 273.422607421875 C 227.6931457519531 273.422607421875 223.7912902832031 269.2689819335938 223.7912902832031 264.1504821777344 C 223.7912902832031 259.1162414550781 227.6931457519531 254.9210510253906 232.5177307128906 254.9210510253906 C 237.3007507324219 254.9210510253906 241.2863159179688 259.1162414550781 241.2863159179688 264.1504821777344 C 241.2863159179688 269.2689819335938 237.3007507324219 273.422607421875 232.5177307128906 273.422607421875 Z M 288.5664367675781 249.3827514648438 L 288.5664367675781 267.1295166015625 C 288.5664367675781 270.276611328125 286.0493469238281 272.7937316894531 282.9443969726562 272.7937316894531 C 279.8399963378906 272.7937316894531 277.3229064941406 270.276611328125 277.3229064941406 267.1295166015625 L 277.3229064941406 249.3827514648438 L 270.5262756347656 249.3827514648438 L 270.5262756347656 266.6681213378906 C 270.5262756347656 273.5906372070312 276.1056823730469 279.0867919921875 282.9865417480469 279.0867919921875 C 289.7831420898438 279.0867919921875 295.3635864257812 273.5906372070312 295.3635864257812 266.6681213378906 L 295.3635864257812 249.3827514648438 L 288.5664367675781 249.3827514648438 Z M 341.8889465332031 279.0867919921875 L 334.6304321289062 267.2138061523438 C 338.1124572753906 265.745361328125 340.4205017089844 262.1790466308594 340.2097778320312 258.1934509277344 C 339.9580078125 253.2002868652344 335.5953369140625 249.3827514648438 330.5610961914062 249.3827514648438 L 317.5968017578125 249.3827514648438 L 317.5968017578125 268.0107116699219 L 317.7232055664062 279.0867919921875 L 324.8131713867188 279.0867919921875 L 324.8131713867188 268.0107116699219 L 326.6592712402344 268.0107116699219 C 327.1622924804688 268.0107116699219 327.5399169921875 268.2203369140625 327.7079162597656 268.5979919433594 L 333.5817565917969 279.0867919921875 L 341.8889465332031 279.0867919921875 Z M 324.8131713867188 255.4661865234375 L 330.2671813964844 255.4661865234375 C 331.9452819824219 255.4661865234375 333.455322265625 256.6412658691406 333.6233520507812 258.3188171386719 C 333.7908325195312 260.2908020019531 332.2813110351562 261.8851318359375 330.4352416992188 261.8851318359375 L 324.8131713867188 261.8851318359375 L 324.8131713867188 255.4661865234375 Z M 384.8895874023438 269.520751953125 C 383.4638061523438 271.6607666015625 381.1557922363281 272.9617614746094 378.5549011230469 272.9617614746094 C 374.1495666503906 272.9617614746094 370.49951171875 269.0177612304688 370.49951171875 264.2347412109375 C 370.49951171875 259.41015625 374.1495666503906 255.5504455566406 378.5549011230469 255.5504455566406 C 381.072021484375 255.5504455566406 383.3379516601562 256.8087463378906 384.7642211914062 258.7385864257812 L 389.6725769042969 254.5012512207031 C 386.9880065917969 251.3131103515625 382.9602661132812 249.3827514648438 378.5549011230469 249.3827514648438 C 370.3314514160156 249.3827514648438 363.7034301757812 256.0113220214844 363.7034301757812 264.2347412109375 C 363.7034301757812 272.4576721191406 370.3314514160156 279.0867919921875 378.5549011230469 279.0867919921875 C 383.2120361328125 279.0867919921875 387.2813720703125 276.9472961425781 390.0918273925781 273.5906372070312 L 384.8895874023438 269.520751953125 Z M 432.5484313964844 272.9617614746094 L 419.5003662109375 272.9617614746094 L 419.5003662109375 266.7940063476562 L 431.834716796875 266.7940063476562 L 431.834716796875 261.0460815429688 L 419.5003662109375 261.0460815429688 L 419.5003662109375 255.4661865234375 L 432.5484313964844 255.4661865234375 L 432.5484313964844 249.3827514648438 L 412.577880859375 249.3827514648438 L 412.577880859375 279.0867919921875 L 432.5484313964844 279.0867919921875 L 432.5484313964844 272.9617614746094 Z M 502.3145751953125 249.3827514648438 L 488.2594604492188 249.3827514648438 L 488.2594604492188 279.0867919921875 L 496.1052856445312 279.0867919921875 L 496.1052856445312 268.1365966796875 L 502.3145751953125 268.1365966796875 C 507.0554809570312 268.1365966796875 511.7547302246094 263.4378662109375 511.7547302246094 258.7385864257812 C 511.7547302246094 252.4876708984375 507.0554809570312 249.3827514648438 502.3145751953125 249.3827514648438 Z M 502.3145751953125 261.9272766113281 L 496.1052856445312 261.9272766113281 L 496.1052856445312 255.6336669921875 L 502.3145751953125 255.6336669921875 C 503.9089050292969 255.6336669921875 505.4610900878906 257.1864013671875 505.4610900878906 258.7385864257812 C 505.4610900878906 260.2908020019531 503.9089050292969 261.9272766113281 502.3145751953125 261.9272766113281 Z M 551.231689453125 279.0025024414062 L 558.6582641601562 279.0025024414062 L 546.1553344726562 249.3827514648438 L 539.4429931640625 249.3827514648438 L 526.9400634765625 279.0867919921875 L 534.3666381835938 279.0025024414062 L 536.9674682617188 272.7515869140625 L 548.630859375 272.7515869140625 L 551.231689453125 279.0025024414062 Z M 539.3165893554688 266.709716796875 L 542.7991943359375 257.9838562011719 L 546.2811889648438 266.709716796875 L 539.3165893554688 266.709716796875 Z M 601.4075927734375 269.520751953125 C 599.9813842773438 271.6607666015625 597.6732788085938 272.9617614746094 595.0718994140625 272.9617614746094 C 590.6671142578125 272.9617614746094 587.0169677734375 269.0177612304688 587.0169677734375 264.2347412109375 C 587.0169677734375 259.41015625 590.6671142578125 255.5504455566406 595.0718994140625 255.5504455566406 C 597.589599609375 255.5504455566406 599.85546875 256.8087463378906 601.2817993164062 258.7385864257812 L 606.1901245117188 254.5012512207031 C 603.5050048828125 251.3131103515625 599.4778442382812 249.3827514648438 595.0718994140625 249.3827514648438 C 586.8489990234375 249.3827514648438 580.2203979492188 256.0113220214844 580.2203979492188 264.2347412109375 C 580.2203979492188 272.4576721191406 586.8489990234375 279.0867919921875 595.0718994140625 279.0867919921875 C 599.7295532226562 279.0867919921875 603.7988891601562 276.9472961425781 606.6099243164062 273.5906372070312 L 601.4075927734375 269.520751953125 Z M 655.9462890625 278.9187622070312 L 642.6470336914062 263.4794616699219 L 655.1915283203125 249.3827514648438 L 646.0874633789062 249.3827514648438 L 635.5980834960938 261.9272766113281 L 635.5980834960938 249.3827514648438 L 629.1791381835938 249.3827514648438 L 629.0116577148438 279.0867919921875 L 635.5980834960938 278.9187622070312 L 635.5980834960938 264.654541015625 L 646.5067138671875 278.9187622070312 L 655.9462890625 278.9187622070312 Z M 697.6470336914062 263.6890869140625 C 696.7242431640625 263.01806640625 695.7172241210938 262.472412109375 694.6263427734375 262.0952758789062 C 693.5355834960938 261.6333618164062 692.4869384765625 261.2557067871094 691.438232421875 260.9207458496094 C 690.808349609375 260.7105712890625 690.1372680664062 260.5009460449219 689.5921630859375 260.2492065429688 C 688.962158203125 260.0811767578125 688.5429077148438 259.8294067382812 688.1236572265625 259.6192321777344 C 687.7039184570312 259.326416015625 687.368408203125 259.0740966796875 687.1588134765625 258.7385864257812 C 686.9486083984375 258.3609619140625 686.906982421875 257.9417114257812 686.906982421875 257.3960266113281 C 686.906982421875 256.8508911132812 686.9907836914062 256.3473510742188 687.28466796875 255.9696960449219 C 687.5359497070312 255.5925903320312 687.8713989257812 255.2565612792969 688.2495727539062 255.0469360351562 C 688.6688232421875 254.8367614746094 689.0880737304688 254.6687316894531 689.5921630859375 254.5428466796875 C 690.095703125 254.5012512207031 690.5565185546875 254.4591064453125 691.0606079101562 254.4591064453125 C 691.9833984375 254.4591064453125 692.9478149414062 254.6687316894531 693.9132690429688 255.0885314941406 C 694.9619140625 255.5925903320312 695.8009643554688 256.2214660644531 696.3887939453125 257.0183715820312 L 700.9616088867188 252.9485168457031 C 699.7027587890625 251.2709655761719 698.1089477539062 250.0537414550781 696.3466186523438 249.3827514648438 C 694.584228515625 248.7954711914062 692.864013671875 248.4599609375 691.1865234375 248.4599609375 C 689.7596435546875 248.4599609375 688.37548828125 248.6695861816406 686.9907836914062 249.0050964355469 C 685.648193359375 249.3406066894531 684.3893432617188 249.8862609863281 683.2569580078125 250.6415710449219 C 682.1655883789062 251.4389953613281 681.2849731445312 252.4033813476562 680.655517578125 253.5784606933594 C 679.9423828125 254.795166015625 679.6063842773438 256.2214660644531 679.6063842773438 257.8579711914062 C 679.6063842773438 259.2421264648438 679.8164672851562 260.3750610351562 680.2362670898438 261.2978515625 C 680.6976928710938 262.2211608886719 681.2849731445312 263.0602111816406 681.9981689453125 263.7312316894531 C 682.7113037109375 264.4027709960938 683.55029296875 264.9479064941406 684.4314575195312 265.3255615234375 C 685.354248046875 265.745361328125 686.2770385742188 266.1229858398438 687.2424926757812 266.4163513183594 C 687.4526977539062 266.4579772949219 687.61962890625 266.5838623046875 687.7876586914062 266.6259765625 L 688.8784790039062 266.9614868164062 C 689.5921630859375 267.1716613769531 690.3048095703125 267.4234313964844 691.0184326171875 267.6746520996094 C 691.438232421875 267.8426818847656 691.9412231445312 268.0523071289062 692.3189086914062 268.3883666992188 C 692.5706787109375 268.556396484375 692.6965942382812 268.723876953125 692.864013671875 268.9340209960938 C 693.2838134765625 269.4791564941406 693.4934692382812 270.1507263183594 693.4934692382812 270.8217468261719 C 693.4934692382812 272.4998168945312 692.1093139648438 273.9261169433594 690.3890991210938 273.9261169433594 C 690.3048095703125 273.9261169433594 690.26318359375 273.9261169433594 690.1788940429688 273.884521484375 C 689.9276733398438 273.9261169433594 689.6337280273438 273.9261169433594 689.2982788085938 273.9261169433594 C 688.165283203125 273.9261169433594 686.9486083984375 273.6743774414062 685.7318725585938 273.0449523925781 C 684.5157470703125 272.4576721191406 683.5919189453125 271.7029113769531 682.837158203125 270.8217468261719 L 682.3757934570312 271.1994018554688 L 678.2637329101562 274.9747924804688 C 679.48046875 276.695556640625 681.116943359375 278.0381164550781 683.0889282226562 278.750732421875 C 685.1446533203125 279.5481567382812 687.1588134765625 279.92529296875 689.2982788085938 279.92529296875 C 690.808349609375 279.92529296875 692.2351684570312 279.7161865234375 693.5777587890625 279.3385314941406 C 693.9132690429688 279.2126770019531 694.2070922851562 279.0867919921875 694.5426635742188 279.0025024414062 C 695.5076293945312 278.6248474121094 696.4302978515625 278.1218566894531 697.2694091796875 277.492431640625 C 698.3180541992188 276.695556640625 699.1998291015625 275.6463317871094 699.7864990234375 274.3880615234375 C 700.4580688476562 273.1708374023438 700.7941284179688 271.6191711425781 700.7941284179688 269.9405517578125 C 700.7941284179688 268.4299621582031 700.4580688476562 267.1716613769531 699.9124145507812 266.2067260742188 C 699.2835083007812 265.1996765136719 698.5281982421875 264.4027709960938 697.6470336914062 263.6890869140625 Z M 776.0564575195312 263.5637512207031 C 777.776123046875 262.1374206542969 778.4898681640625 260.2908020019531 778.4898681640625 258.3188171386719 C 778.4898681640625 253.3682861328125 774.5042114257812 249.3827514648438 769.5947875976562 249.3827514648438 L 756.6731567382812 249.3827514648438 L 756.6731567382812 279.0867919921875 L 770.9379272460938 279.0446472167969 C 775.8468017578125 279.0446472167969 779.790283203125 275.1012268066406 779.790283203125 270.1507263183594 C 779.790283203125 267.54931640625 778.3639526367188 265.0316467285156 776.0564575195312 263.5637512207031 Z M 772.4901123046875 258.3188171386719 C 772.4901123046875 259.9131469726562 771.1891479492188 261.2135620117188 769.5947875976562 261.2135620117188 L 763.595703125 261.2135620117188 L 763.595703125 255.424560546875 L 769.5947875976562 255.424560546875 C 771.1891479492188 255.424560546875 772.4901123046875 256.7250061035156 772.4901123046875 258.3188171386719 Z M 770.9379272460938 273.0033569335938 L 763.595703125 273.0033569335938 L 763.595703125 267.3812866210938 L 770.9379272460938 267.3812866210938 C 772.53173828125 267.3812866210938 773.7484130859375 268.5979919433594 773.7484130859375 270.1507263183594 C 773.7484130859375 271.7445068359375 772.53173828125 273.0033569335938 770.9379272460938 273.0033569335938 Z M 823.5045776367188 249.3827514648438 L 816.8759765625 260.2492065429688 L 810.2890014648438 249.3827514648438 L 802.0661010742188 249.3827514648438 L 813.0579223632812 266.4579772949219 L 813.0579223632812 279.0867919921875 L 820.2327270507812 279.0867919921875 L 820.2327270507812 267.2138061523438 L 831.72802734375 249.3827514648438 L 823.5045776367188 249.3827514648438 Z M 911.0191650390625 249.9700012207031 L 886.0975952148438 249.9700012207031 L 886.0975952148438 258.235595703125 L 893.6494750976562 258.235595703125 L 893.6494750976562 278.8766174316406 L 903.2992553710938 278.8766174316406 L 903.2992553710938 258.235595703125 L 911.0191650390625 258.235595703125 L 911.0191650390625 249.9700012207031 Z M 936.0654907226562 249.9700012207031 L 931.576416015625 265.5773315429688 L 931.3668212890625 265.5773315429688 L 926.1224365234375 249.9700012207031 L 913.3682250976562 249.9700012207031 L 913.3682250976562 278.8766174316406 L 922.4723510742188 278.8766174316406 L 922.0531005859375 262.6404113769531 L 922.2621459960938 262.6404113769531 L 927.5908813476562 278.8766174316406 L 934.47119140625 278.8766174316406 L 939.7572021484375 262.6820373535156 L 940.009521484375 262.6820373535156 L 939.7572021484375 278.8766174316406 L 949.1973266601562 278.8766174316406 L 949.1973266601562 249.9700012207031 L 936.0654907226562 249.9700012207031 Z M 965.0142822265625 270.6537170410156 C 961.6160278320312 270.6537170410156 958.888671875 267.8426818847656 958.888671875 264.3606262207031 C 958.888671875 260.8364562988281 961.6160278320312 257.9838562011719 965.0142822265625 257.9838562011719 C 967.15380859375 257.9838562011719 969.0420532226562 259.2005310058594 970.1749267578125 260.9623413085938 L 977.097412109375 255.1306762695312 C 974.3285522460938 251.4389953613281 970.0490112304688 249.08935546875 965.0142822265625 249.08935546875 C 959.2247924804688 249.08935546875 954.2320556640625 252.3196411132812 951.7150268554688 256.9762268066406 L 951.7150268554688 271.6607666015625 C 954.2320556640625 276.3594970703125 959.2247924804688 279.5903015136719 965.0142822265625 279.5903015136719 C 969.67138671875 279.5903015136719 973.824462890625 277.4081726074219 976.7197875976562 274.0941467285156 L 970.0906372070312 267.8426818847656 C 968.958251953125 269.5628967285156 967.1121826171875 270.6537170410156 965.0142822265625 270.6537170410156 Z"
     id="Path_364" />
</svg>
