<?xml version="1.0" encoding="utf-8"?>
<!-- Generator: Adobe Illustrator 25.4.1, SVG Export Plug-In . SVG Version: 6.00 Build 0)  -->
<svg version="1.1"
	 id="svg20" xmlns:cc="http://creativecommons.org/ns#" xmlns:dc="http://purl.org/dc/elements/1.1/" xmlns:rdf="http://www.w3.org/1999/02/22-rdf-syntax-ns#" xmlns:svg="http://www.w3.org/2000/svg"
	 xmlns="http://www.w3.org/2000/svg" xmlns:xlink="http://www.w3.org/1999/xlink" x="0px" y="0px" viewBox="0 0 1299.4 241.2"
	 style="enable-background:new 0 0 1299.4 241.2;" xml:space="preserve">
<style type="text/css">
	.st0{fill:#FFFFFF;}
	.st1{fill:#62371F;}
	.st2{fill:#4B8D23;}
	.st3{fill:#70B237;}
	.st4{fill:#395D1C;}
	.st5{fill:#46751F;}
	.st6{fill:#519626;}
	.st7{fill:#864E2C;}
	.st8{fill:#7E5237;}
	.st9{fill:#613C21;}
	.st10{fill:#A16639;}
</style>
<g>
	<path class="st0" d="M446.9,60.9h40v119.4h-40V60.9z M575.4,111.7h-14V87.9h-17.3v-27h-40v119.4h40v-45.4h15.7v21.6h15.7v23.8h40
		V60.9h-40v50.8H575.4z M655.9,60.9h-22.7v119.4h22.7h17.3h54.6v-29.7h-54.6v-12.4h54.6v-29.8h-54.6V90.6h54.6V60.9h-54.6H655.9z
		 M765.6,60.9h-22.7v119.4h22.7h17.3h54.6v-29.7h-54.6v-60h54.6V60.9h-54.6H765.6z M954.2,109V60.9h-97.8v119.4h40v-41.1h17.8v41.1
		h40v-56.2h-15.7V109H954.2z M914.2,113.3h-17.8V86.8h17.8V113.3z M969.3,60.9v119.4h40v-41.1h17.8v41.1h40V60.9H969.3z
		 M1044.4,100.3h-16.2v4.9h8.1v22.7h-11.9v-8.1H1012v8.1h-11.9v-22.7h8.1v-4.9h-16.7V84.7h20v14h13v-14h20L1044.4,100.3
		L1044.4,100.3z M1109.8,60.9h-22.7v119.4h40v-42.1h54.6v-29.8h-54.6V90.6h54.6V60.9h-54.6H1109.8z M1263.2,60.9h-40h-28.1v29.7
		h28.1v89.7h40V90.6h36.2V60.9H1263.2z M386.9,87.9h-17.3v23.8h-23.2V87.9h-17.3v-27h-40v119.4h40v-45.4h15.7v21.6h26.5v-21.6H387
		v45.4h40V60.9h-40L386.9,87.9L386.9,87.9z"/>
	<g>
		<path id="Path_675" class="st1" d="M96,0h49.3c28.2,0,45.1,0,56.3,4.7c16.2,5.9,29,18.7,34.9,34.9c4.7,11.3,4.7,28.2,4.7,56.3
			v49.3c0,28.2,0,45.1-4.7,56.3c-5.9,16.2-18.7,29-34.9,34.9c-11.3,4.7-28.2,4.7-56.3,4.7H96c-28.2,0-45.1,0-56.3-4.7
			c-16.2-5.9-29-18.7-34.9-34.9C0,190.3,0,173.4,0,145.3V96c0-28.2,0-45.1,4.7-56.3c5.9-16.2,18.7-29,34.9-34.9C50.9,0,67.8,0,96,0z
			"/>
		<path class="st2" d="M15.2,30.2v15.1H2.8c0.5-2,1.1-3.9,1.9-5.8c1.2-3.2,2.6-6.3,4.4-9.3H15.2z"/>
		<rect x="15.2" y="30.2" class="st3" width="15.1" height="15.1"/>
		<rect x="30.2" y="30.2" class="st4" width="15.1" height="15.1"/>
		<rect x="45.3" y="30.2" class="st5" width="15.1" height="15.1"/>
		<rect x="60.4" y="30.2" class="st2" width="15.1" height="15.1"/>
		<rect x="75.4" y="30.2" class="st4" width="15.1" height="15.1"/>
		<rect x="90.5" y="30.2" class="st4" width="15.1" height="15.1"/>
		<rect x="105.6" y="30.2" class="st3" width="15.1" height="15.1"/>
		<rect x="120.6" y="30.2" class="st2" width="15.1" height="15.1"/>
		<rect x="135.7" y="30.2" class="st3" width="15.1" height="15.1"/>
		<rect x="150.8" y="30.2" class="st6" width="15.1" height="15.1"/>
		<rect x="165.8" y="30.2" class="st2" width="15.1" height="15.1"/>
		<rect x="180.9" y="30.2" class="st3" width="15.1" height="15.1"/>
		<rect x="196" y="30.2" class="st4" width="15.1" height="15.1"/>
		<rect x="211" y="30.2" class="st2" width="15.1" height="15.1"/>
		<path class="st3" d="M238.4,45.3h-12.4V30.2h6.1c1.7,3,3.2,6.1,4.3,9.3C237.3,41.4,238,43.3,238.4,45.3z"/>
		<path class="st6" d="M15.2,21.6v8.7H9.1C10.8,27.2,12.9,24.3,15.2,21.6z"/>
		<path class="st4" d="M30.2,15.2v15.1H15.2v-8.7c2-2.3,4.1-4.4,6.4-6.4H30.2z"/>
		<rect x="30.2" y="15.2" class="st5" width="15.1" height="15.1"/>
		<rect x="45.3" y="15.2" class="st5" width="15.1" height="15.1"/>
		<rect x="60.4" y="15.2" class="st4" width="15.1" height="15.1"/>
		<rect x="75.4" y="15.2" class="st5" width="15.1" height="15.1"/>
		<rect x="90.5" y="15.2" class="st6" width="15.1" height="15.1"/>
		<rect x="105.6" y="15.2" class="st5" width="15.1" height="15.1"/>
		<rect x="120.6" y="15.2" class="st4" width="15.1" height="15.1"/>
		<rect x="135.7" y="15.2" class="st5" width="15.1" height="15.1"/>
		<rect x="150.8" y="15.2" class="st6" width="15.1" height="15.1"/>
		<rect x="165.8" y="15.2" class="st4" width="15.1" height="15.1"/>
		<rect x="180.9" y="15.2" class="st4" width="15.1" height="15.1"/>
		<rect x="196" y="15.2" class="st2" width="15.1" height="15.1"/>
		<path class="st3" d="M226.1,21.6v8.6H211V15.2h8.7C222,17.1,224.1,19.3,226.1,21.6z"/>
		<path class="st3" d="M232.2,30.2h-6.1v-8.6C228.4,24.3,230.4,27.2,232.2,30.2z"/>
		<path class="st6" d="M30.2,9v6.2h-8.7C24.3,12.9,27.2,10.8,30.2,9z"/>
		<path class="st2" d="M45.3,2.7v12.4H30.2V9c3-1.7,6.2-3.2,9.4-4.4C41.5,3.8,43.4,3.2,45.3,2.7z"/>
		<path class="st2" d="M60.4,0.6v14.6H45.3V2.7C49.6,1.6,54.5,1,60.4,0.6z"/>
		<path class="st6" d="M75.4,0.1v15.1H60.4V0.6c3-0.2,6.2-0.4,9.7-0.5H75.4z"/>
		<rect x="75.4" y="0.1" class="st3" width="15.1" height="15.1"/>
		<rect x="90.5" y="0.1" class="st3" width="15.1" height="15.1"/>
		<rect x="105.6" y="0.1" class="st5" width="15.1" height="15.1"/>
		<rect x="120.6" y="0.1" class="st3" width="15.1" height="15.1"/>
		<rect x="135.7" y="0.1" class="st5" width="15.1" height="15.1"/>
		<rect x="150.8" y="0.1" class="st2" width="15.1" height="15.1"/>
		<path class="st2" d="M180.9,0.6v14.6h-15.1V0.1h5.4C174.7,0.2,177.9,0.3,180.9,0.6z"/>
		<path class="st4" d="M196,2.7v12.4h-15.1V0.6C186.7,1,191.7,1.6,196,2.7z"/>
		<path class="st3" d="M211,9v6.2H196V2.7c1.9,0.5,3.8,1.1,5.6,1.9C204.9,5.8,208,7.3,211,9z"/>
		<path class="st6" d="M219.7,15.2H211V9C214.1,10.8,217,12.9,219.7,15.2z"/>
		<rect x="0.1" y="105.6" class="st1" width="15.1" height="15.1"/>
		<rect x="15.2" y="105.6" class="st7" width="15.1" height="15.1"/>
		<rect x="30.2" y="105.6" class="st8" width="15.1" height="15.1"/>
		<rect x="45.3" y="105.6" class="st7" width="15.1" height="15.1"/>
		<rect x="60.4" y="105.6" class="st7" width="15.1" height="15.1"/>
		<rect x="75.4" y="105.6" class="st7" width="15.1" height="15.1"/>
		<rect x="90.5" y="105.6" class="st7" width="15.1" height="15.1"/>
		<rect x="105.6" y="105.6" class="st8" width="15.1" height="15.1"/>
		<rect x="120.6" y="105.6" class="st9" width="15.1" height="15.1"/>
		<rect x="135.7" y="105.6" class="st7" width="15.1" height="15.1"/>
		<rect x="150.8" y="105.6" class="st7" width="15.1" height="15.1"/>
		<rect x="165.8" y="105.6" class="st7" width="15.1" height="15.1"/>
		<rect x="180.9" y="105.6" class="st7" width="15.1" height="15.1"/>
		<rect x="196" y="105.6" class="st7" width="15.1" height="15.1"/>
		<rect x="211" y="105.6" class="st7" width="15.1" height="15.1"/>
		<rect x="226.1" y="105.6" class="st7" width="15.1" height="15.1"/>
		<rect x="0.1" y="90.5" class="st7" width="15.1" height="15.1"/>
		<rect x="15.2" y="90.5" class="st1" width="15.1" height="15.1"/>
		<rect x="30.2" y="90.5" class="st7" width="15.1" height="15.1"/>
		<rect x="45.3" y="90.5" class="st1" width="15.1" height="15.1"/>
		<rect x="60.4" y="90.5" class="st10" width="15.1" height="15.1"/>
		<rect x="75.4" y="90.5" class="st7" width="15.1" height="15.1"/>
		<rect x="90.5" y="90.5" class="st8" width="15.1" height="15.1"/>
		<rect x="105.6" y="90.5" class="st10" width="15.1" height="15.1"/>
		<rect x="120.6" y="90.5" class="st1" width="15.1" height="15.1"/>
		<rect x="135.7" y="90.5" class="st10" width="15.1" height="15.1"/>
		<rect x="150.8" y="90.5" class="st10" width="15.1" height="15.1"/>
		<rect x="165.8" y="90.5" class="st7" width="15.1" height="15.1"/>
		<rect x="180.9" y="90.5" class="st9" width="15.1" height="15.1"/>
		<rect x="196" y="90.5" class="st5" width="15.1" height="15.1"/>
		<rect x="211" y="90.5" class="st1" width="15.1" height="15.1"/>
		<rect x="226.1" y="90.5" class="st1" width="15.1" height="15.1"/>
		<rect x="0.1" y="75.4" class="st7" width="15.1" height="15.1"/>
		<rect x="15.2" y="75.4" class="st7" width="15.1" height="15.1"/>
		<rect x="30.2" y="75.4" class="st9" width="15.1" height="15.1"/>
		<rect x="45.3" y="75.4" class="st5" width="15.1" height="15.1"/>
		<rect x="60.4" y="75.4" class="st7" width="15.1" height="15.1"/>
		<rect x="75.4" y="75.4" class="st7" width="15.1" height="15.1"/>
		<rect x="90.5" y="75.4" class="st1" width="15.1" height="15.1"/>
		<rect x="105.6" y="75.4" class="st7" width="15.1" height="15.1"/>
		<rect x="120.6" y="75.4" class="st7" width="15.1" height="15.1"/>
		<rect x="135.7" y="75.4" class="st1" width="15.1" height="15.1"/>
		<rect x="150.8" y="75.4" class="st5" width="15.1" height="15.1"/>
		<rect x="165.8" y="75.4" class="st9" width="15.1" height="15.1"/>
		<rect x="180.9" y="75.4" class="st7" width="15.1" height="15.1"/>
		<rect x="196" y="75.4" class="st4" width="15.1" height="15.1"/>
		<rect x="211" y="75.4" class="st7" width="15.1" height="15.1"/>
		<rect x="226.1" y="75.4" class="st10" width="15.1" height="15.1"/>
		<path class="st7" d="M15.2,165.8v15.1H0.7c-0.3-4.3-0.5-9-0.6-14.4v-0.7H15.2z"/>
		<rect x="15.2" y="165.8" class="st8" width="15.1" height="15.1"/>
		<rect x="30.2" y="165.8" class="st8" width="15.1" height="15.1"/>
		<rect x="45.3" y="165.8" class="st7" width="15.1" height="15.1"/>
		<rect x="60.4" y="165.8" class="st1" width="15.1" height="15.1"/>
		<rect x="75.4" y="165.8" class="st7" width="15.1" height="15.1"/>
		<rect x="90.5" y="165.8" class="st7" width="15.1" height="15.1"/>
		<rect x="105.6" y="165.8" class="st7" width="15.1" height="15.1"/>
		<rect x="120.6" y="165.8" class="st7" width="15.1" height="15.1"/>
		<rect x="135.7" y="165.8" class="st1" width="15.1" height="15.1"/>
		<rect x="150.8" y="165.8" class="st7" width="15.1" height="15.1"/>
		<rect x="165.8" y="165.8" class="st10" width="15.1" height="15.1"/>
		<rect x="180.9" y="165.8" class="st7" width="15.1" height="15.1"/>
		<rect x="196" y="165.8" class="st10" width="15.1" height="15.1"/>
		<rect x="211" y="165.8" class="st10" width="15.1" height="15.1"/>
		<path class="st7" d="M241.1,165.8v0.6c-0.1,5.4-0.3,10.2-0.6,14.5h-14.5v-15.1H241.1z"/>
		<rect x="0.1" y="150.8" class="st10" width="15.1" height="15.1"/>
		<rect x="15.2" y="150.8" class="st8" width="15.1" height="15.1"/>
		<rect x="30.2" y="150.8" class="st7" width="15.1" height="15.1"/>
		<rect x="45.3" y="150.8" class="st10" width="15.1" height="15.1"/>
		<rect x="60.4" y="150.8" class="st10" width="15.1" height="15.1"/>
		<rect x="75.4" y="150.8" class="st7" width="15.1" height="15.1"/>
		<rect x="90.5" y="150.8" class="st1" width="15.1" height="15.1"/>
		<rect x="105.6" y="150.8" class="st10" width="15.1" height="15.1"/>
		<rect x="120.6" y="150.8" class="st1" width="15.1" height="15.1"/>
		<rect x="135.7" y="150.8" class="st7" width="15.1" height="15.1"/>
		<rect x="150.8" y="150.8" class="st7" width="15.1" height="15.1"/>
		<rect x="165.8" y="150.8" class="st1" width="15.1" height="15.1"/>
		<rect x="180.9" y="150.8" class="st7" width="15.1" height="15.1"/>
		<rect x="196" y="150.8" class="st7" width="15.1" height="15.1"/>
		<rect x="211" y="150.8" class="st7" width="15.1" height="15.1"/>
		<rect x="226.1" y="150.8" class="st10" width="15.1" height="15.1"/>
		<rect x="0.1" y="135.7" class="st10" width="15.1" height="15.1"/>
		<rect x="15.2" y="135.7" class="st7" width="15.1" height="15.1"/>
		<rect x="30.2" y="135.7" class="st7" width="15.1" height="15.1"/>
		<rect x="45.3" y="135.7" class="st7" width="15.1" height="15.1"/>
		<rect x="60.4" y="135.7" class="st7" width="15.1" height="15.1"/>
		<rect x="75.4" y="135.7" class="st1" width="15.1" height="15.1"/>
		<rect x="90.5" y="135.7" class="st7" width="15.1" height="15.1"/>
		<rect x="105.6" y="135.7" class="st7" width="15.1" height="15.1"/>
		<rect x="120.6" y="135.7" class="st10" width="15.1" height="15.1"/>
		<rect x="135.7" y="135.7" class="st7" width="15.1" height="15.1"/>
		<rect x="150.8" y="135.7" class="st9" width="15.1" height="15.1"/>
		<rect x="165.8" y="135.7" class="st1" width="15.1" height="15.1"/>
		<rect x="180.9" y="135.7" class="st7" width="15.1" height="15.1"/>
		<rect x="196" y="135.7" class="st10" width="15.1" height="15.1"/>
		<rect x="211" y="135.7" class="st9" width="15.1" height="15.1"/>
		<rect x="226.1" y="135.7" class="st7" width="15.1" height="15.1"/>
		<rect x="0.1" y="120.6" class="st7" width="15.1" height="15.1"/>
		<rect x="15.2" y="120.6" class="st1" width="15.1" height="15.1"/>
		<rect x="30.2" y="120.6" class="st10" width="15.1" height="15.1"/>
		<rect x="45.3" y="120.6" class="st9" width="15.1" height="15.1"/>
		<rect x="60.4" y="120.6" class="st7" width="15.1" height="15.1"/>
		<rect x="75.4" y="120.6" class="st1" width="15.1" height="15.1"/>
		<rect x="90.5" y="120.6" class="st10" width="15.1" height="15.1"/>
		<rect x="105.6" y="120.6" class="st7" width="15.1" height="15.1"/>
		<rect x="120.6" y="120.6" class="st7" width="15.1" height="15.1"/>
		<rect x="135.7" y="120.6" class="st1" width="15.1" height="15.1"/>
		<rect x="150.8" y="120.6" class="st10" width="15.1" height="15.1"/>
		<rect x="165.8" y="120.6" class="st7" width="15.1" height="15.1"/>
		<rect x="180.9" y="120.6" class="st10" width="15.1" height="15.1"/>
		<rect x="196" y="120.6" class="st7" width="15.1" height="15.1"/>
		<rect x="211" y="120.6" class="st7" width="15.1" height="15.1"/>
		<rect x="226.1" y="120.6" class="st1" width="15.1" height="15.1"/>
		<path class="st10" d="M30.2,226.1v6c-3-1.7-5.8-3.7-8.4-6H30.2z"/>
		<path class="st7" d="M45.3,226.1v12.2c-1.9-0.5-3.8-1.1-5.6-1.9c-3.3-1.2-6.4-2.7-9.4-4.4v-6H45.3z"/>
		<path class="st7" d="M60.4,226.1v14.4c-5.8-0.4-10.8-1.1-15.1-2.2v-12.2H60.4z"/>
		<path class="st9" d="M75.4,226.1v15c-5.6-0.1-10.6-0.3-15.1-0.6v-14.4H75.4z"/>
		<rect x="75.4" y="226.1" class="st1" width="15.1" height="15.1"/>
		<rect x="90.5" y="226.1" class="st7" width="15.1" height="15.1"/>
		<rect x="105.6" y="226.1" class="st10" width="15.1" height="15.1"/>
		<rect x="120.6" y="226.1" class="st1" width="15.1" height="15.1"/>
		<rect x="135.7" y="226.1" class="st7" width="15.1" height="15.1"/>
		<rect x="150.8" y="226.1" class="st7" width="15.1" height="15.1"/>
		<path class="st7" d="M180.9,226.1v14.4c-4.5,0.3-9.5,0.5-15.1,0.6v-15H180.9z"/>
		<path class="st7" d="M196,226.1v12.2c-4.3,1.1-9.2,1.8-15.1,2.2v-14.4H196z"/>
		<path class="st10" d="M211,226.1v6c-3,1.7-6.2,3.2-9.4,4.4c-1.8,0.8-3.7,1.4-5.6,1.9v-12.2H211z"/>
		<path class="st10" d="M219.4,226.1c-2.6,2.2-5.4,4.2-8.4,6v-6H219.4z"/>
		<path class="st7" d="M15.2,211v8.4c-2.2-2.6-4.3-5.5-6-8.4H15.2z"/>
		<path class="st7" d="M30.2,211v15.1h-8.4c-2.4-2-4.6-4.2-6.6-6.6V211H30.2z"/>
		<rect x="30.2" y="211" class="st10" width="15.1" height="15.1"/>
		<rect x="45.3" y="211" class="st7" width="15.1" height="15.1"/>
		<rect x="60.4" y="211" class="st9" width="15.1" height="15.1"/>
		<rect x="75.4" y="211" class="st1" width="15.1" height="15.1"/>
		<rect x="90.5" y="211" class="st1" width="15.1" height="15.1"/>
		<rect x="105.6" y="211" class="st7" width="15.1" height="15.1"/>
		<rect x="120.6" y="211" class="st7" width="15.1" height="15.1"/>
		<rect x="135.7" y="211" class="st10" width="15.1" height="15.1"/>
		<rect x="150.8" y="211" class="st1" width="15.1" height="15.1"/>
		<rect x="165.8" y="211" class="st7" width="15.1" height="15.1"/>
		<rect x="180.9" y="211" class="st10" width="15.1" height="15.1"/>
		<rect x="196" y="211" class="st7" width="15.1" height="15.1"/>
		<path class="st7" d="M226.1,211v8.4c-2,2.4-4.3,4.6-6.6,6.6H211V211H226.1z"/>
		<path class="st10" d="M232.1,211c-1.7,3-3.8,5.8-6,8.4V211H232.1z"/>
		<path class="st7" d="M15.2,195.9V211h-6c-1.8-3-3.3-6.2-4.5-9.5c-0.7-1.8-1.4-3.7-1.8-5.6H15.2z"/>
		<rect x="15.2" y="195.9" class="st10" width="15.1" height="15.1"/>
		<rect x="30.2" y="195.9" class="st7" width="15.1" height="15.1"/>
		<rect x="45.3" y="195.9" class="st7" width="15.1" height="15.1"/>
		<rect x="60.4" y="195.9" class="st7" width="15.1" height="15.1"/>
		<rect x="75.4" y="195.9" class="st8" width="15.1" height="15.1"/>
		<rect x="90.5" y="195.9" class="st7" width="15.1" height="15.1"/>
		<rect x="105.6" y="195.9" class="st8" width="15.1" height="15.1"/>
		<rect x="120.6" y="195.9" class="st10" width="15.1" height="15.1"/>
		<rect x="135.7" y="195.9" class="st7" width="15.1" height="15.1"/>
		<rect x="150.8" y="195.9" class="st7" width="15.1" height="15.1"/>
		<rect x="165.8" y="195.9" class="st10" width="15.1" height="15.1"/>
		<rect x="180.9" y="195.9" class="st7" width="15.1" height="15.1"/>
		<rect x="196" y="195.9" class="st1" width="15.1" height="15.1"/>
		<rect x="211" y="195.9" class="st1" width="15.1" height="15.1"/>
		<path class="st7" d="M238.4,195.9c-0.5,1.9-1.1,3.7-1.8,5.6c-1.2,3.3-2.7,6.5-4.5,9.5h-6v-15.1H238.4z"/>
		<path class="st10" d="M15.2,180.9v15.1H2.9c-1.1-4.3-1.8-9.2-2.2-15.1H15.2z"/>
		<rect x="15.2" y="180.9" class="st7" width="15.1" height="15.1"/>
		<rect x="30.2" y="180.9" class="st7" width="15.1" height="15.1"/>
		<rect x="45.3" y="180.9" class="st10" width="15.1" height="15.1"/>
		<rect x="60.4" y="180.9" class="st7" width="15.1" height="15.1"/>
		<rect x="75.4" y="180.9" class="st1" width="15.1" height="15.1"/>
		<rect x="90.5" y="180.9" class="st10" width="15.1" height="15.1"/>
		<rect x="105.6" y="180.9" class="st7" width="15.1" height="15.1"/>
		<rect x="120.6" y="180.9" class="st10" width="15.1" height="15.1"/>
		<rect x="135.7" y="180.9" class="st10" width="15.1" height="15.1"/>
		<rect x="150.8" y="180.9" class="st7" width="15.1" height="15.1"/>
		<rect x="165.8" y="180.9" class="st10" width="15.1" height="15.1"/>
		<rect x="180.9" y="180.9" class="st10" width="15.1" height="15.1"/>
		<rect x="196" y="180.9" class="st7" width="15.1" height="15.1"/>
		<rect x="211" y="180.9" class="st7" width="15.1" height="15.1"/>
		<path class="st1" d="M240.6,180.9c-0.4,5.8-1.1,10.8-2.2,15.1h-12.3v-15.1H240.6z"/>
		<path class="st7" d="M15.2,60.4v15.1H0.1v-0.9c0.1-5.2,0.3-9.9,0.6-14.2H15.2z"/>
		<rect x="15.2" y="60.4" class="st10" width="15.1" height="15.1"/>
		<rect x="30.2" y="60.4" class="st4" width="15.1" height="15.1"/>
		<rect x="45.3" y="60.4" class="st2" width="15.1" height="15.1"/>
		<rect x="60.4" y="60.4" class="st2" width="15.1" height="15.1"/>
		<rect x="75.4" y="60.4" class="st1" width="15.1" height="15.1"/>
		<rect x="90.5" y="60.4" class="st4" width="15.1" height="15.1"/>
		<rect x="105.6" y="60.4" class="st7" width="15.1" height="15.1"/>
		<rect x="120.6" y="60.4" class="st4" width="15.1" height="15.1"/>
		<rect x="135.7" y="60.4" class="st3" width="15.1" height="15.1"/>
		<rect x="150.8" y="60.4" class="st6" width="15.1" height="15.1"/>
		<rect x="165.8" y="60.4" class="st2" width="15.1" height="15.1"/>
		<rect x="180.9" y="60.4" class="st1" width="15.1" height="15.1"/>
		<rect x="196" y="60.4" class="st4" width="15.1" height="15.1"/>
		<rect x="211" y="60.4" class="st4" width="15.1" height="15.1"/>
		<path class="st1" d="M241.1,74.6v0.8h-15.1V60.4h14.5C240.9,64.6,241.1,69.4,241.1,74.6z"/>
		<path class="st10" d="M15.2,45.3v15.1H0.7c0.4-5.8,1.1-10.8,2.2-15.1H15.2z"/>
		<rect x="15.2" y="45.3" class="st5" width="15.1" height="15.1"/>
		<rect x="30.2" y="45.3" class="st5" width="15.1" height="15.1"/>
		<rect x="45.3" y="45.3" class="st4" width="15.1" height="15.1"/>
		<rect x="60.4" y="45.3" class="st5" width="15.1" height="15.1"/>
		<rect x="75.4" y="45.3" class="st4" width="15.1" height="15.1"/>
		<rect x="90.5" y="45.3" class="st6" width="15.1" height="15.1"/>
		<rect x="105.6" y="45.3" class="st5" width="15.1" height="15.1"/>
		<rect x="120.6" y="45.3" class="st2" width="15.1" height="15.1"/>
		<rect x="135.7" y="45.3" class="st2" width="15.1" height="15.1"/>
		<rect x="150.8" y="45.3" class="st6" width="15.1" height="15.1"/>
		<rect x="165.8" y="45.3" class="st4" width="15.1" height="15.1"/>
		<rect x="180.9" y="45.3" class="st2" width="15.1" height="15.1"/>
		<rect x="196" y="45.3" class="st2" width="15.1" height="15.1"/>
		<rect x="211" y="45.3" class="st3" width="15.1" height="15.1"/>
		<path class="st3" d="M240.6,60.4h-14.5V45.3h12.4C239.5,49.6,240.2,54.5,240.6,60.4z"/>
	</g>
</g>
</svg>
