<?xml version="1.0" encoding="utf-8"?>
<!-- Generator: Adobe Illustrator 25.0.1, SVG Export Plug-In . SVG Version: 6.00 Build 0)  -->
<svg version="1.1"
	 id="svg20" xmlns:cc="http://creativecommons.org/ns#" xmlns:dc="http://purl.org/dc/elements/1.1/" xmlns:rdf="http://www.w3.org/1999/02/22-rdf-syntax-ns#" xmlns:svg="http://www.w3.org/2000/svg"
	 xmlns="http://www.w3.org/2000/svg" xmlns:xlink="http://www.w3.org/1999/xlink" x="0px" y="0px" viewBox="0 0 1010.3 184"
	 style="enable-background:new 0 0 1010.3 184;" xml:space="preserve">
<path d="M157.8,0h40v119.4h-40V0z M286.3,50.8h-14V27H255V0h-40v119.4h40V74h15.7v21.6h15.7v23.8h40V0h-40V50.8z M366.8,0h-22.7
	v119.4h22.7h17.3h54.6V89.7h-54.6V77.3h54.6V47.5h-54.6V29.7h54.6V0h-54.6H366.8z M476.5,0h-22.7v119.4h22.7h17.3h54.6V89.7h-54.6
	v-60h54.6V0h-54.6H476.5z M665.1,48.1V0h-97.8v119.4h40V78.3h17.8v41.1h40V63.2h-15.7V48.1H665.1z M625.1,52.4h-17.8V25.9h17.8V52.4
	z M680.2,0v119.4h40V78.3H738v41.1h40V0H680.2z M755.3,39.4h-16.2v4.9h8.1V67h-11.9v-8.1h-12.4V67H711V44.3h8.1v-4.9h-16.7V23.8h20
	v14h13v-14h20V39.4z M820.7,0H798v119.4h40V77.3h54.6V47.5H838V29.7h54.6V0H838H820.7z M974.1,0h-40H906v29.7h28.1v89.7h40V29.7
	h36.2V0H974.1z M97.8,27H80.5v23.8H57.3V27H40V0H0v119.4h40V74h15.7v21.6h26.5V74h15.7v45.4h40V0h-40V27z"/>
<g>
	<path d="M122.6,159.5c-0.3-0.1-0.6-0.1-0.9-0.2c-0.3,0-0.6,0-0.8,0c-0.9,0-1.6,0.2-2.3,0.5c-0.6,0.3-1.1,0.7-1.5,1.2
		c-0.4,0.5-0.6,1-0.8,1.5c-0.2,0.5-0.2,1-0.2,1.4v10.4h-6.7V154h6.4v2.9h0.1c0.5-1,1.2-1.9,2.2-2.5c0.9-0.7,2-1,3.3-1
		c0.3,0,0.5,0,0.8,0c0.3,0,0.5,0.1,0.6,0.1L122.6,159.5z"/>
	<path d="M144.9,164.3c0,0.3,0,0.5,0,0.8s0,0.5,0,0.8h-14.7c0.1,0.6,0.2,1.1,0.5,1.5s0.6,0.9,1.1,1.2c0.4,0.3,0.9,0.6,1.5,0.8
		c0.6,0.2,1.1,0.3,1.7,0.3c1.1,0,1.9-0.2,2.7-0.6c0.7-0.4,1.3-0.9,1.8-1.5l4.6,2.9c-0.9,1.4-2.2,2.4-3.8,3.2
		c-1.6,0.7-3.4,1.1-5.4,1.1c-1.5,0-3-0.2-4.3-0.7c-1.4-0.5-2.5-1.2-3.6-2.1c-1-0.9-1.8-2-2.4-3.3s-0.9-2.8-0.9-4.5
		c0-1.7,0.3-3.1,0.9-4.5c0.6-1.3,1.3-2.5,2.3-3.4c1-0.9,2.1-1.7,3.5-2.2c1.3-0.5,2.8-0.8,4.3-0.8c1.5,0,2.9,0.3,4.1,0.8
		c1.2,0.5,2.3,1.2,3.2,2.2c0.9,0.9,1.6,2.1,2.1,3.5C144.6,161.1,144.9,162.6,144.9,164.3z M138.7,161.8c0-1.1-0.3-2-1-2.7
		c-0.7-0.8-1.7-1.1-3-1.1c-0.6,0-1.2,0.1-1.8,0.3c-0.5,0.2-1,0.5-1.4,0.8c-0.4,0.4-0.7,0.8-1,1.2s-0.4,1-0.4,1.5H138.7z"/>
	<path d="M160.9,160c-0.5-0.5-1.2-0.9-1.9-1.3c-0.7-0.4-1.5-0.5-2.3-0.5c-0.6,0-1.2,0.1-1.7,0.4c-0.5,0.2-0.8,0.7-0.8,1.3
		c0,0.6,0.3,1,0.9,1.2c0.6,0.2,1.5,0.5,2.8,0.8c0.8,0.2,1.5,0.4,2.3,0.7c0.8,0.3,1.5,0.7,2.1,1.2s1.1,1.1,1.5,1.8
		c0.4,0.7,0.6,1.5,0.6,2.5c0,1.3-0.3,2.3-0.8,3.2c-0.5,0.9-1.2,1.6-2,2.1c-0.8,0.5-1.8,0.9-2.8,1.2c-1,0.2-2.1,0.4-3.1,0.4
		c-1.7,0-3.3-0.3-4.9-0.8c-1.6-0.5-2.9-1.3-4-2.3l3.7-3.9c0.6,0.7,1.3,1.2,2.2,1.6c0.9,0.4,1.8,0.6,2.8,0.6c0.5,0,1.1-0.1,1.6-0.4
		c0.5-0.3,0.8-0.7,0.8-1.4c0-0.6-0.3-1.1-1-1.4c-0.6-0.3-1.7-0.6-3-0.9c-0.7-0.2-1.4-0.4-2.1-0.6c-0.7-0.3-1.3-0.6-1.9-1.1
		c-0.6-0.5-1-1-1.4-1.7c-0.4-0.7-0.5-1.5-0.5-2.4c0-1.2,0.3-2.3,0.8-3.1c0.5-0.9,1.2-1.5,2-2.1c0.8-0.5,1.7-0.9,2.7-1.2
		c1-0.3,2-0.4,2.9-0.4c1.5,0,3,0.2,4.4,0.7c1.4,0.5,2.7,1.2,3.7,2.1L160.9,160z"/>
	<path d="M189.6,164c0,1.7-0.3,3.1-0.9,4.5c-0.6,1.3-1.4,2.5-2.4,3.4c-1,0.9-2.2,1.7-3.6,2.2c-1.4,0.5-2.8,0.8-4.3,0.8
		c-1.5,0-3-0.3-4.3-0.8c-1.4-0.5-2.6-1.2-3.6-2.2c-1-0.9-1.8-2.1-2.4-3.4c-0.6-1.3-0.9-2.8-0.9-4.5c0-1.7,0.3-3.1,0.9-4.5
		c0.6-1.3,1.4-2.4,2.4-3.4c1-0.9,2.2-1.6,3.6-2.1c1.4-0.5,2.8-0.7,4.3-0.7c1.5,0,3,0.2,4.3,0.7c1.4,0.5,2.5,1.2,3.6,2.1
		c1,0.9,1.8,2,2.4,3.4C189.3,160.9,189.6,162.4,189.6,164z M183.2,164c0-0.6-0.1-1.3-0.3-1.9c-0.2-0.6-0.5-1.2-0.9-1.6
		c-0.4-0.5-0.9-0.9-1.5-1.2c-0.6-0.3-1.3-0.4-2.1-0.4c-0.8,0-1.5,0.1-2.1,0.4c-0.6,0.3-1.1,0.7-1.5,1.2c-0.4,0.5-0.7,1-0.9,1.6
		c-0.2,0.6-0.3,1.3-0.3,1.9s0.1,1.3,0.3,1.9c0.2,0.6,0.5,1.2,0.9,1.7c0.4,0.5,0.9,0.9,1.5,1.2c0.6,0.3,1.3,0.4,2.1,0.4
		s1.5-0.1,2.1-0.4c0.6-0.3,1.1-0.7,1.5-1.2c0.4-0.5,0.7-1.1,0.9-1.7C183.1,165.3,183.2,164.7,183.2,164z"/>
	<path d="M207.1,174.2v-2.8h-0.1c-0.2,0.5-0.6,0.9-1,1.3c-0.4,0.4-0.9,0.8-1.4,1.1s-1.1,0.5-1.7,0.7c-0.6,0.2-1.3,0.3-2,0.3
		c-1.4,0-2.5-0.2-3.4-0.7c-0.9-0.5-1.7-1.1-2.3-1.9c-0.6-0.8-1-1.7-1.3-2.6c-0.3-1-0.4-2-0.4-3V154h6.7v11c0,0.6,0,1.1,0.1,1.6
		c0.1,0.5,0.2,1,0.5,1.4c0.2,0.4,0.5,0.7,0.9,1c0.4,0.2,0.9,0.3,1.5,0.3c1.2,0,2.1-0.4,2.7-1.3s0.9-1.9,0.9-3V154h6.7v20.2H207.1z"
		/>
	<path d="M231.9,159.5c-0.3-0.1-0.6-0.1-0.9-0.2c-0.3,0-0.6,0-0.8,0c-0.9,0-1.6,0.2-2.3,0.5c-0.6,0.3-1.1,0.7-1.5,1.2
		c-0.4,0.5-0.6,1-0.8,1.5c-0.2,0.5-0.2,1-0.2,1.4v10.4h-6.7V154h6.4v2.9h0.1c0.5-1,1.2-1.9,2.2-2.5c0.9-0.7,2-1,3.3-1
		c0.3,0,0.5,0,0.8,0c0.3,0,0.5,0.1,0.6,0.1L231.9,159.5z"/>
	<path d="M248.1,160.5c-0.4-0.5-0.9-0.9-1.5-1.2c-0.6-0.3-1.3-0.4-2-0.4c-0.7,0-1.3,0.1-1.9,0.4s-1.1,0.7-1.5,1.1
		c-0.4,0.5-0.7,1-1,1.6c-0.2,0.6-0.3,1.3-0.3,2c0,0.7,0.1,1.4,0.3,2c0.2,0.6,0.5,1.2,1,1.6c0.4,0.5,0.9,0.8,1.5,1.1
		c0.6,0.3,1.2,0.4,2,0.4c0.7,0,1.3-0.1,2-0.4c0.7-0.3,1.2-0.6,1.6-1.1l3.7,4.5c-0.8,0.8-1.9,1.4-3.2,1.9c-1.3,0.5-2.7,0.7-4.2,0.7
		c-1.6,0-3.1-0.2-4.5-0.7s-2.6-1.2-3.6-2.1s-1.8-2.1-2.4-3.4s-0.9-2.8-0.9-4.5c0-1.7,0.3-3.1,0.9-4.5s1.4-2.5,2.4-3.4
		s2.2-1.7,3.6-2.2c1.4-0.5,2.9-0.8,4.4-0.8c0.7,0,1.5,0.1,2.2,0.2c0.7,0.1,1.4,0.3,2.1,0.5c0.7,0.2,1.3,0.5,1.8,0.9
		c0.6,0.3,1,0.7,1.4,1.1L248.1,160.5z"/>
	<path d="M274.6,164.3c0,0.3,0,0.5,0,0.8s0,0.5,0,0.8h-14.7c0.1,0.6,0.2,1.1,0.5,1.5s0.6,0.9,1.1,1.2c0.4,0.3,0.9,0.6,1.5,0.8
		c0.6,0.2,1.1,0.3,1.7,0.3c1.1,0,1.9-0.2,2.7-0.6c0.7-0.4,1.3-0.9,1.8-1.5l4.6,2.9c-0.9,1.4-2.2,2.4-3.8,3.2
		c-1.6,0.7-3.4,1.1-5.4,1.1c-1.5,0-3-0.2-4.3-0.7c-1.4-0.5-2.5-1.2-3.6-2.1c-1-0.9-1.8-2-2.4-3.3s-0.9-2.8-0.9-4.5
		c0-1.7,0.3-3.1,0.9-4.5c0.6-1.3,1.3-2.5,2.3-3.4c1-0.9,2.1-1.7,3.5-2.2c1.3-0.5,2.8-0.8,4.3-0.8c1.5,0,2.9,0.3,4.1,0.8
		c1.2,0.5,2.3,1.2,3.2,2.2c0.9,0.9,1.6,2.1,2.1,3.5C274.3,161.1,274.6,162.6,274.6,164.3z M268.5,161.8c0-1.1-0.3-2-1-2.7
		c-0.7-0.8-1.7-1.1-3-1.1c-0.6,0-1.2,0.1-1.8,0.3c-0.5,0.2-1,0.5-1.4,0.8c-0.4,0.4-0.7,0.8-1,1.2s-0.4,1-0.4,1.5H268.5z"/>
	<path d="M311.4,164c0,1.4-0.2,2.8-0.6,4.1c-0.4,1.3-1.1,2.4-1.9,3.4c-0.8,1-1.8,1.8-3,2.4c-1.2,0.6-2.5,0.9-4.1,0.9
		c-1.2,0-2.4-0.3-3.5-0.8c-1.1-0.5-2-1.2-2.6-2.1h-0.1v12h-6.7v-30h6.3v2.5h0.1c0.6-0.8,1.5-1.5,2.6-2.1c1.1-0.6,2.4-0.9,3.9-0.9
		c1.5,0,2.8,0.3,4,0.9c1.2,0.6,2.2,1.3,3,2.3c0.8,1,1.5,2.1,1.9,3.4C311.1,161.3,311.4,162.6,311.4,164z M304.9,164
		c0-0.6-0.1-1.3-0.3-1.9c-0.2-0.6-0.5-1.2-0.9-1.6c-0.4-0.5-0.9-0.9-1.5-1.2c-0.6-0.3-1.3-0.4-2.1-0.4c-0.8,0-1.4,0.1-2,0.4
		c-0.6,0.3-1.1,0.7-1.5,1.2c-0.4,0.5-0.7,1-1,1.7s-0.3,1.3-0.3,1.9c0,0.6,0.1,1.3,0.3,1.9c0.2,0.6,0.6,1.2,1,1.7
		c0.4,0.5,0.9,0.9,1.5,1.2c0.6,0.3,1.3,0.4,2,0.4c0.8,0,1.5-0.1,2.1-0.4c0.6-0.3,1.1-0.7,1.5-1.2c0.4-0.5,0.7-1,0.9-1.7
		S304.9,164.7,304.9,164z"/>
	<path d="M315.3,156.8c1.2-1.1,2.6-2,4.2-2.6s3.2-0.9,4.9-0.9c1.7,0,3.1,0.2,4.3,0.6s2.1,1.1,2.9,1.9c0.7,0.9,1.3,2,1.6,3.3
		s0.5,2.9,0.5,4.8v10.2h-6.1v-2.2h-0.1c-0.5,0.8-1.3,1.5-2.3,1.9c-1,0.5-2.2,0.7-3.4,0.7c-0.8,0-1.7-0.1-2.5-0.3
		c-0.9-0.2-1.7-0.6-2.4-1.1c-0.7-0.5-1.3-1.1-1.8-1.9c-0.5-0.8-0.7-1.8-0.7-3c0-1.5,0.4-2.6,1.2-3.5c0.8-0.9,1.8-1.6,3.1-2.1
		c1.3-0.5,2.7-0.8,4.2-1c1.5-0.2,3-0.2,4.5-0.2v-0.3c0-1-0.4-1.7-1.1-2.2c-0.7-0.5-1.6-0.7-2.6-0.7c-0.9,0-1.9,0.2-2.7,0.6
		c-0.9,0.4-1.6,0.9-2.3,1.5L315.3,156.8z M327.5,165.4h-0.9c-0.7,0-1.5,0-2.2,0.1c-0.7,0.1-1.4,0.2-2,0.4c-0.6,0.2-1.1,0.5-1.4,0.8
		c-0.4,0.4-0.6,0.8-0.6,1.4c0,0.4,0.1,0.7,0.3,1c0.2,0.3,0.4,0.5,0.7,0.6c0.3,0.2,0.6,0.3,0.9,0.3c0.4,0.1,0.7,0.1,1,0.1
		c1.4,0,2.4-0.4,3.1-1.1c0.7-0.7,1.1-1.8,1.1-3V165.4z"/>
	<path d="M352.5,160.5c-0.4-0.5-0.9-0.9-1.5-1.2c-0.6-0.3-1.3-0.4-2-0.4c-0.7,0-1.3,0.1-1.9,0.4s-1.1,0.7-1.5,1.1
		c-0.4,0.5-0.7,1-1,1.6c-0.2,0.6-0.3,1.3-0.3,2c0,0.7,0.1,1.4,0.3,2c0.2,0.6,0.5,1.2,1,1.6c0.4,0.5,0.9,0.8,1.5,1.1
		c0.6,0.3,1.2,0.4,2,0.4c0.7,0,1.3-0.1,2-0.4c0.7-0.3,1.2-0.6,1.6-1.1l3.7,4.5c-0.8,0.8-1.9,1.4-3.2,1.9c-1.3,0.5-2.7,0.7-4.2,0.7
		c-1.6,0-3.1-0.2-4.5-0.7s-2.6-1.2-3.6-2.1s-1.8-2.1-2.4-3.4s-0.9-2.8-0.9-4.5c0-1.7,0.3-3.1,0.9-4.5s1.4-2.5,2.4-3.4
		s2.2-1.7,3.6-2.2c1.4-0.5,2.9-0.8,4.4-0.8c0.7,0,1.5,0.1,2.2,0.2c0.7,0.1,1.4,0.3,2.1,0.5c0.7,0.2,1.3,0.5,1.8,0.9
		c0.6,0.3,1,0.7,1.4,1.1L352.5,160.5z"/>
	<path d="M380.7,174.2h-8.2l-6.6-9.7h-0.1v9.7H359v-30.7h6.7v18.7h0.1l6.5-8.2h8.1l-7.8,9.1L380.7,174.2z"/>
	<path d="M394.8,160c-0.5-0.5-1.2-0.9-1.9-1.3c-0.7-0.4-1.5-0.5-2.3-0.5c-0.6,0-1.2,0.1-1.7,0.4c-0.5,0.2-0.8,0.7-0.8,1.3
		c0,0.6,0.3,1,0.9,1.2c0.6,0.2,1.5,0.5,2.8,0.8c0.8,0.2,1.5,0.4,2.3,0.7c0.8,0.3,1.5,0.7,2.1,1.2s1.1,1.1,1.5,1.8
		c0.4,0.7,0.6,1.5,0.6,2.5c0,1.3-0.3,2.3-0.8,3.2c-0.5,0.9-1.2,1.6-2,2.1c-0.8,0.5-1.8,0.9-2.8,1.2c-1,0.2-2.1,0.4-3.1,0.4
		c-1.7,0-3.3-0.3-4.9-0.8c-1.6-0.5-2.9-1.3-4-2.3l3.7-3.9c0.6,0.7,1.3,1.2,2.2,1.6c0.9,0.4,1.8,0.6,2.8,0.6c0.5,0,1.1-0.1,1.6-0.4
		c0.5-0.3,0.8-0.7,0.8-1.4c0-0.6-0.3-1.1-1-1.4c-0.6-0.3-1.7-0.6-3-0.9c-0.7-0.2-1.4-0.4-2.1-0.6c-0.7-0.3-1.3-0.6-1.9-1.1
		c-0.6-0.5-1-1-1.4-1.7c-0.4-0.7-0.5-1.5-0.5-2.4c0-1.2,0.3-2.3,0.8-3.1c0.5-0.9,1.2-1.5,2-2.1c0.8-0.5,1.7-0.9,2.7-1.2
		c1-0.3,2-0.4,2.9-0.4c1.5,0,3,0.2,4.4,0.7c1.4,0.5,2.7,1.2,3.7,2.1L394.8,160z"/>
	<path d="M434.7,164c0,1.4-0.2,2.8-0.6,4.1c-0.4,1.3-1.1,2.4-1.9,3.4c-0.8,1-1.8,1.8-3,2.4c-1.2,0.6-2.5,0.9-4.1,0.9
		c-1.4,0-2.6-0.3-3.8-0.8c-1.2-0.6-2.1-1.3-2.8-2.4h-0.1v2.6h-6.1v-30.7h6.7v12.6h0.1c0.6-0.7,1.4-1.3,2.4-1.9
		c1-0.6,2.3-0.9,3.8-0.9c1.5,0,2.8,0.3,4,0.9c1.2,0.6,2.2,1.3,3,2.3c0.8,1,1.5,2.1,1.9,3.4C434.5,161.3,434.7,162.6,434.7,164z
		 M428.3,164c0-0.6-0.1-1.3-0.3-1.9c-0.2-0.6-0.5-1.2-0.9-1.6c-0.4-0.5-0.9-0.9-1.5-1.2c-0.6-0.3-1.3-0.4-2.1-0.4
		c-0.8,0-1.4,0.1-2,0.4c-0.6,0.3-1.1,0.7-1.5,1.2c-0.4,0.5-0.7,1-1,1.7c-0.2,0.6-0.3,1.3-0.3,1.9c0,0.6,0.1,1.3,0.3,1.9
		c0.2,0.6,0.6,1.2,1,1.7c0.4,0.5,0.9,0.9,1.5,1.2c0.6,0.3,1.3,0.4,2,0.4c0.8,0,1.5-0.1,2.1-0.4c0.6-0.3,1.1-0.7,1.5-1.2
		c0.4-0.5,0.7-1,0.9-1.7S428.3,164.7,428.3,164z"/>
	<path d="M450.3,177.3c-0.4,1.1-0.9,2-1.4,2.8c-0.5,0.8-1.1,1.5-1.8,2.1c-0.7,0.6-1.5,1-2.4,1.3s-2,0.4-3.3,0.4
		c-0.6,0-1.3,0-1.9-0.1c-0.7-0.1-1.2-0.2-1.7-0.3l0.7-5.6c0.3,0.1,0.7,0.2,1.1,0.3c0.4,0.1,0.8,0.1,1.1,0.1c1,0,1.8-0.2,2.2-0.7
		c0.5-0.5,0.9-1.1,1.2-2l0.6-1.7l-8.4-19.9h7.4l4.5,13h0.1l4-13h7.1L450.3,177.3z"/>
	<path d="M479.3,158.9v7.7c0,1,0.2,1.7,0.5,2.1s1,0.7,2,0.7c0.3,0,0.7,0,1-0.1c0.4-0.1,0.7-0.1,0.9-0.2l0.1,4.9
		c-0.5,0.2-1,0.3-1.7,0.4c-0.7,0.1-1.4,0.2-2.1,0.2c-1.4,0-2.5-0.2-3.4-0.5c-0.9-0.3-1.7-0.8-2.2-1.5c-0.6-0.6-1-1.4-1.2-2.3
		c-0.2-0.9-0.4-1.9-0.4-3v-8.5h-3.2v-5h3.2v-5.3h6.5v5.3h4.8v5H479.3z"/>
	<path d="M500.5,174.2v-11c0-0.6,0-1.1-0.1-1.6c-0.1-0.5-0.2-1-0.5-1.4c-0.2-0.4-0.5-0.7-0.9-0.9c-0.4-0.2-0.9-0.3-1.5-0.3
		c-1.2,0-2.1,0.4-2.7,1.2c-0.6,0.8-0.9,1.8-0.9,3.1v10.9h-6.7v-30.7h6.7v13h0.1c0.5-0.8,1.2-1.5,2.2-2.2c1-0.6,2.2-1,3.6-1
		c1.4,0,2.5,0.2,3.5,0.7c0.9,0.5,1.7,1.1,2.3,1.9s1,1.7,1.3,2.7c0.3,1,0.4,2,0.4,3v12.5H500.5z"/>
	<path d="M532.3,164.3c0,0.3,0,0.5,0,0.8s0,0.5,0,0.8h-14.7c0.1,0.6,0.2,1.1,0.5,1.5s0.6,0.9,1.1,1.2c0.4,0.3,0.9,0.6,1.5,0.8
		c0.6,0.2,1.1,0.3,1.7,0.3c1.1,0,1.9-0.2,2.7-0.6c0.7-0.4,1.3-0.9,1.8-1.5l4.6,2.9c-0.9,1.4-2.2,2.4-3.8,3.2
		c-1.6,0.7-3.4,1.1-5.4,1.1c-1.5,0-3-0.2-4.3-0.7c-1.4-0.5-2.5-1.2-3.6-2.1c-1-0.9-1.8-2-2.4-3.3s-0.9-2.8-0.9-4.5
		c0-1.7,0.3-3.1,0.9-4.5c0.6-1.3,1.3-2.5,2.3-3.4s2.1-1.7,3.5-2.2c1.3-0.5,2.8-0.8,4.3-0.8c1.5,0,2.9,0.3,4.1,0.8
		c1.2,0.5,2.3,1.2,3.2,2.2c0.9,0.9,1.6,2.1,2.1,3.5C532,161.1,532.3,162.6,532.3,164.3z M526.2,161.8c0-1.1-0.3-2-1-2.7
		c-0.7-0.8-1.7-1.1-3-1.1c-0.6,0-1.2,0.1-1.8,0.3c-0.5,0.2-1,0.5-1.4,0.8c-0.4,0.4-0.7,0.8-1,1.2c-0.2,0.5-0.4,1-0.4,1.5H526.2z"/>
	<path d="M572.4,174.2v-11c0-0.6,0-1.1-0.1-1.6c-0.1-0.5-0.2-1-0.4-1.4s-0.5-0.7-0.9-0.9c-0.4-0.2-0.8-0.3-1.4-0.3
		c-0.6,0-1.1,0.1-1.5,0.4c-0.4,0.2-0.8,0.6-1.1,1c-0.3,0.4-0.5,0.9-0.6,1.4c-0.1,0.5-0.2,1.1-0.2,1.6v10.9h-6.7v-11.5
		c0-1.2-0.2-2.1-0.7-2.8c-0.5-0.7-1.2-1-2.2-1c-1.1,0-1.9,0.4-2.5,1.3s-0.9,1.9-0.9,3.1v11h-6.7V154h6.5v2.8h0.1
		c0.2-0.4,0.5-0.9,0.9-1.3c0.4-0.4,0.8-0.8,1.3-1.1c0.5-0.3,1.1-0.6,1.7-0.8c0.6-0.2,1.3-0.3,2.1-0.3c1.5,0,2.7,0.3,3.7,0.9
		c1,0.6,1.8,1.4,2.4,2.6c0.7-1.1,1.5-1.9,2.6-2.5c1.1-0.6,2.3-0.9,3.9-0.9c1.4,0,2.5,0.3,3.5,0.8c0.9,0.5,1.7,1.2,2.3,1.9
		c0.6,0.8,1,1.7,1.2,2.7c0.3,1,0.4,2,0.4,2.9v12.5H572.4z"/>
	<path d="M605.5,164c0,1.7-0.3,3.1-0.9,4.5c-0.6,1.3-1.4,2.5-2.4,3.4c-1,0.9-2.2,1.7-3.6,2.2s-2.8,0.8-4.3,0.8c-1.5,0-3-0.3-4.3-0.8
		c-1.4-0.5-2.6-1.2-3.6-2.2c-1-0.9-1.8-2.1-2.4-3.4c-0.6-1.3-0.9-2.8-0.9-4.5c0-1.7,0.3-3.1,0.9-4.5c0.6-1.3,1.4-2.4,2.4-3.4
		c1-0.9,2.2-1.6,3.6-2.1c1.4-0.5,2.8-0.7,4.3-0.7c1.5,0,3,0.2,4.3,0.7c1.4,0.5,2.5,1.2,3.6,2.1c1,0.9,1.8,2,2.4,3.4
		C605.2,160.9,605.5,162.4,605.5,164z M599.1,164c0-0.6-0.1-1.3-0.3-1.9c-0.2-0.6-0.5-1.2-0.9-1.6c-0.4-0.5-0.9-0.9-1.5-1.2
		c-0.6-0.3-1.3-0.4-2.1-0.4c-0.8,0-1.5,0.1-2.1,0.4s-1.1,0.7-1.5,1.2c-0.4,0.5-0.7,1-0.9,1.6c-0.2,0.6-0.3,1.3-0.3,1.9
		s0.1,1.3,0.3,1.9c0.2,0.6,0.5,1.2,0.9,1.7c0.4,0.5,0.9,0.9,1.5,1.2c0.6,0.3,1.3,0.4,2.1,0.4s1.5-0.1,2.1-0.4
		c0.6-0.3,1.1-0.7,1.5-1.2c0.4-0.5,0.7-1.1,0.9-1.7C599,165.3,599.1,164.7,599.1,164z"/>
	<path d="M622.9,159.5c-0.3-0.1-0.6-0.1-0.9-0.2c-0.3,0-0.6,0-0.8,0c-0.9,0-1.6,0.2-2.3,0.5c-0.6,0.3-1.1,0.7-1.5,1.2
		s-0.6,1-0.8,1.5c-0.2,0.5-0.2,1-0.2,1.4v10.4h-6.7V154h6.4v2.9h0.1c0.5-1,1.2-1.9,2.2-2.5c0.9-0.7,2-1,3.3-1c0.3,0,0.5,0,0.8,0
		c0.3,0,0.5,0.1,0.6,0.1L622.9,159.5z"/>
	<path d="M639.1,174.2v-11c0-0.6,0-1.1-0.1-1.6c-0.1-0.5-0.3-1-0.5-1.4c-0.2-0.4-0.5-0.7-0.9-0.9c-0.4-0.2-0.9-0.3-1.5-0.3
		c-0.6,0-1.1,0.1-1.6,0.3c-0.4,0.2-0.8,0.5-1.1,1s-0.5,0.9-0.7,1.4c-0.1,0.5-0.2,1.1-0.2,1.6v11h-6.7V154h6.5v2.8h0.1
		c0.2-0.4,0.6-0.9,1-1.3c0.4-0.4,0.9-0.8,1.4-1.1c0.5-0.3,1.1-0.5,1.7-0.7c0.6-0.2,1.3-0.3,2-0.3c1.4,0,2.5,0.2,3.5,0.7
		s1.7,1.1,2.3,1.9s1,1.7,1.3,2.7c0.3,1,0.4,2,0.4,3v12.5H639.1z"/>
	<path d="M658.1,147.5c0,0.5-0.1,1-0.3,1.4s-0.5,0.8-0.8,1.2c-0.3,0.3-0.7,0.6-1.2,0.8s-1,0.3-1.5,0.3c-1.1,0-2-0.4-2.7-1.1
		c-0.7-0.7-1.1-1.6-1.1-2.6c0-0.5,0.1-1,0.3-1.4s0.5-0.8,0.8-1.2s0.8-0.6,1.2-0.8c0.5-0.2,1-0.3,1.5-0.3c0.5,0,1,0.1,1.5,0.3
		s0.9,0.4,1.2,0.8c0.3,0.3,0.6,0.7,0.8,1.2C658,146.5,658.1,147,658.1,147.5z M650.9,174.2V154h6.7v20.2H650.9z"/>
	<path d="M676.1,174.2v-11c0-0.6,0-1.1-0.1-1.6c-0.1-0.5-0.3-1-0.5-1.4c-0.2-0.4-0.5-0.7-0.9-0.9c-0.4-0.2-0.9-0.3-1.5-0.3
		c-0.6,0-1.1,0.1-1.6,0.3c-0.4,0.2-0.8,0.5-1.1,1s-0.5,0.9-0.7,1.4c-0.1,0.5-0.2,1.1-0.2,1.6v11h-6.7V154h6.5v2.8h0.1
		c0.2-0.4,0.6-0.9,1-1.3c0.4-0.4,0.9-0.8,1.4-1.1c0.5-0.3,1.1-0.5,1.7-0.7c0.6-0.2,1.3-0.3,2-0.3c1.4,0,2.5,0.2,3.5,0.7
		s1.7,1.1,2.3,1.9s1,1.7,1.3,2.7c0.3,1,0.4,2,0.4,3v12.5H676.1z"/>
	<path d="M709.3,172.3c0,2-0.3,3.7-0.9,5.2c-0.6,1.5-1.4,2.7-2.4,3.6c-1,1-2.3,1.7-3.8,2.2c-1.5,0.5-3.1,0.7-4.9,0.7
		c-1.8,0-3.6-0.3-5.5-0.8c-1.9-0.5-3.5-1.3-4.9-2.4l3.3-4.8c1,0.9,2,1.5,3.2,1.9c1.2,0.4,2.3,0.6,3.5,0.6c1.9,0,3.4-0.5,4.3-1.5
		s1.4-2.4,1.4-4.1v-1.2h-0.1c-0.6,0.8-1.5,1.5-2.5,1.9c-1.1,0.5-2.3,0.7-3.6,0.7c-1.5,0-2.9-0.3-4.1-0.8c-1.2-0.6-2.2-1.3-3-2.3
		c-0.8-0.9-1.5-2-1.9-3.3c-0.4-1.3-0.7-2.6-0.7-4s0.2-2.7,0.7-4c0.4-1.3,1.1-2.4,1.9-3.4c0.8-1,1.8-1.8,3-2.3
		c1.2-0.6,2.5-0.9,4.1-0.9c1.3,0,2.5,0.3,3.7,0.8c1.2,0.5,2.1,1.3,2.8,2.4h0.1V154h6.3V172.3z M703,164c0-0.7-0.1-1.3-0.3-1.9
		c-0.2-0.6-0.6-1.2-1-1.6c-0.4-0.5-0.9-0.8-1.5-1.1s-1.3-0.4-2-0.4c-0.8,0-1.4,0.1-2,0.4c-0.6,0.3-1.1,0.6-1.5,1.1
		c-0.4,0.5-0.7,1-0.9,1.6c-0.2,0.6-0.3,1.3-0.3,2c0,0.7,0.1,1.3,0.3,1.9c0.2,0.6,0.5,1.2,0.9,1.6c0.4,0.5,0.9,0.9,1.5,1.1
		c0.6,0.3,1.3,0.4,2,0.4c0.8,0,1.4-0.1,2-0.4c0.6-0.3,1.1-0.7,1.5-1.1c0.4-0.5,0.7-1,1-1.6C702.9,165.3,703,164.7,703,164z"/>
	<path d="M738.7,160.5c-0.4-0.5-0.9-0.9-1.5-1.2s-1.3-0.4-2-0.4c-0.7,0-1.3,0.1-1.9,0.4s-1.1,0.7-1.5,1.1c-0.4,0.5-0.7,1-1,1.6
		c-0.2,0.6-0.3,1.3-0.3,2c0,0.7,0.1,1.4,0.3,2c0.2,0.6,0.5,1.2,1,1.6c0.4,0.5,0.9,0.8,1.5,1.1c0.6,0.3,1.2,0.4,2,0.4
		c0.7,0,1.3-0.1,2-0.4c0.7-0.3,1.2-0.6,1.6-1.1l3.7,4.5c-0.8,0.8-1.9,1.4-3.2,1.9c-1.3,0.5-2.7,0.7-4.2,0.7c-1.6,0-3.1-0.2-4.5-0.7
		c-1.4-0.5-2.6-1.2-3.6-2.1c-1-0.9-1.8-2.1-2.4-3.4c-0.6-1.3-0.9-2.8-0.9-4.5c0-1.7,0.3-3.1,0.9-4.5c0.6-1.3,1.4-2.5,2.4-3.4
		c1-0.9,2.2-1.7,3.6-2.2c1.4-0.5,2.9-0.8,4.4-0.8c0.7,0,1.5,0.1,2.2,0.2c0.7,0.1,1.4,0.3,2.1,0.5c0.7,0.2,1.3,0.5,1.8,0.9
		c0.6,0.3,1,0.7,1.4,1.1L738.7,160.5z"/>
	<path d="M766.6,164c0,1.7-0.3,3.1-0.9,4.5c-0.6,1.3-1.4,2.5-2.4,3.4c-1,0.9-2.2,1.7-3.6,2.2s-2.8,0.8-4.3,0.8c-1.5,0-3-0.3-4.3-0.8
		c-1.4-0.5-2.6-1.2-3.6-2.2c-1-0.9-1.8-2.1-2.4-3.4c-0.6-1.3-0.9-2.8-0.9-4.5c0-1.7,0.3-3.1,0.9-4.5c0.6-1.3,1.4-2.4,2.4-3.4
		c1-0.9,2.2-1.6,3.6-2.1c1.4-0.5,2.8-0.7,4.3-0.7c1.5,0,3,0.2,4.3,0.7c1.4,0.5,2.5,1.2,3.6,2.1c1,0.9,1.8,2,2.4,3.4
		C766.3,160.9,766.6,162.4,766.6,164z M760.2,164c0-0.6-0.1-1.3-0.3-1.9c-0.2-0.6-0.5-1.2-0.9-1.6c-0.4-0.5-0.9-0.9-1.5-1.2
		c-0.6-0.3-1.3-0.4-2.1-0.4c-0.8,0-1.5,0.1-2.1,0.4s-1.1,0.7-1.5,1.2c-0.4,0.5-0.7,1-0.9,1.6c-0.2,0.6-0.3,1.3-0.3,1.9
		s0.1,1.3,0.3,1.9c0.2,0.6,0.5,1.2,0.9,1.7c0.4,0.5,0.9,0.9,1.5,1.2c0.6,0.3,1.3,0.4,2.1,0.4s1.5-0.1,2.1-0.4
		c0.6-0.3,1.1-0.7,1.5-1.2c0.4-0.5,0.7-1.1,0.9-1.7C760.1,165.3,760.2,164.7,760.2,164z"/>
	<path d="M796.6,174.2v-11c0-0.6,0-1.1-0.1-1.6c-0.1-0.5-0.2-1-0.4-1.4s-0.5-0.7-0.9-0.9c-0.4-0.2-0.8-0.3-1.4-0.3
		c-0.6,0-1.1,0.1-1.5,0.4c-0.4,0.2-0.8,0.6-1.1,1c-0.3,0.4-0.5,0.9-0.6,1.4c-0.1,0.5-0.2,1.1-0.2,1.6v10.9h-6.7v-11.5
		c0-1.2-0.2-2.1-0.7-2.8c-0.5-0.7-1.2-1-2.2-1c-1.1,0-1.9,0.4-2.5,1.3s-0.9,1.9-0.9,3.1v11h-6.7V154h6.5v2.8h0.1
		c0.2-0.4,0.5-0.9,0.9-1.3c0.4-0.4,0.8-0.8,1.3-1.1c0.5-0.3,1.1-0.6,1.7-0.8c0.6-0.2,1.3-0.3,2.1-0.3c1.5,0,2.7,0.3,3.7,0.9
		c1,0.6,1.8,1.4,2.4,2.6c0.7-1.1,1.5-1.9,2.6-2.5c1.1-0.6,2.3-0.9,3.9-0.9c1.4,0,2.5,0.3,3.5,0.8c0.9,0.5,1.7,1.2,2.3,1.9
		c0.6,0.8,1,1.7,1.2,2.7c0.3,1,0.4,2,0.4,2.9v12.5H796.6z"/>
	<path d="M830.8,164c0,1.4-0.2,2.8-0.6,4.1c-0.4,1.3-1.1,2.4-1.9,3.4c-0.8,1-1.8,1.8-3,2.4c-1.2,0.6-2.5,0.9-4.1,0.9
		c-1.2,0-2.4-0.3-3.5-0.8c-1.1-0.5-2-1.2-2.6-2.1H815v12h-6.7v-30h6.3v2.5h0.1c0.6-0.8,1.5-1.5,2.6-2.1c1.1-0.6,2.4-0.9,3.9-0.9
		c1.5,0,2.8,0.3,4,0.9s2.2,1.3,3,2.3c0.8,1,1.5,2.1,1.9,3.4C830.6,161.3,830.8,162.6,830.8,164z M824.4,164c0-0.6-0.1-1.3-0.3-1.9
		c-0.2-0.6-0.5-1.2-0.9-1.6c-0.4-0.5-0.9-0.9-1.5-1.2s-1.3-0.4-2.1-0.4c-0.8,0-1.4,0.1-2,0.4c-0.6,0.3-1.1,0.7-1.5,1.2s-0.7,1-1,1.7
		c-0.2,0.6-0.3,1.3-0.3,1.9c0,0.6,0.1,1.3,0.3,1.9c0.2,0.6,0.6,1.2,1,1.7s0.9,0.9,1.5,1.2c0.6,0.3,1.3,0.4,2,0.4
		c0.8,0,1.5-0.1,2.1-0.4s1.1-0.7,1.5-1.2c0.4-0.5,0.7-1,0.9-1.7C824.3,165.3,824.4,164.7,824.4,164z"/>
	<path d="M834.7,156.8c1.2-1.1,2.6-2,4.2-2.6s3.2-0.9,4.9-0.9c1.7,0,3.1,0.2,4.3,0.6c1.2,0.4,2.1,1.1,2.9,1.9c0.7,0.9,1.3,2,1.6,3.3
		c0.3,1.3,0.5,2.9,0.5,4.8v10.2h-6.1v-2.2h-0.1c-0.5,0.8-1.3,1.5-2.3,1.9s-2.2,0.7-3.4,0.7c-0.8,0-1.7-0.1-2.5-0.3
		c-0.9-0.2-1.7-0.6-2.4-1.1c-0.7-0.5-1.3-1.1-1.8-1.9c-0.5-0.8-0.7-1.8-0.7-3c0-1.5,0.4-2.6,1.2-3.5c0.8-0.9,1.8-1.6,3.1-2.1
		s2.7-0.8,4.2-1c1.5-0.2,3-0.2,4.5-0.2v-0.3c0-1-0.4-1.7-1.1-2.2c-0.7-0.5-1.6-0.7-2.6-0.7c-0.9,0-1.9,0.2-2.7,0.6
		c-0.9,0.4-1.6,0.9-2.3,1.5L834.7,156.8z M846.9,165.4h-0.9c-0.7,0-1.5,0-2.2,0.1c-0.7,0.1-1.4,0.2-2,0.4c-0.6,0.2-1.1,0.5-1.4,0.8
		c-0.4,0.4-0.6,0.8-0.6,1.4c0,0.4,0.1,0.7,0.3,1c0.2,0.3,0.4,0.5,0.7,0.6c0.3,0.2,0.6,0.3,0.9,0.3c0.4,0.1,0.7,0.1,1,0.1
		c1.4,0,2.4-0.4,3.1-1.1c0.7-0.7,1.1-1.8,1.1-3V165.4z"/>
	<path d="M871.3,174.2v-11c0-0.6,0-1.1-0.1-1.6c-0.1-0.5-0.3-1-0.5-1.4c-0.2-0.4-0.5-0.7-0.9-0.9c-0.4-0.2-0.9-0.3-1.5-0.3
		c-0.6,0-1.1,0.1-1.6,0.3c-0.4,0.2-0.8,0.5-1.1,1s-0.5,0.9-0.7,1.4c-0.1,0.5-0.2,1.1-0.2,1.6v11H858V154h6.5v2.8h0.1
		c0.2-0.4,0.6-0.9,1-1.3c0.4-0.4,0.9-0.8,1.4-1.1c0.5-0.3,1.1-0.5,1.7-0.7c0.6-0.2,1.3-0.3,2-0.3c1.4,0,2.5,0.2,3.5,0.7
		s1.7,1.1,2.3,1.9s1,1.7,1.3,2.7c0.3,1,0.4,2,0.4,3v12.5H871.3z"/>
	<path d="M894.4,177.3c-0.4,1.1-0.9,2-1.4,2.8s-1.1,1.5-1.8,2.1s-1.5,1-2.4,1.3c-0.9,0.3-2,0.4-3.3,0.4c-0.6,0-1.3,0-1.9-0.1
		c-0.7-0.1-1.2-0.2-1.7-0.3l0.7-5.6c0.3,0.1,0.7,0.2,1.1,0.3c0.4,0.1,0.8,0.1,1.1,0.1c1,0,1.8-0.2,2.2-0.7c0.5-0.5,0.9-1.1,1.2-2
		l0.6-1.7l-8.4-19.9h7.4l4.5,13h0.1l4-13h7.1L894.4,177.3z"/>
</g>
</svg>
